<?xml version="1.0" encoding="UTF-8" standalone="no"?>
<!DOCTYPE svg PUBLIC "-//W3C//DTD SVG 1.1//EN" "http://www.w3.org/Graphics/SVG/1.1/DTD/svg11.dtd">
<svg width="100%" height="100%" viewBox="0 0 205 44" version="1.1" xmlns="http://www.w3.org/2000/svg" xmlns:xlink="http://www.w3.org/1999/xlink" xml:space="preserve" xmlns:serif="http://www.serif.com/" style="fill-rule:evenodd;clip-rule:evenodd;stroke-linejoin:round;stroke-miterlimit:2;">
    <g transform="matrix(1,0,0,1,0,-106)">
        <g id="Artboard2" transform="matrix(0.61747,0,0,0.895833,0,18.326819)">
            <rect x="0" y="98" width="332" height="48" style="fill:none;"/>
            <g transform="matrix(0.900096,0,0,0.620408,-1.225035,97.961689)">
                <path d="M35.094,0.733C35.632,0.686 36.507,0.678 37.06,0.676C46.514,0.598 55.603,4.333 62.278,11.038C60.678,12.595 59.092,14.166 57.519,15.751C56.397,16.87 55.025,18.18 53.994,19.354C49.647,15.428 45.729,13.313 39.778,12.636C27.09,11.194 15.173,20.536 13.946,33.456C11.909,54.895 36.273,67.712 52.904,53.6C53.261,53.29 53.659,52.882 54.003,52.547C54.768,53.666 57.452,56.133 58.573,57.291C59.378,58.123 61.491,60.281 62.3,60.946C60.586,62.767 58.017,64.692 55.899,66.014C42.644,74.289 25.606,72.729 13.914,62.485C6.998,56.371 2.755,47.783 2.097,38.568C1.395,29.135 4.512,19.814 10.746,12.707C16.931,5.609 25.704,1.295 35.094,0.733Z" style="fill:rgb(51,123,204);fill-rule:nonzero;"/>
            </g>
            <g transform="matrix(0.85425,0,0,0.588808,0.486169,99.0993)">
                <path d="M44,35.871L35.907,56.197L27.667,35.871L35.907,16.301L44,35.871ZM36.066,33.8C34.52,33.8 33.267,35.054 33.267,36.6C33.267,38.146 34.52,39.4 36.066,39.4C37.613,39.4 38.866,38.146 38.866,36.6C38.866,35.054 37.613,33.8 36.066,33.8Z"/>
            </g>
            <g transform="matrix(0.874994,0,0,0.603106,-9.208708,96.623192)">
                <path d="M355.28,61.2L359.68,54.08C362.48,56.72 368.24,59.36 373.04,59.36C377.44,59.36 379.52,57.84 379.52,55.44C379.52,52.72 376.16,51.76 371.76,50.88C365.12,49.6 356.56,48 356.56,38.8C356.56,32.32 362.24,26.64 372.4,26.64C378.96,26.64 384.16,28.88 387.92,31.92L383.92,38.88C381.6,36.4 377.2,34.4 372.48,34.4C368.8,34.4 366.4,35.76 366.4,38C366.4,40.4 369.44,41.28 373.76,42.16C380.4,43.44 389.28,45.2 389.28,54.8C389.28,61.92 383.28,67.2 372.56,67.2C365.84,67.2 359.36,64.96 355.28,61.2Z" style="fill-rule:nonzero;"/>
            </g>
            <g transform="matrix(0.874994,0,0,0.603106,-9.208708,96.623192)">
                <path d="M320.28,61.2L324.68,54.08C327.48,56.72 333.24,59.36 338.04,59.36C342.44,59.36 344.52,57.84 344.52,55.44C344.52,52.72 341.16,51.76 336.76,50.88C330.12,49.6 321.56,48 321.56,38.8C321.56,32.32 327.24,26.64 337.4,26.64C343.96,26.64 349.16,28.88 352.92,31.92L348.92,38.88C346.6,36.4 342.2,34.4 337.48,34.4C333.8,34.4 331.4,35.76 331.4,38C331.4,40.4 334.44,41.28 338.76,42.16C345.4,43.44 354.28,45.2 354.28,54.8C354.28,61.92 348.28,67.2 337.56,67.2C330.84,67.2 324.36,64.96 320.28,61.2Z" style="fill-rule:nonzero;"/>
            </g>
            <g transform="matrix(0.874994,0,0,0.603106,-9.208708,96.623192)">
                <path d="M317.12,66.24L306.96,66.24L306.96,62.24C304.32,65.36 299.76,67.2 294.72,67.2C288.56,67.2 281.28,63.04 281.28,54.4C281.28,45.36 288.56,42.08 294.72,42.08C299.84,42.08 304.4,43.68 306.96,46.8L306.96,41.44C306.96,37.52 303.6,34.96 298.48,34.96C294.32,34.96 290.48,36.48 287.2,39.52L283.36,32.72C288.08,28.56 294.16,26.64 300.24,26.64C309.04,26.64 317.12,30.16 317.12,41.28L317.12,66.24ZM306.96,56.96L306.96,52.16C305.28,49.92 302.08,48.8 298.8,48.8C294.8,48.8 291.52,50.96 291.52,54.64C291.52,58.24 294.8,60.32 298.8,60.32C302.08,60.32 305.28,59.2 306.96,56.96Z" style="fill-rule:nonzero;"/>
            </g>
            <g transform="matrix(0.874994,0,0,0.603106,-9.208708,96.623192)">
                <path d="M249.44,61.28L249.44,80.96L239.28,80.96L239.28,27.6L249.44,27.6L249.44,32.48C252.4,28.72 256.64,26.64 261.36,26.64C271.28,26.64 278.48,34 278.48,46.88C278.48,59.76 271.28,67.2 261.36,67.2C256.8,67.2 252.56,65.28 249.44,61.28ZM267.92,46.88C267.92,40.24 264,35.68 258.16,35.68C254.88,35.68 251.12,37.6 249.44,40.08L249.44,53.76C251.12,56.16 254.88,58.16 258.16,58.16C264,58.16 267.92,53.6 267.92,46.88Z" style="fill-rule:nonzero;"/>
            </g>
            <g transform="matrix(0.874994,0,0,0.603106,-9.208708,96.623192)">
                <path d="M232.339,66.24L222.099,66.24L222.099,41.84C222.099,38.24 220.499,35.68 216.339,35.68C212.739,35.68 209.779,38.08 208.339,40.16L208.339,66.24L198.099,66.24L198.099,41.84C198.099,38.24 196.499,35.68 192.339,35.68C188.819,35.68 185.859,38.08 184.339,40.24L184.339,66.24L174.179,66.24L174.179,27.6L184.339,27.6L184.339,32.64C185.939,30.32 191.059,26.64 196.979,26.64C202.659,26.64 206.259,29.28 207.699,33.68C209.939,30.16 215.059,26.64 220.979,26.64C228.099,26.64 232.339,30.4 232.339,38.32L232.339,66.24Z" style="fill-rule:nonzero;"/>
            </g>
            <g transform="matrix(0.874994,0,0,0.603106,-9.208708,96.623192)">
                <path d="M150.162,67.2C137.442,67.2 129.762,57.92 129.762,46.88C129.762,35.92 137.442,26.64 150.162,26.64C162.962,26.64 170.642,35.92 170.642,46.88C170.642,57.92 162.962,67.2 150.162,67.2ZM150.162,58.16C156.482,58.16 160.082,52.96 160.082,46.88C160.082,40.88 156.482,35.68 150.162,35.68C143.842,35.68 140.322,40.88 140.322,46.88C140.322,52.96 143.842,58.16 150.162,58.16Z" style="fill-rule:nonzero;"/>
            </g>
            <g transform="matrix(0.874994,0,0,0.603106,-9.208708,96.623192)">
                <path d="M105,67.2C89.4,67.2 77,56 77,39.6C77,23.2 89.4,12 105,12C117.16,12 123.96,18.4 127.72,25.04L117.96,29.84C115.72,25.52 110.92,22.08 105,22.08C95.72,22.08 88.68,29.52 88.68,39.6C88.68,49.68 95.72,57.12 105,57.12C110.92,57.12 115.72,53.76 117.96,49.36L127.72,54.08C123.88,60.72 117.16,67.2 105,67.2Z" style="fill-rule:nonzero;"/>
            </g>
        </g>
    </g>
</svg>
