<svg xmlns="http://www.w3.org/2000/svg" width="117" height="48" fill="none"><path d="M 10 24 C 10 16.268 16.268 10 24 10 C 31.732 10 38 16.268 38 24 C 38 31.732 31.732 38 24 38 C 16.268 38 10 31.732 10 24 Z M 24 48 C 37.255 48 48 37.255 48 24 C 48 10.745 37.255 0 24 0 C 10.745 0 0 10.745 0 24 C 0 37.255 10.745 48 24 48 Z" fill="rgb(255,119,0)"></path><path d="M 67 24 C 67 12.686 67 7.03 70.515 3.515 C 74.029 0 79.686 0 91 0 C 102.314 0 107.97 0 111.485 3.515 C 115 7.029 115 12.686 115 24 C 115 35.314 115 40.97 111.485 44.485 C 107.971 48 102.314 48 91 48 C 79.686 48 74.03 48 70.515 44.485 C 67 40.971 67 35.314 67 24 Z" fill="rgb(42, 132, 248)"></path><path d="M 67.463 1.606 C 69.863 2.885 70.712 5.794 69.35 8.114 L 47.378 45.493 C 46.017 47.812 42.971 48.69 40.57 47.411 C 38.168 46.131 37.278 43.15 38.64 40.83 L 60.613 3.451 C 61.972 1.146 65.035 0.321 67.463 1.606 Z" fill="rgb(255, 205, 116)"></path></svg>