<svg width="2450" height="583" viewBox="0 0 2450 583" fill="none" xmlns="http://www.w3.org/2000/svg">
<path d="M1130.97 396.242L986.722 21.8982H886.812L742 396.242H829.562L853.112 331.697H1020.4L1043.97 396.242H1130.97ZM998.509 262.67H874.464L936.767 90.9355L998.509 262.67Z" fill="#FAFAFA" style="fill:#FAFAFA;fill:color(display-p3 0.9804 0.9804 0.9804);fill-opacity:1;"/>
<path d="M1183.73 85.3132C1207.31 85.3132 1226.39 66.2348 1226.39 42.6653C1226.39 19.0784 1207.31 0 1183.73 0C1160.72 0 1141.07 19.0784 1141.07 42.6653C1141.07 66.2348 1160.72 85.3132 1183.73 85.3132ZM1219.65 396.241V125.162H1148.37V396.241H1219.65Z" fill="#FAFAFA" style="fill:#FAFAFA;fill:color(display-p3 0.9804 0.9804 0.9804);fill-opacity:1;"/>
<path d="M1345.95 396.242V217.218C1357.74 199.816 1389.17 186.908 1412.74 186.908C1420.6 186.908 1427.33 187.46 1432.36 188.584V118.996C1398.71 118.996 1365.01 138.075 1345.95 162.216V125.166H1274.64V396.242H1345.95Z" fill="#FAFAFA" style="fill:#FAFAFA;fill:color(display-p3 0.9804 0.9804 0.9804);fill-opacity:1;"/>
<path d="M1679.92 85.3132C1703.49 85.3132 1722.57 66.2348 1722.57 42.6653C1722.57 19.0784 1703.49 0 1679.92 0C1656.9 0 1637.26 19.0784 1637.26 42.6653C1637.26 66.2348 1656.9 85.3132 1679.92 85.3132ZM1548.55 187.46H1603.58V125.162H1548.55V110.58C1548.55 85.8674 1562.02 72.4078 1582.25 72.4078C1591.77 72.4078 1599.63 75.2068 1605.26 79.1437L1619.86 27.5117C1606.95 20.7706 1588.42 16.2794 1568.22 16.2794C1514.9 16.2794 1476.7 51.6337 1476.7 110.58V125.162H1431.83V187.46H1476.7V396.241H1548.55V187.46ZM1715.84 396.241V125.162H1644.55V396.241H1715.84Z" fill="#FAFAFA" style="fill:#FAFAFA;fill:color(display-p3 0.9804 0.9804 0.9804);fill-opacity:1;"/>
<path d="M1753.44 260.422C1753.44 347.435 1815.75 402.976 1898.25 402.976C1940.35 402.976 1982.45 390.652 2009.95 365.396L1978.52 319.372C1961.12 336.187 1931.37 346.312 1906.11 346.312C1860.09 346.312 1832.56 317.664 1828.09 283.439H2029.57V267.731C2029.57 179.048 1974.59 118.428 1893.76 118.428C1811.26 118.428 1753.44 181.848 1753.44 260.422ZM1893.76 175.125C1940.89 175.125 1958.85 209.358 1960.56 235.174H1826.97C1830.32 208.234 1849.42 175.125 1893.76 175.125Z" fill="#FAFAFA" style="fill:#FAFAFA;fill:color(display-p3 0.9804 0.9804 0.9804);fill-opacity:1;"/>
<path d="M2136.8 21.8982H2065.52V396.242H2136.8V21.8982Z" fill="#FAFAFA" style="fill:#FAFAFA;fill:color(display-p3 0.9804 0.9804 0.9804);fill-opacity:1;"/>
<path d="M2450 396.242V21.8982H2378.16V159.971C2356.83 132.461 2326.52 118.428 2294.52 118.428C2225.48 118.428 2174.41 172.31 2174.41 260.994C2174.41 351.365 2226.05 403 2294.52 403C2327.08 403 2356.83 388.408 2378.16 362.027V396.242H2450ZM2378.16 308.706C2365.81 326.669 2340.55 339.578 2316.41 339.578C2276 339.578 2247.94 307.584 2247.94 260.994C2247.94 213.853 2276 181.848 2316.41 181.848C2340.55 181.848 2365.81 194.757 2378.16 212.729V308.706Z" fill="#FAFAFA" style="fill:#FAFAFA;fill:color(display-p3 0.9804 0.9804 0.9804);fill-opacity:1;"/>
<path d="M796.034 580.207C832.945 580.207 857.97 555.905 857.97 521.1C857.97 486.319 832.945 461.843 796.034 461.843H752V580.207H796.034ZM772.761 480.108H796.034C822.466 480.108 836.668 498.226 836.668 521.1C836.668 543.482 821.776 561.919 796.034 561.919H772.761V480.108Z" fill="#FAFAFA" style="fill:#FAFAFA;fill:color(display-p3 0.9804 0.9804 0.9804);fill-opacity:1;"/>
<path d="M980.484 580.207V561.919H920.103V529.11H979.226V510.821H920.103V480.108H980.484V461.843H899.342V580.207H980.484Z" fill="#FAFAFA" style="fill:#FAFAFA;fill:color(display-p3 0.9804 0.9804 0.9804);fill-opacity:1;"/>
<path d="M1015.44 563.521C1025.92 574.686 1041.73 582.328 1063.57 582.328C1095.53 582.328 1109.36 565.468 1109.36 545.773C1109.36 520.04 1086.08 514.001 1066.56 509.047C1052.55 505.496 1040.47 502.466 1040.47 493.247C1040.47 484.373 1048.28 478.507 1060.54 478.507C1072.96 478.507 1085.56 482.771 1094.79 491.989L1106.69 476.559C1095.7 465.91 1080.78 460.069 1062.31 460.069C1036.4 460.069 1019.17 475.131 1019.17 494.675C1019.17 519.696 1041.9 525.363 1061.25 530.147C1075.63 533.893 1088.2 537.072 1088.2 547.721C1088.2 555.535 1081.47 563.865 1064.43 563.865C1047.92 563.865 1035.14 556.249 1027.01 547.549L1015.44 563.521Z" fill="#FAFAFA" style="fill:#FAFAFA;fill:color(display-p3 0.9804 0.9804 0.9804);fill-opacity:1;"/>
<path d="M1170.6 461.843H1149.82V580.207H1170.6V461.843Z" fill="#FAFAFA" style="fill:#FAFAFA;fill:color(display-p3 0.9804 0.9804 0.9804);fill-opacity:1;"/>
<path d="M1211.8 521.1C1211.8 558.196 1239.66 582.5 1273.91 582.5C1294.5 582.5 1311.02 573.996 1322.73 561.031V516.663H1266.61V534.952H1301.97V553.414C1296.64 558.37 1285.97 564.063 1273.91 564.063C1250.49 564.063 1233.08 545.947 1233.08 521.1C1233.08 496.278 1250.49 478.359 1273.91 478.359C1287.22 478.359 1298.39 485.261 1304.61 494.133L1321.67 484.545C1312.1 470.889 1296.99 459.896 1273.91 459.896C1239.66 459.896 1211.8 484.003 1211.8 521.1Z" fill="#FAFAFA" style="fill:#FAFAFA;fill:color(display-p3 0.9804 0.9804 0.9804);fill-opacity:1;"/>
<path d="M1468.29 580.207V461.843H1447.53V545.773L1387 461.843H1365.7V580.207H1386.46V493.961L1448.25 580.207H1468.29Z" fill="#FAFAFA" style="fill:#FAFAFA;fill:color(display-p3 0.9804 0.9804 0.9804);fill-opacity:1;"/>
<path d="M1595.94 580.207V561.919H1535.58V529.11H1594.7V510.821H1535.58V480.108H1595.94V461.843H1514.82V580.207H1595.94Z" fill="#FAFAFA" style="fill:#FAFAFA;fill:color(display-p3 0.9804 0.9804 0.9804);fill-opacity:1;"/>
<path d="M1730.14 580.207L1701.22 533.696C1715.39 531.403 1729.25 520.04 1729.25 498.917C1729.25 477.101 1713.99 461.843 1690.56 461.843H1638.54V580.207H1659.3V536.012H1679.91L1706.17 580.207H1730.14ZM1707.95 498.917C1707.95 510.279 1699.44 517.747 1687.7 517.747H1659.3V480.108H1687.7C1699.44 480.108 1707.95 487.552 1707.95 498.917Z" fill="#FAFAFA" style="fill:#FAFAFA;fill:color(display-p3 0.9804 0.9804 0.9804);fill-opacity:1;"/>
<path d="M303.384 348.285L0.697266 120.029L656.283 82L303.384 348.285Z" fill="#04D2D9" style="fill:#04D2D9;fill:color(display-p3 0.0157 0.8235 0.8510);fill-opacity:1;"/>
<path d="M656.141 233.748L655.647 82.1667L303.242 347.917V499.87" fill="#07BBC2" style="fill:#07BBC2;fill:color(display-p3 0.0275 0.7333 0.7608);fill-opacity:1;"/>
<path d="M1.19353 271.84L0.697266 120.26L303.235 348.466V500.419" fill="#0B8491" style="fill:#0B8491;fill:color(display-p3 0.0431 0.5176 0.5686);fill-opacity:1;"/>
</svg>
