<svg width="2043" height="591" viewBox="0 0 2043 591" fill="none" xmlns="http://www.w3.org/2000/svg">
<path d="M799.39 587.894C836.776 587.894 862.126 563.278 862.126 528.038C862.126 492.797 836.776 467.998 799.39 467.998H754.783V587.894H799.39ZM775.813 486.518H799.39C826.162 486.518 840.573 504.854 840.573 528.038C840.573 550.696 825.463 569.376 799.39 569.376H775.813V486.518Z" fill="#181A18" style="fill:#181A18;fill:color(display-p3 0.0941 0.1020 0.0941);fill-opacity:1;"/>
<path d="M986.224 587.894V569.376H925.06V536.135H984.95V517.618H925.06V486.518H986.224V467.998H904.057V587.894H986.224Z" fill="#181A18" style="fill:#181A18;fill:color(display-p3 0.0941 0.1020 0.0941);fill-opacity:1;"/>
<path d="M1021.64 571.014C1032.25 582.324 1048.26 590.057 1070.39 590.057C1102.76 590.057 1116.77 572.973 1116.77 553.021C1116.77 526.97 1093.19 520.852 1073.41 515.823C1059.23 512.228 1046.99 509.16 1046.99 499.809C1046.99 490.824 1054.91 484.886 1067.32 484.886C1079.91 484.886 1092.67 489.208 1102.01 498.559L1114.07 482.925C1102.93 472.122 1087.82 466.207 1069.12 466.207C1042.87 466.207 1025.44 481.473 1025.44 501.262C1025.44 526.608 1048.44 532.362 1068.04 537.209C1082.6 540.984 1095.37 544.217 1095.37 555.002C1095.37 562.917 1088.55 571.357 1071.27 571.357C1054.56 571.357 1041.59 563.642 1033.35 554.818L1021.64 571.014Z" fill="#181A18" style="fill:#181A18;fill:color(display-p3 0.0941 0.1020 0.0941);fill-opacity:1;"/>
<path d="M1178.81 467.998H1157.76V587.914H1178.81V467.998Z" fill="#181A18" style="fill:#181A18;fill:color(display-p3 0.0941 0.1020 0.0941);fill-opacity:1;"/>
<path d="M1220.54 528.039C1220.54 565.599 1248.76 590.238 1283.45 590.238C1304.31 590.238 1321.04 581.614 1332.9 568.489V523.535H1276.09V542.054H1311.87V560.754C1306.48 565.782 1295.67 571.536 1283.45 571.536C1259.73 571.536 1242.12 553.2 1242.12 528.039C1242.12 502.877 1259.73 484.722 1283.45 484.722C1296.94 484.722 1308.25 491.728 1314.55 500.718L1331.83 491.001C1322.14 477.169 1306.83 466.021 1283.45 466.021C1248.76 466.021 1220.54 490.458 1220.54 528.039Z" fill="#181A18" style="fill:#181A18;fill:color(display-p3 0.0941 0.1020 0.0941);fill-opacity:1;"/>
<path d="M1480.35 587.894V467.998H1459.3V553.018L1398.01 467.998H1376.43V587.894H1397.46V500.532L1460.05 587.894H1480.35Z" fill="#181A18" style="fill:#181A18;fill:color(display-p3 0.0941 0.1020 0.0941);fill-opacity:1;"/>
<path d="M1609.65 587.894V569.376H1548.51V536.135H1608.4V517.618H1548.51V486.518H1609.65V467.998H1527.48V587.894H1609.65Z" fill="#181A18" style="fill:#181A18;fill:color(display-p3 0.0941 0.1020 0.0941);fill-opacity:1;"/>
<path d="M1745.59 587.894L1716.29 540.802C1730.65 538.457 1744.69 526.966 1744.69 505.561C1744.69 483.45 1729.23 467.998 1705.5 467.998H1652.81V587.894H1673.86V543.143H1694.72L1721.31 587.894H1745.59ZM1723.11 505.561C1723.11 517.071 1714.5 524.625 1702.61 524.625H1673.86V486.518H1702.61C1714.5 486.518 1723.11 494.051 1723.11 505.561Z" fill="#181A18" style="fill:#181A18;fill:color(display-p3 0.0941 0.1020 0.0941);fill-opacity:1;"/>
<path d="M908.878 399.685C1034.15 399.685 1121.09 320.601 1121.09 200.152C1121.09 79.7059 1034.15 0 908.878 0H751.262V399.685H908.878ZM836.377 74.909H908.878C991.021 74.909 1034.15 129.432 1034.15 200.152C1034.15 267.853 988 324.791 908.878 324.791H836.377V74.909Z" fill="#181A18" style="fill:#181A18;fill:color(display-p3 0.0941 0.1020 0.0941);fill-opacity:1;"/>
<path d="M1144.47 254.677C1144.47 347.563 1210.97 406.879 1299.11 406.879C1344.07 406.879 1389.02 393.701 1418.39 366.743L1384.83 317.601C1366.24 335.572 1334.48 346.353 1307.5 346.353C1258.33 346.353 1228.96 315.808 1224.16 279.239H1439.37V262.474C1439.37 167.796 1380.63 103.079 1294.32 103.079C1206.21 103.079 1144.47 170.779 1144.47 254.677ZM1294.32 163.588C1344.64 163.588 1363.85 200.154 1365.65 227.717H1222.99C1226.58 198.947 1246.96 163.588 1294.32 163.588Z" fill="#181A18" style="fill:#181A18;fill:color(display-p3 0.0941 0.1020 0.0941);fill-opacity:1;"/>
<path d="M1459.12 254.677C1459.12 343.957 1523.29 406.879 1612.6 406.879C1671.94 406.879 1707.9 381.11 1727.06 354.152L1677.33 308.011C1663.55 327.192 1642.57 339.16 1616.17 339.16C1570.01 339.16 1537.67 305.01 1537.67 254.677C1537.67 204.345 1570.01 170.779 1616.17 170.779C1642.57 170.779 1663.55 182.163 1677.33 201.948L1727.06 155.81C1707.9 128.831 1671.94 103.079 1612.6 103.079C1523.29 103.079 1459.12 165.984 1459.12 254.677Z" fill="#181A18" style="fill:#181A18;fill:color(display-p3 0.0941 0.1020 0.0941);fill-opacity:1;"/>
<path d="M2042.96 399.685L1924.88 241.498L2039.37 110.252H1945.86L1836.17 239.101V0H1760.02V399.685H1836.17V325.377L1870.91 288.243L1947.63 399.685H2042.96Z" fill="#181A18" style="fill:#181A18;fill:color(display-p3 0.0941 0.1020 0.0941);fill-opacity:1;"/>
<path d="M207.139 482.29L124.283 422.004L124.495 321.892L414.568 112.273L497.376 172.15L207.436 381.866L207.139 482.29Z" fill="#181A18" style="fill:#181A18;fill:color(display-p3 0.0941 0.1020 0.0941);fill-opacity:1;"/>
<path d="M82.8557 395.107L0 334.821V231.88L290.074 22.2598L372.881 82.1361L82.941 291.855L82.8557 395.107Z" fill="#181A18" style="fill:#181A18;fill:color(display-p3 0.0941 0.1020 0.0941);fill-opacity:1;"/>
<path d="M331.422 569.474L248.567 509.188L248.533 411.906L538.607 202.286L621.414 262.164L331.474 471.881L331.422 569.474Z" fill="#181A18" style="fill:#181A18;fill:color(display-p3 0.0941 0.1020 0.0941);fill-opacity:1;"/>
<path d="M82.8574 395.108L124.284 368.211L124.405 321.844L372.874 142.05V82.2681L82.978 291.888L82.8574 395.108Z" fill="#181A18" style="fill:#181A18;fill:color(display-p3 0.0941 0.1020 0.0941);fill-opacity:1;"/>
<path d="M207.138 482.291L248.565 451.684L248.758 411.511L497.315 231.78L496.909 171.705L207.014 381.325L207.138 482.291Z" fill="#181A18" style="fill:#181A18;fill:color(display-p3 0.0941 0.1020 0.0941);fill-opacity:1;"/>
<path d="M331.422 569.474L621.414 361.718L620.946 262.294L331.051 471.914L331.422 569.474Z" fill="#181A18" style="fill:#181A18;fill:color(display-p3 0.0941 0.1020 0.0941);fill-opacity:1;"/>
</svg>
