<svg width="2148" height="569" viewBox="0 0 2148 569" fill="none" xmlns="http://www.w3.org/2000/svg">
<path d="M651.285 565.945C685.618 565.945 708.898 543.326 708.898 510.942C708.898 478.583 685.618 455.806 651.285 455.806H610.352V565.945H651.285ZM629.66 472.803H651.285C675.884 472.803 689.087 489.66 689.087 510.942C689.087 531.772 675.228 548.929 651.285 548.929H629.66V472.803Z" fill="#181A18" style="fill:#181A18;fill:color(display-p3 0.0941 0.1020 0.0941);fill-opacity:1;"/>
<path d="M822.802 565.945V548.929H766.678V518.397H821.637V501.38H766.678V472.803H822.802V455.806H747.357V565.945H822.802Z" fill="#181A18" style="fill:#181A18;fill:color(display-p3 0.0941 0.1020 0.0941);fill-opacity:1;"/>
<path d="M855.32 550.42C865.054 560.809 879.747 567.92 900.061 567.92C929.778 567.92 942.631 552.228 942.631 533.906C942.631 509.963 921.018 504.342 902.862 499.733C889.818 496.429 878.614 493.609 878.614 485.027C878.614 476.77 885.858 471.315 897.247 471.315C908.802 471.315 920.522 475.281 929.097 483.862L940.174 469.5C929.943 459.595 916.059 454.158 898.896 454.158C874.794 454.158 858.803 468.17 858.803 486.358C858.803 509.639 879.912 514.916 897.903 519.366C911.272 522.848 923.011 525.808 923.011 535.714C923.011 542.984 916.734 550.738 900.882 550.738C885.534 550.738 873.655 543.652 866.053 535.555L855.32 550.42Z" fill="#181A18" style="fill:#181A18;fill:color(display-p3 0.0941 0.1020 0.0941);fill-opacity:1;"/>
<path d="M999.577 455.806H980.256V565.945H999.577V455.806Z" fill="#181A18" style="fill:#181A18;fill:color(display-p3 0.0941 0.1020 0.0941);fill-opacity:1;"/>
<path d="M1037.89 510.945C1037.89 545.468 1063.81 568.08 1095.66 568.08C1114.81 568.08 1130.16 560.167 1141.06 548.103V506.819H1088.89V523.836H1121.73V541.018C1116.79 545.627 1106.89 550.923 1095.66 550.923C1073.87 550.923 1057.69 534.066 1057.69 510.945C1057.69 487.848 1073.87 471.176 1095.66 471.176C1108.05 471.176 1118.44 477.599 1124.22 485.856L1140.06 476.931C1131.15 464.23 1117.14 454 1095.66 454C1063.81 454 1037.89 476.428 1037.89 510.945Z" fill="#181A18" style="fill:#181A18;fill:color(display-p3 0.0941 0.1020 0.0941);fill-opacity:1;"/>
<path d="M1276.4 565.945V455.806H1257.1V533.905L1200.79 455.806H1180.99V565.945H1200.3V485.694L1257.75 565.945H1276.4Z" fill="#181A18" style="fill:#181A18;fill:color(display-p3 0.0941 0.1020 0.0941);fill-opacity:1;"/>
<path d="M1396.15 565.945V548.929H1340.01V518.397H1394.99V501.38H1340.01V472.803H1396.15V455.806H1320.71V565.945H1396.15Z" fill="#181A18" style="fill:#181A18;fill:color(display-p3 0.0941 0.1020 0.0941);fill-opacity:1;"/>
<path d="M1520.91 565.945L1494.02 522.669C1507.22 520.53 1520.1 509.962 1520.1 490.303C1520.1 470.002 1505.89 455.806 1484.11 455.806H1435.75V565.945H1455.05V524.82H1474.21L1498.64 565.945H1520.91ZM1500.29 490.303C1500.29 500.877 1492.37 507.823 1481.46 507.823H1455.05V472.803H1481.46C1492.37 472.803 1500.29 479.729 1500.29 490.303Z" fill="#181A18" style="fill:#181A18;fill:color(display-p3 0.0941 0.1020 0.0941);fill-opacity:1;"/>
<path d="M909.124 389.617L826.587 249.818C866.197 240.466 906.921 205.771 906.921 140.824C906.921 72.5609 860.149 22.479 783.655 22.479H612V389.617H690.131V258.068H747.349L819.419 389.617H909.124ZM827.129 140.27C827.129 171.095 803.466 190.906 772.1 190.906H690.131V89.6283H772.1C803.466 89.6283 827.129 109.452 827.129 140.27Z" fill="#181A18" style="fill:#181A18;fill:color(display-p3 0.0941 0.1020 0.0941);fill-opacity:1;"/>
<path d="M1166.06 389.617V217.886C1166.06 141.366 1110.48 117.149 1049.96 117.149C1008.15 117.149 966.32 130.365 933.86 158.994L960.279 205.772C982.834 184.853 1009.25 174.4 1037.85 174.4C1073.07 174.4 1096.17 192.008 1096.17 218.987V255.866C1078.57 234.393 1047.22 223.399 1012 223.399C969.624 223.399 919.549 245.954 919.549 308.151C919.549 367.597 969.624 396.219 1012 396.219C1046.66 396.219 1078.02 383.557 1096.17 362.09V389.617H1166.06ZM1096.17 325.785C1084.62 341.178 1062.61 348.906 1040.05 348.906C1012.56 348.906 989.977 334.57 989.977 309.825C989.977 284.494 1012.56 269.63 1040.05 269.63C1062.61 269.63 1084.62 277.339 1096.17 292.745V325.785Z" fill="#181A18" style="fill:#181A18;fill:color(display-p3 0.0941 0.1020 0.0941);fill-opacity:1;"/>
<path d="M1254.65 84.6693C1277.76 84.6693 1296.48 65.9594 1296.48 42.8442C1296.48 19.7099 1277.76 1 1254.65 1C1232.09 1 1212.84 19.7099 1212.84 42.8442C1212.84 65.9594 1232.09 84.6693 1254.65 84.6693ZM1289.87 389.617V123.751H1219.98V389.617H1289.87Z" fill="#181A18" style="fill:#181A18;fill:color(display-p3 0.0941 0.1020 0.0941);fill-opacity:1;"/>
<path d="M1413.68 22.479H1343.79V389.617H1413.68V22.479Z" fill="#181A18" style="fill:#181A18;fill:color(display-p3 0.0941 0.1020 0.0941);fill-opacity:1;"/>
<path d="M1502.26 84.6693C1525.36 84.6693 1544.08 65.9594 1544.08 42.8442C1544.08 19.7099 1525.36 1 1502.26 1C1479.69 1 1460.43 19.7099 1460.43 42.8442C1460.43 65.9594 1479.69 84.6693 1502.26 84.6693ZM1537.47 389.617V123.751H1467.6V389.617H1537.47Z" fill="#181A18" style="fill:#181A18;fill:color(display-p3 0.0941 0.1020 0.0941);fill-opacity:1;"/>
<path d="M1840.64 389.617V201.92C1840.64 150.183 1812.58 117.149 1754.26 117.149C1710.79 117.149 1678.33 138.062 1661.27 158.433V123.757H1591.38V389.617H1661.27V210.737C1672.82 194.771 1694.28 179.346 1721.8 179.346C1751.52 179.346 1770.78 192.008 1770.78 228.887V389.617H1840.64Z" fill="#181A18" style="fill:#181A18;fill:color(display-p3 0.0941 0.1020 0.0941);fill-opacity:1;"/>
<path d="M1889.08 457.893C1922.09 487.044 1957.86 497.503 2003.53 497.503C2069.02 497.503 2147.15 472.758 2147.15 371.474V123.757H2076.72V157.892C2055.25 130.913 2026.64 117.149 1994.72 117.149C1927.59 117.149 1877.52 165.589 1877.52 252.562C1877.52 341.178 1928.15 387.988 1994.72 387.988C2027.18 387.988 2055.81 372.55 2076.72 346.15V373.123C2076.72 425.395 2037.1 440.259 2003.53 440.259C1969.97 440.259 1941.9 430.901 1920.45 407.251L1889.08 457.893ZM2076.72 295.495C2065.15 312.55 2039.86 325.785 2016.74 325.785C1977.11 325.785 1949.61 298.258 1949.61 252.562C1949.61 206.873 1977.11 179.346 2016.74 179.346C2039.86 179.346 2065.15 192.008 2076.72 209.636V295.495Z" fill="#181A18" style="fill:#181A18;fill:color(display-p3 0.0941 0.1020 0.0941);fill-opacity:1;"/>
<path d="M84.2686 116.674V480.896L160.712 446.997V129.291L84.2686 116.674Z" fill="#181A18" style="fill:#181A18;fill:color(display-p3 0.0941 0.1020 0.0941);fill-opacity:1;"/>
<path d="M413.95 104.476L413.663 539.235L487.739 499.033V72.105L413.95 104.476Z" fill="#181A18" style="fill:#181A18;fill:color(display-p3 0.0941 0.1020 0.0941);fill-opacity:1;"/>
<path d="M413.954 105.437L0.738281 34.3153L76.2781 0.785156L487.743 72.2443" fill="#181A18" style="fill:#181A18;fill:color(display-p3 0.0941 0.1020 0.0941);fill-opacity:1;"/>
<path d="M351.268 312.976L84.2686 264.098L160.712 237.29L414.477 281.439L351.268 312.976Z" fill="#181A18" style="fill:#181A18;fill:color(display-p3 0.0941 0.1020 0.0941);fill-opacity:1;"/>
<path d="M84.2606 365.798V480.114L1.25977 464.58V34.4185L414.125 105.457L414.45 539.235L322.25 522.683V406.006L84.2606 365.798ZM322.25 307.459V171.862L84.2606 133.233V264.1L322.25 307.459Z" fill="#181A18" style="fill:#181A18;fill:color(display-p3 0.0941 0.1020 0.0941);fill-opacity:1;"/>
</svg>
