<svg width="1920" height="1080" viewBox="0 0 1920 1080" fill="none" xmlns="http://www.w3.org/2000/svg">
<path d="M0 30C0 13.4314 13.4315 0 30 0H1890C1906.57 0 1920 13.4315 1920 30V1050C1920 1066.57 1906.57 1080 1890 1080H29.9999C13.4314 1080 0 1066.57 0 1050V30Z" fill="#021B20"/>
<path d="M738.565 331.672V249.072H793.907V263.35H756.265V282.82H790.367V296.508H756.265V317.394H793.907V331.672H738.565ZM798.732 331.672L820.444 301.936L798.732 272.2H817.848L831.536 291.434L845.224 272.2H864.222L842.51 301.936L864.222 331.672H845.224L831.536 312.32L817.848 331.672H798.732ZM870.567 357.632V272.2H886.261L888.267 279.988C889.526 278.336 890.981 276.802 892.633 275.386C894.285 273.97 896.252 272.869 898.533 272.082C900.893 271.217 903.647 270.784 906.793 270.784C912.3 270.784 917.138 272.161 921.307 274.914C925.555 277.668 928.938 281.404 931.455 286.124C933.973 290.766 935.231 296.076 935.231 302.054C935.231 308.033 933.933 313.382 931.337 318.102C928.82 322.744 925.437 326.402 921.189 329.076C916.941 331.751 912.182 333.088 906.911 333.088C902.663 333.088 899.005 332.341 895.937 330.846C892.869 329.352 890.313 327.267 888.267 324.592V357.632H870.567ZM902.427 317.63C905.259 317.63 907.777 317.001 909.979 315.742C912.261 314.405 914.031 312.556 915.289 310.196C916.548 307.836 917.177 305.122 917.177 302.054C917.177 298.986 916.548 296.272 915.289 293.912C914.031 291.552 912.261 289.704 909.979 288.366C907.777 286.95 905.259 286.242 902.427 286.242C899.517 286.242 896.921 286.95 894.639 288.366C892.437 289.704 890.706 291.552 889.447 293.912C888.189 296.272 887.559 298.947 887.559 301.936C887.559 305.004 888.189 307.758 889.447 310.196C890.706 312.556 892.437 314.405 894.639 315.742C896.921 317.001 899.517 317.63 902.427 317.63ZM945.271 331.672V246.712H962.971V331.672H945.271ZM1003.36 333.088C997.617 333.088 992.464 331.751 987.902 329.076C983.339 326.402 979.72 322.744 977.046 318.102C974.371 313.382 973.034 308.033 973.034 302.054C973.034 295.918 974.371 290.53 977.046 285.888C979.72 281.168 983.339 277.471 987.902 274.796C992.543 272.122 997.696 270.784 1003.36 270.784C1009.18 270.784 1014.37 272.122 1018.94 274.796C1023.5 277.471 1027.12 281.168 1029.79 285.888C1032.47 290.53 1033.8 295.879 1033.8 301.936C1033.8 307.994 1032.47 313.382 1029.79 318.102C1027.12 322.744 1023.5 326.402 1018.94 329.076C1014.37 331.751 1009.18 333.088 1003.36 333.088ZM1003.36 317.748C1005.72 317.748 1007.8 317.158 1009.61 315.978C1011.5 314.798 1013 313.028 1014.1 310.668C1015.2 308.308 1015.75 305.398 1015.75 301.936C1015.75 298.475 1015.2 295.564 1014.1 293.204C1013 290.844 1011.54 289.074 1009.73 287.894C1007.92 286.714 1005.84 286.124 1003.48 286.124C1001.12 286.124 998.994 286.714 997.106 287.894C995.296 289.074 993.841 290.844 992.74 293.204C991.638 295.564 991.088 298.475 991.088 301.936C991.088 305.398 991.638 308.308 992.74 310.668C993.841 313.028 995.296 314.798 997.106 315.978C998.994 317.158 1001.08 317.748 1003.36 317.748ZM1043.86 331.672V272.2H1059.56L1061.21 283.056C1062.78 280.539 1064.63 278.376 1066.75 276.566C1068.88 274.757 1071.32 273.341 1074.07 272.318C1076.9 271.296 1079.93 270.784 1083.16 270.784V289.546H1077.26C1074.9 289.546 1072.73 289.822 1070.77 290.372C1068.88 290.844 1067.23 291.67 1065.81 292.85C1064.47 294.03 1063.41 295.643 1062.62 297.688C1061.92 299.655 1061.56 302.133 1061.56 305.122V331.672H1043.86ZM1118.56 333.088C1112.42 333.088 1107.04 331.83 1102.39 329.312C1097.75 326.716 1094.09 323.137 1091.42 318.574C1088.82 313.933 1087.53 308.623 1087.53 302.644C1087.53 296.508 1088.82 291.041 1091.42 286.242C1094.02 281.444 1097.63 277.668 1102.28 274.914C1106.92 272.161 1112.31 270.784 1118.44 270.784C1124.42 270.784 1129.65 272.082 1134.14 274.678C1138.62 277.274 1142.12 280.814 1144.64 285.298C1147.23 289.704 1148.53 294.817 1148.53 300.638C1148.53 301.425 1148.49 302.33 1148.41 303.352C1148.41 304.296 1148.34 305.28 1148.18 306.302H1100.15V296.036H1130.48C1130.32 292.732 1129.1 290.097 1126.82 288.13C1124.62 286.085 1121.86 285.062 1118.56 285.062C1116.04 285.062 1113.76 285.652 1111.72 286.832C1109.67 288.012 1108.02 289.782 1106.76 292.142C1105.58 294.502 1104.99 297.492 1104.99 301.11V304.65C1104.99 307.404 1105.5 309.842 1106.52 311.966C1107.63 314.09 1109.16 315.742 1111.13 316.922C1113.17 318.102 1115.57 318.692 1118.32 318.692C1120.92 318.692 1123.04 318.181 1124.7 317.158C1126.43 316.057 1127.76 314.68 1128.71 313.028H1146.76C1145.66 316.804 1143.77 320.226 1141.1 323.294C1138.42 326.284 1135.16 328.683 1131.3 330.492C1127.45 332.223 1123.2 333.088 1118.56 333.088Z" fill="#FAFAFA"/>
<path d="M1560.25 746.738C1551.99 746.738 1544.87 744.968 1538.89 741.428C1532.91 737.81 1528.31 732.814 1525.08 726.442C1521.86 719.992 1520.24 712.597 1520.24 704.258C1520.24 695.762 1521.86 688.328 1525.08 681.956C1528.31 675.506 1532.91 670.471 1538.89 666.852C1544.87 663.155 1551.99 661.306 1560.25 661.306C1570.47 661.306 1578.81 663.863 1585.26 668.976C1591.79 674.09 1595.84 681.288 1597.42 690.57H1578.06C1577.12 686.401 1575.11 683.176 1572.05 680.894C1568.98 678.534 1565.01 677.354 1560.13 677.354C1555.49 677.354 1551.51 678.456 1548.21 680.658C1544.98 682.861 1542.51 685.968 1540.78 689.98C1539.12 693.914 1538.3 698.673 1538.3 704.258C1538.3 709.686 1539.12 714.406 1540.78 718.418C1542.51 722.352 1544.98 725.42 1548.21 727.622C1551.51 729.746 1555.49 730.808 1560.13 730.808C1565.01 730.808 1568.94 729.786 1571.93 727.74C1575 725.616 1577.04 722.588 1578.06 718.654H1597.42C1595.84 727.386 1591.79 734.27 1585.26 739.304C1578.81 744.26 1570.47 746.738 1560.25 746.738ZM1606.87 745.322V685.85H1622.57L1624.22 696.706C1625.79 694.189 1627.64 692.026 1629.76 690.216C1631.89 688.407 1634.33 686.991 1637.08 685.968C1639.91 684.946 1642.94 684.434 1646.17 684.434V703.196H1640.27C1637.91 703.196 1635.74 703.472 1633.78 704.022C1631.89 704.494 1630.24 705.32 1628.82 706.5C1627.48 707.68 1626.42 709.293 1625.63 711.338C1624.93 713.305 1624.57 715.783 1624.57 718.772V745.322H1606.87ZM1673.18 746.738C1668.22 746.738 1664.09 745.952 1660.79 744.378C1657.56 742.805 1655.17 740.681 1653.59 738.006C1652.1 735.253 1651.35 732.224 1651.35 728.92C1651.35 725.38 1652.22 722.273 1653.95 719.598C1655.76 716.845 1658.55 714.682 1662.32 713.108C1666.1 711.456 1670.86 710.63 1676.6 710.63H1691C1691 707.956 1690.64 705.753 1689.94 704.022C1689.31 702.292 1688.24 700.994 1686.75 700.128C1685.26 699.263 1683.21 698.83 1680.61 698.83C1677.86 698.83 1675.54 699.381 1673.65 700.482C1671.76 701.584 1670.58 703.314 1670.11 705.674H1653.12C1653.51 701.426 1654.89 697.729 1657.25 694.582C1659.69 691.436 1662.91 688.958 1666.93 687.148C1670.94 685.339 1675.54 684.434 1680.73 684.434C1686.4 684.434 1691.31 685.378 1695.48 687.266C1699.65 689.076 1702.88 691.75 1705.16 695.29C1707.52 698.83 1708.7 703.236 1708.7 708.506V745.322H1693.95L1691.82 736.708C1690.96 738.203 1689.94 739.58 1688.76 740.838C1687.58 742.018 1686.2 743.08 1684.63 744.024C1683.05 744.89 1681.32 745.558 1679.43 746.03C1677.55 746.502 1675.46 746.738 1673.18 746.738ZM1677.55 733.286C1679.43 733.286 1681.09 732.972 1682.5 732.342C1683.92 731.713 1685.14 730.848 1686.16 729.746C1687.18 728.645 1688.01 727.386 1688.64 725.97C1689.35 724.476 1689.86 722.863 1690.17 721.132V721.014H1678.73C1676.76 721.014 1675.11 721.29 1673.77 721.84C1672.51 722.312 1671.57 723.02 1670.94 723.964C1670.31 724.908 1669.99 726.01 1669.99 727.268C1669.99 728.606 1670.31 729.746 1670.94 730.69C1671.65 731.556 1672.55 732.224 1673.65 732.696C1674.83 733.09 1676.13 733.286 1677.55 733.286ZM1722.35 745.322V681.602C1722.35 676.41 1723.25 672.28 1725.06 669.212C1726.87 666.066 1729.39 663.824 1732.61 662.486C1735.92 661.07 1739.69 660.362 1743.94 660.362H1751.49V675.348H1746.77C1744.33 675.348 1742.6 675.82 1741.58 676.764C1740.56 677.708 1740.05 679.321 1740.05 681.602V745.322H1722.35ZM1714.56 700.6V685.85H1752.32V700.6H1714.56ZM1788.88 745.322C1784.64 745.322 1780.86 744.654 1777.56 743.316C1774.25 741.9 1771.69 739.619 1769.89 736.472C1768.08 733.326 1767.17 729.038 1767.17 723.61V700.6H1757.02V685.85H1767.17L1769.06 669.094H1784.87V685.85H1800.09V700.6H1784.87V723.846C1784.87 726.206 1785.38 727.898 1786.41 728.92C1787.51 729.864 1789.36 730.336 1791.95 730.336H1800.09V745.322H1788.88Z" fill="#FAFAFA"/>
<path d="M123.304 698.534C117.404 698.534 112.055 697.551 107.256 695.584C102.536 693.539 98.7997 690.549 96.0464 686.616C93.293 682.683 91.7984 677.845 91.5624 672.102H110.442C110.521 674.383 111.111 676.389 112.212 678.12C113.314 679.851 114.808 681.227 116.696 682.25C118.584 683.194 120.787 683.666 123.304 683.666C125.428 683.666 127.277 683.351 128.85 682.722C130.502 682.014 131.8 681.031 132.744 679.772C133.688 678.435 134.16 676.783 134.16 674.816C134.16 672.771 133.61 671.04 132.508 669.624C131.407 668.129 129.912 666.871 128.024 665.848C126.136 664.747 123.934 663.763 121.416 662.898C118.978 661.954 116.342 661.049 113.51 660.184C106.981 658.06 101.946 655.189 98.4064 651.57C94.945 647.951 93.2144 643.113 93.2144 637.056C93.2144 632.021 94.4337 627.734 96.8724 624.194C99.3897 620.575 102.812 617.822 107.138 615.934C111.465 614.046 116.382 613.102 121.888 613.102C127.552 613.102 132.508 614.085 136.756 616.052C141.083 617.94 144.505 620.733 147.022 624.43C149.618 628.049 150.995 632.375 151.152 637.41H132.154C132.076 635.679 131.564 634.106 130.62 632.69C129.755 631.274 128.536 630.133 126.962 629.268C125.468 628.403 123.698 627.97 121.652 627.97C119.843 627.891 118.191 628.167 116.696 628.796C115.202 629.347 114.022 630.251 113.156 631.51C112.291 632.69 111.858 634.185 111.858 635.994C111.858 637.725 112.291 639.259 113.156 640.596C114.1 641.855 115.359 642.956 116.932 643.9C118.584 644.765 120.472 645.591 122.596 646.378C124.799 647.165 127.198 647.951 129.794 648.738C133.964 650.154 137.779 651.845 141.24 653.812C144.78 655.7 147.612 658.217 149.736 661.364C151.939 664.432 153.04 668.523 153.04 673.636C153.04 678.12 151.86 682.25 149.5 686.026C147.219 689.802 143.876 692.831 139.47 695.112C135.144 697.393 129.755 698.534 123.304 698.534ZM162.637 697.118V612.158H180.337V646.142C182.225 643.153 184.782 640.753 188.007 638.944C191.232 637.135 195.008 636.23 199.335 636.23C204.37 636.23 208.578 637.292 211.961 639.416C215.344 641.54 217.9 644.647 219.631 648.738C221.362 652.75 222.227 657.627 222.227 663.37V697.118H204.645V665.022C204.645 660.617 203.701 657.195 201.813 654.756C200.004 652.317 197.093 651.098 193.081 651.098C190.721 651.098 188.558 651.688 186.591 652.868C184.624 654.048 183.09 655.739 181.989 657.942C180.888 660.066 180.337 662.623 180.337 665.612V697.118H162.637ZM233.659 697.118V637.646H251.359V697.118H233.659ZM242.509 630.802C239.363 630.802 236.806 629.897 234.839 628.088C232.873 626.279 231.889 623.997 231.889 621.244C231.889 618.412 232.873 616.091 234.839 614.282C236.806 612.473 239.363 611.568 242.509 611.568C245.735 611.568 248.331 612.473 250.297 614.282C252.343 616.091 253.365 618.412 253.365 621.244C253.365 623.997 252.343 626.279 250.297 628.088C248.331 629.897 245.735 630.802 242.509 630.802ZM263.416 723.078V637.646H279.11L281.116 645.434C282.375 643.782 283.83 642.248 285.482 640.832C287.134 639.416 289.101 638.315 291.382 637.528C293.742 636.663 296.496 636.23 299.642 636.23C305.149 636.23 309.987 637.607 314.156 640.36C318.404 643.113 321.787 646.85 324.304 651.57C326.822 656.211 328.08 661.521 328.08 667.5C328.08 673.479 326.782 678.828 324.186 683.548C321.669 688.189 318.286 691.847 314.038 694.522C309.79 697.197 305.031 698.534 299.76 698.534C295.512 698.534 291.854 697.787 288.786 696.292C285.718 694.797 283.162 692.713 281.116 690.038V723.078H263.416ZM295.276 683.076C298.108 683.076 300.626 682.447 302.828 681.188C305.11 679.851 306.88 678.002 308.138 675.642C309.397 673.282 310.026 670.568 310.026 667.5C310.026 664.432 309.397 661.718 308.138 659.358C306.88 656.998 305.11 655.149 302.828 653.812C300.626 652.396 298.108 651.688 295.276 651.688C292.366 651.688 289.77 652.396 287.488 653.812C285.286 655.149 283.555 656.998 282.296 659.358C281.038 661.718 280.408 664.393 280.408 667.382C280.408 670.45 281.038 673.203 282.296 675.642C283.555 678.002 285.286 679.851 287.488 681.188C289.77 682.447 292.366 683.076 295.276 683.076Z" fill="#FAFAFA"/>
<path d="M382.839 620.284C383.343 622.888 385.079 624.624 387.823 624.624C389.951 624.624 391.519 623.616 391.491 621.74C391.491 619.864 389.867 618.744 386.423 617.792C382.251 616.7 380.431 614.936 380.431 612.164C380.431 608.72 383.119 606.564 386.787 606.564C390.763 606.564 393.563 609.224 393.983 612.948L391.127 613.116C390.819 610.736 389.055 609.168 386.731 609.168C384.799 609.168 383.231 610.344 383.259 612.192C383.287 614.376 385.667 615.02 388.075 615.664C391.519 616.616 394.319 618.492 394.319 621.516C394.319 625.24 391.099 627.228 387.655 627.228C383.483 627.228 380.319 624.568 380.011 620.48L382.839 620.284ZM401.476 608.132H404.136V612.052H409.96V614.404H404.136V622.524C404.136 623.784 404.808 624.54 406.068 624.54H409.932V626.892H405.9C402.792 626.892 401.476 625.24 401.476 622.636V614.404H397.248V612.052H401.476V608.132ZM414.345 616.476C414.905 613.592 417.369 611.716 420.505 611.716C424.117 611.716 426.469 613.816 426.469 617.932V623.56C426.469 624.232 426.749 624.54 427.393 624.54H428.009V626.892H427.253C425.461 626.892 424.397 625.94 424.145 624.596C423.557 625.996 421.821 627.228 419.497 627.228C416.501 627.228 414.093 625.66 414.093 623C414.093 619.948 416.389 619.052 419.777 618.436L423.809 617.624C423.753 615.328 422.465 614.208 420.477 614.208C418.769 614.208 417.509 615.216 417.173 616.672L414.345 616.476ZM416.921 622.944C416.921 624.008 417.845 624.904 419.833 624.904C422.101 624.876 423.837 623.308 423.837 620.62V619.948L420.645 620.508C418.545 620.872 416.893 621.068 416.921 622.944ZM437.266 612.052L437.462 614.852C437.994 612.948 439.198 612.052 441.158 612.052H444.182V614.404H441.242C439.03 614.404 438.022 615.664 438.022 618.128V624.54H442.754V626.892H431.526V624.54H435.334V614.404H431.526V612.052H437.266ZM451.843 608.132H454.503V612.052H460.327V614.404H454.503V622.524C454.503 623.784 455.175 624.54 456.435 624.54H460.299V626.892H456.267C453.159 626.892 451.843 625.24 451.843 622.636V614.404H447.615V612.052H451.843V608.132ZM491.218 616.7C490.91 615.104 489.454 614.208 487.69 614.208C486.234 614.208 484.89 614.908 484.946 616.308C484.946 617.764 486.71 618.128 488.418 618.576C491.274 619.276 494.074 620.312 494.074 623.056C494.074 625.968 491.274 627.228 488.194 627.228C484.722 627.228 481.894 625.268 481.698 622.188L484.498 622.02C484.75 623.7 486.262 624.736 488.194 624.736C489.706 624.736 491.246 624.344 491.246 622.916C491.246 621.46 489.342 621.18 487.69 620.788C484.862 620.116 482.146 619.052 482.146 616.392C482.118 613.424 484.806 611.716 487.942 611.716C491.05 611.716 493.486 613.592 493.962 616.532L491.218 616.7ZM497.451 612.052H499.859L499.943 614.096C500.503 612.556 501.511 611.716 502.967 611.716C504.283 611.716 505.095 612.556 505.543 614.432C506.075 612.752 507.223 611.716 508.735 611.716C511.003 611.716 512.039 613.648 512.039 617.82V626.892H509.379V617.82C509.379 615.048 508.987 613.984 507.923 613.984C506.747 613.984 506.075 615.328 506.075 617.82V626.892H503.415V617.82C503.415 615.076 502.995 613.984 501.819 613.984C500.755 613.984 500.139 615.328 500.139 617.82V626.892H497.451V612.052ZM515.08 616.476C515.64 613.592 518.104 611.716 521.24 611.716C524.852 611.716 527.204 613.816 527.204 617.932V623.56C527.204 624.232 527.484 624.54 528.128 624.54H528.744V626.892H527.988C526.196 626.892 525.132 625.94 524.88 624.596C524.292 625.996 522.556 627.228 520.232 627.228C517.236 627.228 514.828 625.66 514.828 623C514.828 619.948 517.124 619.052 520.512 618.436L524.544 617.624C524.488 615.328 523.2 614.208 521.212 614.208C519.504 614.208 518.244 615.216 517.908 616.672L515.08 616.476ZM517.656 622.944C517.656 624.008 518.58 624.904 520.568 624.904C522.836 624.876 524.572 623.308 524.572 620.62V619.948L521.38 620.508C519.28 620.872 517.628 621.068 517.656 622.944ZM532.121 624.54H537.749V611.072C537.749 609.896 537.245 609.364 536.125 609.364H532.625V607.012H536.125C538.897 607.012 540.409 608.44 540.409 611.072V624.54H545.477V626.892H532.121V624.54ZM548.91 624.54H554.538V611.072C554.538 609.896 554.034 609.364 552.914 609.364H549.414V607.012H552.914C555.686 607.012 557.198 608.44 557.198 611.072V624.54H562.266V626.892H548.91V624.54Z" fill="#FAFAFA"/>
<path d="M1276.85 627.103H1275.06L1274.72 624.387C1273.82 626.319 1271.95 627.551 1269.82 627.551C1265.17 627.551 1262.2 623.519 1262.2 617.191C1262.2 610.835 1265.17 606.775 1269.82 606.775C1273.29 606.775 1276.01 609.323 1276.9 613.187L1274.02 613.383C1273.43 611.003 1271.81 609.379 1269.85 609.379C1266.8 609.379 1265.09 612.235 1265.09 617.191C1265.09 622.119 1266.8 624.947 1269.85 624.947C1272.31 624.947 1274.02 622.595 1274.22 619.515H1269.79V616.995H1276.85V627.103ZM1286.19 612.263L1286.38 615.063C1286.92 613.159 1288.12 612.263 1290.08 612.263H1293.1V614.615H1290.16C1287.95 614.615 1286.94 615.875 1286.94 618.339V624.751H1291.68V627.103H1280.45V624.751H1284.26V614.615H1280.45V612.263H1286.19ZM1303.23 627.439C1299.11 627.439 1296.37 624.359 1296.37 619.683C1296.37 615.007 1299.11 611.927 1303.23 611.927C1307.35 611.927 1310.09 615.007 1310.09 619.683C1310.09 624.359 1307.35 627.439 1303.23 627.439ZM1299.17 619.683C1299.17 622.959 1300.65 624.947 1303.23 624.947C1305.81 624.947 1307.29 622.959 1307.29 619.683C1307.29 616.407 1305.81 614.419 1303.23 614.419C1300.65 614.419 1299.17 616.407 1299.17 619.683ZM1321.33 614.223L1323.29 623.211L1325.17 612.263H1327.94L1324.97 627.103H1321.95L1320.02 618.367L1318.09 627.103H1315.06L1312.09 612.263H1314.87L1316.74 623.211L1318.7 614.223H1321.33ZM1353.6 627.439C1349.48 627.439 1346.74 624.359 1346.74 619.683C1346.74 615.007 1349.48 611.927 1353.6 611.927C1357.71 611.927 1360.46 615.007 1360.46 619.683C1360.46 624.359 1357.71 627.439 1353.6 627.439ZM1349.54 619.683C1349.54 622.959 1351.02 624.947 1353.6 624.947C1356.17 624.947 1357.66 622.959 1357.66 619.683C1357.66 616.407 1356.17 614.419 1353.6 614.419C1351.02 614.419 1349.54 616.407 1349.54 619.683ZM1377.41 612.263L1372.04 627.103H1368.73L1363.36 612.263H1366.21L1370.39 624.247L1374.53 612.263H1377.41ZM1380.51 619.683C1380.51 614.979 1383.23 611.927 1387.4 611.927C1390.76 611.927 1393.75 614.139 1393.98 619.431V620.439H1383.39C1383.59 623.295 1385.02 624.947 1387.4 624.947C1388.91 624.947 1390.25 624.079 1390.9 622.567L1393.75 622.819C1392.89 625.647 1390.37 627.439 1387.4 627.439C1383.23 627.439 1380.51 624.387 1380.51 619.683ZM1383.42 618.283H1391.07C1390.67 615.455 1389.13 614.419 1387.4 614.419C1385.21 614.419 1383.81 615.847 1383.42 618.283ZM1403.71 612.263L1403.91 615.063C1404.44 613.159 1405.64 612.263 1407.6 612.263H1410.63V614.615H1407.69C1405.48 614.615 1404.47 615.875 1404.47 618.339V624.751H1409.2V627.103H1397.97V624.751H1401.78V614.615H1397.97V612.263H1403.71ZM1435.08 608.343H1437.74V612.263H1443.56V614.615H1437.74V622.735C1437.74 623.995 1438.41 624.751 1439.67 624.751H1443.53V627.103H1439.5C1436.39 627.103 1435.08 625.451 1435.08 622.847V614.615H1430.85V612.263H1435.08V608.343ZM1456.65 612.263V624.751H1461.61V627.103H1448.2V624.751H1453.97V614.615H1448.73V612.263H1456.65ZM1453.71 610.135V607.223H1456.65V610.135H1453.71ZM1463.9 612.263H1466.3L1466.39 614.307C1466.95 612.767 1467.96 611.927 1469.41 611.927C1470.73 611.927 1471.54 612.767 1471.99 614.643C1472.52 612.963 1473.67 611.927 1475.18 611.927C1477.45 611.927 1478.48 613.859 1478.48 618.031V627.103H1475.82V618.031C1475.82 615.259 1475.43 614.195 1474.37 614.195C1473.19 614.195 1472.52 615.539 1472.52 618.031V627.103H1469.86V618.031C1469.86 615.287 1469.44 614.195 1468.26 614.195C1467.2 614.195 1466.58 615.539 1466.58 618.031V627.103H1463.9V612.263ZM1481.25 619.683C1481.25 614.979 1483.96 611.927 1488.13 611.927C1491.49 611.927 1494.49 614.139 1494.71 619.431V620.439H1484.13C1484.33 623.295 1485.75 624.947 1488.13 624.947C1489.65 624.947 1490.99 624.079 1491.63 622.567L1494.49 622.819C1493.62 625.647 1491.1 627.439 1488.13 627.439C1483.96 627.439 1481.25 624.387 1481.25 619.683ZM1484.16 618.283H1491.8C1491.41 615.455 1489.87 614.419 1488.13 614.419C1485.95 614.419 1484.55 615.847 1484.16 618.283Z" fill="#FAFAFA"/>
<path d="M799.099 627.103H797.307L796.971 624.387C796.075 626.319 794.199 627.551 792.071 627.551C787.423 627.551 784.455 623.519 784.455 617.191C784.455 610.835 787.423 606.775 792.071 606.775C795.543 606.775 798.259 609.323 799.155 613.187L796.271 613.383C795.683 611.003 794.059 609.379 792.099 609.379C789.047 609.379 787.339 612.235 787.339 617.191C787.339 622.119 789.047 624.947 792.099 624.947C794.563 624.947 796.271 622.595 796.467 619.515H792.043V616.995H799.099V627.103ZM802.028 619.683C802.028 614.979 804.744 611.927 808.916 611.927C812.276 611.927 815.272 614.139 815.496 619.431V620.439H804.912C805.108 623.295 806.536 624.947 808.916 624.947C810.428 624.947 811.772 624.079 812.416 622.567L815.272 622.819C814.404 625.647 811.884 627.439 808.916 627.439C804.744 627.439 802.028 624.387 802.028 619.683ZM804.94 618.283H812.584C812.192 615.455 810.652 614.419 808.916 614.419C806.732 614.419 805.332 615.847 804.94 618.283ZM823.017 608.343H825.677V612.263H831.501V614.615H825.677V622.735C825.677 623.995 826.349 624.751 827.609 624.751H831.473V627.103H827.441C824.333 627.103 823.017 625.451 823.017 622.847V614.615H818.789V612.263H823.017V608.343ZM856.595 608.343H859.255V612.263H865.079V614.615H859.255V622.735C859.255 623.995 859.927 624.751 861.187 624.751H865.051V627.103H861.019C857.911 627.103 856.595 625.451 856.595 622.847V614.615H852.367V612.263H856.595V608.343ZM875.848 627.439C871.732 627.439 868.988 624.359 868.988 619.683C868.988 615.007 871.732 611.927 875.848 611.927C879.964 611.927 882.708 615.007 882.708 619.683C882.708 624.359 879.964 627.439 875.848 627.439ZM871.788 619.683C871.788 622.959 873.272 624.947 875.848 624.947C878.424 624.947 879.908 622.959 879.908 619.683C879.908 616.407 878.424 614.419 875.848 614.419C873.272 614.419 871.788 616.407 871.788 619.683ZM916.454 612.263L911.078 627.103H907.774L902.398 612.263H905.254L909.426 624.247L913.57 612.263H916.454ZM919.831 616.687C920.391 613.803 922.855 611.927 925.991 611.927C929.603 611.927 931.955 614.027 931.955 618.143V623.771C931.955 624.443 932.235 624.751 932.879 624.751H933.495V627.103H932.739C930.947 627.103 929.883 626.151 929.631 624.807C929.043 626.207 927.307 627.439 924.983 627.439C921.987 627.439 919.579 625.871 919.579 623.211C919.579 620.159 921.875 619.263 925.263 618.647L929.295 617.835C929.239 615.539 927.951 614.419 925.963 614.419C924.255 614.419 922.995 615.427 922.659 616.883L919.831 616.687ZM922.407 623.155C922.407 624.219 923.331 625.115 925.319 625.115C927.587 625.087 929.323 623.519 929.323 620.831V620.159L926.131 620.719C924.031 621.083 922.379 621.279 922.407 623.155ZM936.872 624.751H942.5V611.283C942.5 610.107 941.996 609.575 940.876 609.575H937.376V607.223H940.876C943.648 607.223 945.16 608.651 945.16 611.283V624.751H950.228V627.103H936.872V624.751ZM965.561 627.103H963.041L963.013 624.667C962.229 626.543 960.605 627.439 958.673 627.439C955.425 627.439 953.829 625.003 953.829 621.811V612.263H956.517V621.111C956.517 623.771 957.385 625.171 959.373 625.171C961.501 625.171 962.901 623.771 962.901 621.111V612.263H965.561V627.103ZM969.918 619.683C969.918 614.979 972.634 611.927 976.806 611.927C980.166 611.927 983.162 614.139 983.386 619.431V620.439H972.802C972.998 623.295 974.426 624.947 976.806 624.947C978.318 624.947 979.662 624.079 980.306 622.567L983.162 622.819C982.294 625.647 979.774 627.439 976.806 627.439C972.634 627.439 969.918 624.387 969.918 619.683ZM972.83 618.283H980.474C980.082 615.455 978.542 614.419 976.806 614.419C974.622 614.419 973.222 615.847 972.83 618.283ZM1007.58 611.591C1007.58 608.847 1008.96 607.223 1011.95 607.223H1016.04V609.575H1011.9C1010.92 609.575 1010.27 610.303 1010.27 611.535V613.215H1015.84V615.567H1010.27V627.103H1007.58V615.567H1003.66V613.215H1007.58V611.591ZM1020.57 616.687C1021.13 613.803 1023.59 611.927 1026.73 611.927C1030.34 611.927 1032.69 614.027 1032.69 618.143V623.771C1032.69 624.443 1032.97 624.751 1033.61 624.751H1034.23V627.103H1033.47C1031.68 627.103 1030.62 626.151 1030.37 624.807C1029.78 626.207 1028.04 627.439 1025.72 627.439C1022.72 627.439 1020.31 625.871 1020.31 623.211C1020.31 620.159 1022.61 619.263 1026 618.647L1030.03 617.835C1029.97 615.539 1028.69 614.419 1026.7 614.419C1024.99 614.419 1023.73 615.427 1023.39 616.883L1020.57 616.687ZM1023.14 623.155C1023.14 624.219 1024.07 625.115 1026.05 625.115C1028.32 625.087 1030.06 623.519 1030.06 620.831V620.159L1026.87 620.719C1024.77 621.083 1023.11 621.279 1023.14 623.155ZM1047.07 616.911C1046.76 615.315 1045.31 614.419 1043.54 614.419C1042.09 614.419 1040.74 615.119 1040.8 616.519C1040.8 617.975 1042.56 618.339 1044.27 618.787C1047.13 619.487 1049.93 620.523 1049.93 623.267C1049.93 626.179 1047.13 627.439 1044.05 627.439C1040.57 627.439 1037.75 625.479 1037.55 622.399L1040.35 622.231C1040.6 623.911 1042.11 624.947 1044.05 624.947C1045.56 624.947 1047.1 624.555 1047.1 623.127C1047.1 621.671 1045.19 621.391 1043.54 620.999C1040.71 620.327 1038 619.263 1038 616.603C1037.97 613.635 1040.66 611.927 1043.79 611.927C1046.9 611.927 1049.34 613.803 1049.81 616.743L1047.07 616.911ZM1058.06 608.343H1060.72V612.263H1066.55V614.615H1060.72V622.735C1060.72 623.995 1061.4 624.751 1062.66 624.751H1066.52V627.103H1062.49C1059.38 627.103 1058.06 625.451 1058.06 622.847V614.615H1053.84V612.263H1058.06V608.343Z" fill="#FAFAFA"/>
<path d="M384.9 549.716L405.903 555.763C405.903 555.763 476.105 556.451 514.54 556.124C522.708 556.056 529.423 555.941 533.757 555.763C540.877 555.473 553.903 549.716 553.903 549.716" stroke="#FAFAFA" stroke-width="6" stroke-linecap="round" stroke-linejoin="round"/>
<path d="M413.649 567.479C416.29 567.479 418.404 569.604 418.404 572.19C418.404 574.777 416.29 576.901 413.649 576.901C411.008 576.901 408.895 574.777 408.895 572.19C408.895 569.604 411.008 567.479 413.649 567.479ZM522.282 567.479C524.923 567.479 527.037 569.604 527.037 572.19C527.036 574.777 524.923 576.901 522.282 576.901C519.641 576.901 517.528 574.777 517.528 572.19C517.528 569.604 519.641 567.479 522.282 567.479Z" stroke="#FAFAFA" stroke-width="6"/>
<path d="M915.265 553.36L963.184 505.433H895.298L863.353 553.352L915.265 553.36ZM915.265 553.36L882.816 475.986M983.15 553.351L975.587 550.796L958.392 487.159C958.304 486.816 958.256 486.473 958.256 486.121C958.256 483.925 960.053 482.128 962.249 482.128C962.401 482.128 962.561 482.136 962.713 482.152L982.032 484.404C985.945 484.971 988.884 488.357 988.884 492.311C988.884 496.695 985.275 500.305 980.89 500.305C980.515 500.305 980.131 500.281 979.756 500.225M875.333 473.486L899.292 481.473M831.407 553.352C831.407 570.874 845.83 585.297 863.353 585.297C880.875 585.297 895.299 570.874 895.299 553.352C895.299 535.829 880.875 521.406 863.353 521.406C845.83 521.406 831.407 535.829 831.407 553.352ZM951.204 553.352C951.204 570.874 965.628 585.297 983.15 585.297C1000.67 585.297 1015.1 570.874 1015.1 553.352C1015.1 535.829 1000.67 521.406 983.15 521.406C965.628 521.406 951.204 535.829 951.204 553.352Z" stroke="#FAFAFA" stroke-width="6" stroke-linecap="round" stroke-linejoin="round"/>
<path d="M1345.65 568.37H1421.77M1452.61 568.37H1455.01C1469.68 568.37 1481.75 556.36 1481.75 541.761C1481.75 527.162 1469.68 515.152 1455.01 515.152H1405.99M1405.99 515.152C1397.06 521.858 1385.94 525.015 1374.79 524.022C1352.51 524.022 1348.06 515.152 1348.06 515.152V502.025C1348.05 500.784 1347.53 499.604 1346.63 498.744C1345.82 497.954 1344.74 497.475 1343.6 497.413C1330.86 497.662 1319.09 504.358 1312.4 515.152C1292.85 515.152 1276.75 531.171 1276.75 550.631C1276.75 560.361 1284.8 568.37 1294.58 568.37H1314.81M1405.99 515.152L1383.71 488.543M1477.29 532.891H1463.93M1405.99 541.761H1383.71M1281.56 532.891H1303.49M1419.36 559.5C1419.36 569.23 1427.41 577.239 1437.19 577.239C1446.96 577.239 1455.01 569.23 1455.01 559.5C1455.01 549.77 1446.96 541.761 1437.19 541.761C1427.41 541.761 1419.36 549.77 1419.36 559.5ZM1312.4 559.5C1312.4 569.23 1320.45 577.239 1330.23 577.239C1340.01 577.239 1348.06 569.23 1348.06 559.5C1348.06 549.77 1340.01 541.761 1330.23 541.761C1320.45 541.761 1312.4 549.77 1312.4 559.5Z" stroke="#FAFAFA" stroke-width="6" stroke-linecap="round" stroke-linejoin="round"/>
<path d="M618.332 550.245C623.167 550.245 627.086 546.326 627.086 541.492C627.086 536.657 623.167 532.738 618.332 532.738C613.498 532.738 609.579 536.657 609.579 541.492C609.579 546.326 613.498 550.245 618.332 550.245Z" stroke="#808080" stroke-width="4.38094" stroke-miterlimit="10"/>
<path d="M764 531.643L773.848 541.491L764 551.339" stroke="#808080" stroke-width="4.38094" stroke-miterlimit="10"/>
<path d="M627.086 541.491L765.075 541.491" stroke="#808080" stroke-width="4" stroke-dasharray="10 10"/>
<path d="M1072.07 550.245C1076.9 550.245 1080.82 546.326 1080.82 541.491C1080.82 536.656 1076.9 532.737 1072.07 532.737C1067.23 532.737 1063.31 536.656 1063.31 541.491C1063.31 546.326 1067.23 550.245 1072.07 550.245Z" stroke="#808080" stroke-width="4.38094" stroke-miterlimit="10"/>
<path d="M1217.73 531.642L1227.58 541.49L1217.73 551.338" stroke="#808080" stroke-width="4.38094" stroke-miterlimit="10"/>
<path d="M1080.82 541.491L1218.81 541.491" stroke="#808080" stroke-width="4" stroke-dasharray="10 10"/>
<path opacity="0.9" d="M481.119 321.623C460.838 321.661 440.558 321.742 420.278 321.831C357.89 321.888 296.692 346.818 251.146 389.329C222.163 416.847 199.933 451.672 187.357 489.594C181.017 508.562 177.011 528.234 175.333 548.094C174.912 553.087 174.628 558.032 174.506 563.021C174.471 564.307 174.446 565.596 174.43 566.887C174.416 568.098 174.41 569.309 174.413 570.52C174.412 571.142 174.413 571.765 174.417 572.387C174.414 572.687 174.411 572.988 174.409 573.288C174.41 573.323 174.411 573.357 174.412 573.392C174.4 573.536 174.389 573.68 174.378 573.824C174.261 574.996 174.138 576.171 173.993 577.349C173.948 579.138 173.299 580.364 172.144 581.094C170.829 581.257 169.514 581.423 168.199 581.589C166.271 581.846 164.36 582.18 162.44 581.253C160.271 583.319 157.974 581.289 155.734 581.288C155.377 581.227 155.02 581.165 154.664 581.103C150.39 580.53 146.103 579.918 141.894 579.29C141.189 579.205 140.542 579.164 140.282 577.868C139.358 577.48 138.042 579.131 137.558 576.442C137.191 575.724 136.96 574.976 136.821 574.201C136.716 571.806 136.648 569.362 136.62 566.887C136.572 562.665 136.643 558.376 136.831 554.12C137.416 540.478 139.149 526.702 141.587 513.398C150.207 468.75 169.172 425.078 198.388 390.43C204.805 382.37 211.662 374.657 218.914 367.34C263.318 322.103 323.433 292.366 386.589 284.929C394.054 284.031 401.634 283.797 409.149 283.701C412.842 283.55 416.552 283.469 420.278 283.461C478.695 283.32 537.113 283.179 595.53 283.039C611.576 281.472 629.605 283.516 646.135 282.859C646.128 282.859 646.12 282.859 646.113 282.859C653.034 282.069 661.629 282.01 671.767 282.457C671.988 282.472 672.187 282.486 672.364 282.486C674.633 283.352 676.021 284.591 675.911 286.441C675.845 287.441 675.668 288.425 675.536 289.425C676.087 295.08 676.088 300.704 674.479 306.285C674.479 306.499 674.479 306.713 674.479 306.927C674.618 310.05 674.758 313.173 674.897 316.296C674.897 317.042 675.007 317.833 674.699 318.46C674.545 318.773 674.302 319.042 673.883 319.265C673.685 319.385 673.421 319.475 673.134 319.55C672.98 319.594 672.826 319.623 672.65 319.653C672.562 319.668 672.473 319.683 672.385 319.698C671.68 319.713 670.973 319.727 670.224 319.727C628.48 321.786 581.269 321.191 535.888 321.474C520.468 321.524 505.047 321.573 489.627 321.623C486.791 321.623 483.955 321.623 481.119 321.623ZM177.217 421.31C177.213 421.317 177.209 421.323 177.205 421.33C177.198 421.343 177.191 421.357 177.183 421.37C177.195 421.35 177.205 421.33 177.217 421.31ZM150.304 482.273C146.327 492.877 143.707 505.19 141.845 517.28C140.497 523.644 139.948 528.267 139.703 532.008C139.951 528.272 140.51 523.662 141.88 517.335C143.721 505.202 146.33 492.879 150.304 482.273ZM171.253 432.402C171.31 432.287 171.368 432.172 171.426 432.057C171.365 432.179 171.303 432.3 171.242 432.422C170.549 435.125 169.898 437.831 169.29 440.539C169.902 437.824 170.556 435.111 171.253 432.402ZM554.558 285.8C561.646 285.51 566.407 284.996 571.247 284.487C566.407 284.993 561.646 285.498 554.558 285.8ZM475.079 290.32C469.99 288.35 483.761 285.814 448.542 284.724C445.876 284.769 443.341 284.815 440.807 284.86C443.342 284.82 445.876 284.78 448.411 284.741C483.74 285.815 469.99 288.35 475.058 290.32C475.065 290.32 475.072 290.32 475.079 290.32ZM614.529 286.276C599.429 286.315 583.248 285.944 567.7 285.82C583.248 285.946 599.429 286.328 614.529 286.276ZM201.977 392.009C201.523 392.599 201.196 393.082 200.916 393.483C201.182 393.1 201.535 392.608 201.977 392.009ZM585.563 289.748C577.572 288.543 565.278 288.086 551.471 287.904C565.809 288.105 578.515 288.582 586.464 289.891C586.164 289.844 585.863 289.796 585.563 289.748ZM632.712 289.097C639.633 289.112 643.821 288.306 647.392 287.978C643.821 288.291 639.633 289.097 632.712 289.097ZM635.151 290.494C630.11 290.16 626.73 289.713 627.687 288.963C626.551 289.838 631.352 290.301 637.796 290.653C636.915 290.6 636.033 290.547 635.151 290.494ZM143.131 574.063C143.145 574.04 143.144 573.974 143.138 573.743C143.129 573.971 143.131 574.04 143.131 574.063ZM145.074 563.533C145.074 563.541 145.074 563.549 145.074 563.557C145.664 560.325 146.311 557.125 147.011 553.958C146.311 557.117 145.665 560.309 145.074 563.533ZM320.131 312.044C320.034 311.725 319.955 311.378 321.017 310.653C319.951 311.368 320.033 311.722 320.131 312.044ZM613.692 293.203C623.829 292.075 634.749 292.834 645.506 293.184C646.366 293.209 647.225 293.234 648.085 293.258C636.502 292.964 624.64 291.974 613.692 293.203ZM664.494 294.006C662.18 293.849 660.338 293.659 659.352 293.374C660.338 293.661 662.18 293.862 664.494 294.006ZM608.645 295.751C610.386 295.662 611.973 295.572 613.339 295.467C611.951 295.572 610.364 295.662 608.645 295.751ZM304.848 321.381C305.529 321.027 306.104 320.711 306.591 320.42C306.077 320.707 305.502 321.023 304.848 321.381ZM528.824 297.338C526.766 297.328 524.506 297.207 522.703 296.943C524.505 297.207 526.762 297.328 528.824 297.338ZM303.042 330.192C299.905 331.142 292.649 334.556 285.066 339.03C285.072 339.026 285.078 339.023 285.084 339.019C279.741 340.085 285.771 335.672 295.344 330.502C285.752 335.683 279.723 340.097 285.066 339.03C292.656 334.569 299.912 331.155 303.042 330.192ZM556.056 300.137C559.234 300.175 562.75 300.127 566.781 299.964C562.762 300.124 559.232 300.163 556.056 300.137ZM451.011 300.51C451.694 300.495 452.378 300.496 453.105 300.496C452.378 300.496 451.672 300.495 451.011 300.51ZM221.087 393.306C221.052 393.283 221.064 393.205 221.143 393.052C221.06 393.21 221.048 393.288 221.087 393.306ZM271.75 353.27C273.575 351.453 275.442 349.636 277.346 347.856C275.444 349.64 273.573 351.449 271.733 353.282C271.747 353.272 271.749 353.27 271.75 353.27ZM162.384 543.38C161.878 548.274 161.226 554.26 160.89 559.763C161.226 554.26 161.893 548.275 162.384 543.38ZM162.414 571.338C162.392 571.768 162.386 572.22 162.381 572.671C162.385 572.671 162.39 572.671 162.395 572.671C162.389 573.101 162.39 573.702 162.372 573.595C162.39 573.724 162.39 573.122 162.395 572.671C162.4 572.22 162.407 571.768 162.414 571.338ZM166.701 529.144C166.925 524.915 167.658 518.945 167.228 518.881C167.655 518.964 166.922 524.936 166.701 529.144C166.655 529.76 166.629 530.358 166.617 530.872C166.647 530.339 166.67 529.763 166.701 529.144ZM355.815 320.095C356.407 319.732 356.681 319.442 356.696 319.205C356.708 319.079 356.637 318.974 356.525 318.879C356.518 318.881 356.512 318.883 356.505 318.884C356.617 318.979 356.688 319.084 356.676 319.211C356.662 319.447 356.394 319.736 355.815 320.095ZM315.119 337.377C315.233 336.923 318.078 335.054 327.987 330.963C331.163 329.668 334.042 328.547 336.621 327.568C334.036 328.549 331.15 329.672 327.966 330.972C318.073 335.057 315.233 336.923 315.119 337.377ZM197.829 450.393C197.826 450.399 197.822 450.405 197.819 450.411C197.93 450.224 198.04 450.038 198.15 449.854C198.044 450.032 197.937 450.212 197.829 450.393Z" fill="#A998C9"/>
<path opacity="0.9" d="M636.648 308.218C645.916 300.552 655.027 292.697 664.307 285.044C656.775 290.77 657.869 303.693 666.263 308.067C661.019 305.065 655.82 301.981 650.697 298.759C641.841 293.725 632.954 288.658 624.1 283.61C619.68 281.067 615.289 278.494 610.952 275.859C609.865 275.199 608.79 274.529 607.708 273.871C607.169 273.537 606.63 273.202 606.092 272.867C605.959 272.781 605.826 272.695 605.693 272.61C605.63 272.564 605.568 272.519 605.506 272.474C605.499 272.47 605.491 272.466 605.483 272.461C605.458 272.431 605.433 272.402 605.408 272.372C605.216 272.109 605.03 271.835 604.857 271.537C604.515 271.22 604.57 270.51 604.953 269.493C605.519 268.445 606.085 267.398 606.65 266.351C607.477 264.813 608.284 263.278 609.327 261.939C609.93 259.92 611.347 258.47 612.361 256.729C612.534 256.462 612.706 256.194 612.879 255.927C614.918 252.699 616.964 249.459 618.972 246.275C619.305 245.738 619.603 245.243 619.949 245.223C620.433 244.556 620.733 243.306 621.426 243.296C621.719 243.107 621.956 243.025 622.159 243.016C623.454 243.624 624.791 244.318 626.097 245.055C628.72 246.522 631.338 248.124 633.974 249.505C642.624 254.607 651.973 258.686 660.129 264.527C662.109 265.645 664.089 266.764 666.069 267.882C671.886 271.095 677.702 274.307 683.519 277.52C696.169 284.058 697.891 303.633 686.519 312.294C682.863 315.333 679.207 318.372 675.55 321.412C674.279 322.465 672.78 323.272 671.382 324.187C660.132 333.53 648.883 342.873 637.633 352.217C635.585 355.705 631.12 356.971 628.466 359.897C628.467 359.896 628.469 359.895 628.47 359.894C627.652 361.479 626.111 362.803 624 364.005C623.951 364.027 623.906 364.047 623.874 364.073C622.966 363.809 622.007 363.151 620.976 361.844C620.419 361.137 619.892 360.424 619.347 359.707C616.031 355.844 612.832 351.921 609.954 347.788C609.832 347.638 609.71 347.489 609.588 347.34C607.787 345.182 605.986 343.024 604.184 340.866C603.76 340.346 603.29 339.81 602.99 339.327C602.84 339.086 602.732 338.862 602.682 338.643C602.65 338.53 602.647 338.428 602.657 338.333C602.66 338.279 602.672 338.236 602.687 338.189C602.695 338.165 602.702 338.141 602.71 338.118C602.831 338.002 602.952 337.887 603.089 337.775C609.564 330.106 618.55 323.472 626.701 316.499C629.497 314.162 632.293 311.825 635.09 309.489C635.609 309.065 636.129 308.642 636.648 308.218ZM652.835 260.622C652.834 260.621 652.832 260.62 652.831 260.62C652.828 260.618 652.824 260.617 652.821 260.616C652.826 260.618 652.831 260.62 652.835 260.622ZM639.799 253.702C637.893 251.989 635.302 250.973 632.825 249.844C631.676 248.964 630.746 248.512 629.929 248.276C630.744 248.514 631.667 248.974 632.797 249.873C635.293 250.986 637.891 251.991 639.799 253.702ZM650.275 259.5C650.302 259.511 650.328 259.522 650.355 259.533C650.327 259.521 650.299 259.509 650.271 259.497C649.45 259.733 648.629 259.968 647.808 260.204C648.63 259.969 649.453 259.734 650.275 259.5ZM643.567 344.173C642.434 345.434 641.854 346.503 641.257 347.581C641.856 346.505 642.441 345.442 643.567 344.173ZM655.555 329.154C657.607 329.768 656.527 333.593 663.597 329.095C664.06 328.665 664.498 328.255 664.937 327.845C664.495 328.251 664.053 328.658 663.612 329.064C656.53 333.589 657.607 329.768 655.559 329.15C655.557 329.151 655.556 329.153 655.555 329.154ZM632.312 352.795C635.056 350.513 638.231 348.356 641.149 346.121C638.229 348.354 635.048 350.504 632.312 352.795ZM658.646 267.607C658.494 267.536 658.362 267.507 658.253 267.477C658.357 267.504 658.488 267.548 658.646 267.607ZM635.643 346.048C637.792 345.696 640.304 344.179 642.936 342.245C640.196 344.245 637.597 345.809 635.397 346.083C635.479 346.071 635.561 346.059 635.643 346.048ZM627.377 353.542C626.101 354.565 625.792 355.752 625.325 356.514C625.801 355.762 626.11 354.575 627.377 353.542ZM626.136 352.931C627.25 352.412 628.123 352.219 628.374 352.885C628.085 352.105 626.942 352.499 625.561 353.215C625.753 353.12 625.945 353.026 626.136 352.931ZM619.36 247.96C619.359 247.973 619.371 247.981 619.417 248.006C619.378 247.97 619.365 247.962 619.36 247.96ZM620.541 250.708C620.54 250.707 620.538 250.706 620.537 250.705C620.932 251.499 621.327 252.293 621.722 253.087C621.328 252.294 620.935 251.501 620.541 250.708ZM684.031 301.247C684.284 301.396 684.582 301.568 684.341 302.513C684.591 301.573 684.287 301.397 684.031 301.247ZM628.526 347.838C627.311 350.138 624.88 351.239 622.71 352.601C622.539 352.712 622.367 352.823 622.196 352.934C624.485 351.41 627.22 350.33 628.526 347.838ZM618.765 354.863C619.278 354.626 619.724 354.484 620.066 354.536C619.722 354.482 619.27 354.617 618.765 354.863ZM628.002 345.306C627.734 345.629 627.494 345.928 627.304 346.205C627.498 345.925 627.738 345.625 628.002 345.306ZM681.511 290.652C681.767 291.012 681.977 291.327 682.165 291.598C681.984 291.309 681.772 290.994 681.511 290.652ZM641.72 332.282C642.102 331.982 642.585 331.729 643.065 331.643C642.585 331.728 642.103 331.981 641.72 332.282ZM675.338 293.244C675.291 293.058 675.175 292.847 674.98 292.637C674.29 291.925 673.07 291.074 671.7 290.265C671.702 290.266 671.703 290.266 671.705 290.267C671.485 288.2 673.207 288.709 675.453 289.901C673.202 288.707 671.48 288.197 671.7 290.265C673.065 291.083 674.284 291.936 674.976 292.643C675.172 292.851 675.289 293.061 675.338 293.244ZM635.14 334.395C634.536 334.843 633.92 335.401 633.274 336.117C633.919 335.405 634.544 334.852 635.14 334.395ZM654.168 318.451C654.052 318.564 653.926 318.665 653.793 318.774C653.926 318.665 654.056 318.56 654.168 318.451ZM654.045 281.022C654.062 280.989 654.094 280.964 654.147 280.95C654.093 280.963 654.061 280.988 654.045 281.022ZM665.671 291.778C666.4 291.727 667.139 291.668 667.872 291.619C667.137 291.671 666.402 291.723 665.666 291.775C665.67 291.777 665.671 291.778 665.671 291.778ZM617.621 265.885C616.609 265.251 615.478 264.319 614.403 263.511C615.478 264.319 616.602 265.263 617.621 265.885ZM611.272 263.378C611.195 263.304 611.106 263.238 611.018 263.173C611.015 263.176 611.013 263.18 611.011 263.184C610.927 263.121 610.807 263.038 610.836 263.039C610.803 263.035 610.923 263.119 611.011 263.184C611.1 263.25 611.188 263.315 611.272 263.378ZM619.562 269.68C620.624 269.892 622.055 270.326 622.247 269.977C622.051 270.323 620.62 269.889 619.562 269.68C619.411 269.641 619.258 269.615 619.123 269.601C619.256 269.63 619.404 269.653 619.562 269.68ZM665.718 295.835C665.707 296.079 665.765 296.28 665.879 296.449C665.938 296.538 666.015 296.615 666.099 296.685C666.1 296.684 666.101 296.683 666.103 296.682C666.019 296.612 665.942 296.535 665.883 296.445C665.768 296.277 665.71 296.076 665.718 295.835ZM666.624 298.658C666.773 298.525 666.727 298.101 666.671 297.207C666.65 296.326 666.531 294.889 667.563 292.966C668.026 292.142 668.648 291.503 669.23 291.084C669.063 291.245 668.902 291.401 668.749 291.553C668.902 291.401 669.063 291.245 669.23 291.084C668.646 291.505 668.022 292.147 667.559 292.974C666.531 294.895 666.65 296.329 666.671 297.208C666.727 298.102 666.773 298.525 666.624 298.658ZM635.458 284.12C635.457 284.119 635.455 284.118 635.454 284.117C635.496 284.153 635.538 284.188 635.579 284.223C635.539 284.189 635.499 284.154 635.458 284.12Z" fill="#A998C9"/>
<path opacity="0.9" d="M1634.13 437.884C1590.36 366.689 1508.82 321.998 1425.49 321.678C1425.22 321.674 1424.95 321.671 1424.69 321.668C1380.32 321.638 1335.76 321.593 1291.37 321.549C1269.16 321.504 1246.99 321.414 1224.9 321.235C1219.36 321.191 1213.85 321.13 1208.34 321.085C1205.58 321.056 1202.82 321.026 1200.06 320.996C1199.37 320.986 1198.68 320.976 1197.99 320.966C1197.66 320.956 1197.33 320.946 1196.99 320.937C1196.96 320.937 1196.92 320.937 1196.88 320.937C1196.72 320.922 1196.56 320.907 1196.4 320.891C1195.11 320.742 1193.82 320.578 1192.52 320.384C1190.55 320.265 1189.24 319.548 1188.51 318.355C1188.41 317.032 1188.31 315.71 1188.22 314.387C1188.06 312.448 1187.83 310.522 1188.92 308.657C1186.88 306.374 1189.14 304.196 1189.26 301.959C1189.34 301.605 1189.42 301.252 1189.51 300.899C1190.32 296.662 1191.14 292.409 1191.93 288.232C1192.05 287.531 1192.12 286.889 1193.39 286.68C1193.79 285.77 1192.25 284.397 1194.86 284.009C1195.56 283.666 1196.29 283.457 1197.04 283.337C1203.25 283.218 1209.81 283.158 1216.34 283.158C1229.43 283.143 1242.8 283.263 1255.75 283.158C1299.49 283.367 1343.68 282.203 1387.12 283.397C1397.03 283.397 1406.93 283.397 1416.84 283.397C1419.72 283.39 1422.6 283.383 1425.49 283.376C1487.66 283.023 1549.87 304.057 1599.13 342.221C1605.24 346.929 1610.99 352.235 1616.58 357.599C1667.16 403.336 1700.4 468.001 1707.67 536.016C1709.61 545.715 1709.97 556.303 1709.68 566.887C1709.46 575.294 1708.85 583.675 1708.44 591.759C1708.44 591.751 1708.44 591.743 1708.44 591.735C1708.57 599.411 1707.5 608.925 1704.99 619.867C1704.93 620.104 1704.87 620.318 1704.84 620.51C1703.51 622.815 1701.99 624.055 1700.2 623.563C1699.24 623.292 1698.31 622.907 1697.36 622.568C1691.7 622.025 1686.2 620.846 1681.05 618.152C1680.84 618.11 1680.63 618.068 1680.42 618.026C1677.33 617.553 1674.24 617.075 1671.15 616.592C1670.42 616.445 1669.62 616.393 1669.07 615.978C1668.79 615.77 1668.57 615.488 1668.43 615.05C1668.35 614.839 1668.31 614.573 1668.29 614.288C1668.27 614.134 1668.27 613.983 1668.28 613.811C1668.28 613.725 1668.28 613.639 1668.28 613.553C1668.39 612.885 1668.5 612.215 1668.63 611.507C1670.49 597.235 1671.52 582.238 1671.29 566.887C1670.95 539.395 1666.36 510.945 1656.84 484.807C1651.88 470.962 1645.66 457.573 1638.28 444.849C1636.94 442.503 1635.55 440.188 1634.13 437.884ZM1351.1 283.605C1351.09 283.605 1351.08 283.605 1351.07 283.605C1351.06 283.606 1351.04 283.607 1351.03 283.607C1351.05 283.607 1351.07 283.605 1351.1 283.605ZM1286.83 284.035C1275.93 283.42 1263.93 283.853 1252.12 284.114C1245.88 283.891 1241.38 283.961 1237.78 284.18C1241.38 283.965 1245.86 283.905 1252.07 284.158C1263.92 283.87 1275.93 283.423 1286.83 284.035ZM1338.98 283.919C1339.11 283.915 1339.23 283.911 1339.35 283.907C1339.22 283.911 1339.09 283.915 1338.96 283.919C1336.35 284.595 1333.74 285.272 1331.13 285.948C1333.75 285.272 1336.37 284.595 1338.98 283.919ZM1696.58 492.349C1698.9 499.771 1700.53 504.709 1702.12 509.839C1700.54 504.708 1698.91 499.768 1696.58 492.349ZM1657.25 415.913C1655.55 410.407 1667.31 420.739 1644.8 389.34C1642.92 387.097 1641.1 384.993 1639.25 382.917C1641.1 384.996 1642.91 387.106 1644.69 389.238C1667.3 420.714 1655.55 410.408 1657.24 415.894C1657.24 415.9 1657.24 415.907 1657.25 415.913ZM1705.93 557.02C1705.34 540.572 1703.55 522.935 1700 506.304C1703.55 522.936 1705.33 540.572 1705.93 557.02ZM1388.1 287.187C1387.37 287.202 1386.8 287.246 1386.33 287.276C1386.78 287.246 1387.37 287.217 1388.1 287.187ZM1699.64 526.086C1699.59 517.375 1697.63 504.142 1693.64 489.68C1697.77 504.698 1699.73 518.397 1699.64 527.065C1699.64 526.738 1699.64 526.412 1699.64 526.086ZM1703.1 576.756C1702.82 584.216 1703.24 588.784 1703.22 592.673C1703.25 588.786 1702.83 584.216 1703.1 576.756ZM1701.6 579.325C1702.18 573.931 1702.63 570.293 1703.38 571.336C1702.51 570.099 1702.03 575.266 1701.31 582.154C1701.41 581.211 1701.51 580.269 1701.6 579.325ZM1197.02 289.649C1197.04 289.663 1197.1 289.664 1197.33 289.664C1197.11 289.649 1197.04 289.649 1197.02 289.649ZM1207.38 291.663C1207.38 291.663 1207.37 291.663 1207.36 291.663C1210.56 292.215 1213.76 292.767 1216.96 293.32C1213.77 292.767 1210.58 292.215 1207.38 291.663ZM1530.86 314.162C1531.01 313.866 1531.2 313.562 1532.5 313.795C1531.2 313.552 1531.01 313.863 1530.86 314.162ZM1698.97 556.372C1699.46 559.774 1699.7 563.296 1699.75 566.887C1699.86 574.552 1699.11 582.443 1698.21 590.199C1698.11 591.108 1698 592.017 1697.89 592.925C1698.92 584.294 1699.88 575.454 1699.75 566.887C1699.7 563.296 1699.46 559.774 1698.97 556.372ZM1694.96 610.125C1695.5 607.724 1695.96 605.814 1696.39 604.815C1695.96 605.814 1695.49 607.722 1694.96 610.125ZM1696.17 551.161C1696.37 553.003 1696.53 554.652 1696.7 556.086C1696.53 554.629 1696.37 552.979 1696.17 551.161ZM1512.9 310.058C1513.66 310.284 1514.31 310.462 1514.88 310.597C1514.29 310.44 1513.64 310.262 1512.9 310.058ZM1677.02 469.791C1676.25 467.774 1675.48 465.532 1675 463.685C1675.48 465.531 1676.25 467.77 1677.02 469.791ZM1505.32 315.091C1502.33 313.571 1494.48 310.917 1485.69 308.843C1485.69 308.844 1485.7 308.846 1485.71 308.848C1480.97 305.888 1488.57 306.906 1499.38 309.914C1488.54 306.9 1480.95 305.884 1485.69 308.843C1494.48 310.931 1502.33 313.586 1505.32 315.091ZM1683.16 497.645C1683.98 500.858 1684.91 504.351 1685.98 508.407C1684.91 504.362 1683.99 500.853 1683.16 497.645ZM1634.13 401.273C1634.59 401.818 1635.02 402.374 1635.49 402.968C1635.03 402.374 1634.57 401.8 1634.13 401.273ZM1399.38 302.68C1399.38 302.638 1399.45 302.597 1399.62 302.554C1399.44 302.596 1399.37 302.638 1399.38 302.68ZM1465.67 309.815C1468.32 309.774 1471.01 309.763 1473.68 309.807C1471 309.768 1468.33 309.769 1465.65 309.812C1465.66 309.815 1465.67 309.815 1465.67 309.815ZM1228.82 307.941C1223.63 307.881 1217.34 307.597 1211.53 307.404C1217.34 307.597 1223.63 307.896 1228.82 307.941ZM1199.38 308.986C1198.92 308.956 1198.45 308.941 1197.97 308.926C1197.97 308.931 1197.97 308.936 1197.97 308.941C1197.52 308.926 1196.88 308.91 1196.99 308.896C1196.86 308.91 1197.49 308.926 1197.97 308.941C1198.45 308.956 1198.92 308.971 1199.38 308.986ZM1244.32 310.552C1248.8 310.177 1255.15 309.815 1255.13 309.372C1255.13 309.815 1248.77 310.177 1244.32 310.552C1243.66 310.597 1243.02 310.656 1242.48 310.715C1243.05 310.671 1243.66 310.612 1244.32 310.552ZM1551.64 345.22C1552.34 345.382 1552.74 345.371 1552.92 345.214C1553.02 345.132 1553.04 345.007 1553.03 344.86C1553.02 344.856 1553.01 344.852 1553.01 344.849C1553.02 344.996 1553 345.122 1552.9 345.203C1552.73 345.361 1552.32 345.376 1551.64 345.22ZM1509.24 328.722C1509.65 328.481 1513.08 329.133 1523.34 333.217C1526.61 334.536 1529.54 335.775 1532.15 336.907C1529.53 335.772 1526.6 334.531 1523.31 333.208C1513.07 329.132 1509.65 328.481 1509.24 328.722ZM1335.53 315.834C1335.53 315.834 1335.52 315.834 1335.51 315.834C1335.75 315.845 1335.98 315.857 1336.21 315.868C1335.99 315.856 1335.76 315.846 1335.53 315.834Z" fill="#87D4E9"/>
<path opacity="0.9" d="M1677.45 598.093C1681.8 608.823 1686.34 619.47 1690.69 630.196C1687.37 620.993 1674.75 617.393 1667.06 623.477C1673.47 618.674 1679.96 613.971 1686.61 609.481C1694.97 603.28 1703.38 597.065 1711.76 590.873C1715.96 587.791 1720.18 584.748 1724.43 581.779C1725.5 581.035 1726.57 580.306 1727.63 579.566C1728.16 579.2 1728.7 578.834 1729.23 578.469C1729.37 578.379 1729.5 578.29 1729.64 578.201C1729.71 578.162 1729.77 578.122 1729.84 578.082C1729.85 578.077 1729.86 578.072 1729.86 578.066C1729.9 578.055 1729.94 578.043 1729.98 578.032C1730.3 577.958 1730.63 577.895 1730.98 577.854C1731.42 577.664 1732.05 577.996 1732.83 578.756C1733.56 579.697 1734.29 580.637 1735.02 581.578C1736.09 582.955 1737.17 584.313 1737.97 585.812C1739.58 587.173 1740.32 589.063 1741.5 590.693C1741.68 590.96 1741.85 591.226 1742.03 591.493C1744.15 594.665 1746.29 597.849 1748.38 600.975C1748.74 601.497 1749.07 601.969 1748.94 602.298C1749.36 603.012 1750.38 603.787 1750.1 604.432C1750.16 604.779 1750.13 605.031 1750.05 605.222C1748.95 606.18 1747.75 607.142 1746.52 608.059C1744.06 609.905 1741.49 611.692 1739.1 613.584C1730.76 619.566 1723.07 626.602 1714.26 631.831C1712.39 633.22 1710.53 634.609 1708.67 635.998C1701.8 641.217 1694.93 646.436 1688.06 651.656C1678.35 659.397 1662.25 654.866 1658.01 643.158C1656.45 639.323 1654.88 635.488 1653.32 631.653C1652.69 630.089 1652.35 628.382 1651.89 626.74C1646.26 612.896 1640.62 599.052 1634.99 585.208C1632.25 582.126 1632.35 577.4 1630.33 573.906C1630.33 573.908 1630.33 573.91 1630.33 573.911C1629.06 572.62 1628.24 570.71 1627.71 568.285C1627.71 568.231 1627.7 568.181 1627.68 568.142C1628.21 567.345 1629.12 566.622 1630.68 566.033C1631.52 565.716 1632.36 565.429 1633.21 565.127C1637.89 563.127 1642.59 561.261 1647.41 559.771C1647.58 559.7 1647.76 559.629 1647.94 559.558C1650.54 558.49 1653.14 557.423 1655.74 556.355C1656.37 556.108 1657.02 555.821 1657.57 555.682C1657.85 555.613 1658.09 555.578 1658.32 555.598C1658.44 555.603 1658.54 555.632 1658.62 555.672C1658.67 555.691 1658.71 555.716 1658.75 555.746C1658.77 555.761 1658.79 555.776 1658.81 555.79C1658.89 555.944 1658.96 556.098 1659.03 556.266C1664.47 564.955 1668.18 575.752 1672.45 585.846C1673.87 589.292 1675.28 592.738 1676.7 596.183C1676.95 596.82 1677.2 597.457 1677.45 598.093ZM1720.92 626.63C1720.92 626.629 1720.93 626.628 1720.93 626.627C1720.93 626.625 1720.93 626.622 1720.94 626.62C1720.93 626.623 1720.93 626.627 1720.92 626.63ZM1732.78 617.309C1735.17 616.225 1737.19 614.229 1739.27 612.385C1740.57 611.671 1741.38 610.989 1741.94 610.327C1741.37 610.986 1740.56 611.658 1739.26 612.347C1737.18 614.216 1735.16 616.222 1732.78 617.309ZM1723.03 624.705C1723.01 624.726 1722.99 624.746 1722.97 624.766C1722.99 624.745 1723.02 624.723 1723.04 624.702C1723.17 623.848 1723.29 622.994 1723.42 622.14C1723.29 622.995 1723.16 623.85 1723.03 624.705ZM1640.95 593.491C1640.07 591.996 1639.22 591.097 1638.36 590.18C1639.22 591.099 1640.06 592 1640.95 593.491ZM1651.8 609.835C1650.61 611.631 1647.26 609.381 1649.49 617.649C1649.76 618.233 1650.02 618.787 1650.29 619.341C1650.03 618.785 1649.77 618.229 1649.51 617.674C1647.26 609.385 1650.61 611.631 1651.81 609.84C1651.8 609.839 1651.8 609.837 1651.8 609.835ZM1636 579.869C1637.38 583.246 1638.51 587.002 1639.79 590.534C1638.51 587.001 1637.39 583.242 1636 579.869ZM1712.04 629.233C1712.16 629.121 1712.25 629.009 1712.32 628.921C1712.25 629.006 1712.16 629.11 1712.04 629.233ZM1641.49 585.22C1641.19 587.414 1641.9 590.326 1642.98 593.486C1641.87 590.2 1641.14 587.189 1641.53 584.97C1641.51 585.053 1641.5 585.137 1641.49 585.22ZM1636.75 574.85C1636.14 573.292 1635.09 572.619 1634.5 571.926C1635.08 572.624 1636.13 573.297 1636.75 574.85ZM1637.7 573.839C1637.87 575.082 1637.79 575.989 1637.08 576.023C1637.91 575.988 1637.87 574.756 1637.59 573.193C1637.63 573.408 1637.66 573.624 1637.7 573.839ZM1746.66 600.664C1746.65 600.657 1746.64 600.666 1746.6 600.698C1746.65 600.677 1746.66 600.667 1746.66 600.664ZM1743.63 600.665C1743.63 600.664 1743.63 600.663 1743.63 600.661C1742.74 600.711 1741.84 600.761 1740.94 600.811C1741.84 600.763 1742.73 600.714 1743.63 600.665ZM1680.14 645.829C1680.21 646.106 1680.32 646.473 1679.08 647.078C1680.32 646.483 1680.21 646.109 1680.14 645.829ZM1641.87 577.758C1640.03 575.857 1639.69 573.153 1639.03 570.622C1638.97 570.421 1638.91 570.22 1638.86 570.018C1639.64 572.717 1639.87 575.708 1641.87 577.758ZM1638.02 566.086C1638.1 566.658 1638.1 567.135 1637.95 567.451C1638.1 567.134 1638.11 566.654 1638.02 566.086ZM1644.46 578.046C1644.23 577.685 1644.01 577.359 1643.8 577.086C1644.01 577.363 1644.23 577.69 1644.46 578.046ZM1684.1 640.536C1683.98 640.666 1683.88 640.79 1683.8 640.913C1683.89 640.798 1683.99 640.673 1684.1 640.536ZM1652.89 595.44C1653.06 595.906 1653.16 596.453 1653.1 596.946C1653.16 596.454 1653.07 595.907 1652.89 595.44ZM1681.31 634.599C1682.22 634.519 1683.91 633.547 1685.64 632.31C1685.63 632.311 1685.63 632.312 1685.63 632.313C1687.63 632.932 1686.44 634.324 1684.4 635.93C1686.44 634.321 1687.64 632.929 1685.64 632.31C1683.9 633.536 1682.22 634.508 1681.31 634.599ZM1652.81 588.398C1652.56 587.671 1652.2 586.898 1651.71 586.047C1652.2 586.896 1652.55 587.676 1652.81 588.398ZM1662.47 611.858C1662.4 611.709 1662.34 611.556 1662.27 611.392C1662.34 611.556 1662.4 611.714 1662.47 611.858ZM1701.58 619.636C1701.6 619.664 1701.61 619.704 1701.6 619.759C1701.61 619.704 1701.6 619.664 1701.58 619.636ZM1686.77 626.125C1686.51 626.82 1686.25 627.528 1685.99 628.227C1686.25 627.525 1686.51 626.823 1686.77 626.122C1686.77 626.124 1686.77 626.125 1686.77 626.125ZM1730.84 591.923C1731.85 591.238 1733.19 590.562 1734.38 589.887C1733.19 590.562 1731.84 591.227 1730.84 591.923ZM1735.82 587.041C1735.92 586.999 1736.02 586.943 1736.12 586.887C1736.12 586.883 1736.11 586.88 1736.11 586.876C1736.2 586.823 1736.33 586.745 1736.32 586.772C1736.34 586.742 1736.21 586.82 1736.11 586.876C1736.01 586.932 1735.91 586.988 1735.82 587.041ZM1726.52 592.211C1725.88 593.111 1724.88 594.263 1725.12 594.58C1724.89 594.26 1725.89 593.108 1726.52 592.211C1726.62 592.087 1726.71 591.955 1726.78 591.836C1726.7 591.948 1726.61 592.076 1726.52 592.211ZM1680.74 630.168C1680.51 630.081 1680.3 630.073 1680.11 630.13C1680 630.16 1679.91 630.21 1679.81 630.269C1679.81 630.271 1679.81 630.272 1679.82 630.274C1679.91 630.214 1680 630.165 1680.11 630.135C1680.3 630.077 1680.51 630.083 1680.74 630.168ZM1673.47 627.319C1673.61 627.62 1673.22 628.245 1671.63 629.61C1672.22 629.193 1672.95 628.795 1673.8 628.52C1676.47 627.676 1678.95 628.362 1680.65 629.62C1678.95 628.36 1676.46 627.673 1673.79 628.526C1672.94 628.801 1672.22 629.196 1671.63 629.611C1673.22 628.245 1673.61 627.62 1673.47 627.319ZM1706.52 601.19C1706.52 601.189 1706.52 601.188 1706.52 601.187C1706.47 601.212 1706.42 601.236 1706.37 601.261C1706.42 601.237 1706.47 601.213 1706.52 601.19Z" fill="#87D4E9"/>
<path opacity="0.9" d="M1205.29 851.042C1028.68 851.206 852.103 852.177 675.395 851.087C590.489 851.058 505.243 851.015 420.279 850.971C417.935 850.97 415.598 850.941 413.267 850.883C366.535 849.781 320.141 836.79 279.875 813.538C269.782 807.73 260.098 801.311 250.837 794.346C246.204 790.852 241.678 787.218 237.269 783.449C236.171 782.507 235.081 781.557 233.998 780.599C233.478 780.133 232.96 779.664 232.444 779.194C232.383 779.141 232.323 779.087 232.262 779.034C232.023 778.801 231.784 778.568 231.545 778.335C229.619 776.415 227.731 774.456 225.895 772.452C222.971 769.52 221.525 767.056 221.304 765.146C222.097 764.068 222.891 762.991 223.688 761.917C224.834 760.316 225.887 758.65 228.753 758.88C227.485 754.372 232.233 756.059 233.958 754.61C234.322 754.474 234.685 754.337 235.049 754.2C239.162 752.309 243.243 750.342 247.195 748.339C247.833 747.976 248.362 747.606 250.217 749.058C251.387 748.899 250.251 745.987 254.022 748.937C255.202 749.551 256.326 750.281 257.428 751.096C265.993 758.522 275.512 765.784 285.46 772.319C305.373 785.432 327.637 795.89 350.289 802.47C372.881 809.244 396.559 812.59 420.279 812.499C480.92 812.304 541.656 811.976 601.665 812.816C621.105 812.816 640.546 812.816 659.987 812.816C779.573 812.667 899.163 812.518 1018.79 812.369C1032.91 812.354 1047.2 812.711 1061.4 812.905C1182.76 812.761 1304.12 812.616 1425.49 812.471C1428.88 812.467 1432.26 812.394 1435.63 812.253C1465.52 809.656 1499.23 803.927 1527.21 790.272C1527.2 790.278 1527.19 790.283 1527.17 790.289C1538.62 784.192 1552.76 776.594 1568.42 765.885C1568.76 765.656 1569.07 765.449 1569.34 765.255C1573.28 763.46 1576.1 762.824 1577.06 764.42C1577.57 765.289 1577.9 766.275 1578.31 767.224C1582.57 771.075 1586.09 775.485 1586.82 781.929C1586.95 782.101 1587.07 782.272 1587.2 782.443C1589.31 784.768 1591.42 787.086 1593.54 789.398C1593.99 789.994 1594.66 790.481 1594.51 791.38C1594.43 791.829 1594.18 792.358 1593.59 793.075C1593.32 793.425 1592.91 793.836 1592.46 794.262C1592.22 794.494 1591.97 794.714 1591.68 794.961C1591.54 795.085 1591.39 795.209 1591.25 795.333C1590.03 796.238 1588.8 797.135 1587.48 798.062C1543.9 830.532 1485.38 850.967 1425.49 850.751C1389 850.807 1352.17 850.782 1315.93 850.894C1284.78 850.943 1253.63 850.993 1222.48 851.042C1216.75 851.042 1211.02 851.042 1205.29 851.042ZM530.964 813.025C530.95 813.025 530.935 813.025 530.921 813.025C530.892 813.025 530.862 813.026 530.834 813.026C530.877 813.026 530.921 813.025 530.964 813.025ZM405.887 813.042C386.03 811.323 364.303 807.908 343.685 801.414C332.914 797.645 325.327 794.513 319.221 792.024C325.319 794.513 332.883 797.646 343.591 801.43C364.288 807.928 386.029 811.325 405.887 813.042ZM507.19 813.338C507.434 813.334 507.677 813.33 507.92 813.326C507.663 813.33 507.405 813.334 507.147 813.338C502.026 814.015 496.906 814.691 491.786 815.368C496.92 814.691 502.055 814.015 507.19 813.338ZM1353.64 815.219C1367.96 814.929 1377.58 814.415 1387.36 813.906C1377.58 814.412 1367.96 814.918 1353.64 815.219ZM1193.09 819.739C1182.81 817.769 1210.63 815.233 1139.49 814.144C1134.1 814.189 1128.98 814.235 1123.86 814.279C1128.98 814.239 1134.1 814.2 1139.22 814.16C1210.59 815.234 1182.81 817.769 1193.05 819.739C1193.07 819.739 1193.08 819.739 1193.09 819.739ZM1471.58 811.437C1456.81 814.231 1441.2 815.631 1425.49 815.513C1410.35 815.413 1395.12 815.298 1380.19 815.24C1395.12 815.3 1410.35 815.417 1425.49 815.519C1441.2 815.638 1456.81 814.237 1471.58 811.437ZM603.578 816.606C602.155 816.621 601.042 816.665 600.108 816.695C600.998 816.665 602.154 816.636 603.578 816.606ZM1416.27 819.168C1400.13 817.962 1375.3 817.505 1347.41 817.323C1376.37 817.525 1402.04 818.001 1418.1 819.311C1417.49 819.263 1416.88 819.215 1416.27 819.168ZM1505.85 805.414C1518.44 801.141 1525.47 797.074 1531.52 793.922C1525.46 797.061 1518.44 801.127 1505.85 805.414ZM1510.74 805.194C1501.46 808.152 1495.05 809.397 1496.61 808.187C1494.75 809.603 1503.82 807.681 1515.59 803.574C1513.98 804.131 1512.36 804.671 1510.74 805.194ZM253.214 755.796C253.237 755.834 253.327 755.916 253.646 756.197C253.341 755.908 253.246 755.824 253.214 755.796ZM266.996 769.685C266.984 769.676 266.971 769.667 266.959 769.658C271.432 773.738 276.067 777.672 280.85 781.447C276.079 777.681 271.457 773.756 266.996 769.685ZM882.184 822.563C882.236 822.23 882.344 821.88 884.779 821.589C882.342 821.869 882.236 822.226 882.184 822.563ZM1471.25 818.54C1490.49 813.949 1511.07 808.509 1530.38 800.172C1531.92 799.506 1533.45 798.825 1534.98 798.128C1514.39 807.605 1492.02 813.581 1471.25 818.54ZM1563.38 783.252C1559.48 785.559 1556.28 787.232 1554.47 787.957C1556.28 787.234 1559.49 785.571 1563.38 783.252ZM1461.88 822.627C1465.27 822.059 1468.34 821.466 1470.97 820.891C1468.29 821.474 1465.23 822.066 1461.88 822.627ZM847.383 825.08C848.897 825.051 850.188 825.006 851.301 824.946C850.144 824.991 848.852 825.036 847.383 825.08ZM1301.66 826.758C1297.5 826.747 1292.94 826.626 1289.29 826.363C1292.94 826.626 1297.49 826.748 1301.66 826.758ZM836.475 832.227C829.93 831.69 813.769 831.437 796.005 831.392C796.019 831.392 796.034 831.392 796.048 831.392C785.719 829.512 800.678 829.064 822.405 828.99C800.634 829.064 785.676 829.512 796.005 831.392C813.769 831.452 829.93 831.705 836.475 832.227ZM1356.67 829.557C1363.09 829.595 1370.19 829.547 1378.33 829.383C1370.22 829.543 1363.09 829.582 1356.67 829.557ZM1144.48 829.93C1145.86 829.915 1147.24 829.915 1148.71 829.915C1147.24 829.915 1145.81 829.915 1144.48 829.93ZM625.734 832.099C625.721 832.058 625.857 832.016 626.195 831.974C625.845 832.016 625.709 832.057 625.734 832.099ZM757.492 836.151C762.701 835.704 767.955 835.242 773.209 834.795C767.955 835.247 762.702 835.699 757.448 836.151C757.482 836.151 757.49 836.151 757.492 836.151ZM293.352 805.788C284.171 800.861 273.539 794.05 264.191 787.145C273.538 794.05 284.163 800.874 293.352 805.788ZM243.982 773.392C243.307 772.776 242.591 772.138 241.879 771.497C241.875 771.5 241.872 771.504 241.869 771.508C241.19 770.897 240.245 770.039 240.425 770.179C240.21 770.008 241.156 770.867 241.869 771.508C242.581 772.149 243.298 772.788 243.982 773.392ZM320.609 821.209C329.171 824.257 341.552 827.716 341.649 827.247C341.511 827.704 329.13 824.241 320.609 821.209C319.355 820.766 318.137 820.34 317.094 819.979C318.174 820.371 319.35 820.78 320.609 821.209ZM945.793 841.299C947.183 841.096 947.89 840.883 948.045 840.658C948.134 840.538 948.045 840.419 947.867 840.299C947.852 840.299 947.838 840.299 947.823 840.299C948.001 840.419 948.091 840.538 948.001 840.658C947.848 840.883 947.154 841.097 945.793 841.299ZM852.636 843.916C853.274 843.514 860.335 843.187 883.001 843.044C890.241 842.996 896.748 842.932 902.584 842.859C896.736 842.932 890.212 842.996 882.953 843.044C860.323 843.187 853.274 843.514 852.636 843.916ZM500.42 845.253C500.406 845.253 500.392 845.253 500.377 845.253C500.84 845.265 501.3 845.276 501.755 845.287C501.314 845.276 500.868 845.265 500.42 845.253Z" fill="#86C774"/>
<path opacity="0.9" d="M270.455 776.557C258.883 776.845 247.318 777.351 235.746 777.65C245.531 777.778 253.342 767.231 250.354 757.895C252.593 765.586 254.711 773.313 256.574 781.116C259.433 791.128 262.291 801.185 265.139 811.206C266.544 816.225 267.908 821.244 269.189 826.271C269.51 827.53 269.816 828.788 270.136 830.042C270.29 830.672 270.444 831.301 270.598 831.931C270.633 832.089 270.669 832.247 270.705 832.404C270.719 832.482 270.732 832.559 270.745 832.636C270.747 832.645 270.75 832.654 270.752 832.662C270.75 832.702 270.747 832.741 270.744 832.781C270.699 833.11 270.642 833.442 270.558 833.782C270.583 834.257 270.049 834.732 269.064 835.193C267.927 835.545 266.789 835.897 265.652 836.249C263.985 836.769 262.334 837.3 260.651 837.52C258.81 838.549 256.779 838.581 254.836 839.113C254.526 839.182 254.215 839.252 253.904 839.321C250.187 840.194 246.456 841.07 242.792 841.932C242.178 842.082 241.619 842.226 241.355 841.992C240.542 842.127 239.455 842.817 238.95 842.325C238.607 842.252 238.379 842.141 238.227 842.002C237.72 840.63 237.242 839.167 236.817 837.694C235.954 834.746 235.188 831.704 234.256 828.809C231.593 818.896 227.713 809.222 225.921 799.13C225.277 796.896 224.633 794.663 223.989 792.429C221.522 784.164 219.054 775.899 216.586 767.632C212.76 755.813 222.666 742.347 235.118 742.494C239.258 742.381 243.397 742.268 247.538 742.155C249.224 742.112 250.939 742.403 252.639 742.547C267.581 742.146 282.522 741.745 297.463 741.344C301.312 739.865 305.699 741.626 309.68 740.964C309.678 740.964 309.677 740.964 309.675 740.964C311.333 740.223 313.408 740.133 315.864 740.492C315.917 740.504 315.965 740.516 316.008 740.515C316.57 741.284 316.925 742.393 316.928 744.058C316.928 744.958 316.902 745.845 316.886 746.745C317.11 751.831 317.2 756.893 316.901 761.921C316.905 762.114 316.908 762.306 316.912 762.499C316.996 765.309 317.079 768.118 317.163 770.928C317.175 771.599 317.215 772.311 317.15 772.876C317.118 773.158 317.064 773.401 316.966 773.604C316.92 773.713 316.858 773.795 316.79 773.863C316.753 773.904 316.717 773.931 316.675 773.959C316.653 773.972 316.632 773.986 316.611 774C316.441 774.017 316.271 774.033 316.09 774.036C306.042 776.069 294.632 775.737 283.678 776.187C279.955 776.299 276.232 776.41 272.509 776.521C271.824 776.533 271.139 776.545 270.455 776.557ZM228.444 807.2C228.444 807.202 228.445 807.203 228.445 807.205C228.446 807.208 228.448 807.211 228.449 807.215C228.448 807.21 228.445 807.205 228.444 807.2ZM232.993 821.582C233.17 824.194 234.324 826.792 235.318 829.389C235.531 830.853 235.884 831.849 236.307 832.607C235.888 831.849 235.545 830.852 235.359 829.389C234.34 826.789 233.172 824.193 232.993 821.582ZM229.502 809.853C229.491 809.826 229.479 809.799 229.468 809.772C229.48 809.801 229.492 809.829 229.503 809.858C230.258 810.278 231.013 810.697 231.767 811.117C231.012 810.696 230.257 810.274 229.502 809.853ZM287.613 744.005C289.32 743.714 290.461 743.231 291.622 742.752C290.461 743.228 289.32 743.703 287.613 744.005ZM268.493 748.415C267.232 746.665 270.517 744.323 261.995 743.495C261.352 743.546 260.74 743.599 260.129 743.65C260.74 743.603 261.352 743.556 261.963 743.51C270.512 744.324 267.232 746.665 268.488 748.415C268.489 748.415 268.491 748.415 268.493 748.415ZM302.103 744.175C298.457 744.275 294.544 744.011 290.787 743.967C294.544 744.013 298.457 744.287 302.103 744.175ZM229.135 797.965C229.195 798.125 229.27 798.242 229.327 798.341C229.272 798.247 229.208 798.121 229.135 797.965ZM295.164 747.424C293.215 746.374 290.239 746.016 286.901 745.912C290.367 746.031 293.443 746.405 295.384 747.549C295.31 747.507 295.237 747.466 295.164 747.424ZM306.539 746.635C308.211 746.618 309.209 745.875 310.066 745.565C309.209 745.862 308.21 746.605 306.539 746.635ZM307.151 747.882C305.928 747.603 305.104 747.215 305.323 746.536C305.063 747.328 306.23 747.724 307.792 748.013C307.578 747.969 307.364 747.926 307.151 747.882ZM243.687 840.433C243.698 840.424 243.694 840.41 243.679 840.358C243.681 840.413 243.686 840.428 243.687 840.433ZM244.755 837.593C244.755 837.595 244.756 837.597 244.756 837.599C245.026 836.74 245.295 835.881 245.565 835.022C245.295 835.879 245.025 836.736 244.755 837.593ZM224.83 762.265C224.545 762.236 224.163 762.207 224.033 760.834C224.153 762.207 224.542 762.236 224.83 762.265ZM302.012 750.412C304.442 749.353 307.091 749.989 309.694 750.257C309.902 750.276 310.11 750.295 310.318 750.313C307.516 750.098 304.636 749.259 302.012 750.412ZM314.293 750.915C313.732 750.784 313.284 750.621 313.041 750.368C313.284 750.623 313.732 750.796 314.293 750.915ZM300.834 752.727C301.253 752.639 301.635 752.551 301.963 752.451C301.63 752.551 301.248 752.639 300.834 752.727ZM228.387 767.843C228.311 767.676 228.23 767.539 228.141 767.426C228.218 767.548 228.3 767.685 228.387 767.843ZM281.584 754.499C281.087 754.499 280.539 754.399 280.1 754.17C280.539 754.399 281.086 754.499 281.584 754.499ZM234.929 767.314C234.681 768.2 234.998 770.119 235.547 772.171C235.547 772.17 235.547 772.168 235.546 772.166C234.262 773.822 233.379 772.215 232.595 769.737C233.381 772.22 234.264 773.827 235.547 772.171C235.011 770.116 234.694 768.196 234.929 767.314ZM288.205 756.9C288.973 756.921 289.822 756.862 290.792 756.698C289.824 756.859 288.973 756.909 288.205 756.9ZM262.845 757.689C263.009 757.672 263.175 757.67 263.35 757.667C263.175 757.67 263.004 757.673 262.845 757.689ZM241.799 791.556C241.764 791.568 241.723 791.563 241.675 791.535C241.723 791.565 241.764 791.57 241.799 791.556ZM240.938 775.409C240.379 774.922 239.806 774.434 239.245 773.942C239.81 774.433 240.375 774.923 240.94 775.414C240.939 775.41 240.939 775.409 240.938 775.409ZM257.438 828.701C257.724 829.887 257.887 831.375 258.097 832.733C257.887 831.375 257.737 829.884 257.438 828.701ZM260.255 835.079C260.259 835.189 260.277 835.3 260.295 835.411C260.299 835.41 260.304 835.409 260.308 835.408C260.324 835.514 260.352 835.661 260.332 835.639C260.354 835.666 260.326 835.519 260.308 835.408C260.29 835.297 260.272 835.185 260.255 835.079ZM258.688 824.557C258.072 823.64 257.346 822.297 256.964 822.411C257.347 822.302 258.074 823.645 258.688 824.557C258.77 824.694 258.862 824.822 258.949 824.93C258.873 824.813 258.783 824.69 258.688 824.557ZM239.276 768.344C239.439 768.159 239.52 767.965 239.535 767.762C239.543 767.655 239.531 767.547 239.508 767.44C239.506 767.44 239.504 767.44 239.502 767.44C239.526 767.547 239.538 767.655 239.53 767.762C239.515 767.965 239.435 768.16 239.276 768.344ZM244.501 762.543C244.171 762.567 243.722 761.984 243.004 760.015C243.188 760.712 243.302 761.537 243.26 762.431C243.112 765.223 241.596 767.304 239.82 768.452C241.599 767.302 243.119 765.213 243.26 762.413C243.3 761.526 243.186 760.707 243.003 760.015C243.722 761.984 244.171 762.567 244.501 762.543ZM257.326 802.673C257.326 802.674 257.327 802.676 257.327 802.678C257.322 802.622 257.316 802.566 257.31 802.511C257.315 802.565 257.321 802.618 257.326 802.673Z" fill="#86C774"/>
</svg>
