<?xml version="1.0" encoding="UTF-8" standalone="no"?>
<!DOCTYPE svg PUBLIC "-//W3C//DTD SVG 1.1//EN" "http://www.w3.org/Graphics/SVG/1.1/DTD/svg11.dtd">
<svg width="100%" height="100%" viewBox="0 0 1920 1172" version="1.1" xmlns="http://www.w3.org/2000/svg" xmlns:xlink="http://www.w3.org/1999/xlink" xml:space="preserve" xmlns:serif="http://www.serif.com/" style="fill-rule:evenodd;clip-rule:evenodd;">
    <g id="Graphic-1---Square" serif:id="Graphic 1 - Square">
        <rect x="0" y="0" width="1920" height="1172" style="fill:rgb(2,27,32);"/>
        <g id="Group-66" serif:id="Group 66">
            <g id="Explore">
                <path id="Vector_1939" d="M1136.53,356.416C1130.39,356.416 1125.01,355.158 1120.36,352.64C1115.72,350.044 1112.06,346.465 1109.39,341.902C1106.79,337.261 1105.5,331.951 1105.5,325.972C1105.5,319.836 1106.79,314.369 1109.39,309.57C1111.99,304.772 1115.6,300.996 1120.25,298.242C1124.89,295.489 1130.28,294.112 1136.41,294.112C1142.39,294.112 1147.62,295.41 1152.11,298.006C1156.59,300.602 1160.09,304.142 1162.61,308.626C1165.2,313.032 1166.5,318.145 1166.5,323.966C1166.5,324.753 1166.46,325.658 1166.38,326.68C1166.38,327.624 1166.31,328.608 1166.15,329.63L1118.12,329.63L1118.12,319.364L1148.45,319.364C1148.29,316.06 1147.07,313.425 1144.79,311.458C1142.59,309.413 1139.83,308.39 1136.53,308.39C1134.01,308.39 1131.73,308.98 1129.69,310.16C1127.64,311.34 1125.99,313.11 1124.73,315.47C1123.55,317.83 1122.96,320.82 1122.96,324.438L1122.96,327.978C1122.96,330.732 1123.47,333.17 1124.49,335.294C1125.6,337.418 1127.13,339.07 1129.1,340.25C1131.14,341.43 1133.54,342.02 1136.29,342.02C1138.89,342.02 1141.01,341.509 1142.67,340.486C1144.4,339.385 1145.73,338.008 1146.68,336.356L1164.73,336.356C1163.63,340.132 1161.74,343.554 1159.07,346.622C1156.39,349.612 1153.13,352.011 1149.27,353.82C1145.42,355.551 1141.17,356.416 1136.53,356.416Z" style="fill:rgb(250,250,250);fill-rule:nonzero;"/>
                <path id="Vector_1940" d="M1061.83,355L1061.83,295.528L1077.53,295.528L1079.18,306.384C1080.75,303.867 1082.6,301.704 1084.72,299.894C1086.85,298.085 1089.29,296.669 1092.04,295.646C1094.87,294.624 1097.9,294.112 1101.13,294.112L1101.13,312.874L1095.23,312.874C1092.87,312.874 1090.7,313.15 1088.74,313.7C1086.85,314.172 1085.2,314.998 1083.78,316.178C1082.44,317.358 1081.38,318.971 1080.59,321.016C1079.89,322.983 1079.53,325.461 1079.53,328.45L1079.53,355L1061.83,355Z" style="fill:rgb(250,250,250);fill-rule:nonzero;"/>
                <path id="Vector_1941" d="M1021.33,356.416C1015.59,356.416 1010.43,355.079 1005.87,352.404C1001.31,349.73 997.69,346.072 995.016,341.43C992.341,336.71 991.004,331.361 991.004,325.382C991.004,319.246 992.341,313.858 995.016,309.216C997.69,304.496 1001.31,300.799 1005.87,298.124C1010.51,295.45 1015.67,294.112 1021.33,294.112C1027.15,294.112 1032.34,295.45 1036.91,298.124C1041.47,300.799 1045.09,304.496 1047.76,309.216C1050.44,313.858 1051.77,319.207 1051.77,325.264C1051.77,331.322 1050.44,336.71 1047.76,341.43C1045.09,346.072 1041.47,349.73 1036.91,352.404C1032.34,355.079 1027.15,356.416 1021.33,356.416ZM1021.33,341.076C1023.69,341.076 1025.77,340.486 1027.58,339.306C1029.47,338.126 1030.97,336.356 1032.07,333.996C1033.17,331.636 1033.72,328.726 1033.72,325.264C1033.72,321.803 1033.17,318.892 1032.07,316.532C1030.97,314.172 1029.51,312.402 1027.7,311.222C1025.89,310.042 1023.81,309.452 1021.45,309.452C1019.09,309.452 1016.96,310.042 1015.08,311.222C1013.27,312.402 1011.81,314.172 1010.71,316.532C1009.61,318.892 1009.06,321.803 1009.06,325.264C1009.06,328.726 1009.61,331.636 1010.71,333.996C1011.81,336.356 1013.27,338.126 1015.08,339.306C1016.96,340.486 1019.05,341.076 1021.33,341.076Z" style="fill:rgb(250,250,250);fill-rule:nonzero;"/>
                <rect id="Vector_1942" x="963.241" y="270.04" width="17.7" height="84.96" style="fill:rgb(250,250,250);fill-rule:nonzero;"/>
                <path id="Vector_1943" d="M888.537,380.96L888.537,295.528L904.231,295.528L906.237,303.316C907.496,301.664 908.951,300.13 910.603,298.714C912.255,297.298 914.222,296.197 916.503,295.41C918.863,294.545 921.617,294.112 924.763,294.112C930.27,294.112 935.108,295.489 939.277,298.242C943.525,300.996 946.908,304.732 949.425,309.452C951.943,314.094 953.201,319.404 953.201,325.382C953.201,331.361 951.903,336.71 949.307,341.43C946.79,346.072 943.407,349.73 939.159,352.404C934.911,355.079 930.152,356.416 924.881,356.416C920.633,356.416 916.975,355.669 913.907,354.174C910.839,352.68 908.283,350.595 906.237,347.92L906.237,380.96L888.537,380.96ZM920.397,340.958C923.229,340.958 925.747,340.329 927.949,339.07C930.231,337.733 932.001,335.884 933.259,333.524C934.518,331.164 935.147,328.45 935.147,325.382C935.147,322.314 934.518,319.6 933.259,317.24C932.001,314.88 930.231,313.032 927.949,311.694C925.747,310.278 923.229,309.57 920.397,309.57C917.487,309.57 914.891,310.278 912.609,311.694C910.407,313.032 908.676,314.88 907.417,317.24C906.159,319.6 905.529,322.275 905.529,325.264C905.529,328.332 906.159,331.086 907.417,333.524C908.676,335.884 910.407,337.733 912.609,339.07C914.891,340.329 917.487,340.958 920.397,340.958Z" style="fill:rgb(250,250,250);fill-rule:nonzero;"/>
                <path id="Vector_1944" d="M816.702,355L838.414,325.264L816.702,295.528L835.818,295.528L849.506,314.762L863.194,295.528L882.192,295.528L860.48,325.264L882.192,355L863.194,355L849.506,335.648L835.818,355L816.702,355Z" style="fill:rgb(250,250,250);fill-rule:nonzero;"/>
                <path id="Vector_1945" d="M756.535,355L756.535,272.4L811.877,272.4L811.877,286.678L774.235,286.678L774.235,306.148L808.337,306.148L808.337,319.836L774.235,319.836L774.235,340.722L811.877,340.722L811.877,355L756.535,355Z" style="fill:rgb(250,250,250);fill-rule:nonzero;"/>
            </g>
            <g id="Craft">
                <path id="Vector_1946" d="M1788.51,786C1784.26,786 1780.49,785.332 1777.18,783.994C1773.88,782.578 1771.32,780.297 1769.51,777.15C1767.7,774.004 1766.8,769.716 1766.8,764.288L1766.8,741.278L1756.65,741.278L1756.65,726.528L1766.8,726.528L1768.69,709.772L1784.5,709.772L1784.5,726.528L1799.72,726.528L1799.72,741.278L1784.5,741.278L1784.5,764.524C1784.5,766.884 1785.01,768.576 1786.03,769.598C1787.13,770.542 1788.98,771.014 1791.58,771.014L1799.72,771.014L1799.72,786L1788.51,786Z" style="fill:rgb(250,250,250);fill-rule:nonzero;"/>
                <path id="Vector_1947" d="M1721.97,786.001L1721.97,722.281C1721.97,717.089 1722.88,712.959 1724.69,709.891C1726.5,706.744 1729.01,704.502 1732.24,703.165C1735.54,701.749 1739.32,701.041 1743.57,701.041L1751.12,701.041L1751.12,716.027L1746.4,716.027C1743.96,716.027 1742.23,716.499 1741.21,717.443C1740.18,718.387 1739.67,719.999 1739.67,722.281L1739.67,786.001L1721.97,786.001ZM1714.18,741.279L1714.18,726.529L1751.94,726.529L1751.94,741.279L1714.18,741.279Z" style="fill:rgb(250,250,250);fill-rule:nonzero;"/>
                <path id="Vector_1948" d="M1672.81,787.417C1667.85,787.417 1663.72,786.63 1660.42,785.057C1657.19,783.483 1654.79,781.359 1653.22,778.685C1651.72,775.931 1650.98,772.903 1650.98,769.599C1650.98,766.059 1651.84,762.951 1653.57,760.277C1655.38,757.523 1658.18,755.36 1661.95,753.787C1665.73,752.135 1670.49,751.309 1676.23,751.309L1690.63,751.309C1690.63,748.634 1690.27,746.431 1689.56,744.701C1688.93,742.97 1687.87,741.672 1686.38,740.807C1684.88,739.941 1682.84,739.509 1680.24,739.509C1677.49,739.509 1675.17,740.059 1673.28,741.161C1671.39,742.262 1670.21,743.993 1669.74,746.353L1652.75,746.353C1653.14,742.105 1654.52,738.407 1656.88,735.261C1659.32,732.114 1662.54,729.636 1666.55,727.827C1670.57,726.017 1675.17,725.113 1680.36,725.113C1686.02,725.113 1690.94,726.057 1695.11,727.945C1699.28,729.754 1702.5,732.429 1704.79,735.969C1707.15,739.509 1708.33,743.914 1708.33,749.185L1708.33,786.001L1693.58,786.001L1691.45,777.387C1690.59,778.881 1689.56,780.258 1688.38,781.517C1687.2,782.697 1685.83,783.759 1684.25,784.703C1682.68,785.568 1680.95,786.237 1679.06,786.709C1677.17,787.181 1675.09,787.417 1672.81,787.417ZM1677.17,773.965C1679.06,773.965 1680.71,773.65 1682.13,773.021C1683.55,772.391 1684.76,771.526 1685.79,770.425C1686.81,769.323 1687.64,768.065 1688.27,766.649C1688.97,765.154 1689.48,763.541 1689.8,761.811L1689.8,761.693L1678.35,761.693C1676.39,761.693 1674.73,761.968 1673.4,762.519C1672.14,762.991 1671.19,763.699 1670.57,764.643C1669.94,765.587 1669.62,766.688 1669.62,767.947C1669.62,769.284 1669.94,770.425 1670.57,771.369C1671.27,772.234 1672.18,772.903 1673.28,773.375C1674.46,773.768 1675.76,773.965 1677.17,773.965Z" style="fill:rgb(250,250,250);fill-rule:nonzero;"/>
                <path id="Vector_1949" d="M1606.5,786.001L1606.5,726.529L1622.19,726.529L1623.85,737.385C1625.42,734.867 1627.27,732.704 1629.39,730.895C1631.52,729.085 1633.96,727.669 1636.71,726.647C1639.54,725.624 1642.57,725.113 1645.79,725.113L1645.79,743.875L1639.89,743.875C1637.53,743.875 1635.37,744.15 1633.4,744.701C1631.52,745.173 1629.86,745.999 1628.45,747.179C1627.11,748.359 1626.05,749.971 1625.26,752.017C1624.55,753.983 1624.2,756.461 1624.2,759.451L1624.2,786.001L1606.5,786.001Z" style="fill:rgb(250,250,250);fill-rule:nonzero;"/>
                <path id="Vector_1950" d="M1559.87,787.417C1551.61,787.417 1544.49,785.647 1538.52,782.107C1532.54,778.488 1527.94,773.493 1524.71,767.121C1521.48,760.67 1519.87,753.276 1519.87,744.937C1519.87,736.441 1521.48,729.007 1524.71,722.635C1527.94,716.184 1532.54,711.15 1538.52,707.531C1544.49,703.834 1551.61,701.985 1559.87,701.985C1570.1,701.985 1578.44,704.542 1584.89,709.655C1591.42,714.768 1595.47,721.966 1597.04,731.249L1577.69,731.249C1576.75,727.08 1574.74,723.854 1571.67,721.573C1568.61,719.213 1564.63,718.033 1559.76,718.033C1555.11,718.033 1551.14,719.134 1547.84,721.337C1544.61,723.54 1542.13,726.647 1540.4,730.659C1538.75,734.592 1537.93,739.352 1537.93,744.937C1537.93,750.365 1538.75,755.085 1540.4,759.097C1542.13,763.03 1544.61,766.098 1547.84,768.301C1551.14,770.425 1555.11,771.487 1559.76,771.487C1564.63,771.487 1568.57,770.464 1571.56,768.419C1574.62,766.295 1576.67,763.266 1577.69,759.333L1597.04,759.333C1595.47,768.065 1591.42,774.948 1584.89,779.983C1578.44,784.939 1570.1,787.417 1559.87,787.417Z" style="fill:rgb(250,250,250);fill-rule:nonzero;"/>
            </g>
            <g id="Ship">
                <path id="Vector_1951" d="M291.046,761.961L291.046,676.529L306.74,676.529L308.746,684.317C310.005,682.665 311.46,681.131 313.112,679.715C314.764,678.299 316.731,677.197 319.012,676.411C321.372,675.545 324.126,675.113 327.272,675.113C332.779,675.113 337.617,676.489 341.786,679.243C346.034,681.996 349.417,685.733 351.934,690.453C354.452,695.094 355.71,700.404 355.71,706.383C355.71,712.361 354.412,717.711 351.816,722.431C349.299,727.072 345.916,730.73 341.668,733.405C337.42,736.079 332.661,737.417 327.39,737.417C323.142,737.417 319.484,736.669 316.416,735.175C313.348,733.68 310.792,731.595 308.746,728.921L308.746,761.961L291.046,761.961ZM322.906,721.959C325.738,721.959 328.256,721.329 330.458,720.071C332.74,718.733 334.51,716.885 335.768,714.525C337.027,712.165 337.656,709.451 337.656,706.383C337.656,703.315 337.027,700.601 335.768,698.241C334.51,695.881 332.74,694.032 330.458,692.695C328.256,691.279 325.738,690.571 322.906,690.571C319.996,690.571 317.4,691.279 315.118,692.695C312.916,694.032 311.185,695.881 309.926,698.241C308.668,700.601 308.038,703.275 308.038,706.265C308.038,709.333 308.668,712.086 309.926,714.525C311.185,716.885 312.916,718.733 315.118,720.071C317.4,721.329 319.996,721.959 322.906,721.959Z" style="fill:rgb(250,250,250);fill-rule:nonzero;"/>
                <path id="Vector_1952" d="M261.289,736.001L261.289,676.529L278.989,676.529L278.989,736.001L261.289,736.001ZM270.139,669.685C266.992,669.685 264.436,668.78 262.469,666.971C260.502,665.161 259.519,662.88 259.519,660.127C259.519,657.295 260.502,654.974 262.469,653.165C264.436,651.355 266.992,650.451 270.139,650.451C273.364,650.451 275.96,651.355 277.927,653.165C279.972,654.974 280.995,657.295 280.995,660.127C280.995,662.88 279.972,665.161 277.927,666.971C275.96,668.78 273.364,669.685 270.139,669.685Z" style="fill:rgb(250,250,250);fill-rule:nonzero;"/>
                <path id="Vector_1953" d="M190.267,736.001L190.267,651.041L207.967,651.041L207.967,685.025C209.855,682.035 212.411,679.636 215.637,677.827C218.862,676.017 222.638,675.113 226.965,675.113C231.999,675.113 236.208,676.175 239.591,678.299C242.973,680.423 245.53,683.53 247.261,687.621C248.991,691.633 249.857,696.51 249.857,702.253L249.857,736.001L232.275,736.001L232.275,703.905C232.275,699.499 231.331,696.077 229.443,693.639C227.633,691.2 224.723,689.981 220.711,689.981C218.351,689.981 216.187,690.571 214.221,691.751C212.254,692.931 210.72,694.622 209.619,696.825C208.517,698.949 207.967,701.505 207.967,704.495L207.967,736.001L190.267,736.001Z" style="fill:rgb(250,250,250);fill-rule:nonzero;"/>
                <path id="Vector_1954" d="M150.934,737.416C145.034,737.416 139.685,736.433 134.886,734.466C130.166,732.421 126.429,729.432 123.676,725.498C120.923,721.565 119.428,716.727 119.192,710.984L138.072,710.984C138.151,713.266 138.741,715.272 139.842,717.002C140.943,718.733 142.438,720.11 144.326,721.132C146.214,722.076 148.417,722.548 150.934,722.548C153.058,722.548 154.907,722.234 156.48,721.604C158.132,720.896 159.43,719.913 160.374,718.654C161.318,717.317 161.79,715.665 161.79,713.698C161.79,711.653 161.239,709.922 160.138,708.506C159.037,707.012 157.542,705.753 155.654,704.73C153.766,703.629 151.563,702.646 149.046,701.78C146.607,700.836 143.972,699.932 141.14,699.066C134.611,696.942 129.576,694.071 126.036,690.452C122.575,686.834 120.844,681.996 120.844,675.938C120.844,670.904 122.063,666.616 124.502,663.076C127.019,659.458 130.441,656.704 134.768,654.816C139.095,652.928 144.011,651.984 149.518,651.984C155.182,651.984 160.138,652.968 164.386,654.934C168.713,656.822 172.135,659.615 174.652,663.312C177.248,666.931 178.625,671.258 178.782,676.292L159.784,676.292C159.705,674.562 159.194,672.988 158.25,671.572C157.385,670.156 156.165,669.016 154.592,668.15C153.097,667.285 151.327,666.852 149.282,666.852C147.473,666.774 145.821,667.049 144.326,667.678C142.831,668.229 141.651,669.134 140.786,670.392C139.921,671.572 139.488,673.067 139.488,674.876C139.488,676.607 139.921,678.141 140.786,679.478C141.73,680.737 142.989,681.838 144.562,682.782C146.214,683.648 148.102,684.474 150.226,685.26C152.429,686.047 154.828,686.834 157.424,687.62C161.593,689.036 165.409,690.728 168.87,692.694C172.41,694.582 175.242,697.1 177.366,700.246C179.569,703.314 180.67,707.405 180.67,712.518C180.67,717.002 179.49,721.132 177.13,724.908C174.849,728.684 171.505,731.713 167.1,733.994C162.773,736.276 157.385,737.416 150.934,737.416Z" style="fill:rgb(250,250,250);fill-rule:nonzero;"/>
            </g>
            <g id="Group-68" serif:id="Group 68">
            </g>
            <g id="Purple-Line" serif:id="Purple Line">
                <path id="Rectangle-5" serif:id="Rectangle 5" d="M703.546,325.506L447.908,325.506C301.713,325.506 183.198,444.02 183.198,590.215C183.198,595.433 183.349,600.615 183.647,605.758" style="fill:none;fill-rule:nonzero;stroke:rgb(169,152,201);stroke-opacity:0.9;stroke-width:40px;"/>
                <path id="Vector-54" serif:id="Vector 54" d="M639.655,374.195L703.301,322.315C705.484,320.535 705.193,317.117 702.741,315.732L639.655,280.095" style="fill:none;fill-rule:nonzero;stroke:rgb(169,152,201);stroke-opacity:0.9;stroke-width:36px;"/>
            </g>
            <g id="BlueLine">
                <path id="Rectangle-5_2" serif:id="Rectangle 5_2" d="M1712.41,643.733C1715.96,626.449 1717.82,608.55 1717.82,590.215C1717.82,444.02 1599.31,325.506 1453.11,325.506L1195.13,325.506" style="fill:none;fill-rule:nonzero;stroke:rgb(135,212,233);stroke-opacity:0.9;stroke-width:40px;"/>
                <path id="Vector-55" serif:id="Vector 55" d="M1671.47,584.139L1701.61,660.15C1702.22,661.684 1704.12,662.222 1705.44,661.236L1769.24,613.697" style="fill:none;fill-rule:nonzero;stroke:rgb(135,212,233);stroke-opacity:0.9;stroke-width:36px;"/>
            </g>
            <g id="green-Line" serif:id="green Line">
                <path id="Rectangle-5_3" serif:id="Rectangle 5_3" d="M1631,828.501C1584.5,871.001 1524.5,888.594 1453.11,888.594L447.908,888.594C374.328,888.594 307.76,858.573 259.784,810.111" style="fill:none;fill-rule:nonzero;stroke:rgb(134,199,116);stroke-opacity:0.9;stroke-width:40px;"/>
                <path id="Vector-56" serif:id="Vector 56" d="M336.571,807.641L254.879,804.059C253.231,803.987 251.963,805.498 252.321,807.109L269.61,884.767" style="fill:none;fill-rule:nonzero;stroke:rgb(134,199,116);stroke-opacity:0.9;stroke-width:36px;"/>
            </g>
        </g>
    </g>
</svg>
