<svg width="1920" height="1080" viewBox="0 0 1920 1080" fill="none" xmlns="http://www.w3.org/2000/svg">
<path d="M0 30C0 13.4314 13.4315 0 30 0H1890C1906.57 0 1920 13.4315 1920 30V1050C1920 1066.57 1906.57 1080 1890 1080H29.9999C13.4314 1080 0 1066.57 0 1050V30Z" fill="#021B20"/>
<path d="M738.565 351.996V269.396H793.907V283.674H756.265V303.144H790.367V316.832H756.265V337.718H793.907V351.996H738.565ZM798.732 351.996L820.444 322.26L798.732 292.524H817.848L831.536 311.758L845.224 292.524H864.222L842.51 322.26L864.222 351.996H845.224L831.536 332.644L817.848 351.996H798.732ZM870.567 377.956V292.524H886.261L888.267 300.312C889.526 298.66 890.981 297.126 892.633 295.71C894.285 294.294 896.252 293.193 898.533 292.406C900.893 291.541 903.647 291.108 906.793 291.108C912.3 291.108 917.138 292.485 921.307 295.238C925.555 297.991 928.938 301.728 931.455 306.448C933.973 311.089 935.231 316.399 935.231 322.378C935.231 328.357 933.933 333.706 931.337 338.426C928.82 343.067 925.437 346.725 921.189 349.4C916.941 352.075 912.182 353.412 906.911 353.412C902.663 353.412 899.005 352.665 895.937 351.17C892.869 349.675 890.313 347.591 888.267 344.916V377.956H870.567ZM902.427 337.954C905.259 337.954 907.777 337.325 909.979 336.066C912.261 334.729 914.031 332.88 915.289 330.52C916.548 328.16 917.177 325.446 917.177 322.378C917.177 319.31 916.548 316.596 915.289 314.236C914.031 311.876 912.261 310.027 909.979 308.69C907.777 307.274 905.259 306.566 902.427 306.566C899.517 306.566 896.921 307.274 894.639 308.69C892.437 310.027 890.706 311.876 889.447 314.236C888.189 316.596 887.559 319.271 887.559 322.26C887.559 325.328 888.189 328.081 889.447 330.52C890.706 332.88 892.437 334.729 894.639 336.066C896.921 337.325 899.517 337.954 902.427 337.954ZM945.271 351.996V267.036H962.971V351.996H945.271ZM1003.36 353.412C997.617 353.412 992.464 352.075 987.902 349.4C983.339 346.725 979.72 343.067 977.046 338.426C974.371 333.706 973.034 328.357 973.034 322.378C973.034 316.242 974.371 310.853 977.046 306.212C979.72 301.492 983.339 297.795 987.902 295.12C992.543 292.445 997.696 291.108 1003.36 291.108C1009.18 291.108 1014.37 292.445 1018.94 295.12C1023.5 297.795 1027.12 301.492 1029.79 306.212C1032.47 310.853 1033.8 316.203 1033.8 322.26C1033.8 328.317 1032.47 333.706 1029.79 338.426C1027.12 343.067 1023.5 346.725 1018.94 349.4C1014.37 352.075 1009.18 353.412 1003.36 353.412ZM1003.36 338.072C1005.72 338.072 1007.8 337.482 1009.61 336.302C1011.5 335.122 1013 333.352 1014.1 330.992C1015.2 328.632 1015.75 325.721 1015.75 322.26C1015.75 318.799 1015.2 315.888 1014.1 313.528C1013 311.168 1011.54 309.398 1009.73 308.218C1007.92 307.038 1005.84 306.448 1003.48 306.448C1001.12 306.448 998.994 307.038 997.106 308.218C995.296 309.398 993.841 311.168 992.74 313.528C991.638 315.888 991.088 318.799 991.088 322.26C991.088 325.721 991.638 328.632 992.74 330.992C993.841 333.352 995.296 335.122 997.106 336.302C998.994 337.482 1001.08 338.072 1003.36 338.072ZM1043.86 351.996V292.524H1059.56L1061.21 303.38C1062.78 300.863 1064.63 298.699 1066.75 296.89C1068.88 295.081 1071.32 293.665 1074.07 292.642C1076.9 291.619 1079.93 291.108 1083.16 291.108V309.87H1077.26C1074.9 309.87 1072.73 310.145 1070.77 310.696C1068.88 311.168 1067.23 311.994 1065.81 313.174C1064.47 314.354 1063.41 315.967 1062.62 318.012C1061.92 319.979 1061.56 322.457 1061.56 325.446V351.996H1043.86ZM1118.56 353.412C1112.42 353.412 1107.04 352.153 1102.39 349.636C1097.75 347.04 1094.09 343.461 1091.42 338.898C1088.82 334.257 1087.53 328.947 1087.53 322.968C1087.53 316.832 1088.82 311.365 1091.42 306.566C1094.02 301.767 1097.63 297.991 1102.28 295.238C1106.92 292.485 1112.31 291.108 1118.44 291.108C1124.42 291.108 1129.65 292.406 1134.14 295.002C1138.62 297.598 1142.12 301.138 1144.64 305.622C1147.23 310.027 1148.53 315.141 1148.53 320.962C1148.53 321.749 1148.49 322.653 1148.41 323.676C1148.41 324.62 1148.34 325.603 1148.18 326.626H1100.15V316.36H1130.48C1130.32 313.056 1129.1 310.421 1126.82 308.454C1124.62 306.409 1121.86 305.386 1118.56 305.386C1116.04 305.386 1113.76 305.976 1111.72 307.156C1109.67 308.336 1108.02 310.106 1106.76 312.466C1105.58 314.826 1104.99 317.815 1104.99 321.434V324.974C1104.99 327.727 1105.5 330.166 1106.52 332.29C1107.63 334.414 1109.16 336.066 1111.13 337.246C1113.17 338.426 1115.57 339.016 1118.32 339.016C1120.92 339.016 1123.04 338.505 1124.7 337.482C1126.43 336.381 1127.76 335.004 1128.71 333.352H1146.76C1145.66 337.128 1143.77 340.55 1141.1 343.618C1138.42 346.607 1135.16 349.007 1131.3 350.816C1127.45 352.547 1123.2 353.412 1118.56 353.412Z" fill="#FAFAFA"/>
<path d="M1560.25 767.062C1551.99 767.062 1544.87 765.292 1538.89 761.752C1532.91 758.133 1528.31 753.138 1525.08 746.766C1521.86 740.315 1520.24 732.921 1520.24 724.582C1520.24 716.086 1521.86 708.652 1525.08 702.28C1528.31 695.829 1532.91 690.795 1538.89 687.176C1544.87 683.479 1551.99 681.63 1560.25 681.63C1570.47 681.63 1578.81 684.187 1585.26 689.3C1591.79 694.413 1595.84 701.611 1597.42 710.894H1578.06C1577.12 706.725 1575.11 703.499 1572.05 701.218C1568.98 698.858 1565.01 697.678 1560.13 697.678C1555.49 697.678 1551.51 698.779 1548.21 700.982C1544.98 703.185 1542.51 706.292 1540.78 710.304C1539.12 714.237 1538.3 718.997 1538.3 724.582C1538.3 730.01 1539.12 734.73 1540.78 738.742C1542.51 742.675 1544.98 745.743 1548.21 747.946C1551.51 750.07 1555.49 751.132 1560.13 751.132C1565.01 751.132 1568.94 750.109 1571.93 748.064C1575 745.94 1577.04 742.911 1578.06 738.978H1597.42C1595.84 747.71 1591.79 754.593 1585.26 759.628C1578.81 764.584 1570.47 767.062 1560.25 767.062ZM1606.87 765.646V706.174H1622.57L1624.22 717.03C1625.79 714.513 1627.64 712.349 1629.76 710.54C1631.89 708.731 1634.33 707.315 1637.08 706.292C1639.91 705.269 1642.94 704.758 1646.17 704.758V723.52H1640.27C1637.91 723.52 1635.74 723.795 1633.78 724.346C1631.89 724.818 1630.24 725.644 1628.82 726.824C1627.48 728.004 1626.42 729.617 1625.63 731.662C1624.93 733.629 1624.57 736.107 1624.57 739.096V765.646H1606.87ZM1673.18 767.062C1668.22 767.062 1664.09 766.275 1660.79 764.702C1657.56 763.129 1655.17 761.005 1653.59 758.33C1652.1 755.577 1651.35 752.548 1651.35 749.244C1651.35 745.704 1652.22 742.597 1653.95 739.922C1655.76 737.169 1658.55 735.005 1662.32 733.432C1666.1 731.78 1670.86 730.954 1676.6 730.954H1691C1691 728.279 1690.64 726.077 1689.94 724.346C1689.31 722.615 1688.24 721.317 1686.75 720.452C1685.26 719.587 1683.21 719.154 1680.61 719.154C1677.86 719.154 1675.54 719.705 1673.65 720.806C1671.76 721.907 1670.58 723.638 1670.11 725.998H1653.12C1653.51 721.75 1654.89 718.053 1657.25 714.906C1659.69 711.759 1662.91 709.281 1666.93 707.472C1670.94 705.663 1675.54 704.758 1680.73 704.758C1686.4 704.758 1691.31 705.702 1695.48 707.59C1699.65 709.399 1702.88 712.074 1705.16 715.614C1707.52 719.154 1708.7 723.559 1708.7 728.83V765.646H1693.95L1691.82 757.032C1690.96 758.527 1689.94 759.903 1688.76 761.162C1687.58 762.342 1686.2 763.404 1684.63 764.348C1683.05 765.213 1681.32 765.882 1679.43 766.354C1677.55 766.826 1675.46 767.062 1673.18 767.062ZM1677.55 753.61C1679.43 753.61 1681.09 753.295 1682.5 752.666C1683.92 752.037 1685.14 751.171 1686.16 750.07C1687.18 748.969 1688.01 747.71 1688.64 746.294C1689.35 744.799 1689.86 743.187 1690.17 741.456V741.338H1678.73C1676.76 741.338 1675.11 741.613 1673.77 742.164C1672.51 742.636 1671.57 743.344 1670.94 744.288C1670.31 745.232 1669.99 746.333 1669.99 747.592C1669.99 748.929 1670.31 750.07 1670.94 751.014C1671.65 751.879 1672.55 752.548 1673.65 753.02C1674.83 753.413 1676.13 753.61 1677.55 753.61ZM1722.35 765.646V701.926C1722.35 696.734 1723.25 692.604 1725.06 689.536C1726.87 686.389 1729.39 684.147 1732.61 682.81C1735.92 681.394 1739.69 680.686 1743.94 680.686H1751.49V695.672H1746.77C1744.33 695.672 1742.6 696.144 1741.58 697.088C1740.56 698.032 1740.05 699.645 1740.05 701.926V765.646H1722.35ZM1714.56 720.924V706.174H1752.32V720.924H1714.56ZM1788.88 765.646C1784.64 765.646 1780.86 764.977 1777.56 763.64C1774.25 762.224 1771.69 759.943 1769.89 756.796C1768.08 753.649 1767.17 749.362 1767.17 743.934V720.924H1757.02V706.174H1767.17L1769.06 689.418H1784.87V706.174H1800.09V720.924H1784.87V744.17C1784.87 746.53 1785.38 748.221 1786.41 749.244C1787.51 750.188 1789.36 750.66 1791.95 750.66H1800.09V765.646H1788.88Z" fill="#FAFAFA"/>
<path d="M123.304 718.858C117.404 718.858 112.055 717.875 107.256 715.908C102.536 713.863 98.7997 710.873 96.0464 706.94C93.293 703.007 91.7984 698.169 91.5624 692.426H110.442C110.521 694.707 111.111 696.713 112.212 698.444C113.314 700.175 114.808 701.551 116.696 702.574C118.584 703.518 120.787 703.99 123.304 703.99C125.428 703.99 127.277 703.675 128.85 703.046C130.502 702.338 131.8 701.355 132.744 700.096C133.688 698.759 134.16 697.107 134.16 695.14C134.16 693.095 133.61 691.364 132.508 689.948C131.407 688.453 129.912 687.195 128.024 686.172C126.136 685.071 123.934 684.087 121.416 683.222C118.978 682.278 116.342 681.373 113.51 680.508C106.981 678.384 101.946 675.513 98.4064 671.894C94.945 668.275 93.2144 663.437 93.2144 657.38C93.2144 652.345 94.4337 648.058 96.8724 644.518C99.3897 640.899 102.812 638.146 107.138 636.258C111.465 634.37 116.382 633.426 121.888 633.426C127.552 633.426 132.508 634.409 136.756 636.376C141.083 638.264 144.505 641.057 147.022 644.754C149.618 648.373 150.995 652.699 151.152 657.734H132.154C132.076 656.003 131.564 654.43 130.62 653.014C129.755 651.598 128.536 650.457 126.962 649.592C125.468 648.727 123.698 648.294 121.652 648.294C119.843 648.215 118.191 648.491 116.696 649.12C115.202 649.671 114.022 650.575 113.156 651.834C112.291 653.014 111.858 654.509 111.858 656.318C111.858 658.049 112.291 659.583 113.156 660.92C114.1 662.179 115.359 663.28 116.932 664.224C118.584 665.089 120.472 665.915 122.596 666.702C124.799 667.489 127.198 668.275 129.794 669.062C133.964 670.478 137.779 672.169 141.24 674.136C144.78 676.024 147.612 678.541 149.736 681.688C151.939 684.756 153.04 688.847 153.04 693.96C153.04 698.444 151.86 702.574 149.5 706.35C147.219 710.126 143.876 713.155 139.47 715.436C135.144 717.717 129.755 718.858 123.304 718.858ZM162.637 717.442V632.482H180.337V666.466C182.225 663.477 184.782 661.077 188.007 659.268C191.232 657.459 195.008 656.554 199.335 656.554C204.37 656.554 208.578 657.616 211.961 659.74C215.344 661.864 217.9 664.971 219.631 669.062C221.362 673.074 222.227 677.951 222.227 683.694V717.442H204.645V685.346C204.645 680.941 203.701 677.519 201.813 675.08C200.004 672.641 197.093 671.422 193.081 671.422C190.721 671.422 188.558 672.012 186.591 673.192C184.624 674.372 183.09 676.063 181.989 678.266C180.888 680.39 180.337 682.947 180.337 685.936V717.442H162.637ZM233.659 717.442V657.97H251.359V717.442H233.659ZM242.509 651.126C239.363 651.126 236.806 650.221 234.839 648.412C232.873 646.603 231.889 644.321 231.889 641.568C231.889 638.736 232.873 636.415 234.839 634.606C236.806 632.797 239.363 631.892 242.509 631.892C245.735 631.892 248.331 632.797 250.297 634.606C252.343 636.415 253.365 638.736 253.365 641.568C253.365 644.321 252.343 646.603 250.297 648.412C248.331 650.221 245.735 651.126 242.509 651.126ZM263.416 743.402V657.97H279.11L281.116 665.758C282.375 664.106 283.83 662.572 285.482 661.156C287.134 659.74 289.101 658.639 291.382 657.852C293.742 656.987 296.496 656.554 299.642 656.554C305.149 656.554 309.987 657.931 314.156 660.684C318.404 663.437 321.787 667.174 324.304 671.894C326.822 676.535 328.08 681.845 328.08 687.824C328.08 693.803 326.782 699.152 324.186 703.872C321.669 708.513 318.286 712.171 314.038 714.846C309.79 717.521 305.031 718.858 299.76 718.858C295.512 718.858 291.854 718.111 288.786 716.616C285.718 715.121 283.162 713.037 281.116 710.362V743.402H263.416ZM295.276 703.4C298.108 703.4 300.626 702.771 302.828 701.512C305.11 700.175 306.88 698.326 308.138 695.966C309.397 693.606 310.026 690.892 310.026 687.824C310.026 684.756 309.397 682.042 308.138 679.682C306.88 677.322 305.11 675.473 302.828 674.136C300.626 672.72 298.108 672.012 295.276 672.012C292.366 672.012 289.77 672.72 287.488 674.136C285.286 675.473 283.555 677.322 282.296 679.682C281.038 682.042 280.408 684.717 280.408 687.706C280.408 690.774 281.038 693.527 282.296 695.966C283.555 698.326 285.286 700.175 287.488 701.512C289.77 702.771 292.366 703.4 295.276 703.4Z" fill="#FAFAFA"/>
<path d="M382.839 640.607C383.343 643.211 385.079 644.947 387.823 644.947C389.951 644.947 391.519 643.939 391.491 642.063C391.491 640.187 389.867 639.067 386.423 638.115C382.251 637.023 380.431 635.259 380.431 632.487C380.431 629.043 383.119 626.887 386.787 626.887C390.763 626.887 393.563 629.547 393.983 633.271L391.127 633.439C390.819 631.059 389.055 629.491 386.731 629.491C384.799 629.491 383.231 630.667 383.259 632.515C383.287 634.699 385.667 635.343 388.075 635.987C391.519 636.939 394.319 638.815 394.319 641.839C394.319 645.563 391.099 647.551 387.655 647.551C383.483 647.551 380.319 644.891 380.011 640.803L382.839 640.607ZM401.476 628.455H404.136V632.375H409.96V634.727H404.136V642.847C404.136 644.107 404.808 644.863 406.068 644.863H409.932V647.215H405.9C402.792 647.215 401.476 645.563 401.476 642.959V634.727H397.248V632.375H401.476V628.455ZM414.345 636.799C414.905 633.915 417.369 632.039 420.505 632.039C424.117 632.039 426.469 634.139 426.469 638.255V643.883C426.469 644.555 426.749 644.863 427.393 644.863H428.009V647.215H427.253C425.461 647.215 424.397 646.263 424.145 644.919C423.557 646.319 421.821 647.551 419.497 647.551C416.501 647.551 414.093 645.983 414.093 643.323C414.093 640.271 416.389 639.375 419.777 638.759L423.809 637.947C423.753 635.651 422.465 634.531 420.477 634.531C418.769 634.531 417.509 635.539 417.173 636.995L414.345 636.799ZM416.921 643.267C416.921 644.331 417.845 645.227 419.833 645.227C422.101 645.199 423.837 643.631 423.837 640.943V640.271L420.645 640.831C418.545 641.195 416.893 641.391 416.921 643.267ZM437.266 632.375L437.462 635.175C437.994 633.271 439.198 632.375 441.158 632.375H444.182V634.727H441.242C439.03 634.727 438.022 635.987 438.022 638.451V644.863H442.754V647.215H431.526V644.863H435.334V634.727H431.526V632.375H437.266ZM451.843 628.455H454.503V632.375H460.327V634.727H454.503V642.847C454.503 644.107 455.175 644.863 456.435 644.863H460.299V647.215H456.267C453.159 647.215 451.843 645.563 451.843 642.959V634.727H447.615V632.375H451.843V628.455ZM491.218 637.023C490.91 635.427 489.454 634.531 487.69 634.531C486.234 634.531 484.89 635.231 484.946 636.631C484.946 638.087 486.71 638.451 488.418 638.899C491.274 639.599 494.074 640.635 494.074 643.379C494.074 646.291 491.274 647.551 488.194 647.551C484.722 647.551 481.894 645.591 481.698 642.511L484.498 642.343C484.75 644.023 486.262 645.059 488.194 645.059C489.706 645.059 491.246 644.667 491.246 643.239C491.246 641.783 489.342 641.503 487.69 641.111C484.862 640.439 482.146 639.375 482.146 636.715C482.118 633.747 484.806 632.039 487.942 632.039C491.05 632.039 493.486 633.915 493.962 636.855L491.218 637.023ZM497.451 632.375H499.859L499.943 634.419C500.503 632.879 501.511 632.039 502.967 632.039C504.283 632.039 505.095 632.879 505.543 634.755C506.075 633.075 507.223 632.039 508.735 632.039C511.003 632.039 512.039 633.971 512.039 638.143V647.215H509.379V638.143C509.379 635.371 508.987 634.307 507.923 634.307C506.747 634.307 506.075 635.651 506.075 638.143V647.215H503.415V638.143C503.415 635.399 502.995 634.307 501.819 634.307C500.755 634.307 500.139 635.651 500.139 638.143V647.215H497.451V632.375ZM515.08 636.799C515.64 633.915 518.104 632.039 521.24 632.039C524.852 632.039 527.204 634.139 527.204 638.255V643.883C527.204 644.555 527.484 644.863 528.128 644.863H528.744V647.215H527.988C526.196 647.215 525.132 646.263 524.88 644.919C524.292 646.319 522.556 647.551 520.232 647.551C517.236 647.551 514.828 645.983 514.828 643.323C514.828 640.271 517.124 639.375 520.512 638.759L524.544 637.947C524.488 635.651 523.2 634.531 521.212 634.531C519.504 634.531 518.244 635.539 517.908 636.995L515.08 636.799ZM517.656 643.267C517.656 644.331 518.58 645.227 520.568 645.227C522.836 645.199 524.572 643.631 524.572 640.943V640.271L521.38 640.831C519.28 641.195 517.628 641.391 517.656 643.267ZM532.121 644.863H537.749V631.395C537.749 630.219 537.245 629.687 536.125 629.687H532.625V627.335H536.125C538.897 627.335 540.409 628.763 540.409 631.395V644.863H545.477V647.215H532.121V644.863ZM548.91 644.863H554.538V631.395C554.538 630.219 554.034 629.687 552.914 629.687H549.414V627.335H552.914C555.686 627.335 557.198 628.763 557.198 631.395V644.863H562.266V647.215H548.91V644.863Z" fill="#FAFAFA"/>
<path d="M1276.85 647.427H1275.06L1274.72 644.711C1273.82 646.643 1271.95 647.875 1269.82 647.875C1265.17 647.875 1262.2 643.843 1262.2 637.515C1262.2 631.159 1265.17 627.099 1269.82 627.099C1273.29 627.099 1276.01 629.647 1276.9 633.511L1274.02 633.707C1273.43 631.327 1271.81 629.703 1269.85 629.703C1266.8 629.703 1265.09 632.559 1265.09 637.515C1265.09 642.443 1266.8 645.271 1269.85 645.271C1272.31 645.271 1274.02 642.919 1274.22 639.839H1269.79V637.319H1276.85V647.427ZM1286.19 632.587L1286.38 635.387C1286.92 633.483 1288.12 632.587 1290.08 632.587H1293.1V634.939H1290.16C1287.95 634.939 1286.94 636.199 1286.94 638.663V645.075H1291.68V647.427H1280.45V645.075H1284.26V634.939H1280.45V632.587H1286.19ZM1303.23 647.763C1299.11 647.763 1296.37 644.683 1296.37 640.007C1296.37 635.331 1299.11 632.251 1303.23 632.251C1307.35 632.251 1310.09 635.331 1310.09 640.007C1310.09 644.683 1307.35 647.763 1303.23 647.763ZM1299.17 640.007C1299.17 643.283 1300.65 645.271 1303.23 645.271C1305.81 645.271 1307.29 643.283 1307.29 640.007C1307.29 636.731 1305.81 634.743 1303.23 634.743C1300.65 634.743 1299.17 636.731 1299.17 640.007ZM1321.33 634.547L1323.29 643.535L1325.17 632.587H1327.94L1324.97 647.427H1321.95L1320.02 638.691L1318.09 647.427H1315.06L1312.09 632.587H1314.87L1316.74 643.535L1318.7 634.547H1321.33ZM1353.6 647.763C1349.48 647.763 1346.74 644.683 1346.74 640.007C1346.74 635.331 1349.48 632.251 1353.6 632.251C1357.71 632.251 1360.46 635.331 1360.46 640.007C1360.46 644.683 1357.71 647.763 1353.6 647.763ZM1349.54 640.007C1349.54 643.283 1351.02 645.271 1353.6 645.271C1356.17 645.271 1357.66 643.283 1357.66 640.007C1357.66 636.731 1356.17 634.743 1353.6 634.743C1351.02 634.743 1349.54 636.731 1349.54 640.007ZM1377.41 632.587L1372.04 647.427H1368.73L1363.36 632.587H1366.21L1370.39 644.571L1374.53 632.587H1377.41ZM1380.51 640.007C1380.51 635.303 1383.23 632.251 1387.4 632.251C1390.76 632.251 1393.75 634.463 1393.98 639.755V640.763H1383.39C1383.59 643.619 1385.02 645.271 1387.4 645.271C1388.91 645.271 1390.25 644.403 1390.9 642.891L1393.75 643.143C1392.89 645.971 1390.37 647.763 1387.4 647.763C1383.23 647.763 1380.51 644.711 1380.51 640.007ZM1383.42 638.607H1391.07C1390.67 635.779 1389.13 634.743 1387.4 634.743C1385.21 634.743 1383.81 636.171 1383.42 638.607ZM1403.71 632.587L1403.91 635.387C1404.44 633.483 1405.64 632.587 1407.6 632.587H1410.63V634.939H1407.69C1405.48 634.939 1404.47 636.199 1404.47 638.663V645.075H1409.2V647.427H1397.97V645.075H1401.78V634.939H1397.97V632.587H1403.71ZM1435.08 628.667H1437.74V632.587H1443.56V634.939H1437.74V643.059C1437.74 644.319 1438.41 645.075 1439.67 645.075H1443.53V647.427H1439.5C1436.39 647.427 1435.08 645.775 1435.08 643.171V634.939H1430.85V632.587H1435.08V628.667ZM1456.65 632.587V645.075H1461.61V647.427H1448.2V645.075H1453.97V634.939H1448.73V632.587H1456.65ZM1453.71 630.459V627.547H1456.65V630.459H1453.71ZM1463.9 632.587H1466.3L1466.39 634.631C1466.95 633.091 1467.96 632.251 1469.41 632.251C1470.73 632.251 1471.54 633.091 1471.99 634.967C1472.52 633.287 1473.67 632.251 1475.18 632.251C1477.45 632.251 1478.48 634.183 1478.48 638.355V647.427H1475.82V638.355C1475.82 635.583 1475.43 634.519 1474.37 634.519C1473.19 634.519 1472.52 635.863 1472.52 638.355V647.427H1469.86V638.355C1469.86 635.611 1469.44 634.519 1468.26 634.519C1467.2 634.519 1466.58 635.863 1466.58 638.355V647.427H1463.9V632.587ZM1481.25 640.007C1481.25 635.303 1483.96 632.251 1488.13 632.251C1491.49 632.251 1494.49 634.463 1494.71 639.755V640.763H1484.13C1484.33 643.619 1485.75 645.271 1488.13 645.271C1489.65 645.271 1490.99 644.403 1491.63 642.891L1494.49 643.143C1493.62 645.971 1491.1 647.763 1488.13 647.763C1483.96 647.763 1481.25 644.711 1481.25 640.007ZM1484.16 638.607H1491.8C1491.41 635.779 1489.87 634.743 1488.13 634.743C1485.95 634.743 1484.55 636.171 1484.16 638.607Z" fill="#FAFAFA"/>
<path d="M799.099 647.427H797.307L796.971 644.711C796.075 646.643 794.199 647.875 792.071 647.875C787.423 647.875 784.455 643.843 784.455 637.515C784.455 631.159 787.423 627.099 792.071 627.099C795.543 627.099 798.259 629.647 799.155 633.511L796.271 633.707C795.683 631.327 794.059 629.703 792.099 629.703C789.047 629.703 787.339 632.559 787.339 637.515C787.339 642.443 789.047 645.271 792.099 645.271C794.563 645.271 796.271 642.919 796.467 639.839H792.043V637.319H799.099V647.427ZM802.028 640.007C802.028 635.303 804.744 632.251 808.916 632.251C812.276 632.251 815.272 634.463 815.496 639.755V640.763H804.912C805.108 643.619 806.536 645.271 808.916 645.271C810.428 645.271 811.772 644.403 812.416 642.891L815.272 643.143C814.404 645.971 811.884 647.763 808.916 647.763C804.744 647.763 802.028 644.711 802.028 640.007ZM804.94 638.607H812.584C812.192 635.779 810.652 634.743 808.916 634.743C806.732 634.743 805.332 636.171 804.94 638.607ZM823.017 628.667H825.677V632.587H831.501V634.939H825.677V643.059C825.677 644.319 826.349 645.075 827.609 645.075H831.473V647.427H827.441C824.333 647.427 823.017 645.775 823.017 643.171V634.939H818.789V632.587H823.017V628.667ZM856.595 628.667H859.255V632.587H865.079V634.939H859.255V643.059C859.255 644.319 859.927 645.075 861.187 645.075H865.051V647.427H861.019C857.911 647.427 856.595 645.775 856.595 643.171V634.939H852.367V632.587H856.595V628.667ZM875.848 647.763C871.732 647.763 868.988 644.683 868.988 640.007C868.988 635.331 871.732 632.251 875.848 632.251C879.964 632.251 882.708 635.331 882.708 640.007C882.708 644.683 879.964 647.763 875.848 647.763ZM871.788 640.007C871.788 643.283 873.272 645.271 875.848 645.271C878.424 645.271 879.908 643.283 879.908 640.007C879.908 636.731 878.424 634.743 875.848 634.743C873.272 634.743 871.788 636.731 871.788 640.007ZM916.454 632.587L911.078 647.427H907.774L902.398 632.587H905.254L909.426 644.571L913.57 632.587H916.454ZM919.831 637.011C920.391 634.127 922.855 632.251 925.991 632.251C929.603 632.251 931.955 634.351 931.955 638.467V644.095C931.955 644.767 932.235 645.075 932.879 645.075H933.495V647.427H932.739C930.947 647.427 929.883 646.475 929.631 645.131C929.043 646.531 927.307 647.763 924.983 647.763C921.987 647.763 919.579 646.195 919.579 643.535C919.579 640.483 921.875 639.587 925.263 638.971L929.295 638.159C929.239 635.863 927.951 634.743 925.963 634.743C924.255 634.743 922.995 635.751 922.659 637.207L919.831 637.011ZM922.407 643.479C922.407 644.543 923.331 645.439 925.319 645.439C927.587 645.411 929.323 643.843 929.323 641.155V640.483L926.131 641.043C924.031 641.407 922.379 641.603 922.407 643.479ZM936.872 645.075H942.5V631.607C942.5 630.431 941.996 629.899 940.876 629.899H937.376V627.547H940.876C943.648 627.547 945.16 628.975 945.16 631.607V645.075H950.228V647.427H936.872V645.075ZM965.561 647.427H963.041L963.013 644.991C962.229 646.867 960.605 647.763 958.673 647.763C955.425 647.763 953.829 645.327 953.829 642.135V632.587H956.517V641.435C956.517 644.095 957.385 645.495 959.373 645.495C961.501 645.495 962.901 644.095 962.901 641.435V632.587H965.561V647.427ZM969.918 640.007C969.918 635.303 972.634 632.251 976.806 632.251C980.166 632.251 983.162 634.463 983.386 639.755V640.763H972.802C972.998 643.619 974.426 645.271 976.806 645.271C978.318 645.271 979.662 644.403 980.306 642.891L983.162 643.143C982.294 645.971 979.774 647.763 976.806 647.763C972.634 647.763 969.918 644.711 969.918 640.007ZM972.83 638.607H980.474C980.082 635.779 978.542 634.743 976.806 634.743C974.622 634.743 973.222 636.171 972.83 638.607ZM1007.58 631.915C1007.58 629.171 1008.96 627.547 1011.95 627.547H1016.04V629.899H1011.9C1010.92 629.899 1010.27 630.627 1010.27 631.859V633.539H1015.84V635.891H1010.27V647.427H1007.58V635.891H1003.66V633.539H1007.58V631.915ZM1020.57 637.011C1021.13 634.127 1023.59 632.251 1026.73 632.251C1030.34 632.251 1032.69 634.351 1032.69 638.467V644.095C1032.69 644.767 1032.97 645.075 1033.61 645.075H1034.23V647.427H1033.47C1031.68 647.427 1030.62 646.475 1030.37 645.131C1029.78 646.531 1028.04 647.763 1025.72 647.763C1022.72 647.763 1020.31 646.195 1020.31 643.535C1020.31 640.483 1022.61 639.587 1026 638.971L1030.03 638.159C1029.97 635.863 1028.69 634.743 1026.7 634.743C1024.99 634.743 1023.73 635.751 1023.39 637.207L1020.57 637.011ZM1023.14 643.479C1023.14 644.543 1024.07 645.439 1026.05 645.439C1028.32 645.411 1030.06 643.843 1030.06 641.155V640.483L1026.87 641.043C1024.77 641.407 1023.11 641.603 1023.14 643.479ZM1047.07 637.235C1046.76 635.639 1045.31 634.743 1043.54 634.743C1042.09 634.743 1040.74 635.443 1040.8 636.843C1040.8 638.299 1042.56 638.663 1044.27 639.111C1047.13 639.811 1049.93 640.847 1049.93 643.591C1049.93 646.503 1047.13 647.763 1044.05 647.763C1040.57 647.763 1037.75 645.803 1037.55 642.723L1040.35 642.555C1040.6 644.235 1042.11 645.271 1044.05 645.271C1045.56 645.271 1047.1 644.879 1047.1 643.451C1047.1 641.995 1045.19 641.715 1043.54 641.323C1040.71 640.651 1038 639.587 1038 636.927C1037.97 633.959 1040.66 632.251 1043.79 632.251C1046.9 632.251 1049.34 634.127 1049.81 637.067L1047.07 637.235ZM1058.06 628.667H1060.72V632.587H1066.55V634.939H1060.72V643.059C1060.72 644.319 1061.4 645.075 1062.66 645.075H1066.52V647.427H1062.49C1059.38 647.427 1058.06 645.775 1058.06 643.171V634.939H1053.84V632.587H1058.06V628.667Z" fill="#FAFAFA"/>
<path d="M384.9 570.04L405.903 576.087C405.903 576.087 476.105 576.775 514.54 576.448C522.708 576.38 529.423 576.265 533.757 576.087C540.877 575.797 553.903 570.04 553.903 570.04" stroke="#FAFAFA" stroke-width="6" stroke-linecap="round" stroke-linejoin="round"/>
<path d="M413.649 587.802C416.29 587.802 418.404 589.928 418.404 592.514C418.404 595.101 416.29 597.225 413.649 597.225C411.008 597.225 408.895 595.101 408.895 592.514C408.895 589.928 411.008 587.802 413.649 587.802ZM522.282 587.802C524.923 587.802 527.037 589.928 527.037 592.514C527.036 595.101 524.923 597.225 522.282 597.225C519.641 597.225 517.528 595.101 517.528 592.514C517.528 589.928 519.641 587.802 522.282 587.802Z" stroke="#FAFAFA" stroke-width="6"/>
<path d="M915.265 573.683L963.184 525.756H895.298L863.353 573.675L915.265 573.683ZM915.265 573.683L882.816 496.31M983.15 573.675L975.587 571.12L958.392 507.483C958.304 507.14 958.256 506.796 958.256 506.445C958.256 504.249 960.053 502.452 962.249 502.452C962.401 502.452 962.561 502.46 962.713 502.476L982.032 504.728C985.945 505.295 988.884 508.681 988.884 512.634C988.884 517.019 985.275 520.629 980.89 520.629C980.515 520.629 980.131 520.605 979.756 520.549M875.333 493.81L899.292 501.797M831.407 573.675C831.407 591.198 845.83 605.621 863.353 605.621C880.875 605.621 895.299 591.198 895.299 573.675C895.299 556.153 880.875 541.729 863.353 541.729C845.83 541.729 831.407 556.153 831.407 573.675ZM951.204 573.675C951.204 591.198 965.628 605.621 983.15 605.621C1000.67 605.621 1015.1 591.198 1015.1 573.675C1015.1 556.153 1000.67 541.729 983.15 541.729C965.628 541.729 951.204 556.153 951.204 573.675Z" stroke="#FAFAFA" stroke-width="6" stroke-linecap="round" stroke-linejoin="round"/>
<path d="M1345.65 588.693H1421.77M1452.61 588.694H1455.01C1469.68 588.694 1481.75 576.684 1481.75 562.085C1481.75 547.486 1469.68 535.476 1455.01 535.476H1405.99M1405.99 535.476C1397.06 542.182 1385.94 545.339 1374.79 544.346C1352.51 544.346 1348.06 535.476 1348.06 535.476V522.349C1348.05 521.108 1347.53 519.928 1346.63 519.068C1345.82 518.278 1344.74 517.799 1343.6 517.737C1330.86 517.986 1319.09 524.682 1312.4 535.476C1292.85 535.476 1276.75 551.495 1276.75 570.955C1276.75 580.685 1284.8 588.694 1294.58 588.694H1314.81M1405.99 535.476L1383.71 508.867M1477.29 553.215H1463.93M1405.99 562.085H1383.71M1281.56 553.215H1303.49M1419.36 579.824C1419.36 589.554 1427.41 597.563 1437.19 597.563C1446.96 597.563 1455.01 589.554 1455.01 579.824C1455.01 570.094 1446.96 562.085 1437.19 562.085C1427.41 562.085 1419.36 570.094 1419.36 579.824ZM1312.4 579.824C1312.4 589.554 1320.45 597.563 1330.23 597.563C1340.01 597.563 1348.06 589.554 1348.06 579.824C1348.06 570.094 1340.01 562.085 1330.23 562.085C1320.45 562.085 1312.4 570.094 1312.4 579.824Z" stroke="#FAFAFA" stroke-width="6" stroke-linecap="round" stroke-linejoin="round"/>
<path d="M618.332 570.569C623.167 570.569 627.086 566.65 627.086 561.815C627.086 556.981 623.167 553.062 618.332 553.062C613.498 553.062 609.579 556.981 609.579 561.815C609.579 566.65 613.498 570.569 618.332 570.569Z" stroke="#808080" stroke-width="4.38094" stroke-miterlimit="10"/>
<path d="M764 551.966L773.848 561.814L764 571.662" stroke="#808080" stroke-width="4.38094" stroke-miterlimit="10"/>
<path d="M627.086 561.815L765.075 561.815" stroke="#808080" stroke-width="4" stroke-dasharray="10 10"/>
<path d="M1072.07 570.569C1076.9 570.569 1080.82 566.65 1080.82 561.815C1080.82 556.98 1076.9 553.061 1072.07 553.061C1067.23 553.061 1063.31 556.98 1063.31 561.815C1063.31 566.65 1067.23 570.569 1072.07 570.569Z" stroke="#808080" stroke-width="4.38094" stroke-miterlimit="10"/>
<path d="M1217.73 551.966L1227.58 561.814L1217.73 571.662" stroke="#808080" stroke-width="4.38094" stroke-miterlimit="10"/>
<path d="M1080.82 561.815L1218.81 561.815" stroke="#808080" stroke-width="4" stroke-dasharray="10 10"/>
<path opacity="0.9" d="M481.119 341.947C460.838 341.985 440.558 342.066 420.278 342.155C357.89 342.212 296.692 367.142 251.146 409.653C222.163 437.171 199.933 471.995 187.357 509.918C181.017 528.885 177.011 548.557 175.333 568.418C174.912 573.411 174.628 578.356 174.506 583.345C174.471 584.631 174.446 585.92 174.43 587.211C174.416 588.422 174.41 589.633 174.413 590.844C174.412 591.466 174.413 592.088 174.417 592.71C174.414 593.011 174.411 593.311 174.409 593.612C174.41 593.646 174.411 593.681 174.412 593.716C174.4 593.86 174.389 594.004 174.378 594.147C174.261 595.32 174.138 596.495 173.993 597.673C173.948 599.462 173.299 600.688 172.144 601.417C170.829 601.581 169.514 601.746 168.199 601.913C166.271 602.169 164.36 602.504 162.44 601.577C160.271 603.643 157.974 601.613 155.734 601.612C155.377 601.55 155.02 601.489 154.664 601.427C150.39 600.853 146.103 600.242 141.894 599.614C141.189 599.529 140.542 599.487 140.282 598.192C139.358 597.804 138.042 599.455 137.558 596.765C137.191 596.048 136.96 595.299 136.821 594.525C136.716 592.13 136.648 589.685 136.62 587.211C136.572 582.988 136.643 578.699 136.831 574.444C137.416 560.801 139.149 547.025 141.587 533.722C150.207 489.074 169.172 445.402 198.388 410.754C204.805 402.694 211.662 394.981 218.914 387.663C263.318 342.427 323.433 312.69 386.589 305.253C394.054 304.355 401.634 304.12 409.149 304.024C412.842 303.873 416.552 303.793 420.278 303.785C478.695 303.644 537.113 303.503 595.53 303.362C611.576 301.796 629.605 303.84 646.135 303.183C646.128 303.183 646.12 303.183 646.113 303.183C653.034 302.392 661.629 302.333 671.767 302.781C671.988 302.796 672.187 302.81 672.364 302.81C674.633 303.676 676.021 304.915 675.911 306.765C675.845 307.764 675.668 308.749 675.536 309.749C676.087 315.403 676.088 321.028 674.479 326.608C674.479 326.822 674.479 327.037 674.479 327.251C674.618 330.374 674.758 333.497 674.897 336.62C674.897 337.366 675.007 338.157 674.699 338.783C674.545 339.097 674.302 339.365 673.883 339.589C673.685 339.708 673.421 339.799 673.134 339.873C672.98 339.918 672.826 339.947 672.65 339.977C672.562 339.992 672.473 340.007 672.385 340.022C671.68 340.037 670.973 340.051 670.224 340.051C628.48 342.11 581.269 341.515 535.888 341.798C520.468 341.848 505.047 341.897 489.627 341.947C486.791 341.947 483.955 341.947 481.119 341.947ZM177.217 441.634C177.213 441.64 177.209 441.647 177.205 441.654C177.198 441.667 177.191 441.681 177.183 441.694C177.195 441.674 177.205 441.654 177.217 441.634ZM150.304 502.597C146.327 513.201 143.707 525.514 141.845 537.603C140.497 543.968 139.948 548.591 139.703 552.332C139.951 548.596 140.51 543.985 141.88 537.659C143.721 525.525 146.33 513.202 150.304 502.597ZM171.253 452.726C171.31 452.611 171.368 452.496 171.426 452.381C171.365 452.502 171.303 452.624 171.242 452.746C170.549 455.448 169.898 458.154 169.29 460.863C169.902 458.148 170.556 455.435 171.253 452.726ZM554.558 306.124C561.646 305.834 566.407 305.32 571.247 304.811C566.407 305.316 561.646 305.822 554.558 306.124ZM475.079 310.643C469.99 308.674 483.761 306.137 448.542 305.048C445.876 305.093 443.341 305.139 440.807 305.184C443.342 305.144 445.876 305.104 448.411 305.064C483.74 306.138 469.99 308.674 475.058 310.643C475.065 310.643 475.072 310.643 475.079 310.643ZM614.529 306.6C599.429 306.639 583.248 306.268 567.7 306.144C583.248 306.27 599.429 306.652 614.529 306.6ZM201.977 412.333C201.523 412.923 201.196 413.406 200.916 413.807C201.182 413.424 201.535 412.932 201.977 412.333ZM585.563 310.072C577.572 308.867 565.278 308.409 551.471 308.227C565.809 308.429 578.515 308.906 586.464 310.215C586.164 310.167 585.863 310.12 585.563 310.072ZM632.712 309.421C639.633 309.436 643.821 308.63 647.392 308.302C643.821 308.615 639.633 309.421 632.712 309.421ZM635.151 310.818C630.11 310.484 626.73 310.036 627.687 309.287C626.551 310.161 631.352 310.625 637.796 310.977C636.915 310.924 636.033 310.871 635.151 310.818ZM143.131 594.387C143.145 594.364 143.144 594.298 143.138 594.067C143.129 594.295 143.131 594.364 143.131 594.387ZM145.074 583.856C145.074 583.865 145.074 583.873 145.074 583.881C145.664 580.649 146.311 577.449 147.011 574.281C146.311 577.44 145.665 580.632 145.074 583.856ZM320.131 332.368C320.034 332.049 319.955 331.701 321.017 330.977C319.951 331.691 320.033 332.045 320.131 332.368ZM613.692 313.527C623.829 312.399 634.749 313.158 645.506 313.508C646.366 313.533 647.225 313.557 648.085 313.582C636.502 313.287 624.64 312.298 613.692 313.527ZM664.494 314.33C662.18 314.173 660.338 313.982 659.352 313.697C660.338 313.985 662.18 314.186 664.494 314.33ZM608.645 316.075C610.386 315.986 611.973 315.895 613.339 315.791C611.951 315.895 610.364 315.986 608.645 316.075ZM304.848 341.705C305.529 341.351 306.104 341.034 306.591 340.743C306.077 341.03 305.502 341.347 304.848 341.705ZM528.824 317.662C526.766 317.652 524.506 317.531 522.703 317.267C524.505 317.531 526.762 317.652 528.824 317.662ZM303.042 350.516C299.905 351.465 292.649 354.88 285.066 359.354C285.072 359.35 285.078 359.346 285.084 359.343C279.741 360.409 285.771 355.996 295.344 350.825C285.752 356.007 279.723 360.42 285.066 359.354C292.656 354.893 299.912 351.479 303.042 350.516ZM556.056 320.461C559.234 320.499 562.75 320.451 566.781 320.288C562.762 320.448 559.232 320.486 556.056 320.461ZM451.011 320.834C451.694 320.819 452.378 320.819 453.105 320.819C452.378 320.819 451.672 320.819 451.011 320.834ZM221.087 413.629C221.052 413.607 221.064 413.529 221.143 413.375C221.06 413.533 221.048 413.611 221.087 413.629ZM271.75 373.593C273.575 371.776 275.442 369.96 277.346 368.18C275.444 369.963 273.573 371.772 271.733 373.606C271.747 373.596 271.749 373.594 271.75 373.593ZM162.384 563.704C161.878 568.598 161.226 574.584 160.89 580.087C161.226 574.584 161.893 568.599 162.384 563.704ZM162.414 591.662C162.392 592.092 162.386 592.544 162.381 592.995C162.385 592.995 162.39 592.995 162.395 592.995C162.389 593.425 162.39 594.026 162.372 593.919C162.39 594.047 162.39 593.446 162.395 592.995C162.4 592.543 162.407 592.092 162.414 591.662ZM166.701 549.468C166.925 545.239 167.658 539.268 167.228 539.205C167.655 539.287 166.922 545.26 166.701 549.468C166.655 550.084 166.629 550.682 166.617 551.196C166.647 550.663 166.67 550.086 166.701 549.468ZM355.815 340.419C356.407 340.055 356.681 339.765 356.696 339.529C356.708 339.403 356.637 339.298 356.525 339.203C356.518 339.205 356.512 339.206 356.505 339.208C356.617 339.303 356.688 339.408 356.676 339.534C356.662 339.771 356.394 340.06 355.815 340.419ZM315.119 357.7C315.233 357.247 318.078 355.378 327.987 351.287C331.163 349.992 334.042 348.871 336.621 347.892C334.036 348.873 331.15 349.996 327.966 351.295C318.073 355.381 315.233 357.247 315.119 357.7ZM197.829 470.716C197.826 470.722 197.822 470.728 197.819 470.734C197.93 470.548 198.04 470.362 198.15 470.178C198.044 470.356 197.937 470.536 197.829 470.716Z" fill="#A998C9"/>
<path opacity="0.9" d="M636.648 328.542C645.916 320.876 655.027 313.021 664.307 305.368C656.775 311.093 657.869 324.017 666.263 328.391C661.019 325.389 655.82 322.305 650.697 319.082C641.841 314.048 632.954 308.982 624.1 303.934C619.68 301.391 615.289 298.818 610.952 296.183C609.865 295.523 608.79 294.853 607.708 294.195C607.169 293.86 606.63 293.525 606.092 293.19C605.959 293.105 605.826 293.019 605.693 292.933C605.63 292.888 605.568 292.843 605.506 292.798C605.499 292.794 605.491 292.789 605.483 292.785C605.458 292.755 605.433 292.725 605.408 292.696C605.216 292.433 605.03 292.158 604.857 291.86C604.515 291.544 604.57 290.834 604.953 289.817C605.519 288.769 606.085 287.722 606.65 286.674C607.477 285.136 608.284 283.602 609.327 282.263C609.93 280.244 611.347 278.793 612.361 277.053C612.534 276.786 612.706 276.518 612.879 276.251C614.918 273.023 616.964 269.782 618.972 266.598C619.305 266.062 619.603 265.567 619.949 265.546C620.433 264.879 620.733 263.63 621.426 263.62C621.719 263.431 621.956 263.349 622.159 263.34C623.454 263.948 624.791 264.641 626.097 265.379C628.72 266.845 631.338 268.448 633.974 269.829C642.624 274.931 651.973 279.01 660.129 284.85C662.109 285.969 664.089 287.088 666.069 288.206C671.886 291.419 677.702 294.631 683.519 297.844C696.169 304.382 697.891 323.957 686.519 332.618C682.863 335.657 679.207 338.696 675.55 341.736C674.279 342.789 672.78 343.596 671.382 344.511C660.132 353.854 648.883 363.197 637.633 372.54C635.585 376.029 631.12 377.295 628.466 380.221C628.467 380.22 628.469 380.219 628.47 380.218C627.652 381.802 626.111 383.127 624 384.328C623.951 384.351 623.906 384.371 623.874 384.397C622.966 384.132 622.007 383.475 620.976 382.168C620.419 381.461 619.892 380.748 619.347 380.031C616.031 376.168 612.832 372.244 609.954 368.112C609.832 367.962 609.71 367.813 609.588 367.663C607.787 365.505 605.986 363.348 604.184 361.19C603.76 360.67 603.29 360.134 602.99 359.651C602.84 359.409 602.732 359.186 602.682 358.967C602.65 358.854 602.647 358.752 602.657 358.657C602.66 358.603 602.672 358.56 602.687 358.513C602.695 358.489 602.702 358.465 602.71 358.442C602.831 358.326 602.952 358.21 603.089 358.099C609.564 350.43 618.55 343.796 626.701 336.823C629.497 334.486 632.293 332.149 635.09 329.812C635.609 329.389 636.129 328.965 636.648 328.542ZM652.835 280.946C652.834 280.945 652.832 280.944 652.831 280.943C652.828 280.942 652.824 280.941 652.821 280.939C652.826 280.942 652.831 280.943 652.835 280.946ZM639.799 274.026C637.893 272.313 635.302 271.297 632.825 270.168C631.676 269.288 630.746 268.836 629.929 268.6C630.744 268.838 631.667 269.298 632.797 270.197C635.293 271.31 637.891 272.315 639.799 274.026ZM650.275 279.823C650.302 279.834 650.328 279.846 650.355 279.856C650.327 279.845 650.299 279.833 650.271 279.821C649.45 280.057 648.629 280.292 647.808 280.528C648.63 280.293 649.453 280.058 650.275 279.823ZM643.567 364.497C642.434 365.757 641.854 366.827 641.257 367.904C641.856 366.829 642.441 365.765 643.567 364.497ZM655.555 349.477C657.607 350.091 656.527 353.917 663.597 349.418C664.06 348.989 664.498 348.579 664.937 348.169C664.495 348.575 664.053 348.981 663.612 349.388C656.53 353.913 657.607 350.091 655.559 349.474C655.557 349.475 655.556 349.476 655.555 349.477ZM632.312 373.118C635.056 370.837 638.231 368.68 641.149 366.445C638.229 368.678 635.048 370.827 632.312 373.118ZM658.646 287.93C658.494 287.86 658.362 287.831 658.253 287.8C658.357 287.828 658.488 287.872 658.646 287.93ZM635.643 366.371C637.792 366.019 640.304 364.503 642.936 362.568C640.196 364.568 637.597 366.133 635.397 366.406C635.479 366.395 635.561 366.383 635.643 366.371ZM627.377 373.865C626.101 374.888 625.792 376.076 625.325 376.838C625.801 376.086 626.11 374.899 627.377 373.865ZM626.136 373.255C627.25 372.735 628.123 372.543 628.374 373.209C628.085 372.429 626.942 372.822 625.561 373.539C625.753 373.444 625.945 373.35 626.136 373.255ZM619.36 268.283C619.359 268.297 619.371 268.305 619.417 268.33C619.378 268.293 619.365 268.286 619.36 268.283ZM620.541 271.032C620.54 271.031 620.538 271.03 620.537 271.029C620.932 271.823 621.327 272.617 621.722 273.411C621.328 272.618 620.935 271.825 620.541 271.032ZM684.031 321.571C684.284 321.72 684.582 321.892 684.341 322.836C684.591 321.896 684.287 321.721 684.031 321.571ZM628.526 368.161C627.311 370.462 624.88 371.563 622.71 372.925C622.539 373.036 622.367 373.147 622.196 373.258C624.485 371.734 627.22 370.653 628.526 368.161ZM618.765 375.186C619.278 374.95 619.724 374.808 620.066 374.86C619.722 374.806 619.27 374.941 618.765 375.186ZM628.002 365.63C627.734 365.952 627.494 366.252 627.304 366.529C627.498 366.249 627.738 365.949 628.002 365.63ZM681.511 310.976C681.767 311.336 681.977 311.65 682.165 311.922C681.984 311.633 681.772 311.318 681.511 310.976ZM641.72 352.605C642.102 352.305 642.585 352.052 643.065 351.967C642.585 352.052 642.103 352.304 641.72 352.605ZM675.338 313.567C675.291 313.382 675.175 313.171 674.98 312.961C674.29 312.249 673.07 311.398 671.7 310.588C671.702 310.589 671.703 310.59 671.705 310.591C671.485 308.524 673.207 309.033 675.453 310.225C673.202 309.031 671.48 308.521 671.7 310.588C673.065 311.407 674.284 312.26 674.976 312.967C675.172 313.175 675.289 313.384 675.338 313.567ZM635.14 354.719C634.536 355.167 633.92 355.725 633.274 356.441C633.919 355.729 634.544 355.175 635.14 354.719ZM654.168 338.775C654.052 338.887 653.926 338.989 653.793 339.098C653.926 338.989 654.056 338.884 654.168 338.775ZM654.045 301.345C654.062 301.312 654.094 301.287 654.147 301.274C654.093 301.286 654.061 301.311 654.045 301.345ZM665.671 312.102C666.4 312.051 667.139 311.991 667.872 311.943C667.137 311.995 666.402 312.047 665.666 312.099C665.67 312.101 665.671 312.101 665.671 312.102ZM617.621 286.208C616.609 285.575 615.478 284.643 614.403 283.835C615.478 284.643 616.602 285.587 617.621 286.208ZM611.272 283.702C611.195 283.627 611.106 283.562 611.018 283.496C611.015 283.5 611.013 283.504 611.011 283.508C610.927 283.445 610.807 283.361 610.836 283.362C610.803 283.359 610.923 283.442 611.011 283.508C611.1 283.573 611.188 283.639 611.272 283.702ZM619.562 290.004C620.624 290.216 622.055 290.65 622.247 290.301C622.051 290.647 620.62 290.213 619.562 290.004C619.411 289.965 619.258 289.939 619.123 289.924C619.256 289.953 619.404 289.976 619.562 290.004ZM665.718 316.159C665.707 316.403 665.765 316.604 665.879 316.772C665.938 316.862 666.015 316.939 666.099 317.009C666.1 317.008 666.101 317.007 666.103 317.006C666.019 316.936 665.942 316.859 665.883 316.769C665.768 316.601 665.71 316.4 665.718 316.159ZM666.624 318.982C666.773 318.849 666.727 318.425 666.671 317.53C666.65 316.65 666.531 315.213 667.563 313.29C668.026 312.466 668.648 311.827 669.23 311.408C669.063 311.568 668.902 311.724 668.749 311.876C668.902 311.725 669.063 311.568 669.23 311.408C668.646 311.829 668.022 312.471 667.559 313.298C666.531 315.219 666.65 316.653 666.671 317.532C666.727 318.425 666.773 318.849 666.624 318.982ZM635.458 304.443C635.457 304.442 635.455 304.442 635.454 304.441C635.496 304.476 635.538 304.511 635.579 304.546C635.539 304.512 635.499 304.478 635.458 304.443Z" fill="#A998C9"/>
<path opacity="0.9" d="M1634.13 458.208C1590.36 387.013 1508.82 342.321 1425.49 342.001C1425.22 341.998 1424.95 341.995 1424.69 341.992C1380.32 341.962 1335.76 341.917 1291.37 341.872C1269.16 341.828 1246.99 341.738 1224.9 341.559C1219.36 341.514 1213.85 341.454 1208.34 341.409C1205.58 341.379 1202.82 341.35 1200.06 341.32C1199.37 341.31 1198.68 341.3 1197.99 341.29C1197.66 341.28 1197.33 341.27 1196.99 341.26C1196.96 341.26 1196.92 341.26 1196.88 341.26C1196.72 341.245 1196.56 341.23 1196.4 341.215C1195.11 341.066 1193.82 340.902 1192.52 340.708C1190.55 340.589 1189.24 339.872 1188.51 338.678C1188.41 337.356 1188.31 336.033 1188.22 334.711C1188.06 332.771 1187.83 330.845 1188.92 328.98C1186.88 326.698 1189.14 324.52 1189.26 322.282C1189.34 321.929 1189.42 321.576 1189.51 321.223C1190.32 316.986 1191.14 312.733 1191.93 308.555C1192.05 307.854 1192.12 307.213 1193.39 307.004C1193.79 306.093 1192.25 304.721 1194.86 304.333C1195.56 303.99 1196.29 303.78 1197.04 303.661C1203.25 303.542 1209.81 303.482 1216.34 303.482C1229.43 303.467 1242.8 303.586 1255.75 303.482C1299.49 303.691 1343.68 302.527 1387.12 303.721C1397.03 303.721 1406.93 303.721 1416.84 303.721C1419.72 303.714 1422.6 303.707 1425.49 303.7C1487.66 303.347 1549.87 324.381 1599.13 362.545C1605.24 367.253 1610.99 372.558 1616.58 377.923C1667.16 423.66 1700.4 488.325 1707.67 556.34C1709.61 566.039 1709.97 576.627 1709.68 587.211C1709.46 595.617 1708.85 603.999 1708.44 612.082C1708.44 612.074 1708.44 612.067 1708.44 612.059C1708.57 619.735 1707.5 629.249 1704.99 640.191C1704.93 640.428 1704.87 640.642 1704.84 640.833C1703.51 643.139 1701.99 644.379 1700.2 643.887C1699.24 643.615 1698.31 643.231 1697.36 642.891C1691.7 642.348 1686.2 641.169 1681.05 638.475C1680.84 638.433 1680.63 638.392 1680.42 638.35C1677.33 637.877 1674.24 637.399 1671.15 636.916C1670.42 636.769 1669.62 636.717 1669.07 636.302C1668.79 636.094 1668.57 635.812 1668.43 635.373C1668.35 635.163 1668.31 634.896 1668.29 634.612C1668.27 634.458 1668.27 634.306 1668.28 634.135C1668.28 634.049 1668.28 633.963 1668.28 633.877C1668.39 633.208 1668.5 632.538 1668.63 631.83C1670.49 617.559 1671.52 602.561 1671.29 587.211C1670.95 559.718 1666.36 531.269 1656.84 505.131C1651.88 491.286 1645.66 477.897 1638.28 465.173C1636.94 462.827 1635.55 460.512 1634.13 458.208ZM1351.1 303.929C1351.09 303.929 1351.08 303.929 1351.07 303.929C1351.06 303.929 1351.04 303.931 1351.03 303.931C1351.05 303.931 1351.07 303.929 1351.1 303.929ZM1286.83 304.359C1275.93 303.743 1263.93 304.177 1252.12 304.438C1245.88 304.214 1241.38 304.285 1237.78 304.503C1241.38 304.289 1245.86 304.229 1252.07 304.481C1263.92 304.194 1275.93 303.747 1286.83 304.359ZM1338.98 304.242C1339.11 304.239 1339.23 304.235 1339.35 304.231C1339.22 304.235 1339.09 304.239 1338.96 304.242C1336.35 304.919 1333.74 305.596 1331.13 306.272C1333.75 305.596 1336.37 304.919 1338.98 304.242ZM1696.58 512.673C1698.9 520.094 1700.53 525.032 1702.12 530.162C1700.54 525.032 1698.91 520.091 1696.58 512.673ZM1657.25 436.237C1655.55 430.73 1667.31 441.063 1644.8 409.663C1642.92 407.421 1641.1 405.317 1639.25 403.241C1641.1 405.32 1642.91 407.429 1644.69 409.562C1667.3 441.037 1655.55 430.732 1657.24 436.218C1657.24 436.224 1657.24 436.231 1657.25 436.237ZM1705.93 577.344C1705.34 560.895 1703.55 543.259 1700 526.628C1703.55 543.26 1705.33 560.896 1705.93 577.344ZM1388.1 307.511C1387.37 307.526 1386.8 307.57 1386.33 307.6C1386.78 307.57 1387.37 307.54 1388.1 307.511ZM1699.64 546.409C1699.59 537.698 1697.63 524.466 1693.64 510.004C1697.77 525.021 1699.73 538.72 1699.64 547.388C1699.64 547.062 1699.64 546.736 1699.64 546.409ZM1703.1 597.08C1702.82 604.539 1703.24 609.108 1703.22 612.997C1703.25 609.11 1702.83 604.54 1703.1 597.08ZM1701.6 599.648C1702.18 594.254 1702.63 590.617 1703.38 591.66C1702.51 590.423 1702.03 595.59 1701.31 602.478C1701.41 601.535 1701.51 600.593 1701.6 599.648ZM1197.02 309.973C1197.04 309.987 1197.1 309.988 1197.33 309.988C1197.11 309.973 1197.04 309.973 1197.02 309.973ZM1207.38 311.987C1207.38 311.987 1207.37 311.987 1207.36 311.987C1210.56 312.539 1213.76 313.091 1216.96 313.643C1213.77 313.091 1210.58 312.539 1207.38 311.987ZM1530.86 334.486C1531.01 334.19 1531.2 333.886 1532.5 334.118C1531.2 333.875 1531.01 334.186 1530.86 334.486ZM1698.97 576.695C1699.46 580.098 1699.7 583.62 1699.75 587.211C1699.86 594.876 1699.11 602.767 1698.21 610.523C1698.11 611.432 1698 612.341 1697.89 613.249C1698.92 604.618 1699.88 595.777 1699.75 587.211C1699.7 583.62 1699.46 580.098 1698.97 576.695ZM1694.96 630.448C1695.5 628.048 1695.96 626.138 1696.39 625.139C1695.96 626.138 1695.49 628.046 1694.96 630.448ZM1696.17 571.484C1696.37 573.326 1696.53 574.976 1696.7 576.41C1696.53 574.953 1696.37 573.303 1696.17 571.484ZM1512.9 330.381C1513.66 330.608 1514.31 330.786 1514.88 330.921C1514.29 330.764 1513.64 330.586 1512.9 330.381ZM1677.02 490.115C1676.25 488.097 1675.48 485.856 1675 484.009C1675.48 485.855 1676.25 488.093 1677.02 490.115ZM1505.32 335.415C1502.33 333.895 1494.48 331.24 1485.69 329.167C1485.69 329.168 1485.7 329.17 1485.71 329.172C1480.97 326.212 1488.57 327.23 1499.38 330.238C1488.54 327.224 1480.95 326.208 1485.69 329.167C1494.48 331.255 1502.33 333.909 1505.32 335.415ZM1683.16 517.968C1683.98 521.182 1684.91 524.675 1685.98 528.731C1684.91 524.686 1683.99 521.177 1683.16 517.968ZM1634.13 421.597C1634.59 422.142 1635.02 422.698 1635.49 423.291C1635.03 422.698 1634.57 422.124 1634.13 421.597ZM1399.38 323.003C1399.38 322.962 1399.45 322.92 1399.62 322.878C1399.44 322.92 1399.37 322.962 1399.38 323.003ZM1465.67 330.139C1468.32 330.098 1471.01 330.087 1473.68 330.131C1471 330.092 1468.33 330.093 1465.65 330.136C1465.66 330.138 1465.67 330.139 1465.67 330.139ZM1228.82 328.265C1223.63 328.205 1217.34 327.921 1211.53 327.727C1217.34 327.921 1223.63 328.22 1228.82 328.265ZM1199.38 329.31C1198.92 329.28 1198.45 329.265 1197.97 329.25C1197.97 329.255 1197.97 329.26 1197.97 329.264C1197.52 329.25 1196.88 329.234 1196.99 329.219C1196.86 329.234 1197.49 329.25 1197.97 329.264C1198.45 329.279 1198.92 329.295 1199.38 329.31ZM1244.32 330.876C1248.8 330.5 1255.15 330.138 1255.13 329.696C1255.13 330.138 1248.77 330.5 1244.32 330.876C1243.66 330.921 1243.02 330.979 1242.48 331.039C1243.05 330.994 1243.66 330.936 1244.32 330.876ZM1551.64 365.543C1552.34 365.706 1552.74 365.694 1552.92 365.538C1553.02 365.456 1553.04 365.331 1553.03 365.183C1553.02 365.18 1553.01 365.176 1553.01 365.173C1553.02 365.32 1553 365.446 1552.9 365.527C1552.73 365.685 1552.32 365.699 1551.64 365.543ZM1509.24 349.046C1509.65 348.805 1513.08 349.457 1523.34 353.54C1526.61 354.86 1529.54 356.099 1532.15 357.23C1529.53 356.096 1526.6 354.854 1523.31 353.531C1513.07 349.455 1509.65 348.805 1509.24 349.046ZM1335.53 336.158C1335.53 336.158 1335.52 336.158 1335.51 336.158C1335.75 336.169 1335.98 336.18 1336.21 336.191C1335.99 336.18 1335.76 336.169 1335.53 336.158Z" fill="#87D4E9"/>
<path opacity="0.9" d="M1677.45 618.417C1681.8 629.147 1686.34 639.794 1690.69 650.52C1687.37 641.316 1674.75 637.717 1667.06 643.8C1673.47 638.997 1679.96 634.295 1686.61 629.804C1694.97 623.604 1703.38 617.389 1711.76 611.197C1715.96 608.115 1720.18 605.072 1724.43 602.103C1725.5 601.359 1726.57 600.63 1727.63 599.889C1728.16 599.524 1728.7 599.158 1729.23 598.792C1729.37 598.703 1729.5 598.614 1729.64 598.525C1729.71 598.485 1729.77 598.446 1729.84 598.406C1729.85 598.401 1729.86 598.395 1729.86 598.39C1729.9 598.379 1729.94 598.367 1729.98 598.356C1730.3 598.282 1730.63 598.219 1730.98 598.178C1731.42 597.987 1732.05 598.32 1732.83 599.08C1733.56 600.02 1734.29 600.961 1735.02 601.902C1736.09 603.279 1737.17 604.637 1737.97 606.136C1739.58 607.497 1740.32 609.386 1741.5 611.017C1741.68 611.284 1741.85 611.55 1742.03 611.816C1744.15 614.989 1746.29 618.172 1748.38 621.298C1748.74 621.82 1749.07 622.293 1748.94 622.622C1749.36 623.336 1750.38 624.11 1750.1 624.756C1750.15 625.102 1750.13 625.355 1750.05 625.546C1748.95 626.504 1747.75 627.466 1746.52 628.382C1744.06 630.228 1741.49 632.016 1739.1 633.907C1730.76 639.889 1723.07 646.925 1714.26 652.155C1712.39 653.544 1710.53 654.933 1708.67 656.322C1701.8 661.541 1694.93 666.76 1688.06 671.98C1678.35 679.721 1662.25 675.189 1658.01 663.482C1656.45 659.647 1654.88 655.812 1653.32 651.977C1652.69 650.413 1652.35 648.706 1651.89 647.063C1646.26 633.22 1640.62 619.376 1634.99 605.532C1632.25 602.449 1632.35 597.724 1630.33 594.23C1630.33 594.232 1630.33 594.233 1630.33 594.235C1629.06 592.944 1628.24 591.033 1627.71 588.609C1627.71 588.554 1627.7 588.505 1627.68 588.465C1628.21 587.669 1629.12 586.946 1630.68 586.357C1631.52 586.04 1632.36 585.753 1633.21 585.451C1637.89 583.451 1642.59 581.585 1647.41 580.094C1647.58 580.023 1647.76 579.952 1647.94 579.881C1650.54 578.814 1653.14 577.746 1655.74 576.679C1656.37 576.432 1657.02 576.144 1657.57 576.006C1657.85 575.936 1658.09 575.902 1658.32 575.921C1658.44 575.926 1658.54 575.956 1658.62 575.995C1658.67 576.015 1658.71 576.04 1658.75 576.07C1658.77 576.085 1658.79 576.099 1658.81 576.114C1658.89 576.268 1658.96 576.421 1659.03 576.59C1664.47 585.279 1668.18 596.076 1672.45 606.17C1673.87 609.616 1675.28 613.061 1676.7 616.507C1676.95 617.144 1677.2 617.78 1677.45 618.417ZM1720.92 646.954C1720.92 646.953 1720.93 646.952 1720.93 646.951C1720.93 646.948 1720.93 646.945 1720.94 646.943C1720.93 646.946 1720.93 646.951 1720.92 646.954ZM1732.78 637.633C1735.17 636.549 1737.19 634.553 1739.27 632.709C1740.57 631.995 1741.38 631.313 1741.94 630.65C1741.37 631.31 1740.56 631.982 1739.26 632.671C1737.18 634.54 1735.16 636.546 1732.78 637.633ZM1723.03 645.029C1723.01 645.049 1722.99 645.069 1722.97 645.09C1722.99 645.069 1723.02 645.047 1723.04 645.026C1723.17 644.172 1723.29 643.318 1723.42 642.464C1723.29 643.319 1723.16 644.174 1723.03 645.029ZM1640.95 613.815C1640.07 612.32 1639.22 611.421 1638.36 610.503C1639.22 611.422 1640.06 612.323 1640.95 613.815ZM1651.8 630.159C1650.61 631.955 1647.26 629.705 1649.49 637.973C1649.76 638.557 1650.02 639.111 1650.29 639.665C1650.03 639.109 1649.77 638.553 1649.51 637.997C1647.26 629.709 1650.61 631.955 1651.81 630.164C1651.8 630.162 1651.8 630.161 1651.8 630.159ZM1636 600.192C1637.38 603.57 1638.51 607.326 1639.79 610.857C1638.51 607.325 1637.39 603.565 1636 600.192ZM1712.04 649.557C1712.16 649.444 1712.25 649.333 1712.32 649.245C1712.25 649.33 1712.16 649.434 1712.04 649.557ZM1641.49 605.544C1641.19 607.738 1641.9 610.649 1642.98 613.81C1641.87 610.524 1641.14 607.513 1641.53 605.294C1641.51 605.377 1641.5 605.46 1641.49 605.544ZM1636.75 595.174C1636.14 593.615 1635.09 592.942 1634.5 592.25C1635.08 592.947 1636.13 593.62 1636.75 595.174ZM1637.7 594.163C1637.87 595.406 1637.79 596.313 1637.08 596.347C1637.91 596.312 1637.87 595.08 1637.59 593.516C1637.63 593.732 1637.66 593.947 1637.7 594.163ZM1746.66 620.988C1746.65 620.981 1746.64 620.99 1746.6 621.022C1746.65 621.001 1746.66 620.991 1746.66 620.988ZM1743.63 620.989C1743.63 620.987 1743.63 620.986 1743.63 620.985C1742.74 621.035 1741.84 621.085 1740.94 621.135C1741.84 621.086 1742.73 621.037 1743.63 620.989ZM1680.14 666.152C1680.21 666.43 1680.32 666.797 1679.08 667.402C1680.32 666.806 1680.21 666.433 1680.14 666.152ZM1641.87 598.082C1640.03 596.18 1639.69 593.477 1639.03 590.946C1638.97 590.745 1638.91 590.543 1638.86 590.342C1639.64 593.04 1639.87 596.032 1641.87 598.082ZM1638.02 586.41C1638.1 586.982 1638.1 587.458 1637.95 587.774C1638.1 587.458 1638.11 586.977 1638.02 586.41ZM1644.46 598.37C1644.23 598.009 1644.01 597.682 1643.8 597.41C1644.01 597.687 1644.23 598.014 1644.46 598.37ZM1684.1 660.86C1683.98 660.99 1683.88 661.114 1683.8 661.236C1683.89 661.122 1683.99 660.997 1684.1 660.86ZM1652.89 615.764C1653.06 616.229 1653.16 616.777 1653.1 617.269C1653.16 616.777 1653.07 616.23 1652.89 615.764ZM1681.31 654.923C1682.22 654.843 1683.91 653.871 1685.64 652.634C1685.63 652.635 1685.63 652.636 1685.63 652.637C1687.63 653.256 1686.44 654.648 1684.4 656.254C1686.44 654.645 1687.64 653.253 1685.64 652.634C1683.9 653.86 1682.22 654.832 1681.31 654.923ZM1652.81 608.722C1652.56 607.995 1652.2 607.222 1651.71 606.371C1652.2 607.22 1652.55 608 1652.81 608.722ZM1662.47 632.181C1662.4 632.033 1662.34 631.879 1662.27 631.716C1662.34 631.879 1662.4 632.038 1662.47 632.181ZM1701.58 639.959C1701.6 639.988 1701.61 640.028 1701.6 640.083C1701.61 640.028 1701.6 639.988 1701.58 639.959ZM1686.77 646.448C1686.51 647.144 1686.25 647.852 1685.99 648.55C1686.25 647.849 1686.51 647.147 1686.77 646.445C1686.77 646.448 1686.77 646.448 1686.77 646.448ZM1730.84 612.247C1731.85 611.562 1733.19 610.885 1734.38 610.211C1733.19 610.885 1731.84 611.551 1730.84 612.247ZM1735.82 607.364C1735.92 607.322 1736.02 607.266 1736.12 607.21C1736.12 607.207 1736.11 607.203 1736.11 607.2C1736.2 607.147 1736.33 607.069 1736.32 607.096C1736.34 607.066 1736.21 607.144 1736.11 607.2C1736.01 607.256 1735.91 607.312 1735.82 607.364ZM1726.52 612.535C1725.88 613.435 1724.88 614.587 1725.12 614.904C1724.89 614.584 1725.89 613.432 1726.52 612.535C1726.62 612.411 1726.71 612.279 1726.78 612.16C1726.7 612.272 1726.61 612.4 1726.52 612.535ZM1680.74 650.492C1680.51 650.404 1680.3 650.397 1680.11 650.454C1680 650.484 1679.91 650.533 1679.81 650.593C1679.81 650.594 1679.81 650.596 1679.82 650.598C1679.91 650.538 1680 650.489 1680.11 650.459C1680.3 650.401 1680.51 650.407 1680.74 650.492ZM1673.47 647.642C1673.61 647.943 1673.22 648.569 1671.63 649.934C1672.22 649.516 1672.95 649.119 1673.8 648.844C1676.47 647.999 1678.95 648.686 1680.65 649.944C1678.95 648.684 1676.46 647.997 1673.79 648.85C1672.94 649.125 1672.22 649.519 1671.63 649.934C1673.22 648.569 1673.61 647.943 1673.47 647.642ZM1706.52 621.514C1706.52 621.513 1706.52 621.511 1706.52 621.51C1706.47 621.535 1706.42 621.56 1706.37 621.585C1706.42 621.561 1706.47 621.537 1706.52 621.514Z" fill="#87D4E9"/>
<path opacity="0.9" d="M1205.29 871.366C1028.68 871.53 852.103 872.5 675.395 871.411C590.489 871.382 505.243 871.339 420.279 871.295C417.935 871.294 415.598 871.264 413.267 871.207C366.535 870.105 320.141 857.113 279.875 833.862C269.782 828.053 260.098 821.635 250.837 814.67C246.204 811.176 241.678 807.541 237.269 803.773C236.171 802.831 235.081 801.881 233.998 800.923C233.478 800.456 232.96 799.988 232.444 799.518C232.383 799.464 232.323 799.411 232.262 799.357C232.023 799.125 231.784 798.892 231.545 798.658C229.619 796.738 227.731 794.78 225.895 792.776C222.971 789.844 221.525 787.38 221.304 785.47C222.097 784.392 222.891 783.315 223.688 782.241C224.834 780.64 225.887 778.973 228.753 779.204C227.485 774.696 232.233 776.383 233.958 774.934C234.322 774.798 234.685 774.661 235.049 774.523C239.162 772.632 243.243 770.666 247.195 768.663C247.833 768.3 248.362 767.93 250.217 769.381C251.387 769.223 250.251 766.311 254.022 769.26C255.202 769.874 256.326 770.605 257.428 771.42C265.993 778.846 275.512 786.107 285.46 792.643C305.373 805.756 327.637 816.213 350.289 822.794C372.881 829.568 396.559 832.913 420.279 832.823C480.92 832.628 541.656 832.3 601.665 833.14C621.105 833.14 640.546 833.14 659.987 833.14C779.573 832.991 899.163 832.842 1018.79 832.693C1032.91 832.678 1047.2 833.035 1061.4 833.229C1182.76 833.084 1304.12 832.94 1425.49 832.795C1428.88 832.79 1432.26 832.718 1435.63 832.576C1465.52 829.98 1499.23 824.251 1527.21 810.596C1527.2 810.601 1527.19 810.607 1527.17 810.613C1538.62 804.516 1552.76 796.918 1568.42 786.209C1568.76 785.98 1569.07 785.773 1569.34 785.579C1573.28 783.784 1576.1 783.147 1577.06 784.743C1577.57 785.612 1577.9 786.598 1578.31 787.547C1582.57 791.399 1586.09 795.808 1586.82 802.253C1586.95 802.424 1587.07 802.596 1587.2 802.767C1589.31 805.092 1591.42 807.41 1593.54 809.722C1593.99 810.317 1594.66 810.805 1594.51 811.704C1594.43 812.153 1594.18 812.681 1593.59 813.399C1593.32 813.749 1592.91 814.16 1592.46 814.585C1592.22 814.818 1591.97 815.038 1591.68 815.285C1591.54 815.409 1591.39 815.533 1591.25 815.657C1590.03 816.562 1588.8 817.459 1587.48 818.386C1543.9 850.856 1485.38 871.291 1425.49 871.075C1389 871.131 1352.17 871.105 1315.93 871.217C1284.78 871.267 1253.63 871.316 1222.48 871.366C1216.75 871.366 1211.02 871.366 1205.29 871.366ZM530.964 833.349C530.95 833.349 530.935 833.349 530.921 833.349C530.892 833.349 530.862 833.35 530.834 833.35C530.877 833.35 530.921 833.349 530.964 833.349ZM405.887 833.366C386.03 831.647 364.303 828.232 343.685 821.738C332.914 817.968 325.327 814.836 319.221 812.347C325.319 814.837 332.883 817.97 343.591 821.753C364.288 828.252 386.029 831.649 405.887 833.366ZM507.19 833.662C507.434 833.658 507.677 833.654 507.92 833.65C507.663 833.654 507.405 833.658 507.147 833.662C502.026 834.338 496.906 835.015 491.786 835.691C496.92 835.015 502.055 834.338 507.19 833.662ZM1353.64 835.543C1367.96 835.253 1377.58 834.739 1387.36 834.23C1377.58 834.736 1367.96 835.241 1353.64 835.543ZM1193.09 840.063C1182.81 838.093 1210.63 835.557 1139.49 834.468C1134.1 834.512 1128.98 834.558 1123.86 834.603C1128.98 834.563 1134.1 834.523 1139.22 834.484C1210.59 835.558 1182.81 838.093 1193.05 840.063C1193.07 840.063 1193.08 840.063 1193.09 840.063ZM1471.58 831.76C1456.81 834.554 1441.2 835.954 1425.49 835.837C1410.35 835.737 1395.12 835.622 1380.19 835.563C1395.12 835.623 1410.35 835.741 1425.49 835.843C1441.2 835.962 1456.81 834.561 1471.58 831.76ZM603.578 836.93C602.155 836.945 601.042 836.989 600.108 837.019C600.998 836.989 602.154 836.96 603.578 836.93ZM1416.27 839.491C1400.13 838.286 1375.3 837.829 1347.41 837.647C1376.37 837.848 1402.04 838.325 1418.1 839.634C1417.49 839.587 1416.88 839.539 1416.27 839.491ZM1505.85 825.738C1518.44 821.464 1525.47 817.398 1531.52 814.245C1525.46 817.384 1518.44 821.45 1505.85 825.738ZM1510.74 825.518C1501.46 828.476 1495.05 829.721 1496.61 828.511C1494.75 829.927 1503.82 828.005 1515.59 823.898C1513.98 824.455 1512.36 824.995 1510.74 825.518ZM253.214 776.12C253.237 776.158 253.327 776.24 253.646 776.52C253.341 776.232 253.246 776.148 253.214 776.12ZM266.996 790.009C266.984 790 266.971 789.991 266.959 789.981C271.432 794.062 276.067 797.996 280.85 801.77C276.079 798.004 271.457 794.079 266.996 790.009ZM882.184 842.886C882.236 842.554 882.344 842.204 884.779 841.913C882.342 842.193 882.236 842.55 882.184 842.886ZM1471.25 838.864C1490.49 834.273 1511.07 828.833 1530.38 820.495C1531.92 819.829 1533.45 819.149 1534.98 818.452C1514.39 827.929 1492.02 833.905 1471.25 838.864ZM1563.38 803.576C1559.48 805.883 1556.28 807.556 1554.47 808.28C1556.28 807.558 1559.49 805.894 1563.38 803.576ZM1461.88 842.951C1465.27 842.383 1468.34 841.79 1470.97 841.215C1468.29 841.797 1465.23 842.389 1461.88 842.951ZM847.383 845.404C848.897 845.374 850.188 845.33 851.301 845.27C850.144 845.315 848.852 845.359 847.383 845.404ZM1301.66 847.081C1297.5 847.071 1292.94 846.95 1289.29 846.686C1292.94 846.95 1297.49 847.072 1301.66 847.081ZM836.475 852.551C829.93 852.014 813.769 851.761 796.005 851.716C796.019 851.716 796.034 851.716 796.048 851.716C785.719 849.836 800.678 849.388 822.405 849.313C800.634 849.388 785.676 849.836 796.005 851.716C813.769 851.776 829.93 852.029 836.475 852.551ZM1356.67 849.88C1363.09 849.918 1370.19 849.87 1378.33 849.707C1370.22 849.867 1363.09 849.906 1356.67 849.88ZM1144.48 850.253C1145.86 850.238 1147.24 850.239 1148.71 850.239C1147.24 850.239 1145.81 850.238 1144.48 850.253ZM625.734 852.423C625.721 852.382 625.857 852.34 626.195 852.298C625.845 852.339 625.709 852.381 625.734 852.423ZM757.492 856.475C762.701 856.027 767.955 855.566 773.209 855.118C767.955 855.571 762.702 856.023 757.448 856.475C757.482 856.475 757.49 856.475 757.492 856.475ZM293.352 826.112C284.171 821.184 273.539 814.374 264.191 807.469C273.538 814.374 284.163 821.197 293.352 826.112ZM243.982 793.716C243.307 793.1 242.591 792.462 241.879 791.82C241.875 791.824 241.872 791.828 241.869 791.831C241.19 791.22 240.245 790.362 240.425 790.502C240.21 790.332 241.156 791.19 241.869 791.831C242.581 792.473 243.298 793.111 243.982 793.716ZM320.609 841.533C329.171 844.581 341.552 848.04 341.649 847.571C341.511 848.028 329.13 844.565 320.609 841.533C319.355 841.09 318.137 840.664 317.094 840.302C318.174 840.695 319.35 841.103 320.609 841.533ZM945.793 861.623C947.183 861.42 947.89 861.206 948.045 860.982C948.134 860.862 948.045 860.742 947.867 860.623C947.852 860.623 947.838 860.623 947.823 860.623C948.001 860.742 948.091 860.862 948.001 860.982C947.848 861.207 947.154 861.421 945.793 861.623ZM852.636 864.24C853.274 863.837 860.335 863.511 883.001 863.368C890.241 863.319 896.748 863.256 902.584 863.183C896.736 863.256 890.212 863.319 882.953 863.368C860.323 863.511 853.274 863.838 852.636 864.24ZM500.42 865.577C500.406 865.577 500.392 865.577 500.377 865.577C500.84 865.589 501.3 865.6 501.755 865.611C501.314 865.6 500.868 865.589 500.42 865.577Z" fill="#86C774"/>
<path opacity="0.9" d="M270.455 796.881C258.883 797.169 247.318 797.674 235.746 797.973C245.531 798.102 253.342 787.555 250.354 778.219C252.593 785.91 254.711 793.637 256.574 801.44C259.433 811.452 262.291 821.509 265.139 831.53C266.544 836.549 267.908 841.568 269.189 846.595C269.51 847.854 269.816 849.112 270.136 850.366C270.29 850.995 270.444 851.625 270.598 852.255C270.633 852.413 270.669 852.57 270.705 852.728C270.719 852.805 270.732 852.883 270.745 852.96C270.747 852.969 270.75 852.977 270.752 852.986C270.75 853.026 270.747 853.065 270.744 853.105C270.699 853.433 270.642 853.766 270.558 854.106C270.583 854.581 270.049 855.056 269.064 855.517C267.927 855.869 266.789 856.221 265.652 856.573C263.985 857.092 262.334 857.624 260.651 857.843C258.81 858.873 256.779 858.904 254.836 859.437C254.526 859.506 254.215 859.575 253.904 859.645C250.187 860.517 246.456 861.393 242.792 862.256C242.178 862.405 241.619 862.55 241.355 862.316C240.542 862.451 239.455 863.141 238.95 862.649C238.607 862.576 238.379 862.465 238.227 862.326C237.72 860.954 237.242 859.491 236.817 858.018C235.954 855.07 235.188 852.028 234.256 849.133C231.593 839.22 227.713 829.546 225.921 819.453C225.277 817.22 224.633 814.987 223.989 812.753C221.522 804.488 219.054 796.222 216.586 787.956C212.76 776.136 222.666 762.67 235.118 762.818C239.258 762.705 243.397 762.592 247.538 762.479C249.224 762.436 250.939 762.726 252.639 762.871C267.581 762.47 282.522 762.068 297.463 761.667C301.312 760.188 305.699 761.95 309.68 761.288C309.678 761.288 309.677 761.288 309.675 761.288C311.333 760.546 313.408 760.456 315.864 760.815C315.917 760.828 315.965 760.84 316.008 760.839C316.57 761.608 316.925 762.717 316.928 764.382C316.928 765.282 316.902 766.169 316.886 767.069C317.11 772.155 317.2 777.217 316.901 782.245C316.905 782.437 316.908 782.63 316.912 782.823C316.996 785.632 317.079 788.442 317.163 791.252C317.175 791.923 317.215 792.634 317.15 793.2C317.118 793.482 317.064 793.725 316.966 793.928C316.92 794.036 316.858 794.119 316.79 794.187C316.753 794.228 316.717 794.255 316.675 794.282C316.653 794.296 316.632 794.31 316.611 794.324C316.441 794.341 316.271 794.356 316.09 794.36C306.042 796.392 294.632 796.06 283.678 796.511C279.955 796.622 276.232 796.733 272.509 796.844C271.824 796.857 271.139 796.869 270.455 796.881ZM228.444 827.524C228.444 827.525 228.445 827.527 228.445 827.529C228.446 827.532 228.448 827.535 228.449 827.538C228.448 827.533 228.445 827.529 228.444 827.524ZM232.993 841.906C233.17 844.517 234.324 847.115 235.318 849.713C235.531 851.176 235.884 852.172 236.307 852.93C235.888 852.172 235.545 851.176 235.359 849.713C234.34 847.112 233.172 844.517 232.993 841.906ZM229.502 830.177C229.491 830.15 229.479 830.123 229.468 830.096C229.48 830.125 229.492 830.153 229.503 830.182C230.258 830.601 231.013 831.021 231.767 831.441C231.012 831.019 230.257 830.598 229.502 830.177ZM287.613 764.329C289.32 764.037 290.461 763.554 291.622 763.075C290.461 763.551 289.32 764.027 287.613 764.329ZM268.493 768.739C267.232 766.988 270.517 764.646 261.995 763.818C261.352 763.87 260.74 763.922 260.129 763.974C260.74 763.927 261.352 763.88 261.963 763.833C270.512 764.648 267.232 766.988 268.488 768.739C268.489 768.739 268.491 768.739 268.493 768.739ZM302.103 764.499C298.457 764.599 294.544 764.334 290.787 764.29C294.544 764.337 298.457 764.611 302.103 764.499ZM229.135 818.289C229.195 818.448 229.27 818.565 229.327 818.665C229.272 818.57 229.208 818.445 229.135 818.289ZM295.164 767.748C293.215 766.698 290.239 766.339 286.901 766.235C290.367 766.355 293.443 766.729 295.384 767.873C295.31 767.831 295.237 767.79 295.164 767.748ZM306.539 766.959C308.211 766.942 309.209 766.199 310.066 765.888C309.209 766.186 308.21 766.929 306.539 766.959ZM307.151 768.206C305.928 767.926 305.104 767.538 305.323 766.86C305.063 767.651 306.23 768.048 307.792 768.337C307.578 768.293 307.364 768.249 307.151 768.206ZM243.687 860.757C243.698 860.748 243.694 860.733 243.679 860.682C243.681 860.736 243.686 860.752 243.687 860.757ZM244.755 857.917C244.755 857.919 244.756 857.921 244.756 857.922C245.026 857.064 245.295 856.205 245.565 855.346C245.295 856.203 245.025 857.06 244.755 857.917ZM224.83 782.589C224.545 782.56 224.163 782.531 224.033 781.158C224.153 782.531 224.542 782.56 224.83 782.589ZM302.012 770.735C304.442 769.677 307.091 770.312 309.694 770.581C309.902 770.6 310.11 770.618 310.318 770.637C307.516 770.422 304.636 769.582 302.012 770.735ZM314.293 771.239C313.732 771.108 313.284 770.944 313.041 770.692C313.284 770.947 313.732 771.12 314.293 771.239ZM300.834 773.05C301.253 772.962 301.635 772.874 301.963 772.775C301.63 772.874 301.248 772.962 300.834 773.05ZM228.387 788.166C228.311 788 228.23 787.863 228.141 787.75C228.218 787.872 228.3 788.009 228.387 788.166ZM281.584 774.823C281.087 774.822 280.539 774.723 280.1 774.494C280.539 774.723 281.086 774.823 281.584 774.823ZM234.929 787.638C234.681 788.523 234.998 790.443 235.547 792.495C235.547 792.493 235.547 792.492 235.546 792.49C234.262 794.145 233.379 792.539 232.595 790.061C233.381 792.544 234.264 794.15 235.547 792.495C235.011 790.439 234.694 788.52 234.929 787.638ZM288.205 777.224C288.973 777.244 289.822 777.186 290.792 777.022C289.824 777.183 288.973 777.233 288.205 777.224ZM262.845 778.013C263.009 777.996 263.175 777.994 263.35 777.99C263.175 777.994 263.004 777.996 262.845 778.013ZM241.799 811.88C241.764 811.892 241.723 811.887 241.675 811.858C241.723 811.888 241.764 811.893 241.799 811.88ZM240.938 795.733C240.379 795.246 239.806 794.757 239.245 794.266C239.81 794.756 240.375 795.247 240.94 795.738C240.939 795.734 240.939 795.733 240.938 795.733ZM257.438 849.025C257.724 850.211 257.887 851.699 258.097 853.056C257.887 851.699 257.737 850.207 257.438 849.025ZM260.255 855.403C260.259 855.513 260.277 855.624 260.295 855.735C260.299 855.734 260.304 855.733 260.308 855.732C260.324 855.838 260.352 855.984 260.332 855.963C260.354 855.99 260.326 855.843 260.308 855.732C260.29 855.62 260.272 855.509 260.255 855.403ZM258.688 844.88C258.072 843.963 257.346 842.621 256.964 842.735C257.347 842.626 258.074 843.968 258.688 844.88C258.77 845.017 258.862 845.146 258.949 845.254C258.873 845.137 258.783 845.014 258.688 844.88ZM239.276 788.668C239.439 788.482 239.52 788.289 239.535 788.086C239.543 787.978 239.531 787.871 239.508 787.764C239.506 787.764 239.504 787.764 239.502 787.764C239.526 787.871 239.538 787.978 239.53 788.086C239.515 788.289 239.435 788.483 239.276 788.668ZM244.501 782.866C244.171 782.89 243.722 782.307 243.004 780.339C243.188 781.036 243.302 781.861 243.26 782.755C243.112 785.547 241.596 787.628 239.82 788.776C241.599 787.625 243.119 785.537 243.26 782.736C243.3 781.85 243.186 781.031 243.003 780.339C243.722 782.307 244.171 782.89 244.501 782.866ZM257.326 822.996C257.326 822.998 257.327 823 257.327 823.001C257.322 822.945 257.316 822.89 257.31 822.835C257.315 822.888 257.321 822.942 257.326 822.996Z" fill="#86C774"/>
<rect x="101.67" y="106.503" width="535" height="137" rx="68.5" fill="#FAFAFA"/>
<rect x="101.67" y="106.503" width="535" height="137" rx="68.5" stroke="#04242B" stroke-width="3"/>
<path d="M171.151 198.827C166.436 198.827 162.294 197.775 158.724 195.669C155.154 193.564 152.34 190.658 150.28 186.95C148.266 183.197 147.259 178.872 147.259 173.975C147.259 169.077 148.266 164.775 150.28 161.068C152.34 157.315 155.154 154.386 158.724 152.28C162.294 150.175 166.436 149.122 171.151 149.122C175.865 149.122 180.03 150.175 183.646 152.28C187.261 154.386 190.053 157.315 192.021 161.068C194.035 164.775 195.042 169.077 195.042 173.975C195.042 178.872 194.035 183.197 192.021 186.95C190.053 190.658 187.261 193.564 183.646 195.669C180.03 197.775 175.865 198.827 171.151 198.827ZM171.151 189.559C173.943 189.559 176.323 188.918 178.291 187.637C180.304 186.355 181.861 184.57 182.959 182.282C184.058 179.948 184.607 177.179 184.607 173.975C184.607 170.771 184.058 168.025 182.959 165.736C181.861 163.402 180.304 161.617 178.291 160.381C176.323 159.1 173.943 158.459 171.151 158.459C168.45 158.459 166.093 159.1 164.079 160.381C162.066 161.617 160.509 163.402 159.411 165.736C158.313 168.025 157.763 170.771 157.763 173.975C157.763 177.179 158.313 179.948 159.411 182.282C160.509 184.57 162.066 186.355 164.079 187.637C166.093 188.918 168.45 189.559 171.151 189.559ZM212.901 198.827C210.018 198.827 207.569 198.232 205.555 197.042C203.587 195.852 202.077 194.113 201.024 191.825C200.017 189.49 199.514 186.653 199.514 183.312V163.402H209.812V182.282C209.812 184.845 210.338 186.813 211.391 188.186C212.443 189.513 214.137 190.177 216.471 190.177C217.89 190.177 219.148 189.857 220.247 189.216C221.391 188.575 222.261 187.637 222.856 186.401C223.497 185.165 223.817 183.655 223.817 181.87V163.402H234.115V198.003H225.121L224.297 192.511C223.291 194.388 221.826 195.921 219.904 197.111C217.981 198.255 215.647 198.827 212.901 198.827ZM240.287 198.003V163.402H249.418L250.379 169.718C251.295 168.254 252.37 166.995 253.606 165.942C254.842 164.89 256.261 164.066 257.863 163.471C259.51 162.876 261.272 162.578 263.149 162.578V173.494H259.716C258.343 173.494 257.084 173.654 255.94 173.975C254.842 174.249 253.881 174.73 253.057 175.416C252.279 176.103 251.661 177.041 251.203 178.231C250.791 179.375 250.585 180.817 250.585 182.556V198.003H240.287ZM276.022 198.003L293.528 149.946H305.337L322.843 198.003H311.928L299.364 161.548L286.8 198.003H276.022ZM283.642 187.499L286.389 179.536H311.584L314.262 187.499H283.642ZM325.911 213.107V163.402H335.042L336.209 167.933C336.941 166.972 337.788 166.08 338.749 165.256C339.71 164.432 340.854 163.791 342.182 163.333C343.555 162.83 345.157 162.578 346.987 162.578C350.191 162.578 353.006 163.379 355.432 164.981C357.903 166.583 359.871 168.757 361.336 171.503C362.801 174.204 363.533 177.293 363.533 180.771C363.533 184.25 362.778 187.362 361.267 190.108C359.803 192.809 357.835 194.937 355.363 196.493C352.892 198.049 350.123 198.827 347.056 198.827C344.585 198.827 342.456 198.392 340.671 197.523C338.886 196.653 337.399 195.44 336.209 193.884V213.107H325.911ZM344.447 189.834C346.095 189.834 347.56 189.468 348.841 188.735C350.168 187.957 351.198 186.882 351.93 185.509C352.663 184.135 353.029 182.556 353.029 180.771C353.029 178.986 352.663 177.407 351.93 176.034C351.198 174.661 350.168 173.586 348.841 172.808C347.56 171.984 346.095 171.572 344.447 171.572C342.754 171.572 341.243 171.984 339.916 172.808C338.635 173.586 337.628 174.661 336.895 176.034C336.163 177.407 335.797 178.964 335.797 180.703C335.797 182.488 336.163 184.09 336.895 185.509C337.628 186.882 338.635 187.957 339.916 188.735C341.243 189.468 342.754 189.834 344.447 189.834ZM368.688 213.107V163.402H377.819L378.986 167.933C379.718 166.972 380.565 166.08 381.526 165.256C382.487 164.432 383.631 163.791 384.959 163.333C386.332 162.83 387.934 162.578 389.764 162.578C392.968 162.578 395.783 163.379 398.209 164.981C400.68 166.583 402.648 168.757 404.113 171.503C405.578 174.204 406.31 177.293 406.31 180.771C406.31 184.25 405.555 187.362 404.044 190.108C402.58 192.809 400.612 194.937 398.14 196.493C395.669 198.049 392.9 198.827 389.833 198.827C387.361 198.827 385.233 198.392 383.448 197.523C381.663 196.653 380.176 195.44 378.986 193.884V213.107H368.688ZM387.224 189.834C388.872 189.834 390.336 189.468 391.618 188.735C392.945 187.957 393.975 186.882 394.707 185.509C395.44 184.135 395.806 182.556 395.806 180.771C395.806 178.986 395.44 177.407 394.707 176.034C393.975 174.661 392.945 173.586 391.618 172.808C390.336 171.984 388.872 171.572 387.224 171.572C385.531 171.572 384.02 171.984 382.693 172.808C381.412 173.586 380.405 174.661 379.672 176.034C378.94 177.407 378.574 178.964 378.574 180.703C378.574 182.488 378.94 184.09 379.672 185.509C380.405 186.882 381.412 187.957 382.693 188.735C384.02 189.468 385.531 189.834 387.224 189.834ZM411.465 198.003V163.402H420.596L421.557 169.718C422.472 168.254 423.548 166.995 424.783 165.942C426.019 164.89 427.438 164.066 429.04 163.471C430.688 162.876 432.45 162.578 434.326 162.578V173.494H430.894C429.521 173.494 428.262 173.654 427.118 173.975C426.019 174.249 425.058 174.73 424.234 175.416C423.456 176.103 422.838 177.041 422.381 178.231C421.969 179.375 421.763 180.817 421.763 182.556V198.003H411.465ZM453.827 198.827C450.485 198.827 447.488 198.049 444.833 196.493C442.178 194.937 440.073 192.809 438.517 190.108C436.961 187.362 436.183 184.25 436.183 180.771C436.183 177.201 436.961 174.066 438.517 171.366C440.073 168.62 442.178 166.469 444.833 164.913C447.533 163.356 450.531 162.578 453.827 162.578C457.213 162.578 460.234 163.356 462.889 164.913C465.543 166.469 467.649 168.62 469.205 171.366C470.761 174.066 471.539 177.179 471.539 180.703C471.539 184.227 470.761 187.362 469.205 190.108C467.649 192.809 465.543 194.937 462.889 196.493C460.234 198.049 457.213 198.827 453.827 198.827ZM453.827 189.902C455.2 189.902 456.412 189.559 457.465 188.873C458.564 188.186 459.433 187.156 460.074 185.783C460.715 184.41 461.035 182.717 461.035 180.703C461.035 178.689 460.715 176.995 460.074 175.622C459.433 174.249 458.586 173.22 457.534 172.533C456.481 171.846 455.268 171.503 453.895 171.503C452.522 171.503 451.286 171.846 450.188 172.533C449.135 173.22 448.288 174.249 447.648 175.622C447.007 176.995 446.687 178.689 446.687 180.703C446.687 182.717 447.007 184.41 447.648 185.783C448.288 187.156 449.135 188.186 450.188 188.873C451.286 189.559 452.499 189.902 453.827 189.902ZM488.513 198.827C485.629 198.827 483.226 198.37 481.304 197.454C479.427 196.539 478.031 195.303 477.116 193.747C476.246 192.145 475.812 190.383 475.812 188.461C475.812 186.401 476.315 184.593 477.322 183.037C478.375 181.435 480 180.176 482.196 179.261C484.393 178.3 487.162 177.819 490.503 177.819H498.879C498.879 176.263 498.673 174.982 498.261 173.975C497.895 172.968 497.277 172.213 496.408 171.709C495.538 171.206 494.348 170.954 492.838 170.954C491.236 170.954 489.886 171.274 488.787 171.915C487.689 172.556 487.002 173.563 486.728 174.936H476.841C477.07 172.464 477.871 170.313 479.244 168.482C480.663 166.652 482.54 165.21 484.874 164.157C487.208 163.105 489.886 162.578 492.906 162.578C496.202 162.578 499.062 163.128 501.488 164.226C503.914 165.279 505.79 166.835 507.118 168.894C508.491 170.954 509.177 173.517 509.177 176.584V198.003H500.596L499.36 192.992C498.856 193.861 498.261 194.662 497.575 195.395C496.888 196.081 496.087 196.699 495.172 197.248C494.257 197.752 493.25 198.141 492.151 198.415C491.053 198.69 489.84 198.827 488.513 198.827ZM491.053 191.001C492.151 191.001 493.112 190.818 493.936 190.452C494.76 190.085 495.469 189.582 496.064 188.941C496.659 188.3 497.14 187.568 497.506 186.744C497.918 185.875 498.216 184.936 498.399 183.929V183.861H491.739C490.595 183.861 489.634 184.021 488.856 184.341C488.124 184.616 487.574 185.028 487.208 185.577C486.842 186.126 486.659 186.767 486.659 187.499C486.659 188.278 486.842 188.941 487.208 189.49C487.62 189.994 488.146 190.383 488.787 190.658C489.474 190.886 490.229 191.001 491.053 191.001ZM532.084 198.827C528.514 198.827 525.356 198.049 522.61 196.493C519.909 194.937 517.781 192.809 516.225 190.108C514.714 187.408 513.959 184.319 513.959 180.84C513.959 177.27 514.714 174.135 516.225 171.435C517.781 168.688 519.909 166.537 522.61 164.981C525.356 163.379 528.514 162.578 532.084 162.578C536.615 162.578 540.414 163.768 543.48 166.148C546.593 168.528 548.561 171.846 549.384 176.103H538.469C538.057 174.638 537.279 173.494 536.134 172.67C534.99 171.846 533.617 171.435 532.015 171.435C530.505 171.435 529.177 171.824 528.033 172.602C526.935 173.334 526.065 174.41 525.424 175.828C524.784 177.201 524.463 178.826 524.463 180.703C524.463 182.122 524.646 183.403 525.012 184.547C525.379 185.692 525.882 186.676 526.523 187.499C527.209 188.323 528.01 188.964 528.926 189.422C529.841 189.834 530.871 190.04 532.015 190.04C533.114 190.04 534.075 189.857 534.899 189.49C535.768 189.124 536.5 188.598 537.095 187.911C537.736 187.225 538.194 186.378 538.469 185.371H549.384C548.561 189.49 546.593 192.763 543.48 195.189C540.368 197.614 536.569 198.827 532.084 198.827ZM554.615 198.003V148.573H564.913V168.345C566.011 166.606 567.499 165.21 569.375 164.157C571.252 163.105 573.449 162.578 575.966 162.578C578.895 162.578 581.344 163.196 583.312 164.432C585.28 165.668 586.768 167.476 587.775 169.856C588.781 172.19 589.285 175.027 589.285 178.369V198.003H579.056V179.33C579.056 176.767 578.506 174.776 577.408 173.357C576.355 171.938 574.662 171.229 572.328 171.229C570.954 171.229 569.696 171.572 568.552 172.258C567.407 172.945 566.515 173.929 565.874 175.211C565.233 176.446 564.913 177.934 564.913 179.673V198.003H554.615Z" fill="#04242B"/>
</svg>
