<svg width="492" height="582" viewBox="0 0 492 582" fill="none" xmlns="http://www.w3.org/2000/svg">
<!-- Single closed path only - no compound path, no inner hole. Import this in Spline. -->
<path d="M0.913086 13.5398 C0.913086 6.45062 6.63568 0.728027 13.7249 0.728027 H266.245 C340.041 0.728027 397.266 21.4404 435.403 59.6195 C467.731 91.9478 485.155 137.558 485.155 192.307 V193.972 C485.155 287.669 434.591 346.56 360.753 373.935 L488.828 561.2 C494.636 569.699 488.572 581.272 478.237 581.272 H360.112 C355.842 581.272 351.827 579.137 349.436 575.592 L231.397 399.302 C229.817 396.953 227.126 395.501 224.308 395.501 H137.059 C132.319 395.501 128.518 399.345 128.518 404.042 V568.417 C128.518 575.507 122.796 581.229 115.707 581.229 H13.7249 C6.63568 581.229 0.913086 575.507 0.913086 568.417 L0.913086 13.5398 Z" fill="#FEFEFE"/>
</svg>
