<svg width="492" height="582" viewBox="0 0 492 582" fill="none" xmlns="http://www.w3.org/2000/svg">
<path d="M0.913086 13.5398C0.913086 6.45062 6.63568 0.728027 13.7249 0.728027H266.245C340.041 0.728027 397.266 21.4404 435.403 59.6195C467.731 91.9478 485.155 137.558 485.155 192.307V193.972C485.155 287.669 434.591 346.56 360.753 373.935L488.828 561.2C494.636 569.699 488.572 581.272 478.237 581.272H360.112C355.842 581.272 351.827 579.137 349.436 575.592L231.397 399.302C229.817 396.953 227.126 395.501 224.308 395.501H137.059C132.319 395.501 128.518 399.345 128.518 404.042V568.417C128.518 575.507 122.796 581.229 115.707 581.229H13.7249C6.63568 581.229 0.913086 575.507 0.913086 568.417V13.5398ZM257.96 282.672C320.14 282.672 355.799 249.49 355.799 200.592V198.926C355.799 144.177 317.663 115.991 255.44 115.991H137.102C132.362 115.991 128.561 119.835 128.561 124.532V274.131C128.561 278.871 132.405 282.672 137.102 282.672H257.917H257.96Z" fill="#FEFEFE"/>
</svg>
