<svg width="2977" height="587" viewBox="0 0 2977 587" fill="none" xmlns="http://www.w3.org/2000/svg">
<path d="M297.083 20.9779L297.11 20.9916C297.147 20.9918 297.183 20.9777 297.22 20.9779L297.206 20.9916C302.88 20.9933 308.553 21.1083 314.226 21.3465L341.005 22.4656V24.1308C426.937 37.6099 502.488 94.5621 541.672 171.932L545.712 180.257L545.726 180.285C547.484 184.082 549.195 188.148 550.776 192.036L555.062 202.709L555.089 202.805L571.796 244.324C584.299 275.304 598.279 308.408 610.9 340.11C614.499 349.107 616.255 354.618 619.007 360.133L638.907 399.987L594.357 400.56C587.207 400.65 580.043 400.676 572.874 400.669C572.974 422.487 572.747 444.535 572.737 465.322C572.737 493.066 573.286 524.054 572.519 552.81L571.768 581.076L543.515 579.998C521.757 579.168 498.021 579.987 473.96 579.944L328.244 579.971C311.581 579.945 289.183 580.273 270.058 578.347C269.969 578.339 269.874 578.341 269.785 578.333C205.892 572.366 146.178 543.761 101.084 497.642L98.9413 495.459L98.8321 495.349C48.2523 443.23 20.2952 372.869 20.9785 299.901C20.7279 226.462 49.3509 155.858 100.62 103.798C146.302 57.1545 206.666 28.0745 271.328 21.7423L271.45 21.7286L271.56 21.715C280.671 20.9018 289.491 20.9506 297.069 20.9916L297.083 20.9779ZM296.919 76.8827C289.17 76.8407 282.864 76.8427 276.76 77.374C226.892 82.2604 180.096 104.165 143.969 139.503L140.448 143.024C99.5378 184.565 76.5987 241.1 76.8846 300.038V300.433C76.3391 358.762 98.6785 414.847 138.851 456.301L141.035 458.525L144.474 461.965C180.002 496.734 226.108 518.152 275.19 522.688L275.463 522.715C291.076 524.307 309.795 524.023 328.326 524.053H474.001C486.734 524.076 501.908 523.81 516.981 523.766C517.048 504.575 516.831 484.979 516.831 465.309C516.845 434.648 517.301 404.087 516.64 374.573V374.505L516.121 348.054L541.741 345.447L542.423 345.378L542.614 345.351C545.875 345.041 549.25 344.903 552.523 344.819C541.791 318.334 531.031 292.685 519.957 265.247L519.943 265.22L503.223 223.674C500.045 215.848 497.753 209.722 494.993 203.76C461.607 131.86 389.532 81.0791 311.66 77.1966L311.278 77.1693C306.546 76.9787 301.814 76.8827 297.083 76.8827H296.919Z" fill="#04B870" style="fill:#04B870;fill:color(display-p3 0.0157 0.7216 0.4392);fill-opacity:1;"/>
<path d="M321.446 226.035L392.339 155.144L431.866 194.67L361.001 265.534H461.225V321.439H360.987L431.866 392.316L392.339 431.842L321.446 360.951V461.214H265.54V360.992L194.675 431.856L155.148 392.33L226.04 321.439H125.789V265.534H226.027L155.148 194.657L194.675 155.13L265.54 225.994V125.786H321.446V226.035Z" fill="#3161B5" style="fill:#3161B5;fill:color(display-p3 0.1922 0.3804 0.7098);fill-opacity:1;"/>
<path d="M747.744 559.048L845.58 300.488H873.533L775.697 559.048H747.744ZM934.974 531.906C924.743 531.906 915.546 530.075 907.37 526.441C899.194 522.793 892.765 517.734 888.054 511.249C883.358 504.568 881.01 496.881 881.01 488.174C881.01 474.408 885.091 463.772 893.268 456.281C901.654 448.594 914.736 443.017 932.514 439.579L987.092 428.65C987.092 414.883 983.919 404.653 977.588 397.972C971.452 391.291 962.563 387.951 950.907 387.951C939.67 387.951 930.879 390.481 924.547 395.54C918.202 400.404 913.813 407.49 911.367 416.798L884.071 414.674C887.146 399.495 894.4 387.238 905.847 377.93C917.489 368.412 932.514 363.66 950.907 363.66C970.53 363.66 985.764 369.53 996.596 381.27C1007.43 392.815 1012.84 408.803 1012.84 429.251V496.071C1012.84 499.719 1013.66 502.248 1015.3 503.66C1016.93 505.071 1019.38 505.784 1022.65 505.784H1033.07V528.258C1031.84 528.454 1029.9 528.565 1027.25 528.565C1024.59 528.761 1022.03 528.873 1019.59 528.873C1012.64 528.873 1006.72 527.755 1001.81 525.533C997.099 523.296 993.521 519.76 991.075 514.897C988.616 509.837 987.288 503.352 987.092 495.456H991.998C990.558 502.346 987.092 508.621 981.571 514.296C976.26 519.76 969.51 524.107 961.333 527.35C953.157 530.382 944.366 531.906 934.974 531.906ZM937.42 509.432C948.461 509.432 957.658 507.601 965.009 503.967C972.375 500.11 977.896 494.855 981.571 488.174C985.247 481.284 987.092 473.387 987.092 464.485V450.508L937.42 460.236C926.378 462.248 918.719 465.393 914.428 469.642C910.137 473.695 907.985 479.062 907.985 485.742C907.985 493.234 910.543 499.104 915.658 503.352C920.969 507.406 928.223 509.432 937.42 509.432ZM1132.29 531.906C1117.16 531.906 1103.98 528.454 1092.74 521.577C1081.5 514.687 1072.81 504.974 1066.67 492.423C1060.55 479.663 1057.48 464.792 1057.48 447.783C1057.48 430.774 1060.55 415.987 1066.67 403.437C1072.81 390.886 1081.5 381.173 1092.74 374.282C1103.98 367.196 1117.16 363.66 1132.29 363.66C1144.34 363.66 1155.08 365.883 1164.48 370.341C1173.89 374.59 1181.65 380.865 1187.78 389.167C1193.92 397.469 1198.1 407.588 1200.35 419.537L1173.37 421.354C1170.93 410.62 1166.02 402.43 1158.65 396.756C1151.5 390.886 1142.71 387.951 1132.29 387.951C1117.37 387.951 1105.61 393.318 1097.03 404.052C1088.65 414.576 1084.47 429.153 1084.47 447.783C1084.47 466.399 1088.65 481.088 1097.03 491.822C1105.61 502.346 1117.37 507.601 1132.29 507.601C1142.71 507.601 1151.71 504.568 1159.27 498.503C1167.04 492.423 1172.14 483.311 1174.6 471.165L1201.58 472.982C1199.33 484.932 1195.03 495.358 1188.7 504.261C1182.36 512.968 1174.39 519.76 1164.79 524.61C1155.17 529.474 1144.34 531.906 1132.29 531.906ZM1278.1 531.906C1267.88 531.906 1258.68 530.075 1250.51 526.441C1242.33 522.793 1235.9 517.734 1231.19 511.249C1226.5 504.568 1224.15 496.881 1224.15 488.174C1224.15 474.408 1228.23 463.772 1236.41 456.281C1244.79 448.594 1257.87 443.017 1275.65 439.579L1330.22 428.65C1330.22 414.883 1327.06 404.653 1320.71 397.972C1314.59 391.291 1305.7 387.951 1294.04 387.951C1282.81 387.951 1274.02 390.481 1267.68 395.54C1261.34 400.404 1256.95 407.49 1254.49 416.798L1227.21 414.674C1230.27 399.495 1237.54 387.238 1248.98 377.93C1260.63 368.412 1275.65 363.66 1294.04 363.66C1313.67 363.66 1328.89 369.53 1339.72 381.27C1350.57 392.815 1355.97 408.803 1355.97 429.251V496.071C1355.97 499.719 1356.8 502.248 1358.43 503.66C1360.07 505.071 1362.52 505.784 1365.79 505.784H1376.21V528.258C1374.98 528.454 1373.04 528.565 1370.38 528.565C1367.73 528.761 1365.17 528.873 1362.73 528.873C1355.78 528.873 1349.84 527.755 1344.93 525.533C1340.24 523.296 1336.66 519.76 1334.21 514.897C1331.75 509.837 1330.43 503.352 1330.22 495.456H1335.12C1333.7 502.346 1330.22 508.621 1324.71 514.296C1319.38 519.76 1312.65 524.107 1304.47 527.35C1296.29 530.382 1287.5 531.906 1278.1 531.906ZM1280.56 509.432C1291.6 509.432 1300.8 507.601 1308.15 503.967C1315.51 500.11 1321.02 494.855 1324.71 488.174C1328.38 481.284 1330.22 473.387 1330.22 464.485V450.508L1280.56 460.236C1269.52 462.248 1261.86 465.393 1257.57 469.642C1253.28 473.695 1251.12 479.062 1251.12 485.742C1251.12 493.234 1253.68 499.104 1258.78 503.352C1264.11 507.406 1271.36 509.432 1280.56 509.432ZM1461.01 531.906C1446.71 531.906 1434.34 528.454 1423.91 521.577C1413.49 514.687 1405.42 504.974 1399.69 492.423C1394.17 479.872 1391.42 464.988 1391.42 447.783C1391.42 430.564 1394.17 415.694 1399.69 403.143C1405.42 390.579 1413.49 380.865 1423.91 373.989C1434.34 367.099 1446.71 363.66 1461.01 363.66C1472.45 363.66 1482.48 366.386 1491.06 371.85C1499.64 377.119 1505.87 383.087 1509.76 389.768V312.633H1535.52V528.258H1512.22L1511.3 503.967C1506.8 512.675 1500.16 519.551 1491.37 524.61C1482.57 529.474 1472.45 531.906 1461.01 531.906ZM1462.55 507.601C1472.36 507.601 1480.74 505.183 1487.69 500.32C1494.85 495.456 1500.25 488.58 1503.93 479.663C1507.82 470.55 1509.76 459.928 1509.76 447.783C1509.76 435.233 1507.82 424.499 1503.93 415.582C1500.25 406.679 1494.85 399.901 1487.69 395.247C1480.53 390.383 1471.95 387.951 1461.93 387.951C1448.65 387.951 1438.02 393.318 1430.05 404.052C1422.28 414.576 1418.39 429.153 1418.39 447.783C1418.39 466.204 1422.28 480.781 1430.05 491.515C1438.02 502.248 1448.85 507.601 1462.55 507.601ZM1645.46 531.906C1630.12 531.906 1616.85 528.454 1605.61 521.577C1594.57 514.687 1585.99 504.974 1579.85 492.423C1573.92 479.663 1570.96 464.792 1570.96 447.783C1570.96 430.774 1573.92 415.987 1579.85 403.437C1585.99 390.886 1594.47 381.173 1605.3 374.282C1616.33 367.196 1629.31 363.66 1644.23 363.66C1658.34 363.66 1670.81 367.001 1681.64 373.681C1692.47 380.152 1700.96 389.67 1707.08 402.221C1713.21 414.771 1716.28 430.061 1716.28 448.091V455.68H1597.94C1598.96 472.884 1603.55 485.84 1611.73 494.547C1620.12 503.255 1631.35 507.601 1645.46 507.601C1656.09 507.601 1664.77 505.183 1671.52 500.32C1678.47 495.26 1683.28 488.677 1685.93 480.585L1713.52 482.71C1709.23 497.077 1701.05 508.929 1688.99 518.237C1677.14 527.35 1662.63 531.906 1645.46 531.906ZM1597.94 433.206H1688.07C1686.85 417.609 1682.26 406.176 1674.28 398.88C1666.31 391.599 1656.29 387.951 1644.23 387.951C1631.76 387.951 1621.44 391.794 1613.27 399.495C1605.3 406.987 1600.19 418.223 1597.94 433.206ZM1734.56 528.258V367.294H1758.16L1759.09 403.143L1756.01 402.528C1757.86 390.579 1761.74 381.173 1767.67 374.282C1773.8 367.196 1781.56 363.66 1790.97 363.66C1800.57 363.66 1807.93 367.099 1813.05 373.989C1818.36 380.865 1821.63 390.984 1822.85 404.345H1819.79C1821.63 391.794 1825.71 381.871 1832.06 374.59C1838.58 367.294 1846.76 363.66 1856.57 363.66C1869.65 363.66 1879.16 368.105 1885.08 377.022C1891.01 385.924 1893.99 400.711 1893.99 421.354V528.258H1868.23V425.002C1868.23 410.62 1866.69 400.599 1863.63 394.939C1860.57 389.069 1855.76 386.134 1849.22 386.134C1844.93 386.134 1841.14 387.546 1837.87 390.383C1834.6 393.01 1831.95 397.259 1829.9 403.143C1828.06 409.013 1827.15 416.504 1827.15 425.617V528.258H1801.39V425.002C1801.39 411.235 1799.86 401.312 1796.79 395.247C1793.93 389.167 1789.14 386.134 1782.38 386.134C1778.09 386.134 1774.31 387.546 1771.04 390.383C1767.76 393.01 1765.11 397.259 1763.07 403.143C1761.22 409.013 1760.32 416.504 1760.32 425.617V528.258H1734.56ZM1936.17 573.806V551.347H1954.87C1960.6 551.347 1964.78 550.424 1967.43 548.607C1970.3 546.986 1972.45 544.247 1973.88 540.403L1979.71 525.225H1970.82L1910.41 367.294H1938.61L1987.98 501.536L2034.27 367.294H2062.49L1996.56 548.607C1993.5 557.314 1988.9 563.688 1982.77 567.741C1976.64 571.794 1968.16 573.806 1957.33 573.806H1936.17Z" fill="#293747" style="fill:#293747;fill:color(display-p3 0.1608 0.2157 0.2784);fill-opacity:1;"/>
<path d="M789.674 232.732C761.707 232.732 739.708 225.059 723.355 209.713C707.003 194.157 698.826 171.991 698.826 143.214V89.5035C698.826 60.7405 707.003 38.6861 723.355 23.3402C739.708 7.78474 761.86 0 789.827 0C817.585 0 838.997 7.56112 854.05 22.6973C869.326 37.6099 876.971 58.1829 876.971 84.3882V86.3169H835.014V83.1164C835.014 69.9089 831.254 59.0354 823.721 50.51C816.411 41.9845 805.104 37.7217 789.827 37.7217C774.775 37.7217 762.937 42.3059 754.341 51.4743C745.732 60.6287 741.427 73.0955 741.427 88.8746V143.857C741.427 159.412 745.732 171.879 754.341 181.257C762.937 190.426 774.775 195.01 789.827 195.01C805.104 195.01 816.411 190.747 823.721 182.222C831.254 173.472 835.014 162.613 835.014 149.615V143.857H876.971V148.329C876.971 174.549 869.326 195.219 854.05 210.342C838.997 225.268 817.431 232.732 789.674 232.732ZM912.975 228.245V69.6853H952.989V87.5888H958.79C961.166 81.2017 965.037 76.5057 970.418 73.5287C976.009 70.5378 982.466 69.0564 989.776 69.0564H1009.15V104.849H989.133C978.804 104.849 970.306 107.631 963.64 113.165C956.973 118.49 953.632 126.806 953.632 138.099V228.245H912.975ZM1086.84 232.732C1075.44 232.732 1065.22 230.803 1056.18 226.973C1047.15 222.92 1039.94 217.162 1034.56 209.713C1029.4 202.04 1026.81 192.76 1026.81 181.9C1026.81 171.027 1029.4 161.97 1034.56 154.73C1039.94 147.267 1047.25 141.719 1056.5 138.099C1065.98 134.269 1076.72 132.341 1088.77 132.341H1132.67V123.396C1132.67 115.932 1130.3 109.867 1125.57 105.171C1120.83 100.265 1113.3 97.8194 1102.97 97.8194C1092.87 97.8194 1085.33 100.167 1080.39 104.849C1075.44 109.336 1072.21 115.192 1070.7 122.431L1033.27 109.965C1035.86 101.872 1039.94 94.521 1045.53 87.9102C1051.34 81.0899 1058.97 75.6531 1068.45 71.614C1078.12 67.3513 1089.85 65.2129 1103.63 65.2129C1124.7 65.2129 1141.38 70.44 1153.65 80.8802C1165.91 91.3204 1172.04 106.457 1172.04 126.275V185.408C1172.04 191.809 1175.05 195.01 1181.07 195.01H1193.99V228.245H1166.87C1158.92 228.245 1152.35 226.33 1147.19 222.501C1142.02 218.657 1139.45 213.542 1139.45 207.155V206.834H1133.31C1132.45 209.391 1130.52 212.801 1127.5 217.064C1124.5 221.117 1119.76 224.737 1113.3 227.938C1106.84 231.124 1098.02 232.732 1086.84 232.732ZM1093.94 200.125C1105.35 200.125 1114.6 197.022 1121.7 190.845C1129.01 184.458 1132.67 176.03 1132.67 165.59V162.403H1091.68C1084.15 162.403 1078.23 163.997 1073.93 167.197C1069.62 170.384 1067.47 174.87 1067.47 180.614C1067.47 186.372 1069.74 191.055 1074.25 194.688C1078.78 198.308 1085.33 200.125 1093.94 200.125ZM1238.52 228.245V102.935H1197.86V69.6853H1238.52V40.2794C1238.52 29.4059 1241.74 20.7826 1248.2 14.3815C1254.87 7.78474 1263.48 4.47238 1274.02 4.47238H1315.97V37.7217H1288.22C1282.19 37.7217 1279.17 40.9223 1279.17 47.3094V69.6853H1321.13V102.935H1279.17V228.245H1238.52ZM1410.78 228.245C1400.24 228.245 1391.63 225.059 1384.96 218.657C1378.5 212.047 1375.28 203.312 1375.28 192.452V102.935H1335.26V69.6853H1375.28V20.4611H1415.95V69.6853H1459.83V102.935H1415.95V185.408C1415.95 191.809 1418.95 195.01 1424.98 195.01H1455.96V228.245H1410.78ZM1563.12 232.732C1542.25 232.732 1525.15 228.245 1511.81 219.3C1498.47 210.342 1490.4 197.567 1487.61 180.936L1525.03 171.348C1526.54 178.811 1529.02 184.667 1532.46 188.93C1536.12 193.193 1540.53 196.282 1545.69 198.196C1551.07 199.901 1556.89 200.754 1563.12 200.754C1572.58 200.754 1579.58 199.161 1584.1 195.96C1588.61 192.55 1590.88 188.399 1590.88 183.493C1590.88 178.588 1588.73 174.87 1584.42 172.312C1580.12 169.531 1573.23 167.295 1563.76 165.59L1554.73 163.997C1543.54 161.858 1533.32 158.993 1524.07 155.359C1514.82 151.53 1507.4 146.303 1501.81 139.706C1496.22 133.095 1493.42 124.57 1493.42 114.13C1493.42 98.3505 1499.22 86.3169 1510.83 78.0011C1522.46 69.4756 1537.74 65.2129 1556.66 65.2129C1574.53 65.2129 1589.37 69.1542 1601.21 77.0368C1613.03 84.9333 1620.77 95.2617 1624.44 108.05L1586.69 119.566C1584.95 111.46 1581.4 105.702 1576.04 102.292C1570.86 98.8815 1564.41 97.1764 1556.66 97.1764C1548.92 97.1764 1543.01 98.5741 1538.91 101.341C1534.83 103.899 1532.79 107.519 1532.79 112.201C1532.79 117.316 1534.93 121.16 1539.23 123.717C1543.54 126.065 1549.35 127.868 1556.66 129.154L1565.71 130.747C1577.75 132.886 1588.61 135.751 1598.3 139.385C1608.2 142.795 1615.94 147.798 1621.53 154.409C1627.34 160.796 1630.25 169.531 1630.25 180.614C1630.25 197.246 1624.11 210.132 1611.86 219.3C1599.81 228.245 1583.55 232.732 1563.12 232.732ZM1665.88 228.245V69.6853H1705.9V86.9459H1711.71C1714.5 81.6209 1719.13 77.0368 1725.58 73.2073C1732.04 69.1542 1740.54 67.1276 1751.08 67.1276C1762.48 67.1276 1771.62 69.3638 1778.51 73.8502C1785.39 78.1129 1790.67 83.7593 1794.32 90.7893H1800.13C1803.78 83.9689 1808.95 78.3226 1815.62 73.8502C1822.29 69.3638 1831.76 67.1276 1844.02 67.1276C1853.92 67.1276 1862.85 69.266 1870.81 73.5287C1878.99 77.5679 1885.43 83.8571 1890.17 92.3826C1895.12 100.698 1897.59 111.25 1897.59 124.039V228.245H1856.94V126.918C1856.94 118.169 1854.67 111.67 1850.16 107.407C1845.64 102.935 1839.28 100.698 1831.12 100.698C1821.87 100.698 1814.66 103.689 1809.48 109.643C1804.54 115.401 1802.06 123.717 1802.06 134.591V228.245H1761.41V126.918C1761.41 118.169 1759.14 111.67 1754.63 107.407C1750.11 102.935 1743.77 100.698 1735.59 100.698C1726.34 100.698 1719.13 103.689 1713.97 109.643C1709.02 115.401 1706.55 123.717 1706.55 134.591V228.245H1665.88ZM1991.03 232.732C1979.62 232.732 1969.4 230.803 1960.38 226.973C1951.33 222.92 1944.12 217.162 1938.74 209.713C1933.58 202.04 1931 192.76 1931 181.9C1931 171.027 1933.58 161.97 1938.74 154.73C1944.12 147.267 1951.44 141.719 1960.7 138.099C1970.16 134.269 1980.92 132.341 1992.97 132.341H2036.85V123.396C2036.85 115.932 2034.49 109.867 2029.75 105.171C2025.02 100.265 2017.48 97.8194 2007.17 97.8194C1997.05 97.8194 1989.52 100.167 1984.57 104.849C1979.62 109.336 1976.39 115.192 1974.9 122.431L1937.45 109.965C1940.04 101.872 1944.12 94.521 1949.73 87.9102C1955.53 81.0899 1963.17 75.6531 1972.63 71.614C1982.32 67.3513 1994.05 65.2129 2007.81 65.2129C2028.89 65.2129 2045.56 70.44 2057.83 80.8802C2070.09 91.3204 2076.23 106.457 2076.23 126.275V185.408C2076.23 191.809 2079.23 195.01 2085.26 195.01H2098.17V228.245H2071.06C2063.1 228.245 2056.53 226.33 2051.38 222.501C2046.22 218.657 2043.63 213.542 2043.63 207.155V206.834H2037.5C2036.63 209.391 2034.7 212.801 2031.68 217.064C2028.68 221.117 2023.94 224.737 2017.48 227.938C2011.04 231.124 2002.22 232.732 1991.03 232.732ZM1998.13 200.125C2009.53 200.125 2018.78 197.022 2025.88 190.845C2033.19 184.458 2036.85 176.03 2036.85 165.59V162.403H1995.86C1988.34 162.403 1982.42 163.997 1978.11 167.197C1973.82 170.384 1971.67 174.87 1971.67 180.614C1971.67 186.372 1973.92 191.055 1978.45 194.688C1982.96 198.308 1989.52 200.125 1998.13 200.125ZM2127.9 228.245V69.6853H2167.91V90.4679H2173.73C2176.31 84.9333 2181.15 79.7062 2188.25 74.8006C2195.35 69.6853 2206.11 67.1276 2220.52 67.1276C2233 67.1276 2243.86 70.0067 2253.11 75.7649C2262.58 81.2995 2269.9 89.0842 2275.06 99.1052C2280.23 108.902 2282.81 120.405 2282.81 133.626V228.245H2242.14V136.827C2242.14 124.891 2239.14 115.932 2233.11 109.965C2227.3 103.997 2218.91 101.02 2207.94 101.02C2195.46 101.02 2185.77 105.171 2178.88 113.487C2172.01 121.579 2168.57 132.983 2168.57 147.686V228.245H2127.9ZM2393.24 232.732C2372.38 232.732 2355.27 228.245 2341.93 219.3C2328.6 210.342 2320.54 197.567 2317.73 180.936L2355.16 171.348C2356.68 178.811 2359.14 184.667 2362.58 188.93C2366.24 193.193 2370.66 196.282 2375.81 198.196C2381.21 199.901 2387.01 200.754 2393.24 200.754C2402.72 200.754 2409.69 199.161 2414.22 195.96C2418.74 192.55 2421 188.399 2421 183.493C2421 178.588 2418.85 174.87 2414.54 172.312C2410.25 169.531 2403.36 167.295 2393.89 165.59L2384.86 163.997C2373.66 161.858 2363.46 158.993 2354.19 155.359C2344.94 151.53 2337.52 146.303 2331.93 139.706C2326.34 133.095 2323.53 124.57 2323.53 114.13C2323.53 98.3505 2329.34 86.3169 2340.96 78.0011C2352.58 69.4756 2367.86 65.2129 2386.79 65.2129C2404.65 65.2129 2419.49 69.1542 2431.33 77.0368C2443.17 84.9333 2450.91 95.2617 2454.56 108.05L2416.79 119.566C2415.09 111.46 2411.54 105.702 2406.14 102.292C2400.99 98.8815 2394.53 97.1764 2386.79 97.1764C2379.04 97.1764 2373.13 98.5741 2369.04 101.341C2364.95 103.899 2362.9 107.519 2362.9 112.201C2362.9 117.316 2365.07 121.16 2369.36 123.717C2373.66 126.065 2379.48 127.868 2386.79 129.154L2395.83 130.747C2407.88 132.886 2418.74 135.751 2428.42 139.385C2438.33 142.795 2446.07 147.798 2451.65 154.409C2457.46 160.796 2460.37 169.531 2460.37 180.614C2460.37 197.246 2454.24 210.132 2441.98 219.3C2429.93 228.245 2413.69 232.732 2393.24 232.732ZM2496.01 228.245V4.47238H2536.67V89.196H2542.48C2544.19 85.7859 2546.89 82.3757 2550.55 78.9655C2554.2 75.5553 2559.03 72.774 2565.07 70.6496C2571.3 68.3016 2579.16 67.1276 2588.63 67.1276C2601.1 67.1276 2611.96 70.0067 2621.23 75.7649C2630.69 81.2995 2638.01 89.0842 2643.17 99.1052C2648.34 108.902 2650.91 120.405 2650.91 133.626V228.245H2610.26V136.827C2610.26 124.891 2607.24 115.932 2601.21 109.965C2595.41 103.997 2587.01 101.02 2576.04 101.02C2563.56 101.02 2553.87 105.171 2547 113.487C2540.11 121.579 2536.67 132.983 2536.67 147.686V228.245H2496.01ZM2694.87 228.245V69.6853H2735.54V228.245H2694.87ZM2715.21 51.1529C2707.88 51.1529 2701.65 48.8049 2696.49 44.1089C2691.53 39.4268 2689.07 33.2494 2689.07 25.5764C2689.07 17.9035 2691.53 11.726 2696.49 7.03002C2701.65 2.348 2707.88 0 2715.21 0C2722.73 0 2728.97 2.348 2733.92 7.03002C2738.85 11.726 2741.34 17.9035 2741.34 25.5764C2741.34 33.2494 2738.85 39.4268 2733.92 44.1089C2728.97 48.8049 2722.73 51.1529 2715.21 51.1529ZM2780.59 292.186V69.6853H2820.6V88.8746H2826.42C2830.08 82.6831 2835.77 77.2604 2843.52 72.5644C2851.27 67.6587 2862.35 65.2129 2876.76 65.2129C2889.66 65.2129 2901.61 68.4135 2912.58 74.8006C2923.55 80.992 2932.37 90.1464 2939.04 102.292C2945.72 114.451 2949.05 129.154 2949.05 146.415V151.53C2949.05 168.79 2945.72 183.493 2939.04 195.639C2932.37 207.798 2923.55 217.064 2912.58 223.451C2901.61 229.629 2889.66 232.732 2876.76 232.732C2867.07 232.732 2858.91 231.558 2852.23 229.21C2845.77 227.071 2840.52 224.304 2836.42 220.894C2832.54 217.274 2829.44 213.654 2827.06 210.034H2821.25V292.186H2780.59ZM2864.49 197.567C2877.19 197.567 2887.63 193.612 2895.8 185.73C2904.18 177.637 2908.39 165.911 2908.39 150.565V147.365C2908.39 132.033 2904.18 120.405 2895.8 112.522C2887.41 104.43 2876.98 100.377 2864.49 100.377C2852.02 100.377 2841.58 104.43 2833.2 112.522C2824.8 120.405 2820.6 132.033 2820.6 147.365V150.565C2820.6 165.911 2824.8 177.637 2833.2 185.73C2841.58 193.612 2852.02 197.567 2864.49 197.567Z" fill="#04B870" style="fill:#04B870;fill:color(display-p3 0.0157 0.7216 0.4392);fill-opacity:1;"/>
</svg>
