<svg xmlns="http://www.w3.org/2000/svg" width="46" height="46" fill="none"><g transform="translate(3.5 3.5)"><path d="M 17.755 0.001 L 17.756 0.001 C 18.137 0.001 18.518 0.009 18.899 0.025 L 18.899 0.026 C 25.257 0.343 31.049 4.46 33.731 10.239 C 33.956 10.725 34.157 11.255 34.361 11.757 L 35.557 14.73 C 36.48 17.017 37.441 19.287 38.353 21.578 C 38.553 22.078 38.755 22.669 39 23.16 C 38.369 23.168 37.738 23.171 37.107 23.168 L 37.107 23.168 C 36.592 23.166 36.028 23.152 35.513 23.201 L 35.464 23.206 L 35.465 23.256 C 35.513 25.398 35.48 27.639 35.479 29.793 C 35.479 31.83 35.518 33.977 35.464 36 C 33.865 35.939 32.025 35.999 30.411 35.996 L 30.411 35.996 L 19.989 35.997 C 18.727 35.995 17.251 36.017 16.006 35.89 L 16.006 35.89 C 11.904 35.511 8.065 33.676 5.163 30.708 L 5.162 30.708 L 5.007 30.549 C 1.758 27.201 -0.043 22.676 0.001 17.977 L 0.001 17.976 C -0.022 13.235 1.823 8.682 5.124 5.33 L 5.124 5.329 C 8.067 2.322 11.952 0.453 16.108 0.046 C 16.657 -0.003 17.202 -0.002 17.755 0.001 Z" fill="transparent" stroke-width="4" stroke="rgb(4, 184, 112)" stroke-miterlimit="10" stroke-dasharray=""></path><g transform="translate(5.5 5.5)"><path d="M 11.999 0 L 11.999 24" fill="transparent" stroke-width="4" stroke="rgb(49, 97, 181)"></path><path d="M 24 11.999 L 0 11.999" fill="transparent" stroke-width="4" stroke="rgb(49, 97, 181)"></path><path d="M 20.486 20.485 L 3.515 3.514" fill="transparent" stroke-width="4" stroke="rgb(49, 97, 181)"></path><path d="M 3.515 20.486 L 20.486 3.515" fill="transparent" stroke-width="4" stroke="rgb(49, 97, 181)"></path></g></g></svg>