<svg width="522" height="512" viewBox="0 0 522 512" fill="none" xmlns="http://www.w3.org/2000/svg">
<path d="M521.624 74.646L372.328 136.178L260.43 61.0838L409.725 0L521.624 74.646Z" fill="#ADBF08" style="fill:#ADBF08;fill:color(display-p3 0.6784 0.7490 0.0314);fill-opacity:1;"/>
<path d="M373.093 289.694L223.799 350.78L0 200.592L260.283 92.696L260.212 213.942L373.093 289.694Z" fill="#ADBF08" style="fill:#ADBF08;fill:color(display-p3 0.6784 0.7490 0.0314);fill-opacity:1;"/>
<path d="M223.895 350.86L222.973 511.963L0 362.33L0.0956309 200.672L223.895 350.86Z" fill="#6A7605" style="fill:#6A7605;fill:color(display-p3 0.4157 0.4627 0.0196);fill-opacity:1;"/>
<path d="M372.493 136.031L372.178 290.084L335.682 305.127L223.71 350.828L222.789 511.932L521.378 388.867L521.581 74.3611L372.493 136.031Z" fill="#C2D704" style="fill:#C2D704;fill:color(display-p3 0.7608 0.8431 0.0157);fill-opacity:1;"/>
<path d="M372.419 136.046L373.139 290.118L260.43 214.481L260.518 61.1184L372.419 136.046Z" fill="#6A7605" style="fill:#6A7605;fill:color(display-p3 0.4157 0.4627 0.0196);fill-opacity:1;"/>
</svg>
