<svg width="622" height="548" viewBox="0 0 622 548" fill="none" xmlns="http://www.w3.org/2000/svg">
<path d="M207.139 460.031L124.283 399.744L124.495 299.632L414.568 90.0137L497.376 149.89L207.436 359.607L207.139 460.031Z" fill="#FFAC08" style="fill:#FFAC08;fill:color(display-p3 1.0000 0.6745 0.0314);fill-opacity:1;"/>
<path d="M82.8557 372.848L0 312.561V209.62L290.074 0L372.881 59.8764L82.941 269.595L82.8557 372.848Z" fill="#FFAC08" style="fill:#FFAC08;fill:color(display-p3 1.0000 0.6745 0.0314);fill-opacity:1;"/>
<path d="M331.422 547.214L248.567 486.928L248.533 389.646L538.607 180.026L621.414 239.904L331.474 449.621L331.422 547.214Z" fill="#FFAC08" style="fill:#FFAC08;fill:color(display-p3 1.0000 0.6745 0.0314);fill-opacity:1;"/>
<path d="M82.8574 372.848L124.284 345.951L124.405 299.584L372.874 119.79V60.0083L82.978 269.628L82.8574 372.848Z" fill="#7A4E00" style="fill:#7A4E00;fill:color(display-p3 0.4784 0.3059 0.0000);fill-opacity:1;"/>
<path d="M207.138 460.031L248.565 429.424L248.758 389.251L497.315 209.52L496.909 149.445L207.014 359.065L207.138 460.031Z" fill="#7A4E00" style="fill:#7A4E00;fill:color(display-p3 0.4784 0.3059 0.0000);fill-opacity:1;"/>
<path d="M331.422 547.214L621.414 339.458L620.946 240.034L331.051 449.654L331.422 547.214Z" fill="#7A4E00" style="fill:#7A4E00;fill:color(display-p3 0.4784 0.3059 0.0000);fill-opacity:1;"/>
</svg>
