<svg width="574" height="400" viewBox="0 0 574 400" fill="none" xmlns="http://www.w3.org/2000/svg">
<path d="M181.693 0V41.3304L158.937 74.2313H415.389L392.636 41.3304V0H362.834V41.3304H211.506V0H181.693Z" fill="#35D1A9" style="fill:#35D1A9;fill:color(display-p3 0.2078 0.8196 0.6627);fill-opacity:1;"/>
<path d="M573.919 244.647H0V317.911H45.887V399.739H120.063V317.911H449.45V399.739H523.623V317.911H573.919V244.647Z" fill="#0E8A6B" style="fill:#0E8A6B;fill:color(display-p3 0.0549 0.5412 0.4196);fill-opacity:1;"/>
<path d="M0 244.824H573.919L502.345 170.593H71.5773L0 244.824Z" fill="#35D1A9" style="fill:#35D1A9;fill:color(display-p3 0.2078 0.8196 0.6627);fill-opacity:1;"/>
<path d="M83.8633 155.993H492.284L422.555 85.2969H148.612L83.8633 155.993Z" fill="#35D1A9" style="fill:#35D1A9;fill:color(display-p3 0.2078 0.8196 0.6627);fill-opacity:1;"/>
<path d="M120.118 399.126L145.21 371.788V317.925H120.118V399.126Z" fill="#08251D" style="fill:#08251D;fill:color(display-p3 0.0314 0.1451 0.1137);fill-opacity:1;"/>
<path d="M83.8633 155.861H492.289V170.296H83.8633V155.861Z" fill="#0E8A6B" style="fill:#0E8A6B;fill:color(display-p3 0.0549 0.5412 0.4196);fill-opacity:1;"/>
<path d="M158.937 74.0537V85.3612H416.027L415.611 74.0537H158.937Z" fill="#0E8A6B" style="fill:#0E8A6B;fill:color(display-p3 0.0549 0.5412 0.4196);fill-opacity:1;"/>
<path d="M449.449 399.753L424.809 372.205V317.925H449.449V399.753Z" fill="#08251D" style="fill:#08251D;fill:color(display-p3 0.0314 0.1451 0.1137);fill-opacity:1;"/>
</svg>
