<svg width="539" height="585" viewBox="0 0 539 585" fill="none" xmlns="http://www.w3.org/2000/svg">
<path d="M82.1249 57.219C83.6993 56.0911 85.2976 55.0092 86.9191 53.9751C104.091 40.4804 122.083 26.3302 130.123 20.5677C209.342 -36.2297 353.917 28.6538 452.773 165.365C551.631 302.077 567.577 459.18 488.358 515.976C475.185 525.42 417.353 563.179 400.141 570.807C312.412 609.694 184.82 569.578 85.9622 432.865C-12.8939 296.154 -28.8381 139.052 50.3793 82.2558C54.3432 79.4147 61.756 73.6905 70.5995 66.7782C74.1945 63.3431 78.0353 60.1509 82.1249 57.219ZM356.072 227.517C306.612 159.117 243.989 111.269 186.323 95.5208C173.337 91.9732 160.716 90.0078 148.98 90.4046C143.562 102.168 141.174 116.469 140.512 131.913C137.951 191.649 164.677 266.585 214.839 335.952C264.999 405.321 327.895 454.325 385.602 470.853C396.308 473.918 406.733 475.957 416.543 476.354C423.617 463.366 426.982 447.251 427.955 429.677C431.243 370.228 405.533 295.917 356.072 227.517ZM406.281 204.278C434.388 244.858 454.928 287.133 467.603 327.823C456.042 287.644 435.21 245.067 406.281 204.278Z" fill="#0489A1" style="fill:#0489A1;fill:color(display-p3 0.0157 0.5373 0.6314);fill-opacity:1;"/>
<path d="M452.3 165.777C551.157 302.489 567.102 459.591 487.882 516.386C408.665 573.183 264.09 508.301 165.232 371.589C66.376 234.877 50.4307 77.773 129.649 20.9791C208.869 -35.8183 353.443 29.0652 452.3 165.777ZM397.709 204.917C356.041 147.294 305.354 104.103 256.121 82.0098C223.022 67.1542 191.534 59.4212 169.086 75.5159C146.638 91.6106 144.017 123.796 147.666 159.767C153.096 213.264 178.159 274.827 219.825 332.449C261.491 390.07 312.18 433.262 361.41 455.357C394.512 470.21 425.998 477.942 448.446 461.848C470.896 445.754 473.516 413.568 469.866 377.601C464.436 324.101 439.375 262.537 397.709 204.917Z" fill="#0BCAF0" style="fill:#0BCAF0;fill:color(display-p3 0.0431 0.7922 0.9412);fill-opacity:1;"/>
</svg>
