<svg width="487" height="539" viewBox="0 0 487 539" fill="none" xmlns="http://www.w3.org/2000/svg">
<path d="M83.5303 115.889V480.111L159.974 446.212V128.506L83.5303 115.889Z" fill="#4B3070" style="fill:#4B3070;fill:color(display-p3 0.2941 0.1882 0.4392);fill-opacity:1;"/>
<path d="M413.211 103.691L412.925 538.449L487 498.248V71.3198L413.211 103.691Z" fill="#4B3070" style="fill:#4B3070;fill:color(display-p3 0.2941 0.1882 0.4392);fill-opacity:1;"/>
<path d="M413.215 104.652L0 33.5301L75.5398 0L487.004 71.4592" fill="#C099FF" style="fill:#C099FF;fill:color(display-p3 0.7529 0.6000 1.0000);fill-opacity:1;"/>
<path d="M350.53 312.191L83.5303 263.312L159.974 236.505L413.738 280.654L350.53 312.191Z" fill="#C099FF" style="fill:#C099FF;fill:color(display-p3 0.7529 0.6000 1.0000);fill-opacity:1;"/>
<path d="M83.5223 365.013V479.329L0.521484 463.795V33.6335L413.387 104.673L413.711 538.45L321.512 521.899V405.221L83.5223 365.013ZM321.512 306.674V171.077L83.5223 132.448V263.315L321.512 306.674Z" fill="#8D3DE3" style="fill:#8D3DE3;fill:color(display-p3 0.5529 0.2392 0.8902);fill-opacity:1;"/>
</svg>
