<svg width="24" height="24" viewBox="0 0 24 24" fill="none" xmlns="http://www.w3.org/2000/svg">
<path d="M19.61 7.39999C19.295 7.39999 19.055 7.63999 19.055 7.95499V16.465C19.055 16.78 19.295 17.02 19.61 17.02C19.925 17.02 20.165 16.78 20.165 16.465V7.95499C20.165 7.63999 19.925 7.39999 19.61 7.39999Z" fill="black"/>
<path d="M3.515 3.51499V20.165C3.515 21.4975 4.5875 22.57 5.92 22.57H8.51C8.825 22.57 9.065 22.33 9.065 22.015C9.065 21.7 8.825 21.46 8.51 21.46H5.92C5.1975 21.46 4.625 20.8875 4.625 20.165V3.51499C4.625 2.79249 5.1975 2.21999 5.92 2.21999H15.355V3.51499C15.355 4.84749 16.4275 5.91999 17.76 5.91999H19.61C19.925 5.91999 20.165 5.67999 20.165 5.36498C20.165 3.01499 18.26 1.10999 15.91 1.10999H5.92C4.5875 1.10999 3.515 2.18249 3.515 3.51499ZM16.465 2.27499C17.76 2.49749 18.7775 3.53249 19 4.80999H17.76C17.0375 4.80999 16.465 4.23749 16.465 3.51499V2.27499Z" fill="black"/>
<path d="M15.91 11.47C16.225 11.47 16.465 11.23 16.465 10.915C16.465 10.6 16.225 10.36 15.91 10.36H7.77C7.455 10.36 7.215 10.6 7.215 10.915C7.215 11.23 7.455 11.47 7.77 11.47H15.91Z" fill="black"/>
<path d="M16.5025 13.69C16.5025 13.375 16.2625 13.135 15.9475 13.135H7.8075C7.4925 13.135 7.2525 13.375 7.2525 13.69C7.2525 14.005 7.4925 14.245 7.8075 14.245H15.9475C16.2625 14.245 16.5025 14.005 16.5025 13.69Z" fill="black"/>
<path d="M21.6625 22.46C22.2375 22.5525 22.81 22.3675 23.2175 21.94C23.44 21.72 23.44 21.3675 23.2175 21.165C22.995 20.9425 22.645 20.9425 22.44 21.165C22.275 21.33 22.0525 21.405 21.83 21.3675C21.6075 21.33 21.4225 21.2 21.3125 20.9975L20.7575 19.9425C20.4975 19.4625 19.9975 19.185 19.4625 19.24C18.925 19.295 18.4825 19.6475 18.315 20.165L17.9275 21.405C17.9275 21.4225 17.9075 21.4425 17.87 21.4425C17.835 21.4425 17.815 21.4225 17.815 21.405L17.65 21.09C17.445 20.7025 17.075 20.46 16.65 20.4425C16.225 20.425 15.8175 20.645 15.5775 21.015L15.04 21.645C14.8375 21.885 14.875 22.2375 15.095 22.4225C15.2075 22.515 15.3375 22.5525 15.4475 22.5525C15.595 22.5525 15.7625 22.4775 15.8725 22.3475L16.4275 21.7C16.4475 21.6825 16.465 21.645 16.4825 21.6275C16.52 21.57 16.5575 21.5525 16.595 21.5525C16.595 21.5525 16.6125 21.5525 16.6325 21.59L16.7975 21.905C17.02 22.33 17.465 22.5875 17.945 22.5525C18.425 22.515 18.8325 22.2 18.9625 21.7375L19.35 20.4975C19.3875 20.3675 19.48 20.35 19.535 20.35C19.5925 20.35 19.7025 20.35 19.7575 20.46L20.3125 21.515C20.59 22.0325 21.09 22.3675 21.6625 22.46Z" fill="black"/>
<path d="M11.84 21.46C11.525 21.46 11.285 21.7 11.285 22.015C11.285 22.33 11.525 22.57 11.84 22.57H12.58C12.895 22.57 13.135 22.33 13.135 22.015C13.135 21.7 12.895 21.46 12.58 21.46H11.84Z" fill="black"/>
</svg>
