<svg width="24" height="24" viewBox="0 0 24 24" fill="none" xmlns="http://www.w3.org/2000/svg">
<path d="M7.585 4.43997C7.585 2.90497 6.345 1.66497 4.81 1.66497C3.275 1.66497 2.035 2.90497 2.035 4.43997C2.035 5.97497 3.275 7.21497 4.81 7.21497C6.345 7.21497 7.585 5.97497 7.585 4.43997ZM3.145 4.43997C3.145 3.51497 3.885 2.77497 4.81 2.77497C5.735 2.77497 6.475 3.51497 6.475 4.43997C6.475 5.36497 5.735 6.10497 4.81 6.10497C3.885 6.10497 3.145 5.36497 3.145 4.43997Z" fill="black"/>
<path d="M20.72 22.57C21.035 22.57 21.275 22.33 21.275 22.015V8.13997C21.275 5.78997 19.37 3.88497 17.02 3.88497H12.0625L13.8925 2.05247C14.115 1.83247 14.115 1.47997 13.8925 1.27747C13.6725 1.05497 13.32 1.05497 13.1175 1.27747L10.3425 4.05247C10.12 4.27247 10.12 4.62497 10.3425 4.82747L13.1175 7.60247C13.2275 7.71497 13.375 7.76997 13.505 7.76997C13.635 7.76997 13.7825 7.71497 13.8925 7.60247C14.115 7.38247 14.115 7.02997 13.8925 6.82747L12.0625 4.99497H17.02C18.76 4.99497 20.165 6.39997 20.165 8.13997V22.015C20.165 22.33 20.405 22.57 20.72 22.57Z" fill="black"/>
<path d="M4.81 22.57C5.125 22.57 5.365 22.33 5.365 22.015V11.6925L7.1975 13.5225C7.3075 13.635 7.455 13.69 7.585 13.69C7.715 13.69 7.8625 13.635 7.9725 13.5225C8.195 13.3025 8.195 12.95 7.9725 12.7475L5.1975 9.97247C4.9775 9.74997 4.625 9.74997 4.4225 9.97247L1.6475 12.7475C1.425 12.9675 1.425 13.32 1.6475 13.5225C1.8675 13.745 2.22 13.745 2.4225 13.5225L4.255 11.6925V22.015C4.255 22.33 4.495 22.57 4.81 22.57Z" fill="black"/>
</svg>
