<svg xmlns="http://www.w3.org/2000/svg" fill="none" viewBox="-1 -0.5 25 25" id="Amazon-Web-Service-Organizations--Streamline-Ultimate">
  <desc>
    Amazon Web Service Organizations Streamline Icon: https://streamlinehq.com
  </desc>
  <path stroke="currentColor" stroke-linecap="round" stroke-linejoin="round" stroke-miterlimit="10" d="m16.032 8.9760096 -4.8 2.6879904 -4.800047999999999 -2.6879904V3.7919807999999997L11.232 1.2l4.8 2.5919808v5.1840288Z" stroke-width="1"></path>
  <path stroke="currentColor" stroke-linecap="round" stroke-linejoin="round" stroke-miterlimit="10" d="m16.032 3.792192 -4.8 2.6880096L6.431952 3.792192" stroke-width="1"></path>
  <path stroke="currentColor" stroke-linecap="round" stroke-linejoin="round" stroke-miterlimit="10" d="M11.232 6.4799999999999995v5.183903999999999" stroke-width="1"></path>
  <path stroke="currentColor" stroke-linecap="round" stroke-linejoin="round" stroke-miterlimit="10" d="M11.232 13.776095999999999v4.224" stroke-width="1"></path>
  <path stroke="currentColor" stroke-linecap="round" stroke-linejoin="round" stroke-miterlimit="10" d="M3.263904 18v-1.912896c0 -0.637632 0.384 -1.0627199999999999 0.96 -1.0627199999999999h14.399999999999999c0.576 0 0.96 0.425088 0.96 1.0627199999999999V18" stroke-width="1"></path>
  <path stroke="currentColor" stroke-linecap="round" stroke-linejoin="round" stroke-miterlimit="10" d="M13.632 21.84c0 0.576 -0.384 0.96 -0.96 0.96h-2.88c-0.576048 0 -0.960048 -0.384 -0.960048 -0.96v-2.88c0 -0.576 0.384 -0.96 0.960048 -0.96h2.88c0.576 0 0.96 0.384 0.96 0.96v2.88Z" stroke-width="1"></path>
  <path stroke="currentColor" stroke-linecap="round" stroke-linejoin="round" stroke-miterlimit="10" d="M5.76 21.84c0 0.576 -0.384 0.96 -0.96 0.96H1.92c-0.576 0 -0.96 -0.384 -0.96 -0.96v-2.88c0 -0.576 0.384 -0.96 0.96 -0.96h2.88c0.576 0 0.96 0.384 0.96 0.96v2.88Z" stroke-width="1"></path>
  <path stroke="currentColor" stroke-linecap="round" stroke-linejoin="round" stroke-miterlimit="10" d="M22.08 21.84c0 0.576 -0.384 0.96 -0.96 0.96h-2.88c-0.576 0 -0.96 -0.384 -0.96 -0.96v-2.88c0 -0.576 0.384 -0.96 0.96 -0.96h2.88c0.576 0 0.96 0.384 0.96 0.96v2.88Z" stroke-width="1"></path>
</svg>