<svg width="24" height="24" viewBox="0 0 24 24" fill="none" xmlns="http://www.w3.org/2000/svg">
<path d="M0.184998 11.84C0.184998 12.155 0.424998 12.395 0.739998 12.395H4.9575L3.1275 14.2275C2.905 14.4475 2.905 14.8 3.1275 15.0025C3.2375 15.115 3.385 15.17 3.515 15.17C3.645 15.17 3.7925 15.115 3.9025 15.0025L6.6775 12.2275C6.9 12.0075 6.9 11.655 6.6775 11.4525L3.9025 8.6775C3.6825 8.455 3.33 8.455 3.1275 8.6775C2.905 8.8975 2.905 9.25 3.1275 9.4525L4.9575 11.285H0.739998C0.424998 11.285 0.184998 11.525 0.184998 11.84Z" fill="black"/>
<path d="M20.5525 8.6775C20.3325 8.455 19.98 8.455 19.7775 8.6775C19.555 8.8975 19.555 9.25 19.7775 9.4525L21.6075 11.285H17.39C17.075 11.285 16.835 11.525 16.835 11.84C16.835 12.155 17.075 12.395 17.39 12.395H21.6075L19.7775 14.2275C19.555 14.4475 19.555 14.8 19.7775 15.0025C19.8875 15.115 20.035 15.17 20.165 15.17C20.295 15.17 20.4425 15.115 20.5525 15.0025L23.3275 12.2275C23.55 12.0075 23.55 11.655 23.3275 11.4525L20.5525 8.6775Z" fill="black"/>
<path d="M11.4525 15.0025C11.5625 15.115 11.71 15.17 11.84 15.17C11.97 15.17 12.1175 15.115 12.2275 15.0025L15.0025 12.2275C15.225 12.0075 15.225 11.655 15.0025 11.4525L12.2275 8.6775C12.0075 8.455 11.655 8.455 11.4525 8.6775C11.23 8.8975 11.23 9.25 11.4525 9.4525L13.2825 11.285H9.065C8.75 11.285 8.51 11.525 8.51 11.84C8.51 12.155 8.75 12.395 9.065 12.395H13.2825L11.4525 14.2275C11.23 14.43 11.23 14.8 11.4525 15.0025Z" fill="black"/>
</svg>
