<svg width="24" height="24" viewBox="0 0 24 24" fill="none" xmlns="http://www.w3.org/2000/svg">
<path d="M21.645 17.76V6.10501C21.645 4.77251 20.5725 3.70001 19.24 3.70001H4.44C3.1075 3.70001 2.035 4.77251 2.035 6.10501V17.575C2.035 18.9075 3.1075 19.98 4.44 19.98H19.24C20.5175 19.98 21.645 18.945 21.645 17.76ZM3.145 17.575V6.10501C3.145 5.38251 3.7175 4.81001 4.44 4.81001H19.24C19.9625 4.81001 20.535 5.38251 20.535 6.10501V17.76C20.535 18.2775 19.9625 18.87 19.24 18.87H4.44C3.7175 18.87 3.145 18.2975 3.145 17.575Z" fill="black"/>
<path d="M15.2625 8.19501C14.245 7.23251 12.9125 6.77001 11.525 6.84501C9.0275 6.99251 7.0125 9.01001 6.8625 11.5075C6.77 12.895 7.2525 14.2275 8.215 15.245C9.14 16.2625 10.47 16.835 11.84 16.835C12.155 16.835 12.395 16.595 12.395 16.28C12.395 15.965 12.155 15.725 11.84 15.725C10.7475 15.725 9.75 15.28 9.01 14.505C8.27 13.7075 7.9 12.6725 7.955 11.6C8.085 9.65751 9.6375 8.08501 11.58 7.97251C12.6725 7.90001 13.7075 8.27001 14.485 9.02751C15.28 9.76751 15.7075 10.7675 15.7075 11.8575V12.2275C15.7075 12.635 15.3725 12.9675 14.9675 12.9675C14.56 12.9675 14.2275 12.635 14.2275 12.2275V11.8575C14.2275 10.5275 13.1525 9.45251 11.8225 9.45251C10.49 9.45251 9.4175 10.5275 9.4175 11.8575C9.4175 13.19 10.49 14.2625 11.8225 14.2625C12.525 14.2625 13.1525 13.95 13.5975 13.4675C13.93 13.8375 14.43 14.0775 14.9675 14.0775C15.985 14.0775 16.8175 13.245 16.8175 12.2275V11.8575C16.835 10.47 16.2625 9.14001 15.2625 8.19501ZM11.84 13.135C11.1175 13.135 10.545 12.5625 10.545 11.84C10.545 11.1175 11.1175 10.545 11.84 10.545C12.5625 10.545 13.135 11.1175 13.135 11.84C13.135 12.5625 12.5625 13.135 11.84 13.135Z" fill="black"/>
</svg>
