<svg width="24" height="24" viewBox="0 0 24 24" fill="none" xmlns="http://www.w3.org/2000/svg">
<g clip-path="url(#clip0_13116_1278)">
<path d="M22.94 23.495C23.255 23.495 23.495 23.255 23.495 22.94V0.739998C23.495 0.424998 23.255 0.184998 22.94 0.184998H4.44C4.125 0.184998 3.885 0.424998 3.885 0.739998V4.625C3.885 4.94 4.125 5.18 4.44 5.18C4.755 5.18 4.995 4.94 4.995 4.625V1.295H22.385V22.94C22.385 23.255 22.625 23.495 22.94 23.495Z" fill="black"/>
<path d="M2.96 11.84H6.66V15.17C6.66 15.485 6.9 15.725 7.215 15.725H20.165C20.48 15.725 20.72 15.485 20.72 15.17V3.515C20.72 3.2 20.48 2.96 20.165 2.96H7.215C6.9 2.96 6.66 3.2 6.66 3.515V6.29H2.96C1.425 6.29 0.184998 7.53 0.184998 9.065C0.184998 10.6 1.425 11.84 2.96 11.84ZM2.96 7.4H11.84C12.765 7.4 13.505 8.14 13.505 9.065C13.505 9.99 12.765 10.73 11.84 10.73H2.96C2.035 10.73 1.295 9.99 1.295 9.065C1.295 8.14 2.035 7.4 2.96 7.4Z" fill="black"/>
<path d="M16.095 17.945C16.095 17.63 15.855 17.39 15.54 17.39H4.995V13.875C4.995 13.56 4.755 13.32 4.44 13.32C4.125 13.32 3.885 13.56 3.885 13.875V22.94C3.885 23.255 4.125 23.495 4.44 23.495C4.755 23.495 4.995 23.255 4.995 22.94V18.5H15.54C15.855 18.5 16.095 18.26 16.095 17.945Z" fill="black"/>
<path d="M6.66 20.165C6.345 20.165 6.105 20.405 6.105 20.72C6.105 21.035 6.345 21.275 6.66 21.275H9.99C10.305 21.275 10.545 21.035 10.545 20.72C10.545 20.405 10.305 20.165 9.99 20.165H6.66Z" fill="black"/>
<path d="M20.165 17.39H18.315C18 17.39 17.76 17.63 17.76 17.945C17.76 18.26 18 18.5 18.315 18.5H20.165C20.48 18.5 20.72 18.26 20.72 17.945C20.72 17.63 20.48 17.39 20.165 17.39Z" fill="black"/>
<path d="M12.765 23.495H20.165C20.48 23.495 20.72 23.255 20.72 22.94V20.72C20.72 20.405 20.48 20.165 20.165 20.165H12.765C12.45 20.165 12.21 20.405 12.21 20.72V22.94C12.21 23.255 12.45 23.495 12.765 23.495ZM13.32 21.275H19.61V22.385H13.32V21.275Z" fill="black"/>
<path d="M4.625 9.065C4.625 9.3725 4.3775 9.62 4.07 9.62C3.7625 9.62 3.515 9.3725 3.515 9.065C3.515 8.7575 3.7625 8.51 4.07 8.51C4.3775 8.51 4.625 8.7575 4.625 9.065Z" fill="black"/>
<path d="M6.845 9.065C6.845 9.3725 6.5975 9.62 6.29 9.62C5.9825 9.62 5.735 9.3725 5.735 9.065C5.735 8.7575 5.9825 8.51 6.29 8.51C6.5975 8.51 6.845 8.7575 6.845 9.065Z" fill="black"/>
<path d="M9.065 9.065C9.065 9.3725 8.8175 9.62 8.51 9.62C8.2025 9.62 7.955 9.3725 7.955 9.065C7.955 8.7575 8.2025 8.51 8.51 8.51C8.8175 8.51 9.065 8.7575 9.065 9.065Z" fill="black"/>
<path d="M11.285 9.065C11.285 9.3725 11.0375 9.62 10.73 9.62C10.4225 9.62 10.175 9.3725 10.175 9.065C10.175 8.7575 10.4225 8.51 10.73 8.51C11.0375 8.51 11.285 8.7575 11.285 9.065Z" fill="black"/>
</g>
<defs>
<clipPath id="clip0_13116_1278">
<rect width="24" height="24" fill="black"/>
</clipPath>
</defs>
</svg>
