<svg width="24" height="24" viewBox="0 0 24 24" fill="none" xmlns="http://www.w3.org/2000/svg">
<path d="M5.2175 13.58C5.31 13.7825 5.5125 13.8925 5.7175 13.8925C5.79 13.8925 5.8825 13.875 5.9575 13.8375C5.9575 13.8375 6.8075 13.45 7.4175 13.2275C7.9725 13.0425 7.9375 12.4325 7.9 11.71C7.825 10.49 7.715 8.5275 9.435 7.1225V15.2075C9.435 17.335 10.12 19.3875 11.395 21.09L12.21 22.2V22.9025C12.21 23.2 12.4325 23.4775 12.7275 23.495C13.0425 23.5125 13.32 23.255 13.32 22.94V22.2L14.135 21.1075C15.41 19.425 16.095 17.3525 16.095 15.225V3.515C16.095 1.6825 14.5975 0.184998 12.765 0.184998C10.9325 0.184998 9.435 1.6825 9.435 3.515V5.79C6.53 7.5675 6.6975 10.415 6.79 11.8225C6.8075 11.9875 6.8075 12.1725 6.8075 12.3025C6.1975 12.5425 5.5125 12.84 5.495 12.8575C5.2175 12.9875 5.0875 13.3025 5.2175 13.58ZM10.545 3.515C10.545 2.295 11.545 1.295 12.765 1.295C13.985 1.295 14.985 2.295 14.985 3.515V5.1975C14.2275 4.9025 13.43 4.735 12.6175 4.7725C11.97 4.81 11.2675 4.94 10.545 5.235V3.515ZM10.545 6.4375C12.3575 5.55 14.005 5.8275 14.985 6.4V15.225C14.985 17.095 14.375 18.945 13.245 20.4425L12.765 21.09L12.285 20.4425C11.155 18.945 10.545 17.095 10.545 15.225V6.4375Z" fill="black"/>
</svg>
