<svg width="24" height="24" viewBox="0 0 24 24" fill="none" xmlns="http://www.w3.org/2000/svg">
<path d="M19.61 5.91999C19.925 5.91999 20.165 5.67999 20.165 5.36498C20.165 3.01499 18.26 1.10999 15.91 1.10999H5.92C4.5875 1.10999 3.515 2.18249 3.515 3.51499V20.165C3.515 21.4975 4.5875 22.57 5.92 22.57H17.76C19.0925 22.57 20.165 21.4975 20.165 20.165V7.95499C20.165 7.63999 19.925 7.39999 19.61 7.39999C19.295 7.39999 19.055 7.63999 19.055 7.95499V20.165C19.055 20.8875 18.4825 21.46 17.76 21.46H5.92C5.1975 21.46 4.625 20.8875 4.625 20.165V3.51499C4.625 2.79249 5.1975 2.21999 5.92 2.21999H15.355V3.51499C15.355 4.84749 16.4275 5.91999 17.76 5.91999H19.61ZM16.465 3.51499V2.27499C17.76 2.49749 18.7775 3.53249 19 4.80999H17.76C17.0375 4.80999 16.465 4.23749 16.465 3.51499Z" fill="black"/>
<path d="M8.03 15.0025C8.14 15.115 8.2875 15.17 8.4175 15.17C8.5475 15.17 8.695 15.115 8.805 15.0025L11.58 12.2275C11.8025 12.0075 11.8025 11.655 11.58 11.4525L8.805 8.67749C8.585 8.45499 8.2325 8.45499 8.03 8.67749C7.8075 8.89749 7.8075 9.24998 8.03 9.45249L10.415 11.84L8.03 14.2275C7.8075 14.43 7.8075 14.8 8.03 15.0025Z" fill="black"/>
<path d="M11.84 17.02H15.54C15.855 17.02 16.095 16.78 16.095 16.465C16.095 16.15 15.855 15.91 15.54 15.91H11.84C11.525 15.91 11.285 16.15 11.285 16.465C11.285 16.78 11.525 17.02 11.84 17.02Z" fill="black"/>
</svg>
