<?xml version="1.0" encoding="UTF-8"?>
<svg xmlns="http://www.w3.org/2000/svg" xmlns:xlink="http://www.w3.org/1999/xlink" width="37.5pt" height="37.5pt" viewBox="0 0 37.5 37.5" version="1.1">
<g id="surface3266">
<path style=" stroke:none;fill-rule:nonzero;fill:rgb(0%,0%,0%);fill-opacity:1;" d="M 9.25 1.734375 C 7.167969 1.734375 5.492188 3.410156 5.492188 5.492188 L 5.492188 31.507812 C 5.492188 33.589844 7.167969 35.265625 9.25 35.265625 L 27.75 35.265625 C 29.832031 35.265625 31.507812 33.589844 31.507812 31.507812 L 31.507812 12.429688 C 31.507812 11.9375 31.132812 11.5625 30.640625 11.5625 C 30.148438 11.5625 29.773438 11.9375 29.773438 12.429688 L 29.773438 31.507812 C 29.773438 32.636719 28.878906 33.53125 27.75 33.53125 L 9.25 33.53125 C 8.121094 33.53125 7.226562 32.636719 7.226562 31.507812 L 7.226562 5.492188 C 7.226562 4.363281 8.121094 3.46875 9.25 3.46875 L 23.992188 3.46875 L 23.992188 5.492188 C 23.992188 7.574219 25.667969 9.25 27.75 9.25 L 30.640625 9.25 C 31.132812 9.25 31.507812 8.875 31.507812 8.382812 C 31.507812 4.710938 28.53125 1.734375 24.859375 1.734375 Z M 25.726562 3.554688 C 27.75 3.902344 29.339844 5.519531 29.6875 7.515625 L 27.75 7.515625 C 26.621094 7.515625 25.726562 6.621094 25.726562 5.492188 Z M 13.140625 13.296875 C 12.921875 13.296875 12.703125 13.382812 12.546875 13.558594 C 12.199219 13.902344 12.199219 14.453125 12.546875 14.769531 L 16.273438 18.5 L 12.546875 22.230469 C 12.199219 22.546875 12.199219 23.125 12.546875 23.441406 C 12.71875 23.617188 12.949219 23.703125 13.152344 23.703125 C 13.355469 23.703125 13.585938 23.617188 13.757812 23.441406 L 18.09375 19.105469 C 18.441406 18.761719 18.441406 18.210938 18.09375 17.894531 L 13.757812 13.558594 C 13.585938 13.382812 13.363281 13.296875 13.140625 13.296875 Z M 18.5 24.859375 C 18.007812 24.859375 17.632812 25.234375 17.632812 25.726562 C 17.632812 26.21875 18.007812 26.59375 18.5 26.59375 L 24.28125 26.59375 C 24.773438 26.59375 25.148438 26.21875 25.148438 25.726562 C 25.148438 25.234375 24.773438 24.859375 24.28125 24.859375 Z M 18.5 24.859375 "/>
</g>
</svg>
