<svg width="24" height="24" viewBox="0 0 24 24" fill="none" xmlns="http://www.w3.org/2000/svg">
<g clip-path="url(#clip0_13116_18564)">
<path d="M6.52983 24C6.17411 24 5.88573 23.7116 5.88573 23.3559C5.88573 23.0002 6.17411 22.7118 6.52983 22.7118C6.88556 22.7118 7.17393 23.0002 7.17393 23.3559C7.17393 23.7116 6.88556 24 6.52983 24Z" fill="black"/>
<path d="M8.48722 22.7118H11.4986C10.2606 21.6746 9.5412 20.1605 9.5412 18.5252C9.5412 16.6556 10.4781 14.9366 12.0465 13.9287C12.1887 13.8367 12.3602 13.8032 12.5275 13.8408C12.6948 13.8785 12.837 13.9789 12.929 14.1211C13.021 14.2633 13.0545 14.4347 13.0168 14.602C12.9792 14.7693 12.8788 14.9115 12.7366 15.0036C11.5404 15.794 10.8252 17.1115 10.8252 18.5294C10.8252 20.8381 12.7031 22.716 15.0119 22.716C17.3206 22.716 19.1985 20.8381 19.1985 18.5294C19.1985 16.2207 17.3289 14.3553 15.037 14.3427C14.6814 14.3427 14.3929 14.0541 14.3929 13.6986C14.3929 13.3431 14.6814 13.0545 15.037 13.0545C18.04 13.0796 20.4825 15.5347 20.4825 18.5252C20.4825 21.5156 18.0274 23.9958 15.0119 23.9958H8.48304C8.12335 23.9958 7.83894 23.7156 7.83894 23.3517C7.83894 22.9879 8.11917 22.7076 8.48304 22.7076L8.48722 22.7118Z" fill="black"/>
<path d="M3.55192 18.2575C3.66903 17.3332 4.38842 16.5971 5.30437 16.4632C5.70171 16.4089 6.08649 16.4632 6.45037 16.618L11.2518 11.0762H4.19184C3.8447 11.0762 3.54356 10.8086 3.52265 10.474C3.51428 10.2983 3.57702 10.1226 3.70249 9.99297C3.82378 9.86332 3.99526 9.79221 4.16674 9.79221H12.0381L12.0632 7.69262C12.0632 7.34548 12.356 7.04852 12.7073 7.04852H14.8613C16.1662 7.04852 17.2955 8.08577 17.3833 9.35724C17.4251 10.039 17.1909 10.6914 16.7267 11.1933C16.2624 11.6911 15.6099 11.9796 14.9282 11.988C14.6062 11.988 14.3385 11.7705 14.2757 11.4485C14.2465 11.2603 14.2967 11.0679 14.4179 10.9257C14.5392 10.7835 14.7191 10.6998 14.9157 10.6998C15.2503 10.6998 15.5723 10.5576 15.7982 10.3067C16.024 10.0557 16.1286 9.73366 16.0909 9.3907C16.0407 8.79679 15.5054 8.32835 14.878 8.32835H13.3514L13.3138 10.3318L15.6309 18.3244C15.7145 18.6465 15.5598 18.9894 15.267 19.1149L15.2042 19.1358C15.1457 19.1484 15.0871 19.1651 15.0244 19.1651C14.7442 19.1651 14.489 18.9727 14.4054 18.6967L12.3853 11.7329L7.41233 17.4712C7.65491 17.8895 7.74275 18.3663 7.66328 18.8514C7.51271 19.7465 6.78078 20.4533 5.88155 20.5746C5.78954 20.5871 5.69752 20.5913 5.60551 20.5913C5.07015 20.5913 4.55571 20.3822 4.16674 19.9974C3.70249 19.5415 3.48501 18.9058 3.56447 18.2575H3.55192ZM4.82339 18.5252C4.82339 18.9643 5.1789 19.3199 5.61806 19.3199C6.05722 19.3199 6.41272 18.9643 6.41272 18.5252C6.41272 18.086 6.05722 17.7305 5.61806 17.7305C5.1789 17.7305 4.82339 18.086 4.82339 18.5252Z" fill="black"/>
</g>
<defs>
<clipPath id="clip0_13116_18564">
<rect width="24" height="24" fill="black"/>
</clipPath>
</defs>
</svg>
