<svg width="24" height="24" viewBox="0 0 24 24" fill="none" xmlns="http://www.w3.org/2000/svg">
<path d="M4.875 23.8125C7.27539 23.8125 9.24414 22.0117 9.52539 19.6875H10.6504C10.668 19.6875 10.6875 19.6875 10.707 19.6875L11.0625 20.7754C11.1367 21.0195 11.3633 21.168 11.5879 21.168C11.6445 21.168 11.6992 21.168 11.7559 21.1309C12.0566 21.0371 12.207 20.7188 12.1133 20.418L11.793 19.4629C12.3555 19.2383 12.8438 18.8633 13.2188 18.3555L16.5566 13.668L17.0059 14.9258C15.4883 15.7129 14.4375 17.2871 14.4375 19.125C14.4375 21.7129 16.5371 23.8125 19.125 23.8125C21.7129 23.8125 23.8125 21.7129 23.8125 19.125C23.8125 16.5371 21.7129 14.4375 19.125 14.4375C18.7695 14.4375 18.4316 14.4746 18.0938 14.5508L17.6992 13.4258H20.6816C21.9004 13.4258 22.9316 12.5059 23.0996 11.3066L23.457 8.51172C23.4746 8.34375 23.418 8.19336 23.3242 8.0625C23.2305 7.93164 23.0625 7.875 22.9121 7.875H17.625C17.3066 7.875 17.0625 8.11914 17.0625 8.4375C17.0625 8.75586 17.3066 9 17.625 9H22.2383L21.9746 11.1758C21.8809 11.832 21.3379 12.3184 20.6816 12.3184H17.3066L15.9941 8.625C15.6367 7.72461 14.7754 7.125 13.8008 7.125H12.375C12.0566 7.125 11.8125 7.36914 11.8125 7.6875C11.8125 8.00586 12.0566 8.25 12.375 8.25H13.7812C14.2871 8.25 14.7383 8.55078 14.9258 9.01953L16.125 12.4121C16.0684 12.4492 16.0312 12.4883 15.9941 12.543L12.3184 17.6992C12.0938 18 11.793 18.2441 11.457 18.3945L11.0625 17.2129C10.9688 16.9121 10.6504 16.7617 10.3496 16.8555C10.0508 16.9492 9.90039 17.2695 9.99414 17.5684L10.332 18.5625H9.52539C9.24414 16.2383 7.27539 14.4375 4.875 14.4375C2.28711 14.4375 0.1875 16.5371 0.1875 19.125C0.1875 21.7129 2.28711 23.8125 4.875 23.8125ZM17.418 15.9941L18.5996 19.3125C18.6758 19.5371 18.9004 19.6875 19.125 19.6875C19.1816 19.6875 19.2559 19.668 19.3125 19.6504C19.6133 19.5371 19.7617 19.2188 19.6504 18.9375L18.4688 15.6191C18.6758 15.582 18.9004 15.5625 19.125 15.5625C21.0938 15.5625 22.6875 17.1562 22.6875 19.125C22.6875 21.0938 21.0938 22.6875 19.125 22.6875C17.1562 22.6875 15.5625 21.0938 15.5625 19.125C15.5625 17.7754 16.3125 16.6133 17.418 15.9941ZM4.875 15.5625C6.65625 15.5625 8.11914 16.8555 8.38086 18.5625H4.875C4.55664 18.5625 4.3125 18.8066 4.3125 19.125C4.3125 19.4434 4.55664 19.6875 4.875 19.6875H8.38086C8.11914 21.3945 6.63672 22.6875 4.875 22.6875C2.90625 22.6875 1.3125 21.0938 1.3125 19.125C1.3125 17.1562 2.90625 15.5625 4.875 15.5625Z" fill="black"/>
<path d="M10.9883 11.25C10.9883 10.9316 10.7441 10.6875 10.4258 10.6875H7.125C6.80664 10.6875 6.5625 10.9316 6.5625 11.25C6.5625 11.5684 6.80664 11.8125 7.125 11.8125H8.09961L9.22461 15.168C9.30078 15.4121 9.52539 15.5625 9.75 15.5625C9.80664 15.5625 9.86328 15.5625 9.91797 15.5254C10.2188 15.4316 10.3691 15.1133 10.2754 14.8125L9.28125 11.8125H10.4258C10.7441 11.8125 10.9883 11.5684 10.9883 11.25Z" fill="black"/>
</svg>
