<svg width="24" height="24" viewBox="0 0 24 24" fill="none" xmlns="http://www.w3.org/2000/svg">
<path d="M23.495 20.22L19.7775 4.865C19.72 4.625 19.5 4.44 19.24 4.44H17.39C17.075 4.44 16.835 4.68 16.835 4.995V13.69C16.835 14.005 17.075 14.245 17.39 14.245H20.905L22.2375 19.795H21.2575C20.83 19.13 20.09 18.685 19.24 18.685C18.39 18.685 17.65 19.13 17.2225 19.795H7.3825C6.955 19.13 6.215 18.685 5.365 18.685C4.515 18.685 3.775 19.13 3.3475 19.795H1.3125V5.55H14.43V17.945C14.43 18.26 14.67 18.5 14.985 18.5C15.3 18.5 15.54 18.26 15.54 17.945V4.995C15.54 4.68 15.3 4.44 14.985 4.44H0.7575C0.444999 4.44 0.202499 4.68 0.202499 4.995V20.35C0.202499 20.61 0.3875 20.83 0.63 20.8875C0.664999 20.8875 0.702499 20.905 0.74 20.905H2.9775C2.9775 20.96 2.96 21.035 2.96 21.09C2.96 22.4225 4.0325 23.495 5.365 23.495C6.6975 23.495 7.77 22.4225 7.77 21.09C7.77 21.035 7.77 20.96 7.7525 20.905H16.835C16.835 20.96 16.8175 21.035 16.8175 21.09C16.8175 22.4225 17.89 23.495 19.2225 23.495C20.5525 23.495 21.6275 22.4225 21.6275 21.09C21.6275 21.035 21.6275 20.96 21.6075 20.905H22.9225C23.0875 20.905 23.255 20.83 23.365 20.7025C23.4775 20.5725 23.5325 20.3875 23.495 20.22ZM17.945 13.135V5.55H18.795L20.6275 13.135H17.945ZM5.365 22.385C4.6425 22.385 4.07 21.8125 4.07 21.09C4.07 20.3675 4.6425 19.795 5.365 19.795C6.0875 19.795 6.66 20.3675 6.66 21.09C6.66 21.8125 6.0875 22.385 5.365 22.385ZM19.24 22.385C18.5175 22.385 17.945 21.8125 17.945 21.09C17.945 20.3675 18.5175 19.795 19.24 19.795C19.9625 19.795 20.535 20.3675 20.535 21.09C20.535 21.8125 19.9625 22.385 19.24 22.385Z" fill="black"/>
</svg>
