<svg width="24" height="24" viewBox="0 0 24 24" fill="none" xmlns="http://www.w3.org/2000/svg">
<g clip-path="url(#clip0_13117_341)">
<path d="M2.59 9.435H4.255V18.87C4.255 19.1775 4.5025 19.425 4.81 19.425C5.1175 19.425 5.365 19.1775 5.365 18.87V8.88C5.365 8.5725 5.1175 8.325 4.81 8.325H2.59C1.875 8.325 1.295 7.745 1.295 7.03V2.59C1.295 1.875 1.875 1.295 2.59 1.295H7.03C7.745 1.295 8.325 1.875 8.325 2.59V5.05C8.325 5.3575 8.5725 5.605 8.88 5.605C9.1875 5.605 9.435 5.3575 9.435 5.05V2.59C9.435 1.2625 8.3575 0.184998 7.03 0.184998H2.59C1.2625 0.184998 0.184998 1.2625 0.184998 2.59V7.03C0.184998 8.3575 1.2625 9.435 2.59 9.435Z" fill="black"/>
<path d="M21.09 0.184998H16.65C15.3225 0.184998 14.245 1.2625 14.245 2.59V7.03C14.245 8.3575 15.3225 9.435 16.65 9.435H18.315V18.87C18.315 19.1775 18.5625 19.425 18.87 19.425C19.1775 19.425 19.425 19.1775 19.425 18.87V9.435H21.09C22.4175 9.435 23.495 8.3575 23.495 7.03V2.59C23.495 1.2625 22.4175 0.184998 21.09 0.184998ZM22.385 7.03C22.385 7.745 21.805 8.325 21.09 8.325H16.65C15.935 8.325 15.355 7.745 15.355 7.03V2.59C15.355 1.875 15.935 1.295 16.65 1.295H21.09C21.805 1.295 22.385 1.875 22.385 2.59V7.03Z" fill="black"/>
<path d="M21.09 14.245C20.7825 14.245 20.535 14.4925 20.535 14.8C20.535 15.1075 20.7825 15.355 21.09 15.355C21.805 15.355 22.385 15.935 22.385 16.65V21.09C22.385 21.805 21.805 22.385 21.09 22.385H16.65C15.935 22.385 15.355 21.805 15.355 21.09V16.65C15.355 16.3325 15.4675 16.045 15.6575 15.82C15.6875 15.8 15.72 15.7775 15.7475 15.75C15.775 15.7225 15.8 15.69 15.82 15.6575C16.045 15.4675 16.3325 15.355 16.65 15.355C16.9575 15.355 17.205 15.1075 17.205 14.8C17.205 14.4925 16.9575 14.245 16.65 14.245C16.1875 14.245 15.7575 14.3775 15.39 14.605L5.2025 4.4175C4.985 4.2025 4.635 4.2025 4.4175 4.4175C4.2025 4.635 4.2025 4.985 4.4175 5.2025L14.605 15.39C14.3775 15.7575 14.245 16.1875 14.245 16.65V21.09C14.245 22.4175 15.3225 23.495 16.65 23.495H21.09C22.4175 23.495 23.495 22.4175 23.495 21.09V16.65C23.495 15.3225 22.4175 14.245 21.09 14.245Z" fill="black"/>
<path d="M2.59 23.495H7.03C8.3575 23.495 9.435 22.4175 9.435 21.09V16.65C9.435 15.3225 8.3575 14.245 7.03 14.245C6.7225 14.245 6.475 14.4925 6.475 14.8C6.475 15.1075 6.7225 15.355 7.03 15.355C7.745 15.355 8.325 15.935 8.325 16.65V21.09C8.325 21.805 7.745 22.385 7.03 22.385H2.59C1.875 22.385 1.295 21.805 1.295 21.09V16.65C1.295 15.935 1.875 15.355 2.59 15.355C2.8975 15.355 3.145 15.1075 3.145 14.8C3.145 14.4925 2.8975 14.245 2.59 14.245C1.2625 14.245 0.184998 15.3225 0.184998 16.65V21.09C0.184998 22.4175 1.2625 23.495 2.59 23.495Z" fill="black"/>
</g>
<defs>
<clipPath id="clip0_13117_341">
<rect width="24" height="24" fill="black"/>
</clipPath>
</defs>
</svg>
