<svg xmlns="http://www.w3.org/2000/svg" viewBox="-0.5 -0.5 24 24" id="Book-Library-2--Streamline-Ultimate">
  <desc>
    Book Library 2 Streamline Icon: https://streamlinehq.com
  </desc>
  <defs></defs>
  <title>book-library-2</title>
  <path d="M3.59375 0.71875h2.875s1.4375 0 1.4375 1.4375V15.8125s0 1.4375 -1.4375 1.4375h-2.875s-1.4375 0 -1.4375 -1.4375V2.15625s0 -1.4375 1.4375 -1.4375" fill="none" stroke="currentColor" stroke-linecap="round" stroke-linejoin="round" stroke-width="1"></path>
  <path d="M9.34375 0.71875h2.875s1.4375 0 1.4375 1.4375V15.8125s0 1.4375 -1.4375 1.4375h-2.875s-1.4375 0 -1.4375 -1.4375V2.15625s0 -1.4375 1.4375 -1.4375" fill="none" stroke="currentColor" stroke-linecap="round" stroke-linejoin="round" stroke-width="1"></path>
  <path d="m15.798883069937501 2.3132384335333334 1.4225626041916666 -0.20669273600416668s1.4225626041916666 -0.20669273600416668 1.6292553402916667 1.2158698681875002l1.7568882560833334 12.091782135725001s0.2066927361 1.4225626041916666 -1.2158698680916669 1.6292553402916667l-1.4225626041916666 0.20669273590833334s-1.4225626041916666 0.2066927361 -1.6292553402916667 -1.2158698680916669l-1.7568882560833334 -12.091782135725001s-0.2066927361 -1.4225626042875 1.2158698680916669 -1.6292553402916667" fill="none" stroke="currentColor" stroke-linecap="round" stroke-linejoin="round" stroke-width="1"></path>
  <path d="M0.71875 18.6875a1.4375 1.4375 0 0 0 1.4375 1.4375h18.6875a1.4375 1.4375 0 0 0 0 -2.875H2.15625a1.4375 1.4375 0 0 0 -1.4375 1.4375Z" fill="none" stroke="currentColor" stroke-linecap="round" stroke-linejoin="round" stroke-width="1"></path>
  <path d="m2.875 20.125 0 2.15625" fill="none" stroke="currentColor" stroke-linecap="round" stroke-linejoin="round" stroke-width="1"></path>
  <path d="m20.125 20.125 0 2.15625" fill="none" stroke="currentColor" stroke-linecap="round" stroke-linejoin="round" stroke-width="1"></path>
</svg>