<svg width="24" height="24" viewBox="0 0 24 24" fill="none" xmlns="http://www.w3.org/2000/svg">
<g clip-path="url(#clip0_13116_830)">
<path d="M9.195 15.355L2.6825 16.5025C2.3875 16.5575 2.1825 16.835 2.2375 17.15L2.8125 20.405C3.145 22.275 4.7725 23.605 6.6225 23.605C6.845 23.605 7.0675 23.5875 7.29 23.55C9.38 23.18 10.785 21.165 10.415 19.0725L9.8425 15.8175C9.7875 15.5025 9.49 15.3 9.195 15.355ZM7.085 22.44C5.5875 22.7 4.1625 21.7 3.9025 20.2025L3.4225 17.4825L8.8425 16.52L9.325 19.24C9.5825 20.7575 8.585 22.1825 7.085 22.44Z" fill="black"/>
<path d="M2.1275 15.41C2.1825 15.41 2.2575 15.3925 2.3125 15.3725C2.6075 15.2625 2.7575 14.9475 2.645 14.6525C1.5725 11.73 0.647501 8.25001 1.8875 4.51501C2.1275 3.81001 2.535 3.05251 3.0525 2.31251C3.5525 1.62751 4.2175 1.24001 4.9575 1.18501C5.735 1.14751 6.475 1.48001 7.085 2.11001C8.25 3.34751 8.8625 4.99501 8.8975 6.99251C8.955 9.15751 8.805 11.34 8.6775 13.4675C8.6575 13.7825 8.88 14.0425 9.195 14.06C9.49 14.0775 9.7675 13.8575 9.7875 13.5425C9.915 11.415 10.065 9.19501 10.0075 6.97501C9.9525 4.70001 9.25 2.81251 7.88 1.35001C7.0475 0.462514 5.995 0.0175141 4.9025 0.0750144C3.8475 0.147514 2.8675 0.722514 2.165 1.66501C1.5725 2.49751 1.11 3.33001 0.832501 4.16251C-0.517499 8.23251 0.462501 11.95 1.59 15.04C1.6825 15.2625 1.905 15.41 2.1275 15.41Z" fill="black"/>
<path d="M16.39 23.5325C16.6125 23.57 16.835 23.5875 17.0575 23.5875C18.8875 23.5875 20.535 22.275 20.8675 20.3875L21.4425 17.13C21.4975 16.835 21.2925 16.54 20.9975 16.4825L14.485 15.355C14.19 15.3 13.8925 15.5025 13.8375 15.8L13.265 19.055C12.895 21.165 14.3 23.1625 16.39 23.5325ZM14.355 19.2575L14.8375 16.54L20.2575 17.5L19.7775 20.22C19.5175 21.72 18.0925 22.7175 16.595 22.46C15.095 22.1825 14.0975 20.7575 14.355 19.2575Z" fill="black"/>
<path d="M22.8475 4.16251C22.57 3.34751 22.125 2.49751 21.515 1.66501C20.83 0.722514 19.85 0.147514 18.7775 0.0925139C17.685 0.0375141 16.6325 0.480014 15.8 1.37001C14.43 2.81251 13.7275 4.70001 13.6725 6.97501C13.615 9.19501 13.765 11.395 13.8925 13.5425C13.9125 13.8575 14.19 14.0775 14.485 14.06C14.8 14.0425 15.0225 13.7825 15.0025 13.4675C14.875 11.36 14.725 9.17501 14.7825 6.99251C14.8375 4.99501 15.4475 3.34751 16.595 2.11001C17.205 1.48001 17.945 1.14751 18.7025 1.20251C19.4425 1.24001 20.1275 1.64751 20.61 2.33001C21.145 3.07001 21.5525 3.81001 21.775 4.53251C23.015 8.27001 22.09 11.765 21.015 14.69C20.905 14.985 21.0525 15.3 21.35 15.41C21.405 15.43 21.4775 15.4475 21.535 15.4475C21.755 15.4475 21.9775 15.3 22.0525 15.0775C23.2175 11.9325 24.1975 8.21501 22.8475 4.16251Z" fill="black"/>
</g>
<defs>
<clipPath id="clip0_13116_830">
<rect width="24" height="24" fill="black"/>
</clipPath>
</defs>
</svg>
