<svg width="24" height="24" viewBox="0 0 24 24" fill="none" xmlns="http://www.w3.org/2000/svg">
<path d="M13.3125 8.62501C12.9941 8.62501 12.75 8.86915 12.75 9.18751C12.75 9.50587 12.9941 9.75001 13.3125 9.75001H16.125C16.2754 9.75001 16.4258 9.69337 16.5195 9.58204L18.2617 7.8379C18.5254 7.96876 18.8242 8.04298 19.125 8.04298C20.1562 8.04298 21 7.19923 21 6.16798C21 5.13673 20.1562 4.29298 19.125 4.29298C18.0938 4.29298 17.25 5.13673 17.25 6.16798C17.25 6.48829 17.3242 6.76954 17.457 7.03126L15.9004 8.62501H13.3125ZM19.125 5.43751C19.5371 5.43751 19.875 5.7754 19.875 6.18751C19.875 6.59962 19.5371 6.93751 19.125 6.93751C18.7129 6.93751 18.375 6.59962 18.375 6.18751C18.375 5.7754 18.7129 5.43751 19.125 5.43751Z" fill="black"/>
<path d="M20.8125 10.125C19.9688 10.125 19.2559 10.668 19.0312 11.4375H13.3125C12.9941 11.4375 12.75 11.6816 12.75 12C12.75 12.3184 12.9941 12.5625 13.3125 12.5625H19.0312C19.2754 13.332 19.9883 13.875 20.8125 13.875C21.8438 13.875 22.6875 13.0312 22.6875 12C22.6875 10.9688 21.8438 10.125 20.8125 10.125ZM20.8125 12.75C20.4004 12.75 20.0625 12.4121 20.0625 12C20.0625 11.5879 20.4004 11.25 20.8125 11.25C21.2246 11.25 21.5625 11.5879 21.5625 12C21.5625 12.4121 21.2246 12.75 20.8125 12.75Z" fill="black"/>
<path d="M14.25 1.6875C13.2188 1.6875 12.375 2.53125 12.375 3.5625C12.375 4.59375 13.2188 5.4375 14.25 5.4375C15.2812 5.4375 16.125 4.59375 16.125 3.5625C16.125 2.53125 15.2812 1.6875 14.25 1.6875ZM14.25 4.3125C13.8379 4.3125 13.5 3.97461 13.5 3.5625C13.5 3.15039 13.8379 2.8125 14.25 2.8125C14.6621 2.8125 15 3.15039 15 3.5625C15 3.97461 14.6621 4.3125 14.25 4.3125Z" fill="black"/>
<path d="M19.125 19.6875C20.1562 19.6875 21 18.8438 21 17.8125C21 16.7812 20.1562 15.9375 19.125 15.9375C18.8066 15.9375 18.5254 16.0117 18.2617 16.1445L16.5195 14.4004C16.4258 14.3066 16.2754 14.25 16.125 14.25H13.3125C12.9941 14.25 12.75 14.4941 12.75 14.8125C12.75 15.1309 12.9941 15.375 13.3125 15.375H15.9004L17.4746 16.9492C17.3438 17.2129 17.2695 17.5117 17.2695 17.8125C17.25 18.8438 18.0938 19.6875 19.125 19.6875ZM19.125 17.0625C19.5371 17.0625 19.875 17.4004 19.875 17.8125C19.875 18.2246 19.5371 18.5625 19.125 18.5625C18.7129 18.5625 18.375 18.2246 18.375 17.8125C18.375 17.4004 18.7129 17.0625 19.125 17.0625Z" fill="black"/>
<path d="M14.25 22.3125C15.2812 22.3125 16.125 21.4688 16.125 20.4375C16.125 19.4062 15.2812 18.5625 14.25 18.5625C13.2188 18.5625 12.375 19.4062 12.375 20.4375C12.375 21.4688 13.2188 22.3125 14.25 22.3125ZM14.25 19.6875C14.6621 19.6875 15 20.0254 15 20.4375C15 20.8496 14.6621 21.1875 14.25 21.1875C13.8379 21.1875 13.5 20.8496 13.5 20.4375C13.5 20.0254 13.8379 19.6875 14.25 19.6875Z" fill="black"/>
<path d="M9.1875 2.6621C8.23047 2.6621 7.42578 3.24413 7.08789 4.08788C6.86328 4.01171 6.61914 3.9746 6.375 3.9746C5.02539 3.9746 3.9375 5.06249 3.9375 6.4121C3.9375 6.4121 3.9375 6.4121 3.9375 6.43163C2.75586 6.69335 1.85547 7.74413 1.85547 8.99999C1.85547 9.37499 1.93164 9.73046 2.08203 10.0684C1.36914 10.707 0.9375 11.625 0.9375 12.5996C0.9375 13.4805 1.27539 14.2871 1.85547 14.9062C1.85547 15.4492 1.875 16.2754 1.875 16.3496C1.875 18.1309 3.28125 19.6133 5.04297 19.7246C5.60547 20.8691 6.76953 21.5996 8.0625 21.5996C9.91797 21.5996 11.4375 20.082 11.4375 18.2246V4.9121C11.4375 3.67577 10.4258 2.6621 9.1875 2.6621ZM7.05078 12.5996C6.78711 12.5996 6.5625 12.7871 6.50586 13.0508C6.30078 14.082 5.38086 14.8496 4.29297 14.8496C3.86328 14.8496 3.44922 14.7187 3.09375 14.4941C2.4375 14.082 2.04297 13.3691 2.04297 12.5996C2.04297 11.8691 2.40039 11.2129 2.98047 10.7812H3.71289C3.99414 10.7812 4.23828 10.5937 4.29297 10.332C4.36914 9.9746 4.08789 9.65624 3.75 9.65624H3.15039C3.03711 9.44921 2.98047 9.2246 2.98047 8.98046C2.98047 8.24999 3.50586 7.65038 4.19922 7.51952C4.59375 8.2871 5.38086 8.83202 6.30078 8.8496C6.61914 8.8496 6.90039 8.62499 6.91797 8.30663C6.9375 7.98827 6.67578 7.7246 6.35547 7.7246C5.77539 7.7246 5.26953 7.33202 5.09961 6.80663C5.08203 6.74999 5.0625 6.69335 5.0625 6.63671C5.0625 6.61913 5.0625 6.61913 5.0625 6.5996C5.0625 6.54296 5.04297 6.48827 5.04297 6.4121C5.04297 5.68163 5.625 5.0996 6.35547 5.0996C6.63672 5.0996 6.91797 5.19335 7.14453 5.36327C7.27539 5.45702 7.46289 5.51171 7.63086 5.45702C7.875 5.38085 8.04297 5.15624 8.04297 4.9121C8.04297 4.9121 8.04297 4.9121 8.04297 4.89452C8.04297 4.23827 8.64453 3.69335 9.31836 3.7871C9.88086 3.86327 10.293 4.36913 10.293 4.94921V18.1504C10.293 19.2383 9.54297 20.2129 8.49414 20.418C7.36914 20.6445 6.30078 19.9883 5.92578 18.957C5.84961 18.7129 5.60547 18.5625 5.36328 18.582H5.30664C5.28711 18.582 5.25 18.582 5.23047 18.582C3.99414 18.582 2.98047 17.5684 2.98047 16.332C2.98047 16.293 2.98047 16.0117 3 15.6934C3.39453 15.8633 3.84375 15.957 4.29297 15.957C5.92578 15.957 7.29297 14.793 7.61328 13.2383C7.6875 12.9004 7.42578 12.582 7.06836 12.582H7.05078V12.5996Z" fill="black"/>
</svg>
