<svg width="24" height="24" viewBox="0 0 24 24" fill="none" xmlns="http://www.w3.org/2000/svg">
<path fill-rule="evenodd" clip-rule="evenodd" d="M0.198311 5.86363C0.153346 6.03674 0.175828 6.20985 0.261262 6.36049L1.90248 9.18878C2.03288 9.40461 2.24871 9.51252 2.46454 9.51252C2.57246 9.51252 2.68037 9.49004 2.78829 9.42484L9.39138 5.60508C9.54201 5.51964 9.64993 5.36901 9.69489 5.21613C9.73761 5.0655 9.71513 4.87215 9.62969 4.72152L7.98847 1.87074C7.90304 1.72011 7.75241 1.6122 7.59953 1.56948C7.42866 1.52676 7.25555 1.547 7.10491 1.63468L0.499576 5.47693C0.348943 5.56236 0.241027 5.69276 0.198311 5.86363ZM7.19035 3.10278L8.18407 4.82943L2.70061 7.97922L1.70913 6.25257L7.19035 3.10278Z" fill="black"/>
<path fill-rule="evenodd" clip-rule="evenodd" d="M0.76183 18.7021C0.443471 18.7021 0.19933 18.458 0.19933 18.1396C0.19933 17.8212 0.443471 17.5771 0.76183 17.5771H4.51183V14.9521H3.94933C3.63097 14.9521 3.38683 14.708 3.38683 14.3896C3.38683 14.0712 3.63097 13.8271 3.94933 13.8271H12.9493V10.6396C12.9493 10.3212 13.1935 10.0771 13.5118 10.0771H23.2618C23.5802 10.0771 23.8243 10.3212 23.8243 10.6396C23.8243 10.958 23.5802 11.2021 23.2618 11.2021H19.6993V13.8271H23.2618C23.5802 13.8271 23.8243 14.0712 23.8243 14.3896C23.8243 14.708 23.5802 14.9521 23.2618 14.9521H22.5118V17.5771H23.2618C23.5802 17.5771 23.8243 17.8212 23.8243 18.1396C23.8243 18.458 23.5802 18.7021 23.2618 18.7021H19.6993V21.3271H23.2618C23.5802 21.3271 23.8243 21.5712 23.8243 21.8896C23.8243 22.208 23.5802 22.4521 23.2618 22.4521H0.76183C0.443471 22.4521 0.19933 22.208 0.19933 21.8896C0.19933 21.5712 0.443471 21.3271 0.76183 21.3271H1.69933V18.7021H0.76183ZM10.1368 14.9521H5.63683V17.5771H10.1368V14.9521ZM11.2618 14.9521V17.5771H15.7618V14.9521H11.2618ZM14.0743 11.2021V13.8271H18.5743V11.2021H14.0743ZM21.3868 17.5771V14.9521H16.8868V17.5771H21.3868ZM18.5743 21.3271V18.7021H14.0743V21.3271H18.5743ZM8.44933 21.3271H12.9493V18.7021H8.44933V21.3271ZM2.82433 21.3271H7.32433V18.7021H2.82433V21.3271Z" fill="black"/>
<path d="M0.76183 14.9521C0.443471 14.9521 0.179799 14.6904 0.19933 14.3525C0.218862 14.0517 0.48058 13.8271 0.79894 13.8271H1.69933C2.00011 13.8271 2.26183 14.0712 2.26183 14.3896V14.4091C2.26183 14.708 2.01769 14.9716 1.69933 14.9716H0.76183V14.9521Z" fill="black"/>
</svg>
