<svg width="24" height="24" viewBox="0 0 24 24" fill="none" xmlns="http://www.w3.org/2000/svg">
<path d="M19.24 21.645H4.44C3.1075 21.645 2.035 20.5725 2.035 19.24V14.06C2.035 13.745 2.275 13.505 2.59 13.505C2.905 13.505 3.145 13.745 3.145 14.06V19.24C3.145 19.9625 3.7175 20.535 4.44 20.535H19.24C19.9625 20.535 20.535 19.9625 20.535 19.24V14.06C20.535 13.745 20.775 13.505 21.09 13.505C21.405 13.505 21.645 13.745 21.645 14.06V19.24C21.645 20.5725 20.5725 21.645 19.24 21.645Z" fill="black"/>
<path d="M11.84 14.4125C8.5475 14.4125 5.255 13.5225 2.3125 11.765C2.145 11.655 2.035 11.4875 2.035 11.285V8.13997C2.035 6.80747 3.1075 5.73497 4.44 5.73497H19.24C20.5725 5.73497 21.645 6.80747 21.645 8.13997V11.285C21.645 11.4875 21.535 11.655 21.3675 11.765C18.425 13.5225 15.1325 14.4125 11.84 14.4125ZM3.145 10.97C8.5275 14.0775 15.1525 14.0775 20.535 10.97V8.13997C20.535 7.41747 19.9625 6.84497 19.24 6.84497H4.44C3.7175 6.84497 3.145 7.41747 3.145 8.13997V10.97Z" fill="black"/>
<path d="M15.17 4.99497C14.855 4.99497 14.615 4.75497 14.615 4.43997C14.615 3.71747 14.0425 3.14497 13.32 3.14497H10.36C9.6375 3.14497 9.065 3.71747 9.065 4.43997C9.065 4.75497 8.825 4.99497 8.51 4.99497C8.195 4.99497 7.955 4.75497 7.955 4.43997C7.955 3.10747 9.0275 2.03497 10.36 2.03497H13.32C14.6525 2.03497 15.725 3.10747 15.725 4.43997C15.725 4.75497 15.485 4.99497 15.17 4.99497Z" fill="black"/>
</svg>
