<svg width="24" height="24" viewBox="0 0 24 24" fill="none" xmlns="http://www.w3.org/2000/svg">
<g clip-path="url(#clip0_13116_18592)">
<path d="M21.1875 14.625V9.9375C21.1875 9.11328 20.5117 8.4375 19.6875 8.4375H4.31251C3.48829 8.4375 2.81251 9.11328 2.81251 9.9375V14.625C2.81251 15.4492 3.48829 16.125 4.31251 16.125H19.6875C20.5117 16.125 21.1875 15.4492 21.1875 14.625ZM20.0625 14.625C20.0625 14.832 19.8945 15 19.6875 15H4.31251C4.10548 15 3.93751 14.832 3.93751 14.625V9.9375C3.93751 9.73047 4.10548 9.5625 4.31251 9.5625H19.6875C19.8945 9.5625 20.0625 9.73047 20.0625 9.9375V14.625Z" fill="black"/>
<path d="M23.25 21.75C22.9317 21.75 22.6875 21.9941 22.6875 22.3125V23.25C22.6875 23.5684 22.9317 23.8125 23.25 23.8125C23.5684 23.8125 23.8125 23.5684 23.8125 23.25V22.3125C23.8125 21.9941 23.5684 21.75 23.25 21.75Z" fill="black"/>
<path d="M21.375 0.1875H2.62503C1.27542 0.1875 0.187531 1.27539 0.187531 2.625V23.25C0.187531 23.5684 0.431671 23.8125 0.750031 23.8125C1.06839 23.8125 1.31253 23.5684 1.31253 23.25V6.9375H22.6875V18.5625C22.6875 18.8809 22.9317 19.125 23.25 19.125C23.5684 19.125 23.8125 18.8809 23.8125 18.5625V2.625C23.8125 1.27539 22.7246 0.1875 21.375 0.1875ZM22.6875 5.8125H1.31253V2.625C1.31253 1.89453 1.89456 1.3125 2.62503 1.3125H21.375C22.1055 1.3125 22.6875 1.89453 22.6875 2.625V5.8125Z" fill="black"/>
<path d="M4.87499 3H2.99999C2.68163 3 2.43749 3.24414 2.43749 3.5625C2.43749 3.88086 2.68163 4.125 2.99999 4.125H4.87499C5.19335 4.125 5.43749 3.88086 5.43749 3.5625C5.43749 3.24414 5.19335 3 4.87499 3Z" fill="black"/>
<path d="M21 3H7.87501C7.55665 3 7.31251 3.24414 7.31251 3.5625C7.31251 3.88086 7.55665 4.125 7.87501 4.125H21C21.3184 4.125 21.5625 3.88086 21.5625 3.5625C21.5625 3.24414 21.3184 3 21 3Z" fill="black"/>
<path d="M10.6875 18.1875H3.93753C3.61917 18.1875 3.37503 18.4316 3.37503 18.75C3.37503 19.0684 3.61917 19.3125 3.93753 19.3125H10.6875C11.0059 19.3125 11.25 19.0684 11.25 18.75C11.25 18.4316 11.0059 18.1875 10.6875 18.1875Z" fill="black"/>
<path d="M20.0625 23.8125C20.3809 23.8125 20.625 23.5684 20.625 23.25V18.75C20.625 18.4316 20.3809 18.1875 20.0625 18.1875H14.4375C14.1192 18.1875 13.875 18.4316 13.875 18.75V23.25C13.875 23.5684 14.1192 23.8125 14.4375 23.8125C14.7559 23.8125 15 23.5684 15 23.25V19.3125H19.5V23.25C19.5 23.5684 19.7442 23.8125 20.0625 23.8125Z" fill="black"/>
<path d="M10.6875 20.8125H3.93753C3.61917 20.8125 3.37503 21.0566 3.37503 21.375C3.37503 21.6934 3.61917 21.9375 3.93753 21.9375H10.6875C11.0059 21.9375 11.25 21.6934 11.25 21.375C11.25 21.0566 11.0059 20.8125 10.6875 20.8125Z" fill="black"/>
<path d="M14.625 11.6621C14.418 11.5684 14.2129 11.4941 14.0059 11.4746C13.2754 11.4004 12.75 11.9063 12.3379 12.3008C12.0742 12.543 11.8125 12.8066 11.6055 12.8242C11.3067 12.8633 10.8946 12.3379 10.5567 11.9063C10.0508 11.2695 9.46877 10.5566 8.64455 10.668C8.1758 10.7246 7.87502 11.1563 7.29299 11.9434C7.12502 12.168 6.93752 12.4121 6.75002 12.6758C6.56252 12.918 6.59963 13.2754 6.84377 13.4629C7.08791 13.6504 7.44338 13.6133 7.63088 13.3691C7.83791 13.1055 8.02541 12.8438 8.19338 12.6191C8.41799 12.3184 8.69924 11.9258 8.83205 11.793C9.05666 11.8496 9.41213 12.3008 9.6758 12.6191C10.1817 13.2383 10.7442 13.9492 11.5684 13.9492C11.625 13.9492 11.6817 13.9492 11.7188 13.9492C12.3008 13.8945 12.7305 13.4805 13.1055 13.125C13.3867 12.8438 13.668 12.582 13.875 12.5996C13.9317 12.5996 14.0254 12.6367 14.0996 12.6758C14.3809 12.8066 14.7188 12.6934 14.8496 12.4121C15.0196 12.1309 14.9063 11.793 14.625 11.6621Z" fill="black"/>
<path d="M16.875 13.3125C16.875 13.623 16.623 13.875 16.3125 13.875C16.0019 13.875 15.75 13.623 15.75 13.3125C15.75 13.002 16.0019 12.75 16.3125 12.75C16.623 12.75 16.875 13.002 16.875 13.3125Z" fill="black"/>
</g>
<defs>
<clipPath id="clip0_13116_18592">
<rect width="24" height="24" fill="black"/>
</clipPath>
</defs>
</svg>
