<svg width="24" height="24" viewBox="0 0 24 24" fill="none" xmlns="http://www.w3.org/2000/svg">
<g clip-path="url(#clip0_13116_18574)">
<path d="M10.3125 11.7639H3.56251C3.24415 11.7639 3.00001 12.008 3.00001 12.3264C3.00001 12.6447 3.24415 12.8889 3.56251 12.8889H10.3125C10.6309 12.8889 10.875 12.6447 10.875 12.3264C10.875 12.008 10.6309 11.7639 10.3125 11.7639Z" fill="black"/>
<path d="M10.3125 9.13887H3.56251C3.24415 9.13887 3.00001 9.38301 3.00001 9.70137C3.00001 10.0197 3.24415 10.2639 3.56251 10.2639H10.3125C10.6309 10.2639 10.875 10.0197 10.875 9.70137C10.875 9.38301 10.6309 9.13887 10.3125 9.13887Z" fill="black"/>
<path d="M7.12499 2.4375H6.37499C6.05663 2.4375 5.81249 2.68164 5.81249 3C5.81249 3.31836 6.05663 3.5625 6.37499 3.5625H7.12499C7.44335 3.5625 7.68749 3.31836 7.68749 3C7.68749 2.68164 7.44335 2.4375 7.12499 2.4375Z" fill="black"/>
<path d="M4.125 2.4375H3.375C3.05664 2.4375 2.8125 2.68164 2.8125 3C2.8125 3.31836 3.05664 3.5625 3.375 3.5625H4.125C4.44336 3.5625 4.6875 3.31836 4.6875 3C4.6875 2.68164 4.44336 2.4375 4.125 2.4375Z" fill="black"/>
<path d="M23.25 21.75C22.9316 21.75 22.6875 21.9941 22.6875 22.3125V23.25C22.6875 23.5684 22.9316 23.8125 23.25 23.8125C23.5683 23.8125 23.8125 23.5684 23.8125 23.25V22.3125C23.8125 21.9941 23.5683 21.75 23.25 21.75Z" fill="black"/>
<path d="M21.375 0.1875H2.62502C1.27541 0.1875 0.187515 1.27539 0.187515 2.625V23.25C0.187515 23.5684 0.431656 23.8125 0.750015 23.8125C1.06837 23.8125 1.31252 23.5684 1.31252 23.25V6.9375H22.6875V18.5625C22.6875 18.8809 22.9317 19.125 23.25 19.125C23.5684 19.125 23.8125 18.8809 23.8125 18.5625V2.625C23.8125 1.27539 22.7246 0.1875 21.375 0.1875ZM22.6875 5.8125H1.31252V2.625C1.31252 1.89453 1.89455 1.3125 2.62502 1.3125H21.375C22.1055 1.3125 22.6875 1.89453 22.6875 2.625V5.8125Z" fill="black"/>
</g>
<defs>
<clipPath id="clip0_13116_18574">
<rect width="24" height="24" fill="black"/>
</clipPath>
</defs>
</svg>
