<svg width="24" height="24" viewBox="0 0 24 24" fill="none" xmlns="http://www.w3.org/2000/svg">
<g clip-path="url(#clip0_13116_18582)">
<path d="M7.12507 2.4375H6.37507C6.05672 2.4375 5.81257 2.68164 5.81257 3C5.81257 3.31836 6.05672 3.5625 6.37507 3.5625H7.12507C7.44343 3.5625 7.68757 3.31836 7.68757 3C7.68757 2.68164 7.44343 2.4375 7.12507 2.4375Z" fill="black"/>
<path d="M4.12508 2.4375H3.37508C3.05672 2.4375 2.81258 2.68164 2.81258 3C2.81258 3.31836 3.05672 3.5625 3.37508 3.5625H4.12508C4.44344 3.5625 4.68758 3.31836 4.68758 3C4.68758 2.68164 4.44344 2.4375 4.12508 2.4375Z" fill="black"/>
<path d="M23.2501 21.75C22.9317 21.75 22.6876 21.9941 22.6876 22.3125V23.25C22.6876 23.5684 22.9317 23.8125 23.2501 23.8125C23.5684 23.8125 23.8126 23.5684 23.8126 23.25V22.3125C23.8126 21.9941 23.5684 21.75 23.2501 21.75Z" fill="black"/>
<path d="M21.375 0.1875H2.62503C1.27542 0.1875 0.187531 1.27539 0.187531 2.625V23.25C0.187531 23.5684 0.431671 23.8125 0.750031 23.8125C1.06839 23.8125 1.31253 23.5684 1.31253 23.25V6.9375H22.6875V18.5625C22.6875 18.8809 22.9317 19.125 23.25 19.125C23.5684 19.125 23.8125 18.8809 23.8125 18.5625V2.625C23.8125 1.27539 22.7246 0.1875 21.375 0.1875ZM22.6875 5.8125H1.31253V2.625C1.31253 1.89453 1.89456 1.3125 2.62503 1.3125H21.375C22.1055 1.3125 22.6875 1.89453 22.6875 2.625V5.8125Z" fill="black"/>
<path d="M10.6875 18.1875H3.93752C3.61916 18.1875 3.37502 18.4316 3.37502 18.75C3.37502 19.0684 3.61916 19.3125 3.93752 19.3125H10.6875C11.0059 19.3125 11.25 19.0684 11.25 18.75C11.25 18.4316 11.0059 18.1875 10.6875 18.1875Z" fill="black"/>
<path d="M10.6875 20.8125H3.93752C3.61916 20.8125 3.37502 21.0566 3.37502 21.375C3.37502 21.6934 3.61916 21.9375 3.93752 21.9375H10.6875C11.0059 21.9375 11.25 21.6934 11.25 21.375C11.25 21.0566 11.0059 20.8125 10.6875 20.8125Z" fill="black"/>
<path d="M14.625 11.6621C14.418 11.5684 14.2129 11.4941 14.0059 11.4746C13.2754 11.4004 12.75 11.9063 12.3379 12.3008C12.0742 12.543 11.8125 12.8066 11.6055 12.8242C11.3066 12.8633 10.8945 12.3379 10.5566 11.9063C10.0508 11.2695 9.46876 10.5566 8.64454 10.668C8.17579 10.7246 7.87501 11.1563 7.29298 11.9434C7.12501 12.168 6.93751 12.4121 6.75001 12.6758C6.56251 12.918 6.59962 13.2754 6.84376 13.4629C7.0879 13.6504 7.44337 13.6133 7.63087 13.3691C7.8379 13.1055 8.0254 12.8438 8.19337 12.6191C8.41798 12.3184 8.69923 11.9258 8.83204 11.793C9.05665 11.8496 9.41212 12.3008 9.67579 12.6191C10.1816 13.2383 10.7441 13.9492 11.5684 13.9492C11.625 13.9492 11.6816 13.9492 11.7188 13.9492C12.3008 13.8945 12.7305 13.4805 13.1055 13.125C13.3867 12.8438 13.668 12.582 13.875 12.5996C13.9317 12.5996 14.0254 12.6367 14.0996 12.6758C14.3809 12.8066 14.7188 12.6934 14.8496 12.4121C15.0195 12.1309 14.9063 11.793 14.625 11.6621Z" fill="black"/>
<path d="M16.875 13.3125C16.875 13.623 16.6231 13.875 16.3125 13.875C16.002 13.875 15.75 13.623 15.75 13.3125C15.75 13.002 16.002 12.75 16.3125 12.75C16.6231 12.75 16.875 13.002 16.875 13.3125Z" fill="black"/>
</g>
<defs>
<clipPath id="clip0_13116_18582">
<rect width="24" height="24" fill="black"/>
</clipPath>
</defs>
</svg>
