<svg width="24" height="24" viewBox="0 0 24 24" fill="none" xmlns="http://www.w3.org/2000/svg">
<g clip-path="url(#clip0_12916_46183)">
<path d="M2.8125 3.375C2.8125 3.05664 3.05664 2.8125 3.375 2.8125H4.125C4.44336 2.8125 4.6875 3.05664 4.6875 3.375C4.6875 3.69336 4.44336 3.9375 4.125 3.9375H3.375C3.05664 3.9375 2.8125 3.69336 2.8125 3.375Z" fill="black"/>
<path d="M7.6875 3.375C7.6875 3.05664 7.44336 2.8125 7.125 2.8125H6.375C6.05664 2.8125 5.8125 3.05664 5.8125 3.375C5.8125 3.69336 6.05664 3.9375 6.375 3.9375H7.125C7.44336 3.9375 7.6875 3.69336 7.6875 3.375Z" fill="black"/>
<path fill-rule="evenodd" clip-rule="evenodd" d="M0.1875 2.625C0.1875 1.27539 1.27539 0.1875 2.625 0.1875H21.375C22.7246 0.1875 23.8125 1.27539 23.8125 2.625V12C23.8125 12.3184 23.5684 12.5625 23.25 12.5625C22.9316 12.5625 22.6875 12.3184 22.6875 12V6.5625H1.3125V8.25C1.3125 8.56836 1.06836 8.8125 0.75 8.8125C0.431641 8.8125 0.1875 8.56836 0.1875 8.25V2.625ZM2.625 1.3125C1.89453 1.3125 1.3125 1.89453 1.3125 2.625V5.4375H22.6875V2.625C22.6875 1.89453 22.1055 1.3125 21.375 1.3125H2.625Z" fill="black"/>
<path fill-rule="evenodd" clip-rule="evenodd" d="M23.25 20.0625C23.5684 20.0625 23.8125 19.8184 23.8125 19.5C23.8125 19.1816 23.5684 18.9375 23.25 18.9375H19.5V16.3125H20.0625C20.3809 16.3125 20.625 16.0684 20.625 15.75C20.625 15.4316 20.3809 15.1875 20.0625 15.1875H11.0625V12C11.0625 11.6816 10.8184 11.4375 10.5 11.4375H0.75C0.431641 11.4375 0.1875 11.6816 0.1875 12C0.1875 12.3184 0.431641 12.5625 0.75 12.5625H4.3125V15.1875H0.75C0.431641 15.1875 0.1875 15.4316 0.1875 15.75C0.1875 16.0684 0.431641 16.3125 0.75 16.3125H1.5V18.9375H0.75C0.431641 18.9375 0.1875 19.1816 0.1875 19.5C0.1875 19.8184 0.431641 20.0625 0.75 20.0625H4.3125V22.6875H0.75C0.431641 22.6875 0.1875 22.9316 0.1875 23.25C0.1875 23.5684 0.431641 23.8125 0.75 23.8125H23.25C23.5684 23.8125 23.8125 23.5684 23.8125 23.25C23.8125 22.9316 23.5684 22.6875 23.25 22.6875H22.3125V20.0625H23.25ZM13.875 16.3125H18.375V18.9375H13.875V16.3125ZM12.75 16.3125V18.9375H8.25V16.3125H12.75ZM9.9375 12.5625V15.1875H5.4375V12.5625H9.9375ZM2.625 18.9375V16.3125H7.125V18.9375H2.625ZM5.4375 22.6875V20.0625H9.9375V22.6875H5.4375ZM15.5625 22.6875H11.0625V20.0625H15.5625V22.6875ZM21.1875 22.6875H16.6875V20.0625H21.1875V22.6875Z" fill="black"/>
<path d="M23.25 16.3125C23.5684 16.3125 23.832 16.0508 23.8125 15.7129C23.793 15.4121 23.5312 15.1875 23.2129 15.1875H22.3125C22.0117 15.1875 21.75 15.4316 21.75 15.75V15.7695C21.75 16.0684 21.9941 16.332 22.3125 16.332H23.25V16.3125Z" fill="black"/>
</g>
<defs>
<clipPath id="clip0_12916_46183">
<rect width="24" height="24" fill="black"/>
</clipPath>
</defs>
</svg>
