<svg width="24" height="24" viewBox="0 0 24 24" fill="none" xmlns="http://www.w3.org/2000/svg">
<path fill-rule="evenodd" clip-rule="evenodd" d="M12 6.1875C13.3496 6.1875 14.4375 5.09961 14.4375 3.75C14.4375 2.40039 13.3496 1.3125 12 1.3125C10.6504 1.3125 9.5625 2.40039 9.5625 3.75C9.5625 5.09961 10.6504 6.1875 12 6.1875ZM12 2.4375C12.7305 2.4375 13.3125 3.01953 13.3125 3.75C13.3125 4.48047 12.7305 5.0625 12 5.0625C11.2695 5.0625 10.6875 4.48047 10.6875 3.75C10.6875 3.01953 11.2695 2.4375 12 2.4375Z" fill="black"/>
<path fill-rule="evenodd" clip-rule="evenodd" d="M5.4375 7.3125C6.78711 7.3125 7.875 6.22461 7.875 4.875C7.875 3.52539 6.78711 2.4375 5.4375 2.4375C4.08789 2.4375 3 3.52539 3 4.875C3 6.22461 4.08789 7.3125 5.4375 7.3125ZM5.4375 3.5625C6.16797 3.5625 6.75 4.14453 6.75 4.875C6.75 5.60547 6.16797 6.1875 5.4375 6.1875C4.70703 6.1875 4.125 5.60547 4.125 4.875C4.125 4.14453 4.70703 3.5625 5.4375 3.5625Z" fill="black"/>
<path d="M6.9375 9.1875C7.25586 9.1875 7.5 8.94336 7.5 8.625C7.5 8.30664 7.25586 8.0625 6.9375 8.0625H3.9375C2.58789 8.0625 1.5 9.15039 1.5 10.5V14.625C1.5 15.4121 1.94922 16.1055 2.625 16.4629V23.25C2.625 23.5684 2.86914 23.8125 3.1875 23.8125C3.50586 23.8125 3.75 23.5684 3.75 23.25V16.0684C3.75 15.8066 3.58203 15.582 3.31836 15.5254C2.90625 15.4316 2.625 15.0566 2.625 14.625V10.5C2.625 9.76953 3.20703 9.1875 3.9375 9.1875H6.9375Z" fill="black"/>
<path d="M20.0625 8.0625C21.4121 8.0625 22.5 9.15039 22.5 10.5V15C22.5 15.7305 22.0312 16.3691 21.375 16.5938V23.1934C21.375 23.5117 21.1309 23.7559 20.8125 23.7559C20.4941 23.7559 20.25 23.5117 20.25 23.1934V16.125C20.25 15.8066 20.4941 15.5625 20.8125 15.5625C21.1309 15.5625 21.375 15.3184 21.375 15V10.5C21.375 9.76953 20.793 9.1875 20.0625 9.1875H17.0625C16.7441 9.1875 16.5 8.94336 16.5 8.625C16.5 8.30664 16.7441 8.0625 17.0625 8.0625H20.0625Z" fill="black"/>
<path fill-rule="evenodd" clip-rule="evenodd" d="M18.5625 7.3125C19.9121 7.3125 21 6.22461 21 4.875C21 3.52539 19.9121 2.4375 18.5625 2.4375C17.2129 2.4375 16.125 3.52539 16.125 4.875C16.125 6.22461 17.2129 7.3125 18.5625 7.3125ZM18.5625 3.5625C19.293 3.5625 19.875 4.14453 19.875 4.875C19.875 5.60547 19.293 6.1875 18.5625 6.1875C17.832 6.1875 17.25 5.60547 17.25 4.875C17.25 4.14453 17.832 3.5625 18.5625 3.5625Z" fill="black"/>
<path d="M8.25 19.5C8.25 19.8184 8.00586 20.0625 7.6875 20.0625C7.36914 20.0625 7.125 19.8184 7.125 19.5V17.25C7.125 16.9316 7.36914 16.6875 7.6875 16.6875C8.00586 16.6875 8.25 16.9316 8.25 17.25V19.5Z" fill="black"/>
<path d="M15.9375 13.875C15.9375 14.6055 15.4688 15.2441 14.8125 15.4688V22.6875H17.8125C18.1309 22.6875 18.375 22.9316 18.375 23.25C18.375 23.5684 18.1309 23.8125 17.8125 23.8125H6.1875C5.86914 23.8125 5.625 23.5684 5.625 23.25C5.625 22.9316 5.86914 22.6875 6.1875 22.6875H9.1875V17.25C9.1875 16.9316 9.43164 16.6875 9.75 16.6875C10.0684 16.6875 10.3125 16.9316 10.3125 17.25V22.6875H11.4375V16.125C11.4375 15.8066 11.6816 15.5625 12 15.5625C12.3184 15.5625 12.5625 15.8066 12.5625 16.125V22.6875H13.6875V15C13.6875 14.6816 13.9316 14.4375 14.25 14.4375C14.5684 14.4375 14.8125 14.1934 14.8125 13.875V10.5C14.8125 9.58203 14.6445 8.0625 13.5 8.0625H10.2559C9.59961 8.0625 9.03711 8.55078 8.96289 9.20703L8.23047 15.0566C8.19336 15.3555 7.91211 15.582 7.61328 15.543C7.3125 15.5059 7.08789 15.2246 7.125 14.9258L7.85547 9.07422C8.00586 7.85547 9.05664 6.9375 10.2754 6.9375H13.5C15.7695 6.9375 15.9375 9.65625 15.9375 10.5V13.875Z" fill="black"/>
</svg>
