<svg width="24" height="24" viewBox="0 0 24 24" fill="none" xmlns="http://www.w3.org/2000/svg">
<path d="M3.5625 13.125C3.24414 13.125 3 12.8809 3 12.5625V11.4375C3 11.1191 3.24414 10.875 3.5625 10.875C3.88086 10.875 4.125 11.1191 4.125 11.4375V12.5625C4.125 12.8809 3.86328 13.125 3.5625 13.125Z" fill="black"/>
<path d="M8.26953 20.1563C8.17578 20.1563 8.08203 20.1367 7.98828 20.082L7.01172 19.5195C6.75 19.3691 6.65625 19.0117 6.80664 18.75C6.95703 18.4883 7.3125 18.3945 7.57422 18.543L8.55078 19.1055C8.8125 19.2559 8.90625 19.6133 8.75586 19.875C8.64453 20.0625 8.45703 20.1563 8.26953 20.1563Z" fill="black"/>
<path d="M15.7305 20.1563C15.543 20.1563 15.3555 20.0625 15.2441 19.875C15.0937 19.6133 15.1875 19.2559 15.4492 19.1055L16.4258 18.543C16.6875 18.3945 17.043 18.4883 17.1934 18.75C17.3438 19.0117 17.25 19.3691 16.9883 19.5195L16.0117 20.082C15.918 20.1367 15.8242 20.1563 15.7305 20.1563Z" fill="black"/>
<path d="M20.4375 13.125C20.1191 13.125 19.875 12.8809 19.875 12.5625V11.4375C19.875 11.1191 20.1191 10.875 20.4375 10.875C20.7559 10.875 21 11.1191 21 11.4375V12.5625C21 12.8809 20.7559 13.125 20.4375 13.125Z" fill="black"/>
<path d="M16.707 5.53125C16.6133 5.53125 16.5195 5.51172 16.4258 5.45703L15.4492 4.89453C15.1875 4.74414 15.0937 4.38672 15.2441 4.125C15.3945 3.86328 15.75 3.76953 16.0117 3.91797L16.9883 4.48047C17.25 4.63086 17.3438 4.98828 17.1934 5.25C17.0996 5.4375 16.8945 5.53125 16.707 5.53125Z" fill="black"/>
<path d="M7.29297 5.53125C7.10547 5.53125 6.91797 5.4375 6.80664 5.25C6.65625 4.98828 6.75 4.63086 7.01172 4.48047L7.98828 3.91797C8.25 3.76953 8.60547 3.86328 8.75586 4.125C8.90625 4.38672 8.8125 4.74414 8.55078 4.89453L7.57422 5.45703C7.48047 5.51172 7.38672 5.53125 7.29297 5.53125Z" fill="black"/>
<path d="M12 4.875C10.6504 4.875 9.5625 3.78711 9.5625 2.4375C9.5625 1.08789 10.6504 0 12 0C13.3496 0 14.4375 1.08789 14.4375 2.4375C14.4375 3.78711 13.3496 4.875 12 4.875ZM12 1.125C11.2695 1.125 10.6875 1.70703 10.6875 2.4375C10.6875 3.16797 11.2695 3.75 12 3.75C12.7305 3.75 13.3125 3.16797 13.3125 2.4375C13.3125 1.70703 12.7305 1.125 12 1.125Z" fill="black"/>
<path d="M12 24C10.6504 24 9.5625 22.9121 9.5625 21.5625C9.5625 20.2129 10.6504 19.125 12 19.125C13.3496 19.125 14.4375 20.2129 14.4375 21.5625C14.4375 22.9121 13.3496 24 12 24ZM12 20.25C11.2695 20.25 10.6875 20.832 10.6875 21.5625C10.6875 22.293 11.2695 22.875 12 22.875C12.7305 22.875 13.3125 22.293 13.3125 21.5625C13.3125 20.832 12.7305 20.25 12 20.25Z" fill="black"/>
<path d="M20.4375 19.3125C19.0879 19.3125 18 18.2246 18 16.875C18 15.5254 19.0879 14.4375 20.4375 14.4375C21.7871 14.4375 22.875 15.5254 22.875 16.875C22.875 18.2246 21.7871 19.3125 20.4375 19.3125ZM20.4375 15.5625C19.707 15.5625 19.125 16.1445 19.125 16.875C19.125 17.6055 19.707 18.1875 20.4375 18.1875C21.168 18.1875 21.75 17.6055 21.75 16.875C21.75 16.1445 21.168 15.5625 20.4375 15.5625Z" fill="black"/>
<path d="M20.4375 9.5625C19.0879 9.5625 18 8.47461 18 7.125C18 5.77539 19.0879 4.6875 20.4375 4.6875C21.7871 4.6875 22.875 5.77539 22.875 7.125C22.875 8.47461 21.7871 9.5625 20.4375 9.5625ZM20.4375 5.8125C19.707 5.8125 19.125 6.39453 19.125 7.125C19.125 7.85547 19.707 8.4375 20.4375 8.4375C21.168 8.4375 21.75 7.85547 21.75 7.125C21.75 6.39453 21.168 5.8125 20.4375 5.8125Z" fill="black"/>
<path d="M3.5625 9.5625C2.21289 9.5625 1.125 8.47461 1.125 7.125C1.125 5.77539 2.21289 4.6875 3.5625 4.6875C4.91211 4.6875 6 5.77539 6 7.125C6 8.47461 4.91211 9.5625 3.5625 9.5625ZM3.5625 5.8125C2.83203 5.8125 2.25 6.39453 2.25 7.125C2.25 7.85547 2.83203 8.4375 3.5625 8.4375C4.29297 8.4375 4.875 7.85547 4.875 7.125C4.875 6.39453 4.29297 5.8125 3.5625 5.8125Z" fill="black"/>
<path d="M3.5625 19.3125C2.21289 19.3125 1.125 18.2246 1.125 16.875C1.125 15.5254 2.21289 14.4375 3.5625 14.4375C4.91211 14.4375 6 15.5254 6 16.875C6 18.2246 4.91211 19.3125 3.5625 19.3125ZM3.5625 15.5625C2.83203 15.5625 2.25 16.1445 2.25 16.875C2.25 17.6055 2.83203 18.1875 3.5625 18.1875C4.29297 18.1875 4.875 17.6055 4.875 16.875C4.875 16.1445 4.29297 15.5625 3.5625 15.5625Z" fill="black"/>
<path d="M12 12.5625C10.6504 12.5625 9.5625 11.4746 9.5625 10.125C9.5625 8.77539 10.6504 7.6875 12 7.6875C13.3496 7.6875 14.4375 8.77539 14.4375 10.125C14.4375 11.4746 13.3496 12.5625 12 12.5625ZM12 8.8125C11.2695 8.8125 10.6875 9.39453 10.6875 10.125C10.6875 10.8555 11.2695 11.4375 12 11.4375C12.7305 11.4375 13.3125 10.8555 13.3125 10.125C13.3125 9.39453 12.7305 8.8125 12 8.8125Z" fill="black"/>
<path d="M8.73828 16.332C8.64453 16.332 8.55078 16.3125 8.45703 16.2559C8.19336 16.1055 8.09961 15.7695 8.25 15.4883C9.01953 14.1562 10.4434 13.3125 12 13.3125C13.5566 13.3125 14.9805 14.1562 15.75 15.5059C15.9004 15.7695 15.8066 16.125 15.543 16.2754C15.2812 16.4258 14.9258 16.332 14.7754 16.0684C14.2129 15.0742 13.1445 14.457 12 14.457C10.8555 14.457 9.78711 15.0742 9.22461 16.0684C9.13086 16.2383 8.92578 16.332 8.73828 16.332Z" fill="black"/>
</svg>
