<svg width="24" height="24" viewBox="0 0 24 24" fill="none" xmlns="http://www.w3.org/2000/svg">
<path d="M22.875 21.375C22.875 22.7246 21.7871 23.8125 20.4375 23.8125H3.5625C2.21289 23.8125 1.125 22.7246 1.125 21.375V4.5C1.125 3.15039 2.21289 2.0625 3.5625 2.0625H5.4375C5.75586 2.0625 6 2.30664 6 2.625C6 2.94336 5.75586 3.1875 5.4375 3.1875H3.5625C2.83203 3.1875 2.25 3.76953 2.25 4.5V21.375C2.25 22.1055 2.83203 22.6875 3.5625 22.6875H20.4375C21.168 22.6875 21.75 22.1055 21.75 21.375V4.5C21.75 3.76953 21.168 3.1875 20.4375 3.1875H17.625C17.3066 3.1875 17.0625 2.94336 17.0625 2.625V1.6875C17.0625 1.48047 16.8945 1.3125 16.6875 1.3125C16.4805 1.3125 16.3125 1.48047 16.3125 1.6875V3.5625C16.3125 3.76953 16.4805 3.9375 16.6875 3.9375C17.0059 3.9375 17.25 4.18164 17.25 4.5C17.25 4.81836 17.0059 5.0625 16.6875 5.0625C15.8633 5.0625 15.1875 4.38672 15.1875 3.5625V1.6875C15.1875 0.863281 15.8633 0.1875 16.6875 0.1875C17.5117 0.1875 18.1875 0.863281 18.1875 1.6875V2.0625H20.4375C21.7871 2.0625 22.875 3.15039 22.875 4.5V21.375Z" fill="black"/>
<path d="M6.75 3.5625C6.75 4.38672 7.42578 5.0625 8.25 5.0625C8.56836 5.0625 8.8125 4.81836 8.8125 4.5C8.8125 4.18164 8.56836 3.9375 8.25 3.9375C8.04297 3.9375 7.875 3.76953 7.875 3.5625V1.6875C7.875 1.48047 8.04297 1.3125 8.25 1.3125C8.45703 1.3125 8.625 1.48047 8.625 1.6875V2.625C8.625 2.94336 8.86914 3.1875 9.1875 3.1875H13.875C14.1934 3.1875 14.4375 2.94336 14.4375 2.625C14.4375 2.30664 14.1934 2.0625 13.875 2.0625H9.75V1.6875C9.75 0.863281 9.07422 0.1875 8.25 0.1875C7.42578 0.1875 6.75 0.863281 6.75 1.6875V3.5625Z" fill="black"/>
<path d="M7.74414 16.9316C7.83789 17.1367 8.04297 17.25 8.25 17.25H11.0625C11.3809 17.25 11.625 17.0059 11.625 16.6875C11.625 16.3691 11.3809 16.125 11.0625 16.125H9.375L10.1055 15.1504C11.082 13.8379 11.625 12.2246 11.625 10.5938C11.625 9.50586 10.7441 8.625 9.65625 8.625C8.56836 8.625 7.6875 9.50586 7.6875 10.5938V11.8125C7.6875 12.1309 7.93164 12.375 8.25 12.375C8.56836 12.375 8.8125 12.1309 8.8125 11.8125V10.5938C8.8125 10.125 9.1875 9.75 9.65625 9.75C10.125 9.75 10.5 10.125 10.5 10.5938C10.5 11.9805 10.0313 13.3691 9.20703 14.4746L7.80078 16.3496C7.66797 16.5195 7.65039 16.7441 7.74414 16.9316Z" fill="black"/>
<path d="M12.375 15.2812C12.375 16.3691 13.2559 17.25 14.3438 17.25C15.4316 17.25 16.3125 16.3691 16.3125 15.2812V13.5938C16.3125 12.5059 15.4316 11.625 14.3438 11.625H13.5V9.75H15C15.3184 9.75 15.5625 9.50586 15.5625 9.1875C15.5625 8.86914 15.3184 8.625 15 8.625H12.9375C12.6191 8.625 12.375 8.86914 12.375 9.1875V12.1875C12.375 12.5059 12.6191 12.75 12.9375 12.75H14.3438C14.8125 12.75 15.1875 13.125 15.1875 13.5938V15.2812C15.1875 15.75 14.8125 16.125 14.3438 16.125C13.875 16.125 13.5 15.75 13.5 15.2812C13.5 14.9629 13.2559 14.7188 12.9375 14.7188C12.6191 14.7188 12.375 14.9629 12.375 15.2812Z" fill="black"/>
</svg>
