<svg width="24" height="24" viewBox="0 0 24 24" fill="none" xmlns="http://www.w3.org/2000/svg">
<path d="M7.21499 0.184998C6.90749 0.184998 6.65999 0.432498 6.65999 0.739998V3.145H5.36498C3.01999 3.145 1.10999 5.055 1.10999 7.4V19.24C1.10999 21.585 3.01999 23.495 5.36498 23.495H18.315C20.66 23.495 22.57 21.585 22.57 19.24V7.4C22.57 5.055 20.66 3.145 18.315 3.145H17.02V0.739998C17.02 0.432498 16.7725 0.184998 16.465 0.184998C16.1575 0.184998 15.91 0.432498 15.91 0.739998V3.145H7.76999V0.739998C7.76999 0.432498 7.52249 0.184998 7.21499 0.184998ZM21.46 19.24C21.46 20.9725 20.0475 22.385 18.315 22.385H5.36498C3.63248 22.385 2.21999 20.9725 2.21999 19.24V7.955H21.46V19.24ZM18.315 4.255C19.86 4.255 21.145 5.375 21.4075 6.845H2.27249C2.53499 5.375 3.81999 4.255 5.36498 4.255H18.315Z" fill="black"/>
</svg>
