<svg width="24" height="24" viewBox="0 0 24 24" fill="none" xmlns="http://www.w3.org/2000/svg">
<path d="M1.11 19.24C1.11 21.585 3.02 23.495 5.365 23.495H18.315C20.66 23.495 22.57 21.585 22.57 19.24V7.4C22.57 5.055 20.66 3.145 18.315 3.145H17.02V0.739998C17.02 0.432498 16.7725 0.184998 16.465 0.184998C16.1575 0.184998 15.91 0.432498 15.91 0.739998V3.145H7.77V0.739998C7.77 0.432498 7.5225 0.184998 7.215 0.184998C6.9075 0.184998 6.66 0.432498 6.66 0.739998V3.145H5.365C3.02 3.145 1.11 5.055 1.11 7.4V19.24ZM2.22 7.4C2.22 5.6675 3.6325 4.255 5.365 4.255H18.315C20.0475 4.255 21.46 5.6675 21.46 7.4V19.24C21.46 20.9725 20.0475 22.385 18.315 22.385H5.365C3.6325 22.385 2.22 20.9725 2.22 19.24V7.4Z" fill="black"/>
<path d="M5.735 10.175H17.945C18.2525 10.175 18.5 9.9275 18.5 9.62C18.5 9.3125 18.2525 9.065 17.945 9.065H5.735C5.4275 9.065 5.18 9.3125 5.18 9.62C5.18 9.9275 5.4275 10.175 5.735 10.175Z" fill="black"/>
<path d="M5.735 13.875H17.945C18.2525 13.875 18.5 13.6275 18.5 13.32C18.5 13.0125 18.2525 12.765 17.945 12.765H5.735C5.4275 12.765 5.18 13.0125 5.18 13.32C5.18 13.6275 5.4275 13.875 5.735 13.875Z" fill="black"/>
<path d="M5.735 17.575H11.285C11.5925 17.575 11.84 17.3275 11.84 17.02C11.84 16.7125 11.5925 16.465 11.285 16.465H5.735C5.4275 16.465 5.18 16.7125 5.18 17.02C5.18 17.3275 5.4275 17.575 5.735 17.575Z" fill="black"/>
</svg>
