<svg width="24" height="24" viewBox="0 0 24 24" fill="none" xmlns="http://www.w3.org/2000/svg">
<path d="M23.495 11.415C23.4575 11.1175 23.18 10.8975 22.885 10.9325C22.495 10.97 21.9775 11.045 21.3675 11.1C21.3675 11.0825 21.35 11.0625 21.35 11.045L19.295 6.55002C18.925 5.73502 18.13 5.18002 17.2225 5.14252H17.0375C15.0225 5.01252 13.875 4.95752 11.84 4.95752C9.805 4.95752 8.6575 5.01252 6.6425 5.10502H6.4575C5.55 5.14252 4.755 5.69752 4.385 6.51252L2.35 11.025C2.35 11.045 2.33 11.0625 2.33 11.0825C1.72 11.025 1.2025 10.9525 0.814998 10.915C0.517498 10.8775 0.239998 11.1 0.202498 11.395C0.167498 11.6925 0.387498 11.97 0.684998 12.0075C2.59 12.2475 7.51 12.765 11.84 12.765C16.17 12.765 21.09 12.2475 22.995 12.025C23.31 11.9875 23.5325 11.71 23.495 11.415ZM3.4975 11.1925L5.4025 6.97502C5.605 6.53002 6.03 6.23502 6.5125 6.21502H6.6975C8.75 6.10502 9.8225 6.06752 11.84 6.06752C13.8575 6.06752 14.93 6.12252 16.9825 6.21502H17.1675C17.65 6.23502 18.075 6.53002 18.2775 6.97502L20.1825 11.1925C17.87 11.415 14.725 11.655 11.84 11.655C8.955 11.655 5.81 11.415 3.4975 11.1925Z" fill="black"/>
<path d="M21.09 13.505C19.7575 13.505 18.685 14.5775 18.685 15.91C18.685 17.2425 19.7575 18.315 21.09 18.315C21.57 18.315 22.015 18.1675 22.385 17.9275V19.24C22.385 19.555 22.145 19.795 21.83 19.795H1.85C1.535 19.795 1.295 19.555 1.295 19.24V17.9275C1.665 18.1675 2.11 18.315 2.59 18.315C3.9225 18.315 4.995 17.2425 4.995 15.91C4.995 14.5775 3.9225 13.505 2.59 13.505C1.2575 13.505 0.184998 14.5775 0.184998 15.91V19.24C0.184998 19.9625 0.647498 20.5725 1.295 20.8125V22.94C1.295 23.255 1.535 23.495 1.85 23.495H5.55C5.865 23.495 6.105 23.255 6.105 22.94V20.905H17.575V22.94C17.575 23.255 17.815 23.495 18.13 23.495H21.83C22.145 23.495 22.385 23.255 22.385 22.94V20.8125C23.0325 20.59 23.495 19.9625 23.495 19.24V15.91C23.495 14.5775 22.4225 13.505 21.09 13.505ZM2.59 14.615C3.3125 14.615 3.885 15.1875 3.885 15.91C3.885 16.6325 3.3125 17.205 2.59 17.205C1.8675 17.205 1.295 16.6325 1.295 15.91C1.295 15.1875 1.8675 14.615 2.59 14.615ZM4.995 22.385H2.405V20.905H4.995V22.385ZM21.275 22.385H18.685V20.905H21.275V22.385ZM21.09 17.205C20.3675 17.205 19.795 16.6325 19.795 15.91C19.795 15.1875 20.3675 14.615 21.09 14.615C21.8125 14.615 22.385 15.1875 22.385 15.91C22.385 16.6325 21.8125 17.205 21.09 17.205Z" fill="black"/>
<path d="M15.91 16.835H7.77C7.455 16.835 7.215 17.075 7.215 17.39C7.215 17.705 7.455 17.945 7.77 17.945H15.91C16.225 17.945 16.465 17.705 16.465 17.39C16.465 17.075 16.225 16.835 15.91 16.835Z" fill="black"/>
</svg>
