<svg width="24" height="24" viewBox="0 0 24 24" fill="none" xmlns="http://www.w3.org/2000/svg">
<path d="M3.515 21.165C3.5325 21.35 3.645 21.4975 3.7925 21.59C3.885 21.6275 3.9775 21.6625 4.07 21.6625C4.145 21.6625 4.2375 21.645 4.31 21.6075L5.66 20.96C9.7875 18.98 14.375 17.945 18.9625 17.945H21.46C21.775 17.945 22.015 17.705 22.015 17.39C22.015 17.075 21.775 16.835 21.46 16.835H18.9625C14.2275 16.835 9.4725 17.9075 5.18 19.9425L4.5325 20.2575L4.255 17.87C4.2175 17.575 3.94 17.3525 3.645 17.39C3.3475 17.4275 3.1275 17.705 3.1625 18L3.515 21.165Z" fill="black"/>
<path d="M1.85 9.61998C2.165 9.61998 2.405 9.37998 2.405 9.06498C2.405 8.74998 2.165 8.50998 1.85 8.50998C1.535 8.50998 1.295 8.26998 1.295 7.95498C1.295 7.63998 1.535 7.39998 1.85 7.39998H21.83C22.145 7.39998 22.385 7.63998 22.385 7.95498C22.385 8.26998 22.145 8.50998 21.83 8.50998C21.515 8.50998 21.275 8.74998 21.275 9.06498C21.275 9.37998 21.515 9.61998 21.83 9.61998C22.755 9.61998 23.495 8.87998 23.495 7.95498C23.495 7.02998 22.755 6.28998 21.83 6.28998H1.85C0.924998 6.28998 0.184998 7.02998 0.184998 7.95498C0.184998 8.87998 0.924998 9.61998 1.85 9.61998Z" fill="black"/>
<path d="M21.905 15.8725C22.015 15.725 22.0325 15.5575 21.9975 15.3925L20.1475 8.91748C20.0725 8.67748 19.87 8.50998 19.61 8.50998H4.07C3.83 8.50998 3.6075 8.67748 3.5325 8.91748L1.6825 15.3925C1.6275 15.5575 1.665 15.7425 1.775 15.8725C1.8875 16.02 2.0525 16.095 2.22 16.095H21.46C21.6275 16.095 21.7925 16.02 21.905 15.8725ZM11.84 12.95C10.62 12.95 9.62 12.21 9.62 11.285C9.62 10.36 10.62 9.61998 11.84 9.61998C13.06 9.61998 14.06 10.36 14.06 11.285C14.06 12.21 13.06 12.95 11.84 12.95Z" fill="black"/>
</svg>
