<?xml version="1.0" encoding="UTF-8"?>
<svg xmlns="http://www.w3.org/2000/svg" xmlns:xlink="http://www.w3.org/1999/xlink" width="37.5pt" height="37.5pt" viewBox="0 0 37.5 37.5" version="1.1">
<g id="surface4500">
<path style=" stroke:none;fill-rule:nonzero;fill:rgb(0%,0%,0%);fill-opacity:1;" d="M 30.121094 31.449219 C 32.519531 31.449219 34.457031 29.511719 34.457031 27.113281 C 34.457031 24.714844 32.519531 22.777344 30.121094 22.777344 C 27.722656 22.777344 25.785156 24.714844 25.785156 27.113281 C 25.785156 27.980469 26.042969 28.820312 26.507812 29.484375 C 21.128906 33.414062 13.671875 32.867188 8.902344 28.097656 C 6.332031 25.554688 4.914062 22.140625 4.914062 18.5 C 4.914062 14.859375 6.332031 11.445312 8.902344 8.902344 C 11.476562 6.359375 14.859375 4.914062 18.5 4.914062 C 22.140625 4.914062 25.554688 6.332031 28.097656 8.902344 C 28.300781 9.105469 28.5 9.335938 28.703125 9.539062 L 23.269531 9.539062 C 22.777344 9.539062 22.402344 9.914062 22.402344 10.40625 C 22.402344 10.898438 22.777344 11.273438 23.269531 11.273438 L 30.496094 11.273438 C 30.988281 11.273438 31.363281 10.898438 31.363281 10.40625 L 31.363281 3.179688 C 31.363281 2.6875 30.988281 2.3125 30.496094 2.3125 C 30.003906 2.3125 29.628906 2.6875 29.628906 3.179688 L 29.628906 7.976562 C 29.542969 7.863281 29.425781 7.777344 29.339844 7.660156 C 26.449219 4.769531 22.605469 3.179688 18.5 3.179688 C 14.394531 3.179688 10.550781 4.769531 7.660156 7.660156 C 4.769531 10.550781 3.179688 14.394531 3.179688 18.5 C 3.179688 22.605469 4.769531 26.449219 7.660156 29.339844 C 10.636719 32.316406 14.570312 33.847656 18.5 33.847656 C 21.738281 33.847656 24.976562 32.808594 27.722656 30.726562 C 28.414062 31.191406 29.222656 31.449219 30.121094 31.449219 Z M 30.121094 24.511719 C 31.566406 24.511719 32.722656 25.667969 32.722656 27.113281 C 32.722656 28.558594 31.566406 29.714844 30.121094 29.714844 C 28.675781 29.714844 27.519531 28.558594 27.519531 27.113281 C 27.519531 25.667969 28.675781 24.511719 30.121094 24.511719 Z M 30.121094 24.511719 "/>
</g>
</svg>
