<svg width="24" height="24" viewBox="0 0 24 24" fill="none" xmlns="http://www.w3.org/2000/svg">
<path fill-rule="evenodd" clip-rule="evenodd" d="M18.2741 11.2672C18.3288 11.3981 18.4361 11.5021 18.5695 11.5525L20.5344 12.5349C20.7682 12.6518 21.0525 12.5755 21.1962 12.3576L22.5111 10.3853C22.6287 10.2159 22.6343 9.99306 22.5257 9.81822C22.4167 9.64246 22.2137 9.5503 22.0114 9.57973C21.8597 9.60015 21.7239 9.68748 21.6427 9.81883L21.1156 10.613C20.4776 7.31871 18.1112 4.63672 15.0057 3.54026C14.8471 1.95297 13.5069 0.703064 11.8771 0.703064C10.1423 0.703064 8.72793 2.11747 8.72793 3.85225C8.72793 5.58704 10.1423 7.00144 11.8771 7.00144C13.3479 7.00144 14.5813 5.98373 14.925 4.61856C17.6771 5.69496 19.7148 8.17836 20.1526 11.1906L19.024 10.6303C18.9023 10.5547 18.7541 10.5333 18.6159 10.5703C18.472 10.6087 18.3527 10.7078 18.2879 10.8409C18.2211 10.9752 18.2182 11.1313 18.2741 11.2672ZM11.8771 1.73622C13.05 1.73622 13.9932 2.67935 13.9932 3.85225C13.9932 5.02516 13.05 5.96829 11.8771 5.96829C10.7042 5.96829 9.76108 5.02516 9.76108 3.85225C9.76108 2.67935 10.7042 1.73622 11.8771 1.73622Z" fill="black"/>
<path fill-rule="evenodd" clip-rule="evenodd" d="M9.56382 18.7922C9.4873 18.7962 9.41063 18.8173 9.34221 18.8546L7.37306 19.8392C7.24749 19.8988 7.15395 20.0059 7.10853 20.1343L7.10771 20.1367C7.06403 20.2658 7.07135 20.4085 7.13248 20.5328L8.12026 22.5084C8.18213 22.6321 8.29013 22.7263 8.42067 22.7705C8.55196 22.815 8.69633 22.8047 8.82045 22.7426L8.82153 22.7421C8.94335 22.6802 9.03724 22.5725 9.08133 22.4422L9.08237 22.439C9.12383 22.3087 9.11417 22.1667 9.05212 22.0424L8.65261 21.2368C9.65789 21.606 10.7438 21.8099 11.877 21.8099C14.2319 21.8099 16.3837 20.936 18.0326 19.5042C18.4589 19.719 18.9383 19.8355 19.4458 19.8355C21.1806 19.8355 22.595 18.4211 22.595 16.6863C22.595 14.9515 21.1807 13.5371 19.4459 13.5371C17.7111 13.5371 16.2967 14.9515 16.2967 16.6862C16.2967 17.5336 16.6347 18.3096 17.1817 18.8771C15.7376 20.0632 13.8919 20.7767 11.8771 20.7767C10.8222 20.7767 9.81365 20.5834 8.88599 20.2285L9.79901 19.7756C10.0176 19.6721 10.1358 19.4291 10.0813 19.1931C10.0269 18.9561 9.81515 18.788 9.57032 18.792L9.56706 18.7921L9.56382 18.7922ZM19.4459 14.5702C20.6188 14.5702 21.5619 15.5133 21.5619 16.6862C21.5619 17.8591 20.6188 18.8023 19.4459 18.8023C18.273 18.8023 17.3298 17.8591 17.3298 16.6862C17.3298 15.5133 18.273 14.5702 19.4459 14.5702Z" fill="black"/>
<path fill-rule="evenodd" clip-rule="evenodd" d="M4.8845 4.32398C4.91516 4.32037 4.94588 4.32004 4.97642 4.32292H7.2699C7.5547 4.32292 7.78648 4.5547 7.78648 4.8395V7.1418C7.78809 7.28025 7.73391 7.41299 7.63716 7.51014C7.54103 7.60792 7.40979 7.66476 7.2699 7.66476C7.13003 7.66476 6.99881 7.60795 6.90268 7.51017C6.80591 7.41303 6.75172 7.28029 6.75332 7.14183V5.78794C4.78066 7.31987 3.50848 9.71567 3.50848 12.4083C3.50848 12.82 3.53958 13.22 3.59722 13.614C3.82683 13.5625 4.06686 13.5371 4.30821 13.5371C6.043 13.5371 7.4574 14.9515 7.4574 16.6863C7.4574 18.4211 6.043 19.8355 4.30821 19.8355C2.57343 19.8355 1.15903 18.4211 1.15903 16.6863C1.15903 15.5712 1.74297 14.5916 2.61954 14.0327C2.52586 13.5054 2.47533 12.9642 2.47533 12.4083C2.47533 9.59399 3.71895 7.07714 5.68087 5.35608H4.97404C4.69429 5.37674 4.44571 5.16951 4.41971 4.88756C4.39366 4.60491 4.60089 4.35173 4.8845 4.32398ZM6.4244 16.6862C6.4244 15.5133 5.48126 14.5702 4.30836 14.5702C3.13546 14.5702 2.19233 15.5133 2.19233 16.6862C2.19233 17.8591 3.13546 18.8023 4.30836 18.8023C5.48126 18.8023 6.4244 17.8591 6.4244 16.6862Z" fill="black"/>
</svg>
