<?xml version="1.0" encoding="UTF-8"?>
<svg xmlns="http://www.w3.org/2000/svg" xmlns:xlink="http://www.w3.org/1999/xlink" width="37.5pt" height="37.5pt" viewBox="0 0 37.5 37.5" version="1.1">
<g id="surface4608">
<path style=" stroke:none;fill-rule:nonzero;fill:rgb(0%,0%,0%);fill-opacity:1;" d="M 5.492188 31.507812 C 5.492188 33.589844 7.167969 35.265625 9.25 35.265625 L 27.75 35.265625 C 29.832031 35.265625 31.507812 33.589844 31.507812 31.507812 L 31.507812 7.804688 C 31.507812 5.722656 29.832031 4.046875 27.75 4.046875 L 23.558594 4.046875 C 23.183594 2.863281 22.085938 2.023438 20.8125 2.023438 L 16.1875 2.023438 C 14.886719 2.023438 13.789062 2.863281 13.441406 4.046875 L 9.25 4.046875 C 7.167969 4.046875 5.492188 5.722656 5.492188 7.804688 Z M 16.1875 3.757812 L 20.8125 3.757812 C 21.449219 3.757812 21.96875 4.277344 21.96875 4.914062 C 21.96875 5.550781 21.449219 6.070312 20.8125 6.070312 L 16.1875 6.070312 C 15.550781 6.070312 15.03125 5.550781 15.03125 4.914062 C 15.03125 4.277344 15.550781 3.757812 16.1875 3.757812 Z M 7.226562 7.804688 C 7.226562 6.675781 8.121094 5.78125 9.25 5.78125 L 13.441406 5.78125 C 13.816406 6.964844 14.914062 7.804688 16.1875 7.804688 L 20.8125 7.804688 C 22.113281 7.804688 23.210938 6.964844 23.558594 5.78125 L 27.75 5.78125 C 28.878906 5.78125 29.773438 6.675781 29.773438 7.804688 L 29.773438 31.507812 C 29.773438 32.636719 28.878906 33.53125 27.75 33.53125 L 9.25 33.53125 C 8.121094 33.53125 7.226562 32.636719 7.226562 31.507812 Z M 7.226562 7.804688 "/>
</g>
</svg>
