<svg width="24" height="24" viewBox="0 0 24 24" fill="none" xmlns="http://www.w3.org/2000/svg">
<path d="M3.515 20.165C3.515 21.4975 4.5875 22.57 5.92 22.57H17.76C19.0925 22.57 20.165 21.4975 20.165 20.165V4.99498C20.165 3.66248 19.0925 2.58998 17.76 2.58998H15.0775C14.8375 1.83248 14.135 1.29498 13.32 1.29498H10.36C9.5275 1.29498 8.825 1.83248 8.6025 2.58998H5.92C4.5875 2.58998 3.515 3.66248 3.515 4.99498V20.165ZM10.36 2.40498H13.32C13.7275 2.40498 14.06 2.73748 14.06 3.14498C14.06 3.55248 13.7275 3.88498 13.32 3.88498H10.36C9.9525 3.88498 9.62 3.55248 9.62 3.14498C9.62 2.73748 9.9525 2.40498 10.36 2.40498ZM4.625 4.99498C4.625 4.27248 5.1975 3.69998 5.92 3.69998H8.6025C8.8425 4.45748 9.545 4.99498 10.36 4.99498H13.32C14.1525 4.99498 14.855 4.45748 15.0775 3.69998H17.76C18.4825 3.69998 19.055 4.27248 19.055 4.99498V20.165C19.055 20.8875 18.4825 21.46 17.76 21.46H5.92C5.1975 21.46 4.625 20.8875 4.625 20.165V4.99498Z" fill="black"/>
</svg>
