<svg width="24" height="24" viewBox="0 0 24 24" fill="none" xmlns="http://www.w3.org/2000/svg">
<path d="M15.54 11.285H12.8025C12.71 11.1175 12.5625 10.97 12.395 10.8775V6.29C12.395 5.975 12.155 5.735 11.84 5.735C11.525 5.735 11.285 5.975 11.285 6.29V10.8775C10.9525 11.0625 10.73 11.4325 10.73 11.84C10.73 12.45 11.23 12.95 11.84 12.95C12.2475 12.95 12.6175 12.7275 12.8025 12.395H15.54C15.855 12.395 16.095 12.155 16.095 11.84C16.095 11.525 15.855 11.285 15.54 11.285Z" fill="black"/>
<path d="M21.1825 11.84C21.1825 6.6975 16.9825 2.4975 11.84 2.4975C6.6975 2.4975 2.4975 6.6975 2.4975 11.84C2.4975 16.9825 6.6975 21.1825 11.84 21.1825C16.9825 21.1825 21.1825 16.9825 21.1825 11.84ZM11.84 20.0725C7.3075 20.0725 3.6075 16.3725 3.6075 11.84C3.6075 7.3075 7.3075 3.6075 11.84 3.6075C16.3725 3.6075 20.0725 7.3075 20.0725 11.84C20.0725 16.3725 16.3725 20.0725 11.84 20.0725Z" fill="black"/>
</svg>
