<svg width="24" height="24" viewBox="0 0 24 24" fill="none" xmlns="http://www.w3.org/2000/svg">
<path d="M15.91 0.184998H5.92C4.5875 0.184998 3.515 1.2575 3.515 2.59V9.99C3.515 10.305 3.755 10.545 4.07 10.545C4.385 10.545 4.625 10.305 4.625 9.99V2.59C4.625 1.8675 5.1975 1.295 5.92 1.295H15.355V2.59C15.355 3.9225 16.4275 4.995 17.76 4.995H19.61C19.925 4.995 20.165 4.755 20.165 4.44C20.165 2.09 18.26 0.184998 15.91 0.184998ZM17.76 3.885C17.0375 3.885 16.465 3.3125 16.465 2.59V1.35C17.76 1.5725 18.7775 2.59 19 3.885H17.76Z" fill="black"/>
<path d="M19.61 6.29C19.295 6.29 19.055 6.53 19.055 6.845V9.99C19.055 10.305 19.295 10.545 19.61 10.545C19.925 10.545 20.165 10.305 20.165 9.99V6.845C20.165 6.53 19.925 6.29 19.61 6.29Z" fill="black"/>
<path d="M18.315 14.985H17.945V14.615C17.945 11.2475 15.2075 8.51 11.84 8.51C8.4725 8.51 5.735 11.2475 5.735 14.615V14.985H5.365C3.015 14.985 1.11 16.89 1.11 19.24C1.11 21.59 3.015 23.495 5.365 23.495H18.315C20.665 23.495 22.57 21.59 22.57 19.24C22.57 16.89 20.665 14.985 18.315 14.985ZM18.315 22.385H5.365C3.625 22.385 2.22 20.98 2.22 19.24C2.22 17.5 3.625 16.095 5.365 16.095H6.29C6.605 16.095 6.845 15.855 6.845 15.54V14.615C6.845 11.8575 9.0825 9.62 11.84 9.62C14.5975 9.62 16.835 11.8575 16.835 14.615V15.54C16.835 15.855 17.075 16.095 17.39 16.095H18.315C20.055 16.095 21.46 17.5 21.46 19.24C21.46 20.98 20.055 22.385 18.315 22.385Z" fill="black"/>
</svg>
