<svg width="24" height="24" viewBox="0 0 24 24" fill="none" xmlns="http://www.w3.org/2000/svg">
<path d="M11.84 2.96002H11.7475C8.4175 3.01502 5.735 5.75252 5.735 9.06502V9.43502H5.475C3.145 9.43502 1.2025 11.2675 1.11 13.5225C1.0725 14.69 1.48 15.8 2.295 16.6325C3.1075 17.4825 4.2 17.945 5.365 17.945H12.5425L10.7125 19.7775C10.49 19.9975 10.49 20.35 10.7125 20.5525C10.9325 20.775 11.285 20.775 11.4875 20.5525L14.2625 17.7775C14.485 17.5575 14.485 17.205 14.2625 17.0025L11.4875 14.2275C11.2675 14.005 10.915 14.005 10.7125 14.2275C10.6 14.3375 10.545 14.4675 10.545 14.615C10.545 14.7625 10.6 14.8925 10.7125 15.0025L12.5425 16.835H5.365C4.495 16.835 3.7 16.4825 3.1075 15.8725C2.515 15.245 2.2025 14.43 2.2375 13.58C2.295 11.915 3.755 10.5625 5.495 10.5625H6.29C6.605 10.5625 6.845 10.3225 6.845 10.0075V9.08252C6.845 6.38252 9.0475 4.14502 11.7475 4.08752H11.84C14.5975 4.08752 16.835 6.38252 16.835 9.21252V9.99002C16.835 10.305 17.075 10.545 17.39 10.545H18.205C19.925 10.545 21.385 11.895 21.46 13.56C21.4975 14.43 21.1825 15.245 20.59 15.855C19.98 16.4825 19.185 16.835 18.315 16.835C18 16.835 17.76 17.075 17.76 17.39C17.76 17.705 18 17.945 18.315 17.945C19.48 17.945 20.5725 17.4825 21.385 16.6325C22.2 15.8 22.625 14.69 22.57 13.5225C22.4775 11.2675 20.535 9.43502 18.205 9.43502H17.945V9.19502C17.945 5.75252 15.2075 2.96002 11.84 2.96002Z" fill="black"/>
</svg>
