<?xml version="1.0" encoding="UTF-8"?>
<svg xmlns="http://www.w3.org/2000/svg" xmlns:xlink="http://www.w3.org/1999/xlink" width="37.5pt" height="37.5pt" viewBox="0 0 37.5 37.5" version="1.1">
<g id="surface4242">
<path style=" stroke:none;fill-rule:nonzero;fill:rgb(0%,0%,0%);fill-opacity:1;" d="M 29.339844 10.40625 C 26.1875 10.40625 23.355469 12.429688 22.34375 15.40625 C 22.199219 15.871094 22.429688 16.359375 22.894531 16.503906 C 23.355469 16.648438 23.847656 16.417969 23.992188 15.957031 C 24.773438 13.671875 26.910156 12.140625 29.339844 12.140625 C 32.460938 12.140625 34.976562 14.65625 34.976562 17.777344 C 34.976562 20.898438 32.460938 23.414062 29.339844 23.414062 L 11.996094 23.414062 C 6.503906 23.414062 2.023438 18.933594 2.023438 13.441406 C 2.023438 7.949219 6.503906 3.46875 11.996094 3.46875 C 16.015625 3.46875 19.597656 5.839844 21.160156 9.539062 C 21.332031 9.972656 21.851562 10.175781 22.285156 10 C 22.71875 9.828125 22.921875 9.308594 22.75 8.875 C 20.929688 4.539062 16.707031 1.734375 11.996094 1.734375 C 5.550781 1.734375 0.289062 6.996094 0.289062 13.441406 C 0.289062 19.886719 5.550781 25.148438 11.996094 25.148438 L 29.339844 25.148438 C 33.414062 25.148438 36.710938 21.851562 36.710938 17.777344 C 36.710938 13.703125 33.414062 10.40625 29.339844 10.40625 Z M 29.339844 10.40625 "/>
</g>
</svg>
