<svg width="24" height="24" viewBox="0 0 24 24" fill="none" xmlns="http://www.w3.org/2000/svg">
<path d="M18.7775 6.65999C16.76 6.65999 14.9475 7.95499 14.3 9.85999C14.2075 10.1575 14.355 10.47 14.6525 10.5625C14.9475 10.655 15.2625 10.5075 15.355 10.2125C15.855 8.74999 17.2225 7.76999 18.7775 7.76999C20.775 7.76999 22.385 9.37998 22.385 11.3775C22.385 13.375 20.775 14.985 18.7775 14.985H7.6775C4.1625 14.985 1.295 12.1175 1.295 8.60249C1.295 5.08749 4.1625 2.21999 7.6775 2.21999C10.25 2.21999 12.5425 3.73749 13.5425 6.10498C13.6525 6.38248 13.985 6.51249 14.2625 6.39999C14.54 6.28999 14.67 5.95749 14.56 5.67999C13.395 2.90498 10.6925 1.10999 7.6775 1.10999C3.5525 1.10999 0.184998 4.47749 0.184998 8.60249C0.184998 12.7275 3.5525 16.095 7.6775 16.095H18.7775C21.385 16.095 23.495 13.985 23.495 11.3775C23.495 8.76999 21.385 6.65999 18.7775 6.65999Z" fill="black"/>
</svg>
