<svg width="24" height="24" viewBox="0 0 24 24" fill="none" xmlns="http://www.w3.org/2000/svg">
<g clip-path="url(#clip0_13117_347)">
<path d="M14.7825 16.8525C14.8925 16.9825 15.04 17.0375 15.1875 17.0375C15.3175 17.0375 15.4475 17.0025 15.5575 16.89L17.7975 14.8375C17.9075 14.725 17.9825 14.5775 17.9825 14.43C17.9825 14.2825 17.9075 14.115 17.7975 14.0225L15.5575 11.97C15.3375 11.765 14.985 11.785 14.7825 12.0075C14.5775 12.2275 14.5975 12.58 14.8175 12.7825L16.595 14.4125L14.8175 16.04C14.5975 16.2625 14.5775 16.6125 14.7825 16.8525Z" fill="black"/>
<path d="M10.12 19.055C10.175 19.0725 10.2125 19.0925 10.2675 19.0925C10.5075 19.11 10.7475 18.98 10.84 18.74L13.8925 10.5275C14.005 10.23 13.8575 9.915 13.56 9.805C13.265 9.695 12.95 9.8425 12.84 10.1375L9.7875 18.3325C9.675 18.63 9.8225 18.945 10.12 19.055Z" fill="black"/>
<path d="M8.1225 16.89C8.2325 16.9825 8.3625 17.0375 8.4925 17.0375C8.64 17.0375 8.7875 16.9825 8.8975 16.8525C9.1025 16.6325 9.0825 16.28 8.8625 16.0775L7.085 14.43L8.8625 12.8025C9.0825 12.5975 9.1025 12.2475 8.8975 12.025C8.695 11.8025 8.3425 11.785 8.1225 11.9875L5.8825 14.0225C5.7725 14.135 5.6975 14.2825 5.6975 14.43C5.6975 14.5775 5.7725 14.745 5.8825 14.8375L8.1225 16.89Z" fill="black"/>
<path d="M2.59 23.495H21.09C22.4225 23.495 23.495 22.4225 23.495 21.09V2.59C23.495 1.2575 22.4225 0.184998 21.09 0.184998H2.59C1.2575 0.184998 0.184998 1.2575 0.184998 2.59V21.09C0.184998 22.4225 1.2575 23.495 2.59 23.495ZM1.295 2.59C1.295 1.8675 1.8675 1.295 2.59 1.295H21.09C21.8125 1.295 22.385 1.8675 22.385 2.59V5.365H1.295V2.59ZM1.295 6.475H22.385V21.09C22.385 21.8125 21.8125 22.385 21.09 22.385H2.59C1.8675 22.385 1.295 21.8125 1.295 21.09V6.475Z" fill="black"/>
<path d="M4.07 2.775H3.33C3.015 2.775 2.775 3.015 2.775 3.33C2.775 3.645 3.015 3.885 3.33 3.885H4.07C4.385 3.885 4.625 3.645 4.625 3.33C4.625 3.015 4.385 2.775 4.07 2.775Z" fill="black"/>
<path d="M7.03 2.775H6.29C5.975 2.775 5.735 3.015 5.735 3.33C5.735 3.645 5.975 3.885 6.29 3.885H7.03C7.345 3.885 7.585 3.645 7.585 3.33C7.585 3.015 7.345 2.775 7.03 2.775Z" fill="black"/>
</g>
<defs>
<clipPath id="clip0_13117_347">
<rect width="24" height="24" fill="black"/>
</clipPath>
</defs>
</svg>
