<?xml version="1.0" encoding="UTF-8"?>
<svg xmlns="http://www.w3.org/2000/svg" xmlns:xlink="http://www.w3.org/1999/xlink" width="37.5pt" height="37.5pt" viewBox="0 0 37.5 37.5" version="1.1">
<g id="surface4332">
<path style=" stroke:none;fill-rule:nonzero;fill:rgb(0%,0%,0%);fill-opacity:1;" d="M 4.046875 0.289062 C 1.964844 0.289062 0.289062 1.964844 0.289062 4.046875 L 0.289062 32.953125 C 0.289062 35.035156 1.964844 36.710938 4.046875 36.710938 L 32.953125 36.710938 C 35.035156 36.710938 36.710938 35.035156 36.710938 32.953125 L 36.710938 4.046875 C 36.710938 1.964844 35.035156 0.289062 32.953125 0.289062 Z M 4.046875 2.023438 L 32.953125 2.023438 C 34.082031 2.023438 34.976562 2.917969 34.976562 4.046875 L 34.976562 8.382812 L 2.023438 8.382812 L 2.023438 4.046875 C 2.023438 2.917969 2.917969 2.023438 4.046875 2.023438 Z M 5.203125 4.335938 C 4.710938 4.335938 4.335938 4.710938 4.335938 5.203125 C 4.335938 5.695312 4.710938 6.070312 5.203125 6.070312 L 6.359375 6.070312 C 6.851562 6.070312 7.226562 5.695312 7.226562 5.203125 C 7.226562 4.710938 6.851562 4.335938 6.359375 4.335938 Z M 9.828125 4.335938 C 9.335938 4.335938 8.960938 4.710938 8.960938 5.203125 C 8.960938 5.695312 9.335938 6.070312 9.828125 6.070312 L 10.984375 6.070312 C 11.476562 6.070312 11.851562 5.695312 11.851562 5.203125 C 11.851562 4.710938 11.476562 4.335938 10.984375 4.335938 Z M 2.023438 10.117188 L 34.976562 10.117188 L 34.976562 32.953125 C 34.976562 34.082031 34.082031 34.976562 32.953125 34.976562 L 4.046875 34.976562 C 2.917969 34.976562 2.023438 34.082031 2.023438 32.953125 Z M 20.839844 15.261719 C 20.5 15.277344 20.191406 15.492188 20.0625 15.839844 L 15.292969 28.644531 C 15.117188 29.109375 15.347656 29.601562 15.8125 29.773438 C 15.898438 29.800781 15.957031 29.832031 16.042969 29.832031 C 16.417969 29.859375 16.792969 29.65625 16.9375 29.28125 L 21.707031 16.449219 C 21.882812 15.984375 21.652344 15.492188 21.1875 15.320312 C 21.074219 15.277344 20.957031 15.257812 20.839844 15.261719 Z M 23.691406 18.480469 C 23.472656 18.492188 23.253906 18.585938 23.097656 18.761719 C 22.777344 19.105469 22.808594 19.65625 23.152344 19.972656 L 25.929688 22.519531 L 23.152344 25.0625 C 22.808594 25.410156 22.777344 25.957031 23.097656 26.332031 C 23.269531 26.535156 23.5 26.621094 23.730469 26.621094 C 23.933594 26.621094 24.136719 26.566406 24.308594 26.390625 L 27.808594 23.183594 C 27.980469 23.007812 28.097656 22.777344 28.097656 22.546875 C 28.097656 22.316406 27.980469 22.054688 27.808594 21.910156 L 24.308594 18.703125 C 24.136719 18.542969 23.914062 18.472656 23.691406 18.480469 Z M 13.308594 18.511719 C 13.085938 18.5 12.863281 18.574219 12.691406 18.730469 L 9.191406 21.910156 C 9.019531 22.085938 8.902344 22.316406 8.902344 22.546875 C 8.902344 22.777344 9.019531 23.039062 9.191406 23.183594 L 12.691406 26.390625 C 12.863281 26.535156 13.066406 26.621094 13.269531 26.621094 C 13.5 26.621094 13.730469 26.535156 13.902344 26.332031 C 14.222656 25.988281 14.191406 25.4375 13.847656 25.121094 L 11.070312 22.546875 L 13.847656 20.003906 C 14.191406 19.683594 14.222656 19.136719 13.902344 18.789062 C 13.746094 18.617188 13.527344 18.523438 13.308594 18.511719 Z M 13.308594 18.511719 "/>
</g>
</svg>
