<svg width="24" height="24" viewBox="0 0 24 24" fill="none" xmlns="http://www.w3.org/2000/svg">
<path d="M14.5975 15.1875C14.7075 15.3175 14.855 15.3725 15.0025 15.3725C15.1325 15.3725 15.2625 15.3375 15.3725 15.225L17.6125 13.1725C17.7225 13.06 17.7975 12.9125 17.7975 12.765C17.7975 12.6175 17.7225 12.45 17.6125 12.3575L15.3725 10.305C15.1525 10.1 14.8 10.12 14.5975 10.3425C14.3925 10.5625 14.4125 10.915 14.6325 11.1175L16.41 12.7475L14.6325 14.375C14.4125 14.5975 14.3925 14.9475 14.5975 15.1875Z" fill="black"/>
<path d="M12.8575 8.47249L9.7875 16.6675C9.675 16.965 9.8225 17.28 10.12 17.39C10.175 17.4075 10.2125 17.4275 10.2675 17.4275C10.5075 17.445 10.7475 17.315 10.84 17.075L13.8925 8.86249C14.005 8.56499 13.8575 8.24999 13.56 8.13999C13.2825 8.02998 12.95 8.17749 12.8575 8.47249Z" fill="black"/>
<path d="M9.0825 10.3425C8.88 10.12 8.5275 10.1 8.3075 10.305L6.0675 12.3575C5.9575 12.47 5.8825 12.6175 5.8825 12.765C5.8825 12.9125 5.9575 13.08 6.0675 13.1725L8.3075 15.225C8.4175 15.3175 8.5475 15.3725 8.6775 15.3725C8.825 15.3725 8.9725 15.3175 9.0825 15.1875C9.2875 14.9675 9.2675 14.615 9.0475 14.4125L7.27 12.765L9.0475 11.1375C9.2675 10.9325 9.2875 10.5825 9.0825 10.3425Z" fill="black"/>
<path d="M20.165 5.36498C20.165 4.23749 19.72 3.16249 18.925 2.34999C18.1125 1.55499 17.0375 1.10999 15.91 1.10999H5.92C4.5875 1.10999 3.515 2.18249 3.515 3.51499V20.165C3.515 21.4975 4.5875 22.57 5.92 22.57H17.76C19.0925 22.57 20.165 21.4975 20.165 20.165V7.95499C20.165 7.63999 19.925 7.39999 19.61 7.39999C19.295 7.39999 19.055 7.63999 19.055 7.95499V20.165C19.055 20.8875 18.4825 21.46 17.76 21.46H5.92C5.1975 21.46 4.625 20.8875 4.625 20.165V3.51499C4.625 2.79249 5.1975 2.21999 5.92 2.21999H15.355V3.51499C15.355 4.84749 16.4275 5.91999 17.76 5.91999H19.61C19.925 5.91999 20.165 5.67999 20.165 5.36498ZM17.76 4.80999C17.0375 4.80999 16.465 4.23749 16.465 3.51499V2.27499C17.095 2.38749 17.6675 2.68249 18.13 3.14498C18.5925 3.60749 18.8875 4.17999 19 4.80999H17.76Z" fill="black"/>
</svg>
