<?xml version="1.0" encoding="UTF-8"?>
<svg xmlns="http://www.w3.org/2000/svg" xmlns:xlink="http://www.w3.org/1999/xlink" width="37.5pt" height="37.5pt" viewBox="0 0 37.5 37.5" version="1.1">
<g id="surface4344">
<path style=" stroke:none;fill-rule:nonzero;fill:rgb(0%,0%,0%);fill-opacity:1;" d="M 21.679688 0.289062 C 16.898438 0.289062 13.007812 4.179688 13.007812 8.960938 C 13.007812 13.742188 16.898438 17.632812 21.679688 17.632812 C 26.460938 17.632812 30.351562 13.742188 30.351562 8.960938 C 30.351562 4.179688 26.460938 0.289062 21.679688 0.289062 Z M 21.679688 2.023438 C 25.503906 2.023438 28.617188 5.136719 28.617188 8.960938 C 28.617188 12.785156 25.503906 15.898438 21.679688 15.898438 C 17.855469 15.898438 14.742188 12.785156 14.742188 8.960938 C 14.742188 5.136719 17.855469 2.023438 21.679688 2.023438 Z M 10.328125 19.902344 C 8.234375 19.863281 6.148438 20.515625 4.417969 21.820312 C 4.0625 22.085938 3.917969 22.574219 4.136719 22.964844 C 4.398438 23.4375 5.011719 23.550781 5.425781 23.230469 C 7.808594 21.398438 11.113281 21.324219 13.859375 22.546875 L 20.8125 25.644531 C 21.074219 25.757812 21.289062 25.945312 21.441406 26.1875 C 21.703125 26.597656 21.742188 27.105469 21.542969 27.550781 C 21.394531 27.882812 21.125 28.152344 20.773438 28.296875 C 20.390625 28.453125 19.957031 28.421875 19.582031 28.253906 L 14.648438 26.046875 C 14.214844 25.851562 13.699219 26.046875 13.503906 26.484375 C 13.308594 26.921875 13.503906 27.433594 13.941406 27.628906 L 18.929688 29.859375 C 19.351562 30.046875 19.796875 30.140625 20.234375 30.140625 C 21.125 30.140625 21.996094 29.765625 22.613281 29.058594 C 22.824219 28.820312 22.996094 28.546875 23.128906 28.253906 C 23.675781 27.03125 23.40625 25.582031 22.382812 24.621094 C 22.125 24.375 21.816406 24.1875 21.496094 24.042969 L 14.035156 20.726562 C 12.847656 20.195312 11.585938 19.925781 10.328125 19.902344 Z M 28.496094 21.472656 C 28.082031 21.472656 27.664062 21.554688 27.257812 21.726562 L 25.1875 22.628906 C 24.75 22.820312 24.550781 23.332031 24.742188 23.769531 C 24.929688 24.210938 25.441406 24.410156 25.882812 24.21875 L 27.945312 23.320312 C 28.679688 23.007812 29.523438 23.351562 29.84375 24.097656 L 29.976562 24.398438 L 26.164062 26.019531 C 25.726562 26.207031 25.519531 26.714844 25.710938 27.15625 C 25.898438 27.597656 26.40625 27.800781 26.847656 27.613281 L 32.773438 25.089844 C 33.535156 24.765625 34.414062 25.074219 34.738281 25.777344 C 34.902344 26.136719 34.917969 26.539062 34.773438 26.90625 C 34.632812 27.273438 34.351562 27.558594 33.992188 27.710938 L 17.695312 34.601562 C 16.382812 35.152344 14.902344 35.113281 13.636719 34.496094 L 5.59375 30.445312 C 5.304688 30.300781 4.960938 30.328125 4.699219 30.515625 L 0.652344 33.40625 C 0.261719 33.683594 0.171875 34.226562 0.449219 34.613281 C 0.730469 35.003906 1.273438 35.09375 1.664062 34.816406 L 5.285156 32.226562 L 12.867188 36.046875 C 13.789062 36.492188 14.785156 36.71875 15.78125 36.71875 C 16.660156 36.71875 17.542969 36.546875 18.371094 36.195312 L 34.660156 29.304688 C 35.460938 28.96875 36.074219 28.335938 36.386719 27.527344 C 36.703125 26.71875 36.671875 25.839844 36.3125 25.050781 C 35.601562 23.503906 33.710938 22.804688 32.089844 23.492188 L 31.570312 23.714844 L 31.433594 23.40625 C 30.917969 22.195312 29.738281 21.46875 28.496094 21.472656 Z M 28.496094 21.472656 "/>
</g>
</svg>
