<svg width="24" height="24" viewBox="0 0 24 24" fill="none" xmlns="http://www.w3.org/2000/svg">
<g clip-path="url(#clip0_13116_1274)">
<path d="M13.295 18.11C13.05 18.21 12.7725 18.19 12.5325 18.0825L9.37501 16.67C9.09751 16.545 8.76751 16.67 8.64251 16.95C8.51751 17.23 8.64251 17.5575 8.92251 17.6825L12.115 19.11C12.385 19.23 12.67 19.29 12.95 19.29C13.52 19.29 14.0775 19.05 14.4725 18.5975C14.6075 18.445 14.7175 18.27 14.8025 18.0825C15.1525 17.3 14.9825 16.3725 14.325 15.7575C14.16 15.6 13.965 15.48 13.7575 15.3875L8.98251 13.265C6.95501 12.3625 4.60001 12.63 2.82751 13.965C2.60001 14.135 2.50751 14.4475 2.64751 14.6975C2.81501 15 3.20751 15.075 3.47251 14.8675C4.99751 13.695 7.11251 13.6475 8.87001 14.43L13.32 16.4125C13.4875 16.485 13.625 16.605 13.7225 16.76C13.89 17.0225 13.915 17.3475 13.7875 17.6325C13.6925 17.845 13.52 18.0175 13.295 18.11Z" fill="black"/>
<path d="M0.287507 22.1525C0.465006 22.4025 0.815007 22.46 1.06501 22.2825L3.38251 20.625L8.23501 23.07C8.82501 23.355 9.46251 23.5 10.1 23.5C10.6625 23.5 11.2275 23.39 11.7575 23.165L22.1825 18.755C22.695 18.54 23.085 18.135 23.2875 17.6175C23.49 17.1 23.47 16.5375 23.24 16.0325C22.785 15.0425 21.575 14.595 20.5375 15.035L20.205 15.1775L20.1175 14.98C19.6775 13.9475 18.4825 13.465 17.445 13.905L16.12 14.4825C15.84 14.605 15.7125 14.9325 15.835 15.2125C15.955 15.495 16.2825 15.6225 16.565 15.5L17.885 14.925C18.355 14.725 18.895 14.945 19.1 15.4225L19.185 15.615L16.745 16.6525C16.465 16.7725 16.3325 17.0975 16.455 17.38C16.575 17.6625 16.9 17.7925 17.1825 17.6725L20.975 16.0575C21.4625 15.85 22.025 16.05 22.2325 16.4975C22.34 16.7275 22.345 16.985 22.255 17.22C22.165 17.455 21.985 17.6375 21.755 17.735L11.325 22.145C10.485 22.4975 9.53751 22.4725 8.72751 22.0775L3.58001 19.485C3.39501 19.3925 3.17501 19.41 3.00751 19.53L0.417507 21.38C0.167507 21.555 0.110007 21.905 0.287507 22.1525Z" fill="black"/>
<path d="M19.425 5.735C19.425 2.675 16.935 0.184998 13.875 0.184998C10.815 0.184998 8.32501 2.675 8.32501 5.735C8.32501 8.795 10.815 11.285 13.875 11.285C16.935 11.285 19.425 8.795 19.425 5.735ZM13.875 10.175C11.4275 10.175 9.43501 8.1825 9.43501 5.735C9.43501 3.2875 11.4275 1.295 13.875 1.295C16.3225 1.295 18.315 3.2875 18.315 5.735C18.315 8.1825 16.3225 10.175 13.875 10.175Z" fill="black"/>
</g>
<defs>
<clipPath id="clip0_13116_1274">
<rect width="24" height="24" fill="black"/>
</clipPath>
</defs>
</svg>
