<?xml version="1.0" encoding="UTF-8"?>
<svg xmlns="http://www.w3.org/2000/svg" xmlns:xlink="http://www.w3.org/1999/xlink" width="37.5pt" height="37.5pt" viewBox="0 0 37.5 37.5" version="1.1">
<g id="surface4902">
<path style=" stroke:none;fill-rule:nonzero;fill:rgb(0%,0%,0%);fill-opacity:1;" d="M 36.710938 15.609375 C 36.710938 15.117188 36.335938 14.742188 35.84375 14.742188 L 31.21875 14.742188 C 30.726562 14.742188 30.351562 15.117188 30.351562 15.609375 C 30.351562 16.101562 30.726562 16.476562 31.21875 16.476562 L 35.84375 16.476562 C 36.335938 16.476562 36.710938 16.101562 36.710938 15.609375 Z M 29.511719 12.402344 C 29.746094 12.402344 29.945312 12.3125 30.121094 12.140625 L 33.386719 8.875 C 33.734375 8.527344 33.734375 7.976562 33.386719 7.660156 C 33.039062 7.3125 32.492188 7.3125 32.171875 7.660156 L 28.90625 10.898438 C 28.558594 11.246094 28.558594 11.792969 28.90625 12.113281 C 29.078125 12.3125 29.3125 12.402344 29.511719 12.402344 Z M 28.90625 20.320312 L 32.171875 23.585938 C 32.347656 23.761719 32.578125 23.847656 32.78125 23.847656 C 32.980469 23.847656 33.214844 23.761719 33.386719 23.585938 C 33.734375 23.242188 33.734375 22.691406 33.386719 22.375 L 30.148438 19.078125 C 29.800781 18.730469 29.253906 18.730469 28.933594 19.078125 C 28.558594 19.425781 28.558594 19.972656 28.90625 20.320312 Z M 26.621094 6.707031 C 26.679688 7.167969 27.144531 7.515625 27.605469 7.429688 C 28.066406 7.371094 28.414062 6.910156 28.328125 6.445312 C 27.921875 3.585938 27.230469 0.289062 25.4375 0.289062 L 19.65625 0.289062 C 18.617188 0.289062 17.863281 1.328125 17.285156 3.640625 L 7.457031 7.777344 C 7.140625 7.921875 6.851562 8.035156 6.5625 8.179688 C 2.574219 10.175781 0.316406 14.65625 1.039062 19.105469 L 3.527344 34.023438 C 3.785156 35.582031 5.117188 36.710938 6.707031 36.710938 C 8.46875 36.710938 9.914062 35.265625 9.914062 33.503906 L 9.914062 27.605469 L 11.1875 28.125 C 11.621094 28.300781 12.140625 28.097656 12.3125 27.632812 C 12.488281 27.199219 12.285156 26.679688 11.824219 26.507812 L 9.367188 25.496094 C 9.105469 25.378906 8.789062 25.410156 8.554688 25.582031 C 8.324219 25.753906 8.179688 26.015625 8.179688 26.304688 L 8.179688 33.472656 C 8.179688 34.28125 7.515625 34.949219 6.707031 34.949219 C 5.984375 34.949219 5.375 34.425781 5.230469 33.703125 L 2.773438 18.816406 C 2.167969 15.117188 4.046875 11.390625 7.34375 9.742188 C 7.601562 9.625 7.890625 9.480469 8.152344 9.367188 L 16.882812 5.695312 C 16.417969 8.355469 16.1875 11.734375 16.1875 15.320312 C 16.1875 18.90625 16.417969 22.285156 16.882812 24.945312 L 9.394531 21.796875 C 8.960938 21.621094 8.441406 21.824219 8.265625 22.257812 C 8.09375 22.691406 8.296875 23.210938 8.730469 23.386719 L 17.285156 27 C 17.863281 29.3125 18.617188 30.351562 19.65625 30.351562 L 25.4375 30.351562 C 26.796875 30.351562 27.664062 28.558594 28.300781 24.570312 C 28.386719 24.109375 28.039062 23.644531 27.578125 23.585938 C 27.113281 23.53125 26.652344 23.847656 26.59375 24.308594 C 26.160156 27.027344 25.699219 28.097656 25.464844 28.472656 C 24.917969 27.632812 24.109375 24.453125 23.820312 19.078125 C 25.699219 18.875 27.171875 17.257812 27.171875 15.320312 C 27.171875 13.382812 25.699219 11.765625 23.789062 11.589844 C 24.050781 6.214844 24.886719 3.035156 25.4375 2.195312 C 25.667969 2.574219 26.1875 3.699219 26.621094 6.707031 Z M 22.75 25.496094 C 22.980469 26.824219 23.269531 27.867188 23.585938 28.617188 L 19.773438 28.617188 C 19.105469 27.980469 17.921875 23.472656 17.921875 15.320312 C 17.921875 7.167969 19.105469 2.660156 19.773438 2.023438 L 23.585938 2.023438 C 23.269531 2.804688 22.980469 3.816406 22.75 5.144531 C 22.257812 7.863281 21.96875 11.476562 21.96875 15.320312 C 21.96875 19.164062 22.257812 22.777344 22.75 25.496094 Z M 25.4375 15.320312 C 25.4375 16.332031 24.6875 17.171875 23.730469 17.316406 C 23.703125 16.679688 23.703125 16.015625 23.703125 15.320312 C 23.703125 14.625 23.703125 13.960938 23.730469 13.324219 C 24.6875 13.46875 25.4375 14.308594 25.4375 15.320312 Z M 25.4375 15.320312 "/>
</g>
</svg>
