<?xml version="1.0" encoding="UTF-8"?>
<svg xmlns="http://www.w3.org/2000/svg" xmlns:xlink="http://www.w3.org/1999/xlink" width="37.5pt" height="37.5pt" viewBox="0 0 37.5 37.5" version="1.1">
<g id="surface4206">
<path style=" stroke:none;fill-rule:nonzero;fill:rgb(0%,0%,0%);fill-opacity:1;" d="M 35.84375 21.101562 L 29.484375 21.101562 C 29.003906 21.101562 28.617188 21.488281 28.617188 21.96875 C 28.617188 22.449219 29.003906 22.835938 29.484375 22.835938 L 33.75 22.835938 L 21.222656 35.363281 C 20.882812 35.703125 20.882812 36.25 21.222656 36.589844 C 21.394531 36.761719 21.613281 36.84375 21.835938 36.84375 C 22.058594 36.84375 22.28125 36.761719 22.449219 36.589844 L 34.976562 24.0625 L 34.976562 28.328125 C 34.976562 28.808594 35.363281 29.195312 35.84375 29.195312 C 36.324219 29.195312 36.710938 28.808594 36.710938 28.328125 L 36.710938 21.96875 C 36.710938 21.488281 36.324219 21.101562 35.84375 21.101562 Z M 16.648438 12.238281 L 12.910156 8.5 C 12.472656 8.066406 11.890625 7.824219 11.273438 7.824219 C 10.65625 7.824219 10.074219 8.066406 9.636719 8.5 L 1.988281 16.152344 C 1.652344 16.492188 1.652344 17.039062 1.988281 17.378906 C 2.15625 17.550781 2.378906 17.632812 2.601562 17.632812 C 2.824219 17.632812 3.046875 17.550781 3.214844 17.378906 L 10.863281 9.730469 C 11.082031 9.511719 11.460938 9.511719 11.679688 9.730469 L 15.417969 13.46875 C 15.855469 13.902344 16.4375 14.144531 17.054688 14.144531 C 17.671875 14.144531 18.253906 13.902344 18.691406 13.46875 L 28.90625 3.25 L 28.90625 7.515625 C 28.90625 7.996094 29.292969 8.382812 29.773438 8.382812 C 30.253906 8.382812 30.640625 7.996094 30.640625 7.515625 L 30.640625 1.15625 C 30.640625 0.675781 30.253906 0.289062 29.773438 0.289062 L 23.414062 0.289062 C 22.933594 0.289062 22.546875 0.675781 22.546875 1.15625 C 22.546875 1.636719 22.933594 2.023438 23.414062 2.023438 L 27.679688 2.023438 L 17.460938 12.238281 C 17.246094 12.457031 16.863281 12.457031 16.648438 12.238281 Z M 24.894531 15.574219 C 24.554688 15.238281 24.007812 15.238281 23.667969 15.574219 L 12.683594 26.558594 C 12.347656 26.898438 12.347656 27.445312 12.683594 27.785156 C 12.851562 27.957031 13.074219 28.039062 13.296875 28.039062 C 13.519531 28.039062 13.742188 27.957031 13.910156 27.785156 L 24.894531 16.800781 C 25.230469 16.460938 25.230469 15.914062 24.894531 15.574219 Z M 5.238281 36.457031 L 8.128906 33.566406 C 8.464844 33.226562 8.464844 32.679688 8.128906 32.339844 C 7.789062 32.003906 7.242188 32.003906 6.902344 32.339844 L 4.011719 35.230469 C 3.675781 35.570312 3.675781 36.117188 4.011719 36.457031 C 4.183594 36.628906 4.402344 36.710938 4.625 36.710938 C 4.847656 36.710938 5.070312 36.628906 5.238281 36.457031 Z M 5.238281 36.457031 "/>
</g>
</svg>
