<svg width="24" height="24" viewBox="0 0 24 24" fill="none" xmlns="http://www.w3.org/2000/svg">
<g clip-path="url(#clip0_12916_46221)">
<path d="M15.0002 4.50006C14.8694 4.50006 14.719 4.44342 14.6057 4.33209L12.5627 2.28717V5.98053C12.5627 6.09381 12.5999 6.18756 12.676 6.26178L13.6135 7.19928C14.1936 7.78131 14.1936 8.73834 13.6135 9.31842L11.1936 11.7383C11.0432 11.8868 11.0432 12.1133 11.1936 12.2618L13.594 14.6622C14.176 15.2442 14.176 16.1993 13.594 16.7813L12.3752 18.0001C12.262 18.1133 12.1135 18.168 11.9807 18.168C11.8499 18.168 11.6995 18.1133 11.5881 18.0001C11.3635 17.793 11.3635 17.4376 11.5881 17.213L12.8069 15.9942C12.9573 15.8438 12.9573 15.6192 12.8069 15.4688L10.387 13.0508C9.80688 12.4688 9.80688 11.5118 10.387 10.9317L12.8069 8.51178C12.8811 8.43756 12.9182 8.34381 12.9182 8.25006C12.9182 8.15631 12.8811 8.06256 12.8069 7.98834L11.8694 7.05084C11.5881 6.75006 11.4377 6.37506 11.4377 5.98053V2.28717L9.39478 4.33209C9.18775 4.5567 8.83228 4.5567 8.60571 4.33209C8.3811 4.12506 8.3811 3.76959 8.60571 3.54303L11.6057 0.54303C11.8127 0.31842 12.1682 0.31842 12.3948 0.54303L15.3948 3.54303C15.6194 3.75006 15.6194 4.10553 15.3948 4.33209C15.2815 4.44342 15.1311 4.50006 15.0002 4.50006Z" fill="black"/>
<path d="M1.89478 11.8321C1.68774 12.0567 1.33227 12.0567 1.10571 11.8321C0.881103 11.6251 0.881103 11.2501 1.10571 11.043L4.10571 8.04303C4.31274 7.81842 4.66821 7.81842 4.89477 8.04303L7.89478 11.043C8.11938 11.2501 8.11938 11.6055 7.89478 11.8321C7.78149 11.9434 7.6311 12.0001 7.50024 12.0001C7.36938 12.0001 7.21899 11.9434 7.10571 11.8321L5.06274 9.78717V21.3751C5.06274 21.6934 4.8186 21.9376 4.50024 21.9376C4.18188 21.9376 3.93774 21.6934 3.93774 21.3751V9.78717L1.89478 11.8321Z" fill="black"/>
<path d="M22.8948 11.8321C22.7815 11.9434 22.6506 12.0001 22.5002 12.0001C22.3499 12.0001 22.219 11.9434 22.1057 11.8321L20.0627 9.78717V21.3751C20.0627 21.6934 19.8186 21.9376 19.5002 21.9376C19.1819 21.9376 18.9377 21.6934 18.9377 21.3751V9.78717L16.8948 11.8321C16.6877 12.0567 16.3323 12.0567 16.1057 11.8321C15.8811 11.6251 15.8811 11.2696 16.1057 11.043L19.1057 8.04303C19.3127 7.81842 19.6682 7.81842 19.8948 8.04303L22.8948 11.043C23.1194 11.2501 23.1194 11.6055 22.8948 11.8321Z" fill="black"/>
<path d="M12.0002 20.8126C11.6819 20.8126 11.4377 21.0567 11.4377 21.3751V23.2501C11.4377 23.5684 11.6819 23.8126 12.0002 23.8126C12.3186 23.8126 12.5627 23.5684 12.5627 23.2501V21.3751C12.5627 21.0567 12.3186 20.8126 12.0002 20.8126Z" fill="black"/>
</g>
<defs>
<clipPath id="clip0_12916_46221">
<rect width="24" height="24" fill="black"/>
</clipPath>
</defs>
</svg>
