<svg width="24" height="24" viewBox="0 0 24 24" fill="none" xmlns="http://www.w3.org/2000/svg">
<path d="M18.7526 18.3325C18.9426 18.3325 19.1301 18.235 19.2351 18.0575C19.3951 17.7925 19.3101 17.4475 19.0401 17.2875C16.8001 15.9475 14.6151 14.9925 13.1776 14.4275C12.8901 14.3125 12.5626 14.455 12.4501 14.745C12.3351 15.0325 12.4776 15.36 12.7651 15.4725C14.1651 16.0225 16.2876 16.9525 18.4651 18.2525C18.5551 18.3075 18.6551 18.3325 18.7526 18.3325Z" fill="black"/>
<path d="M22.1676 7.47996C22.1476 7.16996 21.8801 6.93496 21.5676 6.95746C21.2576 6.97746 21.0251 7.24496 21.0451 7.55746C21.2251 10.2075 21.5601 13.825 22.5676 18.27C22.6276 18.53 22.8601 18.7075 23.1151 18.7075C23.1576 18.7075 23.1976 18.705 23.2426 18.695C23.5451 18.625 23.7351 18.325 23.6651 18.0225C22.6751 13.6525 22.3451 10.0925 22.1676 7.47996Z" fill="black"/>
<path d="M23.6176 3.23496C23.6176 1.99496 22.6076 0.987459 21.3676 0.987459C20.1276 0.987459 19.1176 1.99496 19.1176 3.23496C19.1176 4.47746 20.1276 5.48496 21.3676 5.48496C22.6076 5.48496 23.6176 4.47746 23.6176 3.23496ZM20.2426 3.23496C20.2426 2.61496 20.7476 2.11246 21.3676 2.11246C21.9876 2.11246 22.4926 2.61496 22.4926 3.23496C22.4926 3.85746 21.9876 4.35996 21.3676 4.35996C20.7476 4.35996 20.2426 3.85746 20.2426 3.23496Z" fill="black"/>
<path d="M9.56008 22.73C10.8001 22.73 11.8076 21.72 11.8076 20.48C11.8076 19.24 10.8001 18.23 9.56008 18.23C8.31758 18.23 7.31008 19.24 7.31008 20.48C7.31008 21.72 8.31758 22.73 9.56008 22.73ZM9.56008 19.355C10.1801 19.355 10.6826 19.86 10.6826 20.48C10.6826 21.1 10.1801 21.605 9.56008 21.605C8.93758 21.605 8.43508 21.1 8.43508 20.48C8.43508 19.86 8.93758 19.355 9.56008 19.355Z" fill="black"/>
<path d="M21.4701 20.8275C19.7401 20.33 16.9651 19.73 13.5876 19.69C13.5851 19.69 13.5826 19.69 13.5801 19.69C13.2726 19.69 13.0201 19.9375 13.0176 20.245C13.0126 20.5575 13.2626 20.8125 13.5726 20.815C16.8251 20.8525 19.4926 21.43 21.1576 21.905C21.2101 21.92 21.2601 21.9275 21.3126 21.9275C21.5576 21.9275 21.7826 21.7675 21.8526 21.5225C21.9426 21.2225 21.7701 20.9125 21.4701 20.8275Z" fill="black"/>
<path d="M0.767665 21.895C1.05017 22.0775 1.36767 22.1675 1.68267 22.1675C2.23517 22.1675 2.77767 21.8975 3.10017 21.4L10.4577 10.0875C10.6252 9.82496 10.5527 9.47746 10.2927 9.30746C10.0327 9.13996 9.68267 9.21246 9.51517 9.47246L2.15767 20.7875C1.98767 21.0475 1.63767 21.12 1.38017 20.9525C1.12017 20.7825 1.04516 20.435 1.21517 20.175L8.57017 8.85996C8.74017 8.59996 8.66767 8.25246 8.40767 8.08246C8.14517 7.91496 7.79767 7.98746 7.62767 8.24746L0.272665 19.56C-0.234835 20.34 -0.0123348 21.3875 0.767665 21.895Z" fill="black"/>
<path d="M2.07758 0.957459C1.63758 0.969959 1.26758 1.27996 1.18008 1.70996C1.09008 2.13996 1.31008 2.56496 1.71008 2.74746C7.18758 5.23746 13.3851 9.26746 17.8851 13.2625C18.0626 13.42 18.2851 13.5025 18.5051 13.5025C18.6951 13.5025 18.8826 13.4425 19.0476 13.3275C19.4051 13.0725 19.5376 12.61 19.3701 12.2025C18.3401 9.71246 16.8701 7.55246 14.9976 5.78246C14.7726 5.56746 14.4176 5.57746 14.2026 5.80496C13.9901 6.02746 14.0001 6.38496 14.2251 6.59746C15.7876 8.07746 17.0526 9.84746 17.9951 11.87C13.6476 8.12496 8.12758 4.53496 2.94008 2.07996C5.21508 2.11996 7.38258 2.57496 9.40008 3.43246C9.68508 3.55496 10.0176 3.42246 10.1376 3.13496C10.2601 2.84996 10.1276 2.51746 9.84008 2.39746C7.42758 1.36996 4.81758 0.887459 2.07758 0.957459Z" fill="black"/>
<path d="M12.4276 2.42996C12.1676 2.26246 11.8201 2.33496 11.6501 2.59496C11.4826 2.85496 11.5551 3.20496 11.8151 3.37246L13.2826 4.32746C13.3801 4.38746 13.4851 4.41746 13.5876 4.41746C13.7726 4.41746 13.9526 4.32746 14.0601 4.16246C14.2301 3.90246 14.1576 3.55246 13.8951 3.38496L12.4276 2.42996Z" fill="black"/>
</svg>
