<?xml version="1.0" encoding="UTF-8"?>
<svg xmlns="http://www.w3.org/2000/svg" xmlns:xlink="http://www.w3.org/1999/xlink" width="37.5pt" height="37.5pt" viewBox="0 0 37.5 37.5" version="1.1">
<g id="surface4314">
<path style=" stroke:none;fill-rule:nonzero;fill:rgb(0%,0%,0%);fill-opacity:1;" d="M 29.300781 28.644531 C 29.597656 28.644531 29.890625 28.492188 30.054688 28.214844 C 30.304688 27.800781 30.171875 27.261719 29.75 27.011719 C 26.25 24.917969 22.835938 23.425781 20.589844 22.542969 C 20.140625 22.363281 19.628906 22.585938 19.453125 23.039062 C 19.273438 23.488281 19.496094 24 19.945312 24.175781 C 22.132812 25.035156 25.449219 26.488281 28.851562 28.519531 C 28.992188 28.605469 29.148438 28.644531 29.300781 28.644531 Z M 34.636719 11.6875 C 34.605469 11.203125 34.1875 10.835938 33.699219 10.871094 C 33.214844 10.902344 32.851562 11.320312 32.882812 11.808594 C 33.164062 15.949219 33.6875 21.601562 35.261719 28.546875 C 35.355469 28.953125 35.71875 29.230469 36.117188 29.230469 C 36.183594 29.230469 36.246094 29.226562 36.316406 29.210938 C 36.789062 29.101562 37.085938 28.632812 36.976562 28.160156 C 35.429688 21.332031 34.914062 15.769531 34.636719 11.6875 Z M 36.902344 5.054688 C 36.902344 3.117188 35.324219 1.542969 33.386719 1.542969 C 31.449219 1.542969 29.871094 3.117188 29.871094 5.054688 C 29.871094 6.996094 31.449219 8.570312 33.386719 8.570312 C 35.324219 8.570312 36.902344 6.996094 36.902344 5.054688 Z M 31.628906 5.054688 C 31.628906 4.085938 32.417969 3.300781 33.386719 3.300781 C 34.355469 3.300781 35.144531 4.085938 35.144531 5.054688 C 35.144531 6.027344 34.355469 6.8125 33.386719 6.8125 C 32.417969 6.8125 31.628906 6.027344 31.628906 5.054688 Z M 14.9375 35.515625 C 16.875 35.515625 18.449219 33.9375 18.449219 32 C 18.449219 30.0625 16.875 28.484375 14.9375 28.484375 C 12.996094 28.484375 11.421875 30.0625 11.421875 32 C 11.421875 33.9375 12.996094 35.515625 14.9375 35.515625 Z M 14.9375 30.242188 C 15.90625 30.242188 16.691406 31.03125 16.691406 32 C 16.691406 32.96875 15.90625 33.757812 14.9375 33.757812 C 13.964844 33.757812 13.179688 32.96875 13.179688 32 C 13.179688 31.03125 13.964844 30.242188 14.9375 30.242188 Z M 33.546875 32.542969 C 30.84375 31.765625 26.507812 30.828125 21.230469 30.765625 C 21.226562 30.765625 21.222656 30.765625 21.21875 30.765625 C 20.738281 30.765625 20.34375 31.152344 20.339844 31.632812 C 20.332031 32.121094 20.722656 32.519531 21.207031 32.523438 C 26.289062 32.582031 30.457031 33.484375 33.058594 34.226562 C 33.140625 34.25 33.21875 34.261719 33.300781 34.261719 C 33.683594 34.261719 34.035156 34.011719 34.144531 33.628906 C 34.285156 33.160156 34.015625 32.675781 33.546875 32.542969 Z M 1.199219 34.210938 C 1.640625 34.496094 2.136719 34.636719 2.628906 34.636719 C 3.492188 34.636719 4.339844 34.214844 4.84375 33.4375 L 16.339844 15.761719 C 16.601562 15.351562 16.488281 14.808594 16.082031 14.542969 C 15.675781 14.28125 15.128906 14.394531 14.867188 14.800781 L 3.371094 32.480469 C 3.105469 32.886719 2.558594 33 2.15625 32.738281 C 1.75 32.472656 1.632812 31.929688 1.898438 31.523438 L 13.390625 13.84375 C 13.65625 13.4375 13.542969 12.894531 13.136719 12.628906 C 12.726562 12.367188 12.183594 12.480469 11.917969 12.886719 L 0.425781 30.5625 C -0.367188 31.78125 -0.0195312 33.417969 1.199219 34.210938 Z M 3.246094 1.496094 C 2.558594 1.515625 1.980469 2 1.84375 2.671875 C 1.703125 3.34375 2.046875 4.007812 2.671875 4.292969 C 11.230469 8.183594 20.914062 14.480469 27.945312 20.722656 C 28.222656 20.96875 28.570312 21.097656 28.914062 21.097656 C 29.210938 21.097656 29.503906 21.003906 29.761719 20.824219 C 30.320312 20.425781 30.527344 19.703125 30.265625 19.066406 C 28.65625 15.175781 26.359375 11.800781 23.433594 9.035156 C 23.082031 8.699219 22.527344 8.714844 22.191406 9.070312 C 21.859375 9.417969 21.875 9.976562 22.226562 10.308594 C 24.667969 12.621094 26.644531 15.386719 28.117188 18.546875 C 21.324219 12.695312 12.699219 7.085938 4.59375 3.25 C 8.148438 3.3125 11.535156 4.023438 14.6875 5.363281 C 15.132812 5.554688 15.652344 5.347656 15.839844 4.898438 C 16.03125 4.453125 15.824219 3.933594 15.375 3.746094 C 11.605469 2.140625 7.527344 1.386719 3.246094 1.496094 Z M 19.417969 3.796875 C 19.011719 3.535156 18.46875 3.648438 18.203125 4.054688 C 17.941406 4.460938 18.054688 5.007812 18.460938 5.269531 L 20.753906 6.761719 C 20.90625 6.855469 21.070312 6.902344 21.230469 6.902344 C 21.519531 6.902344 21.800781 6.761719 21.96875 6.503906 C 22.234375 6.097656 22.121094 5.550781 21.710938 5.289062 Z M 19.417969 3.796875 "/>
</g>
</svg>
