<svg width="24" height="24" viewBox="0 0 24 24" fill="none" xmlns="http://www.w3.org/2000/svg">
<path d="M22.94 0.185059H18.87C18.5625 0.185059 18.315 0.432559 18.315 0.740059C18.315 1.04756 18.5625 1.29506 18.87 1.29506H21.6L15.06 7.83256C14.9225 7.97256 14.6775 7.97256 14.5375 7.83256L12.1475 5.44006C11.8675 5.16256 11.495 5.00756 11.1 5.00756C10.705 5.00756 10.3325 5.16256 10.0525 5.44006L4.3775 11.1176C4.16 11.3351 4.16 11.6876 4.3775 11.9026C4.485 12.0126 4.6275 12.0651 4.77 12.0651C4.9125 12.0651 5.055 12.0126 5.1625 11.9026L10.84 6.22506C10.9775 6.08756 11.2225 6.08506 11.3625 6.22506L13.755 8.61756C14.035 8.89756 14.405 9.05006 14.8025 9.05006C15.1975 9.05006 15.57 8.89756 15.85 8.61756L22.385 2.08006V4.81006C22.385 5.11756 22.6325 5.36506 22.94 5.36506C23.2475 5.36506 23.495 5.11756 23.495 4.81006V0.740059C23.495 0.432559 23.2475 0.185059 22.94 0.185059Z" fill="black"/>
<path d="M2.4825 13.0126L1.4575 14.0376C1.2425 14.2551 1.2425 14.6051 1.4575 14.8226C1.565 14.9326 1.7075 14.9851 1.85 14.9851C1.9925 14.9851 2.135 14.9326 2.2425 14.8226L3.2675 13.7976C3.4825 13.5801 3.4825 13.2301 3.2675 13.0126C3.05 12.7976 2.7 12.7976 2.4825 13.0126Z" fill="black"/>
<path d="M11.84 14.9851C7.4525 14.9851 3.885 18.5526 3.885 22.9401C3.885 23.2476 4.1325 23.4951 4.44 23.4951C4.7475 23.4951 4.995 23.2476 4.995 22.9401C4.995 19.1651 8.065 16.0951 11.84 16.0951C15.615 16.0951 18.685 19.1651 18.685 22.9401C18.685 23.2476 18.9325 23.4951 19.24 23.4951C19.5475 23.4951 19.795 23.2476 19.795 22.9401C19.795 18.5526 16.2275 14.9851 11.84 14.9851Z" fill="black"/>
</svg>
