<?xml version="1.0" encoding="UTF-8"?>
<svg xmlns="http://www.w3.org/2000/svg" xmlns:xlink="http://www.w3.org/1999/xlink" width="37.5pt" height="37.5pt" viewBox="0 0 37.5 37.5" version="1.1">
<g id="surface4170">
<path style=" stroke:none;fill-rule:nonzero;fill:rgb(0%,0%,0%);fill-opacity:1;" d="M 35.84375 0.289062 L 29.484375 0.289062 C 29.003906 0.289062 28.617188 0.675781 28.617188 1.15625 C 28.617188 1.636719 29.003906 2.023438 29.484375 2.023438 L 33.75 2.023438 L 23.53125 12.238281 C 23.316406 12.457031 22.933594 12.457031 22.714844 12.238281 L 18.980469 8.5 C 18.542969 8.066406 17.960938 7.824219 17.34375 7.824219 C 16.726562 7.824219 16.144531 8.066406 15.707031 8.5 L 6.839844 17.371094 C 6.5 17.710938 6.5 18.261719 6.839844 18.597656 C 7.007812 18.769531 7.230469 18.851562 7.453125 18.851562 C 7.675781 18.851562 7.898438 18.769531 8.066406 18.597656 L 16.9375 9.726562 C 17.152344 9.511719 17.535156 9.507812 17.753906 9.726562 L 21.492188 13.464844 C 21.929688 13.902344 22.507812 14.140625 23.128906 14.140625 C 23.746094 14.140625 24.328125 13.902344 24.765625 13.464844 L 34.976562 3.25 L 34.976562 7.515625 C 34.976562 7.996094 35.363281 8.382812 35.84375 8.382812 C 36.324219 8.382812 36.710938 7.996094 36.710938 7.515625 L 36.710938 1.15625 C 36.710938 0.675781 36.324219 0.289062 35.84375 0.289062 Z M 3.878906 20.332031 L 2.277344 21.933594 C 1.941406 22.273438 1.941406 22.820312 2.277344 23.160156 C 2.445312 23.332031 2.667969 23.414062 2.890625 23.414062 C 3.113281 23.414062 3.335938 23.332031 3.503906 23.160156 L 5.105469 21.558594 C 5.441406 21.21875 5.441406 20.671875 5.105469 20.332031 C 4.765625 19.996094 4.21875 19.996094 3.878906 20.332031 Z M 18.5 23.414062 C 11.644531 23.414062 6.070312 28.988281 6.070312 35.84375 C 6.070312 36.324219 6.457031 36.710938 6.9375 36.710938 C 7.417969 36.710938 7.804688 36.324219 7.804688 35.84375 C 7.804688 29.945312 12.601562 25.148438 18.5 25.148438 C 24.398438 25.148438 29.195312 29.945312 29.195312 35.84375 C 29.195312 36.324219 29.582031 36.710938 30.0625 36.710938 C 30.542969 36.710938 30.929688 36.324219 30.929688 35.84375 C 30.929688 28.988281 25.355469 23.414062 18.5 23.414062 Z M 18.5 23.414062 "/>
</g>
</svg>
