<?xml version="1.0" encoding="UTF-8"?>
<svg xmlns="http://www.w3.org/2000/svg" xmlns:xlink="http://www.w3.org/1999/xlink" width="37.5pt" height="37.5pt" viewBox="0 0 37.5 37.5" version="1.1">
<g id="surface4116">
<path style=" stroke:none;fill-rule:nonzero;fill:rgb(0%,0%,0%);fill-opacity:1;" d="M 36.046875 24.597656 L 16.101562 19.683594 C 15.898438 19.628906 15.667969 19.65625 15.464844 19.773438 L 0.722656 27.867188 C 0.460938 28.011719 0.289062 28.300781 0.289062 28.617188 L 0.289062 32.953125 C 0.289062 33.445312 0.664062 33.820312 1.15625 33.820312 C 1.648438 33.820312 2.023438 33.445312 2.023438 32.953125 L 2.023438 29.136719 L 15.4375 21.449219 L 34.890625 26.101562 L 34.195312 32.085938 L 32.546875 32.085938 C 32.144531 30.4375 30.667969 29.195312 28.90625 29.195312 C 27.144531 29.195312 25.640625 30.4375 25.265625 32.085938 L 11.445312 32.085938 C 11.042969 30.4375 9.566406 29.195312 7.804688 29.195312 C 5.722656 29.195312 4.046875 30.871094 4.046875 32.953125 C 4.046875 35.035156 5.433594 36.710938 7.515625 36.710938 C 9.277344 36.710938 11.070312 35.46875 11.445312 33.820312 L 25.234375 33.820312 C 25.640625 35.46875 27.113281 36.710938 28.878906 36.710938 C 30.640625 36.710938 32.144531 35.46875 32.519531 33.820312 L 34.949219 33.820312 C 35.382812 33.820312 35.757812 33.503906 35.816406 33.039062 L 36.683594 25.523438 C 36.769531 25.089844 36.480469 24.6875 36.046875 24.597656 Z M 36.046875 24.597656 "/>
</g>
</svg>
