<svg width="24" height="24" viewBox="0 0 24 24" fill="none" xmlns="http://www.w3.org/2000/svg">
<g clip-path="url(#clip0_13116_811)">
<path d="M12.025 5.18006C11.71 5.18006 11.47 5.42006 11.47 5.73506V10.9151C11.47 11.5626 11.73 12.1551 12.1725 12.6176C12.635 13.0801 13.2275 13.3201 13.875 13.3201H16.65C16.965 13.3201 17.205 13.0801 17.205 12.7651C17.205 12.4501 16.965 12.2101 16.65 12.2101H13.875C13.5225 12.2101 13.21 12.0801 12.9675 11.8401C12.7275 11.6001 12.58 11.2676 12.58 10.9151V5.73506C12.58 5.42006 12.34 5.18006 12.025 5.18006Z" fill="black"/>
<path d="M21.72 13.3376L19.8125 12.3401L13.395 2.16506C12.6175 0.925059 11.2675 0.185059 9.805 0.185059H0.739998C0.424998 0.185059 0.184998 0.425059 0.184998 0.740059C0.184998 1.05506 0.424998 1.29506 0.739998 1.29506H9.805C10.8975 1.29506 11.8775 1.85006 12.47 2.75756L18.9625 13.0601C19.0175 13.1351 19.0925 13.2101 19.165 13.2651L21.2 14.3376C21.94 14.7251 22.385 15.4851 22.385 16.2976V19.4251C22.385 19.6276 22.2175 19.7951 22.015 19.7951H19.74C19.48 18.3326 18.185 17.2051 16.65 17.2051C15.115 17.2051 13.82 18.3326 13.56 19.7951H0.739998C0.424998 19.7951 0.184998 20.0351 0.184998 20.3501C0.184998 20.6651 0.424998 20.9051 0.739998 20.9051H13.56C13.82 22.3676 15.115 23.4951 16.65 23.4951C18.185 23.4951 19.48 22.3676 19.74 20.9051H22.015C22.83 20.9051 23.495 20.2401 23.495 19.4251V16.2976C23.495 15.0601 22.81 13.9126 21.72 13.3376ZM16.65 22.3851C15.5225 22.3851 14.615 21.4776 14.615 20.3501C14.615 19.2226 15.5225 18.3151 16.65 18.3151C17.7775 18.3151 18.685 19.2226 18.685 20.3501C18.685 21.4776 17.7775 22.3851 16.65 22.3851Z" fill="black"/>
<path d="M0.462498 12.5426C0.702498 12.7276 1.055 12.6901 1.24 12.4501C1.4425 12.1926 1.6275 11.9326 1.795 11.7101C2.0175 11.4151 2.295 11.0251 2.4225 10.8976C2.645 10.9526 2.9975 11.3951 3.255 11.7101C3.755 12.3201 4.31 13.0251 5.125 13.0251C5.18 13.0251 5.235 13.0251 5.2725 13.0251C5.845 12.9676 6.2725 12.5626 6.6425 12.2101C6.92 11.9326 7.1975 11.6726 7.4 11.6926C7.455 11.6926 7.5475 11.7301 7.6225 11.7651C7.9 11.8951 8.2325 11.7851 8.3625 11.5076C8.4925 11.2301 8.38 10.8976 8.1025 10.7676C7.9 10.6751 7.695 10.6001 7.4925 10.5826C6.77 10.5076 6.2525 11.0076 5.845 11.3951C5.5875 11.6376 5.3275 11.8951 5.125 11.9151C4.8275 11.9501 4.4225 11.4326 4.0875 11.0076C3.59 10.3776 3.015 9.67506 2.2025 9.78756C1.74 9.84256 1.4425 10.2676 0.869998 11.0451C0.739998 11.2676 0.554998 11.5076 0.369998 11.7651C0.184998 12.0076 0.222498 12.3576 0.462498 12.5426Z" fill="black"/>
</g>
<defs>
<clipPath id="clip0_13116_811">
<rect width="24" height="24" fill="black"/>
</clipPath>
</defs>
</svg>
