<?xml version="1.0" encoding="UTF-8"?>
<svg xmlns="http://www.w3.org/2000/svg" xmlns:xlink="http://www.w3.org/1999/xlink" width="37.5pt" height="37.5pt" viewBox="0 0 37.5 37.5" version="1.1">
<g id="surface4674">
<path style=" stroke:none;fill-rule:nonzero;fill:rgb(0%,0%,0%);fill-opacity:1;" d="M 11.359375 5.910156 C 11.078125 5.925781 10.8125 6.078125 10.667969 6.332031 C 10.40625 6.734375 10.550781 7.285156 10.957031 7.515625 L 13.613281 9.132812 L 13.613281 18.210938 C 13.585938 18.703125 13.960938 19.078125 14.453125 19.078125 C 14.945312 19.078125 15.320312 18.703125 15.320312 18.210938 L 15.320312 8.671875 C 15.320312 8.382812 15.175781 8.09375 14.914062 7.921875 L 11.851562 6.042969 C 11.699219 5.945312 11.527344 5.902344 11.359375 5.910156 Z M 14.453125 20.523438 C 13.960938 20.523438 13.585938 20.898438 13.585938 21.390625 L 13.585938 25.03125 C 10.839844 23.90625 7.574219 24.945312 6.042969 27.578125 C 4.363281 30.46875 5.347656 34.195312 8.238281 35.871094 C 9.191406 36.421875 10.261719 36.710938 11.273438 36.710938 C 12.113281 36.710938 12.921875 36.539062 13.671875 36.21875 C 13.816406 36.507812 14.105469 36.710938 14.453125 36.710938 L 28.90625 36.710938 C 29.398438 36.710938 29.773438 36.335938 29.773438 35.84375 L 29.773438 21.390625 C 29.773438 20.898438 29.398438 20.523438 28.90625 20.523438 L 23.703125 20.523438 C 23.53125 20.523438 23.414062 20.640625 23.414062 20.8125 L 23.414062 23.125 C 23.414062 23.617188 23.039062 23.992188 22.546875 23.992188 L 20.8125 23.992188 C 20.320312 23.992188 19.945312 23.617188 19.945312 23.125 L 19.945312 20.8125 C 19.945312 20.640625 19.828125 20.523438 19.65625 20.523438 Z M 11.273438 26.304688 C 12.023438 26.304688 12.777344 26.507812 13.441406 26.882812 C 15.492188 28.097656 16.214844 30.757812 15.003906 32.808594 C 13.789062 34.859375 11.128906 35.582031 9.078125 34.371094 C 7.023438 33.15625 6.300781 30.496094 7.515625 28.445312 C 8.324219 27.085938 9.800781 26.304688 11.273438 26.304688 Z M 11.273438 26.304688 "/>
</g>
</svg>
