<?xml version="1.0" encoding="UTF-8"?>
<svg xmlns="http://www.w3.org/2000/svg" xmlns:xlink="http://www.w3.org/1999/xlink" width="37.5pt" height="37.5pt" viewBox="0 0 37.5 37.5" version="1.1">
<g id="surface4788">
<path style=" stroke:none;fill-rule:nonzero;fill:rgb(0%,0%,0%);fill-opacity:1;" d="M 1.15625 0.289062 C 0.664062 0.289062 0.289062 0.664062 0.289062 1.15625 C 0.289062 1.648438 0.664062 2.023438 1.15625 2.023438 L 15.320312 2.023438 C 17.027344 2.023438 18.558594 2.890625 19.484375 4.308594 L 29.628906 20.40625 C 29.714844 20.523438 29.832031 20.640625 29.945312 20.726562 L 33.125 22.402344 C 34.28125 23.007812 34.976562 24.195312 34.976562 25.464844 L 34.976562 30.351562 C 34.976562 30.667969 34.714844 30.929688 34.398438 30.929688 L 30.84375 30.929688 C 30.4375 28.644531 28.414062 26.882812 26.015625 26.882812 C 23.617188 26.882812 21.59375 28.644531 21.1875 30.929688 L 1.15625 30.929688 C 0.664062 30.929688 0.289062 31.304688 0.289062 31.796875 C 0.289062 32.289062 0.664062 32.664062 1.15625 32.664062 L 21.1875 32.664062 C 21.59375 34.949219 23.617188 36.710938 26.015625 36.710938 C 28.414062 36.710938 30.4375 34.949219 30.84375 32.664062 L 34.398438 32.664062 C 35.671875 32.664062 36.710938 31.625 36.710938 30.351562 L 36.710938 25.464844 C 36.710938 23.53125 35.640625 21.738281 33.9375 20.839844 L 30.957031 19.28125 L 20.929688 3.382812 C 19.714844 1.445312 17.605469 0.289062 15.320312 0.289062 Z M 18.789062 8.09375 C 18.296875 8.09375 17.921875 8.46875 17.921875 8.960938 L 17.921875 17.054688 C 17.921875 18.066406 18.328125 18.992188 19.019531 19.714844 C 19.742188 20.4375 20.667969 20.8125 21.679688 20.8125 L 26.015625 20.8125 C 26.507812 20.8125 26.882812 20.4375 26.882812 19.945312 C 26.882812 19.453125 26.507812 19.078125 26.015625 19.078125 L 21.679688 19.078125 C 21.128906 19.078125 20.640625 18.875 20.261719 18.5 C 19.886719 18.125 19.65625 17.605469 19.65625 17.054688 L 19.65625 8.960938 C 19.65625 8.46875 19.28125 8.09375 18.789062 8.09375 Z M 3.675781 15.273438 C 3.597656 15.273438 3.519531 15.28125 3.441406 15.292969 C 2.71875 15.378906 2.253906 16.042969 1.359375 17.257812 C 1.15625 17.605469 0.867188 17.980469 0.578125 18.382812 C 0.289062 18.761719 0.347656 19.308594 0.722656 19.597656 C 1.097656 19.886719 1.648438 19.828125 1.9375 19.453125 C 2.253906 19.050781 2.542969 18.644531 2.804688 18.296875 C 3.152344 17.835938 3.585938 17.226562 3.785156 17.027344 C 4.132812 17.113281 4.683594 17.804688 5.085938 18.296875 C 5.867188 19.25 6.734375 20.351562 8.007812 20.351562 L 8.238281 20.351562 C 9.132812 20.261719 9.800781 19.628906 10.378906 19.078125 C 10.8125 18.644531 11.246094 18.238281 11.5625 18.269531 C 11.648438 18.269531 11.792969 18.328125 11.910156 18.382812 C 12.34375 18.585938 12.863281 18.414062 13.066406 17.980469 C 13.269531 17.546875 13.09375 17.027344 12.660156 16.824219 C 12.34375 16.679688 12.023438 16.5625 11.707031 16.535156 C 10.578125 16.417969 9.769531 17.199219 9.132812 17.804688 C 8.730469 18.183594 8.324219 18.585938 8.007812 18.617188 C 7.542969 18.671875 6.910156 17.863281 6.386719 17.199219 C 5.65625 16.277344 4.824219 15.253906 3.675781 15.273438 Z M 26.015625 28.617188 C 27.777344 28.617188 29.195312 30.035156 29.195312 31.796875 C 29.195312 33.558594 27.777344 34.976562 26.015625 34.976562 C 24.253906 34.976562 22.835938 33.558594 22.835938 31.796875 C 22.835938 30.035156 24.253906 28.617188 26.015625 28.617188 Z M 26.015625 28.617188 "/>
</g>
</svg>
