<?xml version="1.0" encoding="UTF-8"?>
<svg xmlns="http://www.w3.org/2000/svg" xmlns:xlink="http://www.w3.org/1999/xlink" width="37.5pt" height="37.5pt" viewBox="0 0 37.5 37.5" version="1.1">
<g id="surface4428">
<path style=" stroke:none;fill-rule:nonzero;fill:rgb(0%,0%,0%);fill-opacity:1;" d="M 18.5 0.578125 C 16.59375 0.578125 14.742188 1.070312 13.09375 1.996094 C 13.09375 1.996094 13.066406 1.996094 13.066406 2.023438 C 10.320312 1.648438 7.6875 1.90625 5.839844 3.179688 C 4.742188 3.929688 4.191406 5 4.21875 6.214844 C 4.277344 9.105469 7.632812 12.140625 7.921875 12.3125 C 8.121094 12.429688 8.382812 12.488281 8.613281 12.402344 C 15.089844 10.550781 21.910156 10.550781 28.386719 12.402344 C 28.445312 12.429688 28.53125 12.429688 28.617188 12.429688 C 28.789062 12.429688 28.992188 12.371094 29.136719 12.257812 C 29.367188 12.082031 29.484375 11.824219 29.484375 11.5625 C 29.484375 5.492188 24.570312 0.578125 18.5 0.578125 Z M 18.5 2.3125 C 23.210938 2.3125 27.113281 5.839844 27.691406 10.40625 C 21.417969 8.84375 14.859375 8.902344 8.613281 10.609375 C 7.746094 9.800781 5.925781 7.660156 5.953125 6.070312 C 5.984375 5.492188 6.242188 5.03125 6.820312 4.625 C 7.863281 3.902344 9.277344 3.613281 10.839844 3.613281 C 15.175781 3.613281 20.726562 5.953125 23.152344 8.441406 C 23.5 8.789062 24.050781 8.789062 24.367188 8.46875 C 24.714844 8.121094 24.714844 7.574219 24.398438 7.253906 C 22.605469 5.40625 19.394531 3.671875 16.042969 2.6875 C 16.824219 2.429688 17.660156 2.3125 18.5 2.3125 Z M 31.699219 12.539062 C 31.421875 12.515625 31.140625 12.628906 30.957031 12.863281 C 30.667969 13.238281 30.726562 13.789062 31.101562 14.078125 C 31.507812 14.394531 31.738281 14.972656 31.738281 15.609375 C 31.738281 16.5625 31.21875 17.34375 30.582031 17.34375 C 29.945312 17.34375 29.425781 16.5625 29.425781 15.609375 C 29.425781 15.4375 29.367188 15.292969 29.28125 15.148438 L 29.222656 15.058594 C 29.023438 14.742188 28.644531 14.597656 28.300781 14.683594 C 27.953125 14.769531 27.664062 15.089844 27.632812 15.4375 C 27.199219 20.609375 23.066406 26.59375 18.5 26.59375 C 18.039062 26.59375 17.660156 26.941406 17.632812 27.402344 C 17.605469 27.867188 17.921875 28.269531 18.382812 28.328125 L 21.476562 28.734375 C 21.941406 28.789062 22.402344 28.847656 22.863281 28.933594 C 21.507812 31.246094 20.582031 32.691406 18.472656 32.691406 C 16.359375 32.691406 15.40625 31.246094 14.046875 28.878906 L 13.703125 28.269531 L 13.441406 27.777344 C 13.238281 27.433594 12.835938 27.257812 12.457031 27.375 C 11.96875 27.519531 11.503906 27.632812 11.070312 27.75 C 6.675781 28.90625 3.179688 29.800781 3.179688 35.84375 C 3.179688 36.335938 3.554688 36.710938 4.046875 36.710938 C 4.539062 36.710938 4.914062 36.335938 4.914062 35.84375 C 4.914062 31.132812 7.109375 30.554688 11.503906 29.398438 C 11.765625 29.339844 11.996094 29.253906 12.257812 29.195312 C 12.34375 29.367188 12.457031 29.542969 12.546875 29.714844 C 13.816406 31.914062 15.261719 34.398438 18.472656 34.398438 C 21.679688 34.398438 23.125 31.914062 24.398438 29.714844 C 24.484375 29.570312 24.570312 29.398438 24.65625 29.253906 C 25.496094 29.425781 26.277344 29.628906 27.054688 29.832031 C 30.496094 30.8125 32.027344 31.914062 32.027344 35.84375 C 32.027344 36.335938 32.402344 36.710938 32.894531 36.710938 C 33.386719 36.710938 33.761719 36.335938 33.761719 35.84375 C 33.761719 30.410156 30.8125 29.109375 27.519531 28.183594 C 25.929688 27.722656 24.28125 27.375 22.519531 27.113281 C 25.4375 25.351562 27.75 21.941406 28.820312 18.355469 C 29.3125 18.789062 29.917969 19.078125 30.582031 19.078125 C 32.171875 19.078125 33.472656 17.515625 33.472656 15.609375 C 33.472656 14.453125 32.980469 13.355469 32.171875 12.71875 C 32.03125 12.609375 31.867188 12.550781 31.699219 12.539062 Z M 4.335938 14.742188 C 3.84375 14.742188 3.46875 15.117188 3.46875 15.609375 C 3.46875 17.515625 4.769531 19.078125 6.359375 19.078125 C 7.023438 19.078125 7.632812 18.816406 8.121094 18.355469 C 8.84375 20.871094 10.234375 23.328125 11.96875 25.148438 C 12.140625 25.320312 12.371094 25.410156 12.601562 25.410156 C 12.804688 25.410156 13.035156 25.320312 13.210938 25.175781 C 13.558594 24.859375 13.558594 24.308594 13.238281 23.964844 C 11.15625 21.765625 9.65625 18.558594 9.335938 15.582031 C 9.308594 15.378906 9.222656 15.203125 9.078125 15.058594 L 9.019531 15.003906 C 8.757812 14.742188 8.410156 14.683594 8.066406 14.800781 C 7.71875 14.945312 7.515625 15.261719 7.515625 15.609375 C 7.515625 16.5625 6.996094 17.34375 6.359375 17.34375 C 5.722656 17.34375 5.203125 16.5625 5.203125 15.609375 C 5.203125 15.117188 4.828125 14.742188 4.335938 14.742188 Z M 4.335938 14.742188 "/>
</g>
</svg>
