<svg width="24" height="24" viewBox="0 0 24 24" fill="none" xmlns="http://www.w3.org/2000/svg">
<path d="M12 1.125C6 1.125 1.125 6 1.125 12C1.125 18 6 22.875 12 22.875C14.9062 22.875 17.6445 21.75 19.668 19.707L19.6875 19.6875V21.0742C19.6875 21.3945 19.9316 21.6367 20.25 21.6367C20.5684 21.6367 20.8125 21.3945 20.8125 21.0742V18.3945C20.8125 18.0742 20.5684 17.832 20.25 17.832H17.5508C17.2305 17.832 16.9883 18.0742 16.9883 18.3945C16.9883 18.7129 17.2305 18.957 17.5508 18.957H18.8066C16.9883 20.7559 14.5684 21.75 12 21.75C6.61914 21.75 2.25 17.3809 2.25 12C2.25 6.61914 6.61914 2.25 12 2.25C17.3809 2.25 21.75 6.61914 21.75 12C21.75 12.3184 21.9941 12.5625 22.3125 12.5625C22.6309 12.5625 22.875 12.3184 22.875 12C22.875 6 17.9805 1.125 12 1.125Z" fill="black"/>
<path fill-rule="evenodd" clip-rule="evenodd" d="M12 5.8125C11.6816 5.8125 11.4375 6.05664 11.4375 6.375V10.2188C10.668 10.4629 10.125 11.1758 10.125 12C10.125 13.0312 10.9688 13.875 12 13.875C12.8438 13.875 13.5566 13.332 13.7812 12.5625H17.625C17.9434 12.5625 18.1875 12.3184 18.1875 12C18.1875 11.6816 17.9434 11.4375 17.625 11.4375H13.7812C13.5938 10.8555 13.1445 10.3867 12.5625 10.2188V6.375C12.5625 6.05664 12.3184 5.8125 12 5.8125ZM12.75 12C12.75 12.4121 12.4121 12.75 12 12.75C11.5879 12.75 11.25 12.4121 11.25 12C11.25 11.5879 11.5879 11.25 12 11.25C12.4121 11.25 12.75 11.5879 12.75 12Z" fill="black"/>
<path d="M21.9004 15.5059C22.2422 15.5059 22.5195 15.2285 22.5195 14.8867C22.5195 14.5449 22.2422 14.2695 21.9004 14.2695C21.5586 14.2695 21.2812 14.5449 21.2812 14.8867C21.2812 15.2285 21.5586 15.5059 21.9004 15.5059Z" fill="black"/>
</svg>
