<?xml version="1.0" encoding="UTF-8"?>
<svg xmlns="http://www.w3.org/2000/svg" xmlns:xlink="http://www.w3.org/1999/xlink" width="37.5pt" height="37.5pt" viewBox="0 0 37.5 37.5" version="1.1">
<g id="surface4260">
<path style=" stroke:none;fill-rule:nonzero;fill:rgb(0%,0%,0%);fill-opacity:1;" d="M 1.15625 6.359375 L 18.5 6.359375 C 18.980469 6.359375 19.367188 5.972656 19.367188 5.492188 C 19.367188 5.011719 18.980469 4.625 18.5 4.625 L 1.15625 4.625 C 0.675781 4.625 0.289062 5.011719 0.289062 5.492188 C 0.289062 5.972656 0.675781 6.359375 1.15625 6.359375 Z M 1.15625 15.03125 L 18.5 15.03125 C 18.980469 15.03125 19.367188 14.644531 19.367188 14.164062 C 19.367188 13.683594 18.980469 13.296875 18.5 13.296875 L 1.15625 13.296875 C 0.675781 13.296875 0.289062 13.683594 0.289062 14.164062 C 0.289062 14.644531 0.675781 15.03125 1.15625 15.03125 Z M 1.15625 23.703125 L 18.5 23.703125 C 18.980469 23.703125 19.367188 23.316406 19.367188 22.835938 C 19.367188 22.355469 18.980469 21.96875 18.5 21.96875 L 1.15625 21.96875 C 0.675781 21.96875 0.289062 22.355469 0.289062 22.835938 C 0.289062 23.316406 0.675781 23.703125 1.15625 23.703125 Z M 1.15625 32.375 L 18.5 32.375 C 18.980469 32.375 19.367188 31.988281 19.367188 31.507812 C 19.367188 31.027344 18.980469 30.640625 18.5 30.640625 L 1.15625 30.640625 C 0.675781 30.640625 0.289062 31.027344 0.289062 31.507812 C 0.289062 31.988281 0.675781 32.375 1.15625 32.375 Z M 35.230469 25.113281 L 30.929688 29.414062 L 30.929688 5.492188 C 30.929688 5.011719 30.542969 4.625 30.0625 4.625 C 29.582031 4.625 29.195312 5.011719 29.195312 5.492188 L 29.195312 29.414062 L 24.894531 25.113281 C 24.554688 24.777344 24.007812 24.777344 23.667969 25.113281 C 23.332031 25.453125 23.332031 26 23.667969 26.339844 L 29.449219 32.121094 C 29.621094 32.292969 29.839844 32.375 30.0625 32.375 C 30.285156 32.375 30.507812 32.292969 30.675781 32.121094 L 36.457031 26.339844 C 36.792969 26 36.792969 25.453125 36.457031 25.113281 C 36.117188 24.777344 35.570312 24.777344 35.230469 25.113281 Z M 35.230469 25.113281 "/>
</g>
</svg>
