<svg width="24" height="24" viewBox="0 0 24 24" fill="none" xmlns="http://www.w3.org/2000/svg">
<path d="M0.739998 4.06996H11.84C12.1475 4.06996 12.395 3.82246 12.395 3.51496C12.395 3.20746 12.1475 2.95996 11.84 2.95996H0.739998C0.432498 2.95996 0.184998 3.20746 0.184998 3.51496C0.184998 3.82246 0.432498 4.06996 0.739998 4.06996Z" fill="black"/>
<path d="M0.739998 9.61996H11.84C12.1475 9.61996 12.395 9.37246 12.395 9.06496C12.395 8.75746 12.1475 8.50996 11.84 8.50996H0.739998C0.432498 8.50996 0.184998 8.75746 0.184998 9.06496C0.184998 9.37246 0.432498 9.61996 0.739998 9.61996Z" fill="black"/>
<path d="M0.739998 15.17H11.84C12.1475 15.17 12.395 14.9225 12.395 14.615C12.395 14.3075 12.1475 14.06 11.84 14.06H0.739998C0.432498 14.06 0.184998 14.3075 0.184998 14.615C0.184998 14.9225 0.432498 15.17 0.739998 15.17Z" fill="black"/>
<path d="M0.739998 20.72H11.84C12.1475 20.72 12.395 20.4725 12.395 20.165C12.395 19.8575 12.1475 19.61 11.84 19.61H0.739998C0.432498 19.61 0.184998 19.8575 0.184998 20.165C0.184998 20.4725 0.432498 20.72 0.739998 20.72Z" fill="black"/>
<path d="M22.5475 16.0725L19.795 18.825V3.51496C19.795 3.20746 19.5475 2.95996 19.24 2.95996C18.9325 2.95996 18.685 3.20746 18.685 3.51496V18.825L15.9325 16.0725C15.715 15.8575 15.365 15.8575 15.1475 16.0725C14.9325 16.29 14.9325 16.64 15.1475 16.8575L18.8475 20.5575C18.9575 20.6675 19.0975 20.72 19.24 20.72C19.3825 20.72 19.525 20.6675 19.6325 20.5575L23.3325 16.8575C23.5475 16.64 23.5475 16.29 23.3325 16.0725C23.115 15.8575 22.765 15.8575 22.5475 16.0725Z" fill="black"/>
</svg>
