<svg width="32" height="32" viewBox="0 0 32 32" fill="none" xmlns="http://www.w3.org/2000/svg">
<path d="M23.875 1.25C23.5755 0.950521 23.099 0.950521 22.8255 1.25C22.526 1.54948 22.526 2.02604 22.8255 2.29948L24.401 3.875C23.724 4.15104 22.7005 4.5 21.5 4.59896C19.8255 4.75 17.625 4.375 16.7995 4.22396L16.7816 4.22089C16.3672 4.14964 16.0951 4.10285 15.8255 4.375C15.75 4.45052 15.6745 4.54948 15.651 4.65104L11.9505 15.401C11.8255 15.7995 12.026 16.224 12.4245 16.349C12.5 16.375 12.599 16.401 12.6745 16.401C12.974 16.401 13.276 16.2005 13.375 15.901L16.875 5.75C17.901 5.92448 19.974 6.25 21.651 6.09896C22.9505 5.97396 24.276 5.59896 25.5495 5L27.2005 6.65104C26.625 7.75 26.276 8.92448 26.1745 10.1745C26 11.974 26.3255 14.276 26.5 15.349L13.349 19.9245L20.5755 12.7005C20.875 12.401 20.875 11.9245 20.5755 11.651C20.276 11.349 19.7995 11.349 19.526 11.651L9.97395 21.1745C9.77603 21.375 9.70051 21.6745 9.79947 21.9505C9.90103 22.25 10.2005 22.4505 10.5 22.4505C10.5755 22.4505 10.6745 22.4245 10.75 22.401L27.5495 16.5755C27.651 16.5495 27.75 16.474 27.8255 16.401C28.099 16.125 28.0755 15.875 27.974 15.375C27.8255 14.474 27.474 12.099 27.625 10.3255C27.7005 9.42448 27.9245 8.57552 28.276 7.77604L29.875 9.375C30.026 9.52604 30.224 9.59896 30.401 9.59896C30.5755 9.59896 30.776 9.52604 30.9245 9.375C31.224 9.07552 31.224 8.59896 30.9245 8.32552L23.875 1.25Z" fill="black" style="fill:black;fill-opacity:1;"/>
<path d="M23.0991 10.1745L23.8491 9.42448C24.1511 9.125 24.1511 8.65104 23.8491 8.375C23.5496 8.07552 23.0756 8.07552 22.7996 8.375L22.0496 9.125C21.7501 9.42448 21.7501 9.90104 22.0496 10.1745C22.2006 10.3255 22.4011 10.401 22.5756 10.401C22.7501 10.401 22.9506 10.3255 23.0991 10.1745Z" fill="black" style="fill:black;fill-opacity:1;"/>
<path fill-rule="evenodd" clip-rule="evenodd" d="M18.75 29C10.0755 29 3 21.9245 3 13.25V11.401C1.57552 11.0755 0.5 9.77604 0.5 8.25C0.5 6.45052 1.95052 5 3.75 5C5.54948 5 7 6.45052 7 8.25C7 9.77604 5.92448 11.0495 4.5 11.401V13.25C4.5 21.099 10.901 27.5 18.75 27.5H20.599C20.9245 26.0755 22.224 25 23.75 25C25.5495 25 27 26.4505 27 28.25C27 30.0495 25.5495 31.5 23.75 31.5C22.224 31.5 20.9505 30.4245 20.599 29H18.75ZM25.5 28.25C25.5 27.276 24.724 26.5 23.75 26.5C22.776 26.5 22 27.276 22 28.25C22 29.224 22.776 30 23.75 30C24.724 30 25.5 29.224 25.5 28.25ZM5.5 8.25C5.5 7.27604 4.72396 6.5 3.75 6.5C2.77604 6.5 2 7.27604 2 8.25C2 9.22396 2.77604 10 3.75 10C4.72396 10 5.5 9.22396 5.5 8.25Z" fill="black" style="fill:black;fill-opacity:1;"/>
</svg>
