<svg width="24" height="24" viewBox="0 0 24 24" fill="none" xmlns="http://www.w3.org/2000/svg">
<path d="M2.035 11.84C2.035 16.225 5.605 19.795 9.99 19.795H11.84C12.5625 19.795 13.135 20.3675 13.135 21.09V22.94C13.135 23.255 13.375 23.495 13.69 23.495C14.005 23.495 14.245 23.255 14.245 22.94V21.09C14.245 19.7575 13.1725 18.685 11.84 18.685H9.99C6.215 18.685 3.145 15.615 3.145 11.84C3.145 8.06504 6.215 4.99504 9.99 4.99504H16.0575L13.3025 7.75254C13.08 7.97254 13.08 8.32504 13.3025 8.52754C13.4125 8.64005 13.56 8.69505 13.69 8.69505C13.82 8.69505 13.9675 8.64005 14.0775 8.52754L17.7775 4.82754C18 4.60754 18 4.25504 17.7775 4.05254L14.0775 0.352544C13.8575 0.130044 13.505 0.130044 13.3025 0.352544C13.08 0.572544 13.08 0.925044 13.3025 1.12754L16.0575 3.88504H9.99C5.605 3.88504 2.035 7.45504 2.035 11.84Z" fill="black"/>
</svg>
