<?xml version="1.0" encoding="UTF-8"?>
<svg xmlns="http://www.w3.org/2000/svg" xmlns:xlink="http://www.w3.org/1999/xlink" width="37.5pt" height="37.5pt" viewBox="0 0 37.5 37.5" version="1.1">
<g id="surface4380">
<path style=" stroke:none;fill-rule:nonzero;fill:rgb(0%,0%,0%);fill-opacity:1;" d="M 18.5 1.734375 C 14.019531 1.734375 9.800781 3.46875 6.648438 6.648438 C 1.734375 11.535156 0.347656 18.816406 3.121094 25.175781 C 3.265625 25.496094 3.585938 25.699219 3.929688 25.699219 C 4.046875 25.699219 4.164062 25.667969 4.277344 25.640625 C 4.710938 25.4375 4.914062 24.945312 4.742188 24.511719 C 2.226562 18.789062 3.46875 12.257812 7.863281 7.863281 C 10.722656 5.03125 14.480469 3.46875 18.5 3.46875 C 21.882812 3.46875 25.089844 4.566406 27.722656 6.621094 L 26.1875 6.792969 C 25.726562 6.851562 25.378906 7.285156 25.4375 7.746094 C 25.496094 8.179688 25.871094 8.5 26.304688 8.5 L 26.421875 8.5 L 29.890625 8.09375 C 30.351562 8.035156 30.667969 7.632812 30.640625 7.167969 L 30.4375 3.902344 C 30.410156 3.410156 30.003906 3.0625 29.511719 3.09375 C 29.023438 3.121094 28.675781 3.527344 28.703125 4.019531 L 28.761719 5.203125 C 25.84375 2.976562 22.257812 1.734375 18.5 1.734375 Z M 13.007812 9.539062 C 11.101562 9.539062 9.539062 11.101562 9.539062 13.007812 C 9.539062 14.914062 11.101562 16.476562 13.007812 16.476562 C 14.914062 16.476562 16.476562 14.914062 16.476562 13.007812 C 16.476562 11.101562 14.914062 9.539062 13.007812 9.539062 Z M 25.714844 10.40625 C 25.496094 10.40625 25.277344 10.492188 25.121094 10.667969 L 13.558594 22.230469 C 13.210938 22.574219 13.210938 23.125 13.558594 23.441406 C 13.730469 23.617188 13.933594 23.703125 14.164062 23.703125 C 14.394531 23.703125 14.597656 23.617188 14.769531 23.441406 L 26.332031 11.878906 C 26.679688 11.535156 26.679688 10.984375 26.332031 10.667969 C 26.160156 10.492188 25.9375 10.40625 25.714844 10.40625 Z M 33.027344 11.222656 C 32.914062 11.226562 32.800781 11.25 32.691406 11.300781 C 32.257812 11.503906 32.058594 11.996094 32.257812 12.457031 C 34.773438 18.183594 33.558594 24.742188 29.136719 29.167969 C 26.277344 31.96875 22.519531 33.53125 18.5 33.53125 C 15.117188 33.53125 11.910156 32.433594 9.277344 30.378906 L 10.8125 30.207031 C 11.273438 30.148438 11.621094 29.714844 11.5625 29.253906 C 11.503906 28.789062 11.070312 28.445312 10.609375 28.5 L 7.140625 28.90625 C 6.675781 28.964844 6.359375 29.367188 6.386719 29.832031 L 6.589844 33.097656 C 6.621094 33.558594 6.996094 33.90625 7.457031 33.90625 L 7.515625 33.90625 C 8.007812 33.878906 8.355469 33.472656 8.324219 32.980469 L 8.265625 31.796875 C 11.15625 34.023438 14.742188 35.265625 18.5 35.265625 C 22.980469 35.265625 27.199219 33.53125 30.351562 30.351562 C 35.292969 25.410156 36.652344 18.125 33.847656 11.734375 C 33.699219 11.410156 33.367188 11.214844 33.027344 11.222656 Z M 13.007812 11.273438 C 13.960938 11.273438 14.742188 12.054688 14.742188 13.007812 C 14.742188 13.960938 13.960938 14.742188 13.007812 14.742188 C 12.054688 14.742188 11.273438 13.960938 11.273438 13.007812 C 11.273438 12.054688 12.054688 11.273438 13.007812 11.273438 Z M 23.703125 20.523438 C 21.796875 20.523438 20.234375 22.085938 20.234375 23.992188 C 20.234375 25.898438 21.796875 27.460938 23.703125 27.460938 C 25.609375 27.460938 27.171875 25.898438 27.171875 23.992188 C 27.171875 22.085938 25.609375 20.523438 23.703125 20.523438 Z M 23.703125 22.257812 C 24.65625 22.257812 25.4375 23.039062 25.4375 23.992188 C 25.4375 24.945312 24.65625 25.726562 23.703125 25.726562 C 22.75 25.726562 21.96875 24.945312 21.96875 23.992188 C 21.96875 23.039062 22.75 22.257812 23.703125 22.257812 Z M 11.273438 24.859375 C 10.792969 24.859375 10.40625 25.246094 10.40625 25.726562 C 10.40625 26.207031 10.792969 26.59375 11.273438 26.59375 C 11.753906 26.59375 12.140625 26.207031 12.140625 25.726562 C 12.140625 25.246094 11.753906 24.859375 11.273438 24.859375 Z M 11.273438 24.859375 "/>
</g>
</svg>
