<svg width="24" height="24" viewBox="0 0 24 24" fill="none" xmlns="http://www.w3.org/2000/svg">
<path d="M20.9225 7.23249C20.645 7.36249 20.5175 7.67749 20.645 7.97249C22.255 11.6375 21.4775 15.835 18.6475 18.6675C16.8175 20.46 14.4125 21.46 11.84 21.46C9.67501 21.46 7.62251 20.7575 5.93751 19.4425L6.92001 19.3325C7.21501 19.295 7.43751 19.0175 7.40001 18.7225C7.36251 18.425 7.08501 18.205 6.79001 18.24L4.57001 18.5C4.27251 18.5375 4.07001 18.795 4.08751 19.0925L4.21751 21.1825C4.23751 21.4775 4.47751 21.7 4.77251 21.7C4.79251 21.7 4.79251 21.7 4.81001 21.7C5.12501 21.6825 5.34751 21.4225 5.32751 21.1075L5.29001 20.35C7.14001 21.775 9.43501 22.57 11.84 22.57C14.7075 22.57 17.4075 21.46 19.425 19.425C22.5875 16.2625 23.4575 11.6 21.6625 7.50999C21.535 7.23249 21.2 7.10499 20.9225 7.23249Z" fill="black"/>
<path d="M5.03251 5.03249C6.86251 3.21999 9.26751 2.21999 11.84 2.21999C14.005 2.21999 16.0575 2.92249 17.7425 4.23749L16.76 4.34749C16.465 4.38499 16.2425 4.66249 16.28 4.95749C16.3175 5.23499 16.5575 5.43999 16.835 5.43999C16.8525 5.43999 16.8725 5.43999 16.91 5.43999L19.13 5.17999C19.425 5.14249 19.6275 4.88499 19.61 4.58749L19.48 2.49749C19.4625 2.18249 19.2025 1.95999 18.8875 1.97999C18.575 1.99749 18.3525 2.25749 18.37 2.57249L18.4075 3.32999C16.54 1.90499 14.245 1.10999 11.84 1.10999C8.97251 1.10999 6.27251 2.21999 4.25501 4.25499C1.11001 7.38248 0.222507 12.0425 1.99751 16.1125C2.09001 16.3175 2.29501 16.4475 2.51501 16.4475C2.59001 16.4475 2.66501 16.4275 2.73751 16.41C3.01501 16.28 3.14501 15.965 3.03501 15.6875C1.42501 12.025 2.22001 7.84499 5.03251 5.03249Z" fill="black"/>
<path d="M9.06501 15.17C9.21251 15.17 9.34251 15.115 9.45251 15.0025L16.8525 7.60249C17.075 7.38249 17.075 7.02999 16.8525 6.82749C16.6325 6.60498 16.28 6.60498 16.0775 6.82749L8.67751 14.2275C8.45501 14.4475 8.45501 14.8 8.67751 15.0025C8.78751 15.115 8.91751 15.17 9.06501 15.17Z" fill="black"/>
<path d="M10.545 8.32499C10.545 7.10499 9.54501 6.10499 8.32501 6.10499C7.10501 6.10499 6.10501 7.10499 6.10501 8.32499C6.10501 9.54498 7.10501 10.545 8.32501 10.545C9.54501 10.545 10.545 9.54498 10.545 8.32499ZM7.21501 8.32499C7.21501 7.71499 7.71501 7.21499 8.32501 7.21499C8.93501 7.21499 9.43501 7.71499 9.43501 8.32499C9.43501 8.93499 8.93501 9.43499 8.32501 9.43499C7.71501 9.43499 7.21501 8.93499 7.21501 8.32499Z" fill="black"/>
<path d="M15.17 17.575C16.39 17.575 17.39 16.575 17.39 15.355C17.39 14.135 16.39 13.135 15.17 13.135C13.95 13.135 12.95 14.135 12.95 15.355C12.95 16.575 13.95 17.575 15.17 17.575ZM15.17 14.245C15.78 14.245 16.28 14.745 16.28 15.355C16.28 15.965 15.78 16.465 15.17 16.465C14.56 16.465 14.06 15.965 14.06 15.355C14.06 14.745 14.56 14.245 15.17 14.245Z" fill="black"/>
<path d="M7.77001 16.465C7.77001 16.7725 7.52251 17.02 7.21501 17.02C6.90751 17.02 6.66001 16.7725 6.66001 16.465C6.66001 16.1575 6.90751 15.91 7.21501 15.91C7.52251 15.91 7.77001 16.1575 7.77001 16.465Z" fill="black"/>
</svg>
