<svg width="24" height="24" viewBox="0 0 24 24" fill="none" xmlns="http://www.w3.org/2000/svg">
<path d="M3.145 10.3601C2.83 10.3601 2.59 10.6001 2.59 10.9151V21.0901C2.59 22.4226 3.6625 23.4951 4.995 23.4951H18.685C20.0175 23.4951 21.09 22.4226 21.09 21.0901V2.59006C21.09 1.25756 20.0175 0.185059 18.685 0.185059H11.47C10.1375 0.185059 9.065 1.25756 9.065 2.59006V6.29006C9.065 7.01256 8.4925 7.58506 7.77 7.58506H4.4025C4.015 7.58506 3.7 7.27006 3.7 6.88256C3.7 6.67756 3.7925 6.47506 3.94 6.34506L7.4 3.38506C7.64 3.18256 7.66 2.83006 7.455 2.60756C7.2525 2.36756 6.9 2.35006 6.6775 2.55256L3.22 5.49506C2.8125 5.84506 2.59 6.34506 2.59 6.88256C2.59 7.88006 3.405 8.69506 4.4025 8.69506H7.77C9.1025 8.69506 10.175 7.62256 10.175 6.29006V2.59006C10.175 1.86756 10.7475 1.29506 11.47 1.29506H18.685C19.4075 1.29506 19.98 1.86756 19.98 2.59006V21.0901C19.98 21.8126 19.4075 22.3851 18.685 22.3851H4.995C4.2725 22.3851 3.7 21.8126 3.7 21.0901V10.9151C3.7 10.6001 3.46 10.3601 3.145 10.3601Z" fill="black"/>
<path d="M8.14 12.3951H15.54C15.855 12.3951 16.095 12.1551 16.095 11.8401C16.095 11.5251 15.855 11.2851 15.54 11.2851H8.14C7.825 11.2851 7.585 11.5251 7.585 11.8401C7.585 12.1551 7.825 12.3951 8.14 12.3951Z" fill="black"/>
<path d="M8.14 15.1701H15.54C15.855 15.1701 16.095 14.9301 16.095 14.6151C16.095 14.3001 15.855 14.0601 15.54 14.0601H8.14C7.825 14.0601 7.585 14.3001 7.585 14.6151C7.585 14.9301 7.825 15.1701 8.14 15.1701Z" fill="black"/>
<path d="M8.14 17.9451H15.54C15.855 17.9451 16.095 17.7051 16.095 17.3901C16.095 17.0751 15.855 16.8351 15.54 16.8351H8.14C7.825 16.8351 7.585 17.0751 7.585 17.3901C7.585 17.7051 7.825 17.9451 8.14 17.9451Z" fill="black"/>
</svg>
