<svg width="24" height="24" viewBox="0 0 24 24" fill="none" xmlns="http://www.w3.org/2000/svg">
<path d="M2.625 11.0625C2.625 10.7441 2.86914 10.5 3.1875 10.5C3.50586 10.5 3.75 10.7441 3.75 11.0625V21.375C3.75 22.1055 4.33203 22.6875 5.0625 22.6875H18.9375C19.668 22.6875 20.25 22.1055 20.25 21.375V2.625C20.25 1.89453 19.668 1.3125 18.9375 1.3125H11.625C10.8945 1.3125 10.3125 1.89453 10.3125 2.625V6.375C10.3125 7.72461 9.22461 8.8125 7.875 8.8125H4.46289C3.44922 8.8125 2.625 7.98828 2.625 6.97461C2.625 6.43164 2.84961 5.92578 3.26172 5.56836L6.76953 2.58789C6.99414 2.38086 7.34961 2.40039 7.55664 2.64453C7.76172 2.86914 7.74414 3.22461 7.5 3.43164L3.99414 6.43164C3.84375 6.5625 3.75 6.76953 3.75 6.97461C3.75 7.36914 4.06836 7.6875 4.46289 7.6875H7.875C8.60547 7.6875 9.1875 7.10547 9.1875 6.375V2.625C9.1875 1.27539 10.2754 0.1875 11.625 0.1875H18.9375C20.2871 0.1875 21.375 1.27539 21.375 2.625V21.375C21.375 22.7246 20.2871 23.8125 18.9375 23.8125H5.0625C3.71289 23.8125 2.625 22.7246 2.625 21.375V11.0625Z" fill="black"/>
<path d="M16.3125 12C16.3125 12.3184 16.0684 12.5625 15.75 12.5625H8.25C7.93164 12.5625 7.6875 12.3184 7.6875 12C7.6875 11.6816 7.93164 11.4375 8.25 11.4375H15.75C16.0684 11.4375 16.3125 11.6816 16.3125 12Z" fill="black"/>
<path d="M7.6875 14.8125C7.6875 15.1309 7.93164 15.375 8.25 15.375H15.75C16.0684 15.375 16.3125 15.1309 16.3125 14.8125C16.3125 14.4941 16.0684 14.25 15.75 14.25H8.25C7.93164 14.25 7.6875 14.4941 7.6875 14.8125Z" fill="black"/>
<path d="M16.3125 17.625C16.3125 17.9434 16.0684 18.1875 15.75 18.1875H8.25C7.93164 18.1875 7.6875 17.9434 7.6875 17.625C7.6875 17.3066 7.93164 17.0625 8.25 17.0625H15.75C16.0684 17.0625 16.3125 17.3066 16.3125 17.625Z" fill="black"/>
</svg>
