<svg width="24" height="24" viewBox="0 0 24 24" fill="none" xmlns="http://www.w3.org/2000/svg">
<path d="M18.4075 18.87C16.6125 20.535 14.2825 21.46 11.84 21.46C8.58499 21.46 5.54999 19.795 3.77499 17.075L6.82749 15.3375C7.97249 16.965 9.84249 17.945 11.84 17.945C12.155 17.945 12.395 17.705 12.395 17.39C12.395 17.075 12.155 16.835 11.84 16.835C10.045 16.835 8.39999 15.8725 7.49249 14.32C7.34499 14.06 6.99249 13.9675 6.73499 14.115L2.71999 16.39C2.58999 16.465 2.49749 16.575 2.45999 16.725C2.42249 16.8725 2.44249 17.02 2.51499 17.15C4.42249 20.4975 7.99249 22.57 11.84 22.57C14.5775 22.57 17.1675 21.5525 19.165 19.685C19.3875 19.48 19.4075 19.13 19.185 18.9075C18.98 18.6675 18.63 18.6675 18.4075 18.87Z" fill="black"/>
<path d="M11.84 1.10999C11.525 1.10999 11.285 1.34999 11.285 1.66499V6.28999C11.285 6.60499 11.525 6.84499 11.84 6.84499C14.5975 6.84499 16.835 9.08249 16.835 11.84C16.835 12.7275 16.595 13.5975 16.15 14.355C16.0775 14.485 16.0575 14.6325 16.095 14.7825C16.1325 14.93 16.225 15.04 16.355 15.115L20.35 17.4275C20.4425 17.4825 20.535 17.5 20.6275 17.5C20.8125 17.5 20.9975 17.4075 21.1075 17.2225C22.0525 15.595 22.57 13.7275 22.57 11.84C22.57 5.91999 17.76 1.10999 11.84 1.10999ZM20.425 16.1875L17.3725 14.4125C17.7425 13.615 17.945 12.7275 17.945 11.84C17.945 8.65749 15.5025 6.04999 12.395 5.75249V2.23749C17.445 2.53499 21.46 6.71499 21.46 11.84C21.46 13.3575 21.1075 14.8375 20.425 16.1875Z" fill="black"/>
<path d="M15.54 16.465C15.54 16.7725 15.2925 17.02 14.985 17.02C14.6775 17.02 14.43 16.7725 14.43 16.465C14.43 16.1575 14.6775 15.91 14.985 15.91C15.2925 15.91 15.54 16.1575 15.54 16.465Z" fill="black"/>
<path d="M2.88499 15.0225L6.08749 13.19C6.28999 13.08 6.38249 12.8575 6.36499 12.635C6.30749 12.3775 6.28999 12.1 6.28999 11.84C6.28999 9.48999 7.75249 7.47499 9.82249 6.65999C10.045 6.58499 10.175 6.36499 10.175 6.14249V2.47999C10.175 2.12749 9.84249 1.84999 9.50999 1.94249C5.01249 2.99749 1.66499 7.02999 1.66499 11.84C1.66499 12.84 1.81249 13.8 2.07249 14.7075C2.18249 15.04 2.57249 15.2075 2.88499 15.0225Z" fill="black"/>
</svg>
