<?xml version="1.0" encoding="UTF-8"?>
<svg xmlns="http://www.w3.org/2000/svg" xmlns:xlink="http://www.w3.org/1999/xlink" width="37.5pt" height="37.5pt" viewBox="0 0 37.5 37.5" version="1.1">
<g id="surface4686">
<path style=" stroke:none;fill-rule:nonzero;fill:rgb(0%,0%,0%);fill-opacity:1;" d="M 18.5 1.734375 C 18.007812 1.734375 17.632812 2.109375 17.632812 2.601562 L 17.632812 9.828125 C 17.632812 10.320312 18.007812 10.695312 18.5 10.695312 C 22.808594 10.695312 26.304688 14.191406 26.304688 18.5 C 26.304688 19.886719 25.929688 21.246094 25.234375 22.429688 C 25.121094 22.632812 25.089844 22.863281 25.148438 23.097656 C 25.207031 23.328125 25.351562 23.5 25.554688 23.617188 L 31.796875 27.230469 C 31.941406 27.316406 32.085938 27.34375 32.230469 27.34375 C 32.519531 27.34375 32.808594 27.199219 32.980469 26.910156 C 34.457031 24.367188 35.265625 21.449219 35.265625 18.5 C 35.265625 9.25 27.75 1.734375 18.5 1.734375 Z M 15.050781 3.007812 C 14.988281 3.007812 14.921875 3.015625 14.859375 3.035156 C 7.832031 4.683594 2.601562 10.984375 2.601562 18.5 C 2.601562 20.0625 2.832031 21.5625 3.238281 22.980469 C 3.410156 23.5 4.019531 23.761719 4.507812 23.472656 L 9.511719 20.609375 C 9.828125 20.4375 9.972656 20.089844 9.945312 19.742188 C 9.855469 19.339844 9.828125 18.90625 9.828125 18.5 C 9.828125 14.828125 12.113281 11.679688 15.347656 10.40625 C 15.695312 10.289062 15.898438 9.945312 15.898438 9.597656 L 15.898438 3.875 C 15.898438 3.394531 15.5 3 15.050781 3.007812 Z M 19.367188 3.496094 C 27.257812 3.960938 33.53125 10.492188 33.53125 18.5 C 33.53125 20.871094 32.980469 23.183594 31.914062 25.292969 L 27.144531 22.519531 C 27.722656 21.273438 28.039062 19.886719 28.039062 18.5 C 28.039062 13.527344 24.222656 9.453125 19.367188 8.988281 Z M 11.015625 21.949219 C 10.847656 21.933594 10.671875 21.96875 10.523438 22.054688 L 4.25 25.609375 C 4.046875 25.726562 3.902344 25.898438 3.84375 26.132812 C 3.785156 26.363281 3.816406 26.59375 3.929688 26.796875 C 6.910156 32.027344 12.488281 35.265625 18.5 35.265625 C 22.777344 35.265625 26.824219 33.675781 29.945312 30.757812 C 30.292969 30.4375 30.324219 29.890625 29.976562 29.542969 C 29.65625 29.167969 29.109375 29.167969 28.761719 29.484375 C 25.957031 32.085938 22.316406 33.53125 18.5 33.53125 C 13.414062 33.53125 8.671875 30.929688 5.898438 26.679688 L 10.667969 23.964844 C 12.457031 26.507812 15.378906 28.039062 18.5 28.039062 C 18.992188 28.039062 19.367188 27.664062 19.367188 27.171875 C 19.367188 26.679688 18.992188 26.304688 18.5 26.304688 C 15.695312 26.304688 13.125 24.800781 11.707031 22.375 C 11.5625 22.121094 11.292969 21.96875 11.015625 21.949219 Z M 23.414062 24.859375 C 22.933594 24.859375 22.546875 25.246094 22.546875 25.726562 C 22.546875 26.207031 22.933594 26.59375 23.414062 26.59375 C 23.894531 26.59375 24.28125 26.207031 24.28125 25.726562 C 24.28125 25.246094 23.894531 24.859375 23.414062 24.859375 Z M 23.414062 24.859375 "/>
</g>
</svg>
