<svg width="24" height="24" viewBox="0 0 24 24" fill="none" xmlns="http://www.w3.org/2000/svg">
<path d="M17.231 6.35559C17.438 6.13098 17.7935 6.13098 18.02 6.35559C18.2446 6.56262 18.2446 6.93762 18.02 7.14465L12.395 12.7697C12.2817 12.881 12.1313 12.9376 12.0005 12.9376C11.8696 12.9376 11.7192 12.881 11.606 12.7697L5.98096 7.14465C5.75635 6.93762 5.75635 6.58215 5.98096 6.35559C6.18799 6.13098 6.54346 6.13098 6.77002 6.35559L12.0005 11.588L17.231 6.35559Z" fill="black"/>
<path d="M12.0005 16.463L17.231 11.2306C17.4575 11.006 17.7935 11.006 18.02 11.2306C18.2446 11.4376 18.2446 11.7931 18.02 12.0197L12.395 17.6447C12.2817 17.756 12.1313 17.8126 12.0005 17.8126C11.8696 17.8126 11.7192 17.756 11.606 17.6447L5.98096 12.0197C5.75635 11.8126 5.75635 11.4572 5.98096 11.2306C6.18799 11.006 6.54346 11.006 6.77002 11.2306L12.0005 16.463Z" fill="black"/>
</svg>
