<svg width="24" height="24" viewBox="0 0 24 24" fill="none" xmlns="http://www.w3.org/2000/svg">
<path d="M12 3.75C11.6816 3.75 11.4375 3.99414 11.4375 4.3125V15.3379L8.64453 12.543C8.41797 12.3184 8.0625 12.3184 7.85547 12.543C7.63086 12.7695 7.63086 13.125 7.85547 13.332L11.6055 17.082C11.7187 17.1934 11.8691 17.25 12 17.25C12.1309 17.25 12.2812 17.1934 12.3945 17.082L16.1445 13.332C16.3691 13.1055 16.3691 12.75 16.1445 12.543C15.918 12.3184 15.5625 12.3184 15.3555 12.543L12.5625 15.3379V4.3125C12.5625 3.99414 12.3184 3.75 12 3.75Z" fill="black"/>
<path d="M18.4121 21.3379C18.4121 21.0195 18.168 20.7754 17.8496 20.7754H6.15039C5.83203 20.7754 5.58789 21.0195 5.58789 21.3379C5.58789 21.6563 5.83203 21.9004 6.15039 21.9004H17.8496C18.168 21.9004 18.4121 21.6367 18.4121 21.3379Z" fill="black"/>
</svg>
