<?xml version="1.0" encoding="UTF-8"?>
<svg xmlns="http://www.w3.org/2000/svg" xmlns:xlink="http://www.w3.org/1999/xlink" width="37.5pt" height="37.5pt" viewBox="0 0 37.5 37.5" version="1.1">
<g id="surface3290">
<path style=" stroke:none;fill-rule:nonzero;fill:rgb(0%,0%,0%);fill-opacity:1;" d="M 3.238281 6.359375 L 14.164062 6.359375 C 16.882812 6.359375 19.078125 8.554688 19.078125 11.273438 C 19.078125 11.765625 19.453125 12.140625 19.945312 12.140625 C 20.4375 12.140625 20.8125 11.765625 20.8125 11.273438 C 20.8125 7.601562 17.835938 4.625 14.164062 4.625 L 3.238281 4.625 L 6.097656 1.761719 C 6.445312 1.417969 6.445312 0.867188 6.097656 0.550781 C 5.753906 0.203125 5.203125 0.203125 4.886719 0.550781 L 0.550781 4.886719 C 0.203125 5.230469 0.203125 5.78125 0.550781 6.097656 L 4.886719 10.433594 C 5.058594 10.609375 5.289062 10.695312 5.492188 10.695312 C 5.695312 10.695312 5.925781 10.609375 6.097656 10.433594 C 6.445312 10.089844 6.445312 9.539062 6.097656 9.222656 Z M 32.113281 12.113281 C 31.769531 11.765625 31.21875 11.765625 30.902344 12.113281 C 30.554688 12.457031 30.554688 13.007812 30.902344 13.324219 L 33.761719 16.1875 L 19.945312 16.1875 C 16.273438 16.1875 13.296875 19.164062 13.296875 22.835938 L 13.296875 35.84375 C 13.296875 36.335938 13.671875 36.710938 14.164062 36.710938 C 14.65625 36.710938 15.03125 36.335938 15.03125 35.84375 L 15.03125 22.835938 C 15.03125 20.117188 17.226562 17.921875 19.945312 17.921875 L 33.761719 17.921875 L 30.902344 20.785156 C 30.554688 21.128906 30.554688 21.679688 30.902344 21.996094 C 31.074219 22.171875 31.304688 22.257812 31.507812 22.257812 C 31.710938 22.257812 31.941406 22.171875 32.113281 21.996094 L 36.449219 17.660156 C 36.796875 17.316406 36.796875 16.765625 36.449219 16.449219 Z M 32.113281 12.113281 "/>
</g>
</svg>
