<svg width="24" height="24" viewBox="0 0 24 24" fill="none" xmlns="http://www.w3.org/2000/svg">
<g clip-path="url(#clip0_13117_50)">
<path d="M2.07251 4.07004H9.06501C10.805 4.07004 12.21 5.47504 12.21 7.21504C12.21 7.53004 12.45 7.77004 12.765 7.77004C13.08 7.77004 13.32 7.53004 13.32 7.21504C13.32 4.86504 11.415 2.96004 9.06501 2.96004H2.07251L3.90251 1.12754C4.12501 0.907544 4.12501 0.555044 3.90251 0.352544C3.68251 0.130044 3.33001 0.130044 3.12751 0.352544L0.352513 3.12754C0.130013 3.34754 0.130013 3.70004 0.352513 3.90254L3.12751 6.67754C3.23751 6.79004 3.38501 6.84504 3.51501 6.84504C3.64501 6.84504 3.79251 6.79004 3.90251 6.67754C4.12501 6.45754 4.12501 6.10504 3.90251 5.90254L2.07251 4.07004Z" fill="black"/>
<path d="M20.5525 7.75254C20.3325 7.53004 19.98 7.53004 19.7775 7.75254C19.555 7.97254 19.555 8.32504 19.7775 8.52754L21.6075 10.36H12.765C10.415 10.36 8.51001 12.265 8.51001 14.615V22.94C8.51001 23.255 8.75001 23.495 9.06501 23.495C9.38001 23.495 9.62001 23.255 9.62001 22.94V14.615C9.62001 12.875 11.025 11.47 12.765 11.47H21.6075L19.7775 13.3025C19.555 13.5225 19.555 13.875 19.7775 14.0775C19.8875 14.19 20.035 14.245 20.165 14.245C20.295 14.245 20.4425 14.19 20.5525 14.0775L23.3275 11.3025C23.55 11.0825 23.55 10.73 23.3275 10.5275L20.5525 7.75254Z" fill="black"/>
</g>
<defs>
<clipPath id="clip0_13117_50">
<rect width="24" height="24" fill="black"/>
</clipPath>
</defs>
</svg>
