<svg width="24" height="24" viewBox="0 0 24 24" fill="none" xmlns="http://www.w3.org/2000/svg">
<path fill-rule="evenodd" clip-rule="evenodd" d="M11.8123 21.3292L2.81228 18.1417C2.58767 18.0656 2.43728 17.8605 2.43728 17.6163V11.298L0.562277 10.6417C0.411886 10.5851 0.281027 10.4542 0.224386 10.3038C0.167746 10.1534 0.187277 9.96594 0.261496 9.83508L2.5115 6.08508L2.53103 6.06555C2.54368 6.06555 2.54813 6.05818 2.55448 6.04767C2.55793 6.04196 2.56194 6.03532 2.56814 6.02844L2.58767 6.01086C2.62478 5.9718 2.66189 5.93469 2.699 5.91711C2.70876 5.90735 2.72292 5.90247 2.73708 5.89758C2.75124 5.8927 2.7654 5.88782 2.77517 5.87805C2.77517 5.86047 2.79275 5.86047 2.79275 5.86047L11.7927 2.67297C11.8125 2.67297 11.8318 2.66796 11.8508 2.66302C11.8694 2.6582 11.8877 2.65344 11.906 2.65344H12.0564C12.0935 2.65344 12.1306 2.65344 12.1677 2.67297L21.1677 5.86047H21.1873C21.2068 5.87805 21.2068 5.87805 21.2244 5.87805C21.2344 5.87805 21.2393 5.88319 21.244 5.8882C21.2485 5.89295 21.2529 5.89758 21.2615 5.89758H21.3006L21.3181 5.91711C21.3282 5.91711 21.333 5.92174 21.3378 5.92625C21.3423 5.93053 21.3467 5.93469 21.3552 5.93469H21.3748L21.4119 5.9718C21.4119 5.98157 21.4168 5.98645 21.4217 5.99133C21.4265 5.99622 21.4314 6.0011 21.4314 6.01086V6.02844C21.4314 6.03846 21.436 6.04334 21.4406 6.0481C21.4448 6.0526 21.449 6.05699 21.449 6.06555V6.08508L23.699 9.83508C23.7927 9.98547 23.8123 10.173 23.7556 10.3234C23.699 10.4718 23.5681 10.6046 23.4177 10.6593L21.5427 11.3156V17.6163C21.5427 17.8409 21.3943 18.0656 21.1677 18.1417L12.1677 21.3292C12.159 21.3292 12.1497 21.3336 12.1404 21.338C12.1311 21.3424 12.1218 21.3468 12.1131 21.3468H11.8689C11.8592 21.3468 11.8499 21.3424 11.8406 21.338C11.8313 21.3336 11.822 21.3292 11.8123 21.3292ZM12.5623 20.0167L20.4373 17.2218V11.7101L14.4373 13.8292C14.3806 13.8468 14.3064 13.8663 14.2498 13.8663C14.0623 13.8663 13.8748 13.7726 13.7615 13.5851L11.9998 10.6417L10.2381 13.5851C10.1248 13.7726 9.93728 13.8663 9.74978 13.8663C9.69314 13.8663 9.61892 13.8468 9.56228 13.8292L3.56228 11.7101V17.2218L11.4373 20.0167V15.4972C11.4373 15.1788 11.6814 14.9347 11.9998 14.9347C12.3181 14.9347 12.5623 15.1788 12.5623 15.4972V20.0167ZM19.3123 6.36633L12.5623 3.96594V8.76672L19.3123 6.36633ZM12.824 9.85461L14.4939 12.6281L22.406 9.81555L20.7381 7.04211L12.824 9.85461ZM11.156 9.85461L3.24392 7.04211L1.574 9.81555L9.48806 12.6281L11.156 9.85461Z" fill="black"/>
</svg>
