<svg width="24" height="24" viewBox="0 0 24 24" fill="none" xmlns="http://www.w3.org/2000/svg">
<path d="M19.875 6.5625V4.3125C19.875 3.99414 19.6309 3.75 19.3125 3.75C18.375 3.75 17.625 4.5 17.625 5.4375C17.625 6.375 18.375 7.125 19.3125 7.125C19.6309 7.125 19.875 6.88086 19.875 6.5625Z" fill="black"/>
<path d="M21.6563 22.1992C21.1875 22.5742 20.6055 22.7441 20.0059 22.6875C19.4434 22.6309 18.918 22.3496 18.5625 21.918C18.3555 21.6758 18 21.6563 17.7754 21.8633C17.5313 22.0684 17.5117 22.4258 17.7188 22.6504C18.2813 23.2871 19.0508 23.6992 19.8945 23.793C20.0254 23.8125 20.1563 23.8125 20.2695 23.8125C21.0371 23.8125 21.7695 23.5508 22.3691 23.082C23.082 22.5195 23.5117 21.7129 23.6055 20.8125C23.6445 20.4004 23.625 19.9688 23.5117 19.5742C23.4375 19.2754 23.1191 19.0879 22.8184 19.1816C22.5195 19.2559 22.332 19.5742 22.4258 19.875C22.5 20.1367 22.5195 20.418 22.4805 20.6992C22.4258 21.2813 22.125 21.8242 21.6563 22.1992Z" fill="black"/>
<path d="M12.375 11.625C12.375 10.8008 11.6992 10.125 10.875 10.125H7.125C6.30078 10.125 5.625 10.8008 5.625 11.625V12.7129C4.93164 13.5 2.25 16.7617 2.21289 20.4375C2.21289 20.7559 2.45703 21 2.77539 21H3.78711C4.05078 22.5938 5.4375 23.8125 7.10547 23.8125C8.77539 23.8125 10.1621 22.5938 10.4258 21H17.6445C19.2383 20.9805 20.7188 20.2129 21.6367 18.9375L22.7441 17.3809C22.8379 17.25 22.875 17.082 22.8379 16.9316C22.8008 16.7813 22.707 16.6504 22.5742 16.5566C21.8809 16.1621 21.0938 15.957 20.3066 15.957C18.9375 15.957 17.7188 16.5566 16.8945 17.4941V7.98828C17.418 8.19336 17.8125 8.66211 17.8867 9.24414L18.5625 14.8867C18.5996 15.1875 18.8809 15.4121 19.1816 15.375C19.4805 15.3379 19.707 15.0566 19.668 14.7559L18.957 9.11328C18.8066 7.76172 17.6621 6.75 16.3125 6.75H13.875C13.5566 6.75 13.3125 6.99414 13.3125 7.3125C13.3125 7.63086 13.5566 7.875 13.875 7.875H15.75V19.875H12.375V11.625ZM7.125 22.6875C6.07422 22.6875 5.19336 21.9746 4.94922 21H9.30078C9.05664 21.9746 8.17578 22.6875 7.125 22.6875ZM11.25 19.875H3.375C3.65625 16.8945 5.83203 14.1934 6.43164 13.5H11.25V19.875ZM11.25 12.375H6.75V11.625C6.75 11.418 6.91797 11.25 7.125 11.25H10.875C11.082 11.25 11.25 11.418 11.25 11.625V12.375ZM20.2871 17.0996C20.6816 17.0996 21.0566 17.1758 21.4316 17.2871L20.7188 18.3008C20.0254 19.2754 18.8633 19.875 17.6445 19.8945H16.9316C17.1934 18.3008 18.5996 17.0996 20.2871 17.0996Z" fill="black"/>
</svg>
