<svg width="24" height="24" viewBox="0 0 24 24" fill="none" xmlns="http://www.w3.org/2000/svg">
<g clip-path="url(#clip0_13117_335)">
<path d="M20.6225 13.1626C20.7025 13.2026 20.7875 13.2226 20.87 13.2226C21.0725 13.2226 21.27 13.1101 21.365 12.9151C21.7275 12.1926 21.7025 11.3401 21.2975 10.6376L15.955 1.38756C15.5225 0.635059 14.745 0.185059 13.875 0.185059C13.005 0.185059 12.2275 0.635059 11.7925 1.38756L6.56501 10.4426C6.41001 10.7076 6.50001 11.0476 6.76751 11.2001C7.03251 11.3526 7.37251 11.2626 7.52501 10.9976L12.755 1.94256C12.9875 1.53756 13.4075 1.29506 13.875 1.29506C14.3425 1.29506 14.7625 1.53756 14.995 1.94256L20.3375 11.1926C20.56 11.5751 20.5725 12.0226 20.375 12.4176C20.2375 12.6901 20.3475 13.0251 20.6225 13.1626Z" fill="black"/>
<path d="M13.875 9.99006C13.5675 9.99006 13.32 10.2376 13.32 10.5451V11.1001C13.32 11.4076 13.5675 11.6551 13.875 11.6551C14.1825 11.6551 14.43 11.4076 14.43 11.1001V10.5451C14.43 10.2376 14.1825 9.99006 13.875 9.99006Z" fill="black"/>
<path d="M14.43 4.62506C14.43 4.31756 14.1825 4.07006 13.875 4.07006C13.5675 4.07006 13.32 4.31756 13.32 4.62506V8.32506C13.32 8.63256 13.5675 8.88006 13.875 8.88006C14.1825 8.88006 14.43 8.63256 14.43 8.32506V4.62506Z" fill="black"/>
<path d="M2.64751 14.6976C2.81751 15.0001 3.21001 15.0726 3.47501 14.8676C4.98501 13.6926 7.09501 13.6376 8.84501 14.4176L13.32 16.4126C13.4875 16.4851 13.625 16.6051 13.7225 16.7601C13.89 17.0226 13.915 17.3476 13.7875 17.6326C13.675 17.8851 13.46 18.0751 13.1775 18.1501C12.965 18.2076 12.74 18.1751 12.54 18.0876L9.37501 16.6726C9.09501 16.5476 8.76501 16.6726 8.64251 16.9526C8.51751 17.2301 8.64251 17.5601 8.92001 17.6851L12.115 19.1126C12.385 19.2326 12.6675 19.2926 12.9475 19.2926C13.5175 19.2926 14.075 19.0526 14.47 18.6001C14.605 18.4476 14.7175 18.2726 14.8025 18.0826C15.15 17.3001 14.9775 16.3726 14.32 15.7576C14.155 15.6001 13.9575 15.4801 13.75 15.3876L8.98251 13.2651C6.95501 12.3626 4.60001 12.6301 2.82751 13.9651C2.60001 14.1376 2.50751 14.4476 2.64751 14.6976Z" fill="black"/>
<path d="M0.287507 22.1526C0.465006 22.4026 0.812507 22.4601 1.06501 22.2826L3.38251 20.6251L8.23501 23.0701C8.82501 23.3551 9.46251 23.5001 10.1 23.5001C10.6625 23.5001 11.2275 23.3901 11.7575 23.1651L22.1825 18.7551C22.6925 18.5401 23.085 18.1351 23.285 17.6176C23.485 17.1001 23.47 16.5376 23.2375 16.0326C22.7825 15.0426 21.5725 14.5951 20.5375 15.0351L20.205 15.1751L20.115 14.9776C19.9025 14.4776 19.5075 14.0901 19.005 13.8851C18.5025 13.6826 17.9475 13.6876 17.4425 13.9001L16.12 14.4776C15.8375 14.6001 15.71 14.9276 15.8325 15.2101C15.955 15.4901 16.2825 15.6176 16.5625 15.4951L17.8825 14.9201C18.11 14.8251 18.36 14.8226 18.59 14.9151C18.8175 15.0076 18.9975 15.1826 19.095 15.4176L19.18 15.6101L16.7425 16.6476C16.4625 16.7676 16.33 17.0951 16.45 17.3776C16.57 17.6601 16.8975 17.7901 17.1775 17.6701L20.97 16.0551C21.4575 15.8476 22.02 16.0451 22.2275 16.4951C22.3325 16.7251 22.34 16.9801 22.25 17.2151C22.16 17.4501 21.98 17.6351 21.7475 17.7326L11.325 22.1451C10.485 22.4976 9.53751 22.4726 8.72751 22.0776L3.58001 19.4851C3.39501 19.3926 3.17501 19.4101 3.00751 19.5301L0.417507 21.3801C0.167507 21.5551 0.110007 21.9051 0.287507 22.1526Z" fill="black"/>
</g>
<defs>
<clipPath id="clip0_13117_335">
<rect width="24" height="24" fill="black"/>
</clipPath>
</defs>
</svg>
