<?xml version="1.0" encoding="UTF-8"?>
<svg xmlns="http://www.w3.org/2000/svg" xmlns:xlink="http://www.w3.org/1999/xlink" width="37.5pt" height="37.5pt" viewBox="0 0 37.5 37.5" version="1.1">
<g id="surface4236">
<path style=" stroke:none;fill-rule:nonzero;fill:rgb(0%,0%,0%);fill-opacity:1;" d="M 21.679688 0.289062 C 20.320312 0.289062 19.105469 0.992188 18.425781 2.167969 L 10.257812 16.316406 C 10.015625 16.730469 10.15625 17.257812 10.574219 17.5 C 10.988281 17.738281 11.519531 17.597656 11.757812 17.183594 L 19.929688 3.035156 C 20.292969 2.402344 20.949219 2.023438 21.679688 2.023438 C 22.410156 2.023438 23.066406 2.402344 23.429688 3.035156 L 31.777344 17.488281 C 32.125 18.085938 32.144531 18.785156 31.835938 19.402344 C 31.621094 19.828125 31.792969 20.351562 32.222656 20.566406 C 32.347656 20.628906 32.480469 20.660156 32.609375 20.660156 C 32.925781 20.660156 33.234375 20.484375 33.382812 20.179688 C 33.949219 19.050781 33.910156 17.71875 33.277344 16.621094 L 24.929688 2.167969 C 24.253906 0.992188 23.039062 0.289062 21.679688 0.289062 Z M 21.679688 6.359375 C 21.199219 6.359375 20.8125 6.746094 20.8125 7.226562 L 20.8125 13.007812 C 20.8125 13.488281 21.199219 13.875 21.679688 13.875 C 22.160156 13.875 22.546875 13.488281 22.546875 13.007812 L 22.546875 7.226562 C 22.546875 6.746094 22.160156 6.359375 21.679688 6.359375 Z M 21.679688 15.609375 C 21.199219 15.609375 20.8125 15.996094 20.8125 16.476562 L 20.8125 17.34375 C 20.8125 17.824219 21.199219 18.210938 21.679688 18.210938 C 22.160156 18.210938 22.546875 17.824219 22.546875 17.34375 L 22.546875 16.476562 C 22.546875 15.996094 22.160156 15.609375 21.679688 15.609375 Z M 10.328125 19.902344 C 8.234375 19.863281 6.148438 20.515625 4.417969 21.820312 C 4.0625 22.089844 3.917969 22.574219 4.136719 22.964844 C 4.402344 23.4375 5.015625 23.550781 5.429688 23.230469 C 7.789062 21.394531 11.085938 21.308594 13.820312 22.527344 L 20.8125 25.644531 C 21.074219 25.757812 21.289062 25.945312 21.441406 26.1875 C 21.703125 26.597656 21.742188 27.105469 21.542969 27.550781 C 21.367188 27.945312 21.03125 28.242188 20.589844 28.359375 C 20.257812 28.449219 19.90625 28.398438 19.59375 28.261719 L 14.648438 26.050781 C 14.210938 25.851562 13.695312 26.050781 13.503906 26.488281 C 13.308594 26.921875 13.503906 27.4375 13.9375 27.632812 L 18.929688 29.863281 C 19.351562 30.050781 19.792969 30.144531 20.230469 30.144531 C 21.121094 30.144531 21.992188 29.765625 22.609375 29.0625 C 22.820312 28.820312 22.996094 28.550781 23.128906 28.257812 C 23.671875 27.03125 23.402344 25.582031 22.375 24.621094 C 22.117188 24.375 21.808594 24.1875 21.484375 24.042969 L 14.035156 20.726562 C 12.847656 20.195312 11.585938 19.925781 10.328125 19.902344 Z M 28.476562 21.464844 C 28.0625 21.46875 27.648438 21.554688 27.253906 21.71875 L 25.1875 22.621094 C 24.746094 22.8125 24.546875 23.324219 24.738281 23.765625 C 24.929688 24.203125 25.441406 24.402344 25.878906 24.210938 L 27.941406 23.3125 C 28.296875 23.164062 28.6875 23.160156 29.046875 23.304688 C 29.402344 23.449219 29.683594 23.722656 29.835938 24.089844 L 29.96875 24.390625 L 26.160156 26.011719 C 25.722656 26.199219 25.515625 26.710938 25.703125 27.152344 C 25.890625 27.59375 26.402344 27.796875 26.839844 27.609375 L 32.765625 25.085938 C 33.523438 24.761719 34.40625 25.070312 34.730469 25.773438 C 34.894531 26.132812 34.90625 26.535156 34.765625 26.898438 C 34.625 27.265625 34.34375 27.554688 33.980469 27.707031 L 17.695312 34.601562 C 16.382812 35.152344 14.902344 35.113281 13.636719 34.496094 L 5.59375 30.445312 C 5.304688 30.300781 4.960938 30.328125 4.699219 30.515625 L 0.652344 33.40625 C 0.261719 33.683594 0.171875 34.226562 0.449219 34.613281 C 0.730469 35.003906 1.269531 35.09375 1.664062 34.816406 L 5.285156 32.226562 L 12.867188 36.046875 C 13.789062 36.492188 14.785156 36.71875 15.78125 36.71875 C 16.660156 36.71875 17.542969 36.546875 18.371094 36.195312 L 34.660156 29.304688 C 35.457031 28.96875 36.070312 28.335938 36.382812 27.527344 C 36.695312 26.71875 36.671875 25.839844 36.308594 25.050781 C 35.597656 23.503906 33.707031 22.804688 32.089844 23.492188 L 31.570312 23.710938 L 31.429688 23.402344 C 31.097656 22.621094 30.480469 22.015625 29.695312 21.695312 C 29.300781 21.539062 28.890625 21.460938 28.476562 21.464844 Z M 28.476562 21.464844 "/>
</g>
</svg>
