<svg width="24" height="24" viewBox="0 0 24 24" fill="none" xmlns="http://www.w3.org/2000/svg">
<g clip-path="url(#clip0_13116_1279)">
<path d="M14.245 7.21506C14.245 3.34006 11.09 0.185057 7.215 0.185057C3.34 0.185057 0.184998 3.34006 0.184998 7.21506C0.184998 11.0901 3.34 14.2451 7.215 14.2451C11.09 14.2451 14.245 11.0901 14.245 7.21506ZM7.215 13.1351C3.9525 13.1351 1.295 10.4801 1.295 7.21506C1.295 3.95006 3.9525 1.29506 7.215 1.29506C10.4775 1.29506 13.135 3.95006 13.135 7.21506C13.135 10.4801 10.4775 13.1351 7.215 13.1351Z" fill="black"/>
<path d="M16.465 9.43506C16.2375 9.43506 16.0075 9.44506 15.7825 9.46756C15.4775 9.49756 15.2525 9.76756 15.2825 10.0726C15.3125 10.3776 15.585 10.6026 15.8875 10.5726C16.0775 10.5551 16.2725 10.5451 16.465 10.5451C19.7275 10.5451 22.385 13.2001 22.385 16.4651C22.385 19.7301 19.7275 22.3851 16.465 22.3851C13.2025 22.3851 10.545 19.7301 10.545 16.4651C10.545 16.2751 10.555 16.0826 10.5725 15.8951C10.6025 15.5901 10.3775 15.3201 10.0725 15.2901C9.77 15.2626 9.4975 15.4851 9.4675 15.7901C9.445 16.0126 9.435 16.2401 9.435 16.4651C9.435 20.3401 12.59 23.4951 16.465 23.4951C20.34 23.4951 23.495 20.3401 23.495 16.4651C23.495 12.5901 20.34 9.43506 16.465 9.43506Z" fill="black"/>
<path d="M22.94 0.555058C22.6325 0.555058 22.385 0.802557 22.385 1.11006V3.73506C20.8675 2.27006 18.46 0.740058 15.4625 0.125057C15.1625 0.0600576 14.87 0.255058 14.8075 0.555058C14.7475 0.855058 14.94 1.15006 15.2375 1.21006C18.065 1.79256 20.3475 3.29006 21.705 4.62506H18.87C18.5625 4.62506 18.315 4.87256 18.315 5.18006C18.315 5.48756 18.5625 5.73506 18.87 5.73506H22.94C23.2475 5.73506 23.495 5.48756 23.495 5.18006V1.11006C23.495 0.802557 23.2475 0.555058 22.94 0.555058Z" fill="black"/>
<path d="M8.44 22.4701C5.615 21.8901 3.3325 20.3926 1.975 19.0551H4.81C5.1175 19.0551 5.365 18.8076 5.365 18.5001C5.365 18.1926 5.1175 17.9451 4.81 17.9451H0.739998C0.432498 17.9451 0.184998 18.1926 0.184998 18.5001V22.5701C0.184998 22.8776 0.432498 23.1251 0.739998 23.1251C1.0475 23.1251 1.295 22.8776 1.295 22.5701V19.9451C2.8125 21.4126 5.2175 22.9401 8.215 23.5551C8.2525 23.5626 8.2925 23.5676 8.3275 23.5676C8.585 23.5676 8.8175 23.3851 8.8725 23.1226C8.9325 22.8251 8.74 22.5301 8.44 22.4701Z" fill="black"/>
</g>
<defs>
<clipPath id="clip0_13116_1279">
<rect width="24" height="24" fill="black"/>
</clipPath>
</defs>
</svg>
