<?xml version="1.0" encoding="UTF-8"?>
<svg xmlns="http://www.w3.org/2000/svg" xmlns:xlink="http://www.w3.org/1999/xlink" width="37.5pt" height="37.5pt" viewBox="0 0 37.5 37.5" version="1.1">
<g id="surface3260">
<path style=" stroke:none;fill-rule:nonzero;fill:rgb(0%,0%,0%);fill-opacity:1;" d="M 5.492188 29.773438 C 7.574219 29.773438 9.25 28.097656 9.25 26.015625 C 9.25 25.726562 9.222656 25.4375 9.132812 25.148438 L 11.503906 23.703125 C 11.910156 23.441406 12.054688 22.921875 11.792969 22.519531 C 11.535156 22.113281 11.011719 21.96875 10.609375 22.230469 L 8.355469 23.585938 C 7.6875 22.777344 6.648438 22.257812 5.492188 22.257812 C 3.410156 22.257812 1.734375 23.933594 1.734375 26.015625 C 1.734375 28.097656 3.410156 29.773438 5.492188 29.773438 Z M 5.492188 23.992188 C 6.621094 23.992188 7.515625 24.886719 7.515625 26.015625 C 7.515625 27.144531 6.621094 28.039062 5.492188 28.039062 C 4.363281 28.039062 3.46875 27.144531 3.46875 26.015625 C 3.46875 24.886719 4.363281 23.992188 5.492188 23.992188 Z M 27.75 10.984375 C 27.75 11.390625 27.808594 11.792969 27.953125 12.167969 L 25.640625 13.46875 C 25.234375 13.703125 25.089844 14.222656 25.320312 14.65625 C 25.554688 15.058594 26.074219 15.203125 26.507812 14.972656 L 28.878906 13.613281 C 29.570312 14.308594 30.496094 14.714844 31.535156 14.714844 C 33.617188 14.714844 35.292969 13.035156 35.292969 10.957031 C 35.292969 8.875 33.617188 7.199219 31.535156 7.199219 C 29.457031 7.199219 27.75 8.902344 27.75 10.984375 Z M 33.53125 10.984375 C 33.53125 12.113281 32.636719 13.007812 31.507812 13.007812 C 30.378906 13.007812 29.484375 12.113281 29.484375 10.984375 C 29.484375 9.855469 30.378906 8.960938 31.507812 8.960938 C 32.636719 8.960938 33.53125 9.855469 33.53125 10.984375 Z M 18.5 10.695312 C 18.992188 10.695312 19.367188 10.320312 19.367188 9.828125 L 19.367188 7.398438 C 21.015625 6.996094 22.257812 5.519531 22.257812 3.757812 C 22.257812 1.675781 20.582031 0 18.5 0 C 16.417969 0 14.742188 1.675781 14.742188 3.757812 C 14.742188 5.519531 15.984375 7.023438 17.632812 7.398438 L 17.632812 9.828125 C 17.632812 10.320312 18.007812 10.695312 18.5 10.695312 Z M 16.476562 3.757812 C 16.476562 2.628906 17.371094 1.734375 18.5 1.734375 C 19.628906 1.734375 20.523438 2.628906 20.523438 3.757812 C 20.523438 4.886719 19.628906 5.78125 18.5 5.78125 C 17.371094 5.78125 16.476562 4.886719 16.476562 3.757812 Z M 35.265625 26.015625 C 35.265625 23.933594 33.589844 22.257812 31.507812 22.257812 C 30.351562 22.257812 29.339844 22.777344 28.644531 23.585938 L 26.390625 22.230469 C 25.988281 21.96875 25.4375 22.113281 25.207031 22.519531 C 24.945312 22.921875 25.089844 23.472656 25.496094 23.703125 L 27.867188 25.148438 C 27.808594 25.4375 27.75 25.726562 27.75 26.015625 C 27.75 28.097656 29.425781 29.773438 31.507812 29.773438 C 33.589844 29.773438 35.265625 28.097656 35.265625 26.015625 Z M 31.507812 28.039062 C 30.378906 28.039062 29.484375 27.144531 29.484375 26.015625 C 29.484375 24.886719 30.378906 23.992188 31.507812 23.992188 C 32.636719 23.992188 33.53125 24.886719 33.53125 26.015625 C 33.53125 27.144531 32.636719 28.039062 31.507812 28.039062 Z M 5.492188 14.742188 C 6.5625 14.742188 7.515625 14.28125 8.210938 13.585938 L 10.550781 14.945312 C 10.957031 15.175781 11.503906 15.03125 11.734375 14.625 C 11.96875 14.222656 11.824219 13.671875 11.417969 13.441406 L 9.078125 12.113281 C 9.191406 11.765625 9.25 11.390625 9.25 11.011719 C 9.25 8.933594 7.574219 7.253906 5.492188 7.253906 C 3.410156 7.253906 1.734375 8.902344 1.734375 10.984375 C 1.734375 13.066406 3.410156 14.742188 5.492188 14.742188 Z M 5.492188 8.960938 C 6.621094 8.960938 7.515625 9.855469 7.515625 10.984375 C 7.515625 12.113281 6.621094 13.007812 5.492188 13.007812 C 4.363281 13.007812 3.46875 12.113281 3.46875 10.984375 C 3.46875 9.855469 4.363281 8.960938 5.492188 8.960938 Z M 10.40625 33.242188 C 10.40625 33.734375 10.78125 34.109375 11.273438 34.109375 C 11.765625 34.109375 12.140625 33.734375 12.140625 33.242188 C 12.140625 29.746094 15.003906 26.882812 18.5 26.882812 C 21.996094 26.882812 24.859375 29.746094 24.859375 33.242188 C 24.859375 33.734375 25.234375 34.109375 25.726562 34.109375 C 26.21875 34.109375 26.59375 33.734375 26.59375 33.242188 C 26.59375 28.789062 22.953125 25.148438 18.5 25.148438 C 14.046875 25.148438 10.40625 28.761719 10.40625 33.242188 Z M 18.5 23.703125 C 21.363281 23.703125 23.703125 21.363281 23.703125 18.5 C 23.703125 15.636719 21.363281 13.296875 18.5 13.296875 C 15.636719 13.296875 13.296875 15.636719 13.296875 18.5 C 13.296875 21.363281 15.636719 23.703125 18.5 23.703125 Z M 18.5 15.03125 C 20.40625 15.03125 21.96875 16.59375 21.96875 18.5 C 21.96875 20.40625 20.40625 21.96875 18.5 21.96875 C 16.59375 21.96875 15.03125 20.40625 15.03125 18.5 C 15.03125 16.59375 16.59375 15.03125 18.5 15.03125 Z M 18.5 15.03125 "/>
</g>
</svg>
