<svg width="24" height="24" viewBox="0 0 24 24" fill="none" xmlns="http://www.w3.org/2000/svg">
<path d="M3.18215 7.01677C3.16875 6.99319 3.15518 6.96931 3.14458 6.94429C3.09159 6.81946 3.11972 6.68403 3.16825 6.56396C3.20785 6.64429 3.21574 6.91619 3.18765 7.00151C3.18596 7.00664 3.18398 7.0117 3.18215 7.01677Z" fill="black"/>
<path d="M20.1733 6.26288C20.2945 6.28941 20.4006 6.27868 20.5054 6.36045C20.6196 6.44951 20.6858 6.58826 20.7025 6.73028C20.7237 6.91112 20.6567 7.04059 20.5452 7.17789C20.3251 7.44871 19.7103 8.11401 19.4232 8.25922C19.3794 8.28141 19.3248 8.28479 19.2765 8.28991C19.2038 8.2995 19.112 8.2749 19.0469 8.24252C18.9181 8.17836 18.8025 8.05196 18.758 7.91436C18.7146 7.77976 18.7357 7.65005 18.8016 7.52728C18.9308 7.2865 19.6734 6.54931 19.9061 6.38342C19.991 6.32282 20.074 6.29297 20.1733 6.26288Z" fill="black"/>
<path d="M3.16825 6.56396C3.23511 6.43462 3.31419 6.34656 3.45598 6.30151C3.59702 6.25671 3.74625 6.27624 3.8755 6.34637C4.13848 6.48899 4.96423 7.24209 5.15194 7.49126C5.19485 7.54824 5.20746 7.6238 5.24614 7.68483C5.24868 7.86857 5.22647 8.01522 5.09497 8.15259C5.00243 8.24925 4.87277 8.31275 4.73729 8.3107C4.66335 8.30955 4.5792 8.28881 4.51512 8.2522C4.25048 8.10109 3.97136 7.79186 3.74165 7.58617C3.60035 7.4596 3.44366 7.34684 3.31535 7.20676C3.26022 7.14658 3.21797 7.09028 3.18215 7.01677C3.18398 7.0117 3.18596 7.00664 3.18765 7.00151C3.21574 6.91619 3.20785 6.64429 3.16825 6.56396Z" fill="black"/>
<path d="M7.20917 2.95936C7.29408 2.94697 7.44579 3.00309 7.52177 3.04635C7.5887 3.08446 7.61585 3.12718 7.65224 3.19268C7.91246 3.66137 8.14286 4.32486 8.3504 4.82977C8.5082 5.21366 8.74652 5.6776 8.84385 6.07586C8.87771 6.2145 8.86824 6.33311 8.79045 6.45595C8.71151 6.58065 8.57139 6.66151 8.42957 6.69462C8.32722 6.69564 8.22433 6.68105 8.13236 6.63377C8.04745 6.59018 7.96562 6.5151 7.91554 6.43387C7.79339 6.23578 7.71766 6.00302 7.63027 5.78789L7.28165 4.94621C7.11672 4.54401 6.89664 4.10484 6.77286 3.6959C6.72591 3.54086 6.70763 3.37612 6.79169 3.22886C6.88185 3.07078 7.04328 3.00765 7.20917 2.95936Z" fill="black"/>
<path d="M16.7291 2.94388C16.8461 2.9692 16.965 2.98977 17.0683 3.05397C17.1665 3.11496 17.2257 3.20626 17.2506 3.31785C17.2742 3.4237 17.275 3.53906 17.2474 3.64424C17.189 3.86808 17.0846 4.09121 16.9961 4.30485L16.6368 5.17844C16.494 5.5246 16.2894 6.13377 16.0994 6.42985C16.0048 6.57723 15.8577 6.64109 15.6933 6.67763C15.5508 6.65393 15.4242 6.63464 15.3146 6.53008C15.223 6.44258 15.166 6.31649 15.1643 6.18949C15.163 6.09416 15.1813 5.99243 15.2113 5.90222C15.2752 5.70922 15.3652 5.52098 15.4437 5.33336L15.7971 4.4777C15.9628 4.08435 16.1064 3.67968 16.285 3.29219C16.3122 3.23314 16.3387 3.16883 16.3869 3.12372C16.4924 3.025 16.5929 2.98785 16.7291 2.94388Z" fill="black"/>
<path d="M11.9047 1.90565C11.9622 1.90244 12.0183 1.901 12.0754 1.91022C12.2095 1.93188 12.3359 2.00598 12.4151 2.11687C12.4436 2.15688 12.4753 2.20995 12.4842 2.25829C12.5151 2.42486 12.5014 2.61179 12.5051 2.78174C12.5092 2.97378 12.5291 3.16542 12.5287 3.35752C12.5282 3.59698 12.5072 3.8365 12.5061 4.07645C12.5051 4.31987 12.5259 4.56097 12.5289 4.80393C12.531 4.971 12.5162 5.13764 12.5133 5.30463C12.5095 5.5207 12.5093 5.72916 12.4728 5.94278C12.3564 6.086 12.2633 6.15565 12.0862 6.21118C11.9925 6.21269 11.9041 6.20859 11.8151 6.17621C11.7096 6.13786 11.5855 6.04915 11.5425 5.94031C11.4653 5.74511 11.4881 5.48523 11.4839 5.27938C11.4796 5.07551 11.4624 4.87167 11.4646 4.66768C11.4672 4.42358 11.4865 4.18021 11.486 3.93583C11.4853 3.62306 11.4263 2.4207 11.5332 2.1784C11.6026 2.02081 11.7552 1.96276 11.9047 1.90565Z" fill="black"/>
<path d="M11.7275 12.2965C11.7678 12.2921 11.8081 12.2886 11.8485 12.286C11.889 12.2835 11.9294 12.2819 11.9699 12.2811C12.0104 12.2805 12.0509 12.2807 12.0914 12.2818C12.1318 12.283 12.1723 12.285 12.2127 12.288C12.2531 12.291 12.2934 12.2949 12.3336 12.2997C12.3738 12.3045 12.4139 12.3103 12.4538 12.317C12.4938 12.3236 12.5335 12.3312 12.5731 12.3396C12.6128 12.3481 12.6521 12.3575 12.6913 12.3677C12.7305 12.378 12.7694 12.3892 12.8081 12.4012C12.8467 12.4133 12.8851 12.4262 12.9231 12.44C12.9612 12.4538 12.999 12.4684 13.0364 12.4839C13.0738 12.4995 13.1108 12.5158 13.1475 12.533C13.1841 12.5502 13.2204 12.5683 13.2562 12.5871C13.292 12.606 13.3274 12.6256 13.3623 12.6461C13.3973 12.6666 13.4317 12.6878 13.4657 12.7098C13.4997 12.7319 13.5331 12.7547 13.566 12.7783C14.1324 13.1861 14.5392 13.782 14.6501 14.4805C14.7702 15.237 14.6244 15.9576 14.17 16.58C13.6987 17.2257 13.0316 17.5459 12.2584 17.6678C12.1398 17.671 12.0245 17.6838 11.9053 17.6786C11.8404 17.6757 11.7757 17.6706 11.7111 17.6631C11.6466 17.6557 11.5823 17.646 11.5185 17.6341C11.4546 17.6222 11.3912 17.6081 11.3284 17.5917C11.2655 17.5754 11.2033 17.5569 11.1417 17.5362C11.0801 17.5155 11.0193 17.4927 10.9593 17.4677C10.8993 17.4428 10.8403 17.4158 10.7822 17.3868C10.7241 17.3577 10.6671 17.3267 10.6112 17.2937C10.5553 17.2606 10.5006 17.2257 10.4471 17.1888C9.87235 16.7879 9.46127 16.1351 9.34045 15.4469C9.21203 14.7155 9.37473 14.0081 9.80265 13.4034C9.82474 13.3727 9.84747 13.3426 9.87084 13.3128C9.89418 13.2831 9.91814 13.2539 9.94272 13.2252C9.9673 13.1965 9.99248 13.1684 10.0183 13.1407C10.044 13.1131 10.0704 13.086 10.0973 13.0595C10.1242 13.0329 10.1516 13.0069 10.1796 12.9816C10.2076 12.9561 10.2361 12.9313 10.2652 12.9071C10.2942 12.883 10.3237 12.8594 10.3537 12.8364C10.3838 12.8134 10.4143 12.7911 10.4452 12.7695C10.4762 12.7478 10.5076 12.7268 10.5395 12.7065C10.5713 12.6861 10.6036 12.6664 10.6362 12.6474C10.6689 12.6284 10.702 12.6101 10.7354 12.5924C10.7689 12.5748 10.8027 12.5579 10.8368 12.5417C10.871 12.5255 10.9055 12.51 10.9403 12.4953C10.9751 12.4805 11.0102 12.4665 11.0456 12.4532C11.081 12.4399 11.1166 12.4274 11.1526 12.4156C11.1885 12.4038 11.2246 12.3928 11.261 12.3825C11.4163 12.3401 11.5699 12.3232 11.7275 12.2965Z" fill="black"/>
<path d="M3.73409 15.2904C3.89319 15.2935 4.07128 15.3423 4.1823 15.4632C4.35446 15.6507 4.47295 15.9258 4.60149 16.1467C4.70939 16.3321 4.8289 16.5123 4.94956 16.6897C5.9213 18.1183 7.18322 19.4729 8.75412 20.2429C9.53802 20.6271 10.3703 20.9114 11.2419 21.0082C13.3868 21.2463 15.4995 20.347 17.0827 18.9383C17.2192 18.8167 17.346 18.6813 17.4755 18.5523C17.6475 18.3809 17.8247 18.2116 17.9826 18.0272C18.4349 17.4993 18.8547 16.927 19.2313 16.3429C19.4011 16.0796 19.5327 15.7694 19.7276 15.5262C19.8043 15.4305 19.9006 15.3506 20.0192 15.3135C20.1487 15.273 20.307 15.2901 20.4243 15.3588C20.5477 15.4311 20.6345 15.576 20.6666 15.7138C20.7315 15.9919 20.533 16.2648 20.3931 16.4874C20.2797 16.6617 20.1808 16.8455 20.0696 17.0213C19.8689 17.3388 19.642 17.661 19.4167 17.9622C18.226 19.5545 16.6177 20.9235 14.7392 21.6179C14.6766 21.6404 14.6138 21.6621 14.5506 21.6831C14.4875 21.7041 14.4242 21.7242 14.3605 21.7437C14.2969 21.7631 14.2331 21.7817 14.169 21.7996C14.105 21.8174 14.0407 21.8344 13.9762 21.8507C13.9117 21.8669 13.847 21.8824 13.7822 21.8971C13.7173 21.9117 13.6522 21.9256 13.587 21.9387C13.5218 21.9517 13.4565 21.964 13.3909 21.9755C13.3255 21.9869 13.2598 21.9976 13.194 22.0074C13.1283 22.0173 13.0624 22.0263 12.9963 22.0346C12.9304 22.0428 12.8643 22.0502 12.7981 22.0568C12.7319 22.0634 12.6657 22.0692 12.5993 22.0741C12.533 22.0791 12.4667 22.0833 12.4002 22.0866C12.3338 22.0899 12.2673 22.0925 12.2008 22.0942C12.1343 22.0959 12.0678 22.0968 12.0013 22.0968C11.9348 22.0969 11.8683 22.0961 11.8018 22.0946C11.7354 22.093 11.6689 22.0906 11.6024 22.0874C11.536 22.0842 11.4696 22.0802 11.4033 22.0754C11.337 22.0705 11.2707 22.0648 11.2045 22.0584C11.1383 22.0519 11.0722 22.0447 11.0062 22.0365C10.9402 22.0285 10.8743 22.0196 10.8085 22.0098C10.7427 22.0001 10.677 21.9896 10.6115 21.9783C10.5459 21.967 10.4806 21.9548 10.4154 21.9419C10.3501 21.929 10.285 21.9152 10.2201 21.9007C10.1552 21.8862 10.0905 21.8708 10.026 21.8547C9.9615 21.8386 9.89719 21.8217 9.83306 21.804C9.76897 21.7862 9.70511 21.7677 9.64146 21.7485C9.57782 21.7292 9.51441 21.7091 9.45125 21.6882C9.38808 21.6674 9.3252 21.6458 9.2626 21.6234C9.19996 21.601 9.13762 21.5779 9.07559 21.554C9.01351 21.53 8.95175 21.5054 8.89032 21.4799C8.82889 21.4545 8.76776 21.4283 8.70693 21.4013C8.64614 21.3744 8.58569 21.3467 8.52558 21.3183C6.64124 20.4455 5.03087 18.7722 3.92142 17.0462C3.71356 16.7228 3.45272 16.3675 3.32229 16.0044C3.2735 15.8685 3.26632 15.7182 3.33309 15.5864C3.41152 15.4316 3.57704 15.346 3.73409 15.2904Z" fill="black"/>
<path d="M11.2536 7.9389C11.4413 7.90881 11.8534 7.86557 12.0352 7.90911C12.479 7.87474 13.2186 7.96272 13.6624 8.04033C14.2319 8.13657 14.7911 8.2747 15.3399 8.45472C16.9398 8.99442 18.4591 9.91311 19.7358 11.0113C21.0152 12.1118 22.0512 13.3804 22.9431 14.8086C23.125 15.1001 23.3935 15.4471 23.4217 15.7981C23.4325 15.9331 23.3701 16.0691 23.2822 16.1691C23.1902 16.2737 23.0637 16.3231 22.9265 16.3288C22.8012 16.3339 22.6588 16.2744 22.5682 16.1885C22.4044 16.0334 22.094 15.4276 21.9443 15.1979C21.624 14.7062 21.2821 14.2385 20.9188 13.7782C19.0764 11.4435 16.349 9.56583 13.3788 9.07631C12.8892 8.99562 12.3853 8.94395 11.8884 8.95142C8.85085 8.99707 6.02474 10.649 3.95993 12.7832C3.22874 13.5389 2.62157 14.3615 2.0382 15.2327C1.83958 15.5294 1.70118 15.8914 1.46504 16.1582C1.37054 16.265 1.22494 16.316 1.08951 16.3473C0.925783 16.3083 0.759231 16.2758 0.660895 16.1221C0.586868 16.0064 0.555439 15.7937 0.593053 15.6621C0.68775 15.331 1.10801 14.7269 1.31655 14.4093C2.78777 12.1683 4.66982 10.3542 7.07423 9.13353C7.21609 9.06182 7.35935 8.99299 7.50402 8.92706C7.6487 8.86117 7.79466 8.79824 7.9419 8.73826C8.08915 8.67828 8.23754 8.62133 8.38708 8.56742C8.53666 8.51347 8.68727 8.4626 8.8389 8.4148C8.99053 8.367 9.14307 8.32232 9.29652 8.28075C9.44996 8.23914 9.60418 8.20067 9.7592 8.16533C9.91425 8.13004 10.0699 8.09788 10.2262 8.06885C10.3826 8.03987 10.5394 8.01408 10.6968 7.99148C10.8447 7.96977 11.1191 7.90694 11.2536 7.9389ZM11.2536 7.9389C11.4733 7.98732 11.7223 7.96935 11.9465 7.96778C11.9664 7.94348 11.9816 7.92624 12.0123 7.91611C12.0199 7.91363 12.0275 7.91146 12.0352 7.90911C11.8534 7.86557 11.4413 7.90881 11.2536 7.9389Z" fill="black"/>
<path d="M11.2536 7.9389C11.4413 7.90881 11.8534 7.86557 12.0352 7.90911C12.0275 7.91146 12.0199 7.91363 12.0123 7.91611C11.9816 7.92624 11.9664 7.94348 11.9465 7.96778C11.7223 7.96935 11.4733 7.98732 11.2536 7.9389Z" fill="black"/>
</svg>
