<svg width="24" height="24" viewBox="0 0 24 24" fill="none" xmlns="http://www.w3.org/2000/svg">
<g clip-path="url(#clip0_13117_318)">
<path d="M21.375 0.1875H18.5625C18.2441 0.1875 18 0.431641 18 0.75C18 1.06836 18.2441 1.3125 18.5625 1.3125H21.375C22.1055 1.3125 22.6875 1.89453 22.6875 2.625V5.4375C22.6875 5.75586 22.9316 6 23.25 6C23.5684 6 23.8125 5.75586 23.8125 5.4375V2.625C23.8125 1.27539 22.7246 0.1875 21.375 0.1875Z" fill="black"/>
<path d="M5.4375 0.1875H2.625C1.27539 0.1875 0.1875 1.27539 0.1875 2.625V5.4375C0.1875 5.75586 0.431641 6 0.75 6C1.06836 6 1.3125 5.75586 1.3125 5.4375V2.625C1.3125 1.89453 1.89453 1.3125 2.625 1.3125H5.4375C5.75586 1.3125 6 1.06836 6 0.75C6 0.431641 5.75586 0.1875 5.4375 0.1875Z" fill="black"/>
<path d="M0.75 18C0.431641 18 0.1875 18.2441 0.1875 18.5625V21.375C0.1875 22.7246 1.27539 23.8125 2.625 23.8125H5.4375C5.75586 23.8125 6 23.5684 6 23.25C6 22.9316 5.75586 22.6875 5.4375 22.6875H2.625C1.89453 22.6875 1.3125 22.1055 1.3125 21.375V18.5625C1.3125 18.2441 1.06836 18 0.75 18Z" fill="black"/>
<path d="M23.25 18C22.9316 18 22.6875 18.2441 22.6875 18.5625V21.375C22.6875 22.1055 22.1055 22.6875 21.375 22.6875H18.5625C18.2441 22.6875 18 22.9316 18 23.25C18 23.5684 18.2441 23.8125 18.5625 23.8125H21.375C22.7246 23.8125 23.8125 22.7246 23.8125 21.375V18.5625C23.8125 18.2441 23.5684 18 23.25 18Z" fill="black"/>
<path d="M10.5 14.4375C10.5938 14.4375 10.668 14.418 10.7441 14.3809L12.2441 13.6309C12.4316 13.5371 12.5625 13.3496 12.5625 13.125V8.4375C12.5625 8.11914 12.3184 7.875 12 7.875C11.6816 7.875 11.4375 8.11914 11.4375 8.4375V12.7695L10.2559 13.3691C9.97461 13.5 9.86328 13.8379 10.0117 14.1191C10.0879 14.3242 10.293 14.4375 10.5 14.4375Z" fill="black"/>
<path d="M7.3125 7.875C6.99414 7.875 6.75 8.11914 6.75 8.4375V10.3125C6.75 10.6309 6.99414 10.875 7.3125 10.875C7.63086 10.875 7.875 10.6309 7.875 10.3125V8.4375C7.875 8.11914 7.63086 7.875 7.3125 7.875Z" fill="black"/>
<path d="M16.6875 7.875C16.3691 7.875 16.125 8.11914 16.125 8.4375V10.3125C16.125 10.6309 16.3691 10.875 16.6875 10.875C17.0059 10.875 17.25 10.6309 17.25 10.3125V8.4375C17.25 8.11914 17.0059 7.875 16.6875 7.875Z" fill="black"/>
<path d="M7.46289 16.3125C7.25586 16.5371 7.27539 16.8945 7.5 17.0996C8.77539 18.2617 10.3867 18.8438 12 18.8438C13.6133 18.8438 15.2246 18.2617 16.5 17.0996C16.7246 16.8945 16.7441 16.5371 16.5371 16.3125C16.332 16.0879 15.9746 16.0684 15.75 16.2754C13.6133 18.2246 10.3867 18.2246 8.25 16.2754C8.02539 16.0684 7.66797 16.0879 7.46289 16.3125Z" fill="black"/>
</g>
<defs>
<clipPath id="clip0_13117_318">
<rect width="24" height="24" fill="black"/>
</clipPath>
</defs>
</svg>
