<svg width="24" height="24" viewBox="0 0 24 24" fill="none" xmlns="http://www.w3.org/2000/svg">
<path d="M3.145 20.165C2.83 20.165 2.59 20.405 2.59 20.72C2.59 21.035 2.83 21.275 3.145 21.275H5.92C6.235 21.275 6.475 21.035 6.475 20.72V12.765C6.475 12.45 6.235 12.21 5.92 12.21H3.145C2.83 12.21 2.59 12.45 2.59 12.765C2.59 13.08 2.83 13.32 3.145 13.32H5.365V20.165H3.145Z" fill="black"/>
<path d="M19.055 10.675C18.5925 10.12 17.9275 9.80503 17.205 9.80503L14.5225 9.82253L14.8925 8.78753C15.1325 8.06503 15.3 7.32503 15.41 6.56753L15.5225 5.82753C15.595 5.29003 15.4475 4.75503 15.1325 4.33003C14.8175 3.90253 14.32 3.60753 13.7825 3.53253C13.245 3.46003 12.71 3.59003 12.285 3.92253C11.8575 4.25503 11.5625 4.73503 11.4875 5.27253L11.3775 6.01253C11.0625 8.34253 9.7675 10.435 7.825 11.7475C7.5675 11.915 7.51 12.265 7.6775 12.525C7.845 12.7825 8.195 12.84 8.455 12.6725C10.655 11.175 12.1175 8.80503 12.4875 6.16003L12.5975 5.42003C12.635 5.18003 12.765 4.95753 12.95 4.81003C13.1525 4.66253 13.395 4.60753 13.635 4.62503C14.135 4.70003 14.485 5.16253 14.43 5.66003L14.32 6.40003C14.2275 7.08503 14.06 7.77003 13.8575 8.40003L13.2275 10.175C13.1725 10.3425 13.19 10.5275 13.3025 10.675C13.4125 10.8225 13.58 10.915 13.765 10.915H17.2225C17.6125 10.915 17.9625 11.0825 18.2225 11.3775C18.4625 11.6725 18.575 12.0625 18.5 12.4325L17.315 19.0925C17.205 19.7025 16.6675 20.165 16.04 20.165H10.5075C9.7675 20.165 9.0275 20.035 8.325 19.7775C8.03 19.665 7.715 19.8125 7.6025 20.11C7.4925 20.405 7.64 20.72 7.9375 20.83C8.75 21.145 9.62 21.2925 10.5075 21.2925H16.02C17.1875 21.2925 18.185 20.46 18.39 19.315L19.5725 12.655C19.7025 11.9325 19.5175 11.21 19.055 10.675Z" fill="black"/>
</svg>
