<svg width="24" height="24" viewBox="0 0 24 24" fill="none" xmlns="http://www.w3.org/2000/svg">
<path d="M17.4375 9.93752C18.168 9.93752 18.8438 10.2559 19.3125 10.8184C19.7813 11.3633 19.9688 12.0938 19.8379 12.8242L18.6367 19.5742C18.4316 20.7383 17.418 21.5821 16.2383 21.5821H10.6504C9.75 21.5821 8.86914 21.4317 8.04297 21.1133C7.74414 21 7.59375 20.6817 7.70703 20.3809C7.81836 20.0821 8.13672 19.9317 8.4375 20.043C9.15039 20.3067 9.90039 20.4375 10.6504 20.4375H16.2559C16.8945 20.4375 17.4375 19.9688 17.5508 19.3496L18.75 12.5996C18.8242 12.2246 18.7129 11.8321 18.4688 11.5313C18.207 11.2305 17.8496 11.0625 17.457 11.0625H13.9492C13.7617 11.0625 13.5938 10.9688 13.4805 10.8184C13.3691 10.668 13.3496 10.4805 13.4063 10.3125L14.043 8.51174C14.25 7.87502 14.418 7.18166 14.5117 6.4883L14.625 5.7383C14.6816 5.23049 14.3242 4.76174 13.8184 4.68752C13.5742 4.66799 13.332 4.72463 13.125 4.87502C12.9375 5.02541 12.8066 5.25002 12.7695 5.49416L12.6563 6.24416C12.2813 8.9258 10.8008 11.3242 8.56836 12.8438C8.30664 13.0117 7.94922 12.9571 7.78125 12.6934C7.61328 12.4317 7.66797 12.0742 7.93164 11.9063C9.90039 10.5742 11.2129 8.45705 11.5313 6.09377L11.6445 5.34377C11.7188 4.8008 12.0195 4.31252 12.4492 3.97463C12.8809 3.63674 13.4258 3.50588 13.9688 3.58205C14.5117 3.65627 15.0195 3.95705 15.3379 4.38674C15.6563 4.81838 15.8066 5.3633 15.7305 5.90627L15.6191 6.65627C15.5059 7.4258 15.3379 8.1758 15.0938 8.90627L14.7188 9.95705L17.4375 9.93752Z" fill="black"/>
<path d="M2.625 21C2.625 20.6817 2.86914 20.4375 3.1875 20.4375H5.4375V13.5H3.1875C2.86914 13.5 2.625 13.2559 2.625 12.9375C2.625 12.6192 2.86914 12.375 3.1875 12.375H6C6.31836 12.375 6.5625 12.6192 6.5625 12.9375V21C6.5625 21.3184 6.31836 21.5625 6 21.5625H3.1875C2.86914 21.5625 2.625 21.3184 2.625 21Z" fill="black"/>
</svg>
