<svg width="24" height="24" viewBox="0 0 24 24" fill="none" xmlns="http://www.w3.org/2000/svg">
<path d="M19.3325 16.095C19.6475 16.095 19.8875 15.855 19.8875 15.54V8.14003C19.8875 7.99253 19.8325 7.86253 19.72 7.75253L14.17 2.20253C14.06 2.09003 13.93 2.03503 13.7825 2.03503H6.1975C4.865 2.03503 3.7925 3.10753 3.7925 4.44003V17.39C3.7925 17.705 4.0325 17.945 4.3475 17.945C4.6625 17.945 4.9025 17.705 4.9025 17.39V4.44003C4.9025 3.71753 5.475 3.14503 6.1975 3.14503H13.2275V6.29003C13.2275 7.62253 14.3 8.69503 15.6325 8.69503H18.7775V15.54C18.7775 15.855 19.0175 16.095 19.3325 16.095ZM15.6325 7.58503C14.91 7.58503 14.3375 7.01253 14.3375 6.29003V3.92253L18 7.58503H15.6325Z" fill="black"/>
<path d="M23.05 18.7025L20.48 18.2225C20.1825 18.1675 19.8875 18.37 19.8325 18.6675C19.7775 18.9625 19.98 19.2575 20.275 19.315L21.5525 19.555C15.3175 23.57 7.085 23.31 1.0925 18.815C0.85 18.63 0.5 18.685 0.315 18.925C0.13 19.165 0.184999 19.5175 0.424999 19.7025C3.7925 22.2375 7.825 23.495 11.8575 23.495C15.4475 23.495 19.0375 22.495 22.1625 20.48L21.9225 21.72C21.8675 22.015 22.07 22.31 22.3675 22.3675C22.4025 22.3675 22.44 22.385 22.4775 22.385C22.7375 22.385 22.9775 22.2 23.015 21.94L23.495 19.37C23.5125 19.2225 23.495 19.0725 23.4025 18.9625C23.31 18.815 23.18 18.7225 23.05 18.7025Z" fill="black"/>
</svg>
