<svg width="24" height="24" viewBox="0 0 24 24" fill="none" xmlns="http://www.w3.org/2000/svg">
<path d="M18.685 0.185059H11.47C10.1375 0.185059 9.06499 1.25756 9.06499 2.59006V6.29006C9.06499 7.01256 8.4925 7.58506 7.77 7.58506H4.4025C4.015 7.58506 3.7 7.27006 3.7 6.88256C3.7 6.67756 3.7925 6.47506 3.94 6.34506L7.4 3.38506C7.64 3.18256 7.66 2.83006 7.455 2.60756C7.2525 2.38756 6.9 2.35006 6.6775 2.55256L3.22 5.49506C2.8125 5.84506 2.59 6.34506 2.59 6.88256C2.59 7.88006 3.405 8.69506 4.4025 8.69506H7.77C9.1025 8.69506 10.175 7.62256 10.175 6.29006V2.59006C10.175 1.86756 10.7475 1.29506 11.47 1.29506H18.685C19.4075 1.29506 19.98 1.86756 19.98 2.59006V21.0901C19.98 21.8126 19.4075 22.3851 18.685 22.3851H4.995C4.2725 22.3851 3.7 21.8126 3.7 21.0901V10.9151C3.7 10.6001 3.46 10.3601 3.145 10.3601C2.83 10.3601 2.59 10.6001 2.59 10.9151V21.0901C2.59 22.4226 3.6625 23.4951 4.995 23.4951H18.685C20.0175 23.4951 21.09 22.4226 21.09 21.0901V2.59006C21.09 1.25756 20.0175 0.185059 18.685 0.185059Z" fill="black"/>
<path d="M7.715 15.9651C7.9175 15.7076 8.1025 15.4476 8.27 15.2251C8.4925 14.9301 8.77 14.5401 8.8975 14.4126C9.12 14.4676 9.4725 14.9101 9.73 15.2251C10.23 15.8351 10.785 16.5401 11.6 16.5401C11.655 16.5401 11.71 16.5401 11.7475 16.5401C12.32 16.4826 12.7475 16.0776 13.1175 15.7251C13.395 15.4476 13.6725 15.1876 13.875 15.2076C13.93 15.2076 14.0225 15.2451 14.0975 15.2801C14.375 15.4101 14.7075 15.3001 14.8375 15.0226C14.9675 14.7451 14.855 14.4126 14.5775 14.2826C14.375 14.1901 14.17 14.1151 13.9675 14.0976C13.245 14.0226 12.7275 14.5226 12.32 14.9101C12.0625 15.1526 11.8025 15.4101 11.6 15.4301C11.3025 15.4651 10.8975 14.9476 10.5625 14.5226C10.065 13.8926 9.49 13.1901 8.6775 13.3026C8.215 13.3576 7.9175 13.7826 7.345 14.5601C7.215 14.7826 7.03 15.0226 6.845 15.2801C6.66 15.5226 6.6975 15.8726 6.9375 16.0576C7.1775 16.2426 7.53 16.2051 7.715 15.9651Z" fill="black"/>
<path d="M16.835 15.9101C16.835 16.2176 16.5875 16.4651 16.28 16.4651C15.9725 16.4651 15.725 16.2176 15.725 15.9101C15.725 15.6026 15.9725 15.3551 16.28 15.3551C16.5875 15.3551 16.835 15.6026 16.835 15.9101Z" fill="black"/>
</svg>
