<svg width="24" height="24" viewBox="0 0 24 24" fill="none" xmlns="http://www.w3.org/2000/svg">
<path d="M20.165 18.0925C20.165 17.7775 19.925 17.5375 19.61 17.5375C19.295 17.5375 19.055 17.7775 19.055 18.0925V20.6825L13.58 15.1875C13.3575 14.9675 13.005 14.9675 12.8025 15.1875C12.58 15.41 12.58 15.7625 12.8025 15.965L18.2775 21.46H15.6875C15.54 21.46 15.3925 21.515 15.3 21.6275C15.2075 21.72 15.1325 21.8675 15.1325 22.015C15.1325 22.33 15.3725 22.57 15.6875 22.57H19.61C19.925 22.57 20.165 22.33 20.165 22.015V18.0925Z" fill="black"/>
<path d="M20.165 7.95499C20.165 7.63999 19.925 7.39999 19.61 7.39999C19.295 7.39999 19.055 7.63999 19.055 7.95499V14.8C19.055 15.115 19.295 15.355 19.61 15.355C19.925 15.355 20.165 15.115 20.165 14.8V7.95499Z" fill="black"/>
<path d="M15.91 1.10999H5.92C4.5875 1.10999 3.515 2.18249 3.515 3.51499V20.165C3.515 21.4975 4.5875 22.57 5.92 22.57H12.395C12.71 22.57 12.95 22.33 12.95 22.015C12.95 21.7 12.71 21.46 12.395 21.46H5.92C5.1975 21.46 4.625 20.8875 4.625 20.165V3.51499C4.625 2.79249 5.1975 2.21999 5.92 2.21999H15.355V3.51499C15.355 4.84749 16.4275 5.91999 17.76 5.91999H19.61C19.925 5.91999 20.165 5.67999 20.165 5.36498C20.165 3.01499 18.26 1.10999 15.91 1.10999ZM17.76 4.80999C17.0375 4.80999 16.465 4.23749 16.465 3.51499V2.27499C17.76 2.49749 18.7775 3.53249 19 4.80999H17.76Z" fill="black"/>
</svg>
