<?xml version="1.0" encoding="UTF-8"?>
<svg xmlns="http://www.w3.org/2000/svg" xmlns:xlink="http://www.w3.org/1999/xlink" width="37.5pt" height="37.5pt" viewBox="0 0 37.5 37.5" version="1.1">
<g id="surface4872">
<path style=" stroke:none;fill-rule:nonzero;fill:rgb(0%,0%,0%);fill-opacity:1;" d="M 18.5 0.289062 C 18.007812 0.289062 17.632812 0.664062 17.632812 1.15625 L 17.632812 17.054688 C 17.632812 17.546875 18.007812 17.921875 18.5 17.921875 C 18.992188 17.921875 19.367188 17.546875 19.367188 17.054688 L 19.367188 2.023438 L 22.835938 2.023438 L 22.835938 18.5 C 22.835938 18.992188 23.210938 19.367188 23.703125 19.367188 C 24.195312 19.367188 24.570312 18.992188 24.570312 18.5 L 24.570312 1.15625 C 24.570312 0.664062 24.195312 0.289062 23.703125 0.289062 Z M 8.671875 6.070312 C 8.179688 6.070312 7.804688 6.445312 7.804688 6.9375 L 7.804688 15.609375 C 7.804688 16.101562 8.179688 16.476562 8.671875 16.476562 C 9.164062 16.476562 9.539062 16.101562 9.539062 15.609375 L 9.539062 7.804688 L 13.007812 7.804688 L 13.007812 15.609375 C 13.007812 16.101562 13.382812 16.476562 13.875 16.476562 C 14.367188 16.476562 14.742188 16.101562 14.742188 15.609375 L 14.742188 6.9375 C 14.742188 6.445312 14.367188 6.070312 13.875 6.070312 Z M 27.75 6.070312 C 27.257812 6.070312 26.882812 6.445312 26.882812 6.9375 L 26.882812 18.5 C 26.882812 18.992188 27.257812 19.367188 27.75 19.367188 C 28.242188 19.367188 28.617188 18.992188 28.617188 18.5 L 28.617188 7.804688 L 32.085938 7.804688 L 32.085938 18.5 C 32.085938 18.992188 32.460938 19.367188 32.953125 19.367188 C 33.445312 19.367188 33.820312 18.992188 33.820312 18.5 L 33.820312 6.9375 C 33.820312 6.445312 33.445312 6.070312 32.953125 6.070312 Z M 10.617188 19.757812 C 8.511719 19.726562 6.417969 20.390625 4.683594 21.707031 L 3.554688 22.574219 L 3.46875 22.664062 L 3.179688 22.953125 C 3.007812 23.125 2.917969 23.328125 2.917969 23.558594 L 2.917969 32.808594 L 1.15625 32.808594 C 0.664062 32.808594 0.289062 33.183594 0.289062 33.675781 C 0.289062 34.167969 0.664062 34.542969 1.15625 34.542969 L 3.757812 34.542969 C 4.25 34.542969 4.625 34.167969 4.625 33.675781 L 4.625 23.90625 L 5.722656 23.066406 C 8.007812 21.332031 11.011719 20.984375 13.644531 22.140625 L 21.101562 25.496094 C 21.449219 25.640625 21.738281 25.929688 21.851562 26.304688 C 21.96875 26.679688 21.96875 27.054688 21.824219 27.402344 C 21.679688 27.75 21.390625 28.011719 21.042969 28.15625 C 20.695312 28.300781 20.292969 28.269531 19.945312 28.125 L 14.164062 25.554688 C 13.730469 25.351562 13.210938 25.554688 13.007812 25.988281 C 12.804688 26.421875 13.007812 26.941406 13.441406 27.144531 L 19.222656 29.714844 C 20.003906 30.0625 20.871094 30.089844 21.652344 29.773438 C 21.765625 29.746094 21.882812 29.6875 21.96875 29.628906 C 22.027344 29.628906 22.054688 29.601562 22.085938 29.601562 L 33.125 24.917969 C 33.472656 24.773438 33.878906 24.773438 34.226562 24.917969 C 34.570312 25.0625 34.859375 25.351562 35.003906 25.699219 C 35.148438 26.042969 35.148438 26.449219 35.003906 26.796875 C 34.859375 27.144531 34.570312 27.433594 34.226562 27.578125 L 17.921875 34.457031 C 16.621094 35.003906 15.117188 34.976562 13.847656 34.339844 L 6.964844 30.988281 C 6.53125 30.785156 6.011719 30.957031 5.808594 31.390625 C 5.609375 31.824219 5.78125 32.347656 6.214844 32.546875 L 13.09375 35.902344 C 14.019531 36.363281 15.003906 36.566406 16.015625 36.566406 C 16.882812 36.566406 17.777344 36.394531 18.617188 36.046875 L 34.917969 29.167969 C 35.699219 28.847656 36.304688 28.210938 36.625 27.433594 C 36.972656 26.652344 36.972656 25.785156 36.652344 25.003906 C 36.335938 24.222656 35.699219 23.617188 34.917969 23.296875 C 34.136719 22.980469 33.269531 22.980469 32.492188 23.328125 L 32.144531 23.472656 C 31.335938 22.113281 29.65625 21.535156 28.15625 22.171875 L 24.800781 23.585938 C 24.367188 23.761719 24.164062 24.28125 24.339844 24.714844 C 24.484375 25.03125 24.800781 25.234375 25.148438 25.234375 C 25.265625 25.234375 25.378906 25.207031 25.496094 25.175781 L 28.847656 23.761719 C 29.457031 23.5 30.121094 23.703125 30.523438 24.164062 L 23.730469 27.054688 C 23.820312 25.753906 23.125 24.484375 21.851562 23.933594 L 14.335938 20.582031 C 13.144531 20.050781 11.878906 19.777344 10.617188 19.757812 Z M 10.617188 19.757812 "/>
</g>
</svg>
