<svg width="24" height="24" viewBox="0 0 24 24" fill="none" xmlns="http://www.w3.org/2000/svg">
<g clip-path="url(#clip0_12916_45675)">
<path d="M13.2176 1.28764C13.1445 1.0501 12.8927 0.916782 12.6552 0.989864C12.4176 1.06295 12.2843 1.31475 12.3574 1.55229L18.0399 20.0223C18.1078 20.2429 18.3316 20.3764 18.558 20.3313L23.2955 19.3863C23.5392 19.3377 23.6974 19.1007 23.6488 18.8569C23.6002 18.6132 23.3632 18.455 23.1194 18.5037L18.7806 19.3692L13.2176 1.28764Z" fill="black"/>
<path fill-rule="evenodd" clip-rule="evenodd" d="M2.36748 4.28497C2.11895 4.28497 1.91748 4.48644 1.91748 4.73497V11.3901H1.36498C0.623191 11.3901 0.0224762 11.9999 0.0224762 12.7401C0.0224762 12.7799 0.027738 12.8194 0.0381243 12.8578L0.505405 14.5831L0.266274 17.7258C0.265409 17.7372 0.264976 17.7486 0.264976 17.76V20.75C0.264976 20.9267 0.366801 21.0796 0.514971 21.1532C0.671883 22.5604 1.86513 23.6575 3.31498 23.6575C4.71837 23.6575 5.88135 22.6296 6.09674 21.2875H8.98132C9.67256 22.6912 11.1175 23.6575 12.7875 23.6575C15.1262 23.6575 17.025 21.7583 17.025 19.4175C17.025 17.7429 16.0534 16.296 14.6445 15.6077C14.653 15.5732 14.6575 15.5371 14.6575 15.5V14.5401C14.6575 13.7982 14.0601 13.1901 13.3175 13.1901H12.7571C12.7533 13.1659 12.7474 13.1417 12.7394 13.1177L9.89941 4.59274C9.83818 4.40895 9.6662 4.28497 9.47248 4.28497H2.36748ZM8.19668 11.7712C7.93332 11.5586 7.6029 11.3901 7.18498 11.3901H2.81748V5.18497H9.14808L11.8149 13.1901H9.57498L8.82826 12.4371L8.80896 12.4139C8.63703 12.2072 8.43297 11.9619 8.19668 11.7712ZM3.31498 22.7575C2.38039 22.7575 1.60114 22.0865 1.43167 21.2H5.19828C5.02881 22.0865 4.24956 22.7575 3.31498 22.7575ZM3.31498 18.92C2.44313 18.92 1.70681 19.5037 1.47409 20.3H5.15586C4.92314 19.5037 4.18682 18.92 3.31498 18.92ZM3.31498 18.02C4.6872 18.02 5.82995 19.0028 6.08113 20.3H8.45442C8.47334 20.0675 8.50614 19.839 8.55201 19.6153C8.549 19.5497 8.54748 19.4838 8.54748 19.4175C8.54748 17.0761 10.4468 15.18 12.7875 15.18C12.8499 15.18 12.912 15.1813 12.9738 15.184C13.2291 15.1311 13.4907 15.0951 13.7575 15.0774V14.5401C13.7575 14.287 13.5549 14.0901 13.3175 14.0901H9.38748C9.26748 14.0901 9.15245 14.0422 9.06795 13.957L8.17545 13.057C8.16632 13.0478 8.15758 13.0382 8.14928 13.0282L8.14167 13.0191C7.94867 12.7875 7.79637 12.6047 7.6314 12.4715C7.47663 12.3466 7.33955 12.2901 7.18498 12.2901H1.36498C1.14282 12.2901 0.950166 12.4643 0.925208 12.6903L1.39433 14.4225C1.40771 14.4719 1.41256 14.5232 1.40868 14.5743L1.16498 17.7771V19.0175C1.68175 18.4077 2.4531 18.02 3.31498 18.02ZM12.7875 22.7575C11.0334 22.7575 9.59421 21.4038 9.45802 19.6846C9.86761 17.905 11.2634 16.5038 13.0453 16.0898C14.7667 16.2214 16.125 17.6605 16.125 19.4175C16.125 21.2616 14.6288 22.7575 12.7875 22.7575Z" fill="black"/>
</g>
<defs>
<clipPath id="clip0_12916_45675">
<rect width="24" height="24" fill="black"/>
</clipPath>
</defs>
</svg>
