<?xml version="1.0" encoding="UTF-8"?>
<svg xmlns="http://www.w3.org/2000/svg" xmlns:xlink="http://www.w3.org/1999/xlink" width="37.5pt" height="37.5pt" viewBox="0 0 37.5 37.5" version="1.1">
<g id="surface4650">
<path style=" stroke:none;fill-rule:nonzero;fill:rgb(0%,0%,0%);fill-opacity:1;" d="M 27.113281 27.027344 L 27.605469 27.027344 C 28.820312 27.027344 29.800781 26.042969 29.800781 24.832031 L 29.800781 12.890625 C 29.800781 11.679688 28.820312 10.695312 27.605469 10.695312 L 24.398438 10.695312 L 24.339844 10.609375 C 22.894531 8.410156 20.550781 7.023438 17.949219 6.792969 L 17.949219 4.132812 C 17.949219 3.640625 17.574219 3.265625 17.082031 3.265625 C 16.59375 3.265625 16.214844 3.640625 16.214844 4.132812 L 16.214844 6.792969 C 13.644531 7.054688 11.300781 8.441406 9.828125 10.609375 L 9.625 10.925781 L 7.574219 12.140625 C 7.371094 12.257812 7.226562 12.457031 7.167969 12.71875 C 7.109375 12.980469 7.167969 13.210938 7.3125 13.414062 L 9.367188 16.273438 L 9.367188 32.027344 C 8.875 32.027344 8.5 32.402344 8.5 32.894531 C 8.5 33.386719 8.875 33.761719 9.367188 33.761719 L 24.800781 33.761719 C 25.292969 33.761719 25.667969 33.386719 25.667969 32.894531 C 25.667969 32.402344 25.292969 32.027344 24.800781 32.027344 L 24.800781 12.429688 L 27.605469 12.429688 C 27.867188 12.429688 28.066406 12.632812 28.066406 12.890625 L 28.066406 24.800781 C 28.066406 25.0625 27.867188 25.265625 27.605469 25.265625 L 26.824219 25.265625 C 26.332031 25.265625 25.957031 25.640625 25.957031 26.132812 C 25.957031 26.621094 26.332031 27 26.824219 27 L 27.113281 27 Z M 17.113281 8.46875 C 19.078125 8.46875 20.929688 9.277344 22.230469 10.722656 L 11.96875 10.722656 C 13.296875 9.277344 15.148438 8.46875 17.113281 8.46875 Z M 16.246094 27.460938 L 11.128906 27.460938 L 11.128906 14.539062 C 11.128906 14.046875 10.753906 13.671875 10.261719 13.671875 C 10.089844 13.671875 9.914062 13.730469 9.769531 13.816406 L 9.308594 13.152344 L 10.492188 12.429688 L 16.214844 12.429688 L 16.214844 27.460938 Z M 23.066406 27.460938 L 17.980469 27.460938 L 17.980469 12.429688 L 23.097656 12.429688 L 23.097656 27.460938 Z M 23.066406 27.460938 "/>
</g>
</svg>
