<svg width="24" height="24" viewBox="0 0 24 24" fill="none" xmlns="http://www.w3.org/2000/svg">
<path d="M2.40501 20.905C2.55251 20.905 2.68251 20.85 2.79251 20.7375L3.53251 19.9975C3.75501 19.7775 3.75501 19.425 3.53251 19.2225C3.31251 19 2.96001 19 2.75751 19.2225L2.01751 19.9625C1.79501 20.1825 1.79501 20.535 2.01751 20.7375C2.12751 20.85 2.25751 20.905 2.40501 20.905Z" fill="black"/>
<path d="M20.72 13.505C21.035 13.505 21.275 13.265 21.275 12.95V9.24999C21.275 8.93499 21.035 8.69499 20.72 8.69499H17.02C16.705 8.69499 16.465 8.93499 16.465 9.24999C16.465 9.56499 16.705 9.80499 17.02 9.80499H19.3875L13.8925 15.465C13.6725 15.6875 13.32 15.6875 13.1175 15.465L10.99 13.3375C10.3425 12.69 9.28751 12.69 8.64001 13.3375L4.79251 17.1875C4.57001 17.4075 4.57001 17.76 4.79251 17.9625C4.90251 18.075 5.05001 18.13 5.18001 18.13C5.31001 18.13 5.45751 18.075 5.56751 17.9625L9.41751 14.115C9.63751 13.8925 9.99001 13.8925 10.1925 14.115L12.32 16.2425C12.9675 16.89 14.0225 16.89 14.67 16.2425L20.165 10.5825V12.95C20.165 13.265 20.405 13.505 20.72 13.505Z" fill="black"/>
<path d="M20.165 16.835C20.165 16.52 19.925 16.28 19.61 16.28C19.295 16.28 19.055 16.52 19.055 16.835V20.165C19.055 20.8875 18.4825 21.46 17.76 21.46H5.92001C5.60501 21.46 5.36501 21.7 5.36501 22.015C5.36501 22.33 5.60501 22.57 5.92001 22.57H17.76C19.0925 22.57 20.165 21.4975 20.165 20.165V16.835Z" fill="black"/>
<path d="M3.51501 3.51499V11.84C3.51501 12.155 3.75501 12.395 4.07001 12.395C4.38501 12.395 4.62501 12.155 4.62501 11.84V3.51499C4.62501 2.79249 5.19751 2.21999 5.92001 2.21999H15.355V3.51499C15.355 4.84749 16.4275 5.91999 17.76 5.91999H19.61C19.925 5.91999 20.165 5.67999 20.165 5.36498C20.165 3.01499 18.26 1.10999 15.91 1.10999H5.92001C4.58751 1.10999 3.51501 2.18249 3.51501 3.51499ZM19 4.80999H17.76C17.0375 4.80999 16.465 4.23749 16.465 3.51499V2.27499C17.76 2.49749 18.7775 3.51499 19 4.80999Z" fill="black"/>
</svg>
