<svg width="24" height="24" viewBox="0 0 24 24" fill="none" xmlns="http://www.w3.org/2000/svg">
<g clip-path="url(#clip0_13117_342)">
<path d="M1.7575 1.29506C1.98 1.29506 2.165 1.44256 2.2025 1.66506L5.5675 18.5376C5.7175 19.2776 6.365 19.7951 7.105 19.7951H7.325C8.0475 19.7951 8.6775 19.3151 8.8425 18.6101L11.23 9.04756C11.285 8.84256 11.47 8.69506 11.6725 8.69506H11.9325C12.135 8.69506 12.32 8.84256 12.3775 9.04756L13.875 14.9101C14.0425 15.6151 14.67 16.0951 15.3925 16.0951H15.65C16.3725 16.0951 17.0025 15.6151 17.1675 14.9101L19.3875 6.05006C19.4625 5.75256 19.2775 5.45756 18.98 5.38256C18.685 5.31006 18.39 5.49506 18.315 5.79006L16.095 14.6526C16.04 14.8551 15.855 15.0026 15.65 15.0026H15.3925C15.1875 15.0026 15.0025 14.8551 14.9475 14.6526L13.505 8.77006C13.32 8.06506 12.69 7.58506 11.97 7.58506H11.71C10.99 7.58506 10.36 8.06506 10.1925 8.77006L7.7875 18.3326C7.7325 18.5376 7.5475 18.6851 7.345 18.6851H7.1225C6.9 18.6851 6.715 18.5376 6.6775 18.3151L3.2925 1.44256C3.145 0.722559 2.4975 0.185059 1.7575 0.185059C0.887498 0.185059 0.184998 0.887559 0.184998 1.75756V21.0901C0.184998 22.4226 1.2575 23.4951 2.59 23.4951H18.315C18.63 23.4951 18.87 23.2551 18.87 22.9401C18.87 22.6251 18.63 22.3851 18.315 22.3851H2.59C1.8675 22.3851 1.295 21.8126 1.295 21.0901V1.75756C1.295 1.49756 1.4975 1.29506 1.7575 1.29506Z" fill="black"/>
<path d="M22.015 23.4951H22.94C23.255 23.4951 23.495 23.2551 23.495 22.9401C23.495 22.6251 23.255 22.3851 22.94 22.3851H22.015C21.7 22.3851 21.46 22.6251 21.46 22.9401C21.46 23.2551 21.7 23.4951 22.015 23.4951Z" fill="black"/>
</g>
<defs>
<clipPath id="clip0_13117_342">
<rect width="24" height="24" fill="black"/>
</clipPath>
</defs>
</svg>
