<svg width="24" height="24" viewBox="0 0 24 24" fill="none" xmlns="http://www.w3.org/2000/svg">
<path d="M2.31421 18.5C2.31421 18.0755 2.63973 17.75 3.06421 17.75H20.9358C21.3602 17.75 21.6858 18.0755 21.6858 18.5C21.6858 18.9245 21.3602 19.25 20.9358 19.25H3.06421C2.63973 19.25 2.31421 18.9245 2.31421 18.5Z" fill="black"/>
<path d="M2.31421 5.5C2.31421 5.07552 2.63973 4.75 3.06421 4.75H20.9358C21.3602 4.75 21.6858 5.07552 21.6858 5.5C21.6858 5.92448 21.3602 6.25 20.9358 6.25H3.06421C2.63973 6.25 2.31421 5.92448 2.31421 5.5Z" fill="black"/>
<path d="M2.31421 12C2.31421 11.5755 2.63973 11.25 3.06421 11.25H20.9358C21.3602 11.25 21.6858 11.5755 21.6858 12C21.6858 12.4245 21.3602 12.75 20.9358 12.75H3.06421C2.63973 12.75 2.31421 12.4245 2.31421 12Z" fill="black"/>
</svg>
