<svg width="24" height="24" viewBox="0 0 24 24" fill="none" xmlns="http://www.w3.org/2000/svg">
<path fill-rule="evenodd" clip-rule="evenodd" d="M9.21249 1.0529C9.25101 0.892992 9.19922 0.72481 9.07742 0.614274C8.95563 0.503738 8.78322 0.46846 8.62779 0.522267L8.77501 0.947506C8.62779 0.522267 8.62707 0.522518 8.62685 0.522597L8.62565 0.523014L8.62254 0.524113L8.61343 0.527391C8.60609 0.530061 8.59626 0.533708 8.58407 0.538377C8.55968 0.547713 8.52583 0.561146 8.48365 0.57903C8.39933 0.614779 8.28145 0.668425 8.13915 0.742831C7.85491 0.891457 7.47091 1.12412 7.06172 1.46427C6.24085 2.14664 5.31936 3.26205 4.90498 4.98478L4.23762 7.74673C4.17932 7.98776 4.32702 8.23054 4.56788 8.28957C4.57663 8.29171 4.58204 8.29624 4.58547 8.30183C4.5858 8.30237 4.5861 8.3029 4.58637 8.30343C4.58754 8.3057 4.58819 8.30781 4.58848 8.30959C4.58878 8.31144 4.58891 8.31396 4.58794 8.31788L4.58762 8.31923L4.36511 9.23922L4.36447 9.24194C4.36355 9.24586 4.36232 9.24795 4.36133 9.2493C4.36014 9.25092 4.35831 9.25273 4.3557 9.25433C4.35067 9.2574 4.34426 9.25901 4.33558 9.25697C4.09444 9.20023 3.8528 9.34905 3.79495 9.58992L3.35245 11.4324C3.29443 11.674 3.4432 11.9169 3.68478 11.975L6.90728 12.75C7.02332 12.7779 7.1457 12.7586 7.24748 12.6963C7.34927 12.634 7.42213 12.5338 7.45003 12.4177L7.89253 10.5777C7.95047 10.3368 7.80277 10.0944 7.56213 10.0354C7.54852 10.0321 7.53961 10.0189 7.54305 10.0031L7.76491 9.08579L7.76555 9.08307C7.76611 9.08066 7.76683 9.07904 7.76759 9.07779C7.76746 9.07798 7.76771 9.07758 7.76759 9.07779C7.76771 9.0776 7.76823 9.07682 7.76836 9.07664C7.76961 9.07494 7.77168 9.07287 7.77474 9.071C7.78095 9.06721 7.7875 9.06647 7.79347 9.06782L8.7145 9.28996L8.71727 9.29062L18.8659 11.789C18.9222 11.8031 18.9795 11.8117 19.0301 11.8159C19.0375 11.8165 19.0449 11.817 19.0523 11.8172C19.4816 11.8317 19.879 11.5469 19.9827 11.1094L19.983 11.1083L20.3147 9.72926C20.3368 9.63951 20.34 9.55917 20.34 9.50248L20.34 9.49712C20.3351 9.08607 20.0527 8.71425 19.6328 8.61496L9.4827 6.11305L9.47648 6.11157L9.01887 6.00025L9.01725 5.99987C8.49829 5.87566 8.1778 5.35216 8.30265 4.82975L9.21249 1.0529ZM9.70648 7.09515L9.36241 8.52257L19.0841 10.9159L19.0872 10.9166L19.0899 10.9171C19.0937 10.9162 19.0972 10.9146 19.1 10.9125L19.1017 10.9111L19.1033 10.9094L19.1045 10.9078C19.1053 10.9066 19.1063 10.9048 19.107 10.9016L19.1075 10.8998L19.4396 9.51884C19.4397 9.51667 19.4399 9.51289 19.44 9.50684C19.4397 9.50412 19.4386 9.50054 19.4358 9.49708C19.4345 9.49532 19.433 9.49406 19.4316 9.49318C19.4304 9.49241 19.4286 9.49149 19.4256 9.49078L19.4198 9.48944L9.70648 7.09515ZM8.83231 6.88112L8.80776 6.87515C7.80238 6.63399 7.1875 5.62243 7.42737 4.62026L8.10483 1.80803C7.95836 1.90528 7.8002 2.02074 7.63705 2.15637C6.93545 2.73959 6.14069 3.69561 5.78003 5.19523L5.1907 7.63442C5.42851 7.85367 5.54531 8.19129 5.46226 8.53135L5.24055 9.44807L5.24017 9.44965C5.15961 9.78944 4.90301 10.0364 4.59238 10.1236L4.33262 11.2052L6.6802 11.7698L6.9397 10.6907C6.70209 10.471 6.58784 10.1332 6.66697 9.79694L6.66761 9.79422L6.88947 8.87694L6.88986 8.87531C7.0086 8.37465 7.51176 8.07582 8.00154 8.1922L8.00302 8.19255L8.488 8.30953L8.83231 6.88112Z" fill="black"/>
<path fill-rule="evenodd" clip-rule="evenodd" d="M5.23251 14.2075C5.23251 13.959 5.43398 13.7575 5.68251 13.7575H20.8375C21.086 13.7575 21.2875 13.959 21.2875 14.2075C21.2875 16.811 19.1785 18.92 16.575 18.92H14.7106C14.9131 19.7619 15.671 20.3875 16.575 20.3875C17.3493 20.3875 17.9725 21.0148 17.9725 21.785V22.7325C17.9725 22.981 17.771 23.1825 17.5225 23.1825H15.63C15.5117 23.1825 15.3982 23.1359 15.314 23.0529L15.3111 23.0502C15.3074 23.0466 15.3001 23.0399 15.2893 23.0305C15.2676 23.0115 15.232 22.9817 15.1824 22.9445C15.083 22.87 14.9282 22.7663 14.7181 22.6612C14.2994 22.4519 13.6573 22.235 12.7875 22.235C11.9178 22.235 11.2756 22.4519 10.8569 22.6613C10.6468 22.7663 10.492 22.87 10.3927 22.9445C10.343 22.9817 10.3074 23.0115 10.2858 23.0305L10.2746 23.0404L10.2639 23.0502L10.261 23.0529C10.1769 23.1359 10.0633 23.1825 9.94501 23.1825H8.05001C7.80149 23.1825 7.60001 22.981 7.60001 22.7325V21.785C7.60001 21.014 8.22649 20.3875 8.99751 20.3875C9.90197 20.3875 10.6613 19.7615 10.8643 18.92H5.68251C5.43398 18.92 5.23251 18.7185 5.23251 18.47V17.9725H5.21002C3.65399 17.9725 2.39252 16.711 2.39252 15.155C2.39252 14.9065 2.59399 14.705 2.84252 14.705H5.23251V14.2075ZM11.7817 18.92C11.5658 20.2626 10.3999 21.2875 8.99751 21.2875C8.72354 21.2875 8.50001 21.511 8.50001 21.785V22.2825H9.77769C9.80019 22.2645 9.82518 22.2451 9.85267 22.2245C9.99022 22.1213 10.1907 21.9881 10.4544 21.8563C10.9832 21.5919 11.7623 21.335 12.7875 21.335C13.8128 21.335 14.5919 21.5919 15.1206 21.8563C15.3843 21.9881 15.5848 22.1213 15.7224 22.2245C15.7498 22.2451 15.7748 22.2645 15.7973 22.2825H17.0725V21.785C17.0725 21.5103 16.8507 21.2875 16.575 21.2875C15.1721 21.2875 14.0087 20.2621 13.7933 18.92H11.7817ZM6.13252 17.5225L6.13251 17.5258V18.02H16.575C18.5292 18.02 20.1388 16.5517 20.3613 14.6575H6.13251V15.1518L6.13252 15.155L6.13251 15.1583V17.5193L6.13252 17.5225ZM3.34562 15.605C3.5481 16.4469 4.30603 17.0725 5.21002 17.0725H5.23251V15.605H3.34562ZM15.6255 22.737L15.3111 23.0502C15.3111 23.0501 15.3117 23.0506 15.3512 23.0112L15.6255 22.737Z" fill="black"/>
</svg>
