<svg width="24" height="24" viewBox="0 0 24 24" fill="none" xmlns="http://www.w3.org/2000/svg">
<path d="M15.6038 10.5938C15.3479 10.5977 15.1174 10.5059 14.9338 10.334L12.9182 8.39847C12.6956 8.18167 12.3401 8.18948 12.1233 8.41409C11.9084 8.64065 11.9163 8.99417 12.1409 9.21097L14.1565 11.1446C14.5432 11.5157 15.0491 11.7188 15.5842 11.7188H15.6272C16.178 11.7071 16.6916 11.4825 17.0725 11.086C17.8596 10.2637 17.8342 8.95706 17.012 8.16995L14.7327 5.97854C13.1975 4.50589 10.7249 4.53128 9.22095 6.03518L7.57056 7.68753H0.750244C0.439697 7.68753 0.187744 7.93948 0.187744 8.25003C0.187744 8.56058 0.439697 8.81253 0.750244 8.81253H7.80493C7.95337 8.81253 8.09595 8.75198 8.20142 8.64847L10.0159 6.83206C11.0901 5.75784 12.8577 5.74026 13.9534 6.793L16.2346 8.9805C16.6077 9.33987 16.6174 9.93362 16.26 10.3067C16.0881 10.4864 15.8538 10.5899 15.6038 10.5938Z" fill="black"/>
<path d="M18.6858 8.25003C18.6858 7.93948 18.9377 7.68753 19.2483 7.68753H23.2502C23.5608 7.68753 23.8127 7.93948 23.8127 8.25003C23.8127 8.56058 23.5608 8.81253 23.2502 8.81253H19.2483C18.9377 8.81253 18.6858 8.56058 18.6858 8.25003Z" fill="black"/>
<path d="M21.1174 15.3516C21.2229 15.2481 21.3674 15.1875 21.5178 15.1875H23.2502C23.5608 15.1875 23.8127 15.4414 23.8127 15.752C23.8127 16.0625 23.5608 16.3145 23.2502 16.3145H21.7463C20.8595 17.203 16.6182 21.443 15.5196 22.5413L15.262 22.7989C14.8616 23.1992 14.3323 23.4004 13.8049 23.4004C13.2795 23.4004 12.7502 23.1992 12.3499 22.7989C12.0784 22.5274 11.8987 22.2012 11.8108 21.8575C11.5295 21.9981 11.2151 22.0723 10.8909 22.0723C10.3362 22.0723 9.81665 21.8575 9.42407 21.4649C9.11938 21.1621 8.93188 20.7852 8.85962 20.3907C8.6604 20.4532 8.45337 20.4844 8.23853 20.4844C7.68774 20.4844 7.17017 20.2715 6.77954 19.8809C6.39087 19.4903 6.17602 18.9727 6.17602 18.4219C6.17602 18.2071 6.20923 17.9961 6.27173 17.7969C5.86352 17.7227 5.48852 17.5254 5.18579 17.2246C4.79907 16.834 4.58423 16.3184 4.58423 15.7696C4.58423 15.2188 4.79907 14.7012 5.18579 14.3145L7.8772 11.625C8.09595 11.4063 8.45337 11.4063 8.67212 11.625C8.89087 11.8438 8.89087 12.2012 8.67212 12.42L5.97681 15.1153C5.80102 15.291 5.70337 15.5235 5.70337 15.7735C5.70337 16.0196 5.80102 16.2539 5.97681 16.4297C6.15845 16.6094 6.39477 16.709 6.64477 16.709H6.64673C6.89868 16.709 7.13306 16.6114 7.30884 16.4336L8.67993 15.0645C8.89868 14.8438 9.2561 14.8438 9.47485 15.0645C9.6936 15.2832 9.6936 15.6387 9.47485 15.8594L7.97095 17.3633L7.57251 17.7598C7.20727 18.125 7.20727 18.7207 7.57251 19.086C7.7522 19.2617 7.98852 19.3594 8.23657 19.3594C8.48852 19.3594 8.72485 19.2617 8.90063 19.086L10.5374 17.4492C10.7581 17.2285 11.1135 17.2285 11.3323 17.4492C11.553 17.668 11.553 18.0235 11.3323 18.2442L10.2268 19.3496C9.85767 19.7188 9.85767 20.3067 10.219 20.668C10.3987 20.8457 10.637 20.9453 10.8909 20.9453C11.1428 20.9453 11.3811 20.8477 11.5608 20.668L13.1916 19.0391C13.4104 18.8203 13.7659 18.8203 13.9866 19.0391C14.2053 19.2578 14.2053 19.6153 13.9866 19.834L13.9846 19.836L13.1467 20.6758C12.7795 21.041 12.7795 21.6328 13.1467 22C13.51 22.3653 14.1038 22.3653 14.469 22C14.6233 21.8477 21.1174 15.3516 21.1174 15.3516Z" fill="black"/>
<path d="M3.17993 15.75C3.17993 16.0606 2.92993 16.3125 2.61743 16.3125H0.742432C0.431885 16.3125 0.179932 16.0606 0.179932 15.75C0.179932 15.4395 0.431885 15.1875 0.742432 15.1875H2.61743C2.92993 15.1875 3.17993 15.4395 3.17993 15.75Z" fill="black"/>
</svg>
