<svg width="24" height="24" viewBox="0 0 24 24" fill="none" xmlns="http://www.w3.org/2000/svg">
<path d="M7.21501 4.25506V13.8001L4.25501 11.2851C3.57001 10.7126 2.55251 10.6751 1.85001 11.2301C1.03501 11.8576 0.87001 13.0051 1.46251 13.8376L8.06501 23.2551C8.17751 23.4026 8.34251 23.4951 8.52751 23.4951C8.64001 23.4951 8.75001 23.4576 8.84251 23.4026C9.10251 23.2176 9.15751 22.8851 8.97251 22.6251L2.36751 13.2101C2.12751 12.8576 2.20251 12.3776 2.53501 12.1176C2.83001 11.8951 3.25501 11.8951 3.55251 12.1351L9.26751 16.9826C9.51001 17.1876 9.86001 17.1501 10.045 16.9276C10.25 16.6876 10.2125 16.3351 9.99001 16.1501L8.32501 14.7451V4.25506C8.32501 3.75506 8.73251 3.33006 9.25001 3.33006C9.76751 3.33006 10.175 3.73756 10.175 4.25506V11.4701C10.175 11.7851 10.415 12.0251 10.73 12.0251C11.045 12.0251 11.285 11.7851 11.285 11.4701V2.22006C11.285 1.70256 11.6925 1.29506 12.21 1.29506C12.7275 1.29506 13.135 1.70256 13.135 2.22006V12.2101C13.135 12.5251 13.375 12.7651 13.69 12.7651C14.005 12.7651 14.245 12.5251 14.245 12.2101V4.25506C14.245 3.73756 14.6525 3.33006 15.1525 3.33006C15.67 3.33006 16.095 3.75506 16.095 4.27256V13.3201C16.095 13.6351 16.335 13.8751 16.65 13.8751C16.965 13.8751 17.205 13.6351 17.205 13.3201V7.75256C17.205 7.25256 17.6125 6.84506 18.1125 6.84506H18.1475C18.39 6.84506 18.61 6.93756 18.795 7.10506C18.9625 7.27006 19.055 7.51006 19.055 7.75256V15.5401C19.055 19.3501 17.2975 22.6451 17.28 22.6801C17.13 22.9576 17.2225 23.2926 17.5 23.4401C17.5925 23.4776 17.685 23.5126 17.76 23.5126C17.9625 23.5126 18.1475 23.4026 18.24 23.2176C18.315 23.0701 20.165 19.6651 20.165 15.5576V7.75256C20.165 7.21506 19.9625 6.71506 19.5725 6.32756C19.185 5.93756 18.685 5.73506 18.1475 5.73506H18.1125C17.7975 5.73506 17.4825 5.81006 17.205 5.95756V4.27256C17.205 3.14506 16.28 2.22006 15.1525 2.22006C14.8175 2.22006 14.505 2.29506 14.245 2.44256V2.22006C14.245 1.09256 13.3375 0.185059 12.21 0.185059C11.0825 0.185059 10.175 1.09256 10.175 2.22006V2.44256C9.89751 2.29506 9.58251 2.22006 9.25001 2.22006C8.12251 2.22006 7.21501 3.12756 7.21501 4.25506Z" fill="black"/>
</svg>
