<?xml version="1.0" encoding="UTF-8"?>
<svg xmlns="http://www.w3.org/2000/svg" xmlns:xlink="http://www.w3.org/1999/xlink" width="37.5pt" height="37.5pt" viewBox="0 0 37.5 37.5" version="1.1">
<g id="surface4656">
<path style=" stroke:none;fill-rule:nonzero;fill:rgb(0%,0%,0%);fill-opacity:1;" d="M 12 0.992188 C 11.648438 0.996094 11.300781 1.113281 11.011719 1.328125 L 0.636719 9.132812 C 0.40625 9.308594 0.289062 9.566406 0.289062 9.828125 L 0.289062 18.789062 C 0.289062 19.28125 0.664062 19.65625 1.15625 19.65625 L 6.070312 19.65625 L 6.070312 27.171875 C 6.070312 27.664062 6.445312 28.039062 6.9375 28.039062 C 7.429688 28.039062 7.804688 27.664062 7.804688 27.171875 L 7.804688 18.789062 C 7.804688 18.296875 7.429688 17.921875 6.9375 17.921875 L 2.023438 17.921875 L 2.023438 10.261719 L 12.023438 2.71875 C 12.777344 5.722656 15.40625 7.804688 18.5 7.804688 C 21.59375 7.804688 24.222656 5.722656 24.945312 2.746094 L 34.976562 10.261719 L 34.976562 17.921875 L 30.0625 17.921875 C 29.570312 17.921875 29.195312 18.296875 29.195312 18.789062 L 29.195312 35.84375 C 29.195312 36.335938 29.570312 36.710938 30.0625 36.710938 C 30.554688 36.710938 30.929688 36.335938 30.929688 35.84375 L 30.929688 19.65625 L 35.84375 19.65625 C 36.335938 19.65625 36.710938 19.28125 36.710938 18.789062 L 36.710938 9.828125 C 36.710938 9.566406 36.59375 9.308594 36.363281 9.132812 L 25.988281 1.359375 C 25.523438 1.011719 24.917969 0.925781 24.367188 1.128906 C 23.820312 1.300781 23.414062 1.761719 23.269531 2.3125 C 22.71875 4.507812 20.785156 6.070312 18.5 6.070312 C 16.214844 6.070312 14.25 4.539062 13.730469 2.3125 C 13.585938 1.761719 13.179688 1.300781 12.632812 1.097656 C 12.425781 1.023438 12.210938 0.988281 12 0.992188 Z M 14.164062 17.632812 C 12.574219 17.632812 11.273438 18.933594 11.273438 20.523438 C 11.273438 22.113281 12.574219 23.414062 14.164062 23.414062 C 15.753906 23.414062 17.054688 22.113281 17.054688 20.523438 C 17.054688 18.933594 15.753906 17.632812 14.164062 17.632812 Z M 14.164062 19.367188 C 14.800781 19.367188 15.320312 19.886719 15.320312 20.523438 C 15.320312 21.160156 14.800781 21.679688 14.164062 21.679688 C 13.527344 21.679688 13.007812 21.160156 13.007812 20.523438 C 13.007812 19.886719 13.527344 19.367188 14.164062 19.367188 Z M 20.8125 20.8125 C 20.320312 20.8125 19.945312 21.1875 19.945312 21.679688 C 19.945312 22.171875 20.320312 22.546875 20.8125 22.546875 L 24.195312 22.546875 C 24.6875 22.546875 25.0625 22.171875 25.0625 21.679688 C 25.0625 21.1875 24.6875 20.8125 24.195312 20.8125 Z M 13.671875 25.148438 C 13.152344 25.148438 12.660156 25.378906 12.3125 25.753906 C 11.996094 26.132812 11.851562 26.652344 11.9375 27.144531 C 12.488281 30.351562 15.261719 32.664062 18.5 32.664062 C 21.738281 32.664062 24.511719 30.351562 25.0625 27.144531 C 25.148438 26.652344 25.003906 26.132812 24.6875 25.753906 C 24.339844 25.351562 23.875 25.148438 23.355469 25.148438 Z M 13.671875 26.882812 L 23.355469 26.882812 C 22.921875 29.222656 20.898438 30.929688 18.5 30.929688 C 16.101562 30.929688 14.078125 29.222656 13.671875 26.882812 Z M 6.9375 32.085938 C 6.445312 32.085938 6.070312 32.460938 6.070312 32.953125 L 6.070312 35.84375 C 6.070312 36.335938 6.445312 36.710938 6.9375 36.710938 C 7.429688 36.710938 7.804688 36.335938 7.804688 35.84375 L 7.804688 32.953125 C 7.804688 32.460938 7.429688 32.085938 6.9375 32.085938 Z M 6.9375 32.085938 "/>
</g>
</svg>
