<svg width="24" height="24" viewBox="0 0 24 24" fill="none" xmlns="http://www.w3.org/2000/svg">
<g clip-path="url(#clip0_13117_344)">
<path d="M14.245 23.495C13.93 23.495 13.69 23.255 13.69 22.94V22.2C13.69 20.8675 14.7625 19.795 16.095 19.795H17.575C18.0925 19.795 18.5 19.3875 18.5 18.87V16.1875C18.5 15.7425 18.6675 15.3375 18.9625 15.0225L19.48 14.505C19.6275 14.355 19.665 14.1525 19.61 13.95C19.61 13.93 19.5925 13.9125 19.5925 13.8925L18.4075 8.21502C17.87 5.58752 16.15 3.34752 13.8375 2.20252C12.4875 1.53502 10.99 1.22002 9.47249 1.31252C5.10498 1.55502 1.51749 5.18002 1.31248 9.54502C1.14749 12.6175 2.58998 15.485 5.12498 17.205C5.38248 17.3725 5.43999 17.7225 5.27249 17.9825C5.10499 18.24 4.75499 18.2975 4.49499 18.13C1.62749 16.1875 0.0174851 12.95 0.202485 9.49002C0.314985 7.08502 1.33248 4.81002 3.05248 3.09002C4.75499 1.37002 7.01248 0.332517 9.41749 0.202517C11.1175 0.110017 12.82 0.445017 14.3375 1.20252C16.945 2.49752 18.87 5.03252 19.5 7.99252L20.6825 13.6525C20.85 14.2275 20.7025 14.855 20.275 15.28L19.7575 15.8C19.665 15.91 19.61 16.04 19.61 16.1875V18.87C19.61 19.9975 18.7025 20.905 17.575 20.905H16.095C15.3725 20.905 14.8 21.4775 14.8 22.2V22.94C14.8 23.255 14.56 23.495 14.245 23.495Z" fill="black"/>
<path d="M23.4575 13.635L22.275 7.97252C22.1075 7.21502 21.96 6.55002 21.755 5.92002C21.6825 5.69752 21.46 5.53252 21.22 5.53252C20.85 5.53252 20.5725 5.90252 20.6825 6.25252C20.8675 6.82752 21.015 7.45502 21.1825 8.19502L22.3675 13.875C22.3675 13.8925 22.385 13.9125 22.385 13.93C22.44 14.115 22.385 14.3375 22.255 14.4675L21.7375 14.985C21.4425 15.3 21.275 15.7075 21.275 16.15V19.185C21.275 19.4625 21.46 19.7025 21.72 19.7575C22.07 19.8325 22.385 19.555 22.385 19.2225V16.1875C22.385 16.04 22.44 15.91 22.5325 15.8L23.05 15.28C23.4775 14.8375 23.625 14.2275 23.4575 13.635Z" fill="black"/>
<path d="M18.315 1.25752C18.0375 1.05502 17.65 1.12752 17.4825 1.44252C17.3525 1.68252 17.445 1.98002 17.65 2.14502C18.2225 2.60752 18.7025 3.03502 19.0925 3.47752C19.2025 3.59002 19.35 3.66252 19.5 3.66252H19.535C19.9975 3.66252 20.2575 3.10752 19.9425 2.75752C19.5175 2.25752 18.98 1.77502 18.315 1.25752Z" fill="black"/>
</g>
<defs>
<clipPath id="clip0_13117_344">
<rect width="24" height="24" fill="black"/>
</clipPath>
</defs>
</svg>
