<svg width="24" height="24" viewBox="0 0 24 24" fill="none" xmlns="http://www.w3.org/2000/svg">
<path d="M16.3125 23.8125C15.9941 23.8125 15.75 23.5684 15.75 23.25V22.5C15.75 21.1504 16.8379 20.0625 18.1875 20.0625H19.6875C20.2129 20.0625 20.625 19.6504 20.625 19.125V16.4063C20.625 15.957 20.793 15.543 21.0938 15.2246L21.6191 14.6992C21.7695 14.5508 21.8066 14.3438 21.75 14.1367C21.75 14.1192 21.7305 14.0996 21.7305 14.082L20.5313 8.32423C19.9883 5.66213 18.2441 3.39455 15.9004 2.23049C14.5313 1.55666 13.0117 1.2383 11.4746 1.33205C7.05078 1.57424 3.41211 5.25002 3.20703 9.6758C3.03711 12.7871 4.5 15.6934 7.06836 17.4375C7.33204 17.6055 7.38672 17.9629 7.21875 18.2246C7.05078 18.4883 6.69336 18.543 6.43164 18.375C3.52539 16.4063 1.89453 13.125 2.08203 9.61916C2.19336 7.18166 3.22461 4.87502 4.96875 3.13088C6.69336 1.38674 8.98047 0.337907 11.418 0.207047C13.1445 0.113297 14.8691 0.449235 16.4063 1.21877C19.0508 2.53127 21 5.09963 21.6367 8.09963L22.8379 13.8379C23.0059 14.418 22.8555 15.0567 22.4258 15.4883L21.9004 16.0117C21.8066 16.125 21.75 16.2559 21.75 16.4063V19.125C21.75 20.2695 20.832 21.1875 19.6875 21.1875H18.1875C17.457 21.1875 16.875 21.7695 16.875 22.5V23.25C16.875 23.5684 16.6309 23.8125 16.3125 23.8125Z" fill="black"/>
<path d="M17.7188 5.58791C17.3438 5.28713 16.8184 5.25002 16.3867 5.47463C16.4629 5.15627 16.4258 4.83791 16.293 4.51955C15.9746 3.84377 15.1875 3.4883 14.4746 3.71291C14.2695 3.78713 14.082 3.88088 13.9316 4.03127C13.9316 4.01174 13.9121 3.99416 13.9121 3.97463C13.5371 3.15041 12.5625 2.77541 11.7383 3.15041C11.418 3.3008 11.1563 3.52541 10.9883 3.80666C10.3691 3.39455 9.54297 3.3008 8.83204 3.61916C8.09961 3.93752 7.63086 4.6133 7.53711 5.34377C7.16211 5.30666 6.76954 5.3633 6.41211 5.53127C5.28711 6.03713 4.78125 7.36916 5.28711 8.51174C5.30664 8.5508 5.32422 8.58791 5.34375 8.62502C4.66797 9.26174 4.44336 10.2754 4.83789 11.1758C5.34375 12.3008 6.67579 12.8067 7.81836 12.3008C8.19336 12.1309 9.30079 11.6446 10.6309 11.043C10.7813 10.9688 10.9492 11.1192 10.8945 11.2696C10.668 11.8496 10.5566 12.4883 10.5566 13.1446V19.1055C10.5566 19.3867 10.7441 19.6309 11.0059 19.6875C11.3633 19.7617 11.6816 19.4805 11.6816 19.1446V13.1446C11.6816 13.0684 11.6816 12.9942 11.6816 12.918C11.7559 11.418 12.7305 10.0879 14.1191 9.46877C15.8242 8.69924 17.2695 8.04299 17.5508 7.93166C18.375 7.53713 18.6191 6.31838 17.7188 5.58791Z" fill="black"/>
<path d="M11.625 22.125V23.2305C11.625 23.5117 11.4375 23.7559 11.1758 23.8125C10.8184 23.8867 10.5 23.6055 10.5 23.2695V22.1445C10.5 21.8242 10.7441 21.582 11.0625 21.582C11.3809 21.5625 11.625 21.8067 11.625 22.125Z" fill="black"/>
</svg>
