<svg width="24" height="24" viewBox="0 0 24 24" fill="none" xmlns="http://www.w3.org/2000/svg">
<path d="M15.8261 23.8103C15.5082 23.8103 15.264 23.5661 15.264 23.2482V22.4981C15.264 21.1485 16.3518 20.0607 17.7014 20.0607H19.2017C19.7274 20.0607 20.1388 19.6482 20.1388 19.1235V16.4046C20.1388 15.9557 20.3072 15.5412 20.6074 15.2233L21.1331 14.6976C21.2838 14.549 21.3201 14.3422 21.264 14.1355C21.264 14.1178 21.2443 14.0981 21.2443 14.0804L20.0453 8.3225C19.502 5.66068 17.7586 3.39263 15.4147 2.22899C14.0453 1.55471 12.5264 1.23678 10.9887 1.33029C6.56482 1.57237 2.92638 5.24821 2.72066 9.67419C2.55027 12.7859 4.01313 15.6918 6.58248 17.4363C6.84638 17.6046 6.9004 17.962 6.73313 18.2238C6.56482 18.4877 6.20742 18.5417 5.9456 18.3744C3.03962 16.4056 1.40845 13.1246 1.59651 9.61912C1.70768 7.18172 2.73936 4.87523 4.48274 3.13081C6.20638 1.38432 8.49417 0.336004 10.9316 0.205095C12.6583 0.111589 14.383 0.447173 15.9196 1.21704C18.5638 2.52925 20.5139 5.09756 21.1498 8.09808L22.3508 13.8363C22.5191 14.416 22.3685 15.055 21.9383 15.4861L21.4126 16.0098C21.3191 16.123 21.262 16.2539 21.262 16.4046V19.1235C21.262 20.2685 20.3435 21.1859 19.1996 21.1859H17.6994C16.969 21.1859 16.3872 21.7677 16.3872 22.4981V23.2482C16.3872 23.5672 16.143 23.8103 15.8251 23.8103H15.8261Z" fill="black" style="fill:black;fill-opacity:1;"/>
<path d="M6.37053 12.6061C5.32741 12.6061 4.33209 12.0108 3.88222 11.0103C3.46663 10.0628 3.61728 8.97601 4.24378 8.19679C3.77313 6.87004 4.38923 5.37809 5.68378 4.79523C5.96326 4.66328 6.27183 4.58432 6.58975 4.5625C6.81728 3.83419 7.35443 3.22432 8.06508 2.91575C8.75391 2.60718 9.55806 2.61341 10.2521 2.91575C10.4349 2.73289 10.6552 2.57913 10.9056 2.46173C11.8105 2.0503 12.8516 2.32874 13.4459 3.0716C13.5144 3.04043 13.5788 3.01549 13.636 2.99575C13.6422 2.99367 13.6495 2.99056 13.6568 2.98848C14.6001 2.69237 15.6318 3.14744 16.0568 4.04926C16.0599 4.05653 16.063 4.06276 16.0661 4.07004C16.1336 4.23108 16.1804 4.39212 16.2085 4.55315C16.6033 4.53965 16.9981 4.66432 17.3149 4.91783C17.8635 5.3625 18.1326 5.99419 18.0547 6.65289C17.9809 7.27939 17.6059 7.81134 17.051 8.07627C17.0407 8.08147 17.0292 8.08562 17.0188 8.09082C16.8017 8.17705 15.744 8.65497 14.5181 9.2077L10.2459 11.135C9.40326 11.5163 8.66456 11.8446 8.12534 12.0835C7.8365 12.2124 7.61521 12.31 7.48534 12.3693C7.12274 12.5293 6.74456 12.6051 6.37157 12.6051L6.37053 12.6061ZM5.25157 7.97134L5.26611 8.00043C5.2765 8.02121 5.28585 8.04095 5.29624 8.06069C5.40326 8.26328 5.3617 8.51263 5.19443 8.66952C4.67598 9.15783 4.52326 9.93186 4.81521 10.5968C5.19547 11.4404 6.20637 11.8207 7.06871 11.4394C7.1965 11.3812 7.41988 11.2825 7.71183 11.1526C8.25001 10.9137 8.98663 10.5864 9.82715 10.2061L14.0994 8.27887C15.4043 7.68978 16.356 7.25965 16.6251 7.15056C16.8516 7.03627 17.0116 6.80147 17.0427 6.53341C17.0635 6.35471 17.0438 6.01082 16.676 5.71263C16.4723 5.54952 16.1762 5.52666 15.9248 5.65757C15.7472 5.75004 15.5331 5.7303 15.3752 5.60666C15.2183 5.48406 15.1466 5.28043 15.1934 5.08614C15.2401 4.89186 15.2194 4.69134 15.1311 4.47419C14.9243 4.04822 14.4194 3.8238 13.9747 3.95887C13.8157 4.01705 13.7118 4.07627 13.6391 4.149C13.4936 4.29445 13.2734 4.33809 13.0833 4.25913C12.9451 4.20198 12.8422 4.08874 12.7955 3.95263C12.7903 3.94017 12.784 3.92562 12.7788 3.91004C12.5149 3.37601 11.8749 3.14121 11.3357 3.38744C11.1144 3.49134 10.9357 3.6451 10.8256 3.829C10.7539 3.94848 10.6365 4.03367 10.5004 4.06484C10.3643 4.09601 10.2209 4.069 10.1056 3.99211C9.62248 3.67108 8.9991 3.61601 8.47962 3.84874C7.94975 4.07939 7.57884 4.57289 7.50508 5.14121C7.46975 5.41445 7.22248 5.61082 6.94923 5.5838C6.65521 5.55471 6.36534 5.6025 6.11183 5.72198C5.25884 6.10536 4.87754 7.11108 5.25261 7.9703L5.25157 7.97134Z" fill="black" style="fill:black;fill-opacity:1;"/>
</svg>
