<svg width="24" height="24" viewBox="0 0 24 24" fill="none" xmlns="http://www.w3.org/2000/svg">
<g clip-path="url(#clip0_12916_46224)">
<path d="M0.261733 9.37499C0.207045 9.07421 0.394545 8.77538 0.693373 8.69921C13.0313 5.98046 13.1621 3.35546 13.1621 3.24413C13.1621 2.73827 13.1621 1.80077 8.69923 1.29296C8.4004 1.25585 8.17579 0.974596 8.2129 0.675768C8.25001 0.374987 8.51173 0.150377 8.83205 0.187487C12.75 0.636706 14.2871 1.49999 14.2871 3.26171C14.2871 3.73046 14.0254 4.7246 12.2442 5.88671C10.0508 7.31249 6.24415 8.62499 0.917983 9.80663C0.880873 9.82421 0.843764 9.82421 0.806654 9.82421C0.542983 9.82421 0.318373 9.63671 0.261733 9.37499Z" fill="black"/>
<path d="M14.5117 0.619127C14.6055 0.318346 14.9063 0.130846 15.207 0.207018C20.2695 1.49999 23.043 3.76952 23.7383 7.1621C24.2617 9.80663 22.9688 13.1992 14.6817 23.625C14.5684 23.7558 14.4004 23.832 14.2305 23.832C14.0996 23.832 13.9883 23.7754 13.875 23.6992C13.6309 23.5117 13.5938 23.1562 13.7813 22.9121C21.7305 12.918 23.043 9.56249 22.6133 7.36913C22.4063 6.30077 21.75 3.05663 14.9258 1.29296C14.625 1.21874 14.4375 0.917956 14.5117 0.619127Z" fill="black"/>
<path d="M2.83204 17.4004C3.09108 17.296 3.36503 17.1768 3.64168 17.0564L3.7129 17.0254C3.99415 16.8945 4.12501 16.5742 3.99415 16.2754C3.86329 15.9941 3.54298 15.8633 3.24415 15.9941C3.06225 16.0733 2.88749 16.146 2.71988 16.2157C2.61045 16.2612 2.50374 16.3056 2.4004 16.3496C2.11915 16.4629 1.96876 16.8008 2.09962 17.082C2.19337 17.3066 2.4004 17.4375 2.62501 17.4375C2.69923 17.4375 2.7754 17.418 2.83204 17.4004Z" fill="black"/>
<path d="M7.16212 14.0996C7.80079 13.7441 8.43751 13.3867 9.05665 13.0312C9.3379 12.8633 9.67579 12.957 9.82423 13.2383C9.97462 13.5 9.88087 13.8555 9.61915 14.0058C9.00001 14.3808 8.34376 14.7383 7.68751 15.0937C7.61329 15.1504 7.51954 15.168 7.42579 15.168C7.23829 15.168 7.03126 15.0566 6.93751 14.8691C6.78712 14.5879 6.88087 14.25 7.16212 14.0996Z" fill="black"/>
<path d="M15.1309 9.31835C14.9258 9.09374 14.5684 9.07421 14.3438 9.28124C13.8555 9.73046 13.293 10.1816 12.6758 10.6308C12.4317 10.8183 12.375 11.1758 12.5625 11.418C12.6758 11.5683 12.8438 11.6445 13.0117 11.6445C13.125 11.6445 13.2559 11.6055 13.3496 11.5312C13.9883 11.0625 14.5684 10.5742 15.0938 10.1055C15.3184 9.91796 15.3379 9.56249 15.1309 9.31835Z" fill="black"/>
<path d="M18 6.56249C17.9063 6.76952 17.6992 6.88085 17.4942 6.88085C17.4004 6.88085 17.3242 6.86327 17.25 6.80663C16.9688 6.67577 16.8555 6.33788 16.9883 6.05663L17.0061 6.01438C17.1116 5.76503 17.2159 5.51819 17.2695 5.2871C17.3633 4.98827 17.6621 4.81835 17.9629 4.89452C18.2617 4.98827 18.4317 5.2871 18.3555 5.58788C18.2813 5.90624 18.1504 6.2246 18 6.56249Z" fill="black"/>
</g>
<defs>
<clipPath id="clip0_12916_46224">
<rect width="24" height="24" fill="black"/>
</clipPath>
</defs>
</svg>
