<svg width="24" height="24" viewBox="0 0 24 24" fill="none" xmlns="http://www.w3.org/2000/svg">
<path d="M21.09 2.40503H2.59C1.2575 2.40503 0.184998 3.47753 0.184998 4.81003V19.24C0.184998 20.5725 1.2575 21.645 2.59 21.645H21.09C22.4225 21.645 23.495 20.5725 23.495 19.24V16.205C23.495 15.8925 23.255 15.65 22.94 15.65C22.625 15.65 22.385 15.8925 22.385 16.205V19.24C22.385 19.9625 21.8125 20.535 21.09 20.535H7.03C9.14 13.985 14.5975 11.395 22.83 13.0425C22.865 13.0425 22.9025 13.06 22.94 13.06C23.255 13.06 23.495 12.82 23.495 12.505V4.81003C23.495 3.47753 22.4225 2.40503 21.09 2.40503ZM22.385 11.8225C13.8575 10.3225 8.03 13.395 5.8825 20.535H2.59C1.8675 20.535 1.295 19.9625 1.295 19.24V4.81003C1.295 4.08753 1.8675 3.51503 2.59 3.51503H21.09C21.8125 3.51503 22.385 4.08753 22.385 4.81003V11.8225Z" fill="black"/>
<path d="M6.66 5.73503C5.8275 5.73503 5.0325 6.06753 4.44 6.66003C3.22 7.88003 3.22 9.88003 4.44 11.1175C5.0325 11.71 5.8275 12.0425 6.66 12.0425C7.4925 12.0425 8.2875 11.71 8.88 11.1175C10.1 9.89753 10.1 7.90003 8.88 6.66003C8.2875 6.06753 7.4925 5.73503 6.66 5.73503ZM8.1025 10.3225C7.715 10.7125 7.1975 10.915 6.66 10.915C6.1225 10.915 5.605 10.7125 5.2175 10.3225C4.4225 9.52753 4.4225 8.23253 5.2175 7.43753C5.605 7.04753 6.105 6.84503 6.66 6.84503C7.215 6.84503 7.715 7.04753 8.1025 7.43753C8.8975 8.23253 8.8975 9.52753 8.1025 10.3225Z" fill="black"/>
</svg>
