<svg width="24" height="24" viewBox="0 0 24 24" fill="none" xmlns="http://www.w3.org/2000/svg">
<path d="M19.8125 17.815L16.04 14.0226C15.7425 13.7276 15.355 13.5601 14.93 13.5601C14.505 13.5601 14.115 13.7276 13.82 14.0226L9.065 18.795C8.8975 18.9625 8.585 18.9625 8.4175 18.795L6.9375 17.3151C6.6425 17.0201 6.2525 16.8525 5.8275 16.8525C5.4025 16.8525 5.0125 17.0201 4.7175 17.3151L3.8475 18.185C3.4975 18.5375 3.3125 18.98 3.3125 19.4625V21.0725C3.3125 22.4025 4.385 23.4776 5.7175 23.4776H17.9275C19.2575 23.4776 20.3325 22.4025 20.3325 21.0725V19.0725C20.35 18.61 20.165 18.1475 19.8125 17.815Z" fill="black"/>
<path d="M2.035 16.095C1.72 16.095 1.48 15.8551 1.48 15.54V3.33005C1.48 1.99755 2.5525 0.925049 3.885 0.925049H19.795C21.1275 0.925049 22.2 1.99755 22.2 3.33005V15.17C22.2 15.485 21.96 15.725 21.645 15.725C21.33 15.725 21.09 15.485 21.09 15.17V3.33005C21.09 2.60755 20.5175 2.03505 19.795 2.03505H3.885C3.1625 2.03505 2.59 2.60755 2.59 3.33005V15.54C2.59 15.8551 2.35 16.095 2.035 16.095Z" fill="black"/>
<path d="M10.7475 9.62005C10.7475 10.4776 10.0525 11.175 9.195 11.175C8.335 11.175 7.64 10.4776 7.64 9.62005C7.64 8.76255 8.335 8.06505 9.195 8.06505C10.0525 8.06505 10.7475 8.76255 10.7475 9.62005Z" fill="black"/>
</svg>
