<svg width="24" height="24" viewBox="0 0 24 24" fill="none" xmlns="http://www.w3.org/2000/svg">
<path d="M20.25 5.4375C19.9395 5.4375 19.6875 5.18555 19.6875 4.875V2.10742L13.0625 8.73633C12.7793 9.01953 12.4023 9.17383 12.002 9.17383C11.6016 9.17383 11.2246 9.01953 10.9414 8.73633L8.51562 6.31055C8.37305 6.16797 8.12695 6.16992 7.98633 6.31055L4.89844 9.39844C4.78906 9.50781 4.64453 9.5625 4.5 9.5625C4.35547 9.5625 4.21094 9.50781 4.10156 9.39844C3.88281 9.17773 3.88281 8.82227 4.10156 8.60156L7.18945 5.51367C7.47266 5.23047 7.84961 5.07617 8.25 5.07617C8.65039 5.07617 9.02734 5.23047 9.31055 5.51367L11.7344 7.93945C11.877 8.08203 12.123 8.08008 12.2637 7.93945L18.8926 1.3125H16.125C15.8145 1.3125 15.5625 1.06055 15.5625 0.75C15.5625 0.439453 15.8145 0.1875 16.125 0.1875H20.25C20.5605 0.1875 20.8125 0.439453 20.8125 0.75V4.875C20.8125 5.18555 20.5605 5.4375 20.25 5.4375Z" fill="black"/>
<path fill-rule="evenodd" clip-rule="evenodd" d="M3.75 23.8125C2.30273 23.8125 1.125 22.6348 1.125 21.1875V19.6875C1.125 18.2402 2.30273 17.0625 3.75 17.0625C5.19727 17.0625 6.375 18.2402 6.375 19.6875V21.1875C6.375 22.6348 5.19727 23.8125 3.75 23.8125ZM3.75 22.6875C4.57617 22.6875 5.25 22.0137 5.25 21.1875V19.6875C5.25 18.8613 4.57617 18.1875 3.75 18.1875C2.92383 18.1875 2.25 18.8613 2.25 19.6875V21.1875C2.25 22.0137 2.92383 22.6875 3.75 22.6875Z" fill="black"/>
<path fill-rule="evenodd" clip-rule="evenodd" d="M20.25 23.8125C21.6973 23.8125 22.875 22.6348 22.875 21.1875V12.1875C22.875 10.7402 21.6973 9.5625 20.25 9.5625C18.8027 9.5625 17.625 10.7402 17.625 12.1875V21.1875C17.625 22.6348 18.8027 23.8125 20.25 23.8125ZM18.75 12.1875C18.75 11.3613 19.4238 10.6875 20.25 10.6875C21.0762 10.6875 21.75 11.3613 21.75 12.1875V21.1875C21.75 22.0137 21.0762 22.6875 20.25 22.6875C19.4238 22.6875 18.75 22.0137 18.75 21.1875V12.1875Z" fill="black"/>
<path fill-rule="evenodd" clip-rule="evenodd" d="M12 23.8125C10.5527 23.8125 9.375 22.6348 9.375 21.1875V15.9375C9.375 14.4902 10.5527 13.3125 12 13.3125C13.4473 13.3125 14.625 14.4902 14.625 15.9375V21.1875C14.625 22.6348 13.4473 23.8125 12 23.8125ZM12 22.6875C12.8262 22.6875 13.5 22.0137 13.5 21.1875V15.9375C13.5 15.1113 12.8262 14.4375 12 14.4375C11.1738 14.4375 10.5 15.1113 10.5 15.9375V21.1875C10.5 22.0137 11.1738 22.6875 12 22.6875Z" fill="black"/>
</svg>
