<svg width="24" height="24" viewBox="0 0 24 24" fill="none" xmlns="http://www.w3.org/2000/svg">
<path d="M14.8496 8.28711C15.8438 7.29297 17.1562 6.75 18.5625 6.75C19.9688 6.75 21.2812 7.29297 22.2754 8.28711C23.2695 9.28125 23.8125 10.5938 23.8125 12C23.8125 13.4062 23.2695 14.7188 22.2754 15.7129C21.2812 16.707 19.9688 17.25 18.5625 17.25C17.1562 17.25 15.8438 16.707 14.8496 15.7129C14.625 15.5059 14.625 15.1504 14.8496 14.9258C15.0566 14.6992 15.4121 14.6992 15.6367 14.9258C16.4258 15.6934 17.457 16.125 18.5625 16.125C19.668 16.125 20.7188 15.7129 21.4883 14.9258C22.2559 14.1367 22.6875 13.1055 22.6875 12C22.6875 10.8945 22.2754 9.84375 21.4883 9.07422C20.6992 8.30664 19.668 7.875 18.5625 7.875C17.457 7.875 16.4258 8.30664 15.6367 9.09375L9.15039 15.7129C7.10547 17.7559 3.76953 17.7559 1.72461 15.7129C0.730469 14.7188 0.1875 13.4062 0.1875 12C0.1875 10.5938 0.730469 9.28125 1.72461 8.28711C2.71875 7.29297 4.03125 6.75 5.4375 6.75H9.71289L7.85547 4.89453C7.63086 4.6875 7.63086 4.33203 7.85547 4.10547C8.0625 3.88086 8.41797 3.88086 8.64453 4.10547L11.457 6.91797C11.6816 7.125 11.6816 7.48047 11.457 7.70703L8.64453 10.5195C8.53125 10.6309 8.38086 10.6875 8.25 10.6875C8.11914 10.6875 7.96875 10.6309 7.85547 10.5195C7.63086 10.3125 7.63086 9.95703 7.85547 9.73047L9.71289 7.875H5.4375C4.33203 7.875 3.28125 8.28711 2.51172 9.07422C1.74414 9.86328 1.3125 10.8945 1.3125 12C1.3125 13.1055 1.74414 14.1367 2.53125 14.9258C4.14453 16.5371 6.75 16.5371 8.36328 14.9258L14.8496 8.28711Z" fill="black"/>
</svg>
