<svg width="24" height="24" viewBox="0 0 24 24" fill="none" xmlns="http://www.w3.org/2000/svg">
<path d="M16.2625 23.495C15.9475 23.495 15.7075 23.255 15.7075 22.94V22.2C15.7075 20.8675 16.78 19.795 18.1125 19.795H19.5925C20.11 19.795 20.5175 19.3875 20.5175 18.87V16.1875C20.5175 15.7425 20.6825 15.3375 20.98 15.0225L21.4975 14.505C21.645 14.355 21.6825 14.1525 21.6275 13.95C21.6275 13.93 21.6075 13.9125 21.6075 13.8925L20.425 8.21504C19.8875 5.60504 18.26 3.44004 15.985 2.25754C14.875 1.68254 13.6525 1.37004 12.395 1.29504V18.87C12.395 19.185 12.155 19.425 11.84 19.425C11.525 19.425 11.285 19.185 11.285 18.87V0.740041C11.285 0.572541 11.36 0.425041 11.4875 0.315042C11.6 0.222541 11.73 0.185041 11.8775 0.185041C13.4875 0.167542 15.095 0.537542 16.5025 1.27754C19.0725 2.60754 20.905 5.05004 21.515 7.99254L22.7 13.6525C22.865 14.2275 22.7175 14.855 22.2925 15.28L21.775 15.8C21.6825 15.91 21.6275 16.04 21.6275 16.1875V18.87C21.6275 19.9975 20.72 20.905 19.5925 20.905H18.1125C17.39 20.905 16.8175 21.4775 16.8175 22.2V22.94C16.8175 23.255 16.5575 23.495 16.2625 23.495Z" fill="black"/>
<path d="M8.695 5.36504C7.6775 5.36504 6.845 4.53254 6.845 3.51504C6.845 2.49754 7.6775 1.66504 8.695 1.66504C9.7125 1.66504 10.545 2.49754 10.545 3.51504C10.545 4.53254 9.7125 5.36504 8.695 5.36504ZM8.695 2.77504C8.2875 2.77504 7.955 3.10754 7.955 3.51504C7.955 3.92254 8.2875 4.25504 8.695 4.25504C9.1025 4.25504 9.435 3.92254 9.435 3.51504C9.435 3.10754 9.1025 2.77504 8.695 2.77504Z" fill="black"/>
<path d="M9.62 14.06H6.845C6.6975 14.06 6.55 14.115 6.4575 14.2275L4.735 15.9475C4.4775 15.8175 4.18 15.7425 3.885 15.7425C2.8675 15.7425 2.035 16.575 2.035 17.5925C2.035 18.61 2.8675 19.4425 3.885 19.4425C4.9025 19.4425 5.735 18.61 5.735 17.5925C5.735 17.28 5.66 17.0025 5.5325 16.7425L7.085 15.1875H9.62C9.935 15.1875 10.175 14.9475 10.175 14.6325C10.175 14.32 9.935 14.06 9.62 14.06ZM3.885 18.315C3.4775 18.315 3.145 17.9825 3.145 17.575C3.145 17.1675 3.4775 16.835 3.885 16.835C4.2925 16.835 4.625 17.1675 4.625 17.575C4.625 17.9825 4.2925 18.315 3.885 18.315Z" fill="black"/>
<path d="M9.62 11.285H3.9775C3.7375 10.5275 3.035 9.99004 2.22 9.99004C1.2025 9.99004 0.369999 10.8225 0.369999 11.84C0.369999 12.8575 1.2025 13.69 2.22 13.69C3.0525 13.69 3.755 13.1525 3.9775 12.395H9.62C9.935 12.395 10.175 12.155 10.175 11.84C10.175 11.525 9.935 11.285 9.62 11.285ZM2.22 12.58C1.8125 12.58 1.48 12.2475 1.48 11.84C1.48 11.4325 1.8125 11.1 2.22 11.1C2.6275 11.1 2.96 11.4325 2.96 11.84C2.96 12.2475 2.6275 12.58 2.22 12.58Z" fill="black"/>
<path d="M3.885 7.95504C4.2 7.95504 4.4775 7.88004 4.735 7.75254L6.4575 9.47254C6.5675 9.58254 6.6975 9.63754 6.845 9.63754H9.62C9.935 9.63754 10.175 9.39754 10.175 9.08254C10.175 8.77004 9.935 8.52754 9.62 8.52754H7.0675L5.5125 6.97504C5.6425 6.71504 5.7175 6.42004 5.7175 6.12254C5.7175 5.10504 4.885 4.27254 3.8675 4.27254C2.85 4.27254 2.0175 5.10504 2.0175 6.12254C2.0175 7.14004 2.8675 7.95504 3.885 7.95504ZM3.885 5.36504C4.2925 5.36504 4.625 5.69754 4.625 6.10504C4.625 6.51254 4.2925 6.84504 3.885 6.84504C3.4775 6.84504 3.145 6.51254 3.145 6.10504C3.145 5.69754 3.4775 5.36504 3.885 5.36504Z" fill="black"/>
<path d="M8.695 22.015C7.6775 22.015 6.845 21.1825 6.845 20.165C6.845 19.1475 7.6775 18.315 8.695 18.315C9.7125 18.315 10.545 19.1475 10.545 20.165C10.545 21.1825 9.7125 22.015 8.695 22.015ZM8.695 19.425C8.2875 19.425 7.955 19.7575 7.955 20.165C7.955 20.5725 8.2875 20.905 8.695 20.905C9.1025 20.905 9.435 20.5725 9.435 20.165C9.435 19.7575 9.1025 19.425 8.695 19.425Z" fill="black"/>
<path d="M12.395 21.83V22.9225C12.395 23.2 12.21 23.44 11.95 23.495C11.6 23.57 11.285 23.2925 11.285 22.9575V21.8475C11.285 21.535 11.525 21.2925 11.84 21.2925C12.155 21.275 12.395 21.515 12.395 21.83Z" fill="black"/>
</svg>
