<svg width="24" height="24" viewBox="0 0 24 24" fill="none" xmlns="http://www.w3.org/2000/svg">
<path d="M11.84 3.51506H15.54C15.855 3.51506 16.095 3.27506 16.095 2.96006C16.095 2.64506 15.855 2.40506 15.54 2.40506H11.84C11.525 2.40506 11.285 2.64506 11.285 2.96006C11.285 3.27506 11.525 3.51506 11.84 3.51506Z" fill="black"/>
<path d="M8.14001 3.51506H9.06501C9.38001 3.51506 9.62001 3.27506 9.62001 2.96006C9.62001 2.64506 9.38001 2.40506 9.06501 2.40506H8.14001C7.82501 2.40506 7.58501 2.64506 7.58501 2.96006C7.58501 3.27506 7.82501 3.51506 8.14001 3.51506Z" fill="black"/>
<path d="M6.29001 23.4951H17.39C18.7225 23.4951 19.795 22.4226 19.795 21.0901V2.59006C19.795 1.25756 18.7225 0.185059 17.39 0.185059H13.875C13.8375 0.185059 13.82 0.185059 13.7825 0.185059C13.745 0.185059 13.7275 0.185059 13.69 0.185059H6.29001C4.95751 0.185059 3.88501 1.25756 3.88501 2.59006V21.0901C3.88501 22.4226 4.95751 23.4951 6.29001 23.4951ZM4.99501 2.59006C4.99501 1.86756 5.56751 1.29506 6.29001 1.29506H13.69C13.7275 1.29506 13.745 1.29506 13.7825 1.29506C13.82 1.29506 13.8375 1.29506 13.875 1.29506H17.39C18.1125 1.29506 18.685 1.86756 18.685 2.59006V21.0901C18.685 21.8126 18.1125 22.3851 17.39 22.3851H6.29001C5.56751 22.3851 4.99501 21.8126 4.99501 21.0901V2.59006Z" fill="black"/>
<path d="M11.84 21.2751C12.9675 21.2751 13.875 20.3676 13.875 19.2401C13.875 18.1126 12.9675 17.2051 11.84 17.2051C10.7125 17.2051 9.80501 18.1126 9.80501 19.2401C9.80501 20.3676 10.7125 21.2751 11.84 21.2751ZM11.84 18.3151C12.3575 18.3151 12.765 18.7226 12.765 19.2401C12.765 19.7576 12.3575 20.1651 11.84 20.1651C11.3225 20.1651 10.915 19.7576 10.915 19.2401C10.915 18.7226 11.3225 18.3151 11.84 18.3151Z" fill="black"/>
</svg>
