<svg width="24" height="24" viewBox="0 0 24 24" fill="none" xmlns="http://www.w3.org/2000/svg">
<path d="M3.9375 18.4492C3.84375 18.5254 3.73047 18.5625 3.61914 18.5625C3.43164 18.5625 3.26172 18.4883 3.15039 18.3379C1.81836 16.4805 1.125 14.2871 1.125 12C1.125 6 6 1.125 12 1.125C14.2871 1.125 16.4805 1.81836 18.3379 3.15039C18.5996 3.33789 18.6562 3.67578 18.4688 3.9375C18.2812 4.19922 17.9258 4.25586 17.6816 4.06836C16.1621 2.98047 14.4004 2.38086 12.5625 2.26953V3.95703C16.7441 4.25586 20.0625 7.74414 20.0625 12C20.0625 13.5195 19.6309 15 18.8242 16.2754C18.7305 16.4434 18.543 16.5371 18.3555 16.5371C18.2441 16.5371 18.1504 16.5 18.0566 16.4434C17.7754 16.293 17.6992 15.9375 17.8691 15.6758C18.4688 14.7383 18.8066 13.668 18.9004 12.5625H17.2129C16.9316 15.1875 14.6992 17.25 12 17.25C9.30078 17.25 7.06836 15.1875 6.76953 12.5625H5.08203C5.38086 16.125 8.36328 18.9375 12 18.9375C13.3125 18.9375 14.5684 18.582 15.6934 17.8867C15.957 17.7383 16.293 17.8125 16.4629 18.0742C16.6133 18.3379 16.5371 18.6758 16.2754 18.8438C15.1504 19.5371 13.875 19.9492 12.5625 20.043V21.7305C17.6816 21.4316 21.75 17.1934 21.75 12C21.75 9.9375 21.1133 7.98828 19.9316 6.31836C19.7441 6.05664 19.8184 5.71875 20.0625 5.53125C20.3242 5.34375 20.6621 5.41797 20.8496 5.66211C22.1816 7.51953 22.875 9.71289 22.875 12C22.875 18 18 22.875 12 22.875C9.71289 22.875 7.51953 22.1816 5.66211 20.8496C5.40039 20.6621 5.34375 20.3066 5.53125 20.0625C5.71875 19.8008 6.07422 19.7441 6.31836 19.9316C7.83789 21.0195 9.59961 21.6191 11.4375 21.7305V20.043C7.25586 19.7441 3.9375 16.2559 3.9375 12C3.9375 10.4805 4.36914 9 5.17578 7.74414C5.32422 7.46289 5.68164 7.38672 5.94336 7.55664C6.22461 7.70703 6.30078 8.0625 6.13086 8.32422C5.53125 9.26172 5.19336 10.332 5.09961 11.4375H6.78711C7.06836 8.8125 9.30078 6.75 12 6.75C12.7129 6.75 13.3867 6.88086 14.0625 7.16211C14.3438 7.27539 14.4746 7.61328 14.3633 7.89453C14.25 8.17578 13.9121 8.30664 13.6309 8.19336C13.125 7.98828 12.582 7.875 12.0195 7.875C9.75 7.875 7.89453 9.73047 7.89453 12C7.89453 14.2695 9.75 16.125 12.0195 16.125C14.2871 16.125 16.1445 14.2695 16.1445 12C16.1445 11.418 16.0117 10.8555 15.7871 10.332C15.6563 10.0313 15.7871 9.71289 16.0684 9.58203C16.3691 9.44922 16.6875 9.58203 16.8184 9.86328C17.0254 10.3691 17.1758 10.8945 17.2305 11.4375H18.918C18.6191 7.875 15.6367 5.0625 12 5.0625C10.6875 5.0625 9.43164 5.41797 8.30664 6.11328C8.04297 6.26172 7.70703 6.1875 7.53711 5.92578C7.38672 5.66211 7.46289 5.32422 7.72461 5.15625C8.84961 4.46289 10.125 4.05078 11.4375 3.95703V2.26953C6.31836 2.56836 2.25 6.80664 2.25 12C2.25 14.043 2.88672 16.0117 4.06836 17.6621C4.25586 17.9258 4.18164 18.2617 3.9375 18.4492Z" fill="black"/>
<path d="M14.418 12.3555C14.3809 12.6562 14.082 12.8633 13.7812 12.8242C13.4629 12.7695 13.2559 12.4883 13.293 12.1875C13.3125 12.1309 13.3125 12.0566 13.3125 12C13.3125 11.2695 12.7305 10.6875 12 10.6875C11.2695 10.6875 10.6875 11.2695 10.6875 12C10.6875 12.7305 11.2695 13.3125 12 13.3125H12.1875C12.4883 13.2559 12.7871 13.4805 12.8242 13.7812C12.8809 14.082 12.6562 14.3809 12.3555 14.418C12.2441 14.4375 12.1309 14.4375 12 14.4375C10.6504 14.4375 9.5625 13.3496 9.5625 12C9.5625 10.6504 10.6504 9.5625 12 9.5625C13.3496 9.5625 14.4375 10.6504 14.4375 12C14.4375 12.1133 14.4375 12.2246 14.418 12.3555Z" fill="black"/>
</svg>
