<svg width="24" height="24" viewBox="0 0 24 24" fill="none" xmlns="http://www.w3.org/2000/svg">
<path d="M2.59 19.055C2.905 19.055 3.145 18.815 3.145 18.5V7.76999C3.145 7.04749 3.7175 6.47499 4.44 6.47499H19.24C19.9625 6.47499 20.535 7.04749 20.535 7.76999V18.87C20.535 19.5925 19.9625 20.165 19.24 20.165H14.8C14.485 20.165 14.245 20.405 14.245 20.72C14.245 21.035 14.485 21.275 14.8 21.275H19.24C20.5725 21.275 21.645 20.2025 21.645 18.87V7.76999C21.645 6.43749 20.5725 5.36499 19.24 5.36499H4.44C3.1075 5.36499 2.035 6.43749 2.035 7.76999V18.5C2.035 18.815 2.275 19.055 2.59 19.055Z" fill="black"/>
<path d="M11.3775 7.95499C11.0625 7.95499 10.8225 8.19499 10.8225 8.50999C10.8225 8.82499 11.0625 9.06499 11.3775 9.06499H12.3025C12.6175 9.06499 12.8575 8.82499 12.8575 8.50999C12.8575 8.19499 12.6175 7.95499 12.3025 7.95499H11.3775Z" fill="black"/>
<path d="M22.94 22.385H1.85C1.535 22.385 1.295 22.145 1.295 21.83C1.295 21.515 1.535 21.275 1.85 21.275H9.065C9.38 21.275 9.62 21.035 9.62 20.72C9.62 20.405 9.38 20.165 9.065 20.165H1.85C0.924998 20.165 0.184998 20.905 0.184998 21.83C0.184998 22.755 0.924998 23.495 1.85 23.495H22.94C23.255 23.495 23.495 23.255 23.495 22.94C23.495 22.625 23.255 22.385 22.94 22.385Z" fill="black"/>
</svg>
