<svg xmlns="http://www.w3.org/2000/svg" viewBox="0 0 24 24" id="Laptop--Streamline-Ultimate">
  <desc>
    Laptop Streamline Icon: https://streamlinehq.com
  </desc>
  <defs></defs>
  <title>laptop</title>
  <path d="M5.5 1h13s2 0 2 2v8s0 2 -2 2h-13s-2 0 -2 -2V3s0 -2 2 -2" fill="none" stroke="#000000" stroke-linecap="round" stroke-linejoin="round" stroke-width="1"></path>
  <path d="M23.427 21.293A1.281 1.281 0 0 1 22.219 23H1.781a1.281 1.281 0 0 1 -1.208 -1.707l2.261 -6.407A2.827 2.827 0 0 1 5.5 13h13a2.825 2.825 0 0 1 2.665 1.886Z" fill="none" stroke="#000000" stroke-linecap="round" stroke-linejoin="round" stroke-width="1"></path>
  <path d="m15.5 23 -7 0 1 -3 5 0 1 3z" fill="none" stroke="#000000" stroke-linecap="round" stroke-linejoin="round" stroke-width="1"></path>
  <path d="m5.495 16 1 0" fill="none" stroke="#000000" stroke-linecap="round" stroke-linejoin="round" stroke-width="1"></path>
  <path d="m8.495 16 1 0" fill="none" stroke="#000000" stroke-linecap="round" stroke-linejoin="round" stroke-width="1"></path>
  <path d="m14.495 16 1 0" fill="none" stroke="#000000" stroke-linecap="round" stroke-linejoin="round" stroke-width="1"></path>
  <path d="m17.495 16 1 0" fill="none" stroke="#000000" stroke-linecap="round" stroke-linejoin="round" stroke-width="1"></path>
  <path d="m11.495 16 1 0" fill="none" stroke="#000000" stroke-linecap="round" stroke-linejoin="round" stroke-width="1"></path>
  <path d="m4.495 18 1 0" fill="none" stroke="#000000" stroke-linecap="round" stroke-linejoin="round" stroke-width="1"></path>
  <path d="m7.495 18 9 0" fill="none" stroke="#000000" stroke-linecap="round" stroke-linejoin="round" stroke-width="1"></path>
  <path d="m18.495 18 1 0" fill="none" stroke="#000000" stroke-linecap="round" stroke-linejoin="round" stroke-width="1"></path>
</svg>