<svg width="24" height="24" viewBox="0 0 24 24" fill="none" xmlns="http://www.w3.org/2000/svg">
<path d="M21.09 16.65C20.775 16.65 20.535 16.41 20.535 16.095V5.73496C20.535 5.01246 19.9625 4.43996 19.24 4.43996H4.44C3.7175 4.43996 3.145 5.01246 3.145 5.73496V16.095C3.145 16.41 2.905 16.65 2.59 16.65C2.275 16.65 2.035 16.41 2.035 16.095V5.73496C2.035 4.40246 3.1075 3.32996 4.44 3.32996H19.24C20.5725 3.32996 21.645 4.40246 21.645 5.73496V16.095C21.645 16.41 21.405 16.65 21.09 16.65Z" fill="black"/>
<path d="M8.8625 12.9125C9.0825 13.1175 9.1025 13.4675 8.8975 13.69C8.7875 13.82 8.64 13.875 8.4925 13.875C8.3625 13.875 8.2325 13.8375 8.1225 13.7275L5.8825 11.6925C5.7725 11.58 5.6975 11.4325 5.6975 11.285C5.6975 11.1375 5.7725 10.97 5.8825 10.8775L8.1225 8.82495C8.3425 8.61996 8.695 8.63996 8.8975 8.86246C9.1025 9.08246 9.0825 9.43496 8.8625 9.63746L7.085 11.285L8.8625 12.9125ZM13.8925 7.38246L10.8225 15.5775C10.73 15.8175 10.49 15.965 10.25 15.9275C10.1925 15.9275 10.1575 15.91 10.1 15.8925C9.805 15.78 9.675 15.465 9.7675 15.17L12.82 6.95496C12.9325 6.65996 13.245 6.52996 13.5425 6.62246C13.8575 6.76996 14.005 7.08496 13.8925 7.38246ZM17.7975 11.6925L15.5575 13.745C15.4475 13.8375 15.3175 13.8925 15.1875 13.8925C15.04 13.8925 14.8925 13.8375 14.7825 13.7075C14.5775 13.4875 14.5975 13.135 14.8175 12.9325L16.595 11.3025L14.8175 9.67496C14.5975 9.47246 14.5775 9.11996 14.7825 8.89746C14.985 8.67746 15.3375 8.65746 15.5575 8.86246L17.7975 10.915C17.9075 11.025 17.9825 11.175 17.9825 11.3225C17.9825 11.47 17.9075 11.6 17.7975 11.6925Z" fill="black"/>
<path d="M22.94 18.13H0.739998C0.424998 18.13 0.184998 18.37 0.184998 18.685V19.24C0.184998 20.5725 1.2575 21.645 2.59 21.645H21.09C22.4225 21.645 23.495 20.5725 23.495 19.24V18.685C23.495 18.37 23.255 18.13 22.94 18.13ZM21.09 20.535H2.59C1.8675 20.535 1.295 19.9625 1.295 19.24H22.385C22.385 19.9625 21.8125 20.535 21.09 20.535Z" fill="black"/>
</svg>
