<svg width="24" height="24" viewBox="0 0 24 24" fill="none" xmlns="http://www.w3.org/2000/svg">
<path d="M12 1.125C6 1.125 1.125 6 1.125 12C1.125 18 6 22.875 12 22.875C14.9062 22.875 17.6445 21.75 19.668 19.707L19.6875 19.6875V21.0742C19.6875 21.3945 19.9316 21.6367 20.25 21.6367C20.5684 21.6367 20.8125 21.3945 20.8125 21.0742V18.3945C20.8125 18.0742 20.5684 17.832 20.25 17.832H17.5684C17.25 17.832 17.0059 18.0742 17.0059 18.3945C17.0059 18.7129 17.25 18.957 17.5684 18.957H18.8242C16.9883 20.7559 14.5684 21.75 12 21.75C6.61914 21.75 2.25 17.3809 2.25 12C2.25 6.61914 6.61914 2.25 12 2.25C17.3809 2.25 21.75 6.61914 21.75 12C21.75 12.3184 21.9941 12.5625 22.3125 12.5625C22.6309 12.5625 22.875 12.3184 22.875 12C22.875 6 17.9805 1.125 12 1.125Z" fill="black"/>
<path d="M9.65625 7.6875C10.7441 7.6875 11.625 8.56836 11.625 9.65625C11.625 11.2871 11.082 12.9004 10.1055 14.2129L9.375 15.1875H11.0625C11.3809 15.1875 11.625 15.4316 11.625 15.75C11.625 16.0684 11.3809 16.3125 11.0625 16.3125H8.25C8.02539 16.3125 7.83789 16.1816 7.74414 15.9941C7.65039 15.8066 7.66797 15.582 7.80079 15.4121L9.20704 13.5371C10.0313 12.4316 10.5 11.043 10.5 9.65625C10.5 9.1875 10.125 8.8125 9.65625 8.8125C9.1875 8.8125 8.8125 9.1875 8.8125 9.65625V10.875C8.8125 11.1934 8.56836 11.4375 8.25 11.4375C7.93164 11.4375 7.6875 11.1934 7.6875 10.875V9.65625C7.6875 8.56836 8.56836 7.6875 9.65625 7.6875Z" fill="black"/>
<path fill-rule="evenodd" clip-rule="evenodd" d="M16.3125 15.75C16.3125 16.0684 16.0684 16.3125 15.75 16.3125C15.4316 16.3125 15.1875 16.0684 15.1875 15.75V14.625H12.5625C12.375 14.625 12.1875 14.5312 12.0938 14.3809C12 14.2305 11.9629 14.0254 12.0371 13.8555L14.1367 8.40039C14.3066 7.96875 14.7383 7.6875 15.1875 7.6875C15.8066 7.6875 16.3125 8.19336 16.3125 8.8125V15.75ZM15.1875 8.8125L13.3867 13.5H15.1875V8.8125Z" fill="black"/>
<path d="M21.9004 15.5059C22.2422 15.5059 22.5195 15.2285 22.5195 14.8867C22.5195 14.5449 22.2422 14.2695 21.9004 14.2695C21.5586 14.2695 21.2812 14.5449 21.2812 14.8867C21.2812 15.2285 21.5586 15.5059 21.9004 15.5059Z" fill="black"/>
</svg>
