<svg width="24" height="24" viewBox="0 0 24 24" fill="none" xmlns="http://www.w3.org/2000/svg">
<path d="M6.8975 12.71C6.845 12.4075 6.5575 12.2075 6.2575 12.26L0.737499 13.23C0.592499 13.2575 0.462499 13.3375 0.377499 13.46C0.292499 13.58 0.259999 13.73 0.284999 13.875L1.2575 19.3925C1.305 19.6625 1.54 19.8525 1.805 19.8525C1.835 19.8525 1.8675 19.8475 1.9 19.8425C2.2025 19.79 2.4025 19.5025 2.35 19.2L1.6175 15.03C5.06 17.365 9.1625 18.64 13.32 18.64C14.085 18.64 14.8525 18.5975 15.6 18.5125C15.9075 18.4775 16.125 18.205 16.0925 17.9C16.0575 17.5925 15.785 17.375 15.4775 17.4075C14.7675 17.4875 14.0425 17.53 13.3175 17.53C9.375 17.53 5.4825 16.315 2.2175 14.095L6.445 13.35C6.75 13.2975 6.9525 13.01 6.8975 12.71Z" fill="black"/>
<path d="M21.6 16.265C21.4775 15.985 21.15 15.855 20.87 15.9775C20.2825 16.23 19.6775 16.455 19.0725 16.6475C18.78 16.74 18.6175 17.0525 18.71 17.345C18.7875 17.5825 19.005 17.7325 19.24 17.7325C19.295 17.7325 19.3525 17.7225 19.4075 17.7075C20.05 17.5025 20.69 17.2625 21.3125 16.995C21.5925 16.8725 21.72 16.5475 21.6 16.265Z" fill="black"/>
<path d="M21.87 12.7275C22.135 12.7275 22.3675 12.54 22.4175 12.27L23.39 6.74995C23.4425 6.44995 23.2425 6.15995 22.94 6.10745L17.4225 5.13495C17.1225 5.08245 16.8325 5.28245 16.78 5.58245C16.725 5.88495 16.9275 6.17245 17.23 6.22745L21.445 6.96995C16.1425 10.4225 9.2025 10.1725 4.1375 6.21495C3.8975 6.02745 3.5475 6.06995 3.36 6.31245C3.17 6.55495 3.2125 6.90245 3.455 7.08995C6.36 9.35995 9.84 10.495 13.32 10.495C16.3625 10.495 19.4025 9.62745 22.06 7.89495L21.3225 12.0775C21.27 12.38 21.47 12.67 21.7725 12.7225C21.805 12.725 21.84 12.7275 21.87 12.7275Z" fill="black"/>
</svg>
