<svg width="24" height="24" viewBox="0 0 24 24" fill="none" xmlns="http://www.w3.org/2000/svg">
<path d="M10.785 19.6275C10.8975 19.74 11.045 19.795 11.175 19.795C11.3025 19.795 11.4525 19.74 11.5625 19.6275L21.755 9.43502V13.32C21.755 13.635 21.9975 13.875 22.31 13.875C22.625 13.875 22.865 13.635 22.865 13.32V8.10252C22.865 7.78752 22.625 7.54752 22.31 7.54752H17.075C16.76 7.54752 16.52 7.78752 16.52 8.10252C16.52 8.41752 16.76 8.65752 17.075 8.65752H20.96L10.7675 18.8525C10.5625 19.055 10.5625 19.4075 10.785 19.6275Z" fill="black"/>
<path d="M1.37 7.54752C1.055 7.54752 0.815002 7.78752 0.815002 8.10252V13.3375C0.815002 13.6525 1.055 13.8925 1.37 13.8925H6.605C6.92 13.8925 7.16 13.6525 7.16 13.3375C7.16 13.025 6.92 12.7825 6.605 12.7825H2.72L12.525 2.97752C12.7475 2.75752 12.7475 2.40502 12.525 2.20252C12.3025 1.98002 11.95 1.98002 11.7475 2.20252L1.9425 12.0075V8.12252C1.925 7.78752 1.6825 7.54752 1.37 7.54752Z" fill="black"/>
</svg>
