<svg width="24" height="24" viewBox="0 0 24 24" fill="none" xmlns="http://www.w3.org/2000/svg">
<path fill-rule="evenodd" clip-rule="evenodd" d="M0.394695 15.7437C0.470867 16.1929 0.638836 16.6617 0.882976 17.1128C1.20134 17.7124 1.63298 18.2378 2.06462 18.5562C2.47673 18.857 2.8322 18.9507 3.11345 18.9507C3.34791 18.9507 3.51212 18.8805 3.64241 18.8247L3.65837 18.8179C3.7697 18.7632 3.92009 18.6499 4.05095 18.4624H5.81462V19.9624C5.81462 20.8999 6.56462 21.6499 7.50212 21.6499H10.8771C11.8146 21.6499 12.5646 20.8999 12.5646 19.9624V18.4624H14.4006C14.9826 18.7242 15.5451 18.857 16.0881 18.857C16.5392 18.857 16.9709 18.7632 17.3459 18.5562C18.5256 17.937 19.1076 16.437 19.0138 14.4312L20.6642 14.7495C20.6828 14.7495 20.7013 14.7544 20.7199 14.7593C20.7384 14.7642 20.757 14.7691 20.7756 14.7691C21.0568 14.7691 21.3205 14.5445 21.3381 14.2437C21.3576 13.9624 21.1506 13.7007 20.8693 13.6441L17.0451 12.8941C16.7072 12.8179 16.3693 13.0816 16.3693 13.4566C16.3693 13.7378 16.5763 13.9624 16.8381 14.0191L17.8322 14.2066C17.9826 15.8941 17.5881 17.1499 16.7834 17.562C15.3009 18.3492 12.2267 16.3999 10.0138 12.2378C7.80095 8.09329 7.91423 4.43704 9.3947 3.64993C10.6896 2.95657 13.0334 4.36282 14.9455 6.98782C15.1134 7.21243 15.3947 7.30618 15.6388 7.1929C15.9767 7.04446 16.0705 6.6304 15.8634 6.34915C13.5392 3.14407 10.7267 1.66165 8.8693 2.65579C8.02555 3.10696 7.50212 3.98782 7.29509 5.14993L3.17009 11.2632C2.98259 11.5249 2.8322 11.8257 2.72087 12.1245C2.28923 13.3628 2.62712 14.4878 3.30095 15.7808C3.43181 16.0445 3.37712 16.3628 3.13298 16.5308C3.03923 16.607 2.92595 16.6245 2.81462 16.6245C2.60759 16.6245 2.43962 16.4937 2.3068 16.3257C1.67009 15.4429 1.5197 14.357 1.48259 13.9058C1.48259 13.7945 1.3693 13.7183 1.25798 13.7378C1.1447 13.7554 1.05095 13.7945 0.976726 13.8316C0.713055 13.9624 0.283367 14.357 0.320476 15.2945C0.357586 15.4429 0.377117 15.5933 0.394695 15.7437ZM7.48259 20.5249C7.16423 20.5249 6.92009 20.2808 6.92009 19.9624V18.4624H11.4201V19.9624C11.4201 20.2808 11.1759 20.5249 10.8576 20.5249H7.48259Z" fill="black"/>
<path d="M16.7072 3.31204C16.8947 3.0679 16.8205 2.71243 16.5763 2.52493C16.3322 2.33743 15.9767 2.41165 15.7892 2.65579L15.3009 3.33157C15.1134 3.57571 15.1896 3.93118 15.4318 4.11868C15.5256 4.1929 15.6388 4.23196 15.7521 4.23196C15.9201 4.23196 16.1076 4.15579 16.2013 3.98782L16.7072 3.31204Z" fill="black"/>
<path d="M22.587 14.864L22.5814 14.8529L22.5763 14.8433C22.5568 14.8257 22.5392 14.7867 22.5763 14.732C22.5568 14.6929 22.5568 14.6558 22.5568 14.6187C22.5568 14.4683 22.6134 14.3374 22.7267 14.2242C22.9318 14.0191 23.3068 14.0191 23.5138 14.2242C23.6271 14.3179 23.6818 14.4683 23.6818 14.6187C23.6818 14.637 23.6775 14.6553 23.6732 14.6739C23.6687 14.6929 23.6642 14.7122 23.6642 14.732C23.6539 14.7515 23.6491 14.771 23.6442 14.7906C23.6398 14.8081 23.6354 14.8257 23.6271 14.8433C23.6181 14.8604 23.6091 14.8738 23.6002 14.8869C23.59 14.9022 23.5799 14.9171 23.5705 14.937C23.5509 14.9742 23.5138 15.0132 23.4943 15.0308C23.4006 15.1441 23.2521 15.2007 23.1017 15.2007C22.9513 15.2007 22.8205 15.1441 22.7072 15.0308C22.6701 14.9937 22.6506 14.9742 22.633 14.937C22.6171 14.9227 22.6025 14.8942 22.587 14.864Z" fill="black"/>
<path d="M16.4455 8.18704C16.4259 8.18704 16.4259 8.18704 16.4084 8.20657C16.1271 8.35696 16.0334 8.6929 16.1818 8.97415C16.633 9.8179 16.9884 10.6617 17.2697 11.5054C17.3459 11.7495 17.5705 11.8999 17.7951 11.8999C17.8517 11.8999 17.9084 11.8999 17.9631 11.8628C18.2638 11.7691 18.4142 11.4507 18.3205 11.1499C18.0763 10.4195 17.7756 9.66946 17.4006 8.93704L19.8009 7.66165C20.0822 7.51321 20.1759 7.17532 20.0256 6.89407C19.8771 6.61282 19.5392 6.51907 19.258 6.66946L16.4455 8.16946C16.4631 8.18704 16.4455 8.18704 16.4455 8.18704Z" fill="black"/>
<path d="M11.4127 8.31709C11.4216 8.31281 11.4306 8.30844 11.4396 8.30032C12.8068 7.5679 14.5138 8.09329 15.2443 9.48196C15.6017 10.1382 15.6759 10.9058 15.4513 11.6187C15.2267 12.3492 14.7384 12.9312 14.0822 13.2867C14.0602 13.2867 14.0444 13.2935 14.0315 13.2991C14.0226 13.3029 14.0151 13.3062 14.008 13.3062C13.9914 13.3228 13.9621 13.338 13.9309 13.3542L13.9142 13.3628C13.7443 13.4566 13.5568 13.4937 13.3693 13.4937C12.6193 13.4937 11.758 12.8003 11.1388 11.6558C10.3693 10.2124 10.4259 8.84329 11.2697 8.39407C11.2883 8.38431 11.3073 8.37503 11.3263 8.36575C11.3454 8.35648 11.3644 8.3472 11.383 8.33743C11.3924 8.32692 11.4025 8.32207 11.4127 8.31709Z" fill="black"/>
</svg>
