<svg width="24" height="24" viewBox="0 0 24 24" fill="none" xmlns="http://www.w3.org/2000/svg">
<path d="M23.8125 6.1875C23.8125 4.83789 22.7246 3.75 21.375 3.75H6.375C5.02539 3.75 3.9375 4.83789 3.9375 6.1875V9.375C3.9375 9.69336 4.18164 9.9375 4.5 9.9375C4.81836 9.9375 5.0625 9.69336 5.0625 9.375V6.1875C5.0625 5.45703 5.64453 4.875 6.375 4.875H21.375C22.1055 4.875 22.6875 5.45703 22.6875 6.1875V18C22.6875 18.5254 22.1055 19.125 21.375 19.125H6.5625C6.24414 19.125 6 19.3691 6 19.6875C6 20.0059 6.24414 20.25 6.5625 20.25H21.375C22.668 20.25 23.8125 19.1992 23.8125 18V6.1875Z" fill="black"/>
<path d="M5.0625 12.1875C5.0625 11.8691 4.81836 11.625 4.5 11.625H3.1875C2.86914 11.625 2.625 11.8691 2.625 12.1875C2.625 12.5059 2.86914 12.75 3.1875 12.75H4.5C4.81836 12.75 5.0625 12.5059 5.0625 12.1875Z" fill="black"/>
<path d="M0.1875 19.6875C0.1875 20.0059 0.431641 20.25 0.75 20.25H2.625C2.94336 20.25 3.1875 20.0059 3.1875 19.6875C3.1875 19.3691 2.94336 19.125 2.625 19.125H0.75C0.431641 19.125 0.1875 19.3691 0.1875 19.6875Z" fill="black"/>
<path d="M1.125 15.9375C1.125 15.6191 1.36914 15.375 1.6875 15.375H6.375C6.69336 15.375 6.9375 15.6191 6.9375 15.9375C6.9375 16.2559 6.69336 16.5 6.375 16.5H1.6875C1.36914 16.5 1.125 16.2559 1.125 15.9375Z" fill="black"/>
<path d="M21.1397 9.37004C20.7473 9.81799 17.0298 14.0625 13.875 14.0625C10.6133 14.0625 6.75 9.52539 6.58203 9.31836C6.39453 9.09375 6.43164 8.71875 6.65625 8.53125C6.88086 8.34375 7.23828 8.36328 7.44336 8.60547C7.44336 8.625 8.38086 9.73047 9.67578 10.8184C11.3242 12.207 12.7695 12.9375 13.875 12.9375C14.9805 12.9375 16.4258 12.207 18.0742 10.8379C19.3496 9.75 20.3066 8.64453 20.3066 8.625C20.4941 8.38086 20.8496 8.34375 21.0938 8.55078C21.3379 8.73828 21.375 9.09375 21.168 9.33789C21.1625 9.34404 21.153 9.35486 21.1397 9.37004Z" fill="black"/>
</svg>
