<svg width="24" height="24" viewBox="0 0 24 24" fill="none" xmlns="http://www.w3.org/2000/svg">
<g clip-path="url(#clip0_12916_46226)">
<path d="M23.8125 4.5C23.8125 2.12305 21.877 0.1875 19.5 0.1875H4.5C2.12305 0.1875 0.1875 2.12305 0.1875 4.5V15C0.1875 17.377 2.12305 19.3125 4.5 19.3125H6.75C7.06055 19.3125 7.3125 19.0605 7.3125 18.75C7.3125 18.4395 7.06055 18.1875 6.75 18.1875H4.5C2.74219 18.1875 1.3125 16.7578 1.3125 15V4.5C1.3125 2.74219 2.74219 1.3125 4.5 1.3125H19.5C21.2578 1.3125 22.6875 2.74219 22.6875 4.5V15C22.6875 15.3105 22.9395 15.5625 23.25 15.5625C23.5605 15.5625 23.8125 15.3105 23.8125 15V4.5Z" fill="black"/>
<path d="M15.9375 21.1875C16.248 21.1875 16.5 20.9355 16.5 20.625V20.0625C16.5 19.752 16.248 19.5 15.9375 19.5C15.627 19.5 15.375 19.752 15.375 20.0625V20.625C15.375 20.9355 15.627 21.1875 15.9375 21.1875Z" fill="black"/>
<path d="M16.5 17.8125C16.5 18.123 16.248 18.375 15.9375 18.375C15.627 18.375 15.375 18.123 15.375 17.8125V14.0625C15.375 13.752 15.627 13.5 15.9375 13.5C16.248 13.5 16.5 13.752 16.5 14.0625V17.8125Z" fill="black"/>
<path fill-rule="evenodd" clip-rule="evenodd" d="M8.41406 22.5938C8.85352 23.3574 9.64258 23.8125 10.5234 23.8125H21.3496C22.2305 23.8125 23.0195 23.3574 23.4609 22.5938C23.9004 21.8301 23.9004 20.9199 23.4609 20.1562L18.0469 10.7812C17.6074 10.0176 16.8184 9.5625 15.9375 9.5625C15.0566 9.5625 14.2676 10.0176 13.8262 10.7812L8.41406 20.1562C7.97266 20.9199 7.97266 21.8301 8.41406 22.5938ZM9.38867 20.7188L14.8008 11.3438C15.0371 10.9336 15.4629 10.6875 15.9375 10.6875C16.4121 10.6875 16.8379 10.9336 17.0742 11.3438L22.4863 20.7188C22.7227 21.1289 22.7246 21.6211 22.4863 22.0312C22.248 22.4414 21.8242 22.6875 21.3516 22.6875H10.5234C10.0508 22.6875 9.625 22.4414 9.38867 22.0312C9.15039 21.6211 9.15234 21.1289 9.38867 20.7188Z" fill="black"/>
<path d="M13.0312 3.375C13.0312 3.68555 12.7793 3.9375 12.4688 3.9375H11.5312C11.2207 3.9375 10.9688 3.68555 10.9688 3.375C10.9688 3.06445 11.2207 2.8125 11.5312 2.8125H12.4688C12.7793 2.8125 13.0312 3.06445 13.0312 3.375Z" fill="black"/>
</g>
<defs>
<clipPath id="clip0_12916_46226">
<rect width="24" height="24" fill="black"/>
</clipPath>
</defs>
</svg>
