<svg width="24" height="24" viewBox="0 0 24 24" fill="none" xmlns="http://www.w3.org/2000/svg">
<g clip-path="url(#clip0_12940_62866)">
<path d="M9.5625 20.8125C9.25195 20.8125 9 21.0645 9 21.375V22.6875H8.25C7.93945 22.6875 7.6875 22.9395 7.6875 23.25C7.6875 23.5605 7.93945 23.8125 8.25 23.8125H15.75C16.0605 23.8125 16.3125 23.5605 16.3125 23.25C16.3125 22.9395 16.0605 22.6875 15.75 22.6875H15V21.375C15 21.0645 14.748 20.8125 14.4375 20.8125C14.127 20.8125 13.875 21.0645 13.875 21.375V22.6875H10.125V21.375C10.125 21.0645 9.87305 20.8125 9.5625 20.8125Z" fill="black"/>
<path d="M19.5 0.1875H4.5C2.12305 0.1875 0.1875 2.12305 0.1875 4.5V15C0.1875 17.377 2.12305 19.3125 4.5 19.3125H19.5C21.877 19.3125 23.8125 17.377 23.8125 15V4.5C23.8125 2.12305 21.877 0.1875 19.5 0.1875ZM22.6875 15C22.6875 16.7578 21.2578 18.1875 19.5 18.1875H4.5C2.74219 18.1875 1.3125 16.7578 1.3125 15V4.5C1.3125 2.74219 2.74219 1.3125 4.5 1.3125H19.5C21.2578 1.3125 22.6875 2.74219 22.6875 4.5V15Z" fill="black"/>
<path d="M12.4688 2.8125H11.5312C11.2207 2.8125 10.9688 3.06445 10.9688 3.375C10.9688 3.68555 11.2207 3.9375 11.5312 3.9375H12.4688C12.7793 3.9375 13.0312 3.68555 13.0312 3.375C13.0312 3.06445 12.7793 2.8125 12.4688 2.8125Z" fill="black"/>
</g>
<defs>
<clipPath id="clip0_12940_62866">
<rect width="24" height="24" fill="black"/>
</clipPath>
</defs>
</svg>
