<svg width="24" height="24" viewBox="0 0 24 24" fill="none" xmlns="http://www.w3.org/2000/svg">
<path d="M11.0996 21C10.1445 23.3242 9.01953 23.8125 8.25 23.8125C5.45703 23.8125 3.9375 17.7188 3.9375 12C3.9375 6.28125 5.45703 0.1875 8.25 0.1875C9.01953 0.1875 10.1445 0.675781 11.1191 3.01953C11.793 4.63086 12.2812 6.88086 12.4687 9.35547C12.4883 9.65625 12.2617 9.9375 11.9434 9.95703C11.6445 9.97461 11.3633 9.75 11.3437 9.43164C10.9316 4.34961 9.44922 1.3125 8.25 1.3125C7.53711 1.3125 6.73047 2.41797 6.13086 4.21875C5.4375 6.30078 5.0625 9.05664 5.0625 12C5.0625 14.9434 5.4375 17.6992 6.13086 19.7812C6.73047 21.582 7.53711 22.6875 8.25 22.6875C9.44922 22.6875 10.9316 19.6504 11.3242 14.5879C11.3437 14.2695 11.6055 14.043 11.9258 14.0625C12.2441 14.082 12.4687 14.3438 12.4492 14.6621C12.2441 17.1367 11.7754 19.3867 11.0996 21Z" fill="black"/>
<path d="M19.8555 8.60547C20.0625 8.38086 20.418 8.38086 20.6445 8.60547L23.6445 11.6055C23.8691 11.8125 23.8691 12.168 23.6445 12.3945L20.6445 15.3945C20.5312 15.5059 20.3809 15.5625 20.25 15.5625C20.1191 15.5625 19.9687 15.5059 19.8555 15.3945C19.6309 15.1875 19.6309 14.832 19.8555 14.6055L21.9004 12.5625H8.25C7.93164 12.5625 7.6875 12.3184 7.6875 12C7.6875 11.6816 7.93164 11.4375 8.25 11.4375H21.9004L19.8555 9.39453C19.6309 9.1875 19.6309 8.83203 19.8555 8.60547Z" fill="black"/>
</svg>
