<svg width="24" height="24" viewBox="0 0 24 24" fill="none" xmlns="http://www.w3.org/2000/svg">
<path d="M18.13 0.185059H10.915C9.5825 0.185059 8.51 1.25756 8.51 2.59006V6.29006C8.51 7.01256 7.9375 7.58506 7.215 7.58506H3.8475C3.46 7.58506 3.145 7.27006 3.145 6.88256C3.145 6.67756 3.2375 6.47506 3.385 6.34506L6.8275 3.38506C7.0675 3.18256 7.085 2.83006 6.8825 2.60756C6.6775 2.36756 6.3275 2.35006 6.105 2.55256L2.665 5.49506C2.2575 5.84506 2.035 6.34506 2.035 6.88256C2.035 7.88006 2.85 8.69506 3.8475 8.69506H7.215C8.5475 8.69506 9.62 7.62256 9.62 6.29006V2.59006C9.62 1.86756 10.1925 1.29506 10.915 1.29506H18.13C18.8525 1.29506 19.425 1.86756 19.425 2.59006V20.7376L18.13 22.3851L16.6675 20.9226C16.4475 20.7026 16.095 20.7026 15.8925 20.9226L14.43 22.3851L12.9675 20.9226C12.7475 20.7026 12.395 20.7026 12.1925 20.9226L10.73 22.3851L9.2675 20.9226C9.0475 20.7026 8.695 20.7026 8.4925 20.9226L7.03 22.3851L5.5675 20.9226C5.3475 20.7026 4.995 20.7026 4.7925 20.9226L3.3675 22.3476C3.3475 22.3676 3.3125 22.3851 3.275 22.3851C3.2 22.3851 3.145 22.3301 3.145 22.2551V12.4326C3.145 12.1176 2.905 11.8776 2.59 11.8776C2.275 11.8776 2.035 12.1176 2.035 12.4326V22.2551C2.035 22.9401 2.59 23.4951 3.275 23.4951C3.6075 23.4951 3.9225 23.3651 4.145 23.1251L5.18 22.0901L6.2525 23.1626C6.4575 23.3651 6.735 23.4951 7.03 23.4951C7.325 23.4951 7.6025 23.3851 7.8075 23.1626L8.88 22.0901L9.9525 23.1626C10.1575 23.3651 10.435 23.4951 10.73 23.4951C11.025 23.4951 11.3025 23.3851 11.5075 23.1626L12.58 22.0901L13.6525 23.1626C13.8575 23.3651 14.135 23.4951 14.43 23.4951C14.725 23.4951 15.0025 23.3851 15.2075 23.1626L16.28 22.0901L17.3525 23.1626C17.5575 23.3651 17.835 23.4951 18.13 23.4951C18.425 23.4951 18.7025 23.3851 18.9075 23.1626C18.925 23.1426 18.945 23.1251 18.945 23.1076L20.405 21.2576C20.48 21.1651 20.5175 21.0351 20.5175 20.9051V2.59006C20.535 1.25756 19.4625 0.185059 18.13 0.185059Z" fill="black"/>
<path d="M7.8075 15.9476C7.9175 15.8001 8.01 15.6501 8.1225 15.5026C8.4 15.1326 8.7875 14.5776 8.99 14.3926C9.2125 14.4476 9.565 14.8926 9.8225 15.2076C10.3225 15.8176 10.8775 16.5201 11.6925 16.5201C11.7475 16.5201 11.8025 16.5201 11.84 16.5201C12.4125 16.4651 12.84 16.0576 13.21 15.7076C13.4875 15.4301 13.765 15.1701 13.9675 15.1876C14.0225 15.1876 14.115 15.2251 14.19 15.2626C14.4675 15.3926 14.8 15.2801 14.93 15.0226C15.06 14.7626 14.9475 14.4126 14.69 14.2826C14.485 14.1701 14.2825 14.1151 14.0775 14.0976C13.3575 14.0226 12.84 14.5226 12.4325 14.9101C12.1725 15.1526 11.915 15.4101 11.71 15.4301C11.415 15.4651 11.0075 14.9476 10.675 14.5226C10.175 13.8926 9.6025 13.1901 8.7875 13.3026C8.325 13.3576 7.955 13.8576 7.215 14.8551C7.105 15.0026 7.0125 15.1326 6.9 15.2801C6.715 15.5226 6.77 15.8726 7.0125 16.0576C7.27 16.2426 7.6225 16.1876 7.8075 15.9476Z" fill="black"/>
<path d="M17.205 15.9101C17.205 16.2176 16.9575 16.4651 16.65 16.4651C16.3425 16.4651 16.095 16.2176 16.095 15.9101C16.095 15.6026 16.3425 15.3551 16.65 15.3551C16.9575 15.3551 17.205 15.6026 17.205 15.9101Z" fill="black"/>
</svg>
