<svg width="24" height="24" viewBox="0 0 24 24" fill="none" xmlns="http://www.w3.org/2000/svg">
<g clip-path="url(#clip0_13116_815)">
<path d="M2.82751 13.965C2.60001 14.1375 2.51001 14.4475 2.65001 14.6975C2.82001 15 3.21251 15.0725 3.47501 14.8675C4.98751 13.6925 7.09751 13.6375 8.84751 14.4175L13.32 16.4125C13.4875 16.485 13.625 16.605 13.7225 16.76C13.89 17.0225 13.915 17.3475 13.7875 17.6325C13.675 17.885 13.46 18.075 13.1775 18.15C12.965 18.2075 12.74 18.175 12.54 18.0875L9.37501 16.6725C9.09501 16.5475 8.76501 16.6725 8.64251 16.9525C8.51751 17.23 8.64251 17.56 8.92001 17.685L12.115 19.1125C12.385 19.2325 12.6675 19.2925 12.9475 19.2925C13.5175 19.2925 14.075 19.0525 14.47 18.6C14.605 18.4475 14.7175 18.2725 14.8025 18.0825C15.15 17.3 14.9775 16.3725 14.32 15.7575C14.155 15.6 13.9575 15.48 13.75 15.3875L8.98251 13.265C6.95501 12.3625 4.60001 12.63 2.82751 13.965Z" fill="black"/>
<path d="M0.287507 22.1525C0.465006 22.4025 0.812507 22.46 1.06501 22.2825L3.38251 20.625L8.23501 23.07C8.82501 23.355 9.46251 23.5 10.1 23.5C10.6625 23.5 11.2275 23.39 11.7575 23.165L22.1825 18.755C22.6925 18.54 23.085 18.135 23.285 17.6175C23.485 17.1 23.47 16.5375 23.2375 16.0325C22.7825 15.0425 21.5725 14.595 20.5375 15.035L20.205 15.175L20.115 14.9775C19.9025 14.4775 19.5075 14.09 19.005 13.885C18.5025 13.6825 17.9475 13.6875 17.4425 13.9L16.12 14.4775C15.8375 14.6 15.71 14.9275 15.8325 15.21C15.955 15.49 16.2825 15.6175 16.5625 15.495L17.8825 14.92C18.11 14.825 18.36 14.8225 18.59 14.915C18.8175 15.0075 18.9975 15.1825 19.095 15.4175L19.18 15.61L16.7425 16.6475C16.4625 16.7675 16.33 17.095 16.45 17.3775C16.57 17.66 16.8975 17.79 17.1775 17.67L20.97 16.055C21.4575 15.8475 22.02 16.045 22.2275 16.495C22.3325 16.725 22.34 16.98 22.25 17.215C22.16 17.45 21.98 17.635 21.7475 17.7325L11.325 22.145C10.485 22.4975 9.53751 22.4725 8.72751 22.0775L3.58001 19.485C3.39501 19.3925 3.17501 19.41 3.00751 19.53L0.417507 21.38C0.167507 21.555 0.110007 21.905 0.287507 22.1525Z" fill="black"/>
<path d="M19.62 11.2725C19.4675 11.5375 19.5575 11.8775 19.825 12.03C19.9125 12.08 20.0075 12.105 20.1025 12.105C20.295 12.105 20.48 12.005 20.5825 11.8275C20.795 11.4625 20.905 11.0475 20.905 10.625V5.28504C20.905 4.43004 20.445 3.63254 19.7025 3.20254L15.0775 0.532539C14.335 0.105039 13.415 0.105039 12.6725 0.532539L8.04751 3.20254C7.30501 3.63254 6.84501 4.43004 6.84501 5.28504V10.6275C6.84501 10.9325 7.09251 11.1825 7.40001 11.1825C7.70751 11.1825 7.95501 10.9325 7.95501 10.6275V5.55004L13.32 8.64754V12.47C13.32 12.7775 13.5675 13.025 13.875 13.025C14.1825 13.025 14.43 12.7775 14.43 12.47V8.65254L19.795 5.62254V10.6275C19.795 10.8525 19.735 11.075 19.62 11.2725ZM13.8775 7.68754L8.26501 4.44754C8.36001 4.33754 8.47251 4.23754 8.60251 4.16254L13.2275 1.49254C13.6275 1.26254 14.1225 1.26254 14.5225 1.49254L19.1475 4.16254C19.2975 4.25004 19.425 4.36254 19.5275 4.49754L13.8775 7.68754Z" fill="black"/>
</g>
<defs>
<clipPath id="clip0_13116_815">
<rect width="24" height="24" fill="black"/>
</clipPath>
</defs>
</svg>
