<svg width="24" height="24" viewBox="0 0 24 24" fill="none" xmlns="http://www.w3.org/2000/svg">
<g clip-path="url(#clip0_12916_46192)">
<path d="M1.40625 18.7655L5.73632 21.2635C5.82422 21.3143 5.92187 21.3397 6.01757 21.3397C6.21093 21.3397 6.39843 21.2382 6.5039 21.0585C6.66015 20.7889 6.56836 20.4452 6.29882 20.2889L1.96875 17.7909C1.56445 17.5565 1.3125 17.1229 1.3125 16.6561V7.34363C1.3125 7.31042 1.3164 7.27722 1.32031 7.24402L10.4062 12.4921C10.4941 12.5409 10.5918 12.5663 10.6875 12.5663C10.8828 12.5663 11.0703 12.4647 11.1758 12.285C11.3301 12.0155 11.2383 11.6718 10.9687 11.5155L1.8789 6.26746C1.88764 6.26163 1.89638 6.25546 1.90517 6.24925C1.92585 6.23464 1.94682 6.21983 1.96875 6.20886L10.0312 1.55261C10.4355 1.31824 10.9394 1.31824 11.3437 1.55261L19.4062 6.20886C19.429 6.22166 19.4508 6.23661 19.4723 6.25129C19.4802 6.25674 19.4882 6.26218 19.4961 6.26746L17.5176 7.41003C17.25 7.56628 17.1562 7.90808 17.3125 8.17957C17.416 8.35925 17.6035 8.46082 17.7988 8.46082C17.8945 8.46082 17.9902 8.43543 18.0801 8.38464L20.0547 7.24402C20.0555 7.25862 20.057 7.27264 20.0584 7.28631C20.0605 7.30552 20.0625 7.32424 20.0625 7.34363V11.119C20.0625 11.4296 20.3144 11.6815 20.625 11.6815C20.9355 11.6815 21.1875 11.4296 21.1875 11.119V7.34363C21.1875 6.47644 20.7207 5.66785 19.9687 5.2323L11.9062 0.578003C11.1543 0.144409 10.2207 0.144409 9.46875 0.578003L1.40625 5.2323C0.654293 5.66785 0.187496 6.47644 0.187496 7.34363V16.6542C0.187496 17.5233 0.654293 18.3319 1.40625 18.7655Z" fill="black"/>
<path d="M15.375 20.0623C15.375 19.7517 15.6269 19.4998 15.9375 19.4998C16.248 19.4998 16.5 19.7517 16.5 20.0623V20.6248C16.5 20.9353 16.248 21.1873 15.9375 21.1873C15.6269 21.1873 15.375 20.9353 15.375 20.6248V20.0623Z" fill="black"/>
<path d="M15.375 14.0623C15.375 13.7517 15.6269 13.4998 15.9375 13.4998C16.248 13.4998 16.5 13.7517 16.5 14.0623V17.8123C16.5 18.1228 16.248 18.3748 15.9375 18.3748C15.6269 18.3748 15.375 18.1228 15.375 17.8123V14.0623Z" fill="black"/>
<path fill-rule="evenodd" clip-rule="evenodd" d="M15.9375 9.56226C15.0566 9.56226 14.2676 10.0173 13.8262 10.781L8.41406 20.156C7.97265 20.9197 7.97265 21.8298 8.41406 22.5935C8.85351 23.3572 9.64257 23.8123 10.5234 23.8123H21.3496C22.2305 23.8123 23.0195 23.3572 23.4609 22.5935C23.9004 21.8298 23.9004 20.9197 23.4609 20.156L18.0469 10.781C17.6074 10.0173 16.8184 9.56226 15.9375 9.56226ZM22.4863 22.031C22.248 22.4412 21.8242 22.6873 21.3516 22.6873H10.5234C10.0508 22.6873 9.625 22.4412 9.38867 22.031C9.15039 21.6208 9.15234 21.1287 9.38867 20.7185L14.8008 11.3435C15.0371 10.9333 15.4629 10.6873 15.9375 10.6873C16.4121 10.6873 16.8379 10.9333 17.0742 11.3435L22.4863 20.7185C22.7227 21.1287 22.7246 21.6208 22.4863 22.031Z" fill="black"/>
</g>
<defs>
<clipPath id="clip0_12916_46192">
<rect width="24" height="24" fill="black"/>
</clipPath>
</defs>
</svg>
