<svg width="24" height="24" viewBox="0 0 24 24" fill="none" xmlns="http://www.w3.org/2000/svg">
<g clip-path="url(#clip0_12916_46166)">
<path fill-rule="evenodd" clip-rule="evenodd" d="M7.59998 3.31495C7.59998 2.28039 8.43999 1.44495 9.47248 1.44495C10.506 1.44495 11.3425 2.28142 11.3425 3.31495C11.3425 4.34847 10.506 5.18495 9.47248 5.18495C8.43999 5.18495 7.59998 4.34951 7.59998 3.31495ZM9.47248 2.34495C8.93498 2.34495 8.49998 2.77951 8.49998 3.31495C8.49998 3.85039 8.93498 4.28495 9.47248 4.28495C10.009 4.28495 10.4425 3.85142 10.4425 3.31495C10.4425 2.77847 10.009 2.34495 9.47248 2.34495Z" fill="black"/>
<path fill-rule="evenodd" clip-rule="evenodd" d="M15.6525 6.62995C15.6525 5.59642 16.489 4.75995 17.5225 4.75995C18.555 4.75995 19.395 5.59539 19.395 6.62995C19.395 7.6645 18.555 8.49995 17.5225 8.49995C16.489 8.49995 15.6525 7.66348 15.6525 6.62995ZM17.5225 5.65995C16.986 5.65995 16.5525 6.09348 16.5525 6.62995C16.5525 7.16642 16.986 7.59995 17.5225 7.59995C18.06 7.59995 18.495 7.16539 18.495 6.62995C18.495 6.0945 18.06 5.65995 17.5225 5.65995Z" fill="black"/>
<path fill-rule="evenodd" clip-rule="evenodd" d="M0.414981 18.4949C0.166453 18.4949 -0.0350189 18.6964 -0.0350189 18.9449C-0.0350189 19.1935 0.166453 19.3949 0.414981 19.3949H11.8625V21.7849C11.8625 22.0335 12.064 22.2349 12.3125 22.2349C12.561 22.2349 12.7625 22.0335 12.7625 21.7849V18.9449C12.7625 18.8651 12.7417 18.7902 12.7053 18.7252C12.8013 18.6708 12.8928 18.605 12.9779 18.5277L14.5674 17.081L17.1161 16.7976L17.7198 18.6424C17.7303 18.6744 17.7443 18.7052 17.7617 18.7341L19.4206 21.4973L19.4212 21.4984C19.7036 21.9728 20.2064 22.2349 20.72 22.2349C21.0157 22.2349 21.3111 22.149 21.5718 21.9729C22.2764 21.497 22.3875 20.552 21.9857 19.8831L20.5814 17.5435L19.9516 12.7648L20.3301 12.9068L20.9949 14.3281C21.2318 14.8351 21.7373 15.1324 22.26 15.1324C22.5471 15.1324 22.8375 15.0426 23.09 14.8587L23.0918 14.8573C23.6595 14.4392 23.7743 13.6786 23.5024 13.0964L22.7075 11.4017C22.5228 11.0062 22.2068 10.6909 21.8169 10.5041L20.002 9.64795L20 9.64702C19.7884 9.5485 19.5592 9.47014 19.3155 9.42719L17.5881 9.10269C16.7189 8.93937 15.8198 9.02796 15.0008 9.35444L13.7978 9.83697L12.9847 9.43043C12.7183 9.29658 12.4114 9.24559 12.116 9.28425C11.9739 9.02731 11.754 8.81381 11.4862 8.67995L10.0402 7.95693L9.60004 7.07883C9.2842 6.44458 8.79533 5.91664 8.19192 5.54834L6.63199 4.59587L6.63045 4.59494C6.18498 4.32539 5.68647 4.1499 5.17122 4.07913L3.24208 3.82134L3.23456 3.82047C2.8504 3.77571 2.4607 3.89795 2.16936 4.14851L0.549754 5.53567C0.0512387 5.96446 -0.153179 6.73326 0.223273 7.35172C0.682781 8.10531 1.68533 8.24079 2.32921 7.69258L3.48986 6.69589L4.2307 6.91475L2.53369 10.4765C2.42354 10.7078 2.3292 10.9517 2.25427 11.2181L0.560769 17.4418C0.465186 17.7929 0.495366 18.1682 0.636913 18.4949H0.414981ZM2.01126 18.4949L2.01248 18.4949L2.01381 18.4949C2.27132 18.4944 2.50636 18.3318 2.59339 18.0841L4.30572 12.6524C4.36066 12.4781 4.51566 12.3541 4.69781 12.339C4.87995 12.3239 5.05314 12.4205 5.13604 12.5833L6.20854 14.6908C6.23815 14.749 6.25474 14.813 6.25717 14.8782L6.36964 17.8998C6.38276 18.2293 6.65027 18.4883 6.97245 18.4948L6.98392 18.4939C6.99092 18.4934 7.00114 18.4928 7.01338 18.4926C7.3497 18.4791 7.61323 18.1946 7.60031 17.8572L7.48291 14.662L7.48285 14.6606C7.47974 14.5923 7.4664 14.5266 7.44323 14.4644L7.44179 14.4605L6.2068 11.0455C6.16727 10.9362 6.17157 10.8158 6.21883 10.7095L7.16633 8.57955C7.23097 8.43422 7.36754 8.33382 7.52553 8.31545C7.68352 8.29709 7.83947 8.3635 7.93573 8.49012L8.45374 9.17158C8.54002 9.28773 8.65433 9.38275 8.78873 9.44995L10.671 10.3898C10.7422 10.4254 10.8183 10.4424 10.8925 10.4424C10.9055 10.4424 10.919 10.4416 10.933 10.44C10.9659 10.2299 11.0481 10.0221 11.1846 9.83226C11.2227 9.77928 11.2638 9.73018 11.3074 9.6849C11.254 9.60296 11.1775 9.53184 11.0837 9.48494L9.50374 8.69494C9.41678 8.65146 9.34625 8.581 9.30269 8.49409L8.79519 7.48159L8.79463 7.48047C8.55547 7 8.18441 6.59814 7.72305 6.31656L6.16452 5.36495C5.8254 5.15989 5.44372 5.02513 5.04955 4.97087L3.1273 4.71407C2.99753 4.69988 2.85884 4.74252 2.75605 4.831L2.75521 4.83172L1.13593 6.21861C0.919768 6.40479 0.878395 6.69691 0.991808 6.88337C1.15721 7.15436 1.51406 7.20396 1.74514 7.00784L3.08931 5.85355C3.20515 5.75407 3.36354 5.72012 3.50997 5.76338L4.98247 6.19838C5.02583 6.21119 5.067 6.23046 5.10461 6.25553L5.11211 6.26053C5.29822 6.38462 5.36494 6.62657 5.26873 6.8285L3.34627 10.8634C3.25669 11.0515 3.18116 11.2471 3.12118 11.46L3.12067 11.4618L1.42919 17.6781C1.33771 18.0141 1.50895 18.3458 1.78183 18.4491L1.78402 18.4499C1.86517 18.4812 1.9426 18.4948 2.01126 18.4949ZM11.0881 11.3269C11.025 11.3369 10.9597 11.3424 10.8925 11.3424C10.6816 11.3424 10.4676 11.2944 10.2687 11.1949L8.38645 10.255C8.13163 10.1276 7.90635 9.94328 7.73285 9.71044L7.67951 9.64027L7.11478 10.9098L8.28752 14.1526C8.34371 14.3043 8.37508 14.4625 8.38206 14.6229L8.38219 14.6259L8.49965 17.8227C8.5087 18.0618 8.46167 18.2901 8.37033 18.4949H10.9057C10.8457 18.4366 10.7896 18.3724 10.738 18.3023C10.2485 17.6423 10.4275 16.7493 10.9813 16.2429L10.9826 16.2416L12.8126 14.5816C13.0906 14.3299 13.4394 14.1641 13.8143 14.1141L15.987 13.8114L15.4798 12.2899L14.2798 12.6844L14.2788 12.6847C13.8809 12.817 13.4449 12.7858 13.0703 12.597L11.6887 11.9049C11.424 11.7725 11.2199 11.5678 11.0881 11.3269ZM5.60062 18.4949C5.52396 18.3231 5.47812 18.1342 5.47033 17.935L5.36148 15.0107L4.83323 13.9727L4.30948 15.6343C3.88312 16.9869 3.45219 18.3538 3.44689 18.3697L3.44542 18.3741C3.4312 18.4154 3.41534 18.4557 3.39793 18.4949H5.60062ZM15.3341 10.1905L13.945 10.7476C13.8256 10.7955 13.6913 10.79 13.5762 10.7324L12.5803 10.2345C12.3248 10.106 12.0421 10.1814 11.9154 10.3576C11.7266 10.62 11.8212 10.9649 12.0912 11.1L13.4752 11.7932C13.6352 11.874 13.8235 11.8878 13.9952 11.8305L13.997 11.8299L15.6245 11.295C15.8599 11.2176 16.1135 11.3451 16.1919 11.5801L17.0119 14.0401C17.0542 14.167 17.0379 14.3061 16.9674 14.4197C16.8969 14.5333 16.7795 14.6097 16.6471 14.6281L13.9342 15.006C13.7447 15.0312 13.5639 15.1155 13.4172 15.2484L11.5887 16.907C11.3233 17.1503 11.2868 17.5318 11.4612 17.7666L11.4627 17.7686C11.6826 18.068 12.1049 18.1047 12.3724 17.8619L14.0696 16.3172C14.1398 16.2533 14.2284 16.2132 14.3227 16.2027L17.3802 15.8627C17.5921 15.8392 17.7914 15.9674 17.8577 16.17L18.5594 18.3143L20.1944 21.0376C20.3071 21.2275 20.509 21.3349 20.72 21.3349C20.8393 21.3349 20.9588 21.3009 21.068 21.2271C21.3184 21.058 21.4073 20.6679 21.2143 20.3468L19.7616 17.9265C19.7299 17.8737 19.7094 17.8149 19.7013 17.7537L18.9613 12.1387C18.9407 11.982 19.0038 11.826 19.1275 11.7276C19.2513 11.6293 19.4176 11.6031 19.5656 11.6586L20.8181 12.1286C20.9282 12.17 21.0178 12.2528 21.0676 12.3593L21.8101 13.9468C21.8932 14.1247 22.0727 14.2324 22.26 14.2324C22.3575 14.2324 22.4617 14.2025 22.559 14.132C22.7307 14.0048 22.8051 13.7304 22.6874 13.4781L21.8922 11.7827C21.797 11.5788 21.6336 11.4145 21.4292 11.3163L21.4281 11.3158L19.62 10.4629L19.6191 10.4624C19.4667 10.3916 19.3123 10.3403 19.1574 10.3132L19.1519 10.3122L17.4219 9.98721C16.7212 9.85556 15.995 9.92709 15.3341 10.1905Z" fill="black"/>
</g>
<defs>
<clipPath id="clip0_12916_46166">
<rect width="24" height="24" fill="black"/>
</clipPath>
</defs>
</svg>
