<svg xmlns="http://www.w3.org/2000/svg" fill="none" viewBox="0 0 24 24" id="Online-Learning-Ar-Education-1--Streamline-Ultimate">
  <desc>
    Online Learning Ar Education 1 Streamline Icon: https://streamlinehq.com
  </desc>
  <path stroke="#000000" stroke-linecap="round" stroke-linejoin="round" d="M3.55 14.917c-0.17724 -0.0025 -0.3519 0.0425 -0.5058 0.1305 -0.1539 0.0879 -0.2814 0.2155 -0.3692 0.3695L0.5 20.917h23l-2.175 -5.5c-0.0878 -0.154 -0.2153 -0.2816 -0.3692 -0.3695 -0.1539 -0.088 -0.3286 -0.133 -0.5058 -0.1305" stroke-width="1"></path>
  <path stroke="#000000" stroke-linecap="round" stroke-linejoin="round" d="m0.5 20.914 0.535 1.786c0.06174 0.2061 0.1883 0.3868 0.36088 0.5152 0.17258 0.1284 0.38199 0.1978 0.59712 0.1978h20.013c0.2151 0 0.4245 -0.0694 0.5971 -0.1978 0.1726 -0.1284 0.2992 -0.3091 0.3609 -0.5152l0.535 -1.787" stroke-width="1"></path>
  <path stroke="#000000" d="M19.375 18.164c-0.2071 0 -0.375 -0.1679 -0.375 -0.375s0.1679 -0.375 0.375 -0.375" stroke-width="1"></path>
  <path stroke="#000000" d="M19.375 18.164c0.2071 0 0.375 -0.1679 0.375 -0.375s-0.1679 -0.375 -0.375 -0.375" stroke-width="1"></path>
  <path stroke="#000000" stroke-linecap="round" stroke-linejoin="round" d="M12 15.586V3.44601S11.164 0.854013 4.005 0.587013c-0.14577 -0.013302 -0.29273 0.002409 -0.43239 0.046228 -0.13966 0.043818 -0.26925 0.114874 -0.38129 0.209063 -0.11204 0.09419 -0.20431 0.209646 -0.27148 0.339696 -0.06716 0.13006 -0.1079 0.27213 -0.11984 0.41801V11.728c0.02548 0.2829 0.15941 0.545 0.37377 0.7314s0.49251 0.2827 0.77623 0.2686c7.2 0.254 8.053 2.86 8.053 2.86" stroke-width="1"></path>
  <path stroke="#000000" stroke-linecap="round" stroke-linejoin="round" d="M5.774 4.10001c1.37233 0.11216 2.72039 0.4276 4 0.936" stroke-width="1"></path>
  <path stroke="#000000" stroke-linecap="round" stroke-linejoin="round" d="M5.774 7.10001c1.37233 0.11216 2.72039 0.4276 4 0.936" stroke-width="1"></path>
  <path stroke="#000000" stroke-linecap="round" stroke-linejoin="round" d="M5.774 10.1c0.74323 0.075 1.48101 0.1965 2.209 0.364" stroke-width="1"></path>
  <path stroke="#000000" stroke-linecap="round" stroke-linejoin="round" d="M18.226 4.10001c-1.3703 0.1126 -2.7163 0.42804 -3.994 0.936" stroke-width="1"></path>
  <path stroke="#000000" stroke-linecap="round" stroke-linejoin="round" d="M18.226 7.10001c-1.3703 0.1126 -2.7163 0.42804 -3.994 0.936" stroke-width="1"></path>
  <path stroke="#000000" stroke-linecap="round" stroke-linejoin="round" d="M16.2 10.425c-0.6725 0.1431 -1.3304 0.3484 -1.965 0.613" stroke-width="1"></path>
  <path stroke="#000000" stroke-linecap="round" stroke-linejoin="round" d="M12 15.586V3.446s0.837 -2.592001 8 -2.859001c0.1454 -0.012608 0.2918 0.003623 0.4309 0.04776 0.1391 0.044137 0.2681 0.115311 0.3796 0.209435 0.1115 0.094125 0.2033 0.209346 0.2701 0.339046 0.0669 0.1297 0.1074 0.27133 0.1194 0.41676v10.128c-0.0255 0.2829 -0.1594 0.545 -0.3738 0.7314 -0.2143 0.1864 -0.4925 0.2827 -0.7762 0.2686 -7.2 0.254 -8.054 2.86 -8.054 2.86" stroke-width="1"></path>
</svg>