<svg width="24" height="24" viewBox="0 0 24 24" fill="none" xmlns="http://www.w3.org/2000/svg">
<path d="M6.9375 17.625C6.9375 17.9434 6.69336 18.1875 6.375 18.1875C2.96289 18.1875 0.1875 15.4121 0.1875 12C0.1875 8.58789 2.96289 5.8125 6.375 5.8125H10.6504L8.60547 3.76953C8.38086 3.5625 8.38086 3.20703 8.60547 2.98047C8.8125 2.75586 9.16797 2.75586 9.39453 2.98047L12.3945 5.98047C12.6191 6.1875 12.6191 6.54297 12.3945 6.76953L9.39453 9.76953C9.28125 9.88086 9.13086 9.9375 9 9.9375C8.86914 9.9375 8.71875 9.88086 8.60547 9.76953C8.38086 9.5625 8.38086 9.20703 8.60547 8.98047L10.6504 6.9375H6.375C3.58203 6.9375 1.3125 9.20703 1.3125 12C1.3125 14.793 3.58203 17.0625 6.375 17.0625C6.69336 17.0625 6.9375 17.3066 6.9375 17.625Z" fill="black"/>
<path d="M17.0625 6.37499C17.0625 6.05663 17.3066 5.81249 17.625 5.81249C21.0371 5.81249 23.8125 8.58788 23.8125 12C23.8125 15.4121 21.0371 18.1875 17.625 18.1875H13.3496L15.3945 20.2305C15.6191 20.4375 15.6191 20.793 15.3945 21.0195C15.2813 21.1309 15.1309 21.1875 15 21.1875C14.8691 21.1875 14.7188 21.1309 14.6055 21.0195L11.6055 18.0195C11.3809 17.8125 11.3809 17.457 11.6055 17.2305L14.6055 14.2305C14.8125 14.0059 15.168 14.0059 15.3945 14.2305C15.6191 14.4375 15.6191 14.793 15.3945 15.0195L13.3496 17.0625H17.625C20.418 17.0625 22.6875 14.793 22.6875 12C22.6875 9.20702 20.418 6.93749 17.625 6.93749C17.3066 6.93749 17.0625 6.69335 17.0625 6.37499Z" fill="black"/>
</svg>
