<?xml version="1.0" encoding="UTF-8"?>
<svg xmlns="http://www.w3.org/2000/svg" xmlns:xlink="http://www.w3.org/1999/xlink" width="37.5pt" height="37.5pt" viewBox="0 0 37.5 37.5" version="1.1">
<g id="surface4338">
<path style=" stroke:none;fill-rule:nonzero;fill:rgb(0%,0%,0%);fill-opacity:1;" d="M 18.964844 3.203125 C 16.34375 3.191406 13.703125 3.648438 11.246094 4.625 C 6.707031 6.445312 3.207031 9.800781 1.675781 13.847656 C 0.347656 17.34375 0.578125 21.128906 2.285156 24.511719 C 5.203125 30.265625 11.332031 33.703125 18.671875 33.703125 C 22.691406 33.703125 26.074219 30.871094 26.710938 27 C 26.796875 26.535156 26.476562 26.074219 25.988281 25.988281 C 25.523438 25.898438 25.0625 26.21875 24.976562 26.710938 C 24.453125 29.773438 21.796875 31.96875 18.644531 31.96875 C 11.96875 31.96875 6.417969 28.878906 3.785156 23.730469 C 2.339844 20.785156 2.140625 17.488281 3.296875 14.453125 C 4.652344 10.867188 7.777344 7.863281 11.878906 6.242188 C 19.078125 3.382812 27.980469 5.320312 32.578125 10.753906 L 32.835938 11.070312 C 33.445312 11.765625 33.558594 11.910156 33.992188 12.804688 C 34.949219 14.800781 34.253906 17.171875 32.375 18.355469 C 31.679688 18.789062 31.132812 18.992188 30.582031 18.992188 L 28.789062 18.992188 C 27.316406 18.992188 25.988281 19.859375 25.351562 21.1875 C 25.148438 21.621094 25.351562 22.140625 25.785156 22.34375 C 26.21875 22.546875 26.738281 22.34375 26.941406 21.910156 C 27.257812 21.1875 27.980469 20.726562 28.789062 20.726562 L 30.582031 20.726562 C 31.710938 20.726562 32.605469 20.234375 33.269531 19.828125 C 35.960938 18.183594 36.914062 14.859375 35.582031 12.054688 C 35.035156 10.957031 34.804688 10.667969 34.167969 9.945312 L 33.90625 9.625 C 30.429688 5.53125 24.738281 3.226562 18.964844 3.203125 Z M 21.632812 6.710938 C 20.976562 6.6875 20.324219 6.859375 19.765625 7.210938 C 18.238281 8.167969 17.777344 10.183594 18.738281 11.710938 C 19.695312 13.242188 21.710938 13.703125 23.238281 12.742188 C 24.765625 11.785156 25.230469 9.769531 24.269531 8.242188 C 23.699219 7.328125 22.710938 6.753906 21.632812 6.710938 Z M 13.507812 7.988281 C 12.851562 7.960938 12.199219 8.132812 11.640625 8.484375 C 10.113281 9.441406 9.652344 11.457031 10.609375 12.984375 C 11.566406 14.515625 13.582031 14.976562 15.113281 14.019531 C 16.640625 13.058594 17.101562 11.042969 16.144531 9.515625 C 15.570312 8.601562 14.585938 8.03125 13.507812 7.988281 Z M 28.859375 10.472656 C 28.203125 10.445312 27.550781 10.617188 26.996094 10.96875 C 25.464844 11.925781 25.003906 13.941406 25.960938 15.472656 C 26.921875 17 28.9375 17.460938 30.464844 16.503906 C 31.992188 15.542969 32.457031 13.527344 31.496094 12 C 30.925781 11.085938 29.9375 10.515625 28.859375 10.472656 Z M 8.050781 14.375 C 7.394531 14.347656 6.742188 14.523438 6.183594 14.871094 C 4.65625 15.832031 4.195312 17.847656 5.152344 19.375 C 6.113281 20.902344 8.128906 21.367188 9.65625 20.40625 C 11.183594 19.449219 11.648438 17.433594 10.6875 15.90625 C 10.117188 14.992188 9.128906 14.417969 8.050781 14.375 Z M 18.207031 20.6875 C 17.34375 20.660156 16.457031 20.875 15.667969 21.363281 C 13.585938 22.664062 12.949219 25.4375 14.25 27.519531 C 14.886719 28.53125 15.871094 29.222656 17.054688 29.511719 C 17.402344 29.601562 17.71875 29.628906 18.066406 29.628906 C 18.90625 29.628906 19.714844 29.398438 20.4375 28.933594 C 22.519531 27.632812 23.152344 24.859375 21.851562 22.777344 C 21.039062 21.476562 19.652344 20.742188 18.207031 20.6875 Z M 18.039062 22.429688 C 18.960938 22.429688 19.859375 22.894531 20.378906 23.703125 C 21.1875 24.976562 20.785156 26.679688 19.511719 27.488281 C 18.90625 27.867188 18.152344 28.011719 17.429688 27.835938 C 16.707031 27.664062 16.101562 27.230469 15.726562 26.621094 C 14.914062 25.351562 15.320312 23.644531 16.59375 22.835938 C 17.054688 22.546875 17.546875 22.429688 18.039062 22.429688 Z M 18.039062 22.429688 "/>
</g>
</svg>
