<svg width="24" height="24" viewBox="0 0 24 24" fill="none" xmlns="http://www.w3.org/2000/svg">
<path d="M19.35 7.3625V3.6075C19.35 2.885 18.76 2.3125 18.055 2.3125H4.08751C3.36751 2.3125 2.79251 2.905 2.79251 3.6075V7.345C2.79251 8.065 3.38501 8.64 4.08751 8.64H18.055C18.76 8.6575 19.35 8.065 19.35 7.3625ZM3.88501 7.3625V3.6075C3.88501 3.4975 3.97751 3.4225 4.07001 3.4225H18.0375C18.1475 3.4225 18.2225 3.515 18.2225 3.6075V7.345C18.2225 7.455 18.13 7.53 18.0375 7.53H4.08751C3.97751 7.5475 3.88501 7.455 3.88501 7.3625Z" fill="black"/>
<path d="M12.285 11.4325L19.2775 10.36C20.2575 10.1925 20.98 9.3425 20.98 8.3425V5.68C20.98 5.365 20.7375 5.125 20.425 5.125C20.11 5.125 19.87 5.365 19.87 5.68V8.325C19.87 8.7875 19.535 9.175 19.0925 9.25L12.1 10.3225C11.1175 10.49 10.3975 11.34 10.3975 12.34V13.745H9.86001C9.54501 13.745 9.30501 13.985 9.30501 14.3V20.775C9.30501 21.09 9.54501 21.33 9.86001 21.33H12.08C12.395 21.33 12.635 21.09 12.635 20.775V14.3C12.635 13.985 12.395 13.745 12.08 13.745H11.5075V12.34C11.5075 11.895 11.84 11.5075 12.285 11.4325ZM10.97 20.24H10.415V14.875H10.97V20.24Z" fill="black"/>
</svg>
