<svg width="24" height="24" viewBox="0 0 24 24" fill="none" xmlns="http://www.w3.org/2000/svg">
<path d="M21.645 16.0951C21.645 15.7801 21.405 15.5401 21.09 15.5401C20.775 15.5401 20.535 15.7801 20.535 16.0951V21.0901C20.535 21.8126 19.9625 22.3851 19.24 22.3851H13.69C13.375 22.3851 13.135 22.6251 13.135 22.9401C13.135 23.2551 13.375 23.4951 13.69 23.4951H19.24C20.5725 23.4951 21.645 22.4226 21.645 21.0901V16.0951Z" fill="black"/>
<path d="M16.465 11.2851H7.215C6.9 11.2851 6.66 11.5251 6.66 11.8401C6.66 12.1551 6.9 12.3951 7.215 12.3951H16.465C16.78 12.3951 17.02 12.1551 17.02 11.8401C17.02 11.5251 16.78 11.2851 16.465 11.2851Z" fill="black"/>
<path d="M9.065 6.84506H14.615C14.93 6.84506 15.17 6.60506 15.17 6.29006C15.17 5.97506 14.93 5.73506 14.615 5.73506H9.065C8.75 5.73506 8.51 5.97506 8.51 6.29006C8.51 6.60506 8.75 6.84506 9.065 6.84506Z" fill="black"/>
<path d="M14.615 14.9851H7.215C6.9 14.9851 6.66 15.2251 6.66 15.5401C6.66 15.8551 6.9 16.0951 7.215 16.0951H14.615C14.93 16.0951 15.17 15.8551 15.17 15.5401C15.17 15.2251 14.93 14.9851 14.615 14.9851Z" fill="black"/>
<path d="M21.645 2.59006C21.645 1.25756 20.5725 0.185059 19.24 0.185059H4.44C3.1075 0.185059 2.035 1.25756 2.035 2.59006V21.0901C2.035 22.4226 3.1075 23.4951 4.44 23.4951C13.93 23.4951 21.645 15.7801 21.645 6.29006V2.59006ZM20.535 6.29006C20.535 15.1701 13.32 22.3851 4.44 22.3851C3.7175 22.3851 3.145 21.8126 3.145 21.0901V2.59006C3.145 1.86756 3.7175 1.29506 4.44 1.29506H19.24C19.9625 1.29506 20.535 1.86756 20.535 2.59006V6.29006Z" fill="black"/>
</svg>
