<svg width="24" height="24" viewBox="0 0 24 24" fill="none" xmlns="http://www.w3.org/2000/svg">
<path d="M6.43167 8.84951C6.59964 9.11319 6.95706 9.1874 7.19925 9.01944C7.46292 8.84951 7.53714 8.49405 7.36917 8.2499L5.73831 5.73819C5.68167 5.64444 5.71878 5.56826 5.73831 5.53115C5.75589 5.49405 5.81253 5.4374 5.92581 5.4374L22.5196 7.4999C22.6133 7.51944 22.6504 7.57412 22.668 7.63076C22.6875 7.6874 22.7071 7.74405 22.6309 7.81826L11.25 20.0429C11.1869 20.1076 11.1224 20.1032 11.0817 20.1004L11.0778 20.1002C11.0722 20.0998 11.0671 20.0995 11.0625 20.0995C11.0254 20.0819 10.9492 20.0429 10.9317 19.9491L10.4434 16.1054C10.435 16.0522 10.4306 15.9946 10.4262 15.9366C10.4214 15.8731 10.4165 15.8091 10.4063 15.7499C10.3321 13.9491 11.418 12.3183 13.125 11.6991L16.7617 10.3866C17.0625 10.2753 17.2129 9.95694 17.0996 9.67569C16.9883 9.3749 16.668 9.22451 16.3867 9.3378L12.75 10.6503C10.4258 11.494 9.01956 13.8007 9.31839 16.2558L9.80667 20.0995C9.86331 20.6054 10.2188 21.0194 10.7071 21.1874C10.8379 21.2245 10.9883 21.244 11.1192 21.244C11.4746 21.244 11.8125 21.0937 12.0742 20.8319L23.4571 8.60537C23.793 8.2499 23.9063 7.72451 23.7383 7.25576C23.5684 6.78701 23.1563 6.46865 22.668 6.39444L6.05667 4.33194C5.55081 4.2753 5.06253 4.4999 4.78128 4.93155C4.50003 5.36319 4.51956 5.90616 4.80081 6.3378L6.43167 8.84951Z" fill="black"/>
<path d="M3.33792 13.8183C3.39456 13.8183 3.46878 13.8007 3.52542 13.7812L7.05081 12.5058C7.34964 12.3944 7.50003 12.0741 7.38675 11.7929C7.27542 11.494 6.95706 11.3437 6.67581 11.4569L3.15042 12.7304C2.84964 12.8437 2.69925 13.162 2.81253 13.4433C2.88675 13.6874 3.09378 13.8183 3.33792 13.8183Z" fill="black"/>
<path d="M1.94925 17.1562C1.89456 17.1757 1.81839 17.1933 1.76175 17.1933C1.53714 17.1933 1.31253 17.0429 1.23831 16.8183C1.12503 16.537 1.27542 16.2187 1.57425 16.1054L7.55667 13.9315C7.83792 13.8183 8.15628 13.9687 8.26956 14.2694C8.38089 14.5507 8.2305 14.869 7.93167 14.9804L1.94925 17.1562Z" fill="black"/>
</svg>
