<svg width="24" height="24" viewBox="0 0 24 24" fill="none" xmlns="http://www.w3.org/2000/svg">
<path d="M18.7775 10.3601C16.76 10.3601 14.9475 11.6551 14.3 13.5601C14.2075 13.8576 14.355 14.1701 14.6525 14.2626C14.9475 14.3551 15.2625 14.2076 15.355 13.9126C15.855 12.4501 17.2225 11.4701 18.7775 11.4701C20.775 11.4701 22.385 13.0801 22.385 15.0776C22.385 17.0751 20.775 18.6851 18.7775 18.6851H7.6775C4.1625 18.6851 1.295 15.8176 1.295 12.3026C1.295 8.78756 4.1625 5.92006 7.6775 5.92006C10.25 5.92006 12.5425 7.43756 13.5425 9.80506C13.6725 10.0826 13.985 10.2126 14.2625 10.1001C14.54 9.99006 14.67 9.65756 14.56 9.38006C13.375 6.60506 10.675 4.82756 7.66 4.82756C3.5525 4.81006 0.184998 8.17756 0.184998 12.3026C0.184998 16.4276 3.5525 19.7951 7.6775 19.7951H18.7775C21.385 19.7951 23.495 17.6851 23.495 15.0776C23.495 12.4701 21.385 10.3601 18.7775 10.3601Z" fill="black"/>
<path d="M22.94 7.58506H20.61C20.5175 6.58506 20.1475 5.66006 19.5725 4.90256L21.1825 3.29256C21.405 3.07006 21.405 2.72006 21.1825 2.51506C20.96 2.29506 20.61 2.29506 20.405 2.51506L18.815 4.10756C18.075 3.47756 17.13 3.05256 16.1125 2.92256V0.740059C16.1125 0.425059 15.8725 0.185059 15.5575 0.185059C15.245 0.185059 15.0025 0.425059 15.0025 0.740059V2.88506C14.3925 2.94256 13.82 3.09006 13.265 3.34756C12.9875 3.47756 12.875 3.81006 13.005 4.08756C13.135 4.36506 13.4675 4.47756 13.745 4.34756C14.2825 4.08756 14.875 3.96006 15.465 3.96006C17.705 3.96006 19.535 5.79006 19.535 8.03006C19.535 8.25006 19.5175 8.49256 19.48 8.71256C19.425 9.01006 19.6275 9.30506 19.9425 9.36006C19.98 9.36006 19.9975 9.36006 20.035 9.36006C20.295 9.36006 20.535 9.17506 20.59 8.89756C20.61 8.82506 20.61 8.75006 20.61 8.69506H22.94C23.255 8.69506 23.495 8.45506 23.495 8.14006C23.495 7.82506 23.255 7.58506 22.94 7.58506Z" fill="black"/>
</svg>
