<svg width="24" height="24" viewBox="0 0 24 24" fill="none" xmlns="http://www.w3.org/2000/svg">
<g clip-path="url(#clip0_12916_46212)">
<path d="M17.9062 0.9375C17.6816 0.712891 17.3242 0.712891 17.1191 0.9375C16.8945 1.16211 16.8945 1.51953 17.1191 1.72461L18.3008 2.90625C17.793 3.11328 17.0254 3.375 16.125 3.44922C14.8691 3.5625 13.2188 3.28125 12.5996 3.16797L12.5862 3.16567C12.2754 3.11223 12.0713 3.07714 11.8691 3.28125C11.8125 3.33789 11.7559 3.41211 11.7383 3.48828L8.96289 11.5508C8.86914 11.8496 9.01953 12.168 9.31836 12.2617C9.375 12.2812 9.44922 12.3008 9.50586 12.3008C9.73047 12.3008 9.95703 12.1504 10.0312 11.9258L12.6562 4.3125C13.4258 4.44336 14.9805 4.6875 16.2383 4.57422C17.2129 4.48047 18.207 4.19922 19.1621 3.75L20.4004 4.98828C19.9687 5.8125 19.707 6.69336 19.6309 7.63086C19.5 8.98047 19.7441 10.707 19.875 11.5117L10.0117 14.9434L15.4316 9.52539C15.6562 9.30078 15.6562 8.94336 15.4316 8.73828C15.207 8.51172 14.8496 8.51172 14.6445 8.73828L7.48047 15.8809C7.33203 16.0313 7.27539 16.2559 7.34961 16.4629C7.42578 16.6875 7.65039 16.8379 7.875 16.8379C7.93164 16.8379 8.00586 16.8184 8.0625 16.8008L20.6621 12.4316C20.7383 12.4121 20.8125 12.3555 20.8691 12.3008C21.0742 12.0938 21.0566 11.9062 20.9805 11.5312C20.8691 10.8555 20.6055 9.07422 20.7187 7.74414C20.7754 7.06836 20.9434 6.43164 21.207 5.83203L22.4062 7.03125C22.5195 7.14453 22.668 7.19922 22.8008 7.19922C22.9316 7.19922 23.082 7.14453 23.1934 7.03125C23.418 6.80664 23.418 6.44922 23.1934 6.24414L17.9062 0.9375Z" fill="black"/>
<path d="M17.3242 7.63086L17.8867 7.06836C18.1133 6.84375 18.1133 6.48828 17.8867 6.28125C17.6621 6.05664 17.3066 6.05664 17.0996 6.28125L16.5371 6.84375C16.3125 7.06836 16.3125 7.42578 16.5371 7.63086C16.6504 7.74414 16.8008 7.80078 16.9316 7.80078C17.0625 7.80078 17.2129 7.74414 17.3242 7.63086Z" fill="black"/>
<path fill-rule="evenodd" clip-rule="evenodd" d="M14.0625 21.75C7.55664 21.75 2.25 16.4434 2.25 9.9375V8.55078C1.18164 8.30664 0.375 7.33203 0.375 6.1875C0.375 4.83789 1.46289 3.75 2.8125 3.75C4.16211 3.75 5.25 4.83789 5.25 6.1875C5.25 7.33203 4.44336 8.28711 3.375 8.55078V9.9375C3.375 15.8242 8.17578 20.625 14.0625 20.625H15.4492C15.6934 19.5566 16.668 18.75 17.8125 18.75C19.1621 18.75 20.25 19.8379 20.25 21.1875C20.25 22.5371 19.1621 23.625 17.8125 23.625C16.668 23.625 15.7129 22.8184 15.4492 21.75H14.0625ZM19.125 21.1875C19.125 20.457 18.543 19.875 17.8125 19.875C17.082 19.875 16.5 20.457 16.5 21.1875C16.5 21.918 17.082 22.5 17.8125 22.5C18.543 22.5 19.125 21.918 19.125 21.1875ZM4.125 6.1875C4.125 5.45703 3.54297 4.875 2.8125 4.875C2.08203 4.875 1.5 5.45703 1.5 6.1875C1.5 6.91797 2.08203 7.5 2.8125 7.5C3.54297 7.5 4.125 6.91797 4.125 6.1875Z" fill="black"/>
</g>
<defs>
<clipPath id="clip0_12916_46212">
<rect width="24" height="24" fill="black"/>
</clipPath>
</defs>
</svg>
