<svg width="24" height="24" viewBox="0 0 24 24" fill="none" xmlns="http://www.w3.org/2000/svg">
<path d="M3.1275 20.5525C3.2375 20.665 3.385 20.72 3.515 20.72C3.645 20.72 3.7925 20.665 3.9025 20.5525L19.61 4.84746V7.58496C19.61 7.89996 19.85 8.13996 20.165 8.13996C20.48 8.13996 20.72 7.89996 20.72 7.58496V3.51496C20.72 3.19996 20.48 2.95996 20.165 2.95996H16.095C15.78 2.95996 15.54 3.19996 15.54 3.51496C15.54 3.82996 15.78 4.06996 16.095 4.06996H18.8325L3.1275 19.7775C2.905 19.9975 2.905 20.3325 3.1275 20.5525Z" fill="black"/>
<path d="M6.29 4.80996C4.4575 4.80996 2.96 6.30746 2.96 8.13996C2.96 9.97246 4.4575 11.47 6.29 11.47C8.1225 11.47 9.62 9.97246 9.62 8.13996C9.62 6.30746 8.1225 4.80996 6.29 4.80996ZM6.29 10.36C5.07 10.36 4.07 9.35996 4.07 8.13996C4.07 6.91996 5.07 5.91996 6.29 5.91996C7.51 5.91996 8.51 6.91996 8.51 8.13996C8.51 9.35996 7.51 10.36 6.29 10.36Z" fill="black"/>
<path d="M12.025 17.205C12.025 19.0375 13.5225 20.535 15.355 20.535C17.1875 20.535 18.685 19.0375 18.685 17.205C18.685 15.3725 17.1875 13.875 15.355 13.875C13.5225 13.875 12.025 15.3725 12.025 17.205ZM17.575 17.205C17.575 18.425 16.575 19.425 15.355 19.425C14.135 19.425 13.135 18.425 13.135 17.205C13.135 15.985 14.135 14.985 15.355 14.985C16.575 14.985 17.575 15.985 17.575 17.205Z" fill="black"/>
</svg>
