<svg width="24" height="24" viewBox="0 0 24 24" fill="none" xmlns="http://www.w3.org/2000/svg">
<g clip-path="url(#clip0_12916_46208)">
<path d="M21 0.9375C21.3184 0.9375 21.5625 1.18164 21.5625 1.5V5.25C21.5625 5.56836 21.3184 5.8125 21 5.8125H17.25C16.9316 5.8125 16.6875 5.56836 16.6875 5.25C16.6875 4.93164 16.9316 4.6875 17.25 4.6875H19.7813C17.7754 2.53125 14.9805 1.3125 12 1.3125C11.5508 1.3125 11.1191 1.33203 10.668 1.38672C10.3691 1.42578 10.0879 1.19922 10.0508 0.900391C10.0117 0.59961 10.2383 0.318359 10.5371 0.28125C11.0254 0.22461 11.5117 0.1875 12 0.1875C15.207 0.1875 18.2246 1.46289 20.4375 3.73047V1.5C20.4375 1.18164 20.6816 0.9375 21 0.9375Z" fill="black"/>
<path d="M0.84375 13.9492C0.5625 13.9492 0.318359 13.7441 0.28125 13.4629C0.22461 12.9746 0.1875 12.4883 0.1875 12C0.1875 8.79297 1.46289 5.77539 3.73047 3.5625H1.5C1.18164 3.5625 0.9375 3.31836 0.9375 3C0.9375 2.68164 1.18164 2.4375 1.5 2.4375H5.25C5.56836 2.4375 5.8125 2.68164 5.8125 3V6.75C5.8125 7.06836 5.56836 7.3125 5.25 7.3125C4.93164 7.3125 4.6875 7.06836 4.6875 6.75V4.21875C2.53125 6.22461 1.3125 9.01953 1.3125 12C1.3125 12.4492 1.33203 12.8809 1.40625 13.332C1.44336 13.6309 1.21875 13.9121 0.917969 13.9492H0.84375Z" fill="black"/>
<path d="M23.0996 10.0508C22.8008 10.0879 22.5742 10.3691 22.6133 10.668C22.668 11.0996 22.6875 11.5508 22.6875 12C22.6875 14.9805 21.4688 17.7754 19.3125 19.7813V17.25C19.3125 16.9316 19.0684 16.6875 18.75 16.6875C18.4316 16.6875 18.1875 16.9316 18.1875 17.25V21C18.1875 21.3184 18.4316 21.5625 18.75 21.5625H22.5C22.8184 21.5625 23.0625 21.3184 23.0625 21C23.0625 20.6816 22.8184 20.4375 22.5 20.4375H20.2695C22.5371 18.2246 23.8125 15.207 23.8125 12C23.8125 11.5117 23.7754 11.0254 23.7188 10.5371C23.6816 10.2383 23.4004 10.0117 23.0996 10.0508Z" fill="black"/>
<path d="M6.75 18.1875C7.06836 18.1875 7.3125 18.4316 7.3125 18.75C7.3125 19.0684 7.06836 19.3125 6.75 19.3125H4.21875C6.22461 21.4688 9.01953 22.6875 12 22.6875C12.4492 22.6875 12.9004 22.668 13.332 22.6133C13.6309 22.5742 13.9121 22.8008 13.9492 23.0996C13.9883 23.4004 13.7617 23.6816 13.4629 23.7188C12.9746 23.7754 12.4883 23.8125 12 23.8125C8.79297 23.8125 5.77539 22.5371 3.5625 20.2695V22.5C3.5625 22.8184 3.31836 23.0625 3 23.0625C2.68164 23.0625 2.4375 22.8184 2.4375 22.5V18.75C2.4375 18.4316 2.68164 18.1875 3 18.1875H6.75Z" fill="black"/>
</g>
<defs>
<clipPath id="clip0_12916_46208">
<rect width="24" height="24" fill="black"/>
</clipPath>
</defs>
</svg>
