<svg width="24" height="24" viewBox="0 0 24 24" fill="none" xmlns="http://www.w3.org/2000/svg">
<g clip-path="url(#clip0_13117_340)">
<path d="M8.78749 21.755C8.34249 22.1625 7.75249 22.385 7.15999 22.385C6.84499 22.385 6.60499 22.625 6.60499 22.94C6.60499 23.255 6.84499 23.495 7.15999 23.495C8.02999 23.495 8.87999 23.18 9.52749 22.5875C9.74999 22.385 9.76749 22.0325 9.56499 21.8125C9.37999 21.57 9.02749 21.5525 8.78749 21.755Z" fill="black"/>
<path d="M11.84 0.740005C14.17 0.740005 16.3725 1.6825 18.0375 3.405C19.7025 5.105 20.6275 7.34501 20.645 9.69501C20.645 9.99001 20.905 10.25 21.2 10.25C21.515 10.25 21.755 9.99001 21.755 9.69501C21.72 7.06751 20.6825 4.55 18.8325 2.645C16.945 0.702505 14.4675 -0.369995 11.84 -0.369995C7.10499 -0.369995 2.79249 3.68251 2.01749 8.84251C1.97999 9.14001 2.01749 9.43501 2.14499 9.71251C2.42249 10.3225 3.08999 10.6925 3.73749 10.6C4.17999 10.545 4.79249 10.62 5.43999 10.6925C6.01249 10.7675 6.64249 10.84 7.28999 10.84C8.19499 10.84 9.15749 10.6925 10.0075 10.175C11.23 9.45251 12.0625 8.5275 12.875 7.64001C13.32 7.16001 13.7275 6.71501 14.19 6.29001C14.69 5.84501 15.1325 5.66001 15.5225 5.77251C16.17 5.95751 16.835 6.93751 17.2975 8.41751C17.39 8.71251 17.705 8.88 18 8.78751C18.2975 8.69501 18.4625 8.38 18.37 8.085C17.9625 6.7525 17.1675 5.07 15.835 4.70001C15.06 4.49501 14.2625 4.73501 13.4675 5.45751C12.95 5.92001 12.505 6.42001 12.08 6.88251C11.285 7.73251 10.545 8.54751 9.47249 9.19501C8.32499 9.88001 6.86249 9.71251 5.58749 9.56501C4.86499 9.47251 4.17999 9.39751 3.60749 9.49001C3.42249 9.51001 3.25499 9.41751 3.18249 9.25001C3.14499 9.17501 3.12749 9.08251 3.14499 9.01001C3.79249 4.44001 7.71499 0.740005 11.84 0.740005Z" fill="black"/>
<path d="M1.66499 11.655C1.66499 12.84 2.66499 13.8 3.88499 13.8H4.49499C5.54999 18.02 8.26999 20.535 11.84 20.535C12.3575 20.535 12.875 20.48 13.3575 20.3675C13.58 22.125 15.0775 23.495 16.89 23.495C17.205 23.495 17.445 23.255 17.445 22.94C17.445 22.625 17.205 22.385 16.89 22.385C15.5775 22.385 14.505 21.35 14.43 20.035C16.705 19.11 18.4075 16.9275 19.185 13.8H19.795C20.96 13.8 21.9225 12.9325 21.9975 11.8025C22.015 11.4875 21.7925 11.23 21.4775 11.21C21.1825 11.1925 20.905 11.415 20.8875 11.73C20.85 12.265 20.3675 12.69 19.7775 12.69H18.7225C18.4625 12.69 18.24 12.875 18.185 13.135C17.3525 17.075 14.985 19.425 11.84 19.425C8.69499 19.425 6.32749 17.075 5.47499 13.135C5.41999 12.875 5.19749 12.69 4.93999 12.69H3.88499C3.27499 12.69 2.77499 12.2275 2.77499 11.6375C2.77499 11.3225 2.53499 11.0825 2.21999 11.0825C1.90499 11.1 1.66499 11.34 1.66499 11.655Z" fill="black"/>
<path d="M20.665 15.355C20.35 15.355 20.11 15.595 20.11 15.91C20.11 17.445 19.0175 18.74 17.5 19C17.205 19.055 17.0025 19.3325 17.0575 19.6475C17.1125 19.925 17.335 20.11 17.6125 20.11C17.65 20.11 17.6675 20.11 17.705 20.11C19.74 19.7575 21.22 17.9825 21.22 15.91C21.22 15.595 20.96 15.355 20.665 15.355Z" fill="black"/>
<path d="M6.32749 19.0375C4.75499 18.8325 3.58999 17.5 3.58999 15.91C3.58999 15.595 3.34749 15.355 3.03499 15.355C2.71999 15.355 2.47999 15.595 2.47999 15.91C2.47999 18.055 4.06999 19.87 6.19749 20.1275C6.21499 20.1275 6.25249 20.1275 6.27249 20.1275C6.54999 20.1275 6.78999 19.925 6.82749 19.6475C6.84499 19.35 6.62249 19.0725 6.32749 19.0375Z" fill="black"/>
</g>
<defs>
<clipPath id="clip0_13117_340">
<rect width="24" height="24" fill="black"/>
</clipPath>
</defs>
</svg>
