<svg width="24" height="24" viewBox="0 0 24 24" fill="none" xmlns="http://www.w3.org/2000/svg">
<path d="M8.78749 21.7551C8.34249 22.1626 7.75249 22.3851 7.15999 22.3851C6.84499 22.3851 6.60499 22.6251 6.60499 22.9401C6.60499 23.2551 6.84499 23.4951 7.15999 23.4951C8.02999 23.4951 8.87999 23.1801 9.52749 22.5876C9.74999 22.3851 9.76749 22.0326 9.56499 21.8126C9.37999 21.5701 9.02749 21.5526 8.78749 21.7551Z" fill="black"/>
<path d="M19.185 13.8201C19.185 13.8001 19.185 13.8001 19.185 13.8201L19.795 13.8001C20.9425 13.8001 21.9225 12.9326 21.9975 11.8226C21.9975 11.8226 21.9975 11.7301 21.9975 11.6176C21.9975 11.3226 21.7375 11.0826 21.4425 11.0826C21.1275 11.0826 20.8875 11.3401 20.8875 11.6551C20.8875 11.7101 20.8875 11.7651 20.8875 11.7651C20.85 12.3026 20.3675 12.7276 19.795 12.7276H18.74C18.4825 12.7276 18.24 12.9126 18.185 13.1726C17.335 17.1126 14.9675 19.4626 11.8225 19.4626C8.69499 19.4626 6.30749 17.1126 5.45749 13.1726C5.40249 12.9126 5.16249 12.7276 4.90249 12.7276H3.88499C3.27499 12.7276 2.77499 12.2651 2.77499 11.6726C2.77499 11.3776 2.53499 11.1376 2.23749 11.1376H2.21999C1.90499 11.1001 1.66499 11.3401 1.66499 11.6376C1.66499 12.8201 2.66499 13.7826 3.88499 13.7826H4.49499C4.49499 13.7826 4.51499 13.7826 4.51499 13.8001C5.54999 18.0376 8.26999 20.5351 11.84 20.5351C12.3575 20.5351 12.8575 20.4801 13.3375 20.3876C13.3375 20.3876 13.3575 20.3876 13.3575 20.4051C13.58 22.1451 15.06 23.4951 16.8525 23.5126C17.13 23.5126 17.39 23.3276 17.4275 23.0501C17.4825 22.7001 17.2225 22.4026 16.8725 22.4026C15.5575 22.4026 14.485 21.3676 14.4125 20.0726V20.0551C16.725 19.1101 18.4075 16.9276 19.185 13.8201Z" fill="black"/>
<path d="M3.77499 9.51006C4.05249 9.65756 4.32999 9.73006 4.62499 9.73006C5.14249 9.73006 5.60499 9.51006 5.93749 9.08256C6.08749 8.89756 6.19749 8.71256 6.27249 8.52756C6.62249 7.62256 7.13999 6.23506 7.75249 6.05006C7.97249 5.97506 8.24999 6.08756 8.60249 6.32756C8.84249 6.51256 14.5975 10.6751 16.4825 10.8051C16.5025 10.8051 16.5025 10.8051 16.52 10.8051H20.165C20.3125 10.8051 20.46 10.7476 20.5525 10.6376C20.665 10.5276 20.72 10.3976 20.72 10.2501C20.7025 7.73256 19.795 5.21756 18.2225 3.33006C16.54 1.29506 14.2825 0.185059 11.84 0.185059C7.87999 0.185059 4.21749 3.16256 2.92249 7.41756L2.90499 7.45506C2.66499 8.27006 2.99749 9.10256 3.77499 9.51006ZM3.95999 7.77006L3.97749 7.73256C5.12499 3.94006 8.36249 1.29506 11.84 1.29506C13.93 1.29506 15.91 2.27506 17.3725 4.05256C18.6675 5.60506 19.4625 7.64006 19.5925 9.71256H16.5575C15.54 9.60256 12.0625 7.45506 9.26749 5.44006C8.78749 5.08756 8.34249 4.92006 7.91749 4.92006C7.75249 4.92006 7.60249 4.94006 7.45499 4.99506C6.39999 5.31006 5.82749 6.60506 5.25499 8.14006C5.21749 8.21506 5.17999 8.30756 5.10499 8.38006C5.01249 8.49256 4.86499 8.62006 4.64249 8.62006C4.53249 8.62006 4.42249 8.58506 4.30999 8.52756C3.99499 8.36256 3.86749 8.08506 3.95999 7.77006Z" fill="black"/>
</svg>
