<svg width="24" height="24" viewBox="0 0 24 24" fill="none" xmlns="http://www.w3.org/2000/svg">
<path d="M7.4925 7.21503H15.8175C16.1325 7.21503 16.3725 6.97503 16.3725 6.66003C16.3725 6.34503 16.1325 6.10503 15.8175 6.10503H7.4925C7.1775 6.10503 6.9375 6.34503 6.9375 6.66003C6.9375 6.97503 7.1775 7.21503 7.4925 7.21503Z" fill="black"/>
<path d="M7.4925 9.99003H15.8175C16.1325 9.99003 16.3725 9.75003 16.3725 9.43503C16.3725 9.12003 16.1325 8.88003 15.8175 8.88003H7.4925C7.1775 8.88003 6.9375 9.12003 6.9375 9.43503C6.9375 9.75003 7.1775 9.99003 7.4925 9.99003Z" fill="black"/>
<path d="M7.4925 12.765H11.285C11.6 12.765 11.84 12.525 11.84 12.21C11.84 11.895 11.6 11.655 11.285 11.655H7.4925C7.1775 11.655 6.9375 11.895 6.9375 12.21C6.9375 12.525 7.1775 12.765 7.4925 12.765Z" fill="black"/>
<path d="M14.5975 17.3725C14.485 17.465 14.43 17.6125 14.43 17.76C14.43 17.9075 14.485 18.055 14.5975 18.1475C14.7075 18.26 14.8375 18.315 14.985 18.315C15.1325 18.315 15.28 18.26 15.3725 18.1475C15.485 18.0375 15.54 17.9075 15.54 17.76C15.54 17.6125 15.485 17.465 15.3725 17.3725C15.17 17.1675 14.8 17.1675 14.5975 17.3725Z" fill="black"/>
<path d="M6.1975 21.645H17.4825C18.815 21.645 19.8875 20.5725 19.8875 19.24V4.44003C19.8875 3.10753 18.815 2.03503 17.4825 2.03503H6.1975C4.865 2.03503 3.7925 3.10753 3.7925 4.44003V19.24C3.7925 20.5725 4.865 21.645 6.1975 21.645ZM4.9025 4.44003C4.9025 3.71753 5.475 3.14503 6.1975 3.14503H17.4825C18.205 3.14503 18.7775 3.71753 18.7775 4.44003V19.24C18.7775 19.9625 18.205 20.535 17.4825 20.535H6.1975C5.475 20.535 4.9025 19.9625 4.9025 19.24V4.44003Z" fill="black"/>
</svg>
