<?xml version="1.0" encoding="UTF-8"?>
<svg xmlns="http://www.w3.org/2000/svg" xmlns:xlink="http://www.w3.org/1999/xlink" width="37.5pt" height="37.5pt" viewBox="0 0 37.5 37.5" version="1.1">
<g id="surface4890">
<path style=" stroke:none;fill-rule:nonzero;fill:rgb(0%,0%,0%);fill-opacity:1;" d="M 36.710938 4.046875 C 36.710938 1.964844 35.035156 0.289062 32.953125 0.289062 L 28.617188 0.289062 C 28.125 0.289062 27.75 0.664062 27.75 1.15625 C 27.75 1.648438 28.125 2.023438 28.617188 2.023438 L 32.953125 2.023438 C 34.082031 2.023438 34.976562 2.917969 34.976562 4.046875 L 34.976562 8.382812 C 34.976562 8.875 35.351562 9.25 35.84375 9.25 C 36.335938 9.25 36.710938 8.875 36.710938 8.382812 Z M 1.15625 9.25 C 1.648438 9.25 2.023438 8.875 2.023438 8.382812 L 2.023438 4.046875 C 2.023438 2.917969 2.917969 2.023438 4.046875 2.023438 L 8.382812 2.023438 C 8.875 2.023438 9.25 1.648438 9.25 1.15625 C 9.25 0.664062 8.875 0.289062 8.382812 0.289062 L 4.046875 0.289062 C 1.964844 0.289062 0.289062 1.964844 0.289062 4.046875 L 0.289062 8.382812 C 0.289062 8.875 0.664062 9.25 1.15625 9.25 Z M 4.046875 36.710938 L 8.382812 36.710938 C 8.875 36.710938 9.25 36.335938 9.25 35.84375 C 9.25 35.351562 8.875 34.976562 8.382812 34.976562 L 4.046875 34.976562 C 2.917969 34.976562 2.023438 34.082031 2.023438 32.953125 L 2.023438 28.617188 C 2.023438 28.125 1.648438 27.75 1.15625 27.75 C 0.664062 27.75 0.289062 28.125 0.289062 28.617188 L 0.289062 32.953125 C 0.289062 35.035156 1.964844 36.710938 4.046875 36.710938 Z M 36.710938 32.953125 L 36.710938 28.617188 C 36.710938 28.125 36.335938 27.75 35.84375 27.75 C 35.351562 27.75 34.976562 28.125 34.976562 28.617188 L 34.976562 32.953125 C 34.976562 34.082031 34.082031 34.976562 32.953125 34.976562 L 28.617188 34.976562 C 28.125 34.976562 27.75 35.351562 27.75 35.84375 C 27.75 36.335938 28.125 36.710938 28.617188 36.710938 L 32.953125 36.710938 C 35.035156 36.710938 36.710938 35.035156 36.710938 32.953125 Z M 30.0625 23.414062 L 24.28125 23.414062 C 23.789062 23.414062 23.414062 23.789062 23.414062 24.28125 L 23.414062 30.0625 C 23.414062 30.554688 23.789062 30.929688 24.28125 30.929688 L 30.0625 30.929688 C 30.554688 30.929688 30.929688 30.554688 30.929688 30.0625 L 30.929688 24.28125 C 30.929688 23.789062 30.554688 23.414062 30.0625 23.414062 Z M 29.195312 29.195312 L 25.148438 29.195312 L 25.148438 25.148438 L 29.195312 25.148438 Z M 16.765625 30.929688 C 17.257812 30.929688 17.632812 30.554688 17.632812 30.0625 L 17.632812 28.039062 L 20.234375 28.039062 C 20.726562 28.039062 21.101562 27.664062 21.101562 27.171875 L 21.101562 21.390625 C 21.101562 20.898438 20.726562 20.523438 20.234375 20.523438 C 19.742188 20.523438 19.367188 20.898438 19.367188 21.390625 L 19.367188 26.304688 L 16.765625 26.304688 C 16.273438 26.304688 15.898438 26.679688 15.898438 27.171875 L 15.898438 30.0625 C 15.898438 30.554688 16.273438 30.929688 16.765625 30.929688 Z M 30.0625 13.585938 C 30.554688 13.585938 30.929688 13.210938 30.929688 12.71875 L 30.929688 6.9375 C 30.929688 6.445312 30.554688 6.070312 30.0625 6.070312 L 24.28125 6.070312 C 23.789062 6.070312 23.414062 6.445312 23.414062 6.9375 L 23.414062 12.71875 C 23.414062 13.210938 23.789062 13.585938 24.28125 13.585938 Z M 25.148438 7.804688 L 29.195312 7.804688 L 29.195312 11.851562 L 25.148438 11.851562 Z M 6.9375 13.585938 L 12.71875 13.585938 C 13.210938 13.585938 13.585938 13.210938 13.585938 12.71875 L 13.585938 6.9375 C 13.585938 6.445312 13.210938 6.070312 12.71875 6.070312 L 6.9375 6.070312 C 6.445312 6.070312 6.070312 6.445312 6.070312 6.9375 L 6.070312 12.71875 C 6.070312 13.210938 6.445312 13.585938 6.9375 13.585938 Z M 7.804688 7.804688 L 11.851562 7.804688 L 11.851562 11.851562 L 7.804688 11.851562 Z M 6.9375 19.367188 L 8.382812 19.367188 C 8.875 19.367188 9.25 18.992188 9.25 18.5 C 9.25 18.007812 8.875 17.632812 8.382812 17.632812 L 6.9375 17.632812 C 6.445312 17.632812 6.070312 18.007812 6.070312 18.5 C 6.070312 18.992188 6.445312 19.367188 6.9375 19.367188 Z M 16.765625 19.367188 C 17.257812 19.367188 17.632812 18.992188 17.632812 18.5 L 17.632812 13.585938 L 20.234375 13.585938 C 20.726562 13.585938 21.101562 13.210938 21.101562 12.71875 L 21.101562 6.9375 C 21.101562 6.445312 20.726562 6.070312 20.234375 6.070312 C 19.742188 6.070312 19.367188 6.445312 19.367188 6.9375 L 19.367188 11.851562 L 16.765625 11.851562 C 16.273438 11.851562 15.898438 12.226562 15.898438 12.71875 L 15.898438 17.632812 L 14.164062 17.632812 C 13.671875 17.632812 13.296875 18.007812 13.296875 18.5 C 13.296875 18.992188 13.671875 19.367188 14.164062 19.367188 Z M 21.96875 16.765625 C 21.96875 17.257812 22.34375 17.632812 22.835938 17.632812 L 25.4375 17.632812 L 25.4375 20.234375 C 25.4375 20.726562 25.8125 21.101562 26.304688 21.101562 L 30.0625 21.101562 C 30.554688 21.101562 30.929688 20.726562 30.929688 20.234375 C 30.929688 19.742188 30.554688 19.367188 30.0625 19.367188 L 27.171875 19.367188 L 27.171875 16.765625 C 27.171875 16.273438 26.796875 15.898438 26.304688 15.898438 L 22.835938 15.898438 C 22.34375 15.898438 21.96875 16.273438 21.96875 16.765625 Z M 13.585938 30.0625 L 13.585938 24.28125 C 13.585938 23.789062 13.210938 23.414062 12.71875 23.414062 L 6.9375 23.414062 C 6.445312 23.414062 6.070312 23.789062 6.070312 24.28125 L 6.070312 30.0625 C 6.070312 30.554688 6.445312 30.929688 6.9375 30.929688 L 12.71875 30.929688 C 13.210938 30.929688 13.585938 30.554688 13.585938 30.0625 Z M 11.851562 29.195312 L 7.804688 29.195312 L 7.804688 25.148438 L 11.851562 25.148438 Z M 11.851562 29.195312 "/>
</g>
</svg>
