<svg width="24" height="24" viewBox="0 0 24 24" fill="none" xmlns="http://www.w3.org/2000/svg">
<g clip-path="url(#clip0_13116_1272)">
<path d="M13.18 18.1476C12.9675 18.2051 12.74 18.1751 12.54 18.0851L9.37501 16.6701C9.09751 16.5451 8.76751 16.6701 8.64251 16.9501C8.52001 17.2301 8.64251 17.5576 8.92251 17.6826L12.115 19.1101C12.385 19.2301 12.67 19.2901 12.95 19.2901C13.52 19.2901 14.0775 19.0501 14.4725 18.5976C14.6075 18.4451 14.7175 18.2701 14.8025 18.0826C15.1525 17.3001 14.98 16.3701 14.3225 15.7551C14.155 15.6001 13.96 15.4801 13.7525 15.3876L8.98251 13.2651C6.94251 12.3551 4.57251 12.6326 2.79751 13.9876C2.54501 14.1801 2.50251 14.5476 2.71501 14.7926C2.90751 15.0176 3.25251 15.0376 3.48751 14.8576C4.93751 13.7601 6.87001 13.5376 8.53251 14.2776L13.32 16.4126C13.4875 16.4851 13.625 16.6051 13.7225 16.7601C13.89 17.0226 13.915 17.3476 13.7875 17.6326C13.6775 17.8826 13.46 18.0726 13.18 18.1476Z" fill="black"/>
<path d="M0.287507 22.1526C0.465006 22.4026 0.815007 22.4601 1.06501 22.2826L3.38251 20.6251L8.23501 23.0701C8.82501 23.3551 9.46251 23.5001 10.1 23.5001C10.6625 23.5001 11.2275 23.3901 11.7575 23.1651L22.1825 18.7551C22.6925 18.5401 23.085 18.1351 23.285 17.6176C23.485 17.1001 23.47 16.5376 23.2375 16.0326C22.7825 15.0426 21.5725 14.5951 20.5375 15.0351L20.205 15.1751L20.115 14.9776C19.9025 14.4776 19.5075 14.0901 19.005 13.8851C18.5025 13.6826 17.9475 13.6876 17.4425 13.9001L16.12 14.4776C15.8375 14.6001 15.71 14.9276 15.8325 15.2101C15.955 15.4901 16.2825 15.6176 16.5625 15.4951L17.8825 14.9201C18.11 14.8251 18.3625 14.8226 18.59 14.9151C18.8175 15.0076 18.9975 15.1826 19.095 15.4176L19.18 15.6101L16.7425 16.6476C16.4625 16.7676 16.33 17.0951 16.45 17.3776C16.57 17.6601 16.8975 17.7901 17.1775 17.6701L20.97 16.0551C21.4575 15.8476 22.02 16.0451 22.2275 16.4951C22.3325 16.7251 22.34 16.9801 22.25 17.2151C22.16 17.4501 21.98 17.6351 21.7475 17.7326L11.325 22.1451C10.485 22.4976 9.53751 22.4726 8.72751 22.0776L3.58001 19.4851C3.39501 19.3926 3.17501 19.4101 3.00751 19.5301L0.417507 21.3801C0.167507 21.5551 0.110007 21.9051 0.287507 22.1526Z" fill="black"/>
<path d="M8.14001 7.40006C9.36501 7.40006 10.36 6.40506 10.36 5.18006C10.36 3.95506 9.36501 2.96006 8.14001 2.96006C6.91501 2.96006 5.92001 3.95506 5.92001 5.18006C5.92001 6.40506 6.91501 7.40006 8.14001 7.40006ZM8.14001 4.07006C8.75251 4.07006 9.25001 4.56756 9.25001 5.18006C9.25001 5.79256 8.75251 6.29006 8.14001 6.29006C7.52751 6.29006 7.03001 5.79256 7.03001 5.18006C7.03001 4.56756 7.52751 4.07006 8.14001 4.07006Z" fill="black"/>
<path d="M15.17 2.40506C15.17 3.63006 16.165 4.62506 17.39 4.62506C18.615 4.62506 19.61 3.63006 19.61 2.40506C19.61 1.18006 18.615 0.185059 17.39 0.185059C16.165 0.185059 15.17 1.18006 15.17 2.40506ZM17.39 1.29506C18.0025 1.29506 18.5 1.79256 18.5 2.40506C18.5 3.01756 18.0025 3.51506 17.39 3.51506C16.7775 3.51506 16.28 3.01756 16.28 2.40506C16.28 1.79256 16.7775 1.29506 17.39 1.29506Z" fill="black"/>
<path d="M11.84 9.80506C11.84 11.0301 12.835 12.0251 14.06 12.0251C15.285 12.0251 16.28 11.0301 16.28 9.80506C16.28 8.58006 15.285 7.58506 14.06 7.58506C12.835 7.58506 11.84 8.58006 11.84 9.80506ZM15.17 9.80506C15.17 10.4176 14.6725 10.9151 14.06 10.9151C13.4475 10.9151 12.95 10.4176 12.95 9.80506C12.95 9.19256 13.4475 8.69506 14.06 8.69506C14.6725 8.69506 15.17 9.19256 15.17 9.80506Z" fill="black"/>
</g>
<defs>
<clipPath id="clip0_13116_1272">
<rect width="24" height="24" fill="black"/>
</clipPath>
</defs>
</svg>
