<svg width="24" height="24" viewBox="0 0 24 24" fill="none" xmlns="http://www.w3.org/2000/svg">
<g clip-path="url(#clip0_13116_1275)">
<path d="M14.8 5.18C14.8 6.815 13.475 8.14 11.84 8.14C10.205 8.14 8.88 6.815 8.88 5.18C8.88 3.545 10.205 2.22 11.84 2.22C13.475 2.22 14.8 3.545 14.8 5.18Z" fill="black"/>
<path d="M22.3475 14.91C21.8475 14.7075 21.2925 14.7075 20.795 14.93L20.5725 15.0225C20.055 14.1525 18.98 13.7825 18.02 14.19L15.8725 15.095C15.595 15.2075 15.465 15.54 15.5775 15.8175C15.67 16.02 15.8725 16.15 16.095 16.15C16.17 16.15 16.2425 16.1325 16.3175 16.1125L18.4625 15.2075C18.8525 15.04 19.2775 15.17 19.535 15.465L15.1875 17.315C15.245 16.4825 14.8 15.67 13.985 15.3175L9.175 13.1725C7.14 12.265 4.7725 12.5425 2.9975 13.8925L2.275 14.4475C2.2575 14.4675 2.2375 14.485 2.22 14.505L2.035 14.69C1.925 14.8 1.8675 14.93 1.8675 15.0775V20.9975H0.739998C0.424998 20.9975 0.184998 21.2375 0.184998 21.5525C0.184998 21.8675 0.424998 22.1075 0.739998 22.1075H2.405C2.72 22.1075 2.96 21.8675 2.96 21.5525V15.3L3.6625 14.7625C5.125 13.6525 7.0475 13.43 8.7325 14.17L13.505 16.3175C13.7275 16.41 13.9125 16.595 13.985 16.835C14.06 17.075 14.06 17.315 13.9675 17.5375C13.875 17.76 13.69 17.9275 13.4675 18.02C13.245 18.1125 12.9875 18.0925 12.765 18L9.065 16.355C8.7875 16.225 8.455 16.355 8.325 16.6325C8.195 16.91 8.325 17.2425 8.6025 17.3725L12.3025 19.0175C12.8025 19.24 13.3575 19.2575 13.8575 19.055C13.93 19.0375 14.005 19 14.06 18.9625C14.0975 18.9625 14.115 18.945 14.135 18.945L21.2 15.9475C21.4225 15.855 21.6825 15.855 21.905 15.9475C22.125 16.04 22.31 16.225 22.4025 16.4475C22.495 16.6675 22.495 16.9275 22.4025 17.15C22.31 17.3725 22.125 17.5575 21.905 17.65L11.47 22.0525C10.6375 22.4025 9.675 22.385 8.8625 21.9775L4.4575 19.8325C4.18 19.7025 3.8475 19.8125 3.7175 20.09C3.59 20.3675 3.7 20.7025 3.9775 20.83L8.38 22.9775C8.9725 23.2725 9.6025 23.4025 10.25 23.4025C10.805 23.4025 11.3775 23.2925 11.915 23.07L22.3475 18.6675C22.8475 18.4625 23.235 18.055 23.44 17.5575C23.6425 17.0575 23.6425 16.5025 23.42 16.0025C23.235 15.5025 22.8475 15.115 22.3475 14.91Z" fill="black"/>
<path d="M21.275 5.18C21.275 4.865 21.035 4.625 20.72 4.625H18.685C18.37 4.625 18.13 4.865 18.13 5.18C18.13 5.495 18.37 5.735 18.685 5.735H20.72C21.035 5.735 21.275 5.495 21.275 5.18Z" fill="black"/>
<path d="M2.96 5.735H4.995C5.31 5.735 5.55 5.495 5.55 5.18C5.55 4.865 5.31 4.625 4.995 4.625H2.96C2.645 4.625 2.405 4.865 2.405 5.18C2.405 5.495 2.645 5.735 2.96 5.735Z" fill="black"/>
<path d="M19.0925 0.3525L17.4825 1.2775C17.2225 1.425 17.13 1.775 17.28 2.035C17.39 2.22 17.575 2.3125 17.76 2.3125C17.8525 2.3125 17.945 2.295 18.0375 2.2375L19.6475 1.3125C19.905 1.165 19.9975 0.815001 19.85 0.555001C19.7025 0.295001 19.35 0.2025 19.0925 0.3525Z" fill="black"/>
<path d="M4.31 10.0825C4.4025 10.0825 4.495 10.065 4.5875 10.0075L6.1975 9.0825C6.4575 8.935 6.55 8.585 6.4 8.325C6.2525 8.065 5.9025 7.9725 5.6425 8.1225L4.0325 9.0475C3.775 9.195 3.6825 9.545 3.83 9.805C3.94 9.99 4.125 10.0825 4.31 10.0825Z" fill="black"/>
<path d="M17.4825 9.0825L19.0925 10.0075C19.185 10.065 19.2775 10.0825 19.37 10.0825C19.555 10.0825 19.74 9.99 19.85 9.805C19.9975 9.545 19.905 9.195 19.6475 9.0475L18.0375 8.1225C17.7775 7.9725 17.4275 8.065 17.28 8.325C17.13 8.585 17.2225 8.935 17.4825 9.0825Z" fill="black"/>
<path d="M5.6425 2.2375C5.735 2.295 5.8275 2.3125 5.92 2.3125C6.105 2.3125 6.29 2.22 6.4 2.035C6.55 1.775 6.4575 1.425 6.1975 1.2775L4.5875 0.3525C4.33 0.2025 3.9775 0.295001 3.83 0.555001C3.6825 0.815001 3.775 1.165 4.0325 1.3125L5.6425 2.2375Z" fill="black"/>
<path d="M1.295 5.18C1.295 5.4875 1.0475 5.735 0.739998 5.735C0.432498 5.735 0.184998 5.4875 0.184998 5.18C0.184998 4.8725 0.432498 4.625 0.739998 4.625C1.0475 4.625 1.295 4.8725 1.295 5.18Z" fill="black"/>
<path d="M23.495 5.18C23.495 5.4875 23.2475 5.735 22.94 5.735C22.6325 5.735 22.385 5.4875 22.385 5.18C22.385 4.8725 22.6325 4.625 22.94 4.625C23.2475 4.625 23.495 4.8725 23.495 5.18Z" fill="black"/>
</g>
<defs>
<clipPath id="clip0_13116_1275">
<rect width="24" height="24" fill="black"/>
</clipPath>
</defs>
</svg>
