<svg viewBox="-3 -3 148 148" xmlns="http://www.w3.org/2000/svg" id="Religion-Hands--Streamline-Ultimate" height="148" width="148">
  <desc>
    Religion Hands Streamline Icon: https://streamlinehq.com
  </desc>
  <path d="m20.708333333333336 139.04166666666669 -11.916166666666665 -14.89225A26.625 26.625 0 0 1 2.9583333333333335 107.51175V76.91666666666667A8.875 8.875 0 0 1 11.833333333333334 68.04166666666667h0A8.875 8.875 0 0 1 20.708333333333336 76.91666666666667v22.956666666666667" fill="none" stroke="black" stroke-linecap="round" stroke-linejoin="round" stroke-width="6"></path>
  <path d="M47.333333333333336 138.23700000000002v-17.75a26.583583333333337 26.583583333333337 0 0 0 -4.478916666666667 -14.791666666666668L36.09166666666667 95.57783333333333a8.283333333333333 8.283333333333333 0 0 0 -11.69725 -2.632916666666667h0a8.283333333333333 8.283333333333333 0 0 0 -2.810416666666667 10.59675L29.583333333333336 116.85416666666667" fill="none" stroke="black" stroke-linecap="round" stroke-linejoin="round" stroke-width="6"></path>
  <path d="m121.29166666666667 139.04166666666669 11.916166666666665 -14.89225a26.625 26.625 0 0 0 5.833833333333334 -16.637666666666668V76.91666666666667a8.875 8.875 0 0 0 -8.875 -8.875h0a8.875 8.875 0 0 0 -8.875 8.875v22.956666666666667" fill="none" stroke="black" stroke-linecap="round" stroke-linejoin="round" stroke-width="6"></path>
  <path d="M94.66666666666667 138.23700000000002v-17.75a26.583583333333337 26.583583333333337 0 0 1 4.478916666666667 -14.791666666666668l6.7627500000000005 -10.1175a8.283333333333333 8.283333333333333 0 0 1 11.69725 -2.632916666666667h0a8.283333333333333 8.283333333333333 0 0 1 2.816333333333333 10.59675L112.41666666666667 116.85416666666667" fill="none" stroke="black" stroke-linecap="round" stroke-linejoin="round" stroke-width="6"></path>
  <path d="M97.625 23.666666666666668a2.9583333333333335 2.9583333333333335 0 0 0 -2.9583333333333335 -2.9583333333333335h-14.791666666666668V5.916666666666667a2.9583333333333335 2.9583333333333335 0 0 0 -2.9583333333333335 -2.9583333333333335h-11.833333333333334a2.9583333333333335 2.9583333333333335 0 0 0 -2.9583333333333335 2.9583333333333335v14.791666666666668H47.333333333333336a2.9583333333333335 2.9583333333333335 0 0 0 -2.9583333333333335 2.9583333333333335v11.833333333333334a2.9583333333333335 2.9583333333333335 0 0 0 2.9583333333333335 2.9583333333333335h14.791666666666668V76.91666666666667a2.9583333333333335 2.9583333333333335 0 0 0 2.9583333333333335 2.9583333333333335h11.833333333333334a2.9583333333333335 2.9583333333333335 0 0 0 2.9583333333333335 -2.9583333333333335V38.458333333333336H94.66666666666667a2.9583333333333335 2.9583333333333335 0 0 0 2.9583333333333335 -2.9583333333333335Z" fill="none" stroke="black" stroke-linecap="round" stroke-linejoin="round" stroke-width="6"></path>
</svg>