<svg width="24" height="24" viewBox="0 0 24 24" fill="none" xmlns="http://www.w3.org/2000/svg">
<path d="M20.6275 19.795V3.88498C20.6275 2.55248 19.555 1.47998 18.2225 1.47998H5.45749C4.12499 1.47998 3.05249 2.55248 3.05249 3.88498V19.795C3.05249 21.1275 4.12499 22.2 5.45749 22.2H18.2225C19.555 22.2 20.6275 21.1275 20.6275 19.795ZM19.5175 19.795C19.5175 20.5175 18.945 21.09 18.2225 21.09H7.67749V2.58998H18.2225C18.945 2.58998 19.5175 3.16248 19.5175 3.88498V19.795Z" fill="black"/>
<path d="M15.2625 11.84H11.5625C11.2475 11.84 11.0075 12.08 11.0075 12.395C11.0075 12.71 11.2475 12.95 11.5625 12.95H15.2625C15.5775 12.95 15.8175 12.71 15.8175 12.395C15.8175 12.08 15.5775 11.84 15.2625 11.84Z" fill="black"/>
<path d="M15.2625 13.69H11.5625C11.2475 13.69 11.0075 13.93 11.0075 14.245C11.0075 14.56 11.2475 14.8 11.5625 14.8H15.2625C15.5775 14.8 15.8175 14.56 15.8175 14.245C15.8175 13.93 15.5775 13.69 15.2625 13.69Z" fill="black"/>
<path d="M13.4125 5.36498C12.08 5.36498 11.0075 6.43748 11.0075 7.76998C11.0075 9.10248 12.08 10.175 13.4125 10.175C14.745 10.175 15.8175 9.10248 15.8175 7.76998C15.8175 6.43748 14.745 5.36498 13.4125 5.36498ZM13.4125 9.06498C12.69 9.06498 12.1175 8.49248 12.1175 7.76998C12.1175 7.04748 12.69 6.47498 13.4125 6.47498C14.135 6.47498 14.7075 7.04748 14.7075 7.76998C14.7075 8.49248 14.135 9.06498 13.4125 9.06498Z" fill="black"/>
</svg>
