<svg width="24" height="24" viewBox="0 0 24 24" fill="none" xmlns="http://www.w3.org/2000/svg">
<path d="M5.92 14.8001C5.605 14.8001 5.365 15.0401 5.365 15.3551V22.9401C5.365 23.2551 5.605 23.4951 5.92 23.4951C6.235 23.4951 6.475 23.2551 6.475 22.9401V15.3551C6.475 15.0401 6.235 14.8001 5.92 14.8001Z" fill="black"/>
<path d="M5.92 4.99506C7.2525 4.99506 8.325 3.92256 8.325 2.59006C8.325 1.25756 7.2525 0.185059 5.92 0.185059C4.5875 0.185059 3.515 1.25756 3.515 2.59006C3.515 3.92256 4.5875 4.99506 5.92 4.99506ZM5.92 1.29506C6.6425 1.29506 7.215 1.86756 7.215 2.59006C7.215 3.31256 6.6425 3.88506 5.92 3.88506C5.1975 3.88506 4.625 3.31256 4.625 2.59006C4.625 1.86756 5.1975 1.29506 5.92 1.29506Z" fill="black"/>
<path d="M3.7 16.0951C3.385 16.0951 3.145 16.3351 3.145 16.6501V22.9401C3.145 23.2551 3.385 23.4951 3.7 23.4951C4.015 23.4951 4.255 23.2551 4.255 22.9401V16.6501C4.255 16.3351 4.015 16.0951 3.7 16.0951Z" fill="black"/>
<path d="M21.09 0.185059H10.175C9.86 0.185059 9.62 0.425059 9.62 0.740059C9.62 1.05506 9.86 1.29506 10.175 1.29506H20.535V22.3851H8.695V14.1526C9.3425 13.9301 9.805 13.3026 9.805 12.5801V8.14006C9.805 6.80756 8.7325 5.73506 7.4 5.73506H4.44C3.1075 5.73506 2.035 6.80756 2.035 8.14006V13.6901C2.035 14.0051 2.275 14.2451 2.59 14.2451C2.905 14.2451 3.145 14.0051 3.145 13.6901V8.14006C3.145 7.41756 3.7175 6.84506 4.44 6.84506H7.4C8.1225 6.84506 8.695 7.41756 8.695 8.14006V12.5801C8.695 12.8951 8.455 13.1351 8.14 13.1351C7.825 13.1351 7.585 13.3751 7.585 13.6901V22.9401C7.585 23.2551 7.825 23.4951 8.14 23.4951H21.09C21.405 23.4951 21.645 23.2551 21.645 22.9401V0.740059C21.645 0.425059 21.405 0.185059 21.09 0.185059Z" fill="black"/>
<path d="M18.87 12.3951H17.7775C17.5 12.3951 17.26 12.2101 17.205 11.9501C17.15 11.6001 17.4075 11.2851 17.76 11.2851H18.87C19.185 11.2851 19.425 11.5251 19.425 11.8401C19.425 12.1551 19.185 12.3951 18.87 12.3951Z" fill="black"/>
</svg>
