<svg width="24" height="24" viewBox="0 0 24 24" fill="none" xmlns="http://www.w3.org/2000/svg">
<path d="M16.4275 1.62745C16.205 1.40495 15.855 1.40495 15.65 1.62745L2.5525 14.7249C2.33 14.9474 2.33 15.2999 2.5525 15.5024L9.1025 22.0524C9.2125 22.1624 9.36 22.2174 9.49 22.2174C9.62 22.2174 9.7675 22.1624 9.88 22.0524L19.0375 12.8949C19.2575 12.6724 19.2575 12.3199 19.0375 12.1174C18.815 11.8949 18.4625 11.8949 18.26 12.1174L9.49 20.8874L3.7375 15.1149L5.5675 13.2824L6.4925 14.1899C6.605 14.2999 6.7525 14.3549 6.8825 14.3549C7.0125 14.3549 7.16 14.2999 7.27 14.1899C7.4925 13.9674 7.4925 13.6149 7.27 13.4124L6.365 12.5049L8.195 10.6749L10.415 12.8949C10.5275 13.0049 10.675 13.0599 10.805 13.0599C10.9325 13.0599 11.0825 13.0049 11.1925 12.8949C11.415 12.6724 11.415 12.3199 11.1925 12.1174L8.9725 9.89745L10.805 8.06495L11.71 8.97245C11.8225 9.08245 11.97 9.13995 12.1 9.13995C12.2275 9.13995 12.3775 9.08245 12.4875 8.97245C12.71 8.74995 12.71 8.39995 12.4875 8.19495L11.58 7.28995L13.4125 5.45745L15.6325 7.67745C15.7425 7.78745 15.8925 7.84495 16.02 7.84495C16.17 7.84495 16.2975 7.78745 16.41 7.67745C16.6325 7.45495 16.6325 7.10495 16.41 6.89995L14.19 4.67995L16.41 2.45995C16.65 2.20245 16.65 1.84995 16.4275 1.62745Z" fill="black"/>
</svg>
