<svg width="24" height="24" viewBox="0 0 24 24" fill="none" xmlns="http://www.w3.org/2000/svg">
<path d="M9.375 5.86145C9.06445 5.86145 8.8125 5.6095 8.8125 5.29895V2.67395C8.8125 2.3634 9.06445 2.11145 9.375 2.11145C9.68555 2.11145 9.9375 2.3634 9.9375 2.67395V5.29895C9.9375 5.6095 9.68555 5.86145 9.375 5.86145Z" fill="black"/>
<path d="M23.8125 6.37512C23.8125 6.06458 23.5605 5.81262 23.25 5.81262H19.125C18.8145 5.81262 18.5625 6.06458 18.5625 6.37512C18.5625 6.68567 18.8145 6.93762 19.125 6.93762H21.8926L13.3887 15.4396C13.2422 15.5861 13.0059 15.5861 12.8594 15.4396L10.4355 13.0138C10.1523 12.7306 9.77539 12.5763 9.375 12.5763C8.97461 12.5763 8.59766 12.7306 8.31445 13.0138L4.43555 16.8947C4.2168 17.1134 4.2168 17.4689 4.43555 17.6896C4.54688 17.799 4.68945 17.8536 4.83398 17.8536C4.97852 17.8536 5.12305 17.799 5.23047 17.6896L9.11133 13.8087C9.25781 13.6642 9.49414 13.6642 9.64062 13.8087L12.0664 16.2345C12.6504 16.8185 13.6016 16.8185 14.1855 16.2345L22.6875 7.73254V10.5001C22.6875 10.8107 22.9395 11.0626 23.25 11.0626C23.5605 11.0626 23.8125 10.8107 23.8125 10.5001V6.37512Z" fill="black"/>
<path d="M3.31055 19.6095C3.53125 19.3888 3.53125 19.0333 3.31055 18.8146C3.0918 18.5939 2.73633 18.5939 2.51562 18.8146L1.47656 19.8517C1.25781 20.0724 1.25781 20.4279 1.47656 20.6486C1.58594 20.7579 1.73047 20.8126 1.875 20.8126C2.01953 20.8126 2.16406 20.7579 2.27344 20.6486L3.31055 19.6095Z" fill="black"/>
<path d="M5.27148 6.84778C5.36914 6.84778 5.46875 6.82044 5.55859 6.7677C5.82617 6.60754 5.91211 6.25989 5.75195 5.99426L4.59375 4.06653C4.43359 3.8009 4.08789 3.71497 3.82031 3.87317C3.55469 4.03333 3.46875 4.38098 3.62891 4.64661L4.78711 6.57629C4.89453 6.75208 5.08008 6.84778 5.27148 6.84778Z" fill="black"/>
<path d="M12.998 5.99622L14.1563 4.06653C14.3164 3.8009 14.6621 3.71497 14.9277 3.87317C15.1934 4.03528 15.2793 4.38098 15.1191 4.64661L13.9609 6.57629C13.8555 6.75208 13.6699 6.84973 13.4785 6.84973C13.3828 6.84973 13.2813 6.82239 13.1914 6.76965C12.9238 6.60754 12.8379 6.26184 12.998 5.99622Z" fill="black"/>
</svg>
