<?xml version="1.0" encoding="UTF-8"?>
<svg xmlns="http://www.w3.org/2000/svg" xmlns:xlink="http://www.w3.org/1999/xlink" width="37.5pt" height="37.5pt" viewBox="0 0 37.5 37.5" version="1.1">
<g id="surface4362">
<path style=" stroke:none;fill-rule:nonzero;fill:rgb(0%,0%,0%);fill-opacity:1;" d="M 7.371094 31.277344 C 7.515625 31.363281 7.660156 31.390625 7.804688 31.390625 C 8.09375 31.390625 8.410156 31.246094 8.554688 30.957031 C 10.578125 27.375 14.394531 25.148438 18.5 25.148438 C 22.605469 25.148438 26.421875 27.375 28.472656 30.957031 C 28.703125 31.363281 29.222656 31.507812 29.65625 31.277344 C 30.0625 31.046875 30.207031 30.523438 29.976562 30.089844 C 28.328125 27.171875 25.640625 25.0625 22.519531 24.050781 C 24.597656 22.921875 26.015625 20.726562 26.015625 18.210938 L 26.015625 10.984375 C 26.015625 8.902344 24.453125 7.199219 22.429688 6.964844 L 22.316406 6.820312 C 21.476562 5.636719 20.089844 4.914062 18.644531 4.914062 L 15.523438 4.914062 C 13.007812 4.914062 10.984375 6.9375 10.984375 9.453125 L 10.984375 18.210938 C 10.984375 19.972656 11.679688 21.652344 12.921875 22.921875 C 13.382812 23.386719 13.902344 23.761719 14.453125 24.078125 C 11.359375 25.089844 8.671875 27.199219 6.996094 30.121094 C 6.792969 30.496094 6.9375 31.046875 7.371094 31.277344 Z M 19.136719 20.207031 C 18.933594 20.234375 18.703125 20.234375 18.5 20.234375 C 18.269531 20.234375 18.039062 20.234375 17.835938 20.207031 C 17.371094 20.148438 17.027344 19.714844 17.082031 19.25 C 17.140625 18.789062 17.574219 18.441406 18.039062 18.5 C 18.355469 18.527344 18.671875 18.527344 18.960938 18.5 C 19.425781 18.441406 19.859375 18.789062 19.917969 19.28125 C 19.972656 19.714844 19.628906 20.148438 19.136719 20.207031 Z M 12.71875 14.453125 C 12.71875 13.992188 12.777344 13.527344 12.890625 13.066406 C 12.980469 12.691406 13.324219 12.402344 13.730469 12.402344 C 16.449219 12.34375 19.105469 12.023438 21.101562 10.261719 C 21.21875 10.144531 21.363281 10.03125 21.476562 9.914062 C 21.851562 9.539062 22.488281 9.566406 22.808594 10.03125 C 23.066406 10.378906 22.980469 10.867188 22.691406 11.15625 C 22.519531 11.332031 22.34375 11.476562 22.171875 11.621094 C 21.851562 11.878906 21.910156 12.371094 22.257812 12.574219 C 22.375 12.632812 22.488281 12.691406 22.574219 12.71875 C 22.863281 12.835938 23.152344 12.890625 23.5 12.921875 C 23.875 12.980469 24.195312 13.269531 24.253906 13.671875 C 24.28125 13.933594 24.308594 14.164062 24.308594 14.425781 C 24.308594 16.042969 23.644531 17.515625 22.546875 18.558594 C 22.34375 18.761719 21.996094 18.703125 21.851562 18.441406 C 21.21875 17.257812 19.972656 16.417969 18.527344 16.417969 C 17.082031 16.417969 15.839844 17.226562 15.203125 18.441406 C 15.058594 18.703125 14.714844 18.761719 14.511719 18.558594 C 13.382812 17.546875 12.71875 16.070312 12.71875 14.453125 Z M 12.71875 14.453125 "/>
</g>
</svg>
