<svg width="24" height="24" viewBox="0 0 24 24" fill="none" xmlns="http://www.w3.org/2000/svg">
<path d="M4.495 19.3325C4.3475 19.5925 4.44 19.9425 4.7 20.09C4.7925 20.1475 4.885 20.165 4.9775 20.165C5.1625 20.165 5.365 20.0725 5.4575 19.8875C6.7525 17.5925 9.195 16.17 11.84 16.17C14.4675 16.17 16.91 17.5925 18.2225 19.8875C18.37 20.1475 18.7225 20.24 18.98 20.09C19.24 19.9425 19.3325 19.61 19.185 19.3325C18.315 17.815 17.02 16.6325 15.485 15.8925C15.5025 15.8925 15.5225 15.8925 15.54 15.8925C16.1875 15.8925 16.78 15.6325 17.2425 15.1875C17.705 14.725 17.945 14.135 17.945 13.4875V8.69497C17.945 5.32747 15.2075 2.58997 11.84 2.58997C8.4725 2.58997 5.735 5.32747 5.735 8.69497V13.4875C5.735 14.135 5.995 14.745 6.4375 15.1875C6.9 15.65 7.4925 15.8925 8.14 15.8925C8.1575 15.8925 8.1775 15.8925 8.1775 15.8925C6.66 16.6325 5.365 17.815 4.495 19.3325ZM8.14 9.45247C8.1025 8.89747 8.215 8.36247 8.4 7.87997C8.4725 7.69497 8.455 7.50997 8.3425 7.34497C8.2325 7.19747 8.14 7.04747 8.0475 6.88247C7.9 6.62247 7.955 6.27247 8.215 6.10497C8.4925 5.93747 8.8425 6.02997 8.99 6.28997C9.065 6.39997 9.2125 6.62247 9.2125 6.62247C9.8225 7.49247 10.8225 8.23247 12.0425 8.60247C13.0425 8.91747 14.0425 8.93497 14.91 8.74997C15.225 8.69497 15.54 8.91747 15.54 9.24997C15.54 11.34 13.8 13.0425 11.6725 12.95C9.805 12.8575 8.25 11.34 8.14 9.45247Z" fill="black"/>
</svg>
