<svg width="24" height="24" viewBox="0 0 24 24" fill="none" xmlns="http://www.w3.org/2000/svg">
<path d="M19.61 6.47495V4.25495C19.61 3.93995 19.37 3.69995 19.055 3.69995C18.13 3.69995 17.39 4.43995 17.39 5.36495C17.39 6.28995 18.13 7.02995 19.055 7.02995C19.37 7.02995 19.61 6.78995 19.61 6.47495Z" fill="black"/>
<path d="M0.74 11.1H6.29C6.605 11.1 6.845 10.86 6.845 10.545V4.99495C6.845 4.67995 6.605 4.43995 6.29 4.43995H4.44C4.33 4.43995 4.255 4.51495 4.255 4.62495V5.73495C4.255 5.84495 4.18 5.91995 4.07 5.91995H2.96C2.85 5.91995 2.775 5.84495 2.775 5.73495V4.62495C2.775 4.51495 2.7 4.43995 2.59 4.43995H0.74C0.424999 4.43995 0.184999 4.67995 0.184999 4.99495V10.545C0.184999 10.86 0.424999 11.1 0.74 11.1Z" fill="black"/>
<path d="M22.515 18.9075C22.2175 18.98 22.0325 19.295 22.125 19.5925C22.2 19.85 22.2175 20.1275 22.1825 20.405C22.1075 20.9975 21.83 21.515 21.3675 21.885C20.905 22.255 20.3325 22.4225 19.74 22.3675C19.185 22.31 18.6675 22.0325 18.315 21.6075C18.1125 21.3675 17.76 21.35 17.5375 21.5525C17.2975 21.755 17.28 22.1075 17.4825 22.33C18.0375 22.9575 18.795 23.365 19.6275 23.4575C19.7575 23.4775 19.8875 23.4775 19.9975 23.4775C20.7575 23.4775 21.4775 23.2175 22.07 22.755C22.7725 22.2 23.2 21.405 23.2925 20.5175C23.3275 20.11 23.31 19.685 23.2 19.295C23.125 19.0175 22.81 18.8325 22.515 18.9075Z" fill="black"/>
<path d="M4.92 13.32C3.885 14.67 2.22 17.2975 2.1825 20.165C2.1825 20.48 2.4225 20.72 2.7375 20.72H3.7375C3.995 22.2925 5.365 23.495 7.0125 23.495C8.6575 23.495 10.0275 22.2925 10.285 20.72H17.3725C18.945 20.7025 20.405 19.9425 21.3125 18.685L22.4025 17.15C22.495 17.02 22.5325 16.8525 22.495 16.705C22.46 16.5575 22.3675 16.4275 22.2375 16.335C21.5525 15.9475 20.775 15.7425 19.9975 15.7425C18.6475 15.7425 17.445 16.335 16.6325 17.26V7.87995C17.15 8.08495 17.5375 8.54745 17.6125 9.11995L18.315 14.69C18.3525 14.985 18.63 15.2075 18.925 15.17C19.2225 15.1325 19.4425 14.855 19.4075 14.56L18.7025 8.98995C18.555 7.65995 17.4275 6.65995 16.095 6.65995H13.69C13.375 6.65995 13.135 6.89995 13.135 7.21495C13.135 7.52995 13.375 7.76995 13.69 7.76995H15.54V19.61H12.21V11.47C12.21 10.655 11.545 9.98995 10.73 9.98995H7.955C7.64 9.98995 7.4 10.23 7.4 10.545C7.4 10.86 7.64 11.1 7.955 11.1H10.73C10.9325 11.1 11.1 11.2675 11.1 11.47V12.21H0.74C0.424999 12.21 0.184999 12.45 0.184999 12.765C0.184999 13.08 0.424999 13.32 0.74 13.32H4.92ZM20.0175 16.8725C20.405 16.8725 20.775 16.945 21.145 17.0575L20.4425 18.055C19.7575 19.0175 18.61 19.61 17.4075 19.6275H16.705C16.965 18.055 18.3525 16.8725 20.0175 16.8725ZM7.03 22.385C5.995 22.385 5.125 21.6825 4.885 20.72H9.175C8.935 21.6825 8.065 22.385 7.03 22.385ZM11.1 13.32V19.61H3.33C3.6075 16.6675 5.7525 14.005 6.345 13.32H11.1Z" fill="black"/>
</svg>
