<svg width="24" height="24" viewBox="0 0 24 24" fill="none" xmlns="http://www.w3.org/2000/svg">
<path d="M22.1621 17.418C22.3125 17.1563 22.3867 16.8379 22.3867 16.4805C22.3867 16.2754 22.2754 16.0879 22.1055 15.9941C21.4121 15.5996 20.625 15.3945 19.8379 15.3945C19.5742 15.3945 19.3125 15.4121 19.0508 15.4688L18.207 12.1875H18.2812C18.5996 12.1875 18.8438 11.9434 18.8438 11.625V10.0117C18.8438 9.69336 18.5996 9.44922 18.2812 9.44922C17.5312 9.44922 16.9121 10.0684 16.9121 10.8184C16.9121 10.8945 16.9121 10.9883 16.9316 11.0625H13.7246C13.4062 11.0625 13.1621 11.3066 13.1621 11.625C13.1621 11.9434 13.4062 12.1875 13.7246 12.1875H15.5625C15.3945 12.5059 15.3008 12.8438 15.3008 13.2383V19.3125H12.5254L11.5508 16.4063C11.4941 16.2188 11.5117 16.0313 11.625 15.8809C11.7383 15.7129 11.9258 15.6191 12.1309 15.6191C12.4492 15.6191 12.6934 15.375 12.6934 15.0566V14.043C12.6934 13.3691 12.1504 12.8438 11.4941 12.8438H6.75C6.07422 12.8438 5.55078 13.3867 5.55078 14.043V15.0566C5.55078 15.0742 5.55078 15.0938 5.55078 15.0938C3.80664 16.0117 2.625 17.8125 2.625 19.875C2.625 20.1934 2.86914 20.4375 3.1875 20.4375H4.21875C4.33203 21.0742 4.63086 21.6563 5.04297 22.125H4.125C3.80664 22.125 3.5625 22.3691 3.5625 22.6875C3.5625 23.0059 3.80664 23.25 4.125 23.25H20.0625C20.1191 23.25 20.1562 23.25 20.1934 23.2305C21.9004 23.0625 23.25 21.6191 23.25 19.875C23.25 18.9004 22.8379 18.0371 22.1621 17.418ZM19.8379 16.5C20.3066 16.5 20.7754 16.5938 21.207 16.7813C21.0195 17.25 20.418 17.5684 19.5371 18.0195C18.5254 18.5254 17.3066 19.1445 16.8945 20.4004H16.4062V19.875C16.4258 18.0195 17.9629 16.5 19.8379 16.5ZM16.4258 16.9121V13.2188C16.4258 12.7871 16.6875 12.4121 17.082 12.2617L18 15.7871C17.3809 16.0508 16.8555 16.4434 16.4258 16.9121ZM15.3008 20.4375V20.9805C15.3008 21.3008 15.543 21.543 15.8633 21.543H16.875C16.9883 21.75 17.1367 21.957 17.3066 22.125H10.1055C10.5195 21.6563 10.8184 21.0742 10.9316 20.4375H15.3008ZM3.78711 19.3125C4.06836 17.2305 5.86914 15.6191 8.0625 15.6191H10.5C10.3691 15.9746 10.3496 16.3867 10.4805 16.7617L11.3438 19.3125H3.78711ZM5.36328 20.4375H9.76953C9.50586 21.4121 8.625 22.125 7.55664 22.125C6.50586 22.125 5.625 21.4121 5.36328 20.4375ZM19.8379 22.125C19.0117 22.125 18.3008 21.6934 17.9062 21.0566C18 20.3633 18.5059 19.9121 19.1445 19.5371L19.3125 20.0625C19.3867 20.3066 19.6133 20.457 19.8555 20.457C19.9121 20.457 19.9688 20.457 20.0254 20.4375C20.3242 20.3438 20.4746 20.0254 20.3809 19.7246L20.1562 19.0117C20.5879 18.7871 21.0371 18.5625 21.4121 18.2617C21.8438 18.6758 22.125 19.2559 22.125 19.8945C22.125 21.1133 21.0938 22.125 19.8379 22.125Z" fill="black"/>
<path d="M0.917969 22.293C0.80664 22.3867 0.75 22.5371 0.75 22.6875C0.75 22.8379 0.80664 22.9883 0.917969 23.082C1.03125 23.1934 1.16211 23.25 1.3125 23.25C1.46289 23.25 1.61328 23.1934 1.70703 23.082C1.81836 22.9688 1.875 22.8379 1.875 22.6875C1.875 22.5371 1.81836 22.3867 1.70703 22.293C1.5 22.0879 1.125 22.0879 0.917969 22.293Z" fill="black"/>
</svg>
