<svg width="24" height="24" viewBox="0 0 24 24" fill="none" xmlns="http://www.w3.org/2000/svg">
<path d="M19.61 5.91999C19.925 5.91999 20.165 5.67999 20.165 5.36498C20.165 3.01499 18.26 1.10999 15.91 1.10999H5.92C4.5875 1.10999 3.515 2.18249 3.515 3.51499V20.165C3.515 21.4975 4.5875 22.57 5.92 22.57H17.76C19.0925 22.57 20.165 21.4975 20.165 20.165V7.95499C20.165 7.63999 19.925 7.39999 19.61 7.39999C19.295 7.39999 19.055 7.63999 19.055 7.95499V20.165C19.055 20.8875 18.4825 21.46 17.76 21.46H5.92C5.1975 21.46 4.625 20.8875 4.625 20.165V3.51499C4.625 2.79249 5.1975 2.21999 5.92 2.21999H15.355V3.51499C15.355 4.84749 16.4275 5.91999 17.76 5.91999H19.61ZM16.465 3.51499V2.27499C17.76 2.49749 18.7775 3.53249 19 4.80999H17.76C17.0375 4.80999 16.465 4.23749 16.465 3.51499Z" fill="black"/>
<path d="M15.91 13.135H11.47C11.155 13.135 10.915 13.375 10.915 13.69C10.915 14.005 11.155 14.245 11.47 14.245H15.91C16.225 14.245 16.465 14.005 16.465 13.69C16.465 13.375 16.225 13.135 15.91 13.135Z" fill="black"/>
<path d="M7.77 14.245H8.51C8.825 14.245 9.065 14.005 9.065 13.69C9.065 13.375 8.825 13.135 8.51 13.135H7.77C7.455 13.135 7.215 13.375 7.215 13.69C7.215 14.005 7.455 14.245 7.77 14.245Z" fill="black"/>
<path d="M15.91 15.91H15.17C14.855 15.91 14.615 16.15 14.615 16.465C14.615 16.78 14.855 17.02 15.17 17.02H15.91C16.225 17.02 16.465 16.78 16.465 16.465C16.465 16.15 16.225 15.91 15.91 15.91Z" fill="black"/>
<path d="M7.8075 17.02H12.2475C12.5625 17.02 12.8025 16.78 12.8025 16.465C12.8025 16.15 12.5625 15.91 12.2475 15.91H7.8075C7.4925 15.91 7.2525 16.15 7.2525 16.465C7.2525 16.78 7.51 17.02 7.8075 17.02Z" fill="black"/>
<path d="M15.91 10.36H15.17C14.855 10.36 14.615 10.6 14.615 10.915C14.615 11.23 14.855 11.47 15.17 11.47H15.91C16.225 11.47 16.465 11.23 16.465 10.915C16.465 10.6 16.225 10.36 15.91 10.36Z" fill="black"/>
<path d="M7.8075 11.47H12.2475C12.5625 11.47 12.8025 11.23 12.8025 10.915C12.8025 10.6 12.5625 10.36 12.2475 10.36H7.8075C7.4925 10.36 7.2525 10.6 7.2525 10.915C7.2525 11.23 7.51 11.47 7.8075 11.47Z" fill="black"/>
</svg>
