<svg width="24" height="24" viewBox="0 0 24 24" fill="none" xmlns="http://www.w3.org/2000/svg">
<g clip-path="url(#clip0_13116_819)">
<path d="M20.165 0.185059H3.515C1.6775 0.185059 0.184998 1.68006 0.184998 3.51506V5.28756C0.184998 6.18756 0.557498 7.07506 1.2025 7.72006C1.8325 8.35006 2.65 8.69006 3.5175 8.69506C4.6525 8.69256 5.61 8.11756 6.16 7.21506C6.8 8.10006 7.8725 8.69506 9.065 8.69506C10.22 8.69506 11.2425 8.10006 11.84 7.20506C12.4375 8.10006 13.46 8.69506 14.615 8.69506C15.77 8.69506 16.79 8.10256 17.3875 7.20506C17.525 7.41006 17.685 7.60006 17.8675 7.77256C18.3575 8.24006 18.96 8.53756 19.61 8.64756V22.3851H11.655V13.3201C11.655 11.9926 10.5775 10.9151 9.25 10.9151H5.365C4.0375 10.9151 2.96 11.9926 2.96 13.3201V22.3851H0.739998C0.432498 22.3851 0.184998 22.6326 0.184998 22.9401C0.184998 23.2476 0.432498 23.4951 0.739998 23.4951H22.94C23.2475 23.4951 23.495 23.2476 23.495 22.9401C23.495 22.6326 23.2475 22.3851 22.94 22.3851H20.72V8.64506C22.3025 8.37756 23.495 6.97256 23.495 5.28506V3.51506C23.495 1.68006 22.0025 0.185059 20.165 0.185059ZM5.55 5.36506C5.55 6.65006 4.695 7.58256 3.5175 7.58506H3.515C2.95 7.58506 2.4075 7.35506 1.9875 6.93506C1.5475 6.49506 1.295 5.89506 1.295 5.28756V3.51506C1.295 2.29006 2.29 1.29506 3.515 1.29506H5.55V5.36506ZM11.285 5.36506C11.285 6.59006 10.29 7.58506 9.065 7.58506C7.7825 7.58506 6.66 6.54756 6.66 5.36506V1.29506H11.285V5.36506ZM16.835 5.36506C16.835 6.59006 15.84 7.58506 14.615 7.58506C13.39 7.58506 12.395 6.59006 12.395 5.36506V1.29506H16.835V5.36506ZM10.545 22.3851H4.07V13.3201C4.07 12.6051 4.65 12.0251 5.365 12.0251H9.25C9.965 12.0251 10.545 12.6051 10.545 13.3201V22.3851ZM22.385 5.28756C22.385 6.50006 21.4375 7.52756 20.2725 7.58256C19.6575 7.61256 19.075 7.39506 18.6325 6.97256C18.19 6.55006 17.945 5.97756 17.945 5.36506V1.29506H20.165C21.39 1.29506 22.385 2.29006 22.385 3.51506V5.28756Z" fill="black"/>
</g>
<defs>
<clipPath id="clip0_13116_819">
<rect width="24" height="24" fill="black"/>
</clipPath>
</defs>
</svg>
