<svg width="24" height="24" viewBox="0 0 24 24" fill="none" xmlns="http://www.w3.org/2000/svg">
<path d="M6.05 17.575L11.655 7.87997C11.8025 7.62247 11.71 7.26997 11.4525 7.12247C11.1925 6.97497 10.84 7.06747 10.6925 7.32497L5.0875 17.02C4.4775 18.0925 4.1075 19.295 4.0325 20.5175L3.885 22.9025C3.8675 23.1075 3.9775 23.31 4.1625 23.42C4.255 23.4775 4.3475 23.495 4.44 23.495C4.55 23.495 4.6625 23.4575 4.755 23.4025L6.7525 22.09C7.77 21.405 8.64 20.4975 9.25 19.425L14.855 9.72997C15.0025 9.47247 14.91 9.11997 14.6525 8.97247C14.3925 8.82497 14.0425 8.91747 13.8925 9.17497L8.2875 18.87C7.7525 19.7775 7.0125 20.5725 6.1225 21.165L5.05 21.8675L5.125 20.59C5.1975 19.535 5.5125 18.5 6.05 17.575Z" fill="black"/>
<path d="M15.8175 3.23747C14.67 2.57247 13.19 2.95997 12.525 4.12497L11.84 5.30997C11.765 5.43997 11.7475 5.58747 11.785 5.73497C11.8225 5.88247 11.915 5.99497 12.0425 6.06747L15.245 7.91747C15.3375 7.97247 15.43 7.99247 15.5225 7.99247C15.5775 7.99247 15.615 7.99247 15.67 7.97247C15.8175 7.93747 15.9275 7.84497 16.0025 7.71497L16.6875 6.51247C17.0025 5.95747 17.095 5.30997 16.9275 4.67997C16.78 4.06997 16.3725 3.55247 15.8175 3.23747Z" fill="black"/>
<path d="M15.855 21.275C15.91 21.275 16.0025 21.275 16.0775 21.385L16.6325 22.44C16.91 22.9575 17.39 23.2925 17.9625 23.385C18.5375 23.4775 19.11 23.2925 19.5175 22.865C19.74 22.645 19.74 22.2925 19.5175 22.09C19.295 21.8675 18.945 21.8675 18.74 22.09C18.575 22.255 18.37 22.33 18.13 22.2925C17.9075 22.255 17.7225 22.125 17.6125 21.9225L17.0575 20.8675C16.7975 20.3875 16.2975 20.11 15.7625 20.165C15.225 20.22 14.7825 20.5725 14.615 21.09L14.2275 22.33C14.2275 22.3475 14.2075 22.3675 14.17 22.3675C14.135 22.3675 14.115 22.3475 14.115 22.33L13.95 22.015C13.745 21.6275 13.375 21.385 12.95 21.3675C12.525 21.35 12.1175 21.57 11.8775 21.94L11.34 22.57C11.1375 22.81 11.175 23.1625 11.395 23.3475C11.5075 23.44 11.6375 23.4775 11.7475 23.4775C11.895 23.4775 12.0625 23.4025 12.1725 23.2725L12.7275 22.625C12.7475 22.6075 12.765 22.57 12.7825 22.5525C12.82 22.495 12.8575 22.4775 12.895 22.4775C12.895 22.4775 12.9125 22.4775 12.9325 22.515L13.0975 22.83C13.32 23.255 13.765 23.5125 14.245 23.4775C14.725 23.44 15.1325 23.125 15.2625 22.6625L15.65 21.4225C15.6875 21.3125 15.8 21.275 15.855 21.275Z" fill="black"/>
<path d="M9.62 22.94C9.62 23.2475 9.3725 23.495 9.065 23.495C8.7575 23.495 8.51 23.2475 8.51 22.94C8.51 22.6325 8.7575 22.385 9.065 22.385C9.3725 22.385 9.62 22.6325 9.62 22.94Z" fill="black"/>
</svg>
