<svg width="24" height="24" viewBox="0 0 24 24" fill="none" xmlns="http://www.w3.org/2000/svg">
<path fill-rule="evenodd" clip-rule="evenodd" d="M0.810006 17.9363C0.948756 17.6588 1.28626 17.5463 1.56376 17.685L3.25501 18.5363C3.48751 18.6525 3.74251 18.7125 4.00126 18.7125H19.9388C20.2013 18.7125 20.46 18.6488 20.6963 18.5288L22.335 17.6888C22.6125 17.5463 22.95 17.655 23.0925 17.9325C23.235 18.21 23.1263 18.5475 22.8488 18.69L21.2063 19.5338C20.8125 19.7363 20.3775 19.8413 19.935 19.8413H4.00126C3.56626 19.8413 3.13876 19.74 2.75251 19.545L1.06126 18.69C0.783756 18.5513 0.671256 18.2138 0.810006 17.9363Z" fill="black"/>
<path fill-rule="evenodd" clip-rule="evenodd" d="M6.24001 22.8488C6.59626 22.8488 6.88126 22.56 6.88126 22.2075C6.88126 21.855 6.59251 21.5663 6.24001 21.5663C5.88751 21.5663 5.59876 21.855 5.59876 22.2075C5.59876 22.56 5.88751 22.8488 6.24001 22.8488ZM6.24001 23.9738C7.21501 23.9738 8.00626 23.1825 8.00626 22.2075C8.00626 21.2325 7.21501 20.4413 6.24001 20.4413C5.26501 20.4413 4.47376 21.2325 4.47376 22.2075C4.47376 23.1825 5.26501 23.9738 6.24001 23.9738Z" fill="black"/>
<path fill-rule="evenodd" clip-rule="evenodd" d="M18.1125 22.8488C18.4688 22.8488 18.7538 22.56 18.7538 22.2075C18.7538 21.855 18.465 21.5663 18.1125 21.5663C17.76 21.5663 17.4713 21.855 17.4713 22.2075C17.4713 22.56 17.76 22.8488 18.1125 22.8488ZM18.1125 23.9738C19.0875 23.9738 19.8788 23.1825 19.8788 22.2075C19.8788 21.2325 19.0875 20.4413 18.1125 20.4413C17.1375 20.4413 16.3463 21.2325 16.3463 22.2075C16.3463 23.1825 17.1375 23.9738 18.1125 23.9738Z" fill="black"/>
<path d="M17.9588 23.9738H15.1293C14.8293 23.9738 14.5855 23.73 14.5855 23.43C14.5855 23.13 14.8293 22.8863 15.1293 22.8863H17.9588C18.2588 22.8863 18.5025 23.13 18.5025 23.43C18.5025 23.73 18.2588 23.9738 17.9588 23.9738Z" fill="black"/>
<path d="M13.3288 23.9738C13.6478 23.9738 13.9063 23.7152 13.9063 23.3963C13.9063 23.0773 13.6478 22.8188 13.3288 22.8188C13.0099 22.8188 12.7513 23.0773 12.7513 23.3963C12.7513 23.7152 13.0099 23.9738 13.3288 23.9738Z" fill="black"/>
</svg>
