<svg width="24" height="24" viewBox="0 0 24 24" fill="none" xmlns="http://www.w3.org/2000/svg">
<path fill-rule="evenodd" clip-rule="evenodd" d="M2.41785 14.6993C2.26941 14.6446 2.17566 14.5118 2.11902 14.3809L1.12488 11.6446C1.0116 11.3633 1.16199 11.043 1.46277 10.9317L4.89441 9.69339L4.44324 8.45706C4.3866 8.30667 4.40613 8.15628 4.46277 8.02542C4.51941 7.87503 4.65027 7.78128 4.78113 7.72464L12.6757 4.83792L12.4315 4.18167C12.3182 3.90042 12.4686 3.58206 12.7694 3.46878L15.3007 2.55081C15.4491 2.49417 15.5995 2.51175 15.7303 2.56839C15.8807 2.62503 15.9745 2.75589 16.0311 2.88675L19.1815 11.5118C19.2928 11.793 19.1444 12.1133 18.8436 12.2246L16.3124 13.1446C16.2557 13.1621 16.1815 13.1817 16.1249 13.1817C16.0311 13.1817 15.9569 13.1621 15.8807 13.125C15.7303 13.0684 15.6366 12.9375 15.5819 12.8067L15.3378 12.1504L13.4999 12.8243C13.2186 12.9375 12.9003 12.7871 12.787 12.4883C12.6757 12.2071 12.8241 11.8868 13.1249 11.7754L14.9432 11.0996L13.0507 5.90628L5.6991 8.58792L7.61316 13.7813L10.162 12.8633C10.4432 12.75 10.7616 12.9004 10.8749 13.1993C10.9882 13.4805 10.8378 13.8008 10.537 13.9121L7.46277 15.0371C7.40613 15.0567 7.33191 15.0743 7.27527 15.0743C7.18152 15.0743 7.10535 15.0567 7.03113 15.0196C6.88074 14.9629 6.78699 14.8321 6.73035 14.6993L6.28113 13.4629L2.84949 14.7188C2.79285 14.7383 2.71863 14.7559 2.66199 14.7559C2.56824 14.7559 2.49402 14.7383 2.41785 14.6993ZM17.9061 11.3809L15.1503 3.80667L13.6874 4.34964L13.9315 5.00589L16.1991 11.25L16.4432 11.9063L17.9061 11.3809ZM5.8866 12.4121L5.28699 10.7442L2.38074 11.8125L2.98035 13.4805L5.8866 12.4121Z" fill="black"/>
<path d="M3.24402 9.44925L1.80066 9.97464C1.72449 10.0118 1.66785 10.0118 1.61316 10.0118C1.3866 10.0118 1.16199 9.86331 1.08777 9.63675C0.974487 9.3555 1.12488 9.03714 1.42566 8.92581L2.86902 8.40042C3.15027 8.28714 3.46863 8.43753 3.58191 8.73831C3.69324 9.01956 3.54285 9.33792 3.24402 9.44925Z" fill="black"/>
<path d="M21.0194 22.125C21.0194 21.8067 20.7753 21.5625 20.4569 21.5625H15.4491L11.6053 10.9883C11.494 10.6875 11.1757 10.5371 10.8944 10.6504C10.5936 10.7618 10.4432 11.0821 10.5565 11.3633L14.2499 21.5625H5.30652L7.3866 16.6133C7.49988 16.3321 7.36902 15.9942 7.08777 15.8809C6.80652 15.7696 6.46863 15.9004 6.35535 16.1817L4.10535 21.543V21.5821H3.35535C3.03699 21.5821 2.79285 21.8243 2.79285 22.1446C2.79285 22.4629 3.03699 22.7071 3.35535 22.7071H20.4745C20.7753 22.6875 21.0194 22.4434 21.0194 22.125Z" fill="black"/>
<path d="M1.31238 22.5196C1.21863 22.6309 1.06824 22.6875 0.917847 22.6875C0.769409 22.6875 0.619018 22.6309 0.525268 22.5196C0.411987 22.4258 0.355347 22.2754 0.355347 22.125C0.355347 21.9746 0.431518 21.8438 0.525268 21.7305C0.730347 21.5254 1.10535 21.5254 1.31238 21.7305C1.42566 21.8242 1.48035 21.9746 1.48035 22.125C1.48035 22.2754 1.42566 22.4063 1.31238 22.5196Z" fill="black"/>
</svg>
