<svg width="24" height="24" viewBox="0 0 24 24" fill="none" xmlns="http://www.w3.org/2000/svg">
<path d="M7.77001 23.4951H15.91C18.255 23.4951 20.165 21.5851 20.165 19.2401V4.44006C20.165 2.09506 18.255 0.185059 15.91 0.185059H7.77001C5.42501 0.185059 3.51501 2.09506 3.51501 4.44006V19.2401C3.51501 21.5851 5.42501 23.4951 7.77001 23.4951ZM4.62501 4.44006C4.62501 2.70756 6.03751 1.29506 7.77001 1.29506H15.91C17.6425 1.29506 19.055 2.70756 19.055 4.44006V19.2401C19.055 20.9726 17.6425 22.3851 15.91 22.3851H7.77001C6.03751 22.3851 4.62501 20.9726 4.62501 19.2401V4.44006Z" fill="black"/>
<path d="M10.915 3.88506H12.765C13.0725 3.88506 13.32 3.63756 13.32 3.33006C13.32 3.02256 13.0725 2.77506 12.765 2.77506H10.915C10.6075 2.77506 10.36 3.02256 10.36 3.33006C10.36 3.63756 10.6075 3.88506 10.915 3.88506Z" fill="black"/>
</svg>
