<svg width="24" height="24" viewBox="0 0 24 24" fill="none" xmlns="http://www.w3.org/2000/svg">
<path d="M19.6475 13.4875C19.425 13.265 19.0725 13.265 18.87 13.4875C18.6475 13.7075 18.6475 14.06 18.87 14.2625L21.6075 17.02H6.66C6.345 17.02 6.105 17.26 6.105 17.575C6.105 17.89 6.345 18.13 6.66 18.13H21.6075L18.8525 20.8875C18.63 21.1075 18.63 21.46 18.8525 21.6625C18.9625 21.775 19.11 21.83 19.24 21.83C19.37 21.83 19.5175 21.775 19.6275 21.6625L23.3275 17.9625C23.55 17.7425 23.55 17.39 23.3275 17.1875L19.6475 13.4875Z" fill="black"/>
<path d="M17.5925 6.47496C17.5925 6.15996 17.3525 5.91996 17.0375 5.91996H2.0725L4.8275 3.16246C5.05 2.94246 5.05 2.58996 4.8275 2.38746C4.6075 2.16496 4.255 2.16496 4.0525 2.38746L0.352498 6.08746C0.129998 6.30746 0.129998 6.65996 0.352498 6.86246L4.0525 10.5625C4.1625 10.675 4.31 10.73 4.44 10.73C4.57 10.73 4.7175 10.675 4.8275 10.5625C5.05 10.3425 5.05 9.98996 4.8275 9.78746L2.0725 7.02996H17.02C17.335 7.02996 17.5925 6.78996 17.5925 6.47496Z" fill="black"/>
</svg>
