<?xml version="1.0" encoding="UTF-8"?>
<svg xmlns="http://www.w3.org/2000/svg" xmlns:xlink="http://www.w3.org/1999/xlink" width="37.5pt" height="37.5pt" viewBox="0 0 37.5 37.5" version="1.1">
<g id="surface4842">
<path style=" stroke:none;fill-rule:nonzero;fill:rgb(0%,0%,0%);fill-opacity:1;" d="M 1.15625 6.359375 L 18.5 6.359375 C 18.980469 6.359375 19.367188 5.972656 19.367188 5.492188 C 19.367188 5.011719 18.980469 4.625 18.5 4.625 L 1.15625 4.625 C 0.675781 4.625 0.289062 5.011719 0.289062 5.492188 C 0.289062 5.972656 0.675781 6.359375 1.15625 6.359375 Z M 1.15625 15.03125 L 18.5 15.03125 C 18.980469 15.03125 19.367188 14.644531 19.367188 14.164062 C 19.367188 13.683594 18.980469 13.296875 18.5 13.296875 L 1.15625 13.296875 C 0.675781 13.296875 0.289062 13.683594 0.289062 14.164062 C 0.289062 14.644531 0.675781 15.03125 1.15625 15.03125 Z M 1.15625 23.703125 L 18.5 23.703125 C 18.980469 23.703125 19.367188 23.316406 19.367188 22.835938 C 19.367188 22.355469 18.980469 21.96875 18.5 21.96875 L 1.15625 21.96875 C 0.675781 21.96875 0.289062 22.355469 0.289062 22.835938 C 0.289062 23.316406 0.675781 23.703125 1.15625 23.703125 Z M 1.15625 32.375 L 18.5 32.375 C 18.980469 32.375 19.367188 31.988281 19.367188 31.507812 C 19.367188 31.027344 18.980469 30.640625 18.5 30.640625 L 1.15625 30.640625 C 0.675781 30.640625 0.289062 31.027344 0.289062 31.507812 C 0.289062 31.988281 0.675781 32.375 1.15625 32.375 Z M 30.675781 4.878906 C 30.335938 4.542969 29.789062 4.542969 29.449219 4.878906 L 23.667969 10.660156 C 23.332031 11 23.332031 11.546875 23.667969 11.886719 C 24.007812 12.222656 24.554688 12.222656 24.894531 11.886719 L 29.195312 7.585938 L 29.195312 31.507812 C 29.195312 31.988281 29.582031 32.375 30.0625 32.375 C 30.542969 32.375 30.929688 31.988281 30.929688 31.507812 L 30.929688 7.585938 L 35.230469 11.886719 C 35.402344 12.058594 35.621094 12.140625 35.84375 12.140625 C 36.066406 12.140625 36.289062 12.058594 36.457031 11.886719 C 36.792969 11.546875 36.792969 11 36.457031 10.660156 Z M 30.675781 4.878906 "/>
</g>
</svg>
