<?xml version="1.0" encoding="UTF-8"?>
<svg xmlns="http://www.w3.org/2000/svg" xmlns:xlink="http://www.w3.org/1999/xlink" width="37.5pt" height="37.5pt" viewBox="0 0 37.5 37.5" version="1.1">
<g id="surface4098">
<path style=" stroke:none;fill-rule:nonzero;fill:rgb(0%,0%,0%);fill-opacity:1;" d="M 16.214844 29.457031 C 15.871094 29.109375 15.320312 29.109375 15.003906 29.457031 L 10.695312 33.761719 L 10.695312 10.40625 C 10.695312 9.914062 10.320312 9.539062 9.828125 9.539062 C 9.335938 9.539062 8.960938 9.914062 8.960938 10.40625 L 8.960938 33.761719 L 4.652344 29.457031 C 4.308594 29.109375 3.757812 29.109375 3.441406 29.457031 C 3.09375 29.800781 3.09375 30.351562 3.441406 30.667969 L 9.222656 36.449219 C 9.394531 36.625 9.625 36.710938 9.828125 36.710938 C 10.03125 36.710938 10.261719 36.625 10.433594 36.449219 L 16.214844 30.667969 C 16.5625 30.324219 16.5625 29.800781 16.214844 29.457031 Z M 33.558594 6.332031 L 27.777344 0.550781 C 27.433594 0.203125 26.882812 0.203125 26.566406 0.550781 L 20.785156 6.332031 C 20.4375 6.675781 20.4375 7.226562 20.785156 7.542969 C 21.128906 7.890625 21.679688 7.890625 21.996094 7.542969 L 26.304688 3.238281 L 26.304688 26.59375 C 26.304688 27.085938 26.679688 27.460938 27.171875 27.460938 C 27.664062 27.460938 28.039062 27.085938 28.039062 26.59375 L 28.039062 3.238281 L 32.347656 7.542969 C 32.519531 7.71875 32.75 7.804688 32.953125 7.804688 C 33.15625 7.804688 33.386719 7.71875 33.558594 7.542969 C 33.90625 7.199219 33.90625 6.675781 33.558594 6.332031 Z M 33.558594 6.332031 "/>
</g>
</svg>
