<svg width="24" height="24" viewBox="0 0 24 24" fill="none" xmlns="http://www.w3.org/2000/svg">
<path d="M10.145 17.119L12.77 6.61898C12.8442 6.3182 13.145 6.1307 13.4438 6.20687C13.7446 6.28109 13.9321 6.58187 13.856 6.8807L11.231 17.3807C11.1763 17.6444 10.9321 17.8123 10.688 17.8123C10.6509 17.8123 10.5942 17.8123 10.5571 17.7928C10.2563 17.7186 10.0688 17.4178 10.145 17.119Z" fill="black"/>
<path d="M16.106 14.8319C16.2192 14.9432 16.3696 15.0194 16.52 15.0194C16.6509 15.0194 16.8013 14.9627 16.895 14.869L19.5376 12.4119C19.6509 12.3006 19.7251 12.1502 19.7251 11.9998C19.7251 11.8494 19.6685 11.6991 19.5376 11.5877L16.9126 9.1307C16.688 8.92562 16.3325 8.92562 16.1255 9.16781C15.9185 9.39437 15.9185 9.74984 16.1626 9.95687L18.3384 11.9998L16.145 14.0428C15.9185 14.2498 15.9009 14.6053 16.106 14.8319Z" fill="black"/>
<path d="M7.89502 9.16781C7.68799 8.9432 7.33252 8.92562 7.10596 9.1307L4.44385 11.5877C4.33252 11.6991 4.25635 11.8494 4.25635 11.9998C4.25635 12.1502 4.31299 12.3006 4.44385 12.4119L7.08838 14.869C7.19971 14.9627 7.33252 15.0194 7.46338 15.0194C7.61377 15.0194 7.76221 14.9627 7.87549 14.8319C8.08252 14.6053 8.08252 14.2498 7.83838 14.0428L5.6626 11.9998L7.85596 9.95687C8.08252 9.74984 8.1001 9.39437 7.89502 9.16781Z" fill="black"/>
</svg>
