<svg width="24" height="24" viewBox="0 0 24 24" fill="none" xmlns="http://www.w3.org/2000/svg">
<g clip-path="url(#clip0_12916_46177)">
<path d="M10.1247 0.1875C10.4431 0.1875 10.6872 0.431641 10.6872 0.75V1.5C10.6872 1.81836 10.4431 2.0625 10.1247 2.0625C9.80638 2.0625 9.56224 1.81836 9.56224 1.5V0.75C9.56224 0.431641 9.80638 0.1875 10.1247 0.1875Z" fill="black"/>
<path d="M5.47435 3.5625C5.40013 3.52539 5.32396 3.44922 5.26927 3.35547L3.97435 1.05078C3.82396 0.769531 3.93724 0.431641 4.19896 0.28125C4.48021 0.13086 4.8181 0.244141 4.96849 0.505859L6.26146 2.79297C6.41185 3.07422 6.30052 3.41211 6.03685 3.5625C5.84935 3.67578 5.64427 3.65625 5.47435 3.5625Z" fill="black"/>
<path fill-rule="evenodd" clip-rule="evenodd" d="M12.6931 21.3555C12.656 21.375 12.5993 21.375 12.5622 21.375C12.4118 21.375 12.2615 21.3184 12.1677 21.2441L4.29271 13.3691C3.90013 12.9746 3.80638 12.3945 4.05052 11.9063C4.29271 11.4004 4.8181 11.1367 5.36302 11.2129L8.77513 11.6992L7.36888 7.65039C7.10521 6.9375 7.19896 6.1875 7.59349 5.55078C7.98802 4.93164 8.64427 4.51953 9.37474 4.42578L14.9431 3.76953C15.2439 3.73047 15.5251 3.95703 15.5622 4.25586C15.5993 4.55664 15.3747 4.83789 15.074 4.875L9.5056 5.55078C9.11302 5.58789 8.7556 5.8125 8.55052 6.15039C8.32396 6.48828 8.28685 6.90039 8.41771 7.27539L10.0115 11.8125H14.9626L17.2126 5.04297C17.3806 4.59375 17.7556 4.25586 18.2243 4.16211C18.6931 4.06836 19.1814 4.23828 19.4802 4.61328L23.3806 9.31836C23.9431 9.99414 23.8865 11.0254 23.2302 11.625L17.9802 16.5195C17.7556 16.7441 17.4001 16.7246 17.1931 16.5C16.9685 16.2754 16.988 15.918 17.2126 15.7129L21.9939 11.25L15.824 12.8066L13.1052 20.9805C13.031 21.168 12.8806 21.3184 12.6931 21.3555ZM18.449 5.26953C18.3943 5.28711 18.3376 5.30664 18.3005 5.40039L16.2556 11.5508L22.4802 9.97461L18.6365 5.34375C18.5818 5.28711 18.5251 5.26953 18.488 5.26953H18.449ZM5.17552 12.3008C5.13646 12.3008 5.08177 12.3184 5.06224 12.375C5.02513 12.4316 5.04271 12.4883 5.08177 12.543L12.3181 19.7617L14.5876 12.9375H10.406L11.2693 15.4688C11.3806 15.75 11.2302 16.0879 10.9314 16.1816C10.8747 16.1992 10.8005 16.2188 10.7439 16.2188C10.5193 16.2188 10.2927 16.0684 10.2185 15.8438L9.18724 12.8809L5.1931 12.3008H5.17552Z" fill="black"/>
<path d="M2.92552 5.4375L0.97435 4.3125C0.712631 4.16211 0.355209 4.25586 0.206771 4.51953C0.056381 4.78125 0.150131 5.13672 0.41185 5.28711L2.36302 6.41211C2.62474 6.5625 2.98021 6.46875 3.1306 6.20703C3.28099 5.94336 3.18724 5.58789 2.92552 5.4375Z" fill="black"/>
<path d="M6.37474 22.6875C6.05638 22.6875 5.81224 22.9316 5.81224 23.25C5.81224 23.5684 6.05638 23.8125 6.37474 23.8125H17.6247C17.9431 23.8125 18.1872 23.5684 18.1872 23.25C18.1872 22.9316 17.9431 22.6875 17.6247 22.6875H6.37474Z" fill="black"/>
<path d="M20.8122 23.25C20.8122 22.9316 21.0564 22.6875 21.3747 22.6875H23.2497C23.5681 22.6875 23.8122 22.9316 23.8122 23.25C23.8122 23.5684 23.5681 23.8125 23.2497 23.8125H21.3747C21.0564 23.8125 20.8122 23.5684 20.8122 23.25Z" fill="black"/>
</g>
<defs>
<clipPath id="clip0_12916_46177">
<rect width="24" height="24" fill="black"/>
</clipPath>
</defs>
</svg>
