<svg width="24" height="24" viewBox="0 0 24 24" fill="none" xmlns="http://www.w3.org/2000/svg">
<path d="M13.395 23.4201C13.4875 23.4776 13.58 23.4951 13.69 23.4951C13.875 23.4951 14.06 23.4026 14.17 23.2351C14.3375 22.9776 14.245 22.6251 13.985 22.4776C10.8975 20.5901 8.695 18.8701 7.2525 17.2426C7.0475 17.0201 6.6975 16.9826 6.475 17.1876C6.2525 17.3901 6.215 17.7426 6.42 17.9626C7.9375 19.7026 10.2125 21.4776 13.395 23.4201Z" fill="black"/>
<path d="M0.184998 9.99006C0.184998 13.4126 5.31 16.0951 11.8225 16.0951C11.8775 16.0951 12.265 16.0951 12.285 16.0951C16.335 15.9651 19.425 14.2276 19.425 12.0251C19.425 9.75006 16.095 7.95506 11.84 7.95506C8.27 7.95506 5.31 9.28756 4.4575 11.2851C4.33 11.5626 4.4775 11.8951 4.755 12.0076C4.8275 12.0426 4.9025 12.0426 4.9775 12.0426C5.1975 12.0426 5.4025 11.9151 5.495 11.7101C6.03 10.4351 8.25 9.06506 11.84 9.06506C14.91 9.06506 18.315 10.2851 18.315 12.0251C18.315 13.7651 14.91 14.9851 11.84 14.9851C6.1225 14.9851 1.295 12.6901 1.295 9.99006C1.295 7.19756 5.625 4.07006 11.84 4.07006C15.0225 4.07006 18.425 4.49506 20.24 4.77256L18.1475 6.29006C17.9075 6.47506 17.8525 6.80756 18.02 7.06756C18.13 7.21506 18.2975 7.29006 18.4625 7.29006C18.575 7.29006 18.685 7.25256 18.795 7.17756L21.9775 4.88506C22.2175 4.70006 22.275 4.36506 22.1075 4.10756L19.795 0.942557C19.61 0.702557 19.2775 0.647557 19.0175 0.815057C18.7775 1.00006 18.7225 1.33256 18.8875 1.59006L20.405 3.68256C18.575 3.40506 15.095 2.96006 11.84 2.96006C4.865 2.96006 0.184998 6.58506 0.184998 9.99006Z" fill="black"/>
</svg>
