<svg width="24" height="24" viewBox="0 0 24 24" fill="none" xmlns="http://www.w3.org/2000/svg">
<path d="M10.915 11.84C10.915 13.375 12.155 14.615 13.69 14.615C15.225 14.615 16.465 13.375 16.465 11.84C16.465 10.305 15.225 9.06498 13.69 9.06498C12.155 9.06498 10.915 10.305 10.915 11.84ZM15.355 11.84C15.355 12.765 14.615 13.505 13.69 13.505C12.765 13.505 12.025 12.765 12.025 11.84C12.025 10.915 12.765 10.175 13.69 10.175C14.615 10.175 15.355 10.915 15.355 11.84Z" fill="black"/>
<path d="M19.7775 7.23248C19.8875 7.34498 20.035 7.39998 20.165 7.39998C20.295 7.39998 20.4425 7.34498 20.5525 7.23248L23.3275 4.45748C23.55 4.23748 23.55 3.88498 23.3275 3.68248L20.5525 0.907476C20.3325 0.684975 19.98 0.684975 19.7775 0.907476C19.555 1.12748 19.555 1.47998 19.7775 1.68248L21.6075 3.51498H13.69C9.2875 3.51498 5.68 6.95498 5.3825 11.285H0.74C0.424999 11.285 0.184999 11.525 0.184999 11.84C0.184999 12.155 0.424999 12.395 0.74 12.395H5.3825C5.68 16.725 9.2875 20.165 13.69 20.165H21.6075L19.7775 21.9975C19.555 22.2175 19.555 22.57 19.7775 22.7725C19.8875 22.885 20.035 22.94 20.165 22.94C20.295 22.94 20.4425 22.885 20.5525 22.7725L23.3275 19.9975C23.55 19.7775 23.55 19.425 23.3275 19.2225L20.5525 16.4475C20.3325 16.225 19.98 16.225 19.7775 16.4475C19.555 16.6675 19.555 17.02 19.7775 17.2225L21.6075 19.055H13.69C9.7125 19.055 6.475 15.8175 6.475 11.84C6.475 7.86248 9.7125 4.62498 13.69 4.62498H21.6075L19.7775 6.45748C19.555 6.67748 19.555 7.01248 19.7775 7.23248Z" fill="black"/>
</svg>
