<svg width="24" height="24" viewBox="0 0 24 24" fill="none" xmlns="http://www.w3.org/2000/svg">
<path fill-rule="evenodd" clip-rule="evenodd" d="M19.7812 5.98047C19.7441 6 19.7246 6 19.6875 6H18C16.6504 6 15.5625 4.91211 15.5625 3.5625V2.25H6C5.26953 2.25 4.6875 2.83203 4.6875 3.5625V20.4375C4.6875 21.168 5.26953 21.75 6 21.75H18C18.7305 21.75 19.3125 21.168 19.3125 20.4375V8.0625C19.3125 7.74414 19.5566 7.5 19.875 7.5C20.1934 7.5 20.4375 7.74414 20.4375 8.0625V20.4375C20.4375 21.7871 19.3496 22.875 18 22.875H6C4.65039 22.875 3.5625 21.7871 3.5625 20.4375V3.5625C3.5625 2.21289 4.65039 1.125 6 1.125H16.125C17.2695 1.125 18.375 1.55664 19.1816 2.38086C19.9883 3.20703 20.4375 4.29297 20.4375 5.4375C20.4375 5.75586 20.1934 6 19.875 6C19.8564 6 19.8423 5.99512 19.8281 5.99023C19.814 5.98535 19.7998 5.98047 19.7812 5.98047ZM18.375 3.1875C17.9062 2.71875 17.3242 2.41797 16.6875 2.30664V3.5625C16.6875 4.29297 17.2695 4.875 18 4.875H19.2559C19.1445 4.23828 18.8438 3.65625 18.375 3.1875Z" fill="black"/>
<path d="M8.8125 8.4375C9.13086 8.4375 9.375 8.68164 9.375 9V10.5C9.375 10.8184 9.13086 11.0625 8.8125 11.0625H7.3125C6.99414 11.0625 6.75 10.8184 6.75 10.5V9C6.75 8.68164 6.99414 8.4375 7.3125 8.4375H8.8125Z" fill="black"/>
<path d="M12.75 8.4375C13.0684 8.4375 13.3125 8.68164 13.3125 9V10.5C13.3125 10.8184 13.0684 11.0625 12.75 11.0625H11.25C10.9316 11.0625 10.6875 10.8184 10.6875 10.5V9C10.6875 8.68164 10.9316 8.4375 11.25 8.4375H12.75Z" fill="black"/>
<path d="M9.375 13.125C9.375 12.8066 9.13086 12.5625 8.8125 12.5625H7.3125C6.99414 12.5625 6.75 12.8066 6.75 13.125V14.625C6.75 14.9434 6.99414 15.1875 7.3125 15.1875H8.8125C9.13086 15.1875 9.375 14.9434 9.375 14.625V13.125Z" fill="black"/>
<path d="M6.75 17.25C6.75 16.9316 6.99414 16.6875 7.3125 16.6875H8.8125C9.13086 16.6875 9.375 16.9316 9.375 17.25V18.75C9.375 19.0684 9.13086 19.3125 8.8125 19.3125H7.3125C6.99414 19.3125 6.75 19.0684 6.75 18.75V17.25Z" fill="black"/>
<path d="M13.3125 17.25C13.3125 16.9316 13.0684 16.6875 12.75 16.6875H11.25C10.9316 16.6875 10.6875 16.9316 10.6875 17.25V18.75C10.6875 19.0684 10.9316 19.3125 11.25 19.3125H12.75C13.0684 19.3125 13.3125 19.0684 13.3125 18.75V17.25Z" fill="black"/>
<path d="M12.75 12.5625C13.0684 12.5625 13.3125 12.8066 13.3125 13.125V14.625C13.3125 14.9434 13.0684 15.1875 12.75 15.1875H11.25C10.9316 15.1875 10.6875 14.9434 10.6875 14.625V13.125C10.6875 12.8066 10.9316 12.5625 11.25 12.5625H12.75Z" fill="black"/>
<path d="M17.4375 13.125C17.4375 12.8066 17.1934 12.5625 16.875 12.5625H15.375C15.0566 12.5625 14.8125 12.8066 14.8125 13.125V14.625C14.8125 14.9434 15.0566 15.1875 15.375 15.1875H16.875C17.1934 15.1875 17.4375 14.9434 17.4375 14.625V13.125Z" fill="black"/>
<path d="M16.875 8.4375C17.1934 8.4375 17.4375 8.68164 17.4375 9V10.5C17.4375 10.8184 17.1934 11.0625 16.875 11.0625H15.375C15.0566 11.0625 14.8125 10.8184 14.8125 10.5V9C14.8125 8.68164 15.0566 8.4375 15.375 8.4375H16.875Z" fill="black"/>
<path d="M17.4375 17.25C17.4375 16.9316 17.1934 16.6875 16.875 16.6875H15.375C15.0566 16.6875 14.8125 16.9316 14.8125 17.25V18.75C14.8125 19.0684 15.0566 19.3125 15.375 19.3125H16.875C17.1934 19.3125 17.4375 19.0684 17.4375 18.75V17.25Z" fill="black"/>
</svg>
