<svg width="24" height="24" viewBox="0 0 24 24" fill="none" xmlns="http://www.w3.org/2000/svg">
<path d="M9.065 12.765C10.0825 12.765 10.915 11.9325 10.915 10.915C10.915 9.89749 10.0825 9.06499 9.065 9.06499C8.0475 9.06499 7.215 9.89749 7.215 10.915C7.215 11.9325 8.0475 12.765 9.065 12.765ZM9.065 10.175C9.4725 10.175 9.805 10.5075 9.805 10.915C9.805 11.3225 9.4725 11.655 9.065 11.655C8.6575 11.655 8.325 11.3225 8.325 10.915C8.325 10.5075 8.6575 10.175 9.065 10.175Z" fill="black"/>
<path d="M14.615 18.315C15.6325 18.315 16.465 17.4825 16.465 16.465C16.465 15.4475 15.6325 14.615 14.615 14.615C13.5975 14.615 12.765 15.4475 12.765 16.465C12.765 17.4825 13.5975 18.315 14.615 18.315ZM14.615 15.725C15.0225 15.725 15.355 16.0575 15.355 16.465C15.355 16.8725 15.0225 17.205 14.615 17.205C14.2075 17.205 13.875 16.8725 13.875 16.465C13.875 16.0575 14.2075 15.725 14.615 15.725Z" fill="black"/>
<path d="M8.14 17.945C8.2875 17.945 8.4175 17.89 8.5275 17.7775L16.1125 10.3775C16.335 10.175 16.335 9.82249 16.1125 9.60249C15.91 9.37999 15.5575 9.37999 15.3375 9.60249L7.7525 17.0025C7.53 17.205 7.53 17.5575 7.7525 17.7775C7.8625 17.89 7.9925 17.945 8.14 17.945Z" fill="black"/>
<path d="M19.61 5.91999C19.925 5.91999 20.165 5.67999 20.165 5.36498C20.165 4.23749 19.72 3.16249 18.925 2.34999C18.1125 1.55499 17.0375 1.10999 15.91 1.10999H5.92C4.5875 1.10999 3.515 2.18249 3.515 3.51499V20.165C3.515 21.4975 4.5875 22.57 5.92 22.57H17.76C19.0925 22.57 20.165 21.4975 20.165 20.165V7.95499C20.165 7.63999 19.925 7.39999 19.61 7.39999C19.295 7.39999 19.055 7.63999 19.055 7.95499V20.165C19.055 20.8875 18.4825 21.46 17.76 21.46H5.92C5.1975 21.46 4.625 20.8875 4.625 20.165V3.51499C4.625 2.79249 5.1975 2.21999 5.92 2.21999H15.355V3.51499C15.355 4.84749 16.4275 5.91999 17.76 5.91999H19.61ZM16.465 3.51499V2.27499C17.095 2.38749 17.6675 2.68249 18.13 3.14498C18.5925 3.60749 18.8875 4.17999 19 4.80999H17.76C17.0375 4.80999 16.465 4.23749 16.465 3.51499Z" fill="black"/>
</svg>
