<?xml version="1.0" encoding="UTF-8"?>
<svg xmlns="http://www.w3.org/2000/svg" xmlns:xlink="http://www.w3.org/1999/xlink" width="37.5pt" height="37.5pt" viewBox="0 0 37.5 37.5" version="1.1">
<g id="surface4188">
<path style=" stroke:none;fill-rule:nonzero;fill:rgb(0%,0%,0%);fill-opacity:1;" d="M 4.914062 30.0625 C 4.914062 29.570312 4.539062 29.195312 4.046875 29.195312 L 2.023438 29.195312 L 2.023438 25.148438 L 4.046875 25.148438 C 4.539062 25.148438 4.914062 24.773438 4.914062 24.28125 C 4.914062 23.789062 4.539062 23.414062 4.046875 23.414062 L 2.023438 23.414062 L 2.023438 19.367188 L 4.046875 19.367188 C 4.539062 19.367188 4.914062 18.992188 4.914062 18.5 C 4.914062 18.007812 4.539062 17.632812 4.046875 17.632812 L 2.023438 17.632812 L 2.023438 13.585938 L 4.046875 13.585938 C 4.539062 13.585938 4.914062 13.210938 4.914062 12.71875 C 4.914062 12.226562 4.539062 11.851562 4.046875 11.851562 L 2.023438 11.851562 L 2.023438 7.804688 L 4.046875 7.804688 C 4.539062 7.804688 4.914062 7.429688 4.914062 6.9375 C 4.914062 6.445312 4.539062 6.070312 4.046875 6.070312 L 2.023438 6.070312 L 2.023438 4.046875 C 2.023438 2.917969 2.917969 2.023438 4.046875 2.023438 L 9.25 2.023438 C 10.378906 2.023438 11.273438 2.917969 11.273438 4.046875 L 11.273438 35.757812 C 11.273438 36.25 11.648438 36.625 12.140625 36.625 C 12.632812 36.625 13.007812 36.25 13.007812 35.757812 L 13.007812 4.046875 C 13.007812 1.964844 11.332031 0.289062 9.25 0.289062 L 4.046875 0.289062 C 1.964844 0.289062 0.289062 1.964844 0.289062 4.046875 L 0.289062 35.84375 C 0.289062 36.335938 0.664062 36.710938 1.15625 36.710938 C 1.648438 36.710938 2.023438 36.335938 2.023438 35.84375 L 2.023438 30.929688 L 4.046875 30.929688 C 4.539062 30.929688 4.914062 30.554688 4.914062 30.0625 Z M 31.796875 0.289062 C 29.078125 0.289062 26.882812 2.484375 26.882812 5.203125 L 26.882812 19.367188 C 26.882812 19.859375 27.257812 20.234375 27.75 20.234375 C 28.242188 20.234375 28.617188 19.859375 28.617188 19.367188 L 28.617188 5.203125 C 28.617188 3.441406 30.035156 2.023438 31.796875 2.023438 C 33.558594 2.023438 34.976562 3.441406 34.976562 5.203125 L 34.976562 19.367188 C 34.976562 20.003906 34.457031 20.523438 33.820312 20.523438 C 33.183594 20.523438 32.664062 20.003906 32.664062 19.367188 L 32.664062 6.9375 C 32.664062 6.445312 32.289062 6.070312 31.796875 6.070312 C 31.304688 6.070312 30.929688 6.445312 30.929688 6.9375 L 30.929688 19.367188 C 30.929688 20.957031 32.230469 22.257812 33.820312 22.257812 C 35.410156 22.257812 36.710938 20.957031 36.710938 19.367188 L 36.710938 5.203125 C 36.710938 2.484375 34.515625 0.289062 31.796875 0.289062 Z M 23.703125 36.132812 C 24.195312 36.132812 24.570312 35.757812 24.570312 35.265625 L 24.570312 8.382812 C 24.570312 8.210938 24.511719 8.035156 24.398438 7.863281 L 20.8125 2.890625 L 20.8125 1.214844 C 20.8125 0.75 20.464844 0.316406 20.003906 0.289062 C 19.484375 0.261719 19.078125 0.664062 19.078125 1.15625 L 19.078125 2.890625 L 15.492188 7.863281 C 15.378906 8.035156 15.320312 8.210938 15.320312 8.382812 L 15.320312 35.265625 C 15.320312 35.757812 15.695312 36.132812 16.1875 36.132812 C 16.679688 36.132812 17.054688 35.757812 17.054688 35.265625 L 17.054688 10.117188 L 22.835938 10.117188 L 22.835938 35.265625 C 22.835938 35.757812 23.210938 36.132812 23.703125 36.132812 Z M 17.257812 8.382812 L 19.945312 4.652344 L 22.632812 8.382812 Z M 17.257812 8.382812 "/>
</g>
</svg>
