<svg width="24" height="24" viewBox="0 0 24 24" fill="none" xmlns="http://www.w3.org/2000/svg">
<g clip-path="url(#clip0_12916_46189)">
<path d="M3.9375 2.25C3.9375 1.06836 4.78125 0.1875 6 0.1875H21.375C21.6934 0.1875 21.9375 0.431641 21.9375 0.75V4.5C21.9375 4.81836 21.6934 5.0625 21.375 5.0625H6.375C5.64453 5.0625 5.0625 5.64453 5.0625 6.375C5.0625 7.10547 5.64453 7.6875 6.375 7.6875H21.375C21.6934 7.6875 21.9375 7.93164 21.9375 8.25C21.9375 8.56836 21.6934 8.8125 21.375 8.8125H6.375C5.02539 8.8125 3.9375 7.72461 3.9375 6.375V2.25Z" fill="black"/>
<path d="M20.832 15.207L21.0566 15.1133C21.5625 14.9063 22.125 14.9062 22.6309 15.0938C23.1367 15.3008 23.5508 15.6934 23.7559 16.1992C23.9805 16.707 23.9805 17.2695 23.7754 17.7754C23.5684 18.2812 23.1758 18.6934 22.668 18.9004L12.0938 23.3633C11.5508 23.5879 10.9688 23.6992 10.4062 23.6992C9.75 23.6992 9.11328 23.5684 8.51172 23.2695L4.05078 21.0938C3.76953 20.9629 3.65625 20.625 3.78711 20.3438C3.91797 20.0625 4.25586 19.9492 4.53711 20.082L9 22.2559C9.82422 22.668 10.8008 22.6875 11.6445 22.332L22.2188 17.8691C22.4434 17.7754 22.6309 17.5879 22.7246 17.3633C22.8184 17.1367 22.8184 16.875 22.7246 16.6504C22.6309 16.4258 22.4434 16.2383 22.2188 16.1445C21.9941 16.0508 21.7305 16.0508 21.5059 16.1445C21.5059 16.1445 14.1191 19.293 14.043 19.3125C13.5371 19.5195 12.9746 19.5 12.4688 19.2754L8.71875 17.6055C8.4375 17.4746 8.30664 17.1367 8.4375 16.8555C8.56836 16.5742 8.90625 16.4434 9.1875 16.5742L12.9375 18.2441C13.1621 18.3379 13.4258 18.3555 13.6504 18.2617C13.875 18.168 14.0625 18 14.1562 17.7754C14.25 17.5508 14.2695 17.2871 14.1758 17.0625C14.0996 16.8184 13.9121 16.6309 13.6875 16.5371L8.84961 14.3633C7.14453 13.6133 5.19336 13.8379 3.71289 14.9629L3 15.5059V21.8438C3 22.1621 2.75586 22.4063 2.4375 22.4063H0.75C0.431641 22.4063 0.1875 22.1621 0.1875 21.8438C0.1875 21.5254 0.431641 21.2813 0.75 21.2813H1.89453V15.2812C1.89453 15.1309 1.94922 15 2.0625 14.8867L2.25 14.6992C2.25977 14.6904 2.26904 14.6812 2.27832 14.6719C2.2876 14.6626 2.29688 14.6533 2.30664 14.6445L3.03711 14.082C4.83789 12.7129 7.23828 12.4316 9.30078 13.3496L14.1562 15.5059C14.9805 15.8633 15.4316 16.6875 15.375 17.5312L19.7812 15.6562C19.6875 15.543 19.5742 15.4492 19.4258 15.3945C19.1992 15.3008 18.9375 15.3008 18.7129 15.3945L16.5371 16.3125C16.4629 16.332 16.3867 16.3496 16.3125 16.3496C16.0879 16.3496 15.8809 16.2188 15.7871 16.0117C15.6758 15.7305 15.8066 15.3945 16.0879 15.2812L18.2617 14.3633C18.7695 14.1367 19.332 14.1367 19.8379 14.3438C20.25 14.5117 20.6055 14.8125 20.832 15.207Z" fill="black"/>
</g>
<defs>
<clipPath id="clip0_12916_46189">
<rect width="24" height="24" fill="black"/>
</clipPath>
</defs>
</svg>
