<svg viewBox="0 0 24 24" xmlns="http://www.w3.org/2000/svg" id="Study-Brain-1--Streamline-Ultimate">
  <desc>
    Study Brain 1 Streamline Icon: https://streamlinehq.com
  </desc>
  <path d="M11.245 7.5a3.75 3.75 0 1 1 5.255 0.756" fill="none" stroke="black" stroke-linecap="round" stroke-linejoin="round" stroke-width="1.5"></path>
  <path d="M23.25 9a4.5 4.5 0 0 1 -4.5 4.5h-1.5" fill="none" stroke="black" stroke-linecap="round" stroke-linejoin="round" stroke-width="1.5"></path>
  <path d="m4.563 10.501 2.187 0" fill="none" stroke="black" stroke-linecap="round" stroke-linejoin="round" stroke-width="1.5"></path>
  <path d="M7.063 13.5a1.5 1.5 0 0 1 1.5 1.5v3" fill="none" stroke="black" stroke-linecap="round" stroke-linejoin="round" stroke-width="1.5"></path>
  <path d="M17.25 22.5V18h2.25a3.749 3.749 0 0 0 2.8 -6.24 4.5 4.5 0 0 0 -3.55 -7.26 4.525 4.525 0 0 0 -0.812 0.075 3.75 3.75 0 0 0 -7.438 0.675c0 0.088 0 0.175 0.01 0.261A4.5 4.5 0 0 0 4.563 10.5H4.5a3.75 3.75 0 0 0 0 7.5h4.063a3.75 3.75 0 0 0 5.687 1.5v3" fill="none" stroke="black" stroke-linecap="round" stroke-linejoin="round" stroke-width="1.5"></path>
  <path d="M14.25 19.5v-3a1.5 1.5 0 0 0 -1.5 -1.5h-1.5" fill="none" stroke="black" stroke-linecap="round" stroke-linejoin="round" stroke-width="1.5"></path>
</svg>