<svg width="24" height="24" viewBox="0 0 24 24" fill="none" xmlns="http://www.w3.org/2000/svg">
<path d="M22.7725 17.0025L19.9975 14.2275C19.7775 14.005 19.425 14.005 19.2225 14.2275C19 14.4475 19 14.8 19.2225 15.0025L21.0525 16.835H14.985C14.67 16.835 14.43 17.075 14.43 17.39C14.43 17.705 14.67 17.945 14.985 17.945H21.0525L19.2225 19.7775C19.11 19.8875 19.055 20.035 19.055 20.165C19.055 20.295 19.11 20.4425 19.2225 20.5525C19.4425 20.775 19.795 20.775 19.9975 20.5525L22.7725 17.7775C22.995 17.5575 22.995 17.2225 22.7725 17.0025Z" fill="black"/>
<path d="M19.61 7.21499C19.295 7.21499 19.055 7.45499 19.055 7.76999V11.1C19.055 11.415 19.295 11.655 19.61 11.655C19.925 11.655 20.165 11.415 20.165 11.1V7.76999C20.165 7.45499 19.925 7.21499 19.61 7.21499Z" fill="black"/>
<path d="M15.91 1.10999H5.92C4.5875 1.10999 3.515 2.18249 3.515 3.51499V20.165C3.515 21.4975 4.5875 22.57 5.92 22.57H16.65C16.965 22.57 17.205 22.33 17.205 22.015C17.205 21.7 16.965 21.46 16.65 21.46H5.92C5.1975 21.46 4.625 20.8875 4.625 20.165V3.51499C4.625 2.79249 5.1975 2.21999 5.92 2.21999H15.355V3.51499C15.355 4.84749 16.4275 5.91999 17.76 5.91999H19.61C19.925 5.91999 20.165 5.67999 20.165 5.36498C20.165 3.01499 18.26 1.10999 15.91 1.10999ZM17.76 4.80999C17.0375 4.80999 16.465 4.23749 16.465 3.51499V2.27499C17.76 2.49749 18.7775 3.53249 19 4.80999H17.76Z" fill="black"/>
</svg>
