<svg width="24" height="24" viewBox="0 0 24 24" fill="none" xmlns="http://www.w3.org/2000/svg">
<path d="M19.425 7.95506C19.2025 7.73256 18.8525 7.73256 18.6475 7.95506L16.39 10.1926C15.3 9.25006 13.9125 8.65756 12.395 8.52756V5.36506C12.395 5.05006 12.155 4.81006 11.84 4.81006C11.525 4.81006 11.285 5.05006 11.285 5.36506V8.52756C9.7675 8.64006 8.38 9.25006 7.29 10.1926L5.0325 7.95506C4.81 7.73256 4.4575 7.73256 4.255 7.95506C4.0325 8.17756 4.0325 8.52756 4.255 8.73256L6.4925 10.9701C5.55 12.0626 4.9575 13.4501 4.8275 14.9676H1.665C1.35 14.9676 1.11 15.2076 1.11 15.5226C1.11 15.8351 1.35 16.0776 1.665 16.0776H22.015C22.33 16.0776 22.57 15.8351 22.57 15.5226C22.57 15.2076 22.33 14.9676 22.015 14.9676H18.8525C18.74 13.4501 18.13 12.0626 17.1875 10.9701L19.425 8.73256C19.6475 8.52756 19.6475 8.17756 19.425 7.95506ZM17.7425 14.9851H5.9375C6.235 11.9876 8.77 9.62006 11.84 9.62006C14.91 9.62006 17.445 11.9876 17.7425 14.9851Z" fill="black"/>
</svg>
