<svg width="24" height="24" viewBox="0 0 24 24" fill="none" xmlns="http://www.w3.org/2000/svg">
<path d="M12 5.8125C11.6817 5.8125 11.4375 5.56836 11.4375 5.25V1.875C11.4375 1.55664 11.6817 1.3125 12 1.3125C12.3184 1.3125 12.5625 1.55664 12.5625 1.875V5.25C12.5625 5.56836 12.3184 5.8125 12 5.8125Z" fill="black"/>
<path d="M1.23829 15.957C1.0879 16.2188 0.75001 16.3125 0.488291 16.1816C0.207041 16.0312 0.113291 15.6758 0.261729 15.4121C2.86915 10.6133 7.48048 7.5 12 7.5C16.5195 7.5 21.1309 10.6133 23.7383 15.4121C23.8867 15.6934 23.793 16.0312 23.5117 16.1816C23.4375 16.2383 23.3438 16.2559 23.25 16.2559C23.0625 16.2559 22.8555 16.1445 22.7617 15.957C20.3633 11.5684 16.0508 8.625 12 8.625C7.94923 8.625 3.63673 11.5684 1.23829 15.957Z" fill="black"/>
<path fill-rule="evenodd" clip-rule="evenodd" d="M12 11.4375C13.8555 11.4375 15.375 12.957 15.375 14.8125C15.375 16.668 13.8555 18.1875 12 18.1875C10.1445 18.1875 8.62501 16.668 8.62501 14.8125C8.62501 12.957 10.1445 11.4375 12 11.4375ZM12 12.5625C10.7617 12.5625 9.75001 13.5742 9.75001 14.8125C9.75001 16.0508 10.7617 17.0625 12 17.0625C13.2383 17.0625 14.25 16.0508 14.25 14.8125C14.25 13.5742 13.2383 12.5625 12 12.5625Z" fill="black"/>
<path d="M4.05079 15.4121C3.9004 15.1309 3.56251 15.0371 3.28126 15.1875C3.00001 15.3379 2.90626 15.6758 3.05665 15.957C5.2129 19.9121 8.47462 22.1992 11.9805 22.1992C15.4883 22.1992 18.75 19.9316 20.9063 15.957C21.0567 15.6758 20.9629 15.3379 20.6817 15.1875C20.4004 15.0371 20.0625 15.1309 19.9121 15.4121C17.9434 19.0117 15.0567 21.0566 11.9629 21.0566C8.86915 21.0566 6.01954 18.9941 4.05079 15.4121Z" fill="black"/>
<path d="M2.9629 6C2.75587 6.22461 2.7754 6.58203 3.00001 6.78711L4.14454 7.81836C4.25587 7.91211 4.38673 7.96875 4.51954 7.96875C4.66798 7.96875 4.81837 7.91211 4.93165 7.78125C5.13673 7.55664 5.11915 7.19922 4.89454 6.99414L3.75001 5.96289C3.5254 5.75586 3.16798 5.77539 2.9629 6Z" fill="black"/>
<path d="M19.0508 6.99414L20.043 5.98047C20.25 5.75586 20.6055 5.75586 20.832 5.98047C21.0371 6.1875 21.0567 6.54297 20.832 6.76953L19.8379 7.78125C19.7442 7.89453 19.5938 7.94922 19.4434 7.94922C19.293 7.94922 19.1621 7.89453 19.0508 7.78125C18.8438 7.57422 18.8242 7.21875 19.0508 6.99414Z" fill="black"/>
<path d="M16.4063 2.73828L15.2617 5.51172C15.1504 5.79297 15.2813 6.13086 15.5625 6.24414C15.6367 6.28125 15.7129 6.28125 15.7695 6.28125C15.9942 6.28125 16.1992 6.15039 16.293 5.92578L17.4375 3.16797C17.5508 2.88672 17.418 2.55078 17.1367 2.4375C16.8379 2.30664 16.5195 2.4375 16.4063 2.73828Z" fill="black"/>
<path d="M6.58204 3.1875C6.44923 2.90625 6.59962 2.56836 6.88087 2.45703C7.16212 2.32422 7.50001 2.47461 7.61329 2.77539L8.75587 5.55078C8.88673 5.83203 8.73829 6.16797 8.45704 6.28125C8.4004 6.30078 8.32423 6.31836 8.25001 6.31836C8.0254 6.31836 7.81837 6.1875 7.72462 5.96289L6.58204 3.1875Z" fill="black"/>
</svg>
