<svg width="24" height="24" viewBox="0 0 24 24" fill="none" xmlns="http://www.w3.org/2000/svg">
<path d="M6.66 12.395H17.02C19.5725 12.395 21.645 10.3225 21.645 7.77004C21.645 5.21754 19.5725 3.14504 17.02 3.14504H3.9225L5.9375 1.12754C6.16 0.907544 6.16 0.555044 5.9375 0.352544C5.7175 0.130044 5.365 0.130044 5.1625 0.352544L2.2025 3.31254C1.98 3.53254 1.98 3.88504 2.2025 4.08754L5.1625 7.04754C5.2725 7.16004 5.42 7.21504 5.55 7.21504C5.68 7.21504 5.8275 7.16004 5.9375 7.04754C6.16 6.82754 6.16 6.47504 5.9375 6.27254L3.9225 4.25504H17.02C18.9625 4.25504 20.535 5.82754 20.535 7.77004C20.535 9.71254 18.9625 11.285 17.02 11.285H6.66C4.1075 11.285 2.035 13.3575 2.035 15.91C2.035 18.4625 4.1075 20.535 6.66 20.535H19.7575L17.7425 22.5525C17.52 22.7725 17.52 23.125 17.7425 23.3275C17.8525 23.44 18 23.495 18.13 23.495C18.26 23.495 18.4075 23.44 18.5175 23.3275L21.4775 20.3675C21.7 20.1475 21.7 19.795 21.4775 19.5925L18.5175 16.6325C18.2975 16.41 17.945 16.41 17.7425 16.6325C17.52 16.8525 17.52 17.205 17.7425 17.4075L19.7575 19.425H6.66C4.7175 19.425 3.145 17.8525 3.145 15.91C3.145 13.9675 4.7175 12.395 6.66 12.395Z" fill="black"/>
</svg>
