<svg width="24" height="24" viewBox="0 0 24 24" fill="none" xmlns="http://www.w3.org/2000/svg">
<path d="M22.2383 15.8809L14.0625 11.9629C12.7871 11.3633 11.3809 11.0254 9.97461 11.0254C8.8125 11.0254 7.65039 11.25 6.5625 11.6621C6.52539 11.6621 6.46875 11.6816 6.43164 11.6992L6.35547 11.7383C6.31836 11.7559 6.28125 11.7754 6.24414 11.793L2.68164 13.2383C1.16211 13.8555 0.1875 15.3008 0.1875 16.9316V20.4375C0.1875 20.7559 0.431641 21 0.75 21H3.05664C3.31836 22.5938 4.70703 23.8125 6.375 23.8125C8.23047 23.8125 9.75 22.293 9.75 20.4375C9.75 18.582 8.23047 17.0625 6.375 17.0625C4.70703 17.0625 3.31836 18.2812 3.05664 19.875H1.3125V16.9316C1.3125 15.7695 2.00586 14.7188 3.09375 14.2871L6.24414 13.0117C7.05078 14.8691 8.90625 16.125 10.9688 16.125H14.6816C15 16.125 15.2441 15.8809 15.2441 15.5625C15.2441 15.2441 15 15 14.6816 15H10.9688C9.375 15 7.93164 14.043 7.29297 12.5996C8.15625 12.3008 9.05664 12.1504 9.99414 12.1504C11.2305 12.1504 12.4688 12.4316 13.5938 12.9746L21.75 16.8945C22.3125 17.1758 22.6875 17.7559 22.6875 18.3945V19.8945H21.8809C21.6191 18.3008 20.2305 17.082 18.5625 17.082C16.707 17.082 15.1875 18.5996 15.1875 20.457C15.1875 22.3125 16.707 23.832 18.5625 23.832C20.2305 23.832 21.6191 22.6133 21.8809 21.0195H23.25C23.5684 21.0195 23.8125 20.7754 23.8125 20.457V18.375C23.8125 17.3242 23.1934 16.332 22.2383 15.8809ZM6.375 18.1875C7.61328 18.1875 8.625 19.1992 8.625 20.4375C8.625 21.6758 7.61328 22.6875 6.375 22.6875C5.13672 22.6875 4.125 21.6758 4.125 20.4375C4.125 19.1992 5.13672 18.1875 6.375 18.1875ZM18.5625 22.6875C17.3242 22.6875 16.3125 21.6758 16.3125 20.4375C16.3125 19.1992 17.3242 18.1875 18.5625 18.1875C19.8008 18.1875 20.8125 19.1992 20.8125 20.4375C20.8125 21.6758 19.8008 22.6875 18.5625 22.6875Z" fill="black"/>
<path d="M11.0625 9.9375C11.3809 9.9375 11.625 9.69336 11.625 9.375C11.625 9.05664 11.3809 8.8125 11.0625 8.8125H9.1875C8.86914 8.8125 8.625 9.05664 8.625 9.375C8.625 9.69336 8.86914 9.9375 9.1875 9.9375H11.0625Z" fill="black"/>
</svg>
