<svg width="24" height="24" viewBox="0 0 24 24" fill="none" xmlns="http://www.w3.org/2000/svg">
<path d="M21.94 15.6699L13.875 11.8024C12.6175 11.2099 11.23 10.8774 9.8425 10.8774C8.64 10.8774 7.455 11.0999 6.345 11.5624L2.645 13.0599C1.1475 13.6724 0.184998 15.0949 0.184998 16.7049V20.1649C0.184998 20.4799 0.424998 20.7199 0.739998 20.7199H3.015C3.275 22.2924 4.6425 23.4949 6.29 23.4949C7.9375 23.4949 9.305 22.2924 9.565 20.7199H15.0225C15.28 22.2924 16.65 23.4949 18.2975 23.4949C19.9425 23.4949 21.3125 22.2924 21.57 20.7199H22.9225C23.235 20.7199 23.4775 20.4799 23.4775 20.1649V18.1299C23.495 17.0949 22.885 16.1124 21.94 15.6699ZM6.29 22.3849C5.07 22.3849 4.07 21.3849 4.07 20.1649C4.07 18.9449 5.07 17.9449 6.29 17.9449C7.51 17.9449 8.51 18.9449 8.51 20.1649C8.51 21.3849 7.51 22.3849 6.29 22.3849ZM10.8225 15.3724C8.955 15.3724 7.3625 14.2449 6.66 12.6349L6.7525 12.5974C7.7325 12.1924 8.77 12.0074 9.8225 12.0074C11.045 12.0074 12.265 12.2849 13.375 12.8199L18.74 15.3924H10.8225V15.3724ZM18.315 22.3849C17.095 22.3849 16.095 21.3849 16.095 20.1649C16.095 18.9449 17.095 17.9449 18.315 17.9449C19.535 17.9449 20.535 18.9449 20.535 20.1649C20.535 21.3849 19.535 22.3849 18.315 22.3849Z" fill="black"/>
<path d="M9.065 8.69495C8.75 8.69495 8.51 8.93495 8.51 9.24995C8.51 9.56495 8.75 9.80495 9.065 9.80495H10.915C11.23 9.80495 11.47 9.56495 11.47 9.24995C11.47 8.93495 11.23 8.69495 10.915 8.69495H9.065Z" fill="black"/>
</svg>
