<svg width="24" height="24" viewBox="0 0 24 24" fill="none" xmlns="http://www.w3.org/2000/svg">
<path d="M7.6025 2.23755L8.14 1.70255L9.6025 3.16255C9.8225 3.38505 10.175 3.38505 10.3775 3.16255L11.84 1.70255L13.3025 3.16255C13.5225 3.38505 13.875 3.38505 14.0775 3.16255L15.54 1.70255L17.0025 3.16255C17.2225 3.38505 17.575 3.38505 17.7775 3.16255L18.685 2.25755V22.9401C18.685 23.2551 18.925 23.4951 19.24 23.4951C19.555 23.4951 19.795 23.2551 19.795 22.9401V0.925053C19.795 0.702553 19.665 0.500053 19.4425 0.407553C19.24 0.315054 19 0.370053 18.8325 0.517553L17.39 1.99755L15.9275 0.537553C15.7075 0.315054 15.355 0.315054 15.1525 0.537553L13.69 1.99755L12.2275 0.537553C12.0075 0.315054 11.655 0.315054 11.4525 0.537553L9.99 1.99755L8.5275 0.537553C8.3075 0.315054 7.955 0.315054 7.7525 0.537553L6.8275 1.46255C6.605 1.68255 6.605 2.03505 6.8275 2.23755C7.0475 2.46005 7.3825 2.46005 7.6025 2.23755Z" fill="black"/>
<path d="M11.84 5.18005C11.525 5.18005 11.285 5.42005 11.285 5.73505V5.81005C10.415 6.05005 9.7875 6.84505 9.7875 7.78755C9.7875 8.45505 10.1 9.06505 10.655 9.45255L12.3775 10.6551C12.635 10.8401 12.7825 11.1176 12.7825 11.4326C12.7825 11.9501 12.3575 12.3776 11.84 12.3776C11.47 12.3776 11.1175 12.1551 10.97 11.8026C10.84 11.5251 10.5275 11.3951 10.25 11.5076C9.9725 11.6376 9.8425 11.9501 9.9525 12.2276C10.2125 12.8026 10.6925 13.2276 11.285 13.3951V13.5051C11.285 13.8201 11.525 14.0601 11.84 14.0601C12.155 14.0601 12.395 13.8201 12.395 13.5051V13.4301C13.265 13.1901 13.8925 12.3951 13.8925 11.4526C13.8925 10.7676 13.56 10.1376 13.005 9.75005L11.285 8.56505C11.045 8.38005 10.8975 8.10255 10.8975 7.78755C10.8975 7.27005 11.3225 6.84505 11.84 6.84505C12.2275 6.84505 12.5625 7.06755 12.71 7.41755C12.82 7.69505 13.1525 7.82505 13.43 7.71505C13.7075 7.60255 13.8375 7.27005 13.7275 6.99255C13.4875 6.40005 12.9875 5.97505 12.395 5.81005V5.73505C12.395 5.42005 12.155 5.18005 11.84 5.18005Z" fill="black"/>
<path d="M0.739998 23.4951H15.355C15.67 23.4951 15.91 23.2551 15.91 22.9401C15.91 22.6251 15.67 22.3851 15.355 22.3851H4.995V0.925053C4.995 0.610053 4.755 0.370053 4.44 0.370053C4.125 0.370053 3.885 0.610053 3.885 0.925053V22.3851H0.739998C0.424998 22.3851 0.184998 22.6251 0.184998 22.9401C0.184998 23.2551 0.424998 23.4951 0.739998 23.4951Z" fill="black"/>
<path d="M9.62 16.4651C9.62 16.7801 9.86 17.0201 10.175 17.0201H16.465C16.78 17.0201 17.02 16.7801 17.02 16.4651C17.02 16.1501 16.78 15.9101 16.465 15.9101H10.175C9.86 15.9101 9.62 16.1501 9.62 16.4651Z" fill="black"/>
<path d="M7.955 16.4651C7.955 16.7726 7.7075 17.0201 7.4 17.0201C7.0925 17.0201 6.845 16.7726 6.845 16.4651C6.845 16.1576 7.0925 15.9101 7.4 15.9101C7.7075 15.9101 7.955 16.1576 7.955 16.4651Z" fill="black"/>
<path d="M10.175 19.7951H16.465C16.78 19.7951 17.02 19.5551 17.02 19.2401C17.02 18.9251 16.78 18.6851 16.465 18.6851H10.175C9.86 18.6851 9.62 18.9251 9.62 19.2401C9.62 19.5551 9.86 19.7951 10.175 19.7951Z" fill="black"/>
<path d="M7.955 19.2401C7.955 19.5476 7.7075 19.7951 7.4 19.7951C7.0925 19.7951 6.845 19.5476 6.845 19.2401C6.845 18.9326 7.0925 18.6851 7.4 18.6851C7.7075 18.6851 7.955 18.9326 7.955 19.2401Z" fill="black"/>
</svg>
