<svg width="24" height="24" viewBox="0 0 24 24" fill="none" xmlns="http://www.w3.org/2000/svg">
<g clip-path="url(#clip0_13117_338)">
<path d="M22.7 4.51506C22.1825 4.05256 21.4975 3.83006 20.795 3.90256C16.4825 4.38506 12.4325 6.32756 9.36 9.39756C9.3425 9.41756 9.3425 9.41756 9.325 9.43506C6.29 12.4876 4.365 16.5201 3.9025 20.8126C3.83 21.4976 4.0525 22.1826 4.515 22.6801C4.9775 23.2001 5.6425 23.4951 6.3275 23.4951H21.0725C22.4025 23.4951 23.495 22.4026 23.495 21.0726V6.30756C23.495 5.62506 23.2 4.95756 22.7 4.51506ZM22.385 21.0726C22.385 21.7926 21.7925 22.3851 21.0725 22.3851H6.3075C5.92 22.3851 5.5675 22.2376 5.3275 21.9401C5.07 21.6626 4.9575 21.2926 4.995 20.9226C5.07 20.2201 5.1975 19.5351 5.3475 18.8526L7.29 19.3701C7.345 19.3876 7.3825 19.3876 7.4375 19.3876C7.6775 19.3876 7.9 19.2226 7.9725 18.9801C8.0475 18.6851 7.88 18.3901 7.585 18.2976L5.6425 17.7776C5.995 16.6126 6.4375 15.5026 7.0125 14.4301L8.7875 15.4476C8.88 15.5026 8.9725 15.5226 9.065 15.5226C9.25 15.5226 9.4525 15.4301 9.545 15.2451C9.695 14.9851 9.6025 14.6326 9.3425 14.4851L7.585 13.4676C8.215 12.4501 8.935 11.4876 9.75 10.6001L11.23 12.0626C11.34 12.1726 11.47 12.2276 11.6175 12.2276C11.765 12.2276 11.895 12.1726 12.0075 12.0626C12.2275 11.8401 12.2275 11.4876 12.0075 11.2851L10.5275 9.82256C11.415 8.99006 12.3775 8.25006 13.395 7.60256L14.4475 9.41756C14.56 9.60256 14.745 9.69506 14.93 9.69506C15.0225 9.69506 15.115 9.67506 15.2075 9.62006C15.465 9.47256 15.5575 9.12006 15.41 8.86256L14.355 7.04756C15.43 6.47506 16.5575 5.99506 17.7225 5.64256L18.2775 7.67756C18.3525 7.91756 18.575 8.08506 18.815 8.08506C18.87 8.08506 18.9075 8.08506 18.9625 8.06506C19.2575 7.99256 19.425 7.67756 19.35 7.38256L18.795 5.34756C19.5 5.18006 20.2025 5.05006 20.9225 4.97756C20.98 4.97756 21.015 4.97756 21.0725 4.97756C21.405 4.97756 21.72 5.08756 21.96 5.31006C22.2375 5.56756 22.385 5.90256 22.385 6.27256V21.0726Z" fill="black"/>
<path d="M0.739998 23.4951C1.055 23.4951 1.295 23.2551 1.295 22.9401V16.0951H2.59C2.905 16.0951 3.145 15.8551 3.145 15.5401C3.145 15.2251 2.905 14.9851 2.59 14.9851H1.295V12.3951H2.59C2.905 12.3951 3.145 12.1551 3.145 11.8401C3.145 11.5251 2.905 11.2851 2.59 11.2851H1.295V8.69506H2.59C2.905 8.69506 3.145 8.45506 3.145 8.14006C3.145 7.82506 2.905 7.58506 2.59 7.58506H1.295V4.99506H2.59C2.905 4.99506 3.145 4.75506 3.145 4.44006C3.145 4.12506 2.905 3.88506 2.59 3.88506H1.295V2.59006C1.295 1.86756 1.8675 1.29506 2.59 1.29506H5.92C6.6425 1.29506 7.215 1.86756 7.215 2.59006V7.71506C7.215 8.03006 7.455 8.27006 7.77 8.27006C8.085 8.27006 8.325 8.03006 8.325 7.71506V2.59006C8.325 1.25756 7.2525 0.185059 5.92 0.185059H2.59C1.2575 0.185059 0.184998 1.25756 0.184998 2.59006V22.9401C0.184998 23.2551 0.424998 23.4951 0.739998 23.4951Z" fill="black"/>
</g>
<defs>
<clipPath id="clip0_13117_338">
<rect width="24" height="24" fill="black"/>
</clipPath>
</defs>
</svg>
