<svg width="24" height="24" viewBox="0 0 24 24" fill="none" xmlns="http://www.w3.org/2000/svg">
<path d="M9.3425 17.02C9.3425 16.705 9.1025 16.465 8.7875 16.465H4.1625C3.8475 16.465 3.6075 16.705 3.6075 17.02V21.645C3.6075 21.96 3.8475 22.2 4.1625 22.2C4.4775 22.2 4.7175 21.96 4.7175 21.645V18.575C4.7725 18.6475 4.8475 18.7025 4.9025 18.7775C6.7525 20.6275 9.2125 21.645 11.84 21.645C14.4675 21.645 16.9275 20.6275 18.7775 18.7775C20.6275 16.9275 21.645 14.4675 21.645 11.84C21.645 9.21248 20.6275 6.75248 18.7775 4.90248C16.9275 3.05248 14.4675 2.03498 11.84 2.03498C9.2125 2.03498 6.7525 3.05248 4.9025 4.90248C4.8475 4.95748 4.7725 5.03248 4.7175 5.10498V2.03498C4.7175 1.71998 4.4775 1.47998 4.1625 1.47998C3.8475 1.47998 3.6075 1.71998 3.6075 2.03498V6.65998C3.6075 6.97498 3.8475 7.21498 4.1625 7.21498H8.7875C9.1025 7.21498 9.3425 6.97498 9.3425 6.65998C9.3425 6.34498 9.1025 6.10498 8.7875 6.10498H5.31C5.44 5.95748 5.5675 5.82748 5.6975 5.69748C7.325 4.05248 9.51 3.14498 11.84 3.14498C14.17 3.14498 16.355 4.05248 17.9825 5.69748C19.61 7.34498 20.535 9.50998 20.535 11.84C20.535 14.17 19.6275 16.355 17.9825 17.9825C16.335 19.61 14.17 20.535 11.84 20.535C9.51 20.535 7.325 19.6275 5.6975 17.9825C5.5675 17.8525 5.44 17.705 5.31 17.575H8.7875C9.1025 17.575 9.3425 17.335 9.3425 17.02Z" fill="black"/>
</svg>
