<svg width="24" height="24" viewBox="0 0 24 24" fill="none" xmlns="http://www.w3.org/2000/svg">
<g clip-path="url(#clip0_13115_14)">
<path d="M12 0.1875C5.48633 0.1875 0.1875 5.48633 0.1875 12C0.1875 18.5137 5.48633 23.8125 12 23.8125C18.5137 23.8125 23.8125 18.5137 23.8125 12C23.8125 5.48633 18.5137 0.1875 12 0.1875ZM1.3125 12C1.3125 6.10742 6.10742 1.3125 12 1.3125C14.7441 1.3125 17.25 2.35352 19.1465 4.05859L4.06055 19.1445C2.35352 17.25 1.3125 14.7441 1.3125 12ZM12 22.6875C9.25586 22.6875 6.75 21.6465 4.85352 19.9414L19.9395 4.85547C21.6465 6.75 22.6875 9.25586 22.6875 12C22.6875 17.8926 17.8926 22.6875 12 22.6875Z" fill="black"/>
</g>
<defs>
<clipPath id="clip0_13115_14">
<rect width="24" height="24" fill="black"/>
</clipPath>
</defs>
</svg>
