<svg width="280" height="87" viewBox="0 0 280 87" fill="none" xmlns="http://www.w3.org/2000/svg">
<g id="Union">
<path d="M40.002 0.944336C50.2286 0.944336 58.5669 3.50096 65.0176 8.61426C71.5469 13.7276 75.5985 20.9253 77.1719 30.208H57.8203C56.8763 26.0387 54.8697 22.8136 51.8018 20.5322C48.7338 18.1722 44.7611 16.9922 39.8838 16.9922C35.2425 16.9922 31.2698 18.0933 27.9658 20.2959C24.7406 22.4986 22.2629 25.6062 20.5322 29.6182C18.8803 33.5514 18.0537 38.3104 18.0537 43.8955C18.0537 49.3235 18.8802 54.0437 20.5322 58.0557C22.2629 61.9889 24.7406 65.0571 27.9658 67.2598C31.2698 69.3837 35.2425 70.4463 39.8838 70.4463C44.761 70.4463 48.6943 69.4231 51.6836 67.3779C54.7516 65.2539 56.7976 62.2253 57.8203 58.292H77.1719C75.5985 67.0239 71.5469 73.9068 65.0176 78.9414C58.5669 83.8974 50.2286 86.376 40.002 86.376C31.742 86.376 24.6222 84.6054 18.6436 81.0654C12.6652 77.4468 8.06313 72.4518 4.83789 66.0801C1.61256 59.6294 0 52.2342 0 43.8955C4.2962e-05 35.3996 1.6126 27.9657 4.83789 21.5938C8.06313 15.1433 12.6651 10.1089 18.6436 6.49023C24.6222 2.79291 31.742 0.944343 40.002 0.944336Z" fill="black"/>
<path fill-rule="evenodd" clip-rule="evenodd" d="M160.487 24.0723C166.151 24.0723 171.068 25.0154 175.237 26.9033C179.407 28.7126 182.632 31.3878 184.913 34.9277C187.273 38.4677 188.453 42.873 188.453 48.1436V84.96H173.703L171.579 76.3457C170.714 77.8402 169.692 79.217 168.512 80.4756C167.332 81.6556 165.955 82.7181 164.382 83.6621C162.809 84.5274 161.077 85.196 159.189 85.668C157.301 86.14 155.217 86.376 152.936 86.376C147.98 86.376 143.85 85.5889 140.546 84.0156C137.321 82.4423 134.921 80.3182 133.348 77.6436C131.853 74.8902 131.105 71.8616 131.105 68.5576C131.105 65.0177 131.971 61.91 133.701 59.2354C135.51 56.4822 138.303 54.3194 142.079 52.7461C145.855 51.0941 150.615 50.2676 156.357 50.2676H170.754C170.754 47.5932 170.399 45.3907 169.691 43.6602C169.062 41.9296 168 40.631 166.506 39.7656C165.011 38.9003 162.965 38.4678 160.369 38.4678C157.616 38.4678 155.295 39.0188 153.407 40.1201C151.519 41.2214 150.339 42.9518 149.867 45.3115H132.875C133.268 41.0636 134.646 37.3663 137.006 34.2197C139.445 31.0732 142.67 28.5954 146.682 26.7861C150.694 24.9768 155.295 24.0723 160.487 24.0723ZM158.481 60.6514C156.515 60.6514 154.863 60.9269 153.525 61.4775C152.267 61.9495 151.323 62.6576 150.693 63.6016C150.064 64.5456 149.749 65.6476 149.749 66.9062C149.749 68.2434 150.064 69.3842 150.693 70.3281C151.401 71.1933 152.306 71.862 153.407 72.334C154.587 72.7273 155.886 72.9238 157.302 72.9238C159.19 72.9238 160.842 72.6088 162.258 71.9795C163.674 71.3502 164.893 70.4849 165.915 69.3838C166.938 68.2825 167.764 67.0234 168.394 65.6074C169.101 64.1128 169.613 62.5001 169.928 60.7695V60.6514H158.481Z" fill="black"/>
<path d="M125.923 42.834H120.022C117.662 42.834 115.499 43.1095 113.532 43.6602C111.644 44.1322 109.992 44.9578 108.576 46.1377C107.239 47.3176 106.177 48.9304 105.391 50.9756C104.683 52.9423 104.328 55.4208 104.328 58.4102V84.96H86.6289V25.4873H102.322L103.975 36.3438C105.548 33.8265 107.397 31.6628 109.521 29.8535C111.644 28.0443 114.083 26.6281 116.836 25.6055C119.668 24.5828 122.698 24.0723 125.923 24.0723V42.834Z" fill="black"/>
<path d="M231.247 14.9863H226.527C224.089 14.9863 222.359 15.4586 221.336 16.4023C220.313 17.3463 219.802 18.9589 219.802 21.2402V25.4883H232.073V40.2383H219.802V84.96H202.102V40.2383H194.313V25.4883H202.102V21.2402C202.102 16.0482 203.006 11.9176 204.815 8.84961C206.625 5.70328 209.142 3.4613 212.367 2.12402C215.671 0.708159 219.448 1.86489e-05 223.695 0H231.247V14.9863Z" fill="black"/>
<path d="M264.627 8.73242V25.4883H279.849V40.2383H264.627V63.4844C264.627 65.8441 265.139 67.535 266.161 68.5576C267.262 69.5016 269.111 69.9736 271.707 69.9736H279.849V84.96H268.639C264.391 84.9599 260.615 84.2914 257.311 82.9541C254.007 81.5381 251.45 79.2569 249.641 76.1104C247.831 72.9637 246.927 68.676 246.927 63.248V40.2383H236.779V25.4883H246.927L248.814 8.73242H264.627Z" fill="black"/>
</g>
</svg>
