<svg width="24" height="24" viewBox="0 0 24 24" fill="none" xmlns="http://www.w3.org/2000/svg">
<path d="M15.3555 5.08203L12.5625 2.28711V23.25C12.5625 23.5684 12.3184 23.8125 12 23.8125C11.6816 23.8125 11.4375 23.5684 11.4375 23.25V2.28711L8.64453 5.08203C8.4375 5.30664 8.08203 5.30664 7.85547 5.08203C7.63086 4.875 7.63086 4.51953 7.85547 4.29297L11.6055 0.542969C11.8125 0.318359 12.168 0.318359 12.3945 0.542969L16.1445 4.29297C16.3691 4.5 16.3691 4.85547 16.1445 5.08203C16.0313 5.19336 15.8809 5.25 15.75 5.25C15.6191 5.25 15.4688 5.19336 15.3555 5.08203Z" fill="black"/>
<path d="M4.61328 17.3242C3.9375 18.1133 3.5625 19.1055 3.5625 20.1562V23.25C3.5625 23.5684 3.80664 23.8125 4.125 23.8125C4.44336 23.8125 4.6875 23.5684 4.6875 23.25V20.1562C4.6875 19.3867 4.96875 18.6562 5.47461 18.0742L8.51172 14.5684C9.1875 13.7617 9.5625 12.7695 9.5625 11.7187V9.375C9.5625 9.05664 9.31836 8.8125 9 8.8125C8.68164 8.8125 8.4375 9.05664 8.4375 9.375V11.7187C8.4375 12.4883 8.15625 13.2188 7.65039 13.8008L4.61328 17.3242Z" fill="black"/>
<path d="M19.875 23.8125C20.1934 23.8125 20.4375 23.5684 20.4375 23.25V20.1562C20.4375 19.125 20.0625 18.1133 19.3867 17.3242L16.3496 13.8184C15.8438 13.2383 15.5625 12.5059 15.5625 11.7383V9.375C15.5625 9.05664 15.3184 8.8125 15 8.8125C14.6816 8.8125 14.4375 9.05664 14.4375 9.375V11.7187C14.4375 12.75 14.8125 13.7617 15.4883 14.5508L18.5254 18.0566C19.0312 18.6367 19.3125 19.3691 19.3125 20.1367V23.25C19.3125 23.5684 19.5566 23.8125 19.875 23.8125Z" fill="black"/>
</svg>
