<svg width="24" height="24" viewBox="0 0 24 24" fill="none" xmlns="http://www.w3.org/2000/svg">
<g clip-path="url(#clip0_13116_822)">
<path d="M11.84 8.69506C12.155 8.69506 12.395 8.45506 12.395 8.14006V2.07256L13.6725 3.34756C13.7825 3.46006 13.93 3.51506 14.06 3.51506C14.19 3.51506 14.3375 3.46006 14.4475 3.34756C14.67 3.12756 14.67 2.77506 14.4475 2.57256L12.2275 0.352559C12.21 0.332559 12.1725 0.295059 12.135 0.277559C12.1175 0.277559 12.1175 0.260059 12.1 0.260059C12.08 0.240059 12.0625 0.240059 12.0425 0.222559C12.025 0.222559 12.0075 0.202559 11.9875 0.202559C11.97 0.202559 11.95 0.185059 11.9325 0.185059C11.915 0.185059 11.8775 0.185059 11.84 0.185059C11.8025 0.185059 11.765 0.185059 11.73 0.202559C11.71 0.202559 11.6925 0.222559 11.6725 0.222559C11.655 0.222559 11.6375 0.240059 11.6175 0.240059C11.6 0.240059 11.58 0.260059 11.5625 0.277559C11.545 0.277559 11.525 0.295059 11.525 0.295059C11.4875 0.315059 11.47 0.332559 11.4325 0.370059L9.2125 2.59006C8.99 2.81256 8.99 3.16256 9.2125 3.36756C9.435 3.59006 9.7875 3.59006 9.99 3.36756L11.2675 2.09006V8.14006C11.285 8.45506 11.525 8.69506 11.84 8.69506Z" fill="black"/>
<path d="M7.1775 7.19756C7.0675 6.90006 6.7525 6.75256 6.475 6.86256L2.775 8.17756C2.665 8.21506 2.5525 8.30756 2.48 8.41756L0.259998 12.1176C0.184998 12.2476 0.167499 12.4326 0.222498 12.5801C0.277499 12.7276 0.407499 12.8576 0.554999 12.9126L9.435 16.0576C9.49 16.0776 9.565 16.0951 9.62 16.0951C9.805 16.0951 9.99 16.0026 10.1 15.8176L11.285 13.8376V22.1451L3.515 19.3876V15.5401C3.515 15.2251 3.275 14.9851 2.96 14.9851C2.645 14.9851 2.405 15.2251 2.405 15.5401V19.7951C2.405 20.0351 2.5525 20.2401 2.775 20.3126L11.655 23.4576C11.71 23.4776 11.785 23.4951 11.84 23.4951C11.895 23.4951 11.97 23.4776 12.025 23.4576L20.905 20.3126C21.1275 20.2401 21.275 20.0176 21.275 19.7951V13.5801L23.125 12.9326C23.2725 12.8751 23.4025 12.7476 23.4575 12.5976C23.5125 12.4501 23.495 12.2651 23.4025 12.1176L21.1825 8.41756C21.1825 8.41756 21.1825 8.40006 21.165 8.40006C21.145 8.38006 21.1275 8.34256 21.1075 8.32506L21.09 8.30756C21.0725 8.28756 21.0525 8.27006 21.035 8.27006C21.035 8.27006 21.015 8.27006 21.015 8.25006C21.015 8.25006 21.015 8.25006 20.9975 8.25006C20.98 8.23256 20.96 8.23256 20.9425 8.21506C20.9225 8.21506 20.9225 8.19506 20.905 8.19506C20.905 8.19506 20.905 8.19506 20.8875 8.19506C20.8875 8.19506 20.8875 8.19506 20.8675 8.19506L17.1675 6.88256C16.8725 6.77006 16.5575 6.93756 16.465 7.21506C16.355 7.51006 16.52 7.82506 16.7975 7.91756L19.0175 8.71256L14.375 10.3601L11.84 11.2476L4.625 8.69506L6.845 7.90006C7.14 7.80756 7.29 7.49256 7.1775 7.19756ZM20.48 9.36006L22.125 12.1001L14.32 14.8751L12.6725 12.1351L20.48 9.36006ZM11.0075 12.1351L9.36 14.8751L1.555 12.1001L3.2 9.36006L11.0075 12.1351Z" fill="black"/>
</g>
<defs>
<clipPath id="clip0_13116_822">
<rect width="24" height="24" fill="black"/>
</clipPath>
</defs>
</svg>
