<svg width="24" height="24" viewBox="0 0 24 24" fill="none" xmlns="http://www.w3.org/2000/svg">
<path d="M12.562 6.75C12.562 7.06836 12.3179 7.3125 11.9995 7.3125C11.6812 7.3125 11.437 7.06836 11.437 6.75V3.97461L1.14404 14.2695C1.03076 14.3809 0.899902 14.4375 0.749512 14.4375C0.599121 14.4375 0.468262 14.3809 0.354981 14.2695C0.130371 14.0625 0.130371 13.707 0.354981 13.4805L10.6499 3.1875H7.87451C7.55615 3.1875 7.31201 2.94336 7.31201 2.625C7.31201 2.30664 7.55615 2.0625 7.87451 2.0625H11.9995C12.3179 2.0625 12.562 2.30664 12.562 2.625V6.75Z" fill="black"/>
<path d="M17.9995 8.25C17.9995 7.42578 18.6753 6.75 19.4995 6.75H23.2495C23.5679 6.75 23.812 6.99414 23.812 7.3125C23.812 7.63086 23.5679 7.875 23.2495 7.875H19.4995C19.2925 7.875 19.1245 8.04297 19.1245 8.25V12C19.1245 12.8242 18.4487 13.5 17.6245 13.5H13.8745C13.6675 13.5 13.4995 13.668 13.4995 13.875V17.625C13.4995 18.4492 12.8237 19.125 11.9995 19.125H8.24951C8.04248 19.125 7.87451 19.293 7.87451 19.5V23.25C7.87451 23.5684 7.63037 23.8125 7.31201 23.8125C6.99365 23.8125 6.74951 23.5684 6.74951 23.25V19.5C6.74951 18.6758 7.42529 18 8.24951 18H11.9995C12.2065 18 12.3745 17.832 12.3745 17.625V13.875C12.3745 13.0508 13.0503 12.375 13.8745 12.375H17.6245C17.8315 12.375 17.9995 12.207 17.9995 12V8.25Z" fill="black"/>
</svg>
