<svg width="24" height="24" viewBox="0 0 24 24" fill="none" xmlns="http://www.w3.org/2000/svg">
<path d="M12.562 18.5624C12.562 18.8807 12.3179 19.1249 11.9995 19.1249C11.6812 19.1249 11.437 18.8807 11.437 18.5624V6.59949L8.64404 9.39441C8.43701 9.61902 8.08154 9.61902 7.85498 9.39441C7.63037 9.18738 7.63037 8.83191 7.85498 8.60535L11.605 4.85535C11.812 4.63074 12.1675 4.63074 12.394 4.85535L16.144 8.60535C16.3687 8.81238 16.3687 9.16785 16.144 9.39441C16.0308 9.50574 15.8804 9.56238 15.7495 9.56238C15.6187 9.56238 15.4683 9.50574 15.355 9.39441L12.562 6.59949V18.5624Z" fill="black"/>
</svg>
