<?xml version="1.0" encoding="UTF-8"?>
<svg xmlns="http://www.w3.org/2000/svg" xmlns:xlink="http://www.w3.org/1999/xlink" width="37.5pt" height="37.5pt" viewBox="0 0 37.5 37.5" version="1.1">
<g id="surface4548">
<path style=" stroke:none;fill-rule:nonzero;fill:rgb(0%,0%,0%);fill-opacity:1;" d="M 9.25 1.734375 C 7.167969 1.734375 5.492188 3.410156 5.492188 5.492188 L 5.492188 31.507812 C 5.492188 33.589844 7.167969 35.265625 9.25 35.265625 L 13.527344 35.265625 C 14.191406 35.265625 14.570312 34.542969 14.25 33.992188 L 14.25 33.964844 C 14.105469 33.703125 13.816406 33.53125 13.5 33.53125 L 9.25 33.53125 C 8.121094 33.53125 7.226562 32.636719 7.226562 31.507812 L 7.226562 5.492188 C 7.226562 4.363281 8.121094 3.46875 9.25 3.46875 L 23.992188 3.46875 L 23.992188 5.492188 C 23.992188 7.574219 25.667969 9.25 27.75 9.25 L 29.773438 9.25 L 29.773438 14.105469 C 29.773438 14.570312 30.148438 14.914062 30.613281 14.914062 L 30.667969 14.914062 C 31.132812 14.914062 31.507812 14.570312 31.507812 14.105469 L 31.507812 8.382812 C 31.507812 6.621094 30.8125 4.941406 29.570312 3.671875 C 28.300781 2.429688 26.621094 1.734375 24.859375 1.734375 Z M 25.726562 3.554688 C 26.710938 3.730469 27.605469 4.191406 28.328125 4.914062 C 29.050781 5.636719 29.511719 6.53125 29.6875 7.515625 L 27.75 7.515625 C 26.621094 7.515625 25.726562 6.621094 25.726562 5.492188 Z M 15.550781 18.933594 C 15.058594 18.933594 14.683594 19.308594 14.683594 19.800781 C 14.683594 20.292969 15.058594 20.667969 15.550781 20.667969 L 19.019531 20.667969 C 15.550781 24.398438 15.636719 30.265625 19.25 33.90625 C 21.101562 35.757812 23.558594 36.710938 25.988281 36.710938 C 28.414062 36.710938 30.871094 35.785156 32.722656 33.90625 C 34.339844 32.289062 35.324219 30.121094 35.496094 27.835938 C 35.554688 27.34375 35.207031 26.941406 34.714844 26.910156 C 34.226562 26.882812 33.820312 27.230469 33.792969 27.722656 C 33.648438 29.601562 32.867188 31.363281 31.535156 32.691406 C 28.5 35.726562 23.53125 35.726562 20.496094 32.691406 C 19.019531 31.21875 18.210938 29.253906 18.210938 27.171875 C 18.210938 25.089844 19.019531 23.125 20.496094 21.652344 C 20.609375 21.535156 20.695312 21.449219 20.8125 21.363281 L 20.8125 25.957031 C 20.8125 26.449219 21.1875 26.824219 21.679688 26.824219 C 22.171875 26.824219 22.546875 26.449219 22.546875 25.957031 L 22.546875 19.800781 C 22.546875 19.308594 22.171875 18.933594 21.679688 18.933594 Z M 30.574219 18.933594 C 30.296875 18.949219 30.023438 19.097656 29.859375 19.367188 C 29.601562 19.773438 29.714844 20.320312 30.148438 20.550781 C 30.640625 20.871094 31.101562 21.246094 31.535156 21.652344 C 31.796875 21.910156 32.058594 22.230469 32.289062 22.519531 C 32.460938 22.75 32.722656 22.863281 32.980469 22.863281 C 33.15625 22.863281 33.328125 22.808594 33.503906 22.691406 C 33.878906 22.402344 33.964844 21.851562 33.675781 21.476562 C 33.386719 21.101562 33.097656 20.753906 32.75 20.40625 C 32.230469 19.886719 31.679688 19.453125 31.046875 19.050781 C 30.90625 18.960938 30.738281 18.925781 30.574219 18.933594 Z M 30.574219 18.933594 "/>
</g>
</svg>
