<svg width="24" height="24" viewBox="0 0 24 24" fill="none" xmlns="http://www.w3.org/2000/svg">
<path d="M22.2175 17.2225C21.905 17.205 21.645 17.4275 21.6275 17.7425C21.535 18.945 21.035 20.0725 20.1825 20.9225C18.24 22.865 15.06 22.865 13.1175 20.9225C12.1725 19.98 11.655 18.7225 11.655 17.39C11.655 16.0575 12.1725 14.8 13.1175 13.8575C13.19 13.7825 13.245 13.7275 13.32 13.6725V16.6125C13.32 16.9275 13.56 17.1675 13.875 17.1675C14.19 17.1675 14.43 16.9275 14.43 16.6125V12.6725C14.43 12.3575 14.19 12.1175 13.875 12.1175H9.9525C9.6375 12.1175 9.3975 12.3575 9.3975 12.6725C9.3975 12.9875 9.6375 13.2275 9.9525 13.2275H12.1725C9.9525 15.615 10.0075 19.37 12.32 21.7C13.505 22.885 15.0775 23.495 16.6325 23.495C18.185 23.495 19.7575 22.9025 20.9425 21.7C21.9775 20.665 22.6075 19.2775 22.7175 17.815C22.755 17.5 22.5325 17.2425 22.2175 17.2225Z" fill="black"/>
<path d="M3.515 20.165C3.515 21.4975 4.5875 22.57 5.92 22.57H8.6575C9.0825 22.57 9.325 22.1075 9.12 21.755C9.12 21.755 9.12 21.755 9.12 21.7375C9.0275 21.57 8.8425 21.46 8.64 21.46H5.92C5.1975 21.46 4.625 20.8875 4.625 20.165V3.51499C4.625 2.79249 5.1975 2.21999 5.92 2.21999H15.355V3.51499C15.355 4.84749 16.4275 5.91999 17.76 5.91999H19.055V9.02749C19.055 9.32499 19.295 9.54498 19.5925 9.54498C19.61 9.54498 19.6275 9.54498 19.6275 9.54498C19.925 9.54498 20.165 9.32499 20.165 9.02749V5.40249C20.165 5.38249 20.165 5.38248 20.165 5.36498C20.165 4.23749 19.72 3.16249 18.925 2.34999C18.1125 1.55499 17.0375 1.10999 15.91 1.10999H5.92C4.5875 1.10999 3.515 2.18249 3.515 3.51499V20.165ZM16.465 2.27499C17.095 2.38749 17.6675 2.68249 18.13 3.14498C18.5925 3.60749 18.8875 4.17999 19 4.80999H17.76C17.0375 4.80999 16.465 4.23749 16.465 3.51499V2.27499Z" fill="black"/>
<path d="M19.11 12.395C18.945 12.655 19.0175 13.005 19.295 13.1525C19.61 13.3575 19.905 13.5975 20.1825 13.8575C20.35 14.0225 20.5175 14.2275 20.665 14.4125C20.775 14.56 20.9425 14.6325 21.1075 14.6325C21.22 14.6325 21.33 14.5975 21.4425 14.5225C21.6825 14.3375 21.7375 13.985 21.5525 13.745C21.3675 13.505 21.1825 13.2825 20.96 13.06C20.6275 12.7275 20.275 12.45 19.87 12.1925C19.6275 12.0425 19.2775 12.1175 19.11 12.395Z" fill="black"/>
</svg>
