<svg width="24" height="24" viewBox="0 0 24 24" fill="none" xmlns="http://www.w3.org/2000/svg">
<path d="M3.375 20.8125C3.69336 20.8125 3.9375 20.5684 3.9375 20.25V14.625H20.0625C20.3809 14.625 20.625 14.3809 20.625 14.0625V3.5625C20.625 3.24414 20.3809 3 20.0625 3H3.375C3.05664 3 2.8125 3.24414 2.8125 3.5625V20.25C2.8125 20.5684 3.05664 20.8125 3.375 20.8125ZM19.5 8.25H11.25V6.75H19.5V8.25ZM9.58203 5.26953C9.48828 5.38086 9.33789 5.4375 9.1875 5.4375C9.03711 5.4375 8.88672 5.38086 8.79297 5.26953C8.68164 5.17578 8.625 5.02539 8.625 4.875C8.625 4.72461 8.68164 4.57422 8.79297 4.48047C9 4.27539 9.375 4.27539 9.58203 4.48047C9.69336 4.59375 9.75 4.72461 9.75 4.875C9.75 5.02539 9.69336 5.17578 9.58203 5.26953ZM9.75 7.6875C9.75 7.83789 9.69336 7.98828 9.58203 8.08203C9.48828 8.19336 9.33789 8.25 9.1875 8.25C9.03711 8.25 8.88672 8.19336 8.79297 8.08203C8.68164 7.98828 8.625 7.83789 8.625 7.6875C8.625 7.53711 8.68164 7.38672 8.79297 7.29297C9 7.08789 9.375 7.08789 9.58203 7.29297C9.69336 7.38672 9.75 7.53711 9.75 7.6875ZM7.875 6.1875C7.875 6.33789 7.81836 6.48828 7.70703 6.58203C7.61328 6.69336 7.46289 6.75 7.3125 6.75C7.16211 6.75 7.01172 6.69336 6.91797 6.58203C6.80664 6.48828 6.75 6.33789 6.75 6.1875C6.75 6.03711 6.80664 5.88672 6.91797 5.79297C7.125 5.58789 7.5 5.58789 7.70703 5.79297C7.81836 5.88672 7.875 6.03711 7.875 6.1875ZM5.83203 5.26953C5.73828 5.38086 5.58789 5.4375 5.4375 5.4375C5.28711 5.4375 5.13672 5.38086 5.04297 5.26953C4.93164 5.17578 4.875 5.02539 4.875 4.875C4.875 4.72461 4.93164 4.57422 5.04297 4.48047C5.25 4.27539 5.625 4.27539 5.83203 4.48047C5.94336 4.59375 6 4.72461 6 4.875C6 5.02539 5.94336 5.17578 5.83203 5.26953ZM6 7.6875C6 7.83789 5.94336 7.98828 5.83203 8.08203C5.73828 8.19336 5.58789 8.25 5.4375 8.25C5.28711 8.25 5.13672 8.19336 5.04297 8.08203C4.93164 7.98828 4.875 7.83789 4.875 7.6875C4.875 7.53711 4.93164 7.38672 5.04297 7.29297C5.25 7.08789 5.625 7.08789 5.83203 7.29297C5.94336 7.38672 6 7.53711 6 7.6875ZM19.5 5.625H11.25V4.125H19.5V5.625ZM3.9375 9.375H19.5V10.875H3.9375V9.375ZM19.5 12V13.5H3.9375V12H19.5Z" fill="black"/>
</svg>
