<svg width="24" height="24" viewBox="0 0 24 24" fill="none" xmlns="http://www.w3.org/2000/svg">
<path fill-rule="evenodd" clip-rule="evenodd" d="M20.4375 5.4375C20.4375 5.75586 20.1934 6 19.875 6H18C16.6504 6 15.5625 4.91211 15.5625 3.5625V2.25H6C5.26953 2.25 4.6875 2.83203 4.6875 3.5625V20.4375C4.6875 21.168 5.26953 21.75 6 21.75H18C18.7305 21.75 19.3125 21.168 19.3125 20.4375V8.0625C19.3125 7.74414 19.5566 7.5 19.875 7.5C20.1934 7.5 20.4375 7.74414 20.4375 8.0625V20.4375C20.4375 21.7871 19.3496 22.875 18 22.875H6C4.65039 22.875 3.5625 21.7871 3.5625 20.4375V3.5625C3.5625 2.21289 4.65039 1.125 6 1.125H16.125C18.5059 1.125 20.4375 3.05664 20.4375 5.4375ZM19.2559 4.875C19.0313 3.58203 18 2.53125 16.6875 2.30664V3.5625C16.6875 4.29297 17.2695 4.875 18 4.875H19.2559Z" fill="black"/>
<path d="M10.4062 10.3867C10.5742 10.293 10.8008 10.293 10.9688 10.3867L14.5312 12.4492C14.6992 12.543 14.8125 12.7305 14.8125 12.9375C14.8125 13.1445 14.6992 13.332 14.5312 13.4258L10.9688 15.4883C10.875 15.543 10.7812 15.5625 10.6875 15.5625C10.5938 15.5625 10.5 15.543 10.4062 15.4883C10.2383 15.3945 10.125 15.207 10.125 15V10.875C10.125 10.668 10.2383 10.4805 10.4062 10.3867Z" fill="black"/>
</svg>
