<svg width="24" height="24" viewBox="0 0 24 24" fill="none" xmlns="http://www.w3.org/2000/svg">
<path fill-rule="evenodd" clip-rule="evenodd" d="M20.0254 5.86912L23.0996 13.6875H23.25C23.5684 13.6875 23.8125 13.9316 23.7754 14.25V14.832C23.7754 15.1504 23.5312 15.3945 23.2129 15.3945H22.9883V15.4316C22.5 17.2695 21.1875 22.1621 17.3066 22.1621C13.7617 22.1621 12.2246 19.6875 12.2246 18.4121C12.2246 17.9062 12.4688 17.2129 12.957 16.5371C12.8242 16.5195 12.6934 16.4629 12.5996 16.3691C12.3945 16.1621 12.3945 15.8066 12.6191 15.582C13.6875 14.5508 15.4688 13.8379 17.3809 13.6875H21.9004L18.9941 6.28123C18.4688 4.96873 17.2695 4.03123 15.9375 3.90037C15.6191 3.86326 15.3945 3.58201 15.4316 3.28123C15.4688 2.96287 15.7305 2.73826 16.0508 2.77537C17.8125 2.96287 19.3496 4.14451 20.0254 5.86912ZM14.6621 18.0371C14.793 17.832 15 17.5117 15.375 17.2304C15.6191 17.0429 15.6562 16.6875 15.4688 16.4629C15.3008 16.2383 15 16.1816 14.7559 16.3125C14.2695 16.6875 13.9121 17.0996 13.6875 17.4941C13.5371 17.7558 13.6309 18.0937 13.8945 18.2441C13.9883 18.3008 14.082 18.3183 14.1758 18.3183C14.3633 18.3183 14.5508 18.207 14.6621 18.0371ZM16.6504 15.9746C16.6504 16.2929 16.8945 16.5371 17.2129 16.5371C17.5312 16.5371 17.7754 16.2929 17.7754 15.9746C17.7754 15.6562 17.5312 15.4121 17.2129 15.4121C16.8945 15.4121 16.6504 15.6562 16.6504 15.9746Z" fill="black"/>
<path fill-rule="evenodd" clip-rule="evenodd" d="M0.693359 15.4121C0.41211 15.3945 0.1875 15.1504 0.1875 14.8691V14.25C0.1875 13.9883 0.355469 13.7812 0.59961 13.707L3.71289 5.86912C4.38672 4.14451 5.90625 2.96287 7.6875 2.77537C8.00586 2.73826 8.26953 2.98045 8.30664 3.28123C8.32422 3.59959 8.09961 3.86326 7.80078 3.90037C6.44922 4.03123 5.26953 4.96873 4.74414 6.28123L1.81836 13.6875H6.61914C8.79297 13.875 10.5 14.8496 11.3438 15.7129C11.5684 15.9179 11.5879 16.2754 11.3633 16.5C11.2695 16.6133 11.1191 16.6679 10.9688 16.6679C10.9121 16.6679 10.8555 16.6504 10.8008 16.6308C11.2305 17.2695 11.457 17.9258 11.457 18.4121C11.457 19.6875 9.91797 22.1621 6.375 22.1621C2.51172 22.1621 1.18164 17.2695 0.693359 15.4316V15.4121ZM3.13086 15.7871C3.05664 15.4883 2.73828 15.3183 2.4375 15.4121C2.13672 15.5058 1.96875 15.8066 2.04297 16.1054C2.32422 17.0625 2.625 17.832 2.96289 18.4687C3.16797 18.8633 3.375 19.1992 3.59961 19.5C3.61914 19.5 3.61914 19.5195 3.61914 19.5195C3.6456 19.5529 3.66982 19.5863 3.6934 19.6189C3.73597 19.6776 3.77646 19.7335 3.82422 19.7812L3.84375 19.8008C3.95703 19.9316 4.10547 19.9883 4.25586 19.9883C4.38672 19.9883 4.51953 19.9492 4.63086 19.8554C4.85547 19.6504 4.89453 19.3125 4.6875 19.0683C4.44336 18.7695 4.19922 18.3945 3.97461 17.9629C3.67578 17.3808 3.39453 16.6679 3.13086 15.7871Z" fill="black"/>
</svg>
