<svg width="24" height="24" viewBox="0 0 24 24" fill="none" xmlns="http://www.w3.org/2000/svg">
<g clip-path="url(#clip0_13116_834)">
<path d="M23.4575 16.1876C23.255 15.6876 22.8475 15.3001 22.3475 15.0951C21.8475 14.8926 21.2925 14.8926 20.795 15.1151L20.5725 15.2076C20.35 14.8176 19.9975 14.5226 19.5925 14.3551C19.0925 14.1526 18.5375 14.1526 18.0375 14.3751L15.8925 15.2801C15.615 15.3926 15.485 15.7251 15.595 16.0026C15.6875 16.2051 15.8925 16.3351 16.1125 16.3351C16.1875 16.3351 16.2625 16.3176 16.335 16.2976L18.4825 15.3926C18.7025 15.3001 18.9625 15.3001 19.185 15.3926C19.3325 15.4476 19.4425 15.5401 19.535 15.6501L15.1875 17.5001C15.245 16.6676 14.8 15.8551 13.985 15.5026L9.175 13.3576C7.14 12.4501 4.7725 12.7276 2.9975 14.0776L2.275 14.6326C2.2575 14.6526 2.2375 14.6701 2.22 14.6901L2.035 14.8751C1.925 14.9851 1.8675 15.1151 1.8675 15.2626V21.1826H0.739998C0.424998 21.1826 0.184998 21.4226 0.184998 21.7376C0.184998 22.0526 0.424998 22.2926 0.739998 22.2926H2.405C2.72 22.2926 2.96 22.0526 2.96 21.7376V15.4851L3.6625 14.9476C5.125 13.8376 7.0475 13.6151 8.7325 14.3551L13.505 16.5026C13.7275 16.5951 13.9125 16.7801 13.985 17.0201C14.0775 17.2426 14.06 17.5001 13.9675 17.7226C13.875 17.9451 13.69 18.1126 13.4675 18.2051C13.245 18.2976 12.9875 18.2776 12.765 18.1851L9.065 16.5401C8.7875 16.4101 8.455 16.5401 8.325 16.8176C8.195 17.0951 8.325 17.4276 8.6025 17.5576L12.3025 19.2026C12.8025 19.4251 13.3575 19.4426 13.8575 19.2401C13.93 19.2226 14.005 19.1851 14.06 19.1476C14.0975 19.1476 14.115 19.1301 14.135 19.1301L21.2 16.1326C21.4225 16.0401 21.6825 16.0401 21.905 16.1326C22.125 16.2251 22.31 16.4101 22.4025 16.6326C22.495 16.8526 22.495 17.1126 22.4025 17.3351C22.31 17.5576 22.125 17.7426 21.905 17.8351L11.47 22.2376C10.6375 22.5876 9.675 22.5701 8.8625 22.1626L4.4575 20.0176C4.18 19.8876 3.8475 19.9976 3.7175 20.2751C3.59 20.5526 3.7 20.8876 3.9775 21.0151L8.38 23.1626C8.9725 23.4576 9.6025 23.5876 10.25 23.5876C10.805 23.5876 11.3775 23.4776 11.915 23.2551L22.3475 18.8526C22.8475 18.6476 23.235 18.2401 23.44 17.7426C23.6625 17.2426 23.6625 16.6876 23.4575 16.1876Z" fill="black"/>
<path d="M1.6475 3.05256L4.015 2.22006C3.275 3.84756 2.9225 5.64256 2.9775 7.45506C3.015 8.64006 3.2375 9.78756 3.625 10.8976C3.7 11.1176 3.9225 11.2676 4.145 11.2676C4.2 11.2676 4.2725 11.2476 4.33 11.2301C4.625 11.1376 4.7725 10.8051 4.6625 10.5276C4.31 9.52756 4.1075 8.47256 4.07 7.41756C4.015 5.75256 4.3475 4.10756 5.0325 2.62756L5.92 5.12506C5.995 5.34756 6.215 5.49506 6.4375 5.49506C6.4925 5.49506 6.5675 5.47506 6.6225 5.45756C6.92 5.36506 7.0675 5.05006 6.975 4.75506L5.6975 1.05506C5.6425 0.925059 5.55 0.815059 5.42 0.740059C5.29 0.685059 5.1425 0.665059 4.995 0.722559L1.2775 1.99756C0.979998 2.09006 0.832498 2.40506 0.924998 2.70006C1.035 2.99756 1.35 3.14506 1.6475 3.05256Z" fill="black"/>
<path d="M12.4875 12.0076C13.1525 12.2651 13.875 12.3951 14.615 12.3951C17.9825 12.3951 20.72 9.65756 20.72 6.29006C20.72 2.92256 17.9825 0.185059 14.615 0.185059C13.4875 0.185059 12.4325 0.500059 11.525 1.03506C9.7125 2.09006 8.51 4.05256 8.51 6.29006C8.51 8.89756 10.1575 11.1376 12.4875 12.0076ZM11.71 2.22006C12.5975 2.97756 13.025 3.64506 12.9325 4.10756C12.895 4.33006 12.7475 4.45756 12.45 4.71756C12.1 5.03256 11.6175 5.45756 11.3225 6.23506C11.21 6.53006 11.36 6.84506 11.6375 6.95506C11.6925 6.97506 11.765 6.99256 11.84 6.99256C12.0625 6.99256 12.285 6.86256 12.3575 6.64256C12.5625 6.12256 12.8575 5.84506 13.19 5.56756C13.5425 5.27256 13.93 4.92006 14.0425 4.33006C14.19 3.51506 13.765 2.62756 12.7475 1.66506C13.32 1.42506 13.95 1.29506 14.615 1.29506C17.3725 1.29506 19.61 3.53256 19.61 6.29006C19.61 9.04756 17.3725 11.2851 14.615 11.2851C14.2275 11.2851 13.8375 11.2301 13.4675 11.1551C13.7825 10.4701 14.135 9.78756 15.0225 9.54506C15.04 9.54506 15.0775 9.52756 15.115 9.52756C15.65 9.41756 17.2425 9.08256 17.89 8.25006C18.575 7.34506 18.37 6.14256 18.24 5.49506C18.2225 5.38256 18.205 5.25506 18.205 5.21756C18.2225 4.92006 18 4.66256 17.705 4.62506C17.4075 4.60756 17.13 4.82756 17.1125 5.12506C17.095 5.27256 17.13 5.44006 17.1675 5.68006C17.26 6.19756 17.4075 7.04756 17.02 7.56756C16.8725 7.75256 16.41 8.12256 14.91 8.43506C14.8375 8.45506 14.7825 8.47256 14.745 8.47256C13.3575 8.88006 12.82 9.93506 12.45 10.7851C10.7675 9.97256 9.62 8.25006 9.62 6.29006C9.62 4.62506 10.4525 3.12756 11.71 2.22006Z" fill="black"/>
</g>
<defs>
<clipPath id="clip0_13116_834">
<rect width="24" height="24" fill="black"/>
</clipPath>
</defs>
</svg>
