<svg width="24" height="24" viewBox="0 0 24 24" fill="none" xmlns="http://www.w3.org/2000/svg">
<g clip-path="url(#clip0_12916_46186)">
<path d="M12.0002 11.8125C12.0002 12.1309 11.756 12.375 11.4377 12.375H4.50018C4.18182 12.375 3.93768 12.1309 3.93768 11.8125C3.93768 11.4941 4.18182 11.25 4.50018 11.25H11.4377C11.756 11.25 12.0002 11.4941 12.0002 11.8125Z" fill="black"/>
<path fill-rule="evenodd" clip-rule="evenodd" d="M20.0627 17.4375C20.0627 17.7559 19.8185 18 19.5002 18H14.4377C14.1193 18 13.8752 17.7559 13.8752 17.4375V11.8125C13.8752 11.4941 14.1193 11.25 14.4377 11.25H19.5002C19.8185 11.25 20.0627 11.4941 20.0627 11.8125V17.4375ZM18.9377 12.375H15.0002V16.875H18.9377V12.375Z" fill="black"/>
<path d="M3.93768 14.625C3.93768 14.9434 4.18182 15.1875 4.50018 15.1875H11.4377C11.756 15.1875 12.0002 14.9434 12.0002 14.625C12.0002 14.3066 11.756 14.0625 11.4377 14.0625H4.50018C4.18182 14.0625 3.93768 14.3066 3.93768 14.625Z" fill="black"/>
<path d="M8.06268 17.4375C8.06268 17.7559 7.81854 18 7.50018 18H4.50018C4.18182 18 3.93768 17.7559 3.93768 17.4375C3.93768 17.1191 4.18182 16.875 4.50018 16.875H7.50018C7.81854 16.875 8.06268 17.1191 8.06268 17.4375Z" fill="black"/>
<path d="M12.0002 17.4375C12.0002 17.1191 11.756 16.875 11.4377 16.875H10.5002C10.1818 16.875 9.93768 17.1191 9.93768 17.4375C9.93768 17.7559 10.1818 18 10.5002 18H11.4377C11.756 18 12.0002 17.7559 12.0002 17.4375Z" fill="black"/>
<path d="M2.81268 3.375C2.81268 3.05664 3.05682 2.8125 3.37518 2.8125H4.12518C4.44354 2.8125 4.68768 3.05664 4.68768 3.375C4.68768 3.69336 4.44354 3.9375 4.12518 3.9375H3.37518C3.05682 3.9375 2.81268 3.69336 2.81268 3.375Z" fill="black"/>
<path d="M7.68768 3.375C7.68768 3.05664 7.44354 2.8125 7.12518 2.8125H6.37518C6.05682 2.8125 5.81268 3.05664 5.81268 3.375C5.81268 3.69336 6.05682 3.9375 6.37518 3.9375H7.12518C7.44354 3.9375 7.68768 3.69336 7.68768 3.375Z" fill="black"/>
<path fill-rule="evenodd" clip-rule="evenodd" d="M0.187679 2.625C0.187679 1.27539 1.27557 0.1875 2.62518 0.1875H21.3752C22.7248 0.1875 23.8127 1.27539 23.8127 2.625V21.375C23.8127 22.7246 22.7248 23.8125 21.3752 23.8125H2.62518C1.27557 23.8125 0.187679 22.7246 0.187679 21.375V2.625ZM21.3752 22.6875C22.1056 22.6875 22.6877 22.1055 22.6877 21.375V6.5625H1.31268V21.375C1.31268 22.1055 1.89471 22.6875 2.62518 22.6875H21.3752ZM2.62518 1.3125C1.89471 1.3125 1.31268 1.89453 1.31268 2.625V5.4375H22.6877V2.625C22.6877 1.89453 22.1056 1.3125 21.3752 1.3125H2.62518Z" fill="black"/>
</g>
<defs>
<clipPath id="clip0_12916_46186">
<rect width="24" height="24" fill="black"/>
</clipPath>
</defs>
</svg>
