<svg width="24" height="24" viewBox="0 0 24 24" fill="none" xmlns="http://www.w3.org/2000/svg">
<path fill-rule="evenodd" clip-rule="evenodd" d="M4.6875 18.375C4.6875 18.6934 4.44336 18.9375 4.125 18.9375C3.80664 18.9375 3.5625 18.6934 3.5625 18.375V3.5625C3.5625 2.21289 4.65039 1.125 6 1.125H16.125C17.2695 1.125 18.375 1.55664 19.1816 2.38086C19.9883 3.20703 20.4375 4.29297 20.4375 5.4375C20.4375 6 19.8945 6 19.5742 6H18C16.6504 6 15.5625 4.91211 15.5625 3.5625V2.25H6C5.26953 2.25 4.6875 2.83203 4.6875 3.5625V18.375ZM19.2559 4.875C19.1445 4.23828 18.8438 3.65625 18.375 3.1875C17.9062 2.71875 17.3242 2.41797 16.6875 2.30664V3.5625C16.6875 4.29297 17.2695 4.875 18 4.875H19.2559Z" fill="black"/>
<path d="M20.4375 16.5C20.4375 16.8184 20.1934 17.0625 19.875 17.0625C19.5566 17.0625 19.3125 16.8184 19.3125 16.5V8.0625C19.3125 7.74414 19.5566 7.5 19.875 7.5C20.1934 7.5 20.4375 7.74414 20.4375 8.0625V16.5Z" fill="black"/>
<path d="M2.0625 21.375C2.0625 21.6934 2.30664 21.9375 2.625 21.9375H6.375C6.69336 21.9375 6.9375 21.6934 6.9375 21.375C6.9375 21.0566 6.69336 20.8125 6.375 20.8125H2.625C2.30664 20.8125 2.0625 21.0566 2.0625 21.375Z" fill="black"/>
<path d="M19.125 19.9121C18.918 19.707 18.8809 19.4063 19.0312 19.1816C19.2383 18.8809 19.6504 18.8633 19.875 19.1055L21.75 20.9805C21.9746 21.1875 21.9746 21.543 21.75 21.7695L19.875 23.6445C19.7617 23.7559 19.6309 23.8125 19.4805 23.8125C19.3125 23.8125 19.1621 23.7559 19.0508 23.625C18.8633 23.4004 18.9004 23.043 19.1055 22.8379L20.0059 21.9375H12.0938C10.0508 21.9375 8.28711 20.3242 8.25 18.2617C8.19336 16.0508 10.1055 14.25 12.3555 14.4941C14.1191 14.6621 15.5625 16.0879 15.7305 17.8496C15.7871 18.375 15.7305 18.9004 15.5625 19.3867C15.4492 19.6875 15.1133 19.8555 14.8125 19.7246C14.5312 19.6133 14.4004 19.2754 14.4941 18.9941C14.6055 18.6563 14.6445 18.3184 14.6055 17.9629C14.4941 16.6875 13.4434 15.6758 12.1875 15.582C10.5938 15.4688 9.26172 16.8008 9.375 18.3945C9.46875 19.7617 10.668 20.8125 12.0566 20.8125H20.0254L19.125 19.9121Z" fill="black"/>
</svg>
