<svg width="24" height="24" viewBox="0 0 24 24" fill="none" xmlns="http://www.w3.org/2000/svg">
<path fill-rule="evenodd" clip-rule="evenodd" d="M5.85525 20.1975L7.46362 20.2526H7.46513H7.47825C7.72875 20.2526 7.93725 20.0535 7.94775 19.8019C7.95712 19.5424 7.75463 19.3256 7.49588 19.3162L6.97275 19.2979L11.6137 14.7626C11.7562 14.8669 11.9137 14.952 12.0817 15.0146L12.0225 19.3193L11.7919 19.0481C11.6246 18.8501 11.328 18.8269 11.1311 18.9941C10.9331 19.1618 10.9099 19.4584 11.0771 19.6553L12.1088 20.8676C12.1931 20.9734 12.3225 21.0416 12.4684 21.0439H12.4699L12.4755 21.045L12.4886 21.0446C12.6304 21.0401 12.7624 20.973 12.8479 20.8605L13.8229 19.5885C13.9796 19.3837 13.941 19.0882 13.7359 18.9311C13.5311 18.7744 13.2367 18.813 13.0789 19.0177L12.9622 19.17L13.0177 15.12C13.9721 14.9948 14.7113 14.1784 14.7113 13.1932C14.7113 12.2077 13.9718 11.3914 13.0174 11.2665L12.123 7.4295L12.5385 7.68412C12.7586 7.81875 13.0481 7.74937 13.1831 7.52925C13.3177 7.30875 13.2484 7.01925 13.0282 6.88462L11.6569 6.04387C11.4364 5.90887 11.1491 5.97787 11.0134 6.19725L10.1659 7.56862C10.0297 7.78912 10.098 8.07825 10.3181 8.21438C10.3954 8.26238 10.4798 8.2845 10.5645 8.2845C10.7213 8.2845 10.8746 8.205 10.9635 8.06213L11.2136 7.65713L12.0799 11.3726C11.3407 11.649 10.8131 12.3608 10.8131 13.1932C10.8131 13.4977 10.8836 13.7861 11.0096 14.043L6.37275 18.5749L6.38775 18.1418C6.39713 17.883 6.19462 17.6663 5.93587 17.6569H5.93475C5.68013 17.652 5.46 17.8504 5.45062 18.1087L5.39475 19.6973C5.38613 19.8259 5.43 19.9571 5.52675 20.0565C5.60962 20.1416 5.71725 20.1881 5.82712 20.196L5.84212 20.1971L5.85525 20.1975ZM7.46513 20.2526C7.46513 20.2526 7.443 20.205 7.43287 20.1578L7.46513 20.1589H7.46662L7.46513 20.2526ZM11.7506 13.1932C11.7506 12.6383 12.2048 12.1875 12.762 12.1875C13.3196 12.1875 13.7738 12.6383 13.7738 13.1932C13.7738 13.7482 13.3196 14.1994 12.762 14.1994C12.2048 14.1994 11.7506 13.7482 11.7506 13.1932Z" fill="black"/>
<path fill-rule="evenodd" clip-rule="evenodd" d="M19.4175 9.62775L19.4156 9.62962L18.318 10.7145C18.1339 10.8975 18.1327 11.1938 18.3143 11.3779C18.4961 11.5616 18.7939 11.5631 18.9776 11.3813L19.3189 11.0438L19.311 15.7402C18.4646 15.9517 17.8354 16.7171 17.8354 17.6257C17.8354 18.0199 17.9535 18.387 18.1564 18.6934L15.5329 20.6584L15.6064 20.277C15.6555 20.0227 15.489 19.7767 15.2347 19.7276C14.9794 19.6785 14.7345 19.8446 14.6854 20.0989L14.3816 21.6739C14.358 21.7961 14.3839 21.9229 14.4544 22.026C14.5249 22.128 14.6325 22.1992 14.754 22.2225L16.3421 22.5262C16.3725 22.5322 16.4018 22.5345 16.431 22.5345C16.6515 22.5345 16.8472 22.3774 16.8907 22.1558C16.9387 21.9015 16.7722 21.6562 16.5184 21.6071L15.9701 21.5021L18.861 19.3372C19.1359 19.485 19.4505 19.5694 19.7843 19.5694C20.859 19.5694 21.7335 18.6975 21.7335 17.6257C21.7335 16.7137 21.0998 15.9465 20.2485 15.738L20.2564 11.0404L20.5972 11.3824C20.6891 11.4754 20.8084 11.5208 20.9295 11.5208C21.0487 11.5208 21.168 11.4754 21.2606 11.3839C21.4436 11.2013 21.4447 10.9035 21.2618 10.7205L20.1274 9.58237C20.0347 9.48975 19.9132 9.444 19.7921 9.44475H19.7895C19.6376 9.44475 19.503 9.51637 19.4175 9.62775ZM18.7729 17.6257C18.7729 17.0707 19.2266 16.62 19.7843 16.62C20.3419 16.62 20.796 17.0707 20.796 17.6257C20.796 18.1807 20.3419 18.6319 19.7843 18.6319C19.2266 18.6319 18.7729 18.1807 18.7729 17.6257Z" fill="black"/>
<path fill-rule="evenodd" clip-rule="evenodd" d="M3.44925 19.2547C2.3745 19.2547 1.5 20.1262 1.5 21.198C1.5 22.2698 2.3745 23.1416 3.44925 23.1416C4.52362 23.1416 5.39813 22.2698 5.39813 21.198C5.39813 20.1262 4.52362 19.2547 3.44925 19.2547ZM3.44925 22.2038C2.89162 22.2038 2.4375 21.753 2.4375 21.198C2.4375 20.643 2.89162 20.1922 3.44925 20.1922C4.0065 20.1922 4.46063 20.643 4.46063 21.198C4.46063 21.753 4.0065 22.2038 3.44925 22.2038Z" fill="black"/>
<path fill-rule="evenodd" clip-rule="evenodd" d="M19.9886 5.346C18.9139 5.346 18.0394 6.2175 18.0394 7.28925C18.0394 8.361 18.9139 9.23287 19.9886 9.23287C21.063 9.23287 21.9375 8.361 21.9375 7.28925C21.9375 6.2175 21.063 5.346 19.9886 5.346ZM19.9886 8.29425C19.431 8.29425 18.9769 7.84312 18.9769 7.28813C18.9769 6.7335 19.431 6.28238 19.9886 6.28238C20.5462 6.28238 21 6.73425 21 7.28925C21 7.8435 20.5459 8.29425 19.9886 8.29425Z" fill="black"/>
<path fill-rule="evenodd" clip-rule="evenodd" d="M3.14062 18.8483C3.22462 18.915 3.327 18.9484 3.42863 18.9487H3.4305C3.4695 18.9487 3.507 18.9442 3.54338 18.9352C3.62625 18.9146 3.705 18.8715 3.7695 18.8051L4.8885 17.6423C5.06775 17.4548 5.06175 17.1581 4.87538 16.9792C4.68788 16.7996 4.39162 16.8056 4.21237 16.992L3.903 17.3134L3.91688 12.7826C4.76625 12.5734 5.39813 11.8065 5.39813 10.8956C5.39813 10.3646 5.18362 9.88275 4.836 9.53175L8.01337 6.83063L7.97213 7.28662C7.95 7.54387 8.13863 7.77037 8.3955 7.79475C8.40938 7.797 8.42437 7.79737 8.43937 7.79737C8.67863 7.79737 8.88412 7.61325 8.90512 7.3695L9.04688 5.8005C9.0615 5.70375 9.04537 5.60287 8.9985 5.51325C8.98275 5.48362 8.96438 5.4555 8.94263 5.42963C8.86275 5.33475 8.74875 5.274 8.62463 5.2635L7.01437 5.12025C6.75675 5.09663 6.52913 5.2875 6.50588 5.54513C6.48225 5.80312 6.67313 6.03075 6.93112 6.054L7.42688 6.09825L3.9825 9.02625C3.813 8.97825 3.63412 8.95237 3.44925 8.95237C2.3745 8.95237 1.5 9.82425 1.5 10.8956C1.5 11.8057 2.13075 12.5719 2.97938 12.7823L2.96513 17.3865L2.59238 17.0303C2.40488 16.8514 2.10862 16.8581 1.92937 17.0456C1.75012 17.2331 1.75687 17.5294 1.94437 17.7086L3.10125 18.8134C3.11363 18.8258 3.12675 18.837 3.14062 18.8483ZM4.46063 10.8956C4.46063 11.4506 4.00688 11.9017 3.44925 11.9017C2.89162 11.9017 2.4375 11.4506 2.4375 10.8956C2.4375 10.3406 2.89162 9.88987 3.44925 9.88987C4.00688 9.88987 4.46063 10.3406 4.46063 10.8956Z" fill="black"/>
<path fill-rule="evenodd" clip-rule="evenodd" d="M8.724 3.81862C8.724 4.89037 9.5985 5.76187 10.6733 5.76187C11.5875 5.76187 12.357 5.13075 12.5662 4.28212L16.3515 6.07613L15.9079 6.23212C15.663 6.31762 15.5351 6.58575 15.6206 6.8295C15.6874 7.02188 15.8693 7.14262 16.0627 7.14262C16.1145 7.14262 16.1674 7.13437 16.2195 7.11562C16.2184 7.116 17.7221 6.58762 17.7221 6.58762C17.8421 6.54975 17.9464 6.46388 18.0052 6.34163C18.0645 6.21638 18.0638 6.07875 18.015 5.96062C18.0154 5.96175 17.4851 4.46475 17.4851 4.46475C17.3981 4.221 17.13 4.0935 16.8862 4.18012C16.6425 4.26675 16.5146 4.53525 16.6012 4.779L16.7625 5.23312L12.5299 3.22688C12.2782 2.44388 11.541 1.875 10.6733 1.875C9.59737 1.875 8.72287 2.74687 8.724 3.81862ZM9.6615 3.81862C9.6615 3.26362 10.1156 2.8125 10.6733 2.8125C11.1562 2.8125 11.5616 3.15112 11.6614 3.603C11.664 3.62812 11.6681 3.65138 11.6741 3.67387C11.6809 3.72075 11.6846 3.76912 11.6846 3.81862C11.6846 4.37362 11.2305 4.82437 10.6733 4.82437C10.1156 4.82437 9.6615 4.37362 9.6615 3.81862Z" fill="black"/>
</svg>
