<svg width="24" height="24" viewBox="0 0 24 24" fill="none" xmlns="http://www.w3.org/2000/svg">
<path d="M12 4.875C10.2383 4.875 8.66211 5.98047 8.04297 7.61328C7.94922 7.89453 7.61328 8.04297 7.3125 7.93164C7.03125 7.81836 6.88086 7.48047 6.99414 7.19922C7.78125 5.13672 9.78711 3.75 12 3.75C14.2129 3.75 16.2188 5.13672 17.0059 7.19922C17.1191 7.5 16.9688 7.81836 16.6875 7.93164C16.6721 7.9353 16.6574 7.93903 16.6432 7.94266C16.5889 7.95649 16.5408 7.96875 16.4805 7.96875C16.2559 7.96875 16.0508 7.83789 15.957 7.61328C15.3379 5.98047 13.7617 4.875 12 4.875Z" fill="black"/>
<path fill-rule="evenodd" clip-rule="evenodd" d="M12 16.7812C12.5254 16.7812 13.0508 16.5742 13.4629 16.1816C14.2695 15.375 14.2695 14.0625 13.4629 13.2559C12.6563 12.4492 11.3438 12.4492 10.5371 13.2559C9.73047 14.0625 9.73047 15.375 10.5371 16.1816C10.9492 16.5742 11.4746 16.7812 12 16.7812ZM11.3438 14.0625C11.5313 13.875 11.7754 13.7812 12 13.7812C12.2246 13.7812 12.4883 13.875 12.6563 14.0625C13.0117 14.418 13.0117 15.0195 12.6563 15.3945C12.3008 15.7695 11.6992 15.75 11.3242 15.3945C10.9688 15.0195 10.9688 14.418 11.3438 14.0625Z" fill="black"/>
<path fill-rule="evenodd" clip-rule="evenodd" d="M1.5 19.4062C1.5 19.7246 1.74414 19.9688 2.0625 19.9688H21.9375C22.2559 19.9688 22.5 19.7246 22.5 19.4062C22.5 19.0879 22.2559 18.8438 21.9375 18.8438H20.6621C20.7559 18.6758 20.8125 18.5059 20.8496 18.3184L22.2559 11.2695C22.3496 10.8184 22.2383 10.3691 21.9375 10.0312C21.6367 9.69336 21.2246 9.48828 20.7754 9.48828H3.20703C2.75586 9.48828 2.32422 9.69336 2.04297 10.0312C1.76172 10.3691 1.65039 10.8379 1.72461 11.2695L3.13086 18.3184C3.16797 18.5059 3.22461 18.6934 3.31836 18.8438H2.0625C1.74414 18.8438 1.5 19.0879 1.5 19.4062ZM2.83203 11.043C2.79351 10.8966 2.86707 10.7844 2.9047 10.727L2.90625 10.7246C2.94336 10.668 3.03711 10.5937 3.1875 10.5937H20.7754C20.9258 10.5937 21.0195 10.6875 21.0566 10.7246C21.0938 10.7812 21.168 10.8945 21.1309 11.043L19.7246 18.0938C19.6309 18.5254 19.2559 18.8438 18.8066 18.8438H5.17578C4.72461 18.8438 4.34961 18.5254 4.25586 18.0938L2.83203 11.043Z" fill="black"/>
</svg>
