<svg width="2171" height="528" viewBox="0 0 2171 528" fill="none" xmlns="http://www.w3.org/2000/svg">
<path fill-rule="evenodd" clip-rule="evenodd" d="M201.23 213.26C201.275 213.26 173.667 245.229 142.322 243.566C106.508 241.665 66.3562 206.099 66.3562 206.099L341.611 0C341.611 0 201.327 213.26 201.23 213.26Z" fill="#FAFAFA" style="fill:#FAFAFA;fill:color(display-p3 0.9804 0.9804 0.9804);fill-opacity:1;"/>
<path fill-rule="evenodd" clip-rule="evenodd" d="M295.239 218.268C294.975 218.268 295.502 218.268 295.239 218.268C294.975 218.268 0 527.558 0 527.558C0 527.558 90.812 321.368 90.8372 321.368C90.812 321.368 107.574 273.824 107.549 273.824C107.574 273.824 295.502 218.268 295.239 218.268Z" fill="#FAFAFA" style="fill:#FAFAFA;fill:color(display-p3 0.9804 0.9804 0.9804);fill-opacity:1;"/>
<path fill-rule="evenodd" clip-rule="evenodd" d="M149.344 291.741C149.434 291.741 90.8622 321.348 90.8379 321.348C90.8622 321.348 66.3562 206.085 66.3562 206.085C72.2751 200.004 155.54 285.467 149.344 291.741Z" fill="#FAFAFA" style="fill:#FAFAFA;fill:color(display-p3 0.9804 0.9804 0.9804);fill-opacity:1;"/>
<path fill-rule="evenodd" clip-rule="evenodd" d="M295.24 218.267C295.503 218.267 149.255 291.76 149.344 291.76C136.652 290.852 184.66 212.078 201.23 213.265C201.132 213.265 66.3562 206.104 66.3562 206.104C66.3562 206.104 295.503 218.267 295.24 218.267Z" fill="#FAFAFA" style="fill:#FAFAFA;fill:color(display-p3 0.9804 0.9804 0.9804);fill-opacity:1;"/>
<path fill-rule="evenodd" clip-rule="evenodd" d="M149.344 291.76C149.434 291.76 66.3562 206.104 66.3562 206.104C66.3562 206.104 201.132 213.265 201.23 213.265C201.132 213.265 149.255 291.76 149.344 291.76C149.434 291.76 149.255 291.76 149.344 291.76Z" fill="#FAFAFA" style="fill:#FAFAFA;fill:color(display-p3 0.9804 0.9804 0.9804);fill-opacity:1;"/>
<path d="M405.453 141.875V332.709H519.164V307.966H437.04V141.875H405.453Z" fill="#FAFAFA" style="fill:#FAFAFA;fill:color(display-p3 0.9804 0.9804 0.9804);fill-opacity:1;"/>
<path d="M546.179 200.046V332.709H577.765V200.046H546.179Z" fill="#FAFAFA" style="fill:#FAFAFA;fill:color(display-p3 0.9804 0.9804 0.9804);fill-opacity:1;"/>
<path d="M547.495 173.724C551.355 177.234 556.181 178.989 561.972 178.989C567.763 178.989 572.5 177.234 576.185 173.724C580.046 170.039 581.976 165.565 581.976 160.3C581.976 154.86 580.046 150.473 576.185 147.139C572.5 143.63 567.763 141.875 561.972 141.875C556.181 141.875 551.355 143.63 547.495 147.139C543.81 150.473 541.967 154.86 541.967 160.3C541.967 165.565 543.81 170.039 547.495 173.724Z" fill="#FAFAFA" style="fill:#FAFAFA;fill:color(display-p3 0.9804 0.9804 0.9804);fill-opacity:1;"/>
<path fill-rule="evenodd" clip-rule="evenodd" d="M676.966 393.775C668.543 393.775 660.471 392.722 652.75 390.617C645.029 388.686 637.922 385.528 631.429 381.141C625.112 376.929 619.847 371.577 615.636 365.085C611.6 358.767 608.968 351.134 607.739 342.184H639.062C640.291 347.098 642.572 351.309 645.906 354.819C649.416 358.504 653.715 361.312 658.804 363.242C664.068 365.348 669.859 366.401 676.176 366.401C683.371 366.401 689.776 364.909 695.391 361.926C701.182 359.118 705.745 354.731 709.079 348.765C712.588 342.799 714.343 335.253 714.343 326.128V309.282C711.711 313.669 708.289 317.705 704.077 321.39C699.866 324.9 694.777 327.795 688.811 330.076C683.02 332.182 676.352 333.235 668.806 333.235C656.347 333.235 645.204 330.252 635.377 324.286C625.551 318.319 617.829 310.247 612.214 300.069C606.599 289.716 603.791 278.047 603.791 265.061C603.791 251.9 606.599 240.231 612.214 230.053C617.829 219.875 625.551 211.803 635.377 205.837C645.38 199.871 656.523 196.888 668.806 196.888C675.65 196.888 681.967 197.941 687.758 200.046C693.549 201.977 698.638 204.609 703.025 207.943C707.587 211.277 711.36 215.05 714.343 219.261L717.502 200.046H745.929V324.812C745.929 336.043 744.087 345.957 740.402 354.556C736.892 363.154 731.979 370.349 725.661 376.14C719.52 381.93 712.237 386.318 703.814 389.301C695.567 392.284 686.617 393.775 676.966 393.775ZM674.86 305.86C682.581 305.86 689.337 304.105 695.128 300.596C701.094 296.911 705.657 291.997 708.815 285.856C712.15 279.714 713.817 272.782 713.817 265.061C713.817 257.165 712.15 250.146 708.815 244.004C705.657 237.862 701.094 233.124 695.128 229.79C689.337 226.28 682.581 224.526 674.86 224.526C667.315 224.526 660.559 226.28 654.592 229.79C648.626 233.124 643.976 237.862 640.642 244.004C637.483 249.97 635.904 256.989 635.904 265.061C635.904 272.782 637.483 279.714 640.642 285.856C643.976 291.997 648.626 296.911 654.592 300.596C660.559 304.105 667.315 305.86 674.86 305.86Z" fill="#FAFAFA" style="fill:#FAFAFA;fill:color(display-p3 0.9804 0.9804 0.9804);fill-opacity:1;"/>
<path d="M774.26 141.875V332.709H805.846V262.429C805.846 254.182 807.338 247.25 810.321 241.635C813.304 235.844 817.34 231.457 822.429 228.474C827.518 225.315 833.221 223.736 839.538 223.736C849.365 223.736 856.648 226.719 861.386 232.685C866.299 238.652 868.756 247.338 868.756 258.744V332.709H900.079V255.849C900.079 242.863 898.061 232.071 894.025 223.473C890.164 214.699 884.461 208.118 876.916 203.731C869.37 199.169 860.157 196.888 849.278 196.888C839.802 196.888 831.291 199.081 823.745 203.468C816.2 207.68 810.233 213.383 805.846 220.577V141.875H774.26Z" fill="#FAFAFA" style="fill:#FAFAFA;fill:color(display-p3 0.9804 0.9804 0.9804);fill-opacity:1;"/>
<path d="M991.276 332.709C982.326 332.709 974.518 331.305 967.849 328.497C961.357 325.689 956.268 321.039 952.583 314.547C948.898 308.054 947.055 299.28 947.055 288.225V226.631H924.418V200.046H947.055L950.74 165.038H978.641V200.046H1014.7V226.631H978.641V288.225C978.641 294.893 980.045 299.543 982.853 302.175C985.836 304.632 990.749 305.86 997.593 305.86H1013.91V332.709H991.276Z" fill="#FAFAFA" style="fill:#FAFAFA;fill:color(display-p3 0.9804 0.9804 0.9804);fill-opacity:1;"/>
<path d="M1044.42 200.046V332.709H1076.01V261.903C1076.01 253.831 1077.41 246.987 1080.22 241.372C1083.2 235.581 1087.15 231.194 1092.06 228.211C1097.15 225.228 1102.85 223.736 1109.17 223.736C1118.82 223.736 1126.1 226.719 1131.02 232.685C1135.93 238.652 1138.39 247.163 1138.39 258.218V332.709H1169.97V255.322C1169.97 242.512 1167.87 231.808 1163.66 223.21C1159.62 214.611 1153.83 208.118 1146.28 203.731C1138.74 199.169 1129.61 196.888 1118.91 196.888C1108.56 196.888 1099.61 199.169 1092.06 203.731C1084.52 208.294 1078.73 214.436 1074.69 222.157L1072.32 200.046H1044.42Z" fill="#FAFAFA" style="fill:#FAFAFA;fill:color(display-p3 0.9804 0.9804 0.9804);fill-opacity:1;"/>
<path d="M1204.59 332.709V200.046H1236.18V332.709H1204.59Z" fill="#FAFAFA" style="fill:#FAFAFA;fill:color(display-p3 0.9804 0.9804 0.9804);fill-opacity:1;"/>
<path d="M1220.39 178.989C1214.59 178.989 1209.77 177.234 1205.91 173.724C1202.22 170.039 1200.38 165.565 1200.38 160.3C1200.38 154.86 1202.22 150.473 1205.91 147.139C1209.77 143.63 1214.59 141.875 1220.39 141.875C1226.18 141.875 1230.91 143.63 1234.6 147.139C1238.46 150.473 1240.39 154.86 1240.39 160.3C1240.39 165.565 1238.46 170.039 1234.6 173.724C1230.91 177.234 1226.18 178.989 1220.39 178.989Z" fill="#FAFAFA" style="fill:#FAFAFA;fill:color(display-p3 0.9804 0.9804 0.9804);fill-opacity:1;"/>
<path d="M1272.68 200.046V332.709H1304.27V261.903C1304.27 253.831 1305.67 246.987 1308.48 241.372C1311.46 235.581 1315.41 231.194 1320.32 228.211C1325.41 225.228 1331.11 223.736 1337.43 223.736C1347.08 223.736 1354.36 226.719 1359.28 232.685C1364.19 238.652 1366.65 247.163 1366.65 258.218V332.709H1398.23V255.322C1398.23 242.512 1396.13 231.808 1391.92 223.21C1387.88 214.611 1382.09 208.118 1374.54 203.731C1367 199.169 1357.87 196.888 1347.17 196.888C1336.82 196.888 1327.87 199.169 1320.32 203.731C1312.78 208.294 1306.99 214.436 1302.95 222.157L1300.58 200.046H1272.68Z" fill="#FAFAFA" style="fill:#FAFAFA;fill:color(display-p3 0.9804 0.9804 0.9804);fill-opacity:1;"/>
<path fill-rule="evenodd" clip-rule="evenodd" d="M1496.24 393.775C1487.81 393.775 1479.74 392.722 1472.02 390.617C1464.3 388.686 1457.19 385.528 1450.7 381.141C1444.38 376.929 1439.12 371.577 1434.91 365.085C1430.87 358.767 1428.24 351.134 1427.01 342.184H1458.33C1459.56 347.098 1461.84 351.309 1465.18 354.819C1468.69 358.504 1472.98 361.312 1478.07 363.242C1483.34 365.348 1489.13 366.401 1495.45 366.401C1502.64 366.401 1509.05 364.909 1514.66 361.926C1520.45 359.118 1525.01 354.731 1528.35 348.765C1531.86 342.799 1533.61 335.253 1533.61 326.128V309.282C1530.98 313.669 1527.56 317.705 1523.35 321.39C1519.14 324.9 1514.05 327.795 1508.08 330.076C1502.29 332.182 1495.62 333.235 1488.08 333.235C1475.62 333.235 1464.47 330.252 1454.65 324.286C1444.82 318.319 1437.1 310.247 1431.48 300.069C1425.87 289.716 1423.06 278.047 1423.06 265.061C1423.06 251.9 1425.87 240.231 1431.48 230.053C1437.1 219.875 1444.82 211.803 1454.65 205.837C1464.65 199.871 1475.79 196.888 1488.08 196.888C1494.92 196.888 1501.24 197.941 1507.03 200.046C1512.82 201.977 1517.91 204.609 1522.29 207.943C1526.86 211.277 1530.63 215.05 1533.61 219.261L1536.77 200.046H1565.2V324.812C1565.2 336.043 1563.36 345.957 1559.67 354.556C1556.16 363.154 1551.25 370.349 1544.93 376.14C1538.79 381.93 1531.51 386.318 1523.08 389.301C1514.84 392.284 1505.89 393.775 1496.24 393.775ZM1494.13 305.86C1501.85 305.86 1508.61 304.105 1514.4 300.596C1520.36 296.911 1524.93 291.997 1528.09 285.856C1531.42 279.714 1533.09 272.782 1533.09 265.061C1533.09 257.165 1531.42 250.146 1528.09 244.004C1524.93 237.862 1520.36 233.124 1514.4 229.79C1508.61 226.28 1501.85 224.526 1494.13 224.526C1486.58 224.526 1479.83 226.28 1473.86 229.79C1467.9 233.124 1463.25 237.862 1459.91 244.004C1456.75 249.97 1455.17 256.989 1455.17 265.061C1455.17 272.782 1456.75 279.714 1459.91 285.856C1463.25 291.997 1467.9 296.911 1473.86 300.596C1479.83 304.105 1486.58 305.86 1494.13 305.86Z" fill="#FAFAFA" style="fill:#FAFAFA;fill:color(display-p3 0.9804 0.9804 0.9804);fill-opacity:1;"/>
<path fill-rule="evenodd" clip-rule="evenodd" d="M2002.38 332.709V136.709H2070.42C2093.19 136.709 2111.95 140.815 2126.7 149.029C2141.63 157.055 2152.64 168.442 2159.74 183.189C2167.02 197.749 2170.66 214.922 2170.66 234.709C2170.66 254.309 2167.02 271.482 2159.74 286.229C2152.64 300.789 2141.63 312.175 2126.7 320.389C2111.95 328.602 2093.19 332.709 2070.42 332.709H2002.38ZM2067.9 296.589H2044.38V172.549H2067.9C2083.02 172.549 2094.96 175.069 2103.74 180.109C2112.51 184.962 2118.67 192.055 2122.22 201.389C2125.95 210.535 2127.82 221.642 2127.82 234.709C2127.82 247.589 2125.95 258.695 2122.22 268.029C2118.67 277.175 2112.51 284.269 2103.74 289.309C2094.96 294.162 2083.02 296.589 2067.9 296.589Z" fill="#FAFAFA" style="fill:#FAFAFA;fill:color(display-p3 0.9804 0.9804 0.9804);fill-opacity:1;"/>
<path fill-rule="evenodd" clip-rule="evenodd" d="M1858.55 136.709L1787.15 332.709H1831.11L1845.87 289.869H1918.82L1933.59 332.709H1978.11L1906.71 136.709H1858.55ZM1882.35 184.029L1907.63 257.389H1857.06L1882.35 184.029Z" fill="#FAFAFA" style="fill:#FAFAFA;fill:color(display-p3 0.9804 0.9804 0.9804);fill-opacity:1;"/>
<path d="M1694.4 336.069C1674.8 336.069 1657.91 331.869 1643.72 323.469C1629.53 314.882 1618.61 303.029 1610.96 287.909C1603.31 272.602 1599.48 255.055 1599.48 235.269C1599.48 215.109 1603.31 197.469 1610.96 182.349C1618.61 167.042 1629.53 155.095 1643.72 146.509C1657.91 137.735 1674.8 133.349 1694.4 133.349C1718.67 133.349 1738.45 139.415 1753.76 151.549C1761.94 157.953 1768.48 165.736 1773.38 174.898L1733.57 193.576C1730.96 188.006 1727.23 183.423 1722.4 179.829C1715.12 174.229 1705.69 171.429 1694.12 171.429C1683.11 171.429 1673.68 174.042 1665.84 179.269C1658.19 184.495 1652.31 191.869 1648.2 201.389C1644.28 210.722 1642.32 222.015 1642.32 235.269C1642.32 248.149 1644.28 259.349 1648.2 268.869C1652.31 278.202 1658.19 285.482 1665.84 290.709C1673.68 295.749 1683.11 298.269 1694.12 298.269C1705.69 298.269 1715.03 295.842 1722.12 290.989C1727.56 287.225 1731.64 282.266 1734.37 276.109L1774 294.705C1769.04 303.943 1762.29 311.851 1753.76 318.429C1738.45 330.189 1718.67 336.069 1694.4 336.069Z" fill="#FAFAFA" style="fill:#FAFAFA;fill:color(display-p3 0.9804 0.9804 0.9804);fill-opacity:1;"/>
<path fill-rule="evenodd" clip-rule="evenodd" d="M201.23 213.26C201.275 213.26 173.667 245.229 142.322 243.566C106.508 241.665 66.3562 206.099 66.3562 206.099L341.611 0C341.611 0 201.327 213.26 201.23 213.26Z" fill="#FAFAFA" style="fill:#FAFAFA;fill:color(display-p3 0.9804 0.9804 0.9804);fill-opacity:1;"/>
<path fill-rule="evenodd" clip-rule="evenodd" d="M295.239 218.268C294.975 218.268 295.502 218.268 295.239 218.268C294.975 218.268 0 527.558 0 527.558C0 527.558 90.812 321.368 90.8372 321.368C90.812 321.368 107.574 273.824 107.549 273.824C107.574 273.824 295.502 218.268 295.239 218.268Z" fill="#FAFAFA" style="fill:#FAFAFA;fill:color(display-p3 0.9804 0.9804 0.9804);fill-opacity:1;"/>
<path fill-rule="evenodd" clip-rule="evenodd" d="M149.344 291.741C149.434 291.741 90.8622 321.348 90.8379 321.348C90.8622 321.348 66.3562 206.085 66.3562 206.085C72.2751 200.004 155.54 285.467 149.344 291.741Z" fill="#FAFAFA" style="fill:#FAFAFA;fill:color(display-p3 0.9804 0.9804 0.9804);fill-opacity:1;"/>
<path fill-rule="evenodd" clip-rule="evenodd" d="M295.24 218.267C295.503 218.267 149.255 291.76 149.344 291.76C136.652 290.852 184.66 212.078 201.23 213.265C201.132 213.265 66.3562 206.104 66.3562 206.104C66.3562 206.104 295.503 218.267 295.24 218.267Z" fill="#FAFAFA" style="fill:#FAFAFA;fill:color(display-p3 0.9804 0.9804 0.9804);fill-opacity:1;"/>
<path fill-rule="evenodd" clip-rule="evenodd" d="M149.344 291.76C149.434 291.76 66.3562 206.104 66.3562 206.104C66.3562 206.104 201.132 213.265 201.23 213.265C201.132 213.265 149.255 291.76 149.344 291.76C149.434 291.76 149.255 291.76 149.344 291.76Z" fill="#FAFAFA" style="fill:#FAFAFA;fill:color(display-p3 0.9804 0.9804 0.9804);fill-opacity:1;"/>
</svg>
