<svg width="2630" height="583" viewBox="0 0 2630 583" fill="none" xmlns="http://www.w3.org/2000/svg">
<path d="M745.979 580.237C781.047 580.237 804.809 557.164 804.809 524.132C804.809 491.099 781.047 467.855 745.979 467.855H704.191V580.237H745.979ZM723.904 485.213H745.979C771.098 485.213 784.582 502.401 784.582 524.132C784.582 545.37 770.443 562.88 745.979 562.88H723.904V485.213Z" fill="#FAFAFA" style="fill:#FAFAFA;fill:color(display-p3 0.9804 0.9804 0.9804);fill-opacity:1;"/>
<path d="M921.11 580.237V562.88H863.826V531.721H919.94V514.365H863.826V485.213H921.11V467.855H844.091V580.237H921.11Z" fill="#FAFAFA" style="fill:#FAFAFA;fill:color(display-p3 0.9804 0.9804 0.9804);fill-opacity:1;"/>
<path d="M954.306 564.415C964.255 575.016 979.26 582.265 1000 582.265C1030.34 582.265 1043.48 566.251 1043.48 547.549C1043.48 523.13 1021.4 517.395 1002.86 512.682C989.538 509.312 978.09 506.436 978.09 497.671C978.09 489.249 985.488 483.683 997.122 483.683C1008.92 483.683 1020.88 487.734 1029.66 496.499L1040.97 481.845C1030.51 471.719 1016.34 466.174 998.809 466.174C974.204 466.174 957.863 480.484 957.863 499.033C957.863 522.791 979.425 528.184 997.802 532.728C1011.45 536.266 1023.44 539.297 1023.44 549.406C1023.44 556.825 1017.02 564.736 1000.84 564.736C985.16 564.736 973.034 557.505 965.284 549.234L954.306 564.415Z" fill="#FAFAFA" style="fill:#FAFAFA;fill:color(display-p3 0.9804 0.9804 0.9804);fill-opacity:1;"/>
<path d="M1101.65 467.854H1081.92V580.256H1101.65V467.854Z" fill="#FAFAFA" style="fill:#FAFAFA;fill:color(display-p3 0.9804 0.9804 0.9804);fill-opacity:1;"/>
<path d="M1140.75 524.133C1140.75 559.339 1167.2 582.435 1199.74 582.435C1219.29 582.435 1234.95 574.352 1246.09 562.048V519.911H1192.81V537.269H1226.36V554.798C1221.3 559.511 1211.19 564.905 1199.74 564.905C1177.48 564.905 1160.95 547.717 1160.95 524.133C1160.95 500.547 1177.48 483.53 1199.74 483.53C1212.38 483.53 1222.99 490.097 1228.91 498.523L1245.06 489.416C1235.98 476.45 1221.65 466 1199.74 466C1167.2 466 1140.75 488.906 1140.75 524.133Z" fill="#FAFAFA" style="fill:#FAFAFA;fill:color(display-p3 0.9804 0.9804 0.9804);fill-opacity:1;"/>
<path d="M1384.31 580.237V467.855H1364.59V547.547L1307.1 467.855H1286.87V580.237H1306.58V498.35L1365.25 580.237H1384.31Z" fill="#FAFAFA" style="fill:#FAFAFA;fill:color(display-p3 0.9804 0.9804 0.9804);fill-opacity:1;"/>
<path d="M1505.5 580.237V562.88H1448.17V531.721H1504.31V514.365H1448.17V485.213H1505.5V467.855H1428.46V580.237H1505.5Z" fill="#FAFAFA" style="fill:#FAFAFA;fill:color(display-p3 0.9804 0.9804 0.9804);fill-opacity:1;"/>
<path d="M1632.9 580.237L1605.44 536.096C1618.92 533.898 1632.08 523.127 1632.08 503.063C1632.08 482.337 1617.56 467.855 1595.32 467.855H1545.95V580.237H1565.66V538.29H1585.21L1610.17 580.237H1632.9ZM1611.85 503.063C1611.85 513.852 1603.75 520.932 1592.61 520.932H1565.66V485.213H1592.61C1603.75 485.213 1611.85 492.274 1611.85 503.063Z" fill="#FAFAFA" style="fill:#FAFAFA;fill:color(display-p3 0.9804 0.9804 0.9804);fill-opacity:1;"/>
<path d="M908.211 396.55C979.543 396.55 1017.21 351.619 1017.21 295.447C1017.21 248.27 985.185 209.513 945.271 203.339C980.666 196.026 1009.88 164.586 1009.88 117.39C1009.88 67.4094 973.386 21.9082 902.032 21.9082H704.823V396.55H908.211ZM784.605 89.8739H884.615C911.56 89.8739 928.438 107.842 928.438 130.879C928.438 155.019 911.56 172.435 884.615 172.435H784.605V89.8739ZM784.605 240.402H887.4C918.887 240.402 935.742 260.619 935.742 284.225C935.742 311.186 917.764 328.583 887.4 328.583H784.605V240.402Z" fill="#FAFAFA" style="fill:#FAFAFA;fill:color(display-p3 0.9804 0.9804 0.9804);fill-opacity:1;"/>
<path d="M1314.43 396.551V125.258H1243.05V308.939C1230.69 324.659 1208.77 339.827 1181.27 339.827C1150.93 339.827 1131.24 327.46 1131.24 289.83V125.258H1059.91V317.914C1059.91 370.713 1087.98 403.295 1147.56 403.295C1191.94 403.295 1224.53 383.077 1243.05 362.29V396.551H1314.43Z" fill="#FAFAFA" style="fill:#FAFAFA;fill:color(display-p3 0.9804 0.9804 0.9804);fill-opacity:1;"/>
<path d="M1404.88 85.3793C1428.45 85.3793 1447.58 66.2861 1447.58 42.6983C1447.58 19.0931 1428.45 0 1404.88 0C1381.84 0 1362.16 19.0931 1362.16 42.6983C1362.16 66.2861 1381.84 85.3793 1404.88 85.3793ZM1440.82 396.552V125.259H1369.48V396.552H1440.82Z" fill="#FAFAFA" style="fill:#FAFAFA;fill:color(display-p3 0.9804 0.9804 0.9804);fill-opacity:1;"/>
<path d="M1567.23 21.9082H1495.88V396.55H1567.23V21.9082Z" fill="#FAFAFA" style="fill:#FAFAFA;fill:color(display-p3 0.9804 0.9804 0.9804);fill-opacity:1;"/>
<path d="M1880.77 396.55V21.9082H1808.83V160.088C1787.48 132.555 1757.16 118.513 1725.14 118.513C1656 118.513 1604.88 172.435 1604.88 261.189C1604.88 351.619 1656.57 403.293 1725.14 403.293C1757.72 403.293 1787.48 388.698 1808.83 362.29V396.55H1880.77ZM1808.83 308.938C1796.47 326.908 1771.18 339.824 1747.05 339.824C1706.57 339.824 1678.48 307.815 1678.48 261.189C1678.48 214.012 1706.57 181.982 1747.05 181.982C1771.18 181.982 1796.47 194.901 1808.83 212.887V308.938Z" fill="#FAFAFA" style="fill:#FAFAFA;fill:color(display-p3 0.9804 0.9804 0.9804);fill-opacity:1;"/>
<path d="M1971.2 85.3793C1994.8 85.3793 2013.9 66.2861 2013.9 42.6983C2013.9 19.0931 1994.8 0 1971.2 0C1948.16 0 1928.5 19.0931 1928.5 42.6983C1928.5 66.2861 1948.16 85.3793 1971.2 85.3793ZM2007.16 396.552V125.259H1935.83V396.552H2007.16Z" fill="#FAFAFA" style="fill:#FAFAFA;fill:color(display-p3 0.9804 0.9804 0.9804);fill-opacity:1;"/>
<path d="M2316.73 396.552V205.021C2316.73 152.222 2288.1 118.518 2228.52 118.518C2184.14 118.518 2150.99 139.858 2133.59 160.644V125.259H2062.22V396.552H2133.59V214.015C2145.39 197.723 2167.31 181.986 2195.37 181.986C2225.71 181.986 2245.38 194.903 2245.38 232.536V396.552H2316.73Z" fill="#FAFAFA" style="fill:#FAFAFA;fill:color(display-p3 0.9804 0.9804 0.9804);fill-opacity:1;"/>
<path d="M2366.2 466.211C2399.88 495.975 2436.4 506.647 2483.04 506.647C2549.9 506.647 2629.68 481.38 2629.68 378.031V125.259H2557.76V160.091C2535.85 132.56 2506.64 118.518 2474.05 118.518C2405.5 118.518 2354.4 167.942 2354.4 256.696C2354.4 347.126 2406.07 394.874 2474.05 394.874C2507.2 394.874 2536.41 379.138 2557.76 352.193V379.709C2557.76 433.06 2517.31 448.226 2483.04 448.226C2448.77 448.226 2420.14 438.68 2398.22 414.539L2366.2 466.211ZM2557.76 300.5C2545.96 317.915 2520.12 331.406 2496.52 331.406C2456.07 331.406 2427.98 303.32 2427.98 256.696C2427.98 210.072 2456.07 181.986 2496.52 181.986C2520.12 181.986 2545.96 194.903 2557.76 212.888V300.5Z" fill="#FAFAFA" style="fill:#FAFAFA;fill:color(display-p3 0.9804 0.9804 0.9804);fill-opacity:1;"/>
<path d="M521.624 115.227L372.328 176.759L260.43 101.665L409.725 40.5811L521.624 115.227Z" fill="#FAFAFA" style="fill:#FAFAFA;fill:color(display-p3 0.9804 0.9804 0.9804);fill-opacity:1;"/>
<path d="M373.093 330.275L223.799 391.36L0 241.173L260.283 133.277L260.212 254.523L373.093 330.275Z" fill="#FAFAFA" style="fill:#FAFAFA;fill:color(display-p3 0.9804 0.9804 0.9804);fill-opacity:1;"/>
<path d="M223.895 391.441L222.973 552.544L0 402.911L0.0956309 241.253L223.895 391.441Z" fill="#FAFAFA" style="fill:#FAFAFA;fill:color(display-p3 0.9804 0.9804 0.9804);fill-opacity:1;"/>
<path d="M372.493 176.612L372.178 330.665L335.682 345.708L223.71 391.41L222.789 552.513L521.378 429.448L521.581 114.942L372.493 176.612Z" fill="#FAFAFA" style="fill:#FAFAFA;fill:color(display-p3 0.9804 0.9804 0.9804);fill-opacity:1;"/>
<path d="M372.419 176.627L373.139 330.699L260.43 255.062L260.518 101.7L372.419 176.627Z" fill="#FAFAFA" style="fill:#FAFAFA;fill:color(display-p3 0.9804 0.9804 0.9804);fill-opacity:1;"/>
</svg>
