<svg width="1894" height="547" viewBox="0 0 1894 547" fill="none" xmlns="http://www.w3.org/2000/svg">
<path d="M911.143 528.863C920.634 538.976 934.949 545.898 954.736 545.898C983.679 545.898 996.207 530.626 996.207 512.786C996.207 489.478 975.148 484.007 957.461 479.52C944.753 476.306 933.832 473.559 933.832 465.209C933.832 457.171 940.888 451.858 951.989 451.858C963.245 451.858 974.657 455.719 983.032 464.069L993.818 450.093C983.835 440.448 970.324 435.156 953.596 435.156C930.125 435.156 914.536 448.799 914.536 466.503C914.536 489.166 935.105 494.3 952.636 498.632C965.657 502.026 977.09 504.906 977.09 514.551C977.09 521.629 970.971 529.174 955.54 529.174C940.577 529.174 929.009 522.276 921.616 514.395L911.143 528.863Z" fill="#969696" style="fill:#969696;fill:color(display-p3 0.5882 0.5882 0.5882);fill-opacity:1;"/>
<path d="M712.403 543.976C745.858 543.976 768.526 521.964 768.526 490.438C768.526 458.934 745.858 436.763 712.403 436.763H672.539V543.976H712.403ZM691.344 453.307H712.403C736.367 453.307 749.23 469.719 749.23 490.438C749.23 510.711 735.741 527.411 712.403 527.411H691.344V453.307Z" fill="#969696" style="fill:#969696;fill:color(display-p3 0.5882 0.5882 0.5882);fill-opacity:1;"/>
<path d="M879.473 543.976V527.411H824.825V497.693H878.357V481.127H824.825V453.307H879.473V436.763H805.998V543.976H879.473Z" fill="#969696" style="fill:#969696;fill:color(display-p3 0.5882 0.5882 0.5882);fill-opacity:1;"/>
<path d="M1051.71 436.763H1032.88V543.977H1051.71V436.763Z" fill="#969696" style="fill:#969696;fill:color(display-p3 0.5882 0.5882 0.5882);fill-opacity:1;"/>
<path d="M1089 490.438C1089 524.039 1114.24 546.053 1145.28 546.053C1163.93 546.053 1178.87 538.35 1189.5 526.606V486.419H1138.67V502.984H1170.67V519.708C1165.85 524.196 1156.2 529.353 1145.28 529.353C1124.04 529.353 1108.27 512.943 1108.27 490.438C1108.27 467.954 1124.04 451.723 1145.28 451.723C1157.34 451.723 1167.46 457.975 1173.11 466.012L1188.52 457.326C1179.85 444.957 1166.18 435 1145.28 435C1114.24 435 1089 456.835 1089 490.438Z" fill="#969696" style="fill:#969696;fill:color(display-p3 0.5882 0.5882 0.5882);fill-opacity:1;"/>
<path d="M1321.35 543.977V436.763H1302.55V512.786L1247.7 436.763H1228.4V543.977H1247.21V465.856L1303.17 543.977H1321.35Z" fill="#969696" style="fill:#969696;fill:color(display-p3 0.5882 0.5882 0.5882);fill-opacity:1;"/>
<path d="M1436.97 543.977V527.411H1382.28V497.693H1435.83V481.128H1382.28V453.308H1436.97V436.763H1363.47V543.977H1436.97Z" fill="#969696" style="fill:#969696;fill:color(display-p3 0.5882 0.5882 0.5882);fill-opacity:1;"/>
<path d="M1558.51 544.267L1532.31 502.137C1545.17 500.06 1557.72 489.767 1557.72 470.634C1557.72 450.874 1543.88 437.053 1522.66 437.053H1475.56V544.267H1494.37V504.235H1513.01L1536.82 544.267H1558.51ZM1538.43 470.634C1538.43 480.926 1530.7 487.691 1520.07 487.691H1494.37V453.597H1520.07C1530.7 453.597 1538.43 460.34 1538.43 470.634Z" fill="#969696" style="fill:#969696;fill:color(display-p3 0.5882 0.5882 0.5882);fill-opacity:1;"/>
<path d="M820.603 373.615C937.806 373.615 1019.14 299.816 1019.14 187.408C1019.14 75.0009 937.806 0.615234 820.603 0.615234H673.143V373.615H820.603ZM752.773 70.5242H820.603C897.453 70.5242 937.806 121.408 937.806 187.408C937.806 250.589 894.626 303.727 820.603 303.727H752.773V70.5242Z" fill="#041F20" style="fill:#041F20;fill:color(display-p3 0.0157 0.1216 0.1255);fill-opacity:1;"/>
<path d="M1183.86 380.615C1273.41 380.615 1327.14 315.633 1327.14 238.338C1327.14 161.582 1273.41 96.6152 1183.86 96.6152C1094.87 96.6152 1041.14 161.582 1041.14 238.338C1041.14 315.633 1094.87 380.615 1183.86 380.615ZM1183.86 317.313C1139.65 317.313 1115.02 280.909 1115.02 238.338C1115.02 196.317 1139.65 159.905 1183.86 159.905C1228.08 159.905 1253.26 196.317 1253.26 238.338C1253.26 280.909 1228.08 317.313 1183.86 317.313Z" fill="#041F20" style="fill:#041F20;fill:color(display-p3 0.0157 0.1216 0.1255);fill-opacity:1;"/>
<path d="M1347.14 238.338C1347.14 321.794 1406.99 380.615 1490.32 380.615C1545.69 380.615 1579.24 356.527 1597.14 331.34L1550.72 288.197C1537.83 306.128 1518.28 317.313 1493.67 317.313C1450.61 317.313 1420.41 285.391 1420.41 238.338C1420.41 191.286 1450.61 159.905 1493.67 159.905C1518.28 159.905 1537.83 170.548 1550.72 189.044L1597.14 145.911C1579.24 120.69 1545.69 96.6152 1490.32 96.6152C1406.99 96.6152 1347.14 155.423 1347.14 238.338Z" fill="#041F20" style="fill:#041F20;fill:color(display-p3 0.0157 0.1216 0.1255);fill-opacity:1;"/>
<path d="M1893.14 373.615L1782.54 225.993L1889.77 103.508H1802.19L1699.45 223.757V0.615234H1628.14V373.615H1699.45V304.274L1732.01 269.618L1803.87 373.615H1893.14Z" fill="#041F20" style="fill:#041F20;fill:color(display-p3 0.0157 0.1216 0.1255);fill-opacity:1;"/>
<path d="M182.448 28.0452V69.3756L159.692 102.276H416.145L393.392 69.3756V28.0452H363.589V69.3756H212.262V28.0452H182.448Z" fill="#35D1A9" style="fill:#35D1A9;fill:color(display-p3 0.2078 0.8196 0.6627);fill-opacity:1;"/>
<path d="M574.675 272.692H0.755859V345.956H46.6428V427.785H120.819V345.956H450.206V427.785H524.379V345.956H574.675V272.692Z" fill="#0E8A6B" style="fill:#0E8A6B;fill:color(display-p3 0.0549 0.5412 0.4196);fill-opacity:1;"/>
<path d="M0.755859 272.869H574.675L503.101 198.638H72.3332L0.755859 272.869Z" fill="#35D1A9" style="fill:#35D1A9;fill:color(display-p3 0.2078 0.8196 0.6627);fill-opacity:1;"/>
<path d="M84.6191 184.039H493.04L423.311 113.342H149.367L84.6191 184.039Z" fill="#35D1A9" style="fill:#35D1A9;fill:color(display-p3 0.2078 0.8196 0.6627);fill-opacity:1;"/>
<path d="M120.874 427.171L145.966 399.834V345.97H120.874V427.171Z" fill="#08251D" style="fill:#08251D;fill:color(display-p3 0.0314 0.1451 0.1137);fill-opacity:1;"/>
<path d="M84.6191 183.906H493.045V198.342H84.6191V183.906Z" fill="#0E8A6B" style="fill:#0E8A6B;fill:color(display-p3 0.0549 0.5412 0.4196);fill-opacity:1;"/>
<path d="M159.692 102.099V113.406H416.783L416.367 102.099H159.692Z" fill="#0E8A6B" style="fill:#0E8A6B;fill:color(display-p3 0.0549 0.5412 0.4196);fill-opacity:1;"/>
<path d="M450.205 427.798L425.564 400.25V345.97H450.205V427.798Z" fill="#08251D" style="fill:#08251D;fill:color(display-p3 0.0314 0.1451 0.1137);fill-opacity:1;"/>
</svg>
