<svg width="2009" height="937" viewBox="0 0 2009 937" fill="none" xmlns="http://www.w3.org/2000/svg">
<path d="M622.644 353.766C622.644 147.994 475.603 12.1639 254.534 12.1639H0V694.354H251.491C466.476 694.354 622.644 563.592 622.644 353.766ZM470.532 353.766C470.532 481.486 379.265 561.565 251.491 561.565H148.055V149.007H254.534C383.322 149.007 470.532 231.113 470.532 353.766Z" fill="#181A18" style="fill:#181A18;fill:color(display-p3 0.0941 0.1020 0.0941);fill-opacity:1;"/>
<path d="M816.357 693.34V513.923H916.751C1104.36 513.923 1220.97 424.722 1220.97 260.509C1220.97 102.379 1102.33 12.1639 908.638 12.1639H668.301V694.354L816.357 693.34ZM912.694 149.007C1010.05 149.007 1068.86 185.499 1068.86 260.509C1068.86 339.575 1010.05 377.08 912.694 377.08H816.357V149.007H912.694Z" fill="#181A18" style="fill:#181A18;fill:color(display-p3 0.0941 0.1020 0.0941);fill-opacity:1;"/>
<path d="M2009 707.531V579.811H1946.13C1928.89 579.811 1907.59 580.825 1884.27 582.852C1934.97 522.033 1965.39 442.967 1965.39 353.766C1965.39 153.062 1812.27 0 1609.45 0C1407.65 0 1254.53 153.062 1254.53 353.766C1254.53 553.456 1403.6 703.477 1602.35 707.531H2009ZM1609.45 567.647C1495.88 567.647 1406.64 474.391 1406.64 353.766C1406.64 233.141 1495.88 139.884 1609.45 139.884C1724.04 139.884 1812.27 233.141 1812.27 353.766C1812.27 474.391 1723.03 567.647 1609.45 567.647Z" fill="#181A18" style="fill:#181A18;fill:color(display-p3 0.0941 0.1020 0.0941);fill-opacity:1;"/>
<path d="M0 916.461V778.055H42.5104C58.5918 778.055 71.9052 780.889 82.4504 786.557C92.9956 792.225 100.773 800.266 105.782 810.68C110.922 820.961 113.493 833.22 113.493 847.456C113.493 861.692 110.922 873.951 105.782 884.232C100.773 894.514 92.9956 902.489 82.4504 908.157C72.037 913.693 58.7237 916.461 42.5104 916.461H0ZM19.7723 899.853H41.7195C54.5056 899.853 64.6553 897.743 72.1688 893.525C79.6823 889.307 85.0208 883.31 88.1844 875.533C91.4797 867.624 93.1274 858.265 93.1274 847.456C93.1274 836.515 91.4797 827.091 88.1844 819.182C85.0208 811.273 79.6823 805.209 72.1688 800.991C64.6553 796.773 54.5056 794.664 41.7195 794.664H19.7723V899.853Z" fill="#181A18" style="fill:#181A18;fill:color(display-p3 0.0941 0.1020 0.0941);fill-opacity:1;"/>
<path d="M138.275 916.461V778.055H225.668V794.269H158.047V838.558H219.736V854.376H158.047V900.248H225.668V916.461H138.275Z" fill="#181A18" style="fill:#181A18;fill:color(display-p3 0.0941 0.1020 0.0941);fill-opacity:1;"/>
<path d="M297.499 918.834C287.349 918.834 278.451 917.054 270.806 913.495C263.161 909.805 257.229 904.664 253.011 898.073C248.793 891.482 246.684 883.771 246.684 874.939H267.445C267.577 879.948 268.763 884.562 271.004 888.78C273.376 892.866 276.738 896.162 281.088 898.666C285.569 901.039 291.04 902.225 297.499 902.225C303.035 902.225 307.78 901.302 311.735 899.457C315.821 897.612 318.919 895.107 321.028 891.944C323.137 888.648 324.191 884.891 324.191 880.673C324.191 875.796 323.071 871.776 320.83 868.612C318.589 865.449 315.557 862.878 311.735 860.901C308.044 858.792 303.694 856.947 298.685 855.365C293.808 853.783 288.667 852.07 283.263 850.224C272.322 846.665 264.149 842.052 258.745 836.383C253.472 830.715 250.836 823.334 250.836 814.239C250.836 806.461 252.681 799.739 256.372 794.071C260.063 788.271 265.204 783.789 271.795 780.626C278.517 777.33 286.426 775.683 295.521 775.683C304.485 775.683 312.328 777.33 319.05 780.626C325.773 783.921 331.046 788.469 334.868 794.269C338.691 800.068 340.602 806.857 340.602 814.634H319.644C319.644 811.075 318.721 807.582 316.875 804.155C315.03 800.727 312.262 797.959 308.571 795.85C304.88 793.609 300.333 792.489 294.928 792.489C290.447 792.357 286.426 793.082 282.867 794.664C279.308 796.246 276.54 798.553 274.563 801.584C272.586 804.616 271.597 808.241 271.597 812.459C271.597 816.677 272.454 820.104 274.167 822.741C276.013 825.245 278.649 827.42 282.076 829.265C285.503 831.111 289.458 832.824 293.94 834.406C298.553 835.856 303.628 837.504 309.164 839.349C316.019 841.59 322.082 844.358 327.355 847.654C332.759 850.817 336.977 854.969 340.009 860.11C343.173 865.119 344.754 871.578 344.754 879.487C344.754 886.341 342.975 892.734 339.416 898.666C335.857 904.598 330.584 909.475 323.598 913.298C316.612 916.988 307.912 918.834 297.499 918.834Z" fill="#181A18" style="fill:#181A18;fill:color(display-p3 0.0941 0.1020 0.0941);fill-opacity:1;"/>
<path d="M369.255 916.461V778.055H389.027V916.461H369.255Z" fill="#181A18" style="fill:#181A18;fill:color(display-p3 0.0941 0.1020 0.0941);fill-opacity:1;"/>
<path d="M478.812 918.834C465.762 918.834 454.36 915.868 444.606 909.936C434.852 904.005 427.272 895.7 421.868 885.023C416.463 874.346 413.761 861.89 413.761 847.654C413.761 833.549 416.463 821.093 421.868 810.284C427.404 799.475 435.247 791.039 445.397 784.976C455.678 778.78 467.805 775.683 481.778 775.683C497.464 775.683 510.579 779.505 521.125 787.151C531.67 794.664 538.458 805.143 541.49 818.588H518.95C516.972 810.943 512.82 804.946 506.493 800.596C500.166 796.114 491.862 793.873 481.58 793.873C471.826 793.873 463.324 796.048 456.074 800.398C448.956 804.748 443.485 810.943 439.663 818.984C435.84 827.025 433.929 836.581 433.929 847.654C433.929 858.858 435.84 868.48 439.663 876.521C443.485 884.562 448.89 890.691 455.876 894.909C462.862 899.128 470.903 901.237 479.998 901.237C493.971 901.237 504.45 897.216 511.436 889.175C518.554 881.135 522.706 870.392 523.893 856.947H485.732V841.722H543.863V916.461H525.87L524.09 895.305C520.927 900.446 517.236 904.796 513.018 908.355C508.932 911.782 504.12 914.418 498.584 916.263C493.048 917.977 486.457 918.834 478.812 918.834Z" fill="#181A18" style="fill:#181A18;fill:color(display-p3 0.0941 0.1020 0.0941);fill-opacity:1;"/>
<path d="M570.886 916.461V778.055H590.658L661.245 884.232V778.055H681.017V916.461H661.245L590.658 810.482V916.461H570.886Z" fill="#181A18" style="fill:#181A18;fill:color(display-p3 0.0941 0.1020 0.0941);fill-opacity:1;"/>
<path d="M762.476 916.461V778.055H809.732C820.804 778.055 829.9 779.901 837.018 783.592C844.136 787.282 849.408 792.225 852.835 798.421C856.263 804.616 857.976 811.668 857.976 819.577C857.976 827.091 856.263 834.011 852.835 840.338C849.54 846.533 844.333 851.542 837.215 855.365C830.097 859.056 820.936 860.901 809.732 860.901H782.248V916.461H762.476ZM782.248 844.49H808.941C819.354 844.49 826.736 842.249 831.086 837.768C835.568 833.154 837.808 827.091 837.808 819.577C837.808 811.536 835.568 805.341 831.086 800.991C826.736 796.641 819.354 794.466 808.941 794.466H782.248V844.49Z" fill="#181A18" style="fill:#181A18;fill:color(display-p3 0.0941 0.1020 0.0941);fill-opacity:1;"/>
<path d="M880.283 916.461V778.055H927.144C938.084 778.055 947.048 779.901 954.034 783.592C961.02 787.282 966.161 792.225 969.456 798.421C972.883 804.484 974.597 811.405 974.597 819.182C974.597 826.563 972.883 833.418 969.456 839.745C966.161 845.94 960.954 850.949 953.836 854.772C946.718 858.463 937.623 860.308 926.55 860.308H900.056V916.461H880.283ZM953.045 916.461L923.189 854.969H944.939L975.981 916.461H953.045ZM900.056 845.281H925.76C935.514 845.281 942.698 842.908 947.311 838.163C951.925 833.286 954.232 827.091 954.232 819.577C954.232 811.932 951.991 805.868 947.509 801.387C943.027 796.905 935.778 794.664 925.76 794.664H900.056V845.281Z" fill="#181A18" style="fill:#181A18;fill:color(display-p3 0.0941 0.1020 0.0941);fill-opacity:1;"/>
<path d="M1001.18 916.461V778.055H1020.95V916.461H1001.18Z" fill="#181A18" style="fill:#181A18;fill:color(display-p3 0.0941 0.1020 0.0941);fill-opacity:1;"/>
<path d="M1111.53 918.834C1097.95 918.834 1086.22 915.868 1076.33 909.936C1066.58 903.873 1059 895.503 1053.59 884.826C1048.32 874.017 1045.69 861.494 1045.69 847.258C1045.69 833.154 1048.32 820.697 1053.59 809.889C1059 799.08 1066.58 790.71 1076.33 784.778C1086.22 778.714 1097.95 775.683 1111.53 775.683C1127.74 775.683 1140.86 779.571 1150.87 787.348C1161.02 795.125 1167.48 806.066 1170.25 820.17H1148.5C1146.52 811.998 1142.44 805.473 1136.24 800.596C1130.18 795.719 1121.94 793.28 1111.53 793.28C1102.17 793.28 1094.06 795.455 1087.21 799.805C1080.35 804.155 1075.08 810.35 1071.39 818.391C1067.7 826.431 1065.85 836.054 1065.85 847.258C1065.85 858.463 1067.7 868.151 1071.39 876.324C1075.08 884.364 1080.35 890.56 1087.21 894.909C1094.06 899.128 1102.17 901.237 1111.53 901.237C1121.94 901.237 1130.18 898.93 1136.24 894.316C1142.44 889.571 1146.52 883.178 1148.5 875.137H1170.25C1167.48 888.846 1161.02 899.589 1150.87 907.366C1140.86 915.011 1127.74 918.834 1111.53 918.834Z" fill="#181A18" style="fill:#181A18;fill:color(display-p3 0.0941 0.1020 0.0941);fill-opacity:1;"/>
<path d="M1194.89 916.461V778.055H1282.29V794.269H1214.67V838.558H1276.36V854.376H1214.67V900.248H1282.29V916.461H1194.89Z" fill="#181A18" style="fill:#181A18;fill:color(display-p3 0.0941 0.1020 0.0941);fill-opacity:1;"/>
<path d="M1458.29 936.233L1410.64 861.297H1433.38L1481.42 936.233H1458.29ZM1422.7 918.834C1409.39 918.834 1397.66 915.868 1387.51 909.936C1377.49 903.873 1369.58 895.503 1363.78 884.826C1358.11 874.017 1355.28 861.494 1355.28 847.258C1355.28 833.154 1358.11 820.763 1363.78 810.086C1369.58 799.278 1377.49 790.841 1387.51 784.778C1397.66 778.714 1409.39 775.683 1422.7 775.683C1436.28 775.683 1448.14 778.714 1458.29 784.778C1468.44 790.841 1476.28 799.278 1481.82 810.086C1487.49 820.763 1490.32 833.154 1490.32 847.258C1490.32 861.494 1487.49 874.017 1481.82 884.826C1476.28 895.503 1468.44 903.873 1458.29 909.936C1448.14 915.868 1436.28 918.834 1422.7 918.834ZM1422.9 901.237C1432.39 901.237 1440.69 899.062 1447.81 894.712C1454.93 890.362 1460.4 884.167 1464.22 876.126C1468.18 868.085 1470.15 858.463 1470.15 847.258C1470.15 836.054 1468.18 826.431 1464.22 818.391C1460.4 810.35 1454.93 804.221 1447.81 800.003C1440.69 795.653 1432.39 793.478 1422.9 793.478C1413.41 793.478 1405.1 795.653 1397.98 800.003C1390.87 804.221 1385.33 810.35 1381.38 818.391C1377.42 826.431 1375.44 836.054 1375.44 847.258C1375.44 858.463 1377.42 868.085 1381.38 876.126C1385.33 884.167 1390.87 890.362 1397.98 894.712C1405.1 899.062 1413.41 901.237 1422.9 901.237Z" fill="#181A18" style="fill:#181A18;fill:color(display-p3 0.0941 0.1020 0.0941);fill-opacity:1;"/>
<path d="M1566.12 918.834C1556.36 918.834 1547.53 916.923 1539.62 913.1C1531.71 909.145 1525.39 903.214 1520.64 895.305C1516.03 887.264 1513.72 877.048 1513.72 864.658V778.055H1533.49V864.856C1533.49 873.16 1534.88 880.014 1537.65 885.419C1540.41 890.691 1544.24 894.646 1549.11 897.282C1554.12 899.787 1559.92 901.039 1566.51 901.039C1573.24 901.039 1579.04 899.787 1583.91 897.282C1588.79 894.646 1592.55 890.691 1595.18 885.419C1597.95 880.014 1599.33 873.16 1599.33 864.856V778.055H1619.11V864.658C1619.11 877.048 1616.73 887.264 1611.99 895.305C1607.24 903.214 1600.85 909.145 1592.81 913.1C1584.77 916.923 1575.87 918.834 1566.12 918.834Z" fill="#181A18" style="fill:#181A18;fill:color(display-p3 0.0941 0.1020 0.0941);fill-opacity:1;"/>
<path d="M1709.87 918.834C1696.56 918.834 1684.82 915.868 1674.67 909.936C1664.66 903.873 1656.75 895.503 1650.95 884.826C1645.28 874.017 1642.45 861.494 1642.45 847.258C1642.45 833.154 1645.28 820.763 1650.95 810.086C1656.75 799.278 1664.66 790.841 1674.67 784.778C1684.82 778.714 1696.56 775.683 1709.87 775.683C1723.45 775.683 1735.31 778.714 1745.46 784.778C1755.61 790.841 1763.45 799.278 1768.99 810.086C1774.66 820.763 1777.49 833.154 1777.49 847.258C1777.49 861.494 1774.66 874.017 1768.99 884.826C1763.45 895.503 1755.61 903.873 1745.46 909.936C1735.31 915.868 1723.45 918.834 1709.87 918.834ZM1710.07 901.237C1719.56 901.237 1727.86 899.062 1734.98 894.712C1742.1 890.362 1747.57 884.167 1751.39 876.126C1755.35 868.085 1757.32 858.463 1757.32 847.258C1757.32 836.054 1755.35 826.431 1751.39 818.391C1747.57 810.35 1742.1 804.221 1734.98 800.003C1727.86 795.653 1719.56 793.478 1710.07 793.478C1700.58 793.478 1692.27 795.653 1685.15 800.003C1678.04 804.221 1672.5 810.35 1668.55 818.391C1664.59 826.431 1662.61 836.054 1662.61 847.258C1662.61 858.463 1664.59 868.085 1668.55 876.126C1672.5 884.167 1678.04 890.362 1685.15 894.712C1692.27 899.062 1700.58 901.237 1710.07 901.237Z" fill="#181A18" style="fill:#181A18;fill:color(display-p3 0.0941 0.1020 0.0941);fill-opacity:1;"/>
<path d="M1828.13 916.461V794.269H1787.2V778.055H1889.03V794.269H1847.9V916.461H1828.13Z" fill="#181A18" style="fill:#181A18;fill:color(display-p3 0.0941 0.1020 0.0941);fill-opacity:1;"/>
<path d="M1910.04 916.461V778.055H1997.43V794.269H1929.81V838.558H1991.5V854.376H1929.81V900.248H1997.43V916.461H1910.04Z" fill="#181A18" style="fill:#181A18;fill:color(display-p3 0.0941 0.1020 0.0941);fill-opacity:1;"/>
</svg>
