<svg width="1807" height="588" viewBox="0 0 1807 588" fill="none" xmlns="http://www.w3.org/2000/svg">
<path d="M731.359 404.969V245.622H916.484V175.702H731.359V92.5779H920.489V22.6553H649.97V404.969H731.359Z" fill="#181A18" style="fill:#181A18;fill:color(display-p3 0.0941 0.1020 0.0941);fill-opacity:1;"/>
<path d="M1032.28 22.6553H959.477V404.969H1032.28V22.6553Z" fill="#181A18" style="fill:#181A18;fill:color(display-p3 0.0941 0.1020 0.0941);fill-opacity:1;"/>
<path d="M1216.83 411.853C1308.54 411.853 1363.55 345.373 1363.55 266.255C1363.55 187.736 1308.54 121.239 1216.83 121.239C1125.68 121.239 1070.66 187.736 1070.66 266.255C1070.66 345.373 1125.68 411.853 1216.83 411.853ZM1216.83 347.085C1171.54 347.085 1146.31 309.828 1146.31 266.255C1146.31 223.283 1171.54 186.007 1216.83 186.007C1262.11 186.007 1287.89 223.283 1287.89 266.255C1287.89 309.828 1262.11 347.085 1216.83 347.085Z" fill="#181A18" style="fill:#181A18;fill:color(display-p3 0.0941 0.1020 0.0941);fill-opacity:1;"/>
<path d="M1721.75 404.969L1806.02 128.123H1730.36L1678.78 314.416L1618.01 128.123H1553.26L1492.51 314.416L1440.91 128.123H1365.25L1449.52 404.969H1527.47L1585.92 216.399L1644.39 404.969H1721.75Z" fill="#181A18" style="fill:#181A18;fill:color(display-p3 0.0941 0.1020 0.0941);fill-opacity:1;"/>
<path d="M691.343 585C727.109 585 751.355 561.454 751.355 527.746C751.355 494.036 727.109 470.315 691.343 470.315H648.703V585H691.343ZM668.82 488.03H691.343C716.965 488.03 730.718 505.569 730.718 527.746C730.718 549.42 716.285 567.286 691.343 567.286H668.82V488.03Z" fill="#181A18" style="fill:#181A18;fill:color(display-p3 0.0941 0.1020 0.0941);fill-opacity:1;"/>
<path d="M870.004 585V567.286H811.548V535.491H868.795V517.778H811.548V488.03H870.004V470.315H791.422V585H870.004Z" fill="#181A18" style="fill:#181A18;fill:color(display-p3 0.0941 0.1020 0.0941);fill-opacity:1;"/>
<path d="M903.869 568.854C914.014 579.673 929.314 587.069 950.478 587.069C981.427 587.069 994.818 570.728 994.818 551.642C994.818 526.724 972.302 520.871 953.391 516.062C939.805 512.622 928.133 509.687 928.133 500.743C928.133 492.147 935.679 486.467 947.545 486.467C959.581 486.467 971.784 490.601 980.72 499.546L992.258 484.593C981.602 474.258 967.138 468.601 949.265 468.601C924.154 468.601 907.496 483.203 907.496 502.133C907.496 526.377 929.487 531.882 948.229 536.517C962.152 540.129 974.378 543.222 974.378 553.537C974.378 561.107 967.842 569.182 951.328 569.182C935.345 569.182 922.969 561.803 915.052 553.362L903.869 568.854Z" fill="#181A18" style="fill:#181A18;fill:color(display-p3 0.0941 0.1020 0.0941);fill-opacity:1;"/>
<path d="M1054.15 470.315H1034.02V585.021H1054.15V470.315Z" fill="#181A18" style="fill:#181A18;fill:color(display-p3 0.0941 0.1020 0.0941);fill-opacity:1;"/>
<path d="M1094.04 527.748C1094.04 563.675 1121.04 587.243 1154.22 587.243C1174.17 587.243 1190.16 578.994 1201.51 566.438V523.439H1147.17V541.153H1181.38V559.04C1176.23 563.849 1165.92 569.355 1154.22 569.355C1131.53 569.355 1114.67 551.815 1114.67 527.748C1114.67 503.679 1131.53 486.311 1154.22 486.311C1167.13 486.311 1177.95 493.013 1183.98 501.612L1200.47 492.319C1191.19 479.088 1176.59 468.423 1154.22 468.423C1121.04 468.423 1094.04 491.798 1094.04 527.748Z" fill="#181A18" style="fill:#181A18;fill:color(display-p3 0.0941 0.1020 0.0941);fill-opacity:1;"/>
<path d="M1342.51 585V470.315H1322.4V551.64L1263.75 470.315H1243.12V585H1263.24V501.435L1323.08 585H1342.51Z" fill="#181A18" style="fill:#181A18;fill:color(display-p3 0.0941 0.1020 0.0941);fill-opacity:1;"/>
<path d="M1466.14 585V567.286H1407.67V535.491H1464.93V517.778H1407.67V488.03H1466.14V470.315H1387.56V585H1466.14Z" fill="#181A18" style="fill:#181A18;fill:color(display-p3 0.0941 0.1020 0.0941);fill-opacity:1;"/>
<path d="M1596.12 585L1568.11 539.955C1581.86 537.711 1595.27 526.72 1595.27 506.245C1595.27 485.094 1580.48 470.315 1557.78 470.315H1507.41V585H1527.52V542.194H1547.47L1572.93 585H1596.12ZM1574.64 506.245C1574.64 517.255 1566.38 524.48 1555.03 524.48H1527.52V488.03H1555.03C1566.38 488.03 1574.64 495.234 1574.64 506.245Z" fill="#181A18" style="fill:#181A18;fill:color(display-p3 0.0941 0.1020 0.0941);fill-opacity:1;"/>
<path d="M82.9425 57.783C84.5169 56.655 86.1153 55.5732 87.7368 54.5391C104.908 41.0444 122.901 26.8942 130.94 21.1317C210.16 -35.6657 354.734 29.2178 453.591 165.929C552.448 302.641 568.394 459.744 489.175 516.54C476.003 525.984 418.171 563.743 400.958 571.371C313.23 610.258 185.638 570.141 86.7798 433.429C-12.0762 296.718 -28.0205 139.616 51.1969 82.8197C55.1608 79.9787 62.5736 74.2544 71.4172 67.3422C75.0121 63.9071 78.8529 60.7148 82.9425 57.783ZM356.889 228.081C307.429 159.681 244.807 111.833 187.141 96.0848C174.154 92.5371 161.534 90.5717 149.798 90.9685C144.379 102.732 141.992 117.033 141.33 132.476C138.768 192.213 165.495 267.149 215.656 336.516C265.817 405.885 328.713 454.889 386.42 471.417C397.125 474.482 407.551 476.521 417.36 476.918C424.435 463.93 427.8 447.815 428.772 430.241C432.061 370.792 406.351 296.481 356.889 228.081ZM407.099 204.842C435.206 245.422 455.745 287.697 468.421 328.387C456.86 288.208 436.028 245.631 407.099 204.842Z" fill="#181A18" style="fill:#181A18;fill:color(display-p3 0.0941 0.1020 0.0941);fill-opacity:1;"/>
<path d="M453.117 166.341C551.975 303.053 567.919 460.155 488.7 516.95C409.483 573.747 264.908 508.865 166.05 372.153C67.1936 235.441 51.2483 78.337 130.467 21.5431C209.687 -35.2544 354.261 29.6291 453.117 166.341ZM398.526 205.481C356.859 147.858 306.172 104.667 256.938 82.5738C223.839 67.7182 192.352 59.9852 169.904 76.0798C147.456 92.1745 144.834 124.36 148.484 160.331C153.913 213.828 178.976 275.391 220.642 333.013C262.309 390.634 312.997 433.826 362.228 455.921C395.33 470.774 426.816 478.506 449.264 462.412C471.714 446.318 474.333 414.132 470.684 378.165C465.254 324.665 440.193 263.101 398.526 205.481Z" fill="#181A18" style="fill:#181A18;fill:color(display-p3 0.0941 0.1020 0.0941);fill-opacity:1;"/>
</svg>
