<svg width="353" height="23" viewBox="0 0 353 23" fill="none" xmlns="http://www.w3.org/2000/svg">
<path d="M63.6058 22.3593C54.8558 19.5993 10.9758 20.0993 2.73579 21.5593C2.60579 21.5793 1.99579 21.6693 1.86579 21.6693C0.515793 21.4593 -1.26419 14.6393 1.31581 8.00934C3.00581 3.65934 4.57581 3.00933 9.16581 3.35933C10.3458 3.44933 15.0458 3.45933 20.7958 3.46933C22.2158 3.46933 23.7158 3.44934 25.1658 3.39934C26.8458 3.32934 28.6658 3.26933 30.4858 3.23933C43.7258 3.01933 55.7058 3.98933 70.2658 4.20933C70.9858 4.66933 73.2058 3.27933 73.5958 3.81933C73.9058 4.13933 79.7158 4.42933 88.5058 4.52933C97.2858 4.62933 109.056 4.50933 121.196 4.70933C124.226 4.75933 137.606 5.18932 139.006 5.22932C144.636 5.38932 149.986 5.39933 154.716 5.35933C164.176 5.26933 171.166 4.88933 173.066 4.79933C177.676 4.58933 174.056 5.57932 179.486 4.97932C206.836 1.98932 219.846 2.61933 226.456 2.18933C242.626 1.11933 236.066 3.41932 267.326 3.36932C270.006 3.36932 272.456 3.29933 274.826 3.15933C276.806 3.03933 281.736 2.69933 286.766 1.93933C288.166 1.72933 289.196 1.54932 289.716 1.36932C290.736 1.02932 291.526 1.04932 291.556 1.36932C291.606 1.36932 304.956 0.469336 314.086 0.179336C314.216 0.179336 318.366 0.0993344 318.426 0.209334C318.646 0.519334 319.476 0.639331 320.246 0.409331C322.076 -0.0106687 335.156 -0.700673 347.516 1.88933C350.556 2.69933 352.576 3.45932 352.626 3.69932C352.946 5.16932 351.106 8.16932 348.926 11.0893C341.866 20.5293 342.816 18.5893 330.096 17.4393C317.096 16.2593 311.356 17.8593 305.836 18.2593C303.986 18.3893 301.346 18.6093 298.176 18.8593C291.796 19.3493 283.216 20.2393 274.196 20.3893C273.056 20.4093 271.926 20.4093 270.796 20.4293C269.656 20.4393 268.616 20.4093 267.526 20.3993C265.376 20.3793 253.396 20.0393 250.186 19.9093C239.616 19.4993 241.146 19.2893 225.016 20.1293C223.386 19.1693 217.076 21.4293 213.306 19.8793C212.006 19.3493 205.126 19.4593 201.226 19.9893C200.056 20.1493 193.336 21.9893 164.966 22.3593C146.276 22.6093 131.686 21.8493 128.966 22.6293C121.806 21.1993 103.746 21.5993 96.4458 21.7793C79.4358 22.1993 72.4258 22.4293 63.6158 22.3593H63.6058Z" fill="#C2F185"/>
</svg>
