<svg width="347" height="22" viewBox="0 0 347 22" fill="none" xmlns="http://www.w3.org/2000/svg">
<path d="M64.4962 21.4055C57.3262 19.3555 4.78623 21.1955 0.976231 20.6355C-2.13377 19.8255 2.92623 5.81554 5.83623 3.74554C6.86623 3.01554 8.04623 2.87554 10.7462 3.24554C14.7362 3.80554 65.0662 3.10554 70.4462 3.03554C71.1762 3.47554 73.3762 2.02554 73.7862 2.55554C74.1062 2.86554 79.9462 3.03554 88.6662 3.12554C116.476 3.39554 167.586 2.74554 172.446 2.72554C177.086 2.70554 173.406 3.51554 178.876 3.21554C190.516 2.56554 215.866 3.33554 224.676 2.55554C231.736 1.92554 233.246 1.90554 240.016 2.40554C246.936 2.91554 283.716 2.09554 287.886 1.01554C288.916 0.74554 289.696 0.82554 289.696 1.14554C289.766 1.14554 310.296 1.20554 314.546 1.27554C315.266 1.28554 315.686 1.31554 315.696 1.34554C315.896 1.65554 316.686 1.77554 317.416 1.55554C318.346 1.28554 346.186 -0.634461 346.656 0.215539C348.056 2.79554 344.676 13.9055 341.536 16.7255C339.926 18.1755 334.556 18.3255 327.796 18.2255C321.036 18.1255 312.866 17.9455 305.616 18.8855C278.256 19.3055 266.366 19.3155 238.026 19.4655L223.546 20.5455C221.896 19.6055 215.516 21.9055 211.656 20.2655C210.036 19.5755 198.546 19.4955 195.986 20.1655C193.776 20.7455 134.966 19.0455 128.926 20.8555C118.206 19.2155 74.5962 21.1255 64.4962 21.4255V21.4055Z" fill="#D2E6FF"/>
</svg>
