<svg width="351" height="25" viewBox="0 0 351 25" fill="none" xmlns="http://www.w3.org/2000/svg">
<path opacity="0.7" d="M350.35 11.224C350.38 11.034 350.45 10.564 350.43 10.374C349.97 9.32396 348.36 3.37397 348.05 2.25397L350.72 2.13396C337.56 -0.206042 322.72 0.873965 321.72 1.09396C320.95 1.32396 320.13 1.18396 319.91 0.873964C319.68 0.433964 293.46 1.33395 292.97 1.33395C292.95 1.02395 292.15 0.963957 291.12 1.27396C290.06 1.56396 286.94 1.93397 282.79 2.25397C262.59 3.66397 262.3 0.413965 246.8 0.0939647C246.28 0.0639647 242.94 0.0339672 242.36 0.0339672C228.44 -0.416033 210.83 3.73395 191.05 4.86395C169.96 5.91395 180.78 4.79396 174.06 4.68396C172.14 4.64396 144.93 3.60397 138.98 3.53397C117.03 3.33397 101.36 3.11397 87.92 3.41397C78.83 3.59397 72.67 3.89395 72.32 3.61395C71.86 3.11395 69.6 4.73398 68.99 4.32398C58.08 5.45398 39.44 3.12397 28.75 4.63397C23.64 5.32397 11.5 7.74395 9.02 6.89395C8.49 6.81395 8.17 6.69395 7.83 6.64395C7.67 6.62395 7.51 6.60396 7.38 6.59396C7.27 6.57396 7.16 6.56397 7.06 6.56397C6.86 6.56397 6.67 6.60397 6.49 6.69397C6.47 6.69397 6.46 6.71397 6.44 6.72397C6.09 6.07397 5.46 5.72398 4.56 5.82398C4.36 5.86398 4.04 5.93397 3.76 6.00397C3.47 6.07397 3.17 6.15397 3.1 6.16397C3.21 6.65397 3.57 8.16398 3.69 8.82398L0 22.964C2.64 23.874 5.75 24.344 8.83 24.374C14.99 24.454 21.49 23.084 27.5 22.054C31.45 21.364 32.86 21.284 33.86 21.184C34.98 21.134 34.79 21.134 35.21 21.124C41.53 20.944 46.04 21.354 52.82 21.824C57.86 22.204 61.88 22.494 63.59 22.904C64.98 22.854 66.96 22.754 69.4 22.534C75.38 21.914 75.38 21.8939 77.14 21.7339C82.76 21.2039 89.48 20.7439 96.27 20.5139C109.85 20.0539 123.72 20.304 129.2 21.184C130.72 20.764 135.79 20.544 142.09 20.614C151.69 20.724 191.87 23.614 198.59 21.594C201.07 20.794 212.74 19.344 214.69 19.914C218.69 21.164 224.85 18.264 226.58 19.084C236.15 17.614 243.17 16.694 248.57 17.084C274.55 18.274 246.12 21.444 309.73 18.534C319.61 16.984 330.24 17.994 336.26 18.474C344.47 19.244 345.13 18.994 348.78 13.664L349.31 13.644C348.12 16.014 346.82 17.704 347.99 18.894C348.06 18.984 348.75 19.164 349.65 19.244C349.85 19.264 350.14 19.284 350.18 19.294C350.29 14.334 350.31 12.664 350.43 10.924C350.43 10.984 350.36 11.1739 350.34 11.2339L350.35 11.224Z" fill="#FFA5D7"/>
</svg>
