<svg width="378" height="23" viewBox="0 0 378 23" fill="none" xmlns="http://www.w3.org/2000/svg">
<path d="M70.1875 20.4209C62.5975 18.2809 6.28745 18.1909 0.967454 17.2409C-2.38255 16.2909 3.78745 2.52091 7.01745 0.590906C8.16745 -0.099094 9.44745 -0.179083 12.3575 0.320917C18.0475 1.30092 68.9575 2.12091 77.1275 2.22091C77.9075 2.68091 80.3375 1.29093 80.7575 1.83093C82.6075 3.53093 186.947 3.78092 187.947 3.79092C192.987 3.82092 188.987 4.59092 194.927 4.35092C207.587 3.82092 235.147 4.80093 244.727 4.05093C252.407 3.45093 254.047 3.48093 261.417 3.99093C265.177 4.25093 277.057 4.22092 288.567 3.98092C300.077 3.74092 311.227 3.31093 313.497 2.77093C314.617 2.50093 315.467 2.5809 315.467 2.9009C315.627 2.9009 343.697 3.05091 343.777 3.19091C343.997 3.50091 344.857 3.64091 345.647 3.41091C347.117 3.11091 377.077 1.44093 377.577 2.33093C379.057 4.92093 375.107 15.9909 371.677 18.7809C369.897 20.2309 364.097 20.2809 356.757 20.1509C349.417 20.0209 340.557 19.7509 332.657 20.6909C332.657 20.6909 328.057 20.7309 321.167 20.8009C274.547 21.2809 268.867 20.4109 243.367 22.0109C241.577 21.0709 234.617 23.3209 230.427 21.6609C228.667 20.9609 216.167 20.8309 213.377 21.4409C212.177 21.7009 195.567 21.2909 178.437 20.9809C161.307 20.6709 143.657 20.4009 140.357 21.2909C130.707 19.7409 94.1975 20.2709 70.1675 20.4109L70.1875 20.4209Z" fill="#146FE7"/>
</svg>
