<svg width="364" height="22" viewBox="0 0 364 22" fill="none" xmlns="http://www.w3.org/2000/svg">
<path d="M67.1631 21.4334C59.9831 19.3734 19.6432 20.3134 11.9932 20.5334C6.21316 20.6934 2.08316 20.8434 1.08316 20.7034C-2.17684 19.9734 2.67315 5.84345 5.73315 3.69345C6.80315 2.94345 8.05315 2.72343 10.9131 3.08343C12.0431 3.22343 16.5531 3.20344 22.6631 3.18344C28.7631 3.16344 73.6832 3.17343 73.6832 3.17343C74.4432 3.62343 76.7632 2.21345 77.1832 2.75345C77.5132 3.07345 83.6231 3.34345 92.7131 3.54345C133.143 4.44345 152.333 2.42343 180.083 1.58343C184.973 1.43343 181.113 2.35343 186.853 1.95343C199.083 1.09343 225.683 1.69344 234.923 0.933439C242.333 0.323439 243.923 0.323433 251.023 0.833433C257.543 1.30343 297.053 1.06345 301.323 0.133451C302.413 -0.106549 303.233 -0.00656584 303.223 0.303434C303.223 0.303434 303.653 0.333452 304.393 0.353452C308.293 0.473452 306.013 0.393446 316.843 0.753446C317.053 0.753446 330.473 1.20343 330.563 1.39343C330.763 1.71343 331.583 1.86344 332.363 1.68344C333.973 1.30344 362.833 1.10345 363.303 2.10345C364.563 4.77345 360.093 15.6234 356.683 18.2134C353.163 20.8834 334.513 17.1034 319.323 18.5334C319.323 18.5334 292.903 18.1534 284.093 18.0634C244.023 17.6434 250.383 17.7735 233.723 18.9135C232.003 17.9735 225.343 20.3035 221.313 18.6635C219.623 17.9735 207.623 17.9535 204.963 18.6635C203.823 18.9635 187.853 18.7335 171.543 19.1035C165.103 19.2535 138.013 20.2634 134.903 21.2334C127.403 20.3534 105.913 20.8334 67.1531 21.4434L67.1631 21.4334Z" fill="#FF928C"/>
</svg>
