<svg width="387" height="22" viewBox="0 0 387 22" fill="none" xmlns="http://www.w3.org/2000/svg">
<path d="M71.797 20.5378C63.887 18.6678 3.167 21.9978 1.157 21.7578C-2.323 21.0578 2.857 6.87781 6.037 4.69781C7.937 3.39781 7.647 4.31782 23.907 3.86782C30.857 3.67782 32.977 3.58783 78.017 2.02783C78.837 2.44783 81.267 0.947809 81.727 1.47781C82.597 2.23781 173.867 0.457825 191.757 0.337825C196.937 0.297825 192.827 1.13782 198.927 0.827815C211.917 0.167815 240.187 1.04781 250.027 0.387813C257.907 -0.142187 259.607 -0.132199 267.147 0.4378C271.007 0.7278 283.197 0.827826 295.007 0.807826C306.827 0.787826 318.277 0.637821 320.627 0.177821C321.787 -0.0521788 322.657 0.0478237 322.647 0.367824C322.647 0.367824 323.097 0.397821 323.887 0.427821C328.087 0.587821 325.417 0.497802 337.117 0.907802C344.207 1.1578 348.387 1.38781 350.407 1.50781C351.207 1.55781 351.677 1.60781 351.687 1.63781C351.897 1.95781 352.767 2.1178 353.597 1.9378C355.107 1.5978 385.947 1.43782 386.427 2.36782C387.787 5.03782 383.137 15.8878 379.497 18.4978C377.607 19.8578 371.707 19.5678 364.247 19.1178C339.897 17.6278 351.947 18.9378 327.947 18.4578C254.907 16.9978 265.877 17.3978 248.547 18.3578C246.727 17.3878 239.607 19.6378 235.337 17.9778C233.547 17.2778 220.767 17.1078 217.927 17.7778C215.867 18.2678 150.697 16.7378 143.387 18.7678C137.417 18.0278 122.317 18.2678 107.307 18.8278C92.297 19.3878 77.387 20.2778 71.777 20.5378H71.797Z" fill="#AC32C6"/>
</svg>
