<svg width="378" height="23" viewBox="0 0 378 23" fill="none" xmlns="http://www.w3.org/2000/svg">
<path d="M70.0664 20.7758C64.1264 19.3958 29.1364 21.2558 22.7164 21.5758C19.0364 21.7658 15.5964 21.9558 12.5764 22.1158C6.53637 22.4358 2.19637 22.6158 1.15637 22.5058C-2.25363 21.8358 2.66637 7.60584 5.74637 5.41584C6.83637 4.63584 8.11637 4.43584 11.0664 4.70584C12.2364 4.81584 16.8764 4.67584 23.1864 4.44584C31.8864 4.12584 30.9664 4.12584 76.0164 2.24584C76.8264 2.66584 79.1864 1.14584 79.6364 1.67584C79.9864 1.98584 86.3564 1.95584 95.8464 1.82584C96.3664 1.82584 154.686 0.545839 187.086 0.225839C192.136 0.175839 188.136 1.02584 194.086 0.715841C206.766 0.0658407 234.386 0.995838 243.986 0.365838C251.686 -0.134162 253.346 -0.144161 260.706 0.475839C264.466 0.795839 276.376 0.935841 287.916 0.985841C299.456 1.03584 310.646 0.95584 312.946 0.51584C314.076 0.29584 314.926 0.405841 314.916 0.715841C314.916 0.715841 315.356 0.74584 316.126 0.78584C316.896 0.82584 336.566 1.67584 342.016 2.05584C342.796 2.10584 343.256 2.15584 343.266 2.19584C343.476 2.51584 344.316 2.68584 345.126 2.50584C346.606 2.17584 376.716 2.26584 377.176 3.19584C378.476 5.87584 373.826 16.6858 370.256 19.2658C368.396 20.6058 362.646 20.2858 355.366 19.7558C332.636 18.1258 342.956 19.4758 319.956 18.8258C252.386 16.9058 256.096 17.5958 242.496 18.3258C240.716 17.3558 233.776 19.5758 229.616 17.9158C227.866 17.2158 215.406 17.0158 212.636 17.6858C211.436 17.9758 194.896 17.6358 177.836 17.5858C160.776 17.5358 143.186 17.7858 139.926 18.7258C126.396 17.0758 75.5164 20.5258 70.0764 20.8058L70.0664 20.7758Z" fill="#8998C9"/>
</svg>
