<svg width="379" height="24" viewBox="0 0 379 24" fill="none" xmlns="http://www.w3.org/2000/svg">
<path d="M70.135 19.4044C62.385 17.2444 5.16502 18.1044 1.01502 17.4244C-2.34498 16.5444 3.44502 2.63444 6.65502 0.634435C7.78502 -0.0755645 9.06502 -0.165564 11.995 0.244436C16.625 0.994436 76.905 1.14443 76.905 1.14443C77.695 1.59443 80.115 0.184432 80.545 0.724432C81.895 1.99443 179.555 2.59444 187.875 2.71444C192.925 2.78444 188.905 3.54443 194.855 3.33443C207.535 2.95443 235.105 4.25443 244.715 3.70443C252.405 3.24443 254.065 3.26443 261.425 3.95443C268.945 4.58443 308.995 4.86443 313.605 3.98443C314.725 3.74443 315.585 3.85443 315.575 4.17443C315.575 4.24443 343.785 5.12443 343.905 5.37443C344.115 5.69443 344.965 5.86443 345.765 5.66443C347.245 5.37443 377.325 4.89442 377.775 5.82442C379.175 8.45442 374.745 19.4144 371.185 22.0244C367.545 24.8144 348.015 21.1244 332.205 22.4944L258.825 20.9444L243.065 21.6544C241.295 20.6744 234.285 22.8644 230.155 21.0944C228.405 20.3944 215.915 19.9944 213.135 20.6344C210.725 21.1244 146.825 18.2544 140.215 19.9844C128.585 18.1344 81.135 19.2744 70.135 19.4044Z" fill="#FF7F26"/>
</svg>
