<svg width="397" height="25" viewBox="0 0 397 25" fill="none" xmlns="http://www.w3.org/2000/svg">
<path d="M75.3224 19.4225C69.5324 18.1225 35.7824 19.1725 25.8924 19.9725C22.0124 20.2825 18.2024 20.5525 14.7224 20.6225C7.76239 20.7725 2.18239 19.8425 0.942385 19.3625C-1.14761 18.5525 0.582386 15.0825 2.79239 11.6025C4.99239 8.12249 7.46239 4.37249 8.90239 3.47249C9.43239 3.14249 9.98239 2.98249 10.7224 2.93249C11.4924 2.89249 12.4224 2.99249 13.8124 3.15249C14.9124 3.34249 19.2824 3.28249 25.9024 2.81249C38.9824 1.89249 66.3624 1.70248 81.3724 0.772485C82.2024 1.17248 84.6724 -0.407513 85.1724 0.102487C85.3724 0.252487 87.1524 0.262487 90.2924 0.282487C116.302 0.432487 114.702 6.58249 128.882 7.64249C140.232 8.49249 155.652 4.43248 196.552 2.51248C201.882 2.26248 197.692 3.23248 203.962 2.69248C219.792 1.33248 247.122 1.90249 256.482 1.18249C264.562 0.562488 266.302 0.592489 274.042 1.11249C281.762 1.64249 323.412 1.47248 328.762 0.412484C329.952 0.172484 330.852 0.27249 330.852 0.58249C331.242 0.59249 360.572 1.58249 360.742 1.93249C360.962 2.25249 361.852 2.42249 362.702 2.25249C364.282 1.93249 395.822 2.11249 396.252 3.03249C397.682 5.69249 392.832 16.5225 389.072 19.1025C385.162 21.7925 364.792 17.6625 348.312 18.9025C348.312 18.9025 324.922 18.4925 310.032 18.4025C263.912 18.1125 275.862 17.8725 255.142 19.1525C253.272 18.2125 246.022 20.5425 241.662 18.9325C239.812 18.2525 226.792 18.3225 223.912 19.0625C222.672 19.3825 205.392 19.4325 187.652 20.2725C181.322 20.5725 153.762 22.2325 148.462 24.2825C136.322 23.9925 129.962 27.3825 108.252 19.8725C98.5724 16.5225 86.6124 18.8425 75.3124 19.4025L75.3224 19.4225Z" fill="#50659B"/>
</svg>
