<svg width="320" height="25" viewBox="0 0 320 25" fill="none" xmlns="http://www.w3.org/2000/svg">
<path d="M59.402 24.0304C52.762 22.0204 4.42201 23.8404 0.892006 23.2304C-1.96799 22.4104 2.73198 8.41037 5.40198 6.35037C6.35198 5.62037 7.43199 5.48036 9.91199 5.87036C13.802 6.48036 59.852 5.73036 64.742 5.63036C65.412 6.07036 67.402 4.59036 67.772 5.12036C68.062 5.42036 73.392 5.57037 81.232 5.35037C109.452 4.57037 117.062 0.150365 158.472 0.000364821C162.792 -0.0196352 159.362 0.790365 164.442 0.540365C175.242 0.0103648 198.512 1.22037 206.652 0.600365C213.162 0.100365 214.552 0.140365 220.782 0.750365C227.142 1.37036 261.032 1.44036 264.912 0.480364C265.862 0.240364 266.582 0.340364 266.582 0.650364C266.582 0.650364 283.692 1.23036 289.492 1.57036C290.152 1.61036 290.542 1.65037 290.552 1.68037C290.732 2.00037 291.452 2.16036 292.132 1.96036C293.382 1.66036 318.812 1.01037 319.212 1.93037C320.362 4.57037 316.652 15.5004 313.672 18.1704C310.562 20.9504 294.072 17.4104 280.702 18.8704C209.222 17.5904 222.552 17.5204 205.302 18.5604C203.802 17.5904 197.902 19.7804 194.382 18.0804C192.912 17.3704 182.342 17.1004 179.982 17.7204C179.452 17.8604 151.292 17.3304 150.682 17.3304C132.252 17.3304 121.432 18.9804 119.402 19.8804C113.922 19.5004 101.292 21.2304 89.292 22.2404C76.562 23.3004 64.072 23.8404 59.402 24.0304Z" fill="#4355AD"/>
</svg>
