<svg width="362" height="26" viewBox="0 0 362 26" fill="none" xmlns="http://www.w3.org/2000/svg">
<path d="M67.5154 25.1637C63.7454 24.2737 48.1354 24.6337 32.9554 25.0237C17.7754 25.4137 3.03538 25.8237 1.02538 25.5337C-2.22462 24.7437 3.02538 10.6937 6.02538 8.60374C7.09538 7.86374 8.31538 7.70374 11.1254 8.07374C16.5754 8.79374 64.1054 7.02374 73.1654 6.61374C73.9354 7.03374 76.1854 5.51374 76.6154 6.02374C78.8254 7.94374 178.185 1.52374 179.185 1.45374C184.015 1.15374 180.235 2.19374 185.895 1.56374C213.015 -1.45626 221.165 0.913742 234.495 0.443742C241.905 0.183742 243.485 0.263742 250.535 1.10374C257.735 1.96374 296.115 3.34374 300.525 2.51374C301.615 2.31374 302.415 2.43374 302.405 2.74374C303.405 2.83374 308.195 3.12374 315.895 3.59374C326.595 4.25374 324.395 4.09374 328.265 4.39374C329.015 4.45374 329.445 4.50374 329.455 4.53374C329.645 4.85374 330.455 5.03374 331.225 4.85374C332.065 4.70374 361.205 4.36374 361.575 5.10374C362.245 6.42374 361.635 9.81374 360.385 13.2237C359.135 16.6337 357.215 20.0337 355.495 21.3837C354.595 22.0937 352.765 22.3837 350.245 22.4537C342.555 22.6637 329.195 20.6537 317.875 21.4237C235.175 17.5237 254.275 17.8637 232.445 18.3337C230.785 17.3237 224.065 19.3137 220.165 17.5437C219.105 17.0637 213.255 16.4337 208.045 16.8437C199.115 17.5537 217.555 16.9837 171.205 19.2137C154.795 20.0037 137.875 20.8637 134.765 21.9237C125.995 21.0837 97.0354 23.2237 67.4654 25.1237L67.5154 25.1637Z" fill="#57FAB9"/>
</svg>
