<svg width="388" height="24" viewBox="0 0 388 24" fill="none" xmlns="http://www.w3.org/2000/svg">
<path d="M71.7489 19.9632C62.8489 18.0232 4.51891 23.3732 1.23891 23.1132C-2.26109 22.5332 2.44892 8.18319 5.55892 5.90319C6.65892 5.09319 7.96891 4.86321 10.9989 5.05321C14.1489 5.25321 35.4689 3.60321 77.6389 1.33321C78.4689 1.73321 80.8789 0.203194 81.3489 0.723194C81.7189 1.04319 88.2589 0.943193 98.0189 0.753193C134.459 0.0231925 152.339 -0.126811 171.229 0.0931889C176.559 0.153189 190.869 0.453204 191.949 0.483204C197.159 0.633204 192.999 1.2832 199.139 1.2332C202.409 1.2132 206.639 1.33319 211.299 1.53319C224.799 2.10319 242.509 3.57321 250.239 3.33321C258.059 3.09321 259.719 3.16321 267.149 3.89321C270.959 4.26321 282.869 4.42321 294.559 3.89321C306.229 3.36321 317.699 2.58319 320.039 2.00319C321.189 1.71319 322.069 1.77321 322.079 2.08321C322.079 2.08321 322.539 2.08321 323.329 2.08321C334.429 1.94321 341.929 1.8732 350.269 2.2932C351.089 2.3332 351.569 2.3832 351.579 2.4132C351.799 2.7332 352.689 2.8932 353.529 2.6932C358.399 1.8732 386.829 3.78321 387.369 5.21321C388.419 7.99321 382.109 18.3132 378.599 20.4132C376.369 21.7532 369.069 20.5732 363.839 20.0832C356.629 19.4132 347.779 18.7632 339.829 19.6732C334.959 19.7332 283.459 21.1632 276.269 21.1032C272.679 21.0732 264.339 20.8632 264.339 20.8632L248.009 21.2232C246.209 20.1932 238.939 22.0832 234.739 20.2032C232.969 19.4132 220.209 18.5832 217.339 19.0832C216.339 19.2532 151.669 15.3432 143.129 17.7932C129.019 15.8832 85.6189 18.9832 71.7489 19.9832V19.9632Z" fill="#40C6FF"/>
</svg>
