<svg width="399" height="31" viewBox="0 0 399 31" fill="none" xmlns="http://www.w3.org/2000/svg">
<path d="M12.4923 26.2783C6.67229 26.8183 2.84229 27.8283 1.86229 27.8683C0.272295 27.8083 -0.317706 24.1483 0.162294 20.0783C0.402294 18.0483 0.912295 15.9083 1.61229 14.0883C2.31229 12.2683 3.18229 10.8983 4.02229 10.2283C4.61229 9.7583 5.28229 9.42828 6.25229 9.20828C7.20229 8.99828 8.44229 8.95828 10.1723 8.95828C11.5423 8.95828 16.9123 8.64827 23.9823 8.79827C44.0123 9.23827 55.6623 12.3683 79.5923 11.8383C80.4323 12.2683 82.9023 10.7683 83.3723 11.2983C84.3723 12.1083 110.412 11.8583 151.462 5.86828C170.682 3.05828 182.442 2.09829 196.492 1.31829C201.912 1.01829 197.652 2.05829 204.022 1.46829C216.372 0.338285 239.232 0.638272 246.632 0.548272C251.052 0.498272 254.812 0.508269 257.382 0.358269C273.132 -0.571731 266.262 0.528277 286.612 1.17828C304.212 1.73828 327.282 2.60828 330.862 2.08828C332.072 1.91828 332.972 2.04828 332.952 2.36828C333.762 2.44828 335.252 2.55828 337.642 2.74828C337.952 2.76828 362.932 4.73827 363.062 5.01827C363.272 5.34827 364.162 5.54827 365.032 5.41827C366.812 5.14827 398.102 6.64827 398.462 7.73827C399.912 12.1783 394.402 21.3383 390.962 23.4383C386.922 25.8983 366.582 20.8983 349.802 21.4683C344.702 21.1083 343.962 21.0483 337.702 20.6583C322.502 19.7183 328.142 20.0583 311.082 19.1283C271.632 16.9783 267.492 17.7783 255.742 18.2983C254.802 17.8083 252.492 18.0983 249.872 18.3283C247.252 18.5583 244.332 18.7083 242.132 17.8883C240.282 17.1983 227.102 17.0283 224.212 17.8683C224.212 17.8683 179.522 17.9483 153.342 22.9983C150.832 23.4783 149.032 23.8983 148.192 24.2483C141.892 24.2783 126.172 26.3983 110.372 27.8683C102.472 28.6083 94.5723 29.1883 87.9123 29.5883C84.0423 29.8183 79.8623 30.0083 75.5223 30.1783C67.8923 30.4683 32.2623 24.4483 12.4923 26.2783Z" fill="#FF4FBF"/>
</svg>
