<svg width="388" height="24" viewBox="0 0 388 24" fill="none" xmlns="http://www.w3.org/2000/svg">
<path d="M71.7489 19.9637C62.8489 18.0237 4.51891 23.3736 1.23891 23.1136C-2.26109 22.5336 2.44892 8.18364 5.55892 5.90364C6.65892 5.09364 7.96891 4.86365 10.9989 5.05365C14.1689 5.25365 34.9989 3.63365 77.6389 1.33365C78.4689 1.73365 80.8789 0.203647 81.3489 0.723647C81.9089 1.20365 106.079 0.473641 133.929 0.123641C156.939 -0.166359 176.619 0.123644 184.769 0.283644C188.349 0.353644 190.859 0.433647 191.929 0.473647C197.139 0.623647 192.979 1.27364 199.119 1.23364C202.389 1.21364 206.619 1.33364 211.279 1.53364C215.939 1.73364 221.009 2.04365 225.959 2.33365C235.869 2.93365 245.329 3.47365 250.209 3.32365C258.029 3.08365 259.689 3.15365 267.119 3.88365C270.929 4.26365 282.839 4.41365 294.529 3.88365C306.199 3.35365 317.669 2.57365 320.009 1.99365C321.159 1.70365 322.039 1.76365 322.049 2.07365C322.809 2.08365 324.199 2.05365 326.609 2.02365C336.809 1.92365 337.109 1.80364 346.859 2.12364C346.959 2.12364 351.509 2.30365 351.559 2.39365C351.779 2.71365 352.669 2.87364 353.509 2.67364C354.509 2.50364 363.959 2.46365 370.819 2.93365C374.499 3.18365 373.209 3.04364 376.849 3.42364C377.519 3.49364 387.099 4.56365 387.339 5.19365C388.389 7.97365 382.079 18.2936 378.569 20.3936C376.949 21.3736 372.489 20.9736 368.889 20.5836C362.249 19.8736 350.409 18.4336 339.809 19.6536C334.929 19.7136 334.189 19.7037 328.219 19.8537C243.729 21.9237 290.109 20.4836 247.989 21.2036C246.189 20.1736 238.919 22.0637 234.719 20.1837C232.949 19.3937 220.189 18.5636 217.319 19.0636C216.319 19.2336 151.649 15.3236 143.109 17.7736C128.999 15.8636 85.5989 18.9637 71.7289 19.9637H71.7489Z" fill="#FFD62F"/>
</svg>
