<svg width="379" height="24" viewBox="0 0 379 24" fill="none" xmlns="http://www.w3.org/2000/svg">
<path d="M70.8065 19.3538C63.8665 17.8338 8.24647 22.0738 1.06647 21.0738C-0.65353 20.6738 -0.0835187 16.9638 1.29648 13.0938C2.66648 9.22375 4.81647 5.20376 6.37647 4.16376C7.47647 3.43376 8.74646 3.25374 11.6465 3.61374C17.2665 4.31374 64.8565 1.40376 76.5065 0.72376C77.3165 1.12376 79.6965 -0.406241 80.1565 0.113759C80.5165 0.413759 86.9464 0.31375 96.5764 0.21375C144.076 -0.26625 136.106 3.19376 187.946 2.03376C297.226 -0.406242 216.616 -1.21625 289.656 2.83375C296.116 3.19375 304.616 3.52375 311.096 3.29375C312.616 3.23375 313.716 3.16376 314.276 3.03376C315.366 2.79376 316.196 2.89376 316.196 3.20376C316.196 3.20376 316.626 3.22376 317.376 3.25376C318.136 3.28376 319.186 3.30375 320.446 3.32375C326.266 3.40375 334.106 3.16375 340.006 3.32375C340.146 3.32375 344.676 3.45375 344.736 3.58375C344.956 3.89375 345.856 4.07375 346.726 3.90375C352.846 3.05375 367.646 6.25374 373.996 6.86374C376.476 7.10374 378.206 7.20376 378.306 7.44376C378.906 8.76376 378.346 12.1537 376.936 15.5537C370.906 30.1137 364.176 21.2337 345.106 20.4537C337.606 20.1437 327.306 22.3837 295.776 20.3337C259.756 17.9937 264.396 17.2037 243.696 18.2737C242.826 17.7737 240.706 18.1338 238.306 18.4038C235.896 18.6738 233.306 18.9038 231.186 18.1538C229.406 17.5338 216.876 17.9838 214.086 18.7138C212.876 19.0338 187.896 19.9138 154.156 19.1038C147.046 18.9338 141.686 18.7737 139.966 19.1137C120.916 15.1037 76.1365 19.0038 70.7965 19.3738L70.8065 19.3538Z" fill="#388F59"/>
</svg>
