<svg width="358" height="26" viewBox="0 0 358 26" fill="none" xmlns="http://www.w3.org/2000/svg">
<path d="M66.3095 22.9571C57.7295 20.9071 6.66954 26.3271 1.11954 25.7571C-2.12046 25.1071 2.41954 10.8471 5.27954 8.62714C6.29954 7.83714 7.49954 7.62714 10.2795 7.86714C14.4695 8.23714 41.9695 5.79714 71.8295 4.39714C72.5995 4.80714 74.8395 3.30714 75.2695 3.82714C75.6095 4.12714 81.6695 4.13714 90.6595 4.03714C97.0495 3.96714 100.38 3.88714 106.48 4.11714C112.33 4.33714 118.4 4.85714 123.96 4.95714C124.66 4.96714 131.29 4.88713 132.78 4.85713C143.69 4.64713 138.82 4.76713 157.87 4.24713C167.65 3.97713 174.9 3.75714 176.86 3.70714C181.64 3.58714 177.86 4.48714 183.48 4.07714C195.45 3.20714 221.57 3.50715 230.63 2.58715C237.89 1.84715 239.45 1.83714 246.44 2.21714C253.57 2.59714 291.49 1.45714 295.8 0.377139C296.86 0.107139 297.67 0.187134 297.67 0.497134C297.92 0.497134 324.42 0.547138 324.53 0.767138C324.74 1.07714 325.55 1.21713 326.31 0.997134C328.07 0.597134 356.3 -0.622857 356.8 0.397143C358.1 3.02714 353.98 13.9971 350.75 16.6971C347.4 19.4971 328.94 16.3371 314.02 18.2471C234.02 19.4571 248.98 18.9171 229.74 20.5871C228.03 19.6771 221.51 22.0771 217.51 20.5171C215.83 19.8571 204.02 19.9871 201.4 20.6971C199.14 21.3071 138.63 20.7871 132.34 22.6171C130.95 22.4271 129.02 22.2971 126.7 22.2171C101.35 21.3971 114.99 19.8671 66.2895 22.9671L66.3095 22.9571Z" fill="#FFFF40"/>
</svg>
