<svg width="371" height="22" viewBox="0 0 371 22" fill="none" xmlns="http://www.w3.org/2000/svg">
<path d="M68.8501 21.6695C61.2001 19.7095 5.13011 21.9995 1.05011 21.4195C-2.26989 20.6295 3.07009 6.56954 6.16009 4.49954C7.25009 3.75954 8.51011 3.63954 11.3901 3.96954C15.9501 4.59954 75.0301 3.23954 75.0301 3.23954C75.8101 3.66954 78.1501 2.19954 78.5801 2.72954C79.9401 3.95954 175.68 2.11954 183.84 2.02954C188.79 1.97954 184.87 2.82954 190.7 2.47954C203.12 1.77954 230.18 2.38954 239.58 1.59954C247.11 0.949542 248.73 0.929544 255.96 1.42954C263.35 1.86954 302.61 1.13954 307.11 0.159539C308.21 -0.110461 309.04 -0.0204613 309.05 0.299539C309.05 0.369539 336.73 0.539544 336.85 0.789544C337.06 1.09954 337.9 1.24954 338.68 1.02954C340.12 0.699542 369.59 -0.530459 370.06 0.379541C371.5 2.97954 367.43 14.0395 364 16.7395C360.5 19.6195 341.27 16.4295 325.8 18.1895L253.83 18.4795L238.4 19.5795C236.64 18.6495 229.83 21.0095 225.73 19.3495C224 18.6895 211.75 18.6095 209.03 19.3195C206.68 19.8695 143.97 18.6095 137.54 20.4995C126.09 18.9495 79.6101 21.2695 68.8301 21.6795L68.8501 21.6695Z" fill="#14C2BC"/>
</svg>
