<svg width="330" height="26" viewBox="0 0 330 26" fill="none" xmlns="http://www.w3.org/2000/svg">
<path d="M63.8435 25.7974C62.7635 25.5274 60.6635 25.4674 59.5435 25.4674C43.8735 25.4374 38.3035 22.8374 23.1535 24.1474C17.9435 24.5974 11.2935 25.2474 6.24351 24.6374C-4.13649 23.3874 0.86349 20.1674 3.97349 15.9474C9.48349 8.47737 7.24351 6.67738 12.8735 7.37738C14.6835 7.71738 23.3635 6.93738 27.4835 6.75738C35.0635 6.41738 45.1035 7.87738 52.5635 8.01738C58.3535 8.12738 60.7835 7.54738 68.5435 7.20738C69.2535 7.62738 71.3335 6.09738 71.7335 6.62738C72.0435 6.93738 77.6735 6.94737 85.8835 6.99737C145.633 7.38737 113.594 3.51737 193.044 6.33737C201.354 6.63737 209.283 6.84738 213.373 6.53738C219.923 6.03738 221.303 6.09737 227.553 6.55737C229.143 6.67737 232.464 6.69737 236.584 6.60737C250.454 6.31737 269.103 3.85738 271.553 3.00738C272.503 2.67738 273.253 2.69738 273.273 3.00738C295.013 1.75738 283.343 2.29738 296.383 1.47738C297.073 1.43738 297.473 1.42738 297.493 1.45738C297.713 1.74738 298.474 1.82738 299.154 1.53738C300.154 1.25738 314.084 -1.23263 324.674 0.77737C325.184 0.87737 329.713 1.85737 329.833 2.35737C330.333 4.40737 325.864 10.7474 323.414 14.1474C321.284 17.0974 320.663 17.4674 319.383 17.6774C317.293 18.0174 313.673 17.7274 309.633 17.7174C297.443 17.7174 292.393 19.5174 286.693 19.9874C269.073 21.4274 271.344 21.2674 257.914 22.3674C253.924 22.6974 249.894 22.9774 246.084 23.1674C244.184 23.2674 242.334 23.3474 240.584 23.3874C214.384 24.0974 237.233 22.9874 211.943 24.4874C210.413 23.5174 204.333 25.6474 200.743 23.9074C199.243 23.1774 188.453 22.6974 186.053 23.3074C185.053 23.5574 132.814 20.6974 124.174 23.9474C120.874 23.6074 87.2635 23.8574 63.8335 25.7974H63.8435Z" fill="#128B9E"/>
</svg>
