<svg width="373" height="27" viewBox="0 0 373 27" fill="none" xmlns="http://www.w3.org/2000/svg">
<path d="M68.8398 25.4511C57.3598 21.9911 2.22986 26.3511 1.22986 26.2811C-2.16014 25.7211 2.20985 11.3411 5.27985 9.05111C6.35985 8.25111 7.62987 8.02112 10.6099 8.21112C12.9599 8.37112 29.2499 7.38112 45.0199 7.12112C58.6699 6.89112 67.7399 7.14111 75.9398 7.33111C76.6898 7.80111 79.0599 6.44112 79.4599 6.98112C79.7899 7.29112 85.9299 7.65111 95.2299 7.69111C113.92 7.77111 129.58 6.50112 153.89 7.92112C161.38 8.36112 163.81 8.56111 166.23 8.66111C173.14 8.93111 181.25 8.70111 185.43 8.52111C190.28 8.31111 186.47 9.30112 192.19 8.68112C202.61 7.54112 210.66 7.24112 236.81 3.81112C244.86 2.76112 246.77 2.38112 249.97 2.23112C252.32 2.12112 254.63 2.19112 258.37 2.37112C260.28 2.46112 264.24 2.46112 269.12 2.46112C279.08 2.46112 290.99 2.43112 300.87 1.40112C304.47 1.03112 303.27 1.16112 306.47 0.741116C309.97 0.281116 311.93 -0.36888 311.95 0.26112C315.79 0.26112 320.31 0.201122 326.83 0.701122C332.61 1.14112 338.16 1.94112 340.29 2.34112C341.09 2.49112 341.55 2.58112 341.57 2.62112C341.93 3.31112 343.31 3.08111 345.29 3.30111C352.24 4.05111 360.4 5.59111 368.3 5.27111C370.55 5.18111 371.71 4.94112 371.86 5.17112C374.06 8.59112 372.23 18.8611 367.74 21.9911C364.73 24.0911 355.02 22.3711 351.42 21.6511C344.66 20.3011 342.94 19.8811 339.99 19.4111C333.77 18.4211 319.32 18.1411 317.74 18.1411C308.65 18.1011 305.67 18.8711 292.95 19.1811C261.34 19.9511 262.87 18.1011 241.42 21.2211C240.53 20.8011 238.49 21.3511 236.18 21.8411C233.79 22.3511 231.07 22.8111 228.91 22.2311C227.12 21.7511 214.73 23.0711 211.99 23.9811C211.4 24.1811 206.96 24.6611 200.45 25.1411C176.37 26.9111 163.65 25.5111 151.98 24.8611C145.29 24.4911 140.19 24.7111 138.59 25.1211C127.57 23.2311 100.02 25.6511 68.8299 25.4411L68.8398 25.4511Z" fill="#43D27D"/>
</svg>
