<svg width="363" height="24" viewBox="0 0 363 24" fill="none" xmlns="http://www.w3.org/2000/svg">
<path d="M67.1373 19.1249C58.7773 16.9549 4.67726 20.8849 1.11726 20.4849C-2.15274 19.8049 2.50727 5.5949 5.46727 3.4049C6.51727 2.6349 7.73726 2.42489 10.5773 2.70489C11.7073 2.81489 16.1673 2.67489 22.2173 2.48489C28.2773 2.28489 35.9373 1.9649 43.4473 1.6849C67.3973 0.7849 61.7573 1.0049 72.9573 0.654901C73.7273 1.0849 76.0073 -0.415107 76.4373 0.114893C77.0773 0.734893 100.967 0.284905 143.787 0.0649051C149.697 0.0349051 177.587 0.0048868 179.587 0.0148868C184.437 0.0348868 180.577 0.834893 186.297 0.614893C198.477 0.154893 224.967 1.53488 234.197 1.07488C249.897 0.294884 238.347 1.55488 276.347 2.50488C287.427 2.78488 298.167 2.9349 300.377 2.5549C301.467 2.3649 302.277 2.4849 302.267 2.8049C302.267 2.8049 302.687 2.8449 303.427 2.9049C307.297 3.1849 305.057 3.03489 315.817 3.76489C322.057 4.18489 326.487 4.5949 328.247 4.7749C328.997 4.8449 329.437 4.91488 329.447 4.94488C329.637 5.26488 330.447 5.4749 331.227 5.3049C333.227 5.0449 361.557 5.87489 361.987 6.86489C363.147 9.57489 358.317 20.2549 354.817 22.7349C351.197 25.2949 333.007 20.7849 317.597 21.6149C304.327 20.9049 308.837 21.1049 295.437 20.4449C241.077 17.7749 248.457 18.4249 232.437 19.0149C230.757 18.0049 224.057 20.1149 220.097 18.3849C218.437 17.6549 206.497 17.2649 203.817 17.8749C201.747 18.3449 141.347 15.8149 134.087 17.8549C121.387 15.9849 70.3473 19.0149 67.1173 19.1549L67.1373 19.1249Z" fill="#5C3445"/>
</svg>
