<svg width="327" height="23" viewBox="0 0 327 23" fill="none" xmlns="http://www.w3.org/2000/svg">
<path d="M61.0291 21.0402C57.6591 20.3002 42.7491 21.4002 33.7991 20.8302C25.7191 20.3202 16.2091 18.9502 9.76908 18.5102C4.89908 18.1702 1.70908 18.2802 0.929079 18.1702C-0.320921 17.8102 -0.240904 14.1002 0.759096 10.1902C1.2591 8.24023 2.00909 6.23023 2.84909 4.63023C4.92909 0.620234 6.25907 0.170218 10.4491 1.05022C11.4491 1.26022 28.4091 3.62023 37.0091 3.94023C45.3791 4.25023 57.3991 3.01023 65.1391 2.28023C65.8591 2.66023 67.8191 1.05022 68.2491 1.55022C68.5591 1.85022 74.1491 1.50022 82.5291 1.15022C123.999 -0.599776 128.069 3.62024 144.549 3.76024C149.729 3.80024 156.009 3.41022 161.069 2.96022C165.309 2.58022 162.009 3.69023 167.019 2.94023C188.049 -0.199768 205.379 0.350227 211.169 0.0602273C222.969 -0.529773 245.719 3.38022 260.289 4.58022C262.499 4.76022 267.729 4.56022 269.639 3.87022C270.499 3.55022 271.169 3.58022 271.199 3.90022C272.389 3.94022 282.039 2.85022 283.049 2.74022C289.229 2.07022 292.429 1.96022 295.019 1.93022C295.779 1.93022 296.199 1.95024 296.219 1.98024C296.429 2.29024 297.229 2.42024 297.979 2.20024C301.309 1.43024 320.589 2.32022 321.779 2.37022C324.169 2.47022 325.739 2.59024 325.839 2.82024C327.009 5.54024 323.489 16.2302 320.029 18.9902C317.319 21.1602 306.269 18.6902 297.399 18.7902C294.179 18.8302 290.919 19.2202 287.689 20.0202C256.759 23.8702 265.219 21.9802 232.439 18.5702C224.219 17.7102 221.999 17.3702 209.519 17.9802C208.029 16.9902 202.239 19.2002 198.769 17.6302C197.769 17.1802 193.329 17.2602 192.009 17.3202C188.939 17.4702 185.739 17.8702 184.589 18.2902C183.599 18.6602 162.079 20.4102 154.099 20.7202C147.459 20.9802 138.499 20.7802 131.739 19.9902C130.189 19.8102 128.729 19.6502 127.389 19.5002C126.179 19.3602 125.069 19.2702 124.089 19.2202C122.139 19.1102 120.709 19.1402 120.009 19.3002C117.669 18.6502 113.429 18.1002 108.209 17.8702C91.6791 17.1502 74.0791 19.4802 61.0091 21.0202L61.0291 21.0402Z" fill="#E35966"/>
</svg>
