<svg width="336" height="26" viewBox="0 0 336 26" fill="none" xmlns="http://www.w3.org/2000/svg">
<path d="M61.5698 21.3823C58.5298 20.6223 28.3598 20.0923 11.1798 23.3323C6.26979 24.2623 2.92977 25.3023 2.06977 25.3723C0.00977492 25.3323 -0.650231 17.5823 0.719769 11.7323C1.46977 8.55228 2.32979 7.31228 4.11979 6.76228C5.18979 6.43228 17.5698 5.08228 18.8898 4.95228C31.0298 3.79228 36.8898 4.30229 66.7298 2.83229C67.4598 3.25229 69.5798 1.7323 69.9898 2.2523C70.4598 2.7023 97.2498 2.25229 116.1 2.30229C127.65 2.34229 139.45 2.43228 148.74 2.76228C158.04 3.09228 164.92 3.31227 166.79 3.38227C171.33 3.55227 167.7 4.22229 173.05 4.15229C185.96 4.00229 208.91 6.13229 217.43 5.37229C235.98 3.72229 224.24 7.08227 270.4 2.16227C274.48 1.73227 277.54 1.37228 278.57 1.07228C279.59 0.762276 280.27 0.812294 280.31 1.12229C283.25 1.12229 295.51 0.262284 301.71 0.112284C302.95 0.0822844 304 0.0722857 304.74 0.0822857C305.48 0.0822857 305.91 0.112283 305.93 0.142283C306.14 0.452283 306.94 0.552275 307.7 0.352275C308.69 0.0922747 313.75 -0.0177009 315.37 0.00229908C317.48 0.0322991 318.05 -0.0277083 323.46 0.432292C326.87 0.722292 329.61 0.822281 331.29 0.702281C332.98 0.582281 333.76 0.392284 333.9 0.612284C335.02 2.46228 336.35 8.53227 333.83 13.8823C331.96 17.8423 329.97 18.5823 325.35 18.4323C322.09 18.3223 319.08 17.6923 314.66 17.2523C313.88 17.1723 313.07 17.1323 312.25 17.0723C310.61 16.9723 308.9 16.9323 307.16 16.9623C303.68 17.0123 300.07 17.3423 296.63 18.0023C296.63 18.0023 260.59 20.3023 216.15 23.3423C215.32 22.8523 213.29 23.1923 210.95 23.3623C208.14 23.5723 205.94 23.5023 204.21 22.6523C202.67 21.9023 191.52 21.2923 189 21.8323C187.92 22.0623 173.11 21.0923 157.83 20.3023C155.51 20.1823 128.63 18.6623 123.91 20.0723C111.79 17.9623 73.5598 20.5523 61.5498 21.3923L61.5698 21.3823Z" fill="#A33E4D"/>
</svg>
