<svg xmlns="http://www.w3.org/2000/svg" width="355" height="547" fill="none"><g transform="translate(0.28 0)"><path d="M 208.787 221.119 C 208.833 221.119 180.188 254.266 147.666 252.542 C 110.508 250.571 68.848 213.694 68.848 213.694 L 354.439 0 C 354.439 0 208.887 221.119 208.787 221.119 Z" fill="rgb(102, 165, 249)"></path><path d="M 306.326 226.312 C 306.052 226.312 306.599 226.312 306.326 226.312 C 306.052 226.312 0 547 0 547 C 0 547 94.222 333.211 94.248 333.211 C 94.222 333.211 111.614 283.915 111.588 283.915 C 111.614 283.915 306.599 226.312 306.326 226.312 Z" fill="rgb(3, 42, 94)"></path><path d="M 154.952 302.492 C 155.045 302.492 94.274 333.191 94.249 333.191 C 94.274 333.191 68.848 213.68 68.848 213.68 C 74.989 207.375 161.381 295.987 154.952 302.492 Z" fill="rgb(6, 80, 177)"></path><path d="M 306.327 226.311 C 306.6 226.311 154.86 302.512 154.952 302.512 C 141.784 301.571 191.594 219.894 208.787 221.124 C 208.685 221.124 68.848 213.7 68.848 213.7 C 68.848 213.7 306.6 226.311 306.327 226.311 Z" fill="rgb(6, 80, 177)"></path><path d="M 154.952 302.512 C 155.045 302.512 68.848 213.7 68.848 213.7 C 68.848 213.7 208.685 221.124 208.787 221.124 C 208.685 221.124 154.86 302.512 154.952 302.512 C 155.045 302.512 154.86 302.512 154.952 302.512 Z" fill="rgb(42, 131, 247)"></path><path d="M 208.787 221.119 C 208.833 221.119 180.188 254.266 147.666 252.542 C 110.508 250.571 68.848 213.694 68.848 213.694 L 354.439 0 C 354.439 0 208.887 221.119 208.787 221.119 Z" fill="rgb(102, 165, 249)"></path><path d="M 306.326 226.312 C 306.052 226.312 306.599 226.312 306.326 226.312 C 306.052 226.312 0 547 0 547 C 0 547 94.222 333.211 94.248 333.211 C 94.222 333.211 111.614 283.915 111.588 283.915 C 111.614 283.915 306.599 226.312 306.326 226.312 Z" fill="rgb(10, 34, 61)"></path><path d="M 154.952 302.492 C 155.045 302.492 94.274 333.191 94.249 333.191 C 94.274 333.191 68.848 213.68 68.848 213.68 C 74.989 207.375 161.381 295.987 154.952 302.492 Z" fill="rgb(6, 80, 177)"></path><path d="M 306.327 226.311 C 306.6 226.311 154.86 302.512 154.952 302.512 C 141.784 301.571 191.594 219.894 208.787 221.124 C 208.685 221.124 68.848 213.7 68.848 213.7 C 68.848 213.7 306.6 226.311 306.327 226.311 Z" fill="rgb(6, 80, 177)"></path><path d="M 154.952 302.512 C 155.045 302.512 68.848 213.7 68.848 213.7 C 68.848 213.7 208.685 221.124 208.787 221.124 C 208.685 221.124 154.86 302.512 154.952 302.512 C 155.045 302.512 154.86 302.512 154.952 302.512 Z" fill="rgb(42, 131, 247)"></path></g></svg>