<svg width="24" height="24" viewBox="0 0 24 24" fill="none" xmlns="http://www.w3.org/2000/svg">
<path fill-rule="evenodd" clip-rule="evenodd" d="M17.5114 6.1308C19.1442 7.65034 20.0622 9.78706 20.0622 11.9999V13.8749C20.0622 15.2246 18.9743 16.3124 17.6247 16.3124C16.5739 16.3124 15.6931 15.6562 15.3376 14.7187C14.5505 15.6933 13.3493 16.3124 11.9997 16.3124C9.61884 16.3124 7.6872 14.3808 7.6872 11.9999C7.6872 9.61909 9.61884 7.68745 11.9997 7.68745C14.3806 7.68745 16.3122 9.61909 16.3122 11.9999V13.8749C16.3122 14.6054 16.8942 15.1874 17.6247 15.1874C18.3552 15.1874 18.9372 14.6054 18.9372 13.8749V11.9999C18.9372 10.0507 18.1501 8.26948 16.7438 6.93745C15.3376 5.62495 13.4997 4.94916 11.5681 5.06245C8.08173 5.28705 5.30634 8.06245 5.08173 11.5507C4.94891 13.4999 5.6247 15.3378 6.9372 16.7441C8.26923 18.1679 10.0681 18.9374 11.9997 18.9374C12.3181 18.9374 12.5622 19.1816 12.5622 19.4999C12.5622 19.8183 12.3181 20.0624 11.9997 20.0624C9.78681 20.0624 7.65009 19.1445 6.11298 17.5312C4.57391 15.8808 3.80634 13.7441 3.9372 11.4941C4.19891 7.4433 7.42548 4.19916 11.4743 3.95698C13.7243 3.82416 15.8806 4.59369 17.5114 6.1308ZM8.8122 11.9999C8.8122 13.7617 10.238 15.1874 11.9997 15.1874C13.7614 15.1874 15.1872 13.7617 15.1872 11.9999C15.1872 10.2382 13.7614 8.81245 11.9997 8.81245C10.238 8.81245 8.8122 10.2382 8.8122 11.9999Z" fill="black"/>
</svg>
