<svg width="24" height="24" viewBox="0 0 24 24" fill="none" xmlns="http://www.w3.org/2000/svg">
<path d="M0.739998 4.07002H11.84C12.1475 4.07002 12.395 3.82252 12.395 3.51502C12.395 3.20752 12.1475 2.96002 11.84 2.96002H0.739998C0.432498 2.96002 0.184998 3.20752 0.184998 3.51502C0.184998 3.82252 0.432498 4.07002 0.739998 4.07002Z" fill="black"/>
<path d="M0.739998 9.62002H11.84C12.1475 9.62002 12.395 9.37252 12.395 9.06502C12.395 8.75752 12.1475 8.51002 11.84 8.51002H0.739998C0.432498 8.51002 0.184998 8.75752 0.184998 9.06502C0.184998 9.37252 0.432498 9.62002 0.739998 9.62002Z" fill="black"/>
<path d="M0.739998 15.17H11.84C12.1475 15.17 12.395 14.9225 12.395 14.615C12.395 14.3075 12.1475 14.06 11.84 14.06H0.739998C0.432498 14.06 0.184998 14.3075 0.184998 14.615C0.184998 14.9225 0.432498 15.17 0.739998 15.17Z" fill="black"/>
<path d="M0.739998 20.72H11.84C12.1475 20.72 12.395 20.4725 12.395 20.165C12.395 19.8575 12.1475 19.61 11.84 19.61H0.739998C0.432498 19.61 0.184998 19.8575 0.184998 20.165C0.184998 20.4725 0.432498 20.72 0.739998 20.72Z" fill="black"/>
<path d="M20.165 2.96002C19.955 2.96002 19.7625 3.07752 19.67 3.26752L16.895 8.81752C16.7575 9.09002 16.8675 9.42502 17.1425 9.56002C17.415 9.69752 17.75 9.58752 17.8875 9.31252L18.38 8.32502H21.9475L22.4425 9.31252C22.54 9.50752 22.7375 9.62002 22.94 9.62002C23.0225 9.62002 23.1075 9.60252 23.1875 9.56002C23.4625 9.42502 23.5725 9.09002 23.435 8.81752L20.66 3.26752C20.5675 3.07752 20.375 2.96002 20.165 2.96002ZM18.935 7.21502L20.165 4.75752L21.395 7.21502H18.935Z" fill="black"/>
<path d="M22.94 19.61H18.73L23.3325 15.0075C23.4925 14.8475 23.54 14.61 23.4525 14.4025C23.3675 14.195 23.165 14.06 22.94 14.06H17.39C17.0825 14.06 16.835 14.3075 16.835 14.615C16.835 14.9225 17.0825 15.17 17.39 15.17H21.6L16.9975 19.7725C16.8375 19.9325 16.79 20.17 16.8775 20.3775C16.9625 20.585 17.165 20.72 17.39 20.72H22.94C23.2475 20.72 23.495 20.4725 23.495 20.165C23.495 19.8575 23.2475 19.61 22.94 19.61Z" fill="black"/>
</svg>
