<?xml version="1.0" encoding="UTF-8"?>
<svg xmlns="http://www.w3.org/2000/svg" xmlns:xlink="http://www.w3.org/1999/xlink" width="37.5pt" height="37.5pt" viewBox="0 0 37.5 37.5" version="1.1">
<g id="surface4140">
<path style=" stroke:none;fill-rule:nonzero;fill:rgb(0%,0%,0%);fill-opacity:1;" d="M 18.5 0.289062 C 16.269531 0.289062 14.453125 2.105469 14.453125 4.335938 L 14.453125 26.882812 C 14.453125 29.113281 16.269531 30.929688 18.5 30.929688 C 20.730469 30.929688 22.546875 29.113281 22.546875 26.882812 L 22.546875 4.335938 C 22.546875 2.105469 20.730469 0.289062 18.5 0.289062 Z M 18.5 2.023438 C 19.773438 2.023438 20.8125 3.0625 20.8125 4.335938 L 20.8125 26.882812 C 20.8125 28.15625 19.773438 29.195312 18.5 29.195312 C 17.226562 29.195312 16.1875 28.15625 16.1875 26.882812 L 16.1875 4.335938 C 16.1875 3.0625 17.226562 2.023438 18.5 2.023438 Z M 31.21875 8.960938 C 28.988281 8.960938 27.171875 10.777344 27.171875 13.007812 L 27.171875 29.773438 C 27.171875 30.253906 27.558594 30.640625 28.039062 30.640625 C 28.519531 30.640625 28.90625 30.253906 28.90625 29.773438 L 28.90625 13.007812 C 28.90625 11.734375 29.945312 10.695312 31.21875 10.695312 C 32.492188 10.695312 33.53125 11.734375 33.53125 13.007812 L 33.53125 32.375 C 33.53125 33.648438 32.492188 34.6875 31.21875 34.6875 L 2.601562 34.6875 C 2.121094 34.6875 1.734375 35.074219 1.734375 35.554688 C 1.734375 36.035156 2.121094 36.421875 2.601562 36.421875 L 31.21875 36.421875 C 33.449219 36.421875 35.265625 34.605469 35.265625 32.375 L 35.265625 13.007812 C 35.265625 10.777344 33.449219 8.960938 31.21875 8.960938 Z M 5.78125 17.632812 C 3.550781 17.632812 1.734375 19.449219 1.734375 21.679688 L 1.734375 26.882812 C 1.734375 29.113281 3.550781 30.929688 5.78125 30.929688 C 8.011719 30.929688 9.828125 29.113281 9.828125 26.882812 L 9.828125 21.679688 C 9.828125 19.449219 8.011719 17.632812 5.78125 17.632812 Z M 5.78125 19.367188 C 7.054688 19.367188 8.09375 20.40625 8.09375 21.679688 L 8.09375 26.882812 C 8.09375 28.15625 7.054688 29.195312 5.78125 29.195312 C 4.507812 29.195312 3.46875 28.15625 3.46875 26.882812 L 3.46875 21.679688 C 3.46875 20.40625 4.507812 19.367188 5.78125 19.367188 Z M 5.78125 19.367188 "/>
</g>
</svg>
