<svg width="24" height="24" viewBox="0 0 24 24" fill="none" xmlns="http://www.w3.org/2000/svg">
<path fill-rule="evenodd" clip-rule="evenodd" d="M4.125 17.25C3.80664 17.25 3.5625 17.0059 3.5625 16.6875V3.5625C3.5625 2.21289 4.65039 1.125 6 1.125H16.125C18.5059 1.125 20.4375 3.05664 20.4375 5.4375C20.4375 6 19.8945 6 19.5742 6H18C16.6504 6 15.5625 4.91211 15.5625 3.5625V2.25H6C5.26953 2.25 4.6875 2.83203 4.6875 3.5625V16.6875C4.6875 17.0059 4.44336 17.25 4.125 17.25ZM16.6875 3.5625C16.6875 4.29297 17.2695 4.875 18 4.875H19.2559C19.0313 3.5625 18 2.53125 16.6875 2.30664V3.5625Z" fill="black"/>
<path d="M20.4375 8.0625C20.4375 7.74414 20.1934 7.5 19.875 7.5C19.5566 7.5 19.3125 7.74414 19.3125 8.0625V16.6875C19.3125 17.0059 19.5566 17.25 19.875 17.25C20.1934 17.25 20.4375 17.0059 20.4375 16.6875V8.0625Z" fill="black"/>
<path d="M12.5625 15.75C12.5625 16.0684 12.3184 16.3125 12 16.3125C11.6816 16.3125 11.4375 16.0684 11.4375 15.75V10.5H9.75C9.43164 10.5 9.1875 10.2559 9.1875 9.9375C9.1875 9.61914 9.43164 9.375 9.75 9.375H14.25C14.5684 9.375 14.8125 9.61914 14.8125 9.9375C14.8125 10.2559 14.5684 10.5 14.25 10.5H12.5625V15.75Z" fill="black"/>
<path d="M6.9375 20.0625C6.61914 20.0625 6.375 19.8184 6.375 19.5C6.375 19.1816 6.61914 18.9375 6.9375 18.9375H17.0625C17.3809 18.9375 17.625 19.1816 17.625 19.5C17.625 19.8184 17.3809 20.0625 17.0625 20.0625H6.9375Z" fill="black"/>
<path d="M17.625 22.3125C17.625 21.9941 17.3809 21.75 17.0625 21.75H16.3125C15.9941 21.75 15.75 21.9941 15.75 22.3125C15.75 22.6309 15.9941 22.875 16.3125 22.875H17.0625C17.3809 22.875 17.625 22.6309 17.625 22.3125Z" fill="black"/>
<path d="M13.875 22.3125C13.875 22.6309 13.6309 22.875 13.3125 22.875H6.9375C6.61914 22.875 6.375 22.6309 6.375 22.3125C6.375 21.9941 6.61914 21.75 6.9375 21.75H13.3125C13.6309 21.75 13.875 21.9941 13.875 22.3125Z" fill="black"/>
</svg>
