<svg width="24" height="24" viewBox="0 0 24 24" fill="none" xmlns="http://www.w3.org/2000/svg">
<path d="M15.1875 19.9883C15.1875 21.3379 16.2754 22.4258 17.625 22.4258C18.9746 22.4258 20.0625 21.3379 20.0625 20.0059V18.5996C20.3809 18.5996 20.625 18.3555 20.625 18.0371C20.625 17.7188 20.3809 17.4746 20.0625 17.4746H19.503L19.5 17.4746L19.497 17.4746H18.9375C18.6191 17.4746 18.375 17.7188 18.375 18.0371C18.375 18.3555 18.6191 18.5996 18.9375 18.5996V19.9883C18.9375 20.7188 18.3555 21.3008 17.625 21.3008C16.8945 21.3008 16.3125 20.7188 16.3125 19.9883V4.94922C16.3125 3.59961 15.2246 2.51172 13.875 2.51172C12.5254 2.51172 11.4375 3.59961 11.4375 4.94922V19.9492C11.4375 20.6816 10.8555 21.2617 10.125 21.2617C9.39453 21.2617 8.8125 20.6816 8.8125 19.9492V4.94922C8.8125 3.59961 7.72461 2.51172 6.375 2.51172C5.02539 2.51172 3.9375 3.59961 3.9375 4.94922V6.59962C3.61914 6.59962 3.375 6.84376 3.375 7.16212C3.375 7.48048 3.61914 7.72462 3.9375 7.72462H5.0625C5.38086 7.72462 5.625 7.48048 5.625 7.16212C5.625 6.84376 5.38086 6.59962 5.0625 6.59962V4.94922C5.0625 4.21875 5.64453 3.63672 6.375 3.63672C7.10547 3.63672 7.6875 4.21875 7.6875 4.94922V19.9492C7.6875 21.3008 8.77539 22.3867 10.125 22.3867C11.4746 22.3867 12.5625 21.3008 12.5625 19.9492V4.94922C12.5625 4.21875 13.1445 3.63672 13.875 3.63672C14.6055 3.63672 15.1875 4.21875 15.1875 4.94922V19.9883Z" fill="black"/>
<path d="M19.1055 4.9121C19.1992 5.02538 19.3496 5.08202 19.5 5.08202C19.6504 5.08202 19.8008 5.02538 19.8945 4.9121C20.0059 4.81835 20.0625 4.66796 20.0625 4.51952C20.0625 4.36913 20.0059 4.23827 19.8945 4.12499C19.6875 3.91796 19.3125 3.91796 19.1055 4.12499C18.9941 4.21874 18.9375 4.36913 18.9375 4.51952C18.9375 4.66796 18.9941 4.80077 19.1055 4.9121Z" fill="black"/>
<path d="M6 8.66212C6 8.98048 5.75586 9.22462 5.4375 9.22462H3.5625C3.24414 9.22462 3 8.98048 3 8.66212C3 8.34376 3.24414 8.09962 3.5625 8.09962H5.4375C5.75586 8.09962 6 8.34376 6 8.66212Z" fill="black"/>
<path d="M4.5 18.2246C4.81836 18.2246 5.0625 17.9805 5.0625 17.6621V16.3496H5.4375C5.75586 16.3496 6 16.1055 6 15.7871V10.1621C6 9.84376 5.75586 9.59962 5.4375 9.59962H3.5625C3.24414 9.59962 3 9.84376 3 10.1621V15.7871C3 16.1055 3.24414 16.3496 3.5625 16.3496H3.9375V17.6621C3.9375 17.9805 4.18164 18.2246 4.5 18.2246Z" fill="black"/>
<path d="M4.5 21.2246C4.34961 21.2246 4.19922 21.168 4.10547 21.0566C3.99414 20.9629 3.9375 20.8125 3.9375 20.6621C3.9375 20.5117 3.99414 20.3633 4.10547 20.2695C4.3125 20.0625 4.6875 20.0625 4.89453 20.2695C5.00586 20.3809 5.0625 20.5117 5.0625 20.6621C5.0625 20.8125 5.00586 20.9629 4.89453 21.0566C4.80078 21.168 4.65039 21.2246 4.5 21.2246Z" fill="black"/>
<path d="M4.10547 19.5566C4.19922 19.668 4.34961 19.7246 4.5 19.7246C4.65039 19.7246 4.80078 19.668 4.89453 19.5566C5.00586 19.4629 5.0625 19.3125 5.0625 19.1621C5.0625 19.0117 5.00586 18.8809 4.89453 18.7695C4.6875 18.5625 4.3125 18.5625 4.10547 18.7695C3.99414 18.8633 3.9375 19.0117 3.9375 19.1621C3.9375 19.3125 3.99414 19.4434 4.10547 19.5566Z" fill="black"/>
<path d="M21 9.41212C21 9.09376 20.7559 8.84962 20.4375 8.84962H20.0625V7.53712C20.0625 7.21876 19.8184 6.97462 19.5 6.97462C19.1816 6.97462 18.9375 7.21876 18.9375 7.53712V8.84962H18.5625C18.2441 8.84962 18 9.09376 18 9.41212V15.0371C18 15.3555 18.2441 15.5996 18.5625 15.5996H20.4375C20.7559 15.5996 21 15.3379 21 15.0371V9.41212Z" fill="black"/>
<path d="M19.5 6.58202C19.3496 6.58202 19.1992 6.52538 19.1055 6.4121C18.9941 6.30077 18.9375 6.16796 18.9375 6.01952C18.9375 5.86913 18.9941 5.71874 19.1055 5.62499C19.3125 5.41796 19.6875 5.41796 19.8945 5.62499C20.0059 5.73827 20.0625 5.86913 20.0625 6.01952C20.0625 6.16796 20.0059 6.31835 19.8945 6.4121C19.8008 6.52538 19.6504 6.58202 19.5 6.58202Z" fill="black"/>
<path d="M18 16.5371C18 16.8555 18.2441 17.0996 18.5625 17.0996H20.4375C20.7559 17.0996 21 16.8555 21 16.5371C21 16.2188 20.7559 15.9746 20.4375 15.9746H18.5625C18.2441 15.9746 18 16.2188 18 16.5371Z" fill="black"/>
</svg>
