<svg width="24" height="24" viewBox="0 0 24 24" fill="none" xmlns="http://www.w3.org/2000/svg">
<g clip-path="url(#clip0_12940_62953)">
<path d="M20.4375 23.25C20.4375 23.5605 20.1855 23.8125 19.875 23.8125C19.5645 23.8125 19.3125 23.5605 19.3125 23.25C19.3125 22.9395 19.5645 22.6875 19.875 22.6875C20.1855 22.6875 20.4375 22.9395 20.4375 23.25Z" fill="black"/>
<path d="M7.6875 23.8125H17.0625C17.3809 23.8125 17.625 23.5684 17.625 23.25C17.625 22.9316 17.3809 22.6875 17.0625 22.6875H11.625C13.7617 21.3555 15.1875 18.9941 15.1875 16.3125C15.1875 13.7617 13.9121 11.4004 11.7559 10.0117C11.4941 9.84375 11.1563 9.91797 10.9883 10.1816C10.8184 10.4434 10.8945 10.7812 11.1562 10.9492C12.9746 12.1504 14.0625 14.1367 14.0625 16.3125C14.0625 19.8184 11.1934 22.6875 7.6875 22.6875C4.18164 22.6875 1.3125 19.8184 1.3125 16.3125C1.3125 12.8242 4.14453 9.95703 7.65039 9.9375C7.96875 9.9375 8.21289 9.67578 8.21289 9.375C8.21289 9.05664 7.94922 8.8125 7.65039 8.8125C3.52539 8.84961 0.1875 12.207 0.1875 16.3125C0.1875 20.457 3.54297 23.8125 7.6875 23.8125Z" fill="black"/>
<path d="M23.793 15.9746C23.6445 14.8125 22.7246 13.875 21.582 13.707C21.0195 13.6309 20.4941 13.7246 20.0254 13.9492C19.9492 13.9883 19.8555 13.9688 19.8008 13.9121L12.4316 5.40039C12.375 5.34375 12.4121 5.25 12.5059 5.25H23.2305C23.5312 5.25 23.8125 5.02539 23.832 4.72461C23.8496 4.40625 23.5879 4.125 23.2695 4.125H11.793C11.6992 4.125 11.6055 4.05078 11.6055 3.9375L11.5684 0.75C11.5684 0.449219 11.3066 0.1875 11.0059 0.1875H7.91211C6.26172 0.1875 4.76172 1.51953 4.65039 3.16797C4.53711 5.00586 6 6.54297 7.81836 6.5625C8.09961 6.5625 8.34375 6.375 8.40039 6.09375C8.45703 5.73828 8.19336 5.4375 7.83789 5.4375C6.63672 5.4375 5.66211 4.40625 5.79297 3.16797C5.88672 2.09961 6.82422 1.3125 7.89453 1.3125H10.2559C10.3496 1.3125 10.4434 1.38672 10.4434 1.5L10.5 4.55664C10.5 4.59375 10.5 4.63086 10.4805 4.66797L7.16211 16.125C7.08789 16.4062 7.21875 16.7246 7.48047 16.8379C7.55664 16.8555 7.63086 16.875 7.6875 16.875C7.93164 16.875 8.15625 16.707 8.23047 16.4629L11.2695 6C11.2871 5.92578 11.3809 5.90625 11.4375 5.96289L18.9746 14.6621C19.0312 14.7188 19.0312 14.8125 18.9941 14.8867C18.6562 15.4121 18.5059 16.0508 18.6191 16.7246C18.8066 17.8496 19.7441 18.75 20.8691 18.9004C22.5566 19.125 24 17.6816 23.793 15.9746ZM19.6875 16.3125C19.6875 15.4883 20.3633 14.8125 21.1875 14.8125C22.0117 14.8125 22.6875 15.4883 22.6875 16.3125C22.6875 17.1367 22.0117 17.8125 21.1875 17.8125C20.3633 17.8125 19.6875 17.1367 19.6875 16.3125Z" fill="black"/>
</g>
<defs>
<clipPath id="clip0_12940_62953">
<rect width="24" height="24" fill="black"/>
</clipPath>
</defs>
</svg>
