<svg width="24" height="24" viewBox="0 0 24 24" fill="none" xmlns="http://www.w3.org/2000/svg">
<path d="M1.21875 14.8125C1.21875 15.8071 1.61384 16.7609 2.3171 17.4642C3.02036 18.1674 3.97419 18.5625 4.96875 18.5625C5.96331 18.5625 6.91714 18.1674 7.6204 17.4642C8.32366 16.7609 8.71875 15.8071 8.71875 14.8125C8.71875 13.8179 8.32366 12.8641 7.6204 12.1608C6.91714 11.4576 5.96331 11.0625 4.96875 11.0625C3.97419 11.0625 3.02036 11.4576 2.3171 12.1608C1.61384 12.8641 1.21875 13.8179 1.21875 14.8125Z" stroke="black" stroke-linecap="round" stroke-linejoin="round"/>
<path d="M15.2812 14.8125C15.2812 15.8071 15.6763 16.7609 16.3796 17.4642C17.0829 18.1674 18.0367 18.5625 19.0312 18.5625C20.0258 18.5625 20.9796 18.1674 21.6829 17.4642C22.3862 16.7609 22.7812 15.8071 22.7812 14.8125C22.7812 13.8179 22.3862 12.8641 21.6829 12.1608C20.9796 11.4576 20.0258 11.0625 19.0312 11.0625C18.0367 11.0625 17.0829 11.4576 16.3796 12.1608C15.6763 12.8641 15.2812 13.8179 15.2812 14.8125Z" stroke="black" stroke-linecap="round" stroke-linejoin="round"/>
<path d="M11.0625 14.8135L16.6875 9.18752H8.71875L4.96875 14.8125L11.0625 14.8135ZM11.0625 14.8135L7.25344 5.73096" stroke="black" stroke-linecap="round" stroke-linejoin="round"/>
<path d="M19.0314 14.8127L18.1436 14.5127L16.1251 7.04267C16.1051 6.96871 16.1036 6.89098 16.1206 6.81628C16.1376 6.74158 16.1727 6.67219 16.2227 6.61419C16.2728 6.55618 16.3363 6.51133 16.4077 6.48355C16.4791 6.45578 16.5562 6.44592 16.6323 6.45486L18.9001 6.71923C19.1464 6.75466 19.3685 6.88648 19.5176 7.08568C19.6667 7.28488 19.7305 7.53514 19.6951 7.78142C19.6597 8.0277 19.5279 8.24982 19.3287 8.39891C19.1295 8.548 18.8792 8.61185 18.6329 8.57642" stroke="black" stroke-linecap="round" stroke-linejoin="round"/>
<path d="M6.375 5.4375L9.1875 6.375" stroke="black" stroke-linecap="round" stroke-linejoin="round"/>
</svg>
