<?xml version="1.0" encoding="UTF-8"?>
<svg xmlns="http://www.w3.org/2000/svg" xmlns:xlink="http://www.w3.org/1999/xlink" width="37.5pt" height="37.5pt" viewBox="0 0 37.5 37.5" version="1.1">
<g id="surface4860">
<path style=" stroke:none;fill-rule:nonzero;fill:rgb(0%,0%,0%);fill-opacity:1;" d="M 19.078125 10.984375 C 18.585938 10.984375 18.210938 11.359375 18.210938 11.851562 C 18.210938 12.34375 18.585938 12.71875 19.078125 12.71875 L 21.246094 12.71875 C 22.027344 12.71875 22.71875 13.179688 23.007812 13.902344 L 24.859375 19.136719 C 24.773438 19.195312 24.714844 19.25 24.65625 19.339844 L 18.992188 27.289062 C 18.644531 27.75 18.183594 28.125 17.660156 28.355469 L 17.054688 26.535156 C 16.910156 26.074219 16.417969 25.84375 15.957031 25.988281 C 15.492188 26.132812 15.261719 26.621094 15.40625 27.085938 L 15.925781 28.617188 L 14.683594 28.617188 C 14.25 25.03125 11.214844 22.257812 7.515625 22.257812 C 3.527344 22.257812 0.289062 25.496094 0.289062 29.484375 C 0.289062 33.472656 3.527344 36.710938 7.515625 36.710938 C 11.214844 36.710938 14.25 33.9375 14.683594 30.351562 L 16.503906 30.351562 L 17.054688 32.027344 C 17.171875 32.402344 17.515625 32.636719 17.863281 32.636719 C 17.949219 32.636719 18.039062 32.636719 18.125 32.578125 C 18.585938 32.433594 18.816406 31.941406 18.671875 31.480469 L 18.183594 30.003906 C 19.050781 29.65625 19.800781 29.078125 20.378906 28.300781 L 25.523438 21.074219 L 26.21875 23.007812 C 23.875 24.222656 22.257812 26.652344 22.257812 29.484375 C 22.257812 33.472656 25.496094 36.710938 29.484375 36.710938 C 33.472656 36.710938 36.710938 33.472656 36.710938 29.484375 C 36.710938 25.496094 33.472656 22.257812 29.484375 22.257812 C 28.933594 22.257812 28.414062 22.316406 27.894531 22.429688 L 27.289062 20.695312 L 31.882812 20.695312 C 33.761719 20.695312 35.351562 19.28125 35.613281 17.429688 L 36.160156 13.125 C 36.191406 12.863281 36.105469 12.632812 35.960938 12.429688 C 35.816406 12.226562 35.554688 12.140625 35.324219 12.140625 L 27.171875 12.140625 C 26.679688 12.140625 26.304688 12.515625 26.304688 13.007812 C 26.304688 13.5 26.679688 13.875 27.171875 13.875 L 34.28125 13.875 L 33.878906 17.226562 C 33.734375 18.238281 32.894531 18.992188 31.882812 18.992188 L 26.679688 18.992188 L 24.65625 13.296875 C 24.109375 11.910156 22.777344 10.984375 21.273438 10.984375 Z M 10.984375 16.476562 C 10.492188 16.476562 10.117188 16.851562 10.117188 17.34375 C 10.117188 17.835938 10.492188 18.210938 10.984375 18.210938 L 12.488281 18.210938 L 14.222656 23.386719 C 14.335938 23.761719 14.683594 23.992188 15.03125 23.992188 C 15.117188 23.992188 15.203125 23.992188 15.292969 23.933594 C 15.753906 23.789062 15.984375 23.296875 15.839844 22.835938 L 14.308594 18.210938 L 16.070312 18.210938 C 16.5625 18.210938 16.9375 17.835938 16.9375 17.34375 C 16.9375 16.851562 16.5625 16.476562 16.070312 16.476562 Z M 7.515625 23.992188 C 10.261719 23.992188 12.515625 25.988281 12.921875 28.617188 L 7.515625 28.617188 C 7.023438 28.617188 6.648438 28.992188 6.648438 29.484375 C 6.648438 29.976562 7.023438 30.351562 7.515625 30.351562 L 12.921875 30.351562 C 12.515625 32.980469 10.234375 34.976562 7.515625 34.976562 C 4.480469 34.976562 2.023438 32.519531 2.023438 29.484375 C 2.023438 26.449219 4.480469 23.992188 7.515625 23.992188 Z M 29.484375 23.992188 C 32.519531 23.992188 34.976562 26.449219 34.976562 29.484375 C 34.976562 32.519531 32.519531 34.976562 29.484375 34.976562 C 26.449219 34.976562 23.992188 32.519531 23.992188 29.484375 C 23.992188 27.402344 25.148438 25.609375 26.855469 24.65625 L 28.675781 29.773438 C 28.789062 30.121094 29.136719 30.351562 29.484375 30.351562 C 29.570312 30.351562 29.6875 30.324219 29.773438 30.292969 C 30.234375 30.121094 30.46875 29.628906 30.292969 29.195312 L 28.472656 24.078125 C 28.789062 24.019531 29.136719 23.992188 29.484375 23.992188 Z M 29.484375 23.992188 "/>
</g>
</svg>
