<?xml version="1.0" encoding="UTF-8"?>
<svg xmlns="http://www.w3.org/2000/svg" xmlns:xlink="http://www.w3.org/1999/xlink" width="37.5pt" height="37.5pt" viewBox="0 0 37.5 37.5" version="1.1">
<g id="surface4908">
<path style=" stroke:none;fill-rule:nonzero;fill:rgb(0%,0%,0%);fill-opacity:1;" d="M 16.476562 6.070312 C 16.476562 3.996094 14.792969 2.3125 12.71875 2.3125 L 5.78125 2.3125 C 3.707031 2.3125 2.023438 3.996094 2.023438 6.070312 L 2.023438 13.007812 C 2.023438 15.082031 3.707031 16.765625 5.78125 16.765625 L 12.71875 16.765625 C 14.792969 16.765625 16.476562 15.082031 16.476562 13.007812 Z M 14.742188 13.007812 C 14.742188 14.125 13.835938 15.03125 12.71875 15.03125 L 5.78125 15.03125 C 4.664062 15.03125 3.757812 14.125 3.757812 13.007812 L 3.757812 6.070312 C 3.757812 4.953125 4.664062 4.046875 5.78125 4.046875 L 12.71875 4.046875 C 13.835938 4.046875 14.742188 4.953125 14.742188 6.070312 Z M 31.21875 16.765625 C 33.292969 16.765625 34.976562 15.082031 34.976562 13.007812 L 34.976562 6.070312 C 34.976562 3.996094 33.292969 2.3125 31.21875 2.3125 L 24.28125 2.3125 C 22.207031 2.3125 20.523438 3.996094 20.523438 6.070312 L 20.523438 13.007812 C 20.523438 15.082031 22.207031 16.765625 24.28125 16.765625 Z M 22.257812 13.007812 L 22.257812 6.070312 C 22.257812 4.953125 23.164062 4.046875 24.28125 4.046875 L 31.21875 4.046875 C 32.335938 4.046875 33.242188 4.953125 33.242188 6.070312 L 33.242188 13.007812 C 33.242188 14.125 32.335938 15.03125 31.21875 15.03125 L 24.28125 15.03125 C 23.164062 15.03125 22.257812 14.125 22.257812 13.007812 Z M 12.71875 20.8125 L 5.78125 20.8125 C 3.707031 20.8125 2.023438 22.496094 2.023438 24.570312 L 2.023438 31.507812 C 2.023438 33.582031 3.707031 35.265625 5.78125 35.265625 L 12.71875 35.265625 C 14.792969 35.265625 16.476562 33.582031 16.476562 31.507812 L 16.476562 24.570312 C 16.476562 22.496094 14.792969 20.8125 12.71875 20.8125 Z M 14.742188 31.507812 C 14.742188 32.625 13.835938 33.53125 12.71875 33.53125 L 5.78125 33.53125 C 4.664062 33.53125 3.757812 32.625 3.757812 31.507812 L 3.757812 24.570312 C 3.757812 23.453125 4.664062 22.546875 5.78125 22.546875 L 12.71875 22.546875 C 13.835938 22.546875 14.742188 23.453125 14.742188 24.570312 Z M 22.019531 33.644531 L 28.535156 36.015625 C 28.957031 36.171875 29.390625 36.246094 29.824219 36.246094 C 30.363281 36.246094 30.902344 36.128906 31.410156 35.894531 C 32.320312 35.46875 33.007812 34.714844 33.351562 33.769531 L 35.726562 27.253906 C 36.070312 26.308594 36.023438 25.289062 35.601562 24.378906 C 35.175781 23.46875 34.425781 22.78125 33.480469 22.4375 L 26.960938 20.0625 C 26.019531 19.71875 25 19.761719 24.085938 20.183594 C 23.175781 20.609375 22.488281 21.363281 22.144531 22.308594 L 19.773438 28.828125 C 19.429688 29.769531 19.472656 30.789062 19.894531 31.703125 C 20.320312 32.609375 21.074219 33.300781 22.019531 33.644531 Z M 21.402344 29.421875 L 23.773438 22.902344 C 23.960938 22.394531 24.332031 21.988281 24.820312 21.761719 C 25.09375 21.632812 25.386719 21.570312 25.675781 21.570312 C 25.910156 21.570312 26.144531 21.609375 26.367188 21.695312 L 32.886719 24.066406 C 33.394531 24.253906 33.800781 24.621094 34.027344 25.113281 C 34.257812 25.601562 34.28125 26.15625 34.09375 26.660156 L 31.722656 33.179688 C 31.535156 33.6875 31.167969 34.09375 30.675781 34.320312 C 30.1875 34.546875 29.632812 34.570312 29.128906 34.386719 L 22.609375 32.015625 C 22.101562 31.828125 21.695312 31.457031 21.46875 30.96875 C 21.242188 30.480469 21.21875 29.929688 21.402344 29.421875 Z M 21.402344 29.421875 "/>
</g>
</svg>
