<svg width="32" height="32" viewBox="0 0 32 32" fill="none" xmlns="http://www.w3.org/2000/svg">
<g clip-path="url(#clip0_3080_19)">
<mask id="mask0_3080_19" style="mask-type:luminance" maskUnits="userSpaceOnUse" x="0" y="0" width="32" height="32">
<path d="M32 0H0V32H32V0Z" fill="white" style="fill:white;fill-opacity:1;"/>
</mask>
<g mask="url(#mask0_3080_19)">
<path d="M5.25 3C5.25 1.42448 6.375 0.25 8 0.25H28.5C28.9245 0.25 29.25 0.575521 29.25 1V6C29.25 6.42448 28.9245 6.75 28.5 6.75H8.5C7.52604 6.75 6.75 7.52604 6.75 8.5C6.75 9.47396 7.52604 10.25 8.5 10.25H28.5C28.9245 10.25 29.25 10.5755 29.25 11C29.25 11.4245 28.9245 11.75 28.5 11.75H8.5C6.70052 11.75 5.25 10.2995 5.25 8.5V3Z" fill="black" style="fill:black;fill-opacity:1;"/>
<path d="M27.776 20.2757L28.0755 20.1507C28.75 19.8747 29.5 19.8747 30.1745 20.1247C30.849 20.4007 31.401 20.9242 31.6745 21.5987C31.974 22.2757 31.974 23.0257 31.7005 23.7002C31.4245 24.3747 30.901 24.9242 30.224 25.2002L16.125 31.1507C15.401 31.4502 14.625 31.5987 13.875 31.5987C13 31.5987 12.151 31.4242 11.349 31.0257L5.40104 28.1247C5.02604 27.9502 4.875 27.4997 5.04948 27.1247C5.22396 26.7497 5.67448 26.5987 6.04948 26.7757L12 29.6742C13.099 30.2237 14.401 30.2497 15.526 29.7757L29.625 23.8252C29.9245 23.7002 30.1745 23.4502 30.2995 23.1507C30.4245 22.8487 30.4245 22.4997 30.2995 22.2002C30.1745 21.9007 29.9245 21.6507 29.625 21.5257C29.3255 21.4007 28.974 21.4007 28.6745 21.5257C28.6745 21.5257 18.8255 25.7237 18.724 25.7497C18.0495 26.0257 17.2995 25.9997 16.625 25.7002L11.625 23.4737C11.25 23.2992 11.0755 22.8487 11.25 22.4737C11.4245 22.0987 11.875 21.9242 12.25 22.0987L17.25 24.3252C17.5495 24.4502 17.901 24.4737 18.2005 24.3487C18.5 24.2237 18.75 23.9997 18.875 23.7002C19 23.4007 19.026 23.0492 18.901 22.7497C18.7995 22.4242 18.5495 22.1742 18.25 22.0492L11.7995 19.1507C9.52604 18.1507 6.92448 18.4502 4.95052 19.9502L4 20.6742V29.1247C4 29.5492 3.67448 29.8747 3.25 29.8747H1C0.575521 29.8747 0.25 29.5492 0.25 29.1247C0.25 28.7002 0.575521 28.3747 1 28.3747H2.52604V20.3747C2.52604 20.1742 2.59896 19.9997 2.75 19.8487L3 19.5987C3.01302 19.5869 3.02539 19.5746 3.03776 19.5622C3.05013 19.5498 3.0625 19.5375 3.07552 19.5257L4.04948 18.7757C6.45052 16.9502 9.65104 16.5752 12.401 17.7992L18.875 20.6742C19.974 21.1507 20.5755 22.2497 20.5 23.3747L26.375 20.8747C26.25 20.7237 26.099 20.5987 25.901 20.5257C25.599 20.4007 25.25 20.4007 24.9505 20.5257L22.0495 21.7497C21.9505 21.7757 21.849 21.7992 21.75 21.7992C21.4505 21.7992 21.1745 21.6247 21.0495 21.3487C20.901 20.9737 21.0755 20.5257 21.4505 20.3747L24.349 19.1507C25.026 18.8487 25.776 18.8487 26.4505 19.1247C27 19.3487 27.474 19.7497 27.776 20.2757Z" fill="black" style="fill:black;fill-opacity:1;"/>
</g>
</g>
<defs>
<clipPath id="clip0_3080_19">
<rect width="32" height="32" fill="white" style="fill:white;fill-opacity:1;"/>
</clipPath>
</defs>
</svg>
