<svg width="24" height="24" viewBox="0 0 24 24" fill="none" xmlns="http://www.w3.org/2000/svg">
<path d="M11.655 2.6275L2.775 5.7725C2.5525 5.845 2.405 6.0675 2.405 6.29V17.39C2.405 17.63 2.5525 17.835 2.775 17.9075L11.655 21.0525C11.71 21.0725 11.785 21.09 11.84 21.09C11.8775 21.09 11.895 21.09 11.9325 21.09H11.95C11.97 21.09 11.9875 21.0725 12.0075 21.0725L20.8875 17.9275C21.1075 17.8525 21.2575 17.63 21.2575 17.4075V6.2725C21.2575 6.2525 21.2575 6.215 21.2575 6.1975V6.18C21.22 5.995 21.09 5.8275 20.905 5.7725L16.465 4.2H16.4475C16.335 4.1625 16.1875 4.145 16.0575 4.2L7.4 7.2525C7.1775 7.325 7.03 7.5475 7.03 7.77V9.805C7.03 10.12 7.27 10.36 7.585 10.36C7.9 10.36 8.14 10.12 8.14 9.805V8.1575L16.2425 5.29L19.055 6.29L11.655 8.9175C11.4325 8.99 11.285 9.195 11.285 9.435C11.285 9.435 11.285 9.435 11.285 9.4525V19.7775L3.515 17.0025V6.6775L12.025 3.6625C12.32 3.5525 12.47 3.2375 12.3575 2.96C12.265 2.665 11.95 2.515 11.655 2.6275ZM12.395 9.8225L20.165 7.0675V16.9825L12.395 19.74V9.8225Z" fill="black"/>
</svg>
