<svg xmlns="http://www.w3.org/2000/svg" viewBox="-0.75 -0.75 24 24" id="Brain-Head-1--Streamline-Ultimate">
  <desc>
    Brain Head 1 Streamline Icon: https://streamlinehq.com
  </desc>
  <g>
    <path d="M8.109375 22.03125v-2.8125H7.06875a2.8125 2.8125 0 0 1 -2.8125 -2.8125v-2.8125H1.734375a0.478125 0.478125 0 0 1 -0.38437499999999997 -0.196875 0.459375 0.459375 0 0 1 -0.065625 -0.4125C3.225 6.965624999999999 4.575 0.46875 12.09375 0.46875a9.13125 9.13125 0 0 1 5.390625 16.509375v5.053125" fill="none" stroke="black" stroke-linecap="round" stroke-linejoin="round" stroke-width="1.5"></path>
    <path d="M17.45625 6.703125a2.8125 2.8125 0 0 0 -2.8125 -2.484375 2.8125 2.8125 0 0 0 -1.2281250000000001 0.290625A2.334375 2.334375 0 0 0 9.234375 4.6875a2.334375 2.334375 0 1 0 -0.1875 4.6875 2.4656249999999997 2.4656249999999997 0 0 0 0.75 -0.13125 2.746875 2.746875 0 0 0 2.7281250000000004 1.51875A3.3093749999999997 3.3093749999999997 0 0 0 15.609374999999998 13.125a3.4031249999999997 3.4031249999999997 0 0 0 3.28125 -3.515625 3.5625 3.5625 0 0 0 -1.434375 -2.90625Z" fill="none" stroke="black" stroke-linecap="round" stroke-linejoin="round" stroke-width="1.5"></path>
    <path d="m9.796875 9.243749999999999 0.271875 -0.80625a2.7375 2.7375 0 0 1 1.2375 -1.5093750000000001l0.553125 -0.36562500000000003" fill="none" stroke="black" stroke-linecap="round" stroke-linejoin="round" stroke-width="1.5"></path>
    <path d="M17.090625 5.625c-1.978125 0.496875 -2.26875 1.471875 -2.41875 1.875h0" fill="none" stroke="black" stroke-linecap="round" stroke-linejoin="round" stroke-width="1.5"></path>
    <path d="M17.053125 12.768749999999999a4.6312500000000005 4.6312500000000005 0 0 0 -1.40625 -2.540625" fill="none" stroke="black" stroke-linecap="round" stroke-linejoin="round" stroke-width="1.5"></path>
  </g>
</svg>