<svg width="24" height="24" viewBox="0 0 24 24" fill="none" xmlns="http://www.w3.org/2000/svg">
<path fill-rule="evenodd" clip-rule="evenodd" d="M5.0625 6.5625C6.71289 6.5625 8.0625 5.21289 8.0625 3.5625C8.0625 1.91211 6.71289 0.5625 5.0625 0.5625C3.41211 0.5625 2.0625 1.91211 2.0625 3.5625C2.0625 5.21289 3.41211 6.5625 5.0625 6.5625ZM5.0625 1.6875C6.09375 1.6875 6.9375 2.53125 6.9375 3.5625C6.9375 4.59375 6.09375 5.4375 5.0625 5.4375C4.03125 5.4375 3.1875 4.59375 3.1875 3.5625C3.1875 2.53125 4.03125 1.6875 5.0625 1.6875Z" fill="black"/>
<path d="M9.5625 2.4375C9.5625 2.75586 9.80664 3 10.125 3H19.5C19.8184 3 20.0625 2.75586 20.0625 2.4375C20.0625 2.11914 19.8184 1.875 19.5 1.875H10.125C9.80664 1.875 9.5625 2.11914 9.5625 2.4375Z" fill="black"/>
<path d="M14.4375 4.6875C14.4375 5.00586 14.1934 5.25 13.875 5.25H10.125C9.80664 5.25 9.5625 5.00586 9.5625 4.6875C9.5625 4.36914 9.80664 4.125 10.125 4.125H13.875C14.1934 4.125 14.4375 4.36914 14.4375 4.6875Z" fill="black"/>
<path d="M5.0625 22.6875C6.71289 22.6875 8.0625 21.3379 8.0625 19.6875C8.0625 18.0371 6.71289 16.6875 5.0625 16.6875C3.41211 16.6875 2.0625 18.0371 2.0625 19.6875C2.0625 21.3379 3.41211 22.6875 5.0625 22.6875Z" fill="black"/>
<path d="M20.0625 10.5C20.0625 10.8184 19.8184 11.0625 19.5 11.0625H10.125C9.80664 11.0625 9.5625 10.8184 9.5625 10.5C9.5625 10.1816 9.80664 9.9375 10.125 9.9375H19.5C19.8184 9.9375 20.0625 10.1816 20.0625 10.5Z" fill="black"/>
<path d="M9.5625 12.75C9.5625 13.0684 9.80664 13.3125 10.125 13.3125H13.875C14.1934 13.3125 14.4375 13.0684 14.4375 12.75C14.4375 12.4316 14.1934 12.1875 13.875 12.1875H10.125C9.80664 12.1875 9.5625 12.4316 9.5625 12.75Z" fill="black"/>
<path d="M20.0625 18.5625C20.0625 18.8809 19.8184 19.125 19.5 19.125H10.125C9.80664 19.125 9.5625 18.8809 9.5625 18.5625C9.5625 18.2441 9.80664 18 10.125 18H19.5C19.8184 18 20.0625 18.2441 20.0625 18.5625Z" fill="black"/>
<path d="M9.5625 20.8125C9.5625 21.1309 9.80664 21.375 10.125 21.375H13.875C14.1934 21.375 14.4375 21.1309 14.4375 20.8125C14.4375 20.4941 14.1934 20.25 13.875 20.25H10.125C9.80664 20.25 9.5625 20.4941 9.5625 20.8125Z" fill="black"/>
<path d="M8.0625 11.625C8.0625 13.2754 6.71289 14.625 5.0625 14.625C3.41211 14.625 2.0625 13.2754 2.0625 11.625C2.0625 9.97461 3.41211 8.625 5.0625 8.625C6.71289 8.625 8.0625 9.97461 8.0625 11.625Z" fill="black"/>
</svg>
