<svg width="24" height="24" viewBox="0 0 24 24" fill="none" xmlns="http://www.w3.org/2000/svg">
<path d="M12.543 14.4145L14.4004 12.5583H8.625C8.30664 12.5583 8.0625 12.3141 8.0625 11.9956C8.0625 11.6771 8.30664 11.4329 8.625 11.4329H14.4004L12.543 9.57666C12.3184 9.36954 12.3184 9.01393 12.543 8.78728C12.75 8.56257 13.1055 8.56257 13.332 8.78728L16.1445 11.6009C16.3691 11.808 16.3691 12.1636 16.1445 12.3903L13.332 15.2039C13.2187 15.3153 13.0684 15.372 12.9375 15.372C12.8066 15.372 12.6562 15.3153 12.543 15.2039C12.3184 14.9968 12.3184 14.6412 12.543 14.4145Z" fill="black"/>
<path fill-rule="evenodd" clip-rule="evenodd" d="M4.3125 19.6862C2.25 17.6424 1.125 14.903 1.125 11.9956C1.125 9.08818 2.25 6.34879 4.3125 4.305C8.55078 0.0650012 15.4492 0.0650012 19.6875 4.305C21.75 6.34879 22.875 9.08818 22.875 11.9956C22.875 14.903 21.75 17.6229 19.6875 19.6862C17.5684 21.8062 14.793 22.875 12 22.875C9.22461 22.875 6.43164 21.8062 4.3125 19.6862ZM18.9004 5.09242C16.9883 3.19908 14.4941 2.24166 12 2.24166C9.50586 2.24166 7.01172 3.19908 5.09961 5.09242C3.26172 6.9506 2.25 9.38908 2.25 11.9956C2.25 14.6021 3.26172 17.0406 5.11914 18.8988C8.90625 22.707 15.0937 22.707 18.9004 18.8988C20.7383 17.0406 21.75 14.6021 21.75 11.9956C21.75 9.38908 20.7383 6.9506 18.9004 5.09242Z" fill="black"/>
</svg>
