<svg width="24" height="24" viewBox="0 0 24 24" fill="none" xmlns="http://www.w3.org/2000/svg">
<path d="M16.8977 16.8977C16.6781 17.1174 16.3219 17.1174 16.1023 16.8977L12 12.7955L7.89775 16.8977C7.67808 17.1174 7.32192 17.1174 7.10225 16.8977C6.88258 16.6781 6.88258 16.3219 7.10225 16.1023L11.2045 12L7.10225 7.89775C6.88258 7.67808 6.88258 7.32192 7.10225 7.10225C7.32192 6.88258 7.67808 6.88258 7.89775 7.10225L12 11.2045L16.1023 7.10225C16.3219 6.88258 16.6781 6.88258 16.8977 7.10225C17.1174 7.32192 17.1174 7.67808 16.8977 7.89775L12.7955 12L16.8977 16.1023C17.1174 16.3219 17.1174 16.6781 16.8977 16.8977Z" fill="black"/>
<path fill-rule="evenodd" clip-rule="evenodd" d="M12 1.125C9.09375 1.125 6.35547 2.25 4.3125 4.3125C2.25 6.35547 1.125 9.09375 1.125 12C1.125 14.9062 2.25 17.6445 4.3125 19.6875C6.375 21.75 9.09375 22.875 12 22.875C14.9062 22.875 17.6445 21.75 19.6875 19.6875C21.75 17.625 22.875 14.9062 22.875 12C22.875 9.09375 21.75 6.35547 19.6875 4.3125C17.6445 2.25 14.9062 1.125 12 1.125ZM18.9004 18.9004C17.043 20.7383 14.6055 21.75 12 21.75C9.39453 21.75 6.95703 20.7383 5.09961 18.9004C3.24414 17.0625 2.25 14.6055 2.25 12C2.25 9.39453 3.26172 6.95703 5.09961 5.09961C6.9375 3.24414 9.39453 2.25 12 2.25C14.6055 2.25 17.043 3.26172 18.9004 5.09961C20.7559 6.9375 21.75 9.39453 21.75 12C21.75 14.6055 20.7383 17.043 18.9004 18.9004Z" fill="black"/>
</svg>
