<?xml version="1.0" encoding="UTF-8"?>
<svg xmlns="http://www.w3.org/2000/svg" xmlns:xlink="http://www.w3.org/1999/xlink" width="37.5pt" height="37.5pt" viewBox="0 0 37.5 37.5" version="1.1">
<g id="surface4194">
<path style=" stroke:none;fill-rule:nonzero;fill:rgb(0%,0%,0%);fill-opacity:1;" d="M 28.617188 17.054688 L 28.039062 17.054688 L 28.039062 16.476562 C 28.039062 11.214844 23.761719 6.9375 18.5 6.9375 C 13.238281 6.9375 8.960938 11.214844 8.960938 16.476562 L 8.960938 17.054688 L 8.382812 17.054688 C 4.710938 17.054688 1.734375 20.03125 1.734375 23.703125 C 1.734375 27.375 4.710938 30.351562 8.382812 30.351562 L 28.617188 30.351562 C 32.289062 30.351562 35.265625 27.375 35.265625 23.703125 C 35.265625 20.03125 32.289062 17.054688 28.617188 17.054688 Z M 28.617188 28.617188 L 8.382812 28.617188 C 5.664062 28.617188 3.46875 26.421875 3.46875 23.703125 C 3.46875 20.984375 5.664062 18.789062 8.382812 18.789062 L 9.828125 18.789062 C 10.320312 18.789062 10.695312 18.414062 10.695312 17.921875 L 10.695312 16.476562 C 10.695312 12.167969 14.191406 8.671875 18.5 8.671875 C 22.808594 8.671875 26.304688 12.167969 26.304688 16.476562 L 26.304688 17.921875 C 26.304688 18.414062 26.679688 18.789062 27.171875 18.789062 L 28.617188 18.789062 C 31.335938 18.789062 33.53125 20.984375 33.53125 23.703125 C 33.53125 26.421875 31.335938 28.617188 28.617188 28.617188 Z M 28.617188 28.617188 "/>
</g>
</svg>
