<svg width="24" height="24" viewBox="0 0 24 24" fill="none" xmlns="http://www.w3.org/2000/svg">
<path d="M18.315 10.915H17.945V10.545C17.945 7.1775 15.2075 4.44 11.84 4.44C8.4725 4.44 5.735 7.1775 5.735 10.545V10.915H5.365C3.015 10.915 1.11 12.82 1.11 15.17C1.11 17.52 3.015 19.425 5.365 19.425H18.315C20.665 19.425 22.57 17.52 22.57 15.17C22.57 12.82 20.665 10.915 18.315 10.915ZM18.315 18.315H5.365C3.625 18.315 2.22 16.91 2.22 15.17C2.22 13.43 3.625 12.025 5.365 12.025H6.29C6.605 12.025 6.845 11.785 6.845 11.47V10.545C6.845 7.7875 9.0825 5.55 11.84 5.55C14.5975 5.55 16.835 7.7875 16.835 10.545V11.47C16.835 11.785 17.075 12.025 17.39 12.025H18.315C20.055 12.025 21.46 13.43 21.46 15.17C21.46 16.91 20.055 18.315 18.315 18.315Z" fill="black"/>
</svg>
