<?xml version="1.0" encoding="UTF-8"?>
<svg xmlns="http://www.w3.org/2000/svg" xmlns:xlink="http://www.w3.org/1999/xlink" width="37.5pt" height="37.5pt" viewBox="0 0 37.5 37.5" version="1.1">
<g id="surface4770">
<path style=" stroke:none;fill-rule:nonzero;fill:rgb(0%,0%,0%);fill-opacity:1;" d="M 3.296875 12.140625 C 3.007812 12.140625 2.746094 12.285156 2.574219 12.515625 C 1.070312 14.714844 0.289062 17.285156 0.289062 19.945312 C 0.289062 23.675781 1.792969 27.808594 4.335938 31.015625 C 4.507812 31.21875 4.769531 31.335938 5.03125 31.335938 C 5.230469 31.335938 5.40625 31.277344 5.578125 31.160156 C 5.953125 30.871094 6.011719 30.324219 5.722656 29.945312 C 3.441406 27.054688 2.023438 23.242188 2.023438 19.945312 C 2.023438 17.777344 2.628906 15.695312 3.730469 13.875 L 23.414062 13.875 C 23.617188 14.191406 23.789062 14.480469 23.933594 14.800781 C 23.933594 14.828125 23.964844 14.828125 23.964844 14.859375 C 23.992188 14.886719 23.992188 14.914062 24.019531 14.945312 L 24.109375 15.03125 L 24.136719 15.058594 C 24.164062 15.089844 24.195312 15.117188 24.253906 15.148438 C 24.253906 15.148438 24.28125 15.148438 24.28125 15.175781 C 24.511719 15.320312 24.800781 15.320312 25.0625 15.203125 L 25.089844 15.203125 C 25.148438 15.175781 25.207031 15.148438 25.234375 15.117188 C 26.304688 14.308594 27.546875 13.902344 28.878906 13.902344 C 32.230469 13.902344 34.949219 16.621094 34.949219 19.972656 C 34.949219 23.328125 32.230469 26.042969 28.878906 26.042969 C 27.546875 26.042969 26.277344 25.609375 25.234375 24.832031 C 25.175781 24.800781 25.148438 24.773438 25.089844 24.742188 L 25.0625 24.742188 C 24.800781 24.628906 24.511719 24.65625 24.28125 24.773438 C 24.222656 24.800781 24.195312 24.832031 24.164062 24.859375 L 24.136719 24.886719 L 24.050781 24.976562 C 24.019531 25.003906 24.019531 25.03125 23.992188 25.0625 C 23.992188 25.089844 23.964844 25.089844 23.964844 25.121094 C 23.125 26.765625 22.054688 28.445312 20.929688 29.832031 C 20.640625 30.207031 20.695312 30.757812 21.042969 31.046875 C 21.21875 31.191406 21.390625 31.246094 21.59375 31.246094 C 21.851562 31.246094 22.085938 31.132812 22.257812 30.929688 C 23.472656 29.425781 24.398438 27.921875 25.03125 26.738281 C 26.21875 27.402344 27.519531 27.75 28.90625 27.75 C 33.214844 27.75 36.710938 24.253906 36.710938 19.945312 C 36.710938 15.636719 33.214844 12.140625 28.90625 12.140625 C 27.519531 12.140625 26.21875 12.488281 25.03125 13.179688 C 24.886719 12.949219 24.773438 12.71875 24.628906 12.515625 C 24.453125 12.285156 24.195312 12.140625 23.90625 12.140625 Z M 28.90625 16.1875 C 26.824219 16.1875 25.148438 17.863281 25.148438 19.945312 C 25.148438 22.027344 26.824219 23.703125 28.90625 23.703125 C 30.988281 23.703125 32.664062 22.027344 32.664062 19.945312 C 32.664062 17.863281 30.988281 16.1875 28.90625 16.1875 Z M 5.664062 16.1875 C 5.324219 16.203125 5.015625 16.417969 4.886719 16.765625 C 4.507812 17.777344 4.308594 18.847656 4.308594 19.945312 C 4.308594 20.8125 4.421875 21.765625 4.652344 22.71875 C 4.742188 23.125 5.117188 23.386719 5.492188 23.386719 C 5.550781 23.386719 5.636719 23.386719 5.695312 23.355469 C 6.15625 23.242188 6.445312 22.777344 6.332031 22.316406 C 6.128906 21.507812 6.042969 20.695312 6.042969 19.945312 C 6.042969 19.050781 6.1875 18.183594 6.503906 17.34375 C 6.707031 16.910156 6.476562 16.417969 6.011719 16.246094 C 5.898438 16.203125 5.78125 16.183594 5.664062 16.1875 Z M 28.90625 17.921875 C 30.035156 17.921875 30.929688 18.816406 30.929688 19.945312 C 30.929688 21.074219 30.035156 21.96875 28.90625 21.96875 C 27.777344 21.96875 26.882812 21.074219 26.882812 19.945312 C 26.882812 18.816406 27.777344 17.921875 28.90625 17.921875 Z M 7.449219 25.964844 C 7.285156 25.960938 7.117188 26.003906 6.964844 26.101562 C 6.503906 26.332031 6.386719 26.882812 6.648438 27.289062 C 6.910156 27.722656 7.199219 28.125 7.515625 28.5 C 7.6875 28.703125 7.949219 28.820312 8.210938 28.820312 C 8.410156 28.820312 8.585938 28.761719 8.757812 28.644531 C 9.132812 28.355469 9.191406 27.808594 8.902344 27.433594 C 8.644531 27.085938 8.382812 26.738281 8.152344 26.363281 C 7.988281 26.109375 7.726562 25.96875 7.449219 25.964844 Z M 1.1875 33.535156 C 0.785156 33.519531 0.417969 33.792969 0.316406 34.195312 C 0.203125 34.660156 0.492188 35.121094 0.953125 35.238281 C 5.085938 36.21875 9.335938 36.710938 13.585938 36.710938 C 17.835938 36.710938 22.085938 36.21875 26.21875 35.238281 C 26.679688 35.121094 26.96875 34.660156 26.855469 34.195312 C 26.738281 33.734375 26.277344 33.445312 25.8125 33.558594 C 17.804688 35.4375 9.367188 35.4375 1.359375 33.558594 C 1.300781 33.546875 1.242188 33.539062 1.1875 33.535156 Z M 1.1875 33.535156 "/>
</g>
</svg>
