<svg width="24" height="24" viewBox="0 0 24 24" fill="none" xmlns="http://www.w3.org/2000/svg">
<path d="M6.9375 7.3125C6.9375 7.63086 7.18164 7.875 7.5 7.875H16.5C16.8184 7.875 17.0625 7.63086 17.0625 7.3125C17.0625 6.99414 16.8184 6.75 16.5 6.75H7.5C7.18164 6.75 6.9375 6.99414 6.9375 7.3125Z" fill="black"/>
<path d="M14.25 10.125C14.25 10.4434 14.0059 10.6875 13.6875 10.6875H7.5C7.18164 10.6875 6.9375 10.4434 6.9375 10.125C6.9375 9.80664 7.18164 9.5625 7.5 9.5625H13.6875C14.0059 9.5625 14.25 9.80664 14.25 10.125Z" fill="black"/>
<path d="M17.0625 10.125C17.0625 10.4355 16.8105 10.6875 16.5 10.6875C16.1895 10.6875 15.9375 10.4355 15.9375 10.125C15.9375 9.81445 16.1895 9.5625 16.5 9.5625C16.8105 9.5625 17.0625 9.81445 17.0625 10.125Z" fill="black"/>
<path fill-rule="evenodd" clip-rule="evenodd" d="M4.5 17.25C3.15039 17.25 2.0625 16.1621 2.0625 14.8125V2.625C2.0625 1.27539 3.15039 0.1875 4.5 0.1875H19.5C20.8496 0.1875 21.9375 1.27539 21.9375 2.625V20.4375C21.9375 20.6621 21.7871 20.8691 21.582 20.9629C21.5254 20.9805 21.4492 21 21.375 21C21.2246 21 21.0938 20.9434 20.9805 20.832L17.4004 17.25H4.5ZM18.0195 16.293L20.8125 19.0879V2.625C20.8125 1.89453 20.2305 1.3125 19.5 1.3125H4.5C3.76953 1.3125 3.1875 1.89453 3.1875 2.625V14.8125C3.1875 15.543 3.76953 16.125 4.5 16.125H17.625C17.7754 16.125 17.9258 16.1816 18.0195 16.293Z" fill="black"/>
<path d="M6.75 23.25C6.75 22.9316 6.99414 22.6875 7.3125 22.6875H21.375C21.6934 22.6875 21.9375 22.9316 21.9375 23.25C21.9375 23.5684 21.6934 23.8125 21.375 23.8125H7.3125C6.99414 23.8125 6.75 23.5684 6.75 23.25Z" fill="black"/>
<path d="M4.5 23.8125C4.81055 23.8125 5.0625 23.5605 5.0625 23.25C5.0625 22.9395 4.81055 22.6875 4.5 22.6875C4.18945 22.6875 3.9375 22.9395 3.9375 23.25C3.9375 23.5605 4.18945 23.8125 4.5 23.8125Z" fill="black"/>
</svg>
