<svg width="24" height="24" viewBox="0 0 24 24" fill="none" xmlns="http://www.w3.org/2000/svg">
<g clip-path="url(#clip0_13116_820)">
<path d="M23.495 9.99C23.495 9.675 23.255 9.435 22.94 9.435H19.98C19.665 9.435 19.425 9.675 19.425 9.99C19.425 10.305 19.665 10.545 19.98 10.545H22.94C23.255 10.545 23.495 10.305 23.495 9.99Z" fill="black"/>
<path d="M18.8875 7.9375C19.0375 7.9375 19.165 7.88 19.2775 7.77L21.3675 5.68C21.59 5.4575 21.59 5.105 21.3675 4.9025C21.145 4.68 20.795 4.68 20.59 4.9025L18.5 6.975C18.2775 7.1975 18.2775 7.5475 18.5 7.7525C18.61 7.88 18.76 7.9375 18.8875 7.9375Z" fill="black"/>
<path d="M18.5 13.005L20.59 15.095C20.7025 15.2075 20.85 15.2625 20.98 15.2625C21.1075 15.2625 21.2575 15.2075 21.3675 15.095C21.59 14.875 21.59 14.5225 21.3675 14.32L19.295 12.21C19.0725 11.9875 18.7225 11.9875 18.5175 12.21C18.2775 12.4325 18.2775 12.7825 18.5 13.005Z" fill="black"/>
<path d="M17.0375 4.2925C17.075 4.5875 17.3725 4.81 17.6675 4.755C17.9625 4.7175 18.185 4.4225 18.13 4.125C17.87 2.295 17.4275 0.184998 16.28 0.184998H12.58C11.915 0.184998 11.4325 0.849998 11.0625 2.33L4.77249 4.9775C4.56999 5.07 4.38499 5.1425 4.19999 5.235C1.64749 6.5125 0.202494 9.38 0.664994 12.2275L2.25749 21.775C2.42249 22.7725 3.27499 23.495 4.29249 23.495C5.41999 23.495 6.34499 22.57 6.34499 21.4425V17.6675L7.16 18C7.4375 18.1125 7.76999 17.9825 7.87999 17.685C7.99249 17.4075 7.86249 17.075 7.5675 16.965L5.995 16.3175C5.8275 16.2425 5.625 16.2625 5.475 16.3725C5.3275 16.4825 5.235 16.65 5.235 16.835V21.4225C5.235 21.94 4.80999 22.3675 4.29249 22.3675C3.82999 22.3675 3.43999 22.0325 3.3475 21.57L1.77499 12.0425C1.38749 9.675 2.58999 7.29 4.7 6.235C4.86499 6.16 5.04999 6.0675 5.21749 5.995L10.805 3.645C10.5075 5.3475 10.36 7.51 10.36 9.805C10.36 12.1 10.5075 14.2625 10.805 15.965L6.0125 13.95C5.735 13.8375 5.40249 13.9675 5.28999 14.245C5.18 14.5225 5.30999 14.855 5.58749 14.9675L11.0625 17.28C11.4325 18.76 11.915 19.425 12.58 19.425H16.28C17.15 19.425 17.705 18.2775 18.1125 15.725C18.1675 15.43 17.945 15.1325 17.65 15.095C17.3525 15.06 17.0575 15.2625 17.02 15.5575C16.7425 17.2975 16.4475 17.9825 16.2975 18.2225C15.9475 17.685 15.43 15.65 15.245 12.21C16.4475 12.08 17.39 11.045 17.39 9.805C17.39 8.565 16.4475 7.53 15.225 7.4175C15.3925 3.9775 15.9275 1.9425 16.28 1.405C16.4275 1.6475 16.76 2.3675 17.0375 4.2925ZM14.56 16.3175C14.7075 17.1675 14.8925 17.835 15.095 18.315H12.655C12.2275 17.9075 11.47 15.0225 11.47 9.805C11.47 4.5875 12.2275 1.7025 12.655 1.295H15.095C14.8925 1.795 14.7075 2.4425 14.56 3.2925C14.245 5.0325 14.06 7.345 14.06 9.805C14.06 12.265 14.245 14.5775 14.56 16.3175ZM16.28 9.805C16.28 10.4525 15.8 10.99 15.1875 11.0825C15.17 10.675 15.17 10.25 15.17 9.805C15.17 9.36 15.17 8.935 15.1875 8.5275C15.8 8.62 16.28 9.1575 16.28 9.805Z" fill="black"/>
</g>
<defs>
<clipPath id="clip0_13116_820">
<rect width="24" height="24" fill="black"/>
</clipPath>
</defs>
</svg>
