<svg width="24" height="24" viewBox="0 0 24 24" fill="none" xmlns="http://www.w3.org/2000/svg">
<path fill-rule="evenodd" clip-rule="evenodd" d="M14.0625 3.75C14.0625 2.60547 13.1445 1.6875 12 1.6875C10.8555 1.6875 9.9375 2.60547 9.9375 3.75C9.9375 4.89453 10.8555 5.8125 12 5.8125C13.1445 5.8125 14.0625 4.89453 14.0625 3.75ZM11.0625 3.75C11.0625 3.22461 11.4746 2.8125 12 2.8125C12.5254 2.8125 12.9375 3.22461 12.9375 3.75C12.9375 4.27539 12.5254 4.6875 12 4.6875C11.4746 4.6875 11.0625 4.27539 11.0625 3.75Z" fill="black"/>
<path d="M9.76953 17.832C9.65625 17.9434 9.52539 18 9.375 18C9.24414 18 9.09375 17.9434 8.98047 17.832C8.75586 17.625 8.75586 17.2695 8.98047 17.043L10.293 15.7305C10.5 15.5059 10.8555 15.5059 11.082 15.7305C11.3066 15.9375 11.3066 16.293 11.082 16.5195L9.76953 17.832Z" fill="black"/>
<path d="M13.3125 14.0625C13.4629 14.0625 13.5938 14.0059 13.707 13.8945L15.0195 12.582C15.2441 12.3555 15.2441 12 15.0195 11.793C14.793 11.5684 14.4375 11.5684 14.2305 11.793L12.918 13.1055C12.6934 13.332 12.6934 13.6875 12.918 13.8945C13.0312 14.0059 13.1621 14.0625 13.3125 14.0625Z" fill="black"/>
<path d="M12.3945 15.207C12.3008 15.3184 12.1504 15.375 12 15.375C11.8496 15.375 11.6992 15.3184 11.5684 15.207C11.457 15.1133 11.4004 14.9629 11.4004 14.8125C11.4004 14.7942 11.4047 14.7759 11.409 14.7573C11.4135 14.7383 11.418 14.719 11.418 14.6992C11.4277 14.6807 11.4326 14.6621 11.4375 14.6436C11.4424 14.625 11.4473 14.6064 11.457 14.5879C11.4658 14.5693 11.4751 14.5552 11.4844 14.541C11.4936 14.5269 11.5029 14.5127 11.5117 14.4941C11.5312 14.457 11.5684 14.418 11.5879 14.4004C11.793 14.1934 12.168 14.1934 12.375 14.4004C12.4121 14.4375 12.4316 14.457 12.4492 14.4941C12.4582 14.5113 12.4673 14.5247 12.4761 14.5378C12.4864 14.553 12.4964 14.5679 12.5059 14.5879C12.5254 14.625 12.543 14.6621 12.543 14.6992C12.5625 14.7383 12.5625 14.7754 12.5625 14.8125C12.5625 14.9629 12.5059 15.0938 12.3945 15.207Z" fill="black"/>
<path fill-rule="evenodd" clip-rule="evenodd" d="M3.9375 14.8125C3.9375 19.2559 7.55664 22.875 12 22.875C16.4434 22.875 20.0625 19.2559 20.0625 14.8125C20.0625 10.3691 16.4434 6.75 12 6.75C7.55664 6.75 3.9375 10.3691 3.9375 14.8125ZM12 7.875C15.8242 7.875 18.9375 10.9883 18.9375 14.8125C18.9375 18.6367 15.8242 21.75 12 21.75C8.17578 21.75 5.0625 18.6367 5.0625 14.8125C5.0625 10.9883 8.17578 7.875 12 7.875Z" fill="black"/>
</svg>
