<svg width="24" height="24" viewBox="0 0 24 24" fill="none" xmlns="http://www.w3.org/2000/svg">
<path d="M22.94 13.505H18.87C18.5625 13.505 18.315 13.7525 18.315 14.06C18.315 14.3675 18.5625 14.615 18.87 14.615H21.6L13.5825 22.6325C13.365 22.85 13.365 23.2 13.5825 23.4175C13.6925 23.5275 13.8325 23.58 13.975 23.58C14.1175 23.58 14.26 23.5275 14.3675 23.4175L22.385 15.4V18.13C22.385 18.4375 22.6325 18.685 22.94 18.685C23.2475 18.685 23.495 18.4375 23.495 18.13V14.06C23.495 13.7525 23.2475 13.505 22.94 13.505Z" fill="black"/>
<path d="M10.655 7.8325L8.26249 5.44C7.98249 5.1625 7.60999 5.0075 7.21499 5.0075C6.81999 5.0075 6.44749 5.1625 6.16749 5.44L1.27249 10.3375C1.05749 10.555 1.05749 10.905 1.27249 11.1225C1.37999 11.2325 1.52249 11.285 1.66499 11.285C1.80749 11.285 1.94999 11.2325 2.05749 11.1225L6.95249 6.2275C7.09249 6.0875 7.33499 6.0875 7.47499 6.2275L9.86749 8.62C10.1475 8.8975 10.52 9.0525 10.915 9.0525C11.31 9.0525 11.6825 8.8975 11.9625 8.62L18.5 2.08V4.81C18.5 5.1175 18.7475 5.365 19.055 5.365C19.3625 5.365 19.61 5.1175 19.61 4.81V0.739998C19.61 0.432498 19.3625 0.184998 19.055 0.184998H14.985C14.6775 0.184998 14.43 0.432498 14.43 0.739998C14.43 1.0475 14.6775 1.295 14.985 1.295H17.715L11.175 7.8325C11.0375 7.9725 10.7925 7.9725 10.655 7.8325Z" fill="black"/>
<path d="M15.9325 9.9675C15.715 9.7525 15.365 9.7525 15.1475 9.9675L8.11749 16.9975C7.90249 17.215 7.90249 17.565 8.11749 17.7825C8.22499 17.8925 8.36749 17.945 8.50999 17.945C8.65249 17.945 8.79499 17.8925 8.90249 17.7825L15.9325 10.7525C16.1475 10.535 16.1475 10.185 15.9325 9.9675Z" fill="black"/>
<path d="M3.35249 23.3325L5.20249 21.4825C5.41749 21.265 5.41749 20.915 5.20249 20.6975C4.98499 20.4825 4.63499 20.4825 4.41749 20.6975L2.56749 22.5475C2.35249 22.765 2.35249 23.115 2.56749 23.3325C2.67749 23.4425 2.81749 23.495 2.95999 23.495C3.10249 23.495 3.24499 23.4425 3.35249 23.3325Z" fill="black"/>
</svg>
