<svg width="24" height="24" viewBox="0 0 24 24" fill="none" xmlns="http://www.w3.org/2000/svg">
<path d="M21.46 22.94C21.46 23.255 21.7 23.495 22.015 23.495C22.33 23.495 22.57 23.255 22.57 22.94V0.739998C22.57 0.424998 22.33 0.184998 22.015 0.184998H9.06501C8.75001 0.184998 8.51001 0.424998 8.51001 0.739998V22.94C8.51001 23.255 8.75001 23.495 9.06501 23.495C9.38001 23.495 9.62001 23.255 9.62001 22.94V1.295H21.46V22.94Z" fill="black"/>
<path d="M14.985 23.495H16.095C16.41 23.495 16.65 23.255 16.65 22.94V19.61C16.65 19.295 16.41 19.055 16.095 19.055H14.985C14.67 19.055 14.43 19.295 14.43 19.61V22.94C14.43 23.255 14.67 23.495 14.985 23.495Z" fill="black"/>
<path d="M4.44001 19.61V22.94C4.44001 23.255 4.68001 23.495 4.99501 23.495H6.10501C6.42001 23.495 6.66001 23.255 6.66001 22.94V19.61C6.66001 19.295 6.42001 19.055 6.10501 19.055H4.99501C4.68001 19.055 4.44001 19.295 4.44001 19.61Z" fill="black"/>
<path d="M7.17751 6.4575C7.06751 6.18 6.75251 6.03 6.45751 6.1425L1.64751 7.9925C1.44251 8.065 1.29501 8.2875 1.29501 8.51V22.94C1.29501 23.255 1.53501 23.495 1.85001 23.495C2.16501 23.495 2.40501 23.255 2.40501 22.94V8.8975L6.86251 7.1775C7.14001 7.0675 7.29001 6.7525 7.17751 6.4575Z" fill="black"/>
<path d="M4.99501 15.91C4.99501 16.225 5.23501 16.465 5.55001 16.465C5.86501 16.465 6.10501 16.225 6.10501 15.91V15.17C6.10501 14.855 5.86501 14.615 5.55001 14.615C5.23501 14.615 4.99501 14.855 4.99501 15.17V15.91Z" fill="black"/>
<path d="M5.55001 12.765C5.86501 12.765 6.10501 12.525 6.10501 12.21V11.47C6.10501 11.155 5.86501 10.915 5.55001 10.915C5.23501 10.915 4.99501 11.155 4.99501 11.47V12.21C4.99501 12.525 5.23501 12.765 5.55001 12.765Z" fill="black"/>
<path d="M12.395 14.615C12.08 14.615 11.84 14.855 11.84 15.17V15.91C11.84 16.225 12.08 16.465 12.395 16.465C12.71 16.465 12.95 16.225 12.95 15.91V15.17C12.95 14.855 12.71 14.615 12.395 14.615Z" fill="black"/>
<path d="M12.95 11.47C12.95 11.155 12.71 10.915 12.395 10.915C12.08 10.915 11.84 11.155 11.84 11.47V12.21C11.84 12.525 12.08 12.765 12.395 12.765C12.71 12.765 12.95 12.525 12.95 12.21V11.47Z" fill="black"/>
<path d="M15.54 14.615C15.225 14.615 14.985 14.855 14.985 15.17V15.91C14.985 16.225 15.225 16.465 15.54 16.465C15.855 16.465 16.095 16.225 16.095 15.91V15.17C16.095 14.855 15.855 14.615 15.54 14.615Z" fill="black"/>
<path d="M16.095 11.47C16.095 11.155 15.855 10.915 15.54 10.915C15.225 10.915 14.985 11.155 14.985 11.47V12.21C14.985 12.525 15.225 12.765 15.54 12.765C15.855 12.765 16.095 12.525 16.095 12.21V11.47Z" fill="black"/>
<path d="M18.685 14.615C18.37 14.615 18.13 14.855 18.13 15.17V15.91C18.13 16.225 18.37 16.465 18.685 16.465C19 16.465 19.24 16.225 19.24 15.91V15.17C19.24 14.855 19 14.615 18.685 14.615Z" fill="black"/>
<path d="M19.24 11.47C19.24 11.155 19 10.915 18.685 10.915C18.37 10.915 18.13 11.155 18.13 11.47V12.21C18.13 12.525 18.37 12.765 18.685 12.765C19 12.765 19.24 12.525 19.24 12.21V11.47Z" fill="black"/>
<path d="M12.95 7.77C12.95 7.455 12.71 7.215 12.395 7.215C12.08 7.215 11.84 7.455 11.84 7.77V8.51C11.84 8.825 12.08 9.065 12.395 9.065C12.71 9.065 12.95 8.825 12.95 8.51V7.77Z" fill="black"/>
<path d="M12.95 4.07C12.95 3.755 12.71 3.515 12.395 3.515C12.08 3.515 11.84 3.755 11.84 4.07V4.81C11.84 5.125 12.08 5.365 12.395 5.365C12.71 5.365 12.95 5.125 12.95 4.81V4.07Z" fill="black"/>
<path d="M16.095 7.77C16.095 7.455 15.855 7.215 15.54 7.215C15.225 7.215 14.985 7.455 14.985 7.77V8.51C14.985 8.825 15.225 9.065 15.54 9.065C15.855 9.065 16.095 8.825 16.095 8.51V7.77Z" fill="black"/>
<path d="M16.095 4.07C16.095 3.755 15.855 3.515 15.54 3.515C15.225 3.515 14.985 3.755 14.985 4.07V4.81C14.985 5.125 15.225 5.365 15.54 5.365C15.855 5.365 16.095 5.125 16.095 4.81V4.07Z" fill="black"/>
<path d="M19.24 7.77C19.24 7.455 19 7.215 18.685 7.215C18.37 7.215 18.13 7.455 18.13 7.77V8.51C18.13 8.825 18.37 9.065 18.685 9.065C19 9.065 19.24 8.825 19.24 8.51V7.77Z" fill="black"/>
<path d="M19.24 4.07C19.24 3.755 19 3.515 18.685 3.515C18.37 3.515 18.13 3.755 18.13 4.07V4.81C18.13 5.125 18.37 5.365 18.685 5.365C19 5.365 19.24 5.125 19.24 4.81V4.07Z" fill="black"/>
</svg>
