<svg width="24" height="24" viewBox="0 0 24 24" fill="none" xmlns="http://www.w3.org/2000/svg">
<path fill-rule="evenodd" clip-rule="evenodd" d="M18.9939 11.6621C18.7498 11.1758 18.281 10.875 17.7381 10.8945H13.8943C13.8181 10.8945 13.7615 10.8379 13.7439 10.8183C13.6873 10.7617 13.6678 10.6875 13.6873 10.6308L15.1131 3.54294C15.2439 2.90622 14.9256 2.30661 14.3435 2.04294C13.7615 1.78122 13.1053 1.94919 12.7127 2.457L5.13651 12.6562C4.83768 13.0879 4.80057 13.6308 5.04276 14.082C5.26932 14.5312 5.73807 14.8125 6.24393 14.8125H9.99393C10.0877 14.8125 10.1443 14.8691 10.1619 14.9062L10.1665 14.9149C10.1866 14.9521 10.2171 15.0084 10.199 15.1133L8.88651 20.4375C8.73807 21.0371 9.01932 21.6367 9.56229 21.9375C9.76932 22.0508 9.99393 22.1054 10.199 22.1054C10.574 22.1054 10.9314 21.957 11.1931 21.6562L18.7869 13.125C19.1443 12.7304 19.2185 12.1504 18.9939 11.6621ZM17.9431 12.3945L10.3689 20.8867C10.2556 21 10.1248 20.9629 10.0877 20.9258C9.99393 20.8691 9.95682 20.7929 9.9744 20.6816L11.2693 15.375C11.3631 14.9629 11.2869 14.5508 11.0252 14.2129C10.781 13.875 10.3865 13.6875 9.9744 13.6875H6.2244C6.11307 13.6875 6.05643 13.6133 6.0369 13.5566L6.03257 13.5431C6.01404 13.4857 5.98606 13.3991 6.05643 13.3125L13.6306 3.13083C13.6873 3.05661 13.7439 3.03708 13.8006 3.03708C13.8221 3.03708 13.8436 3.04364 13.8617 3.04916C13.8748 3.05316 13.8861 3.05661 13.8943 3.05661C13.949 3.07419 14.0623 3.15036 14.0252 3.31833L12.5994 10.3867C12.5252 10.7812 12.6189 11.1933 12.8806 11.5117C13.1443 11.832 13.5193 12 13.9119 12H17.7752C17.906 12 17.9627 12.0742 17.9803 12.1308C17.9998 12.1875 18.0369 12.3008 17.9431 12.3945Z" fill="black"/>
<path d="M3.9375 13.1055C3.9375 12.7872 3.69336 12.543 3.375 12.543H0.75C0.431641 12.543 0.1875 12.7872 0.1875 13.1055C0.1875 13.4258 0.431641 13.668 0.75 13.668H3.375C3.69336 13.668 3.9375 13.4063 3.9375 13.1055Z" fill="black"/>
<path d="M4.06814 16.7247L2.1365 17.8868C1.87478 18.0567 1.78103 18.3946 1.949 18.6563C2.11892 18.9181 2.45681 19.0118 2.71853 18.8438L4.65017 17.6817C4.81814 17.5684 4.93142 17.3809 4.93142 17.1934C4.93142 17.0997 4.91189 16.9884 4.85525 16.9122C4.68728 16.6505 4.33181 16.5743 4.06814 16.7247Z" fill="black"/>
<path d="M1.949 7.55658C1.78103 7.8183 1.87478 8.17572 2.1365 8.32416L4.06814 9.48822C4.33181 9.65619 4.68728 9.56244 4.83767 9.30072C4.89431 9.20697 4.91189 9.11322 4.91189 9.01947C4.91189 8.83197 4.81814 8.64447 4.63064 8.53119L2.699 7.36908C2.45681 7.19916 2.11892 7.29291 1.949 7.55658Z" fill="black"/>
<path d="M23.8125 13.1055C23.8125 12.7872 23.5684 12.543 23.25 12.543H20.625C20.3066 12.543 20.0625 12.7872 20.0625 13.1055C20.0625 13.4258 20.3066 13.668 20.625 13.668H23.25C23.5684 13.668 23.8125 13.4258 23.8125 13.1055Z" fill="black"/>
<path d="M21.8638 17.8866L19.9321 16.7245C19.6685 16.5565 19.313 16.6502 19.1626 16.912C19.106 17.0057 19.0884 17.0995 19.0884 17.1932C19.0884 17.3807 19.1821 17.5682 19.3696 17.6815L21.3013 18.8436C21.563 19.0116 21.9185 18.9178 22.0688 18.6561C22.1997 18.3944 22.1255 18.037 21.8638 17.8866Z" fill="black"/>
<path d="M19.9312 9.48822L21.8628 8.32416C22.1245 8.15619 22.2183 7.8183 22.0503 7.55658C21.8804 7.29291 21.5425 7.19916 21.2808 7.36908L19.3491 8.53119C19.1812 8.64447 19.0679 8.83197 19.0679 9.01947C19.0679 9.11322 19.0874 9.22455 19.144 9.30072C19.312 9.56244 19.6675 9.63666 19.9312 9.48822Z" fill="black"/>
</svg>
