<svg width="24" height="24" viewBox="0 0 24 24" fill="none" xmlns="http://www.w3.org/2000/svg">
<path d="M10.125 15.9375C13.0117 15.9375 15.375 13.5742 15.375 10.6875C15.375 7.80078 13.0117 5.4375 10.125 5.4375C7.23828 5.4375 4.875 7.80078 4.875 10.6875C4.875 11.2871 4.96875 11.8691 5.17578 12.4316C5.28711 12.7305 5.60547 12.8809 5.88672 12.7695C6.1875 12.6563 6.33789 12.3379 6.22461 12.0566C6.07422 11.625 6 11.1562 6 10.6875C6 8.41797 7.85547 6.5625 10.125 6.5625C12.3945 6.5625 14.25 8.41797 14.25 10.6875C14.25 12.957 12.3945 14.8125 10.125 14.8125H0.75C0.43164 14.8125 0.1875 15.0566 0.1875 15.375C0.1875 15.6934 0.43164 15.9375 0.75 15.9375H10.125Z" fill="black"/>
<path d="M20.043 18.582C20.1562 18.6934 20.3066 18.75 20.4375 18.75C20.5684 18.75 20.7187 18.6934 20.832 18.582L23.6445 15.7695C23.8691 15.543 23.8691 15.1875 23.6445 14.9805L20.832 12.168C20.6055 11.9434 20.25 11.9434 20.043 12.168C19.8184 12.3945 19.8184 12.75 20.043 12.957L21.9004 14.8125H15.75C15.4316 14.8125 15.1875 15.0566 15.1875 15.375C15.1875 15.6934 15.4316 15.9375 15.75 15.9375H21.9004L20.043 17.793C19.8184 18 19.8184 18.375 20.043 18.582Z" fill="black"/>
</svg>
