<svg width="24" height="24" viewBox="0 0 24 24" fill="none" xmlns="http://www.w3.org/2000/svg">
<path d="M23.07 15.7425L10.305 12.5975C10.175 12.5625 10.0275 12.58 9.8975 12.655L0.462498 17.835C0.294998 17.9275 0.184998 18.1125 0.184998 18.315V21.09C0.184998 21.405 0.424998 21.645 0.739998 21.645C1.055 21.645 1.295 21.405 1.295 21.09V18.6475L9.88 13.7275L22.33 16.705L21.885 20.535H20.83C20.5725 19.48 19.6275 18.685 18.5 18.685C17.3725 18.685 16.41 19.48 16.17 20.535H7.325C7.0675 19.48 6.1225 18.685 4.995 18.685C3.6625 18.685 2.59 19.7575 2.59 21.09C2.59 22.4225 3.4775 23.495 4.81 23.495C5.9375 23.495 7.085 22.7 7.325 21.645H16.15C16.41 22.7 17.3525 23.495 18.4825 23.495C19.61 23.495 20.5725 22.7 20.8125 21.645H22.3675C22.645 21.645 22.885 21.4425 22.9225 21.145L23.4775 16.335C23.5325 16.0575 23.3475 15.8 23.07 15.7425Z" fill="black"/>
</svg>
