<?xml version="1.0" encoding="UTF-8"?>
<svg xmlns="http://www.w3.org/2000/svg" xmlns:xlink="http://www.w3.org/1999/xlink" width="37.5pt" height="37.5pt" viewBox="0 0 37.5 37.5" version="1.1">
<g id="surface4308">
<path style=" stroke:none;fill-rule:nonzero;fill:rgb(0%,0%,0%);fill-opacity:1;" d="M 29.773438 5.78125 C 28.328125 5.78125 27.171875 6.9375 27.171875 8.382812 C 27.171875 9.828125 28.328125 10.984375 29.773438 10.984375 C 30.265625 10.984375 30.640625 10.609375 30.640625 10.117188 L 30.640625 6.648438 C 30.640625 6.15625 30.265625 5.78125 29.773438 5.78125 Z M 1.15625 6.9375 C 0.664062 6.9375 0.289062 7.3125 0.289062 7.804688 L 0.289062 16.476562 C 0.289062 16.96875 0.664062 17.34375 1.15625 17.34375 L 9.828125 17.34375 C 10.320312 17.34375 10.695312 16.96875 10.695312 16.476562 L 10.695312 7.804688 C 10.695312 7.3125 10.320312 6.9375 9.828125 6.9375 L 6.9375 6.9375 C 6.765625 6.9375 6.648438 7.054688 6.648438 7.226562 L 6.648438 8.960938 C 6.648438 9.132812 6.53125 9.25 6.359375 9.25 L 4.625 9.25 C 4.453125 9.25 4.335938 9.132812 4.335938 8.960938 L 4.335938 7.226562 C 4.335938 7.054688 4.21875 6.9375 4.046875 6.9375 Z M 21.390625 10.40625 C 20.898438 10.40625 20.523438 10.78125 20.523438 11.273438 C 20.523438 11.765625 20.898438 12.140625 21.390625 12.140625 L 24.28125 12.140625 L 24.28125 30.640625 L 19.078125 30.640625 L 19.078125 17.921875 C 19.078125 16.648438 18.039062 15.609375 16.765625 15.609375 L 12.429688 15.609375 C 11.9375 15.609375 11.5625 15.984375 11.5625 16.476562 C 11.5625 16.96875 11.9375 17.34375 12.429688 17.34375 L 16.765625 17.34375 C 17.082031 17.34375 17.34375 17.605469 17.34375 17.921875 L 17.34375 19.078125 L 1.15625 19.078125 C 0.664062 19.078125 0.289062 19.453125 0.289062 19.945312 C 0.289062 20.4375 0.664062 20.8125 1.15625 20.8125 L 7.6875 20.8125 C 6.070312 22.921875 3.46875 27.027344 3.410156 31.507812 C 3.410156 32 3.785156 32.375 4.277344 32.375 L 5.839844 32.375 C 6.242188 34.832031 8.382812 36.710938 10.957031 36.710938 C 13.527344 36.710938 15.667969 34.832031 16.070312 32.375 L 27.144531 32.375 C 29.601562 32.347656 31.882812 31.160156 33.300781 29.195312 L 35.003906 26.796875 C 35.148438 26.59375 35.207031 26.332031 35.148438 26.101562 C 35.09375 25.871094 34.949219 25.667969 34.746094 25.523438 C 33.675781 24.917969 32.460938 24.597656 31.246094 24.597656 C 29.136719 24.597656 27.257812 25.523438 25.988281 26.96875 L 25.988281 12.3125 C 26.796875 12.632812 27.402344 13.355469 27.519531 14.25 L 28.617188 22.953125 C 28.675781 23.414062 29.109375 23.761719 29.570312 23.703125 C 30.035156 23.644531 30.378906 23.210938 30.324219 22.75 L 29.222656 14.046875 C 28.992188 11.96875 27.230469 10.40625 25.148438 10.40625 Z M 9.914062 20.8125 L 17.34375 20.8125 L 17.34375 30.640625 L 5.203125 30.640625 C 5.636719 26.042969 8.988281 21.882812 9.914062 20.8125 Z M 31.277344 26.363281 C 31.882812 26.363281 32.460938 26.476562 33.039062 26.652344 L 31.941406 28.210938 C 30.871094 29.714844 29.078125 30.640625 27.199219 30.667969 L 26.101562 30.667969 C 26.507812 28.210938 28.675781 26.363281 31.277344 26.363281 Z M 35.351562 29.515625 C 35.296875 29.519531 35.238281 29.527344 35.179688 29.542969 C 34.714844 29.65625 34.425781 30.148438 34.570312 30.613281 C 34.6875 31.015625 34.714844 31.449219 34.660156 31.882812 C 34.542969 32.808594 34.109375 33.617188 33.386719 34.195312 C 32.664062 34.773438 31.769531 35.035156 30.84375 34.949219 C 29.976562 34.859375 29.167969 34.425781 28.617188 33.761719 C 28.300781 33.386719 27.75 33.359375 27.402344 33.675781 C 27.027344 33.992188 27 34.542969 27.316406 34.890625 C 28.183594 35.871094 29.367188 36.507812 30.667969 36.652344 C 30.871094 36.683594 31.074219 36.683594 31.246094 36.683594 C 32.433594 36.683594 33.558594 36.277344 34.484375 35.554688 C 35.582031 34.6875 36.25 33.445312 36.394531 32.058594 C 36.449219 31.421875 36.421875 30.757812 36.25 30.148438 C 36.148438 29.769531 35.757812 29.5 35.351562 29.515625 Z M 7.632812 32.375 L 14.335938 32.375 C 13.960938 33.878906 12.601562 34.976562 10.984375 34.976562 C 9.367188 34.976562 8.007812 33.878906 7.632812 32.375 Z M 7.632812 32.375 "/>
</g>
</svg>
