<svg width="24" height="24" viewBox="0 0 24 24" fill="none" xmlns="http://www.w3.org/2000/svg">
<path d="M5.07 7.88C5.1975 7.955 5.365 7.9925 5.5125 7.9375C9.6575 6.75249 14.0225 6.75249 18.1675 7.9375C18.205 7.955 18.26 7.955 18.315 7.955C18.425 7.955 18.555 7.9175 18.6475 7.84499C18.795 7.73249 18.87 7.5675 18.87 7.4C18.87 3.515 15.725 0.369995 11.84 0.369995C10.62 0.369995 9.435 0.684995 8.38 1.2775C8.38 1.2775 8.3625 1.2775 8.3625 1.295C6.605 1.055 4.92 1.22 3.7375 2.035C3.035 2.515 2.6825 3.2 2.7 3.9775C2.7375 5.8275 4.885 7.77 5.07 7.88ZM4.365 2.96C5.0325 2.4975 5.9375 2.31249 6.9375 2.31249C9.7125 2.31249 13.265 3.81 14.8175 5.4025C15.04 5.625 15.3925 5.62499 15.595 5.42C15.8175 5.1975 15.8175 4.8475 15.615 4.64249C14.4675 3.46 12.4125 2.35 10.2675 1.72C10.7675 1.555 11.3025 1.48 11.84 1.48C14.855 1.48 17.3525 3.7375 17.7225 6.66C13.7075 5.66 9.51 5.6975 5.5125 6.79C4.9575 6.2725 3.7925 4.9025 3.81 3.88499C3.83 3.515 3.995 3.22 4.365 2.96Z" fill="black"/>
<path d="M2.59 23.495C2.905 23.495 3.145 23.255 3.145 22.94C3.145 19.925 4.55 19.555 7.3625 18.815C7.53 18.7775 7.6775 18.7225 7.845 18.685C7.9 18.795 7.9725 18.9075 8.03 19.0175C8.8425 20.425 9.7675 22.015 11.8225 22.015C13.875 22.015 14.8 20.425 15.615 19.0175C15.67 18.925 15.725 18.815 15.78 18.7225C16.3175 18.8325 16.8175 18.9625 17.315 19.0925C19.5175 19.72 20.4975 20.425 20.4975 22.94C20.4975 23.255 20.7375 23.495 21.0525 23.495C21.3675 23.495 21.6075 23.255 21.6075 22.94C21.6075 19.4625 19.72 18.63 17.6125 18.0375C16.595 17.7425 15.54 17.52 14.4125 17.3525C16.28 16.225 17.76 14.0425 18.445 11.7475C18.76 12.025 19.1475 12.21 19.5725 12.21C20.59 12.21 21.4225 11.21 21.4225 9.99C21.4225 9.25 21.1075 8.5475 20.59 8.14C20.35 7.955 19.9975 7.9925 19.8125 8.2325C19.6275 8.4725 19.665 8.825 19.905 9.01C20.165 9.21249 20.3125 9.58249 20.3125 9.99C20.3125 10.6 19.98 11.1 19.5725 11.1C19.165 11.1 18.8325 10.6 18.8325 9.99C18.8325 9.88 18.795 9.7875 18.74 9.695L18.7025 9.6375C18.575 9.435 18.3325 9.34249 18.1125 9.3975C17.89 9.45249 17.705 9.6575 17.685 9.88C17.4075 13.19 14.7625 17.02 11.84 17.02C11.545 17.02 11.3025 17.2425 11.285 17.5375C11.2675 17.835 11.47 18.0925 11.765 18.13L13.745 18.39C14.0425 18.425 14.3375 18.4625 14.6325 18.5175C13.765 19.9975 13.1725 20.9225 11.8225 20.9225C10.47 20.9225 9.86 19.9975 8.99 18.4825C8.9175 18.3525 8.8425 18.2225 8.77 18.0925L8.6025 17.7775C8.4725 17.5575 8.215 17.445 7.9725 17.52C7.66 17.6125 7.3625 17.685 7.085 17.76C4.2725 18.5 2.035 19.0725 2.035 22.94C2.035 23.255 2.275 23.495 2.59 23.495Z" fill="black"/>
<path d="M4.07 12.21C4.495 12.21 4.885 12.0425 5.1975 11.7475C5.66 13.3575 6.55 14.93 7.66 16.095C7.77 16.205 7.9175 16.2625 8.065 16.2625C8.195 16.2625 8.3425 16.205 8.455 16.1125C8.6775 15.91 8.6775 15.5575 8.4725 15.3375C7.14 13.93 6.18 11.8775 5.975 9.9725C5.9575 9.8425 5.9025 9.73 5.81 9.6375L5.7725 9.6025C5.605 9.435 5.3825 9.3975 5.1625 9.4725C4.94 9.565 4.81 9.7675 4.81 9.99C4.81 10.6 4.4775 11.1 4.07 11.1C3.6625 11.1 3.33 10.6 3.33 9.99C3.33 9.675 3.09 9.435 2.775 9.435C2.46 9.435 2.22 9.675 2.22 9.99C2.22 11.21 3.0525 12.21 4.07 12.21Z" fill="black"/>
</svg>
