<svg width="24" height="24" viewBox="0 0 24 24" fill="none" xmlns="http://www.w3.org/2000/svg">
<path d="M9.25 12.21C9.565 12.21 9.805 11.97 9.805 11.655V5.55003C9.805 5.36503 9.7125 5.18003 9.545 5.07003L7.585 3.86753C7.325 3.70003 6.975 3.79253 6.8275 4.05253C6.66 4.31003 6.7525 4.66253 7.0125 4.81003L8.7125 5.84503V11.655C8.695 11.97 8.935 12.21 9.25 12.21Z" fill="black"/>
<path d="M3.8675 17.65C2.7925 19.5 3.4225 21.885 5.2725 22.9575C5.8825 23.31 6.5675 23.495 7.215 23.495C7.7525 23.495 8.27 23.385 8.75 23.18C8.8425 23.365 9.0275 23.495 9.25 23.495H18.5C18.815 23.495 19.055 23.255 19.055 22.94V13.69C19.055 13.375 18.815 13.135 18.5 13.135H15.17C15.06 13.135 14.985 13.21 14.985 13.32V14.8C14.985 15.115 14.745 15.355 14.43 15.355H13.32C13.005 15.355 12.765 15.115 12.765 14.8V13.32C12.765 13.21 12.69 13.135 12.58 13.135H9.25C8.935 13.135 8.695 13.375 8.695 13.69V16.02C6.9375 15.3 4.8475 15.965 3.8675 17.65ZM7.215 16.835C7.695 16.835 8.1775 16.965 8.6025 17.205C9.915 17.9825 10.3775 19.685 9.6025 20.9975C8.825 22.31 7.1225 22.7725 5.81 21.9975C4.495 21.22 4.0325 19.5175 4.81 18.205C5.3275 17.335 6.2725 16.835 7.215 16.835Z" fill="black"/>
</svg>
