<svg width="24" height="24" viewBox="0 0 24 24" fill="none" xmlns="http://www.w3.org/2000/svg">
<path d="M23.25 5.8125H0.75C0.439453 5.8125 0.1875 6.06445 0.1875 6.375V23.25C0.1875 23.5605 0.439453 23.8125 0.75 23.8125C1.06055 23.8125 1.3125 23.5605 1.3125 23.25V6.9375H13.3125V17.4375C13.3125 17.748 13.5645 18 13.875 18H22.6875V23.25C22.6875 23.5605 22.9395 23.8125 23.25 23.8125C23.5605 23.8125 23.8125 23.5605 23.8125 23.25V6.375C23.8125 6.06445 23.5605 5.8125 23.25 5.8125ZM22.6875 16.875H14.4375V12.375H22.6875V16.875ZM22.6875 11.25H14.4375V6.9375H22.6875V11.25Z" fill="black"/>
</svg>
