<svg width="24" height="24" viewBox="0 0 24 24" fill="none" xmlns="http://www.w3.org/2000/svg">
<path d="M8.8625 11.8025C9.0825 12.0075 9.1025 12.3575 8.8975 12.58C8.7875 12.71 8.64 12.765 8.4925 12.765C8.3625 12.765 8.2325 12.7275 8.1225 12.6175L5.8825 10.5825C5.7725 10.47 5.6975 10.3225 5.6975 10.175C5.6975 10.0275 5.7725 9.86002 5.8825 9.76752L8.1225 7.71502C8.3425 7.51002 8.695 7.53002 8.8975 7.75252C9.1025 7.97252 9.0825 8.32502 8.8625 8.52752L7.085 10.175L8.8625 11.8025ZM13.8925 6.27252L10.8225 14.4675C10.73 14.7075 10.49 14.855 10.25 14.8175C10.1925 14.8175 10.1575 14.8 10.1 14.7825C9.805 14.67 9.675 14.355 9.7675 14.06L12.82 5.84502C12.9325 5.55002 13.245 5.42002 13.5425 5.51252C13.8575 5.66002 14.005 5.97502 13.8925 6.27252ZM17.7975 10.5825L15.5575 12.635C15.4475 12.7275 15.3175 12.7825 15.1875 12.7825C15.04 12.7825 14.8925 12.7275 14.7825 12.5975C14.5775 12.3775 14.5975 12.025 14.8175 11.8225L16.595 10.1925L14.8175 8.56502C14.5975 8.36252 14.5775 8.01002 14.7825 7.78752C14.985 7.56752 15.3375 7.54752 15.5575 7.75252L17.7975 9.80502C17.9075 9.91502 17.9825 10.065 17.9825 10.2125C17.9825 10.36 17.9075 10.49 17.7975 10.5825Z" fill="black"/>
<path d="M16.095 23.495C15.78 23.495 15.54 23.255 15.54 22.94V22.2C15.54 20.8675 16.6125 19.795 17.945 19.795H19.425C19.9425 19.795 20.35 19.3875 20.35 18.87V16.1875C20.35 15.7425 20.5175 15.3375 20.8125 15.0225L21.33 14.505C21.4775 14.355 21.515 14.1525 21.46 13.95C21.46 13.93 21.4425 13.9125 21.4425 13.8925L20.2575 8.21502C19.72 5.58752 18 3.34752 15.6875 2.20252C14.3375 1.53502 12.84 1.22002 11.3225 1.31252C6.955 1.55502 3.3675 5.18002 3.1625 9.54502C2.9975 12.6175 4.44 15.485 6.975 17.205C7.2325 17.3725 7.29 17.7225 7.1225 17.9825C6.955 18.24 6.605 18.2975 6.345 18.13C3.4775 16.1875 1.8675 12.95 2.0525 9.49002C2.165 7.08502 3.1825 4.81002 4.9025 3.09002C6.605 1.37002 8.8625 0.332517 11.2675 0.202517C12.9675 0.110017 14.67 0.445017 16.1875 1.20252C18.795 2.49752 20.72 5.03252 21.35 7.99252L22.5325 13.6525C22.7 14.2275 22.5525 14.855 22.125 15.28L21.6075 15.8C21.515 15.91 21.46 16.04 21.46 16.1875V18.87C21.46 19.9975 20.5525 20.905 19.425 20.905H17.945C17.2225 20.905 16.65 21.4775 16.65 22.2V22.94C16.65 23.255 16.41 23.495 16.095 23.495Z" fill="black"/>
</svg>
