<?xml version="1.0" encoding="UTF-8"?>
<svg xmlns="http://www.w3.org/2000/svg" xmlns:xlink="http://www.w3.org/1999/xlink" width="37.5pt" height="37.5pt" viewBox="0 0 37.5 37.5" version="1.1">
<g id="surface4572">
<path style=" stroke:none;fill-rule:nonzero;fill:rgb(0%,0%,0%);fill-opacity:1;" d="M 17.921875 0.289062 C 15.839844 0.289062 14.164062 1.964844 14.164062 4.046875 L 14.164062 9.828125 C 14.164062 10.957031 13.269531 11.851562 12.140625 11.851562 L 6.878906 11.851562 C 6.273438 11.851562 5.78125 11.359375 5.78125 10.753906 C 5.78125 10.433594 5.925781 10.117188 6.15625 9.914062 L 11.5625 5.289062 C 11.9375 4.972656 11.96875 4.421875 11.648438 4.074219 C 11.332031 3.699219 10.78125 3.671875 10.433594 3.988281 L 5.03125 8.585938 C 4.394531 9.132812 4.046875 9.914062 4.046875 10.753906 C 4.046875 12.3125 5.320312 13.585938 6.878906 13.585938 L 12.140625 13.585938 C 14.222656 13.585938 15.898438 11.910156 15.898438 9.828125 L 15.898438 4.046875 C 15.898438 2.917969 16.792969 2.023438 17.921875 2.023438 L 29.195312 2.023438 C 30.324219 2.023438 31.21875 2.917969 31.21875 4.046875 L 31.21875 32.953125 C 31.21875 34.082031 30.324219 34.976562 29.195312 34.976562 L 7.804688 34.976562 C 6.675781 34.976562 5.78125 34.082031 5.78125 32.953125 L 5.78125 17.054688 C 5.78125 16.5625 5.40625 16.1875 4.914062 16.1875 C 4.421875 16.1875 4.046875 16.5625 4.046875 17.054688 L 4.046875 32.953125 C 4.046875 35.035156 5.722656 36.710938 7.804688 36.710938 L 29.195312 36.710938 C 31.277344 36.710938 32.953125 35.035156 32.953125 32.953125 L 32.953125 4.046875 C 32.953125 1.964844 31.277344 0.289062 29.195312 0.289062 Z M 12.71875 17.632812 C 12.226562 17.632812 11.851562 18.007812 11.851562 18.5 C 11.851562 18.992188 12.226562 19.367188 12.71875 19.367188 L 24.28125 19.367188 C 24.773438 19.367188 25.148438 18.992188 25.148438 18.5 C 25.148438 18.007812 24.773438 17.632812 24.28125 17.632812 Z M 12.71875 21.96875 C 12.226562 21.96875 11.851562 22.34375 11.851562 22.835938 C 11.851562 23.328125 12.226562 23.703125 12.71875 23.703125 L 24.28125 23.703125 C 24.773438 23.703125 25.148438 23.328125 25.148438 22.835938 C 25.148438 22.34375 24.773438 21.96875 24.28125 21.96875 Z M 12.71875 26.304688 C 12.226562 26.304688 11.851562 26.679688 11.851562 27.171875 C 11.851562 27.664062 12.226562 28.039062 12.71875 28.039062 L 24.28125 28.039062 C 24.773438 28.039062 25.148438 27.664062 25.148438 27.171875 C 25.148438 26.679688 24.773438 26.304688 24.28125 26.304688 Z M 12.71875 26.304688 "/>
</g>
</svg>
