<svg width="24" height="24" viewBox="0 0 24 24" fill="none" xmlns="http://www.w3.org/2000/svg">
<path d="M11.4358 5.24915C11.4358 4.93079 11.6799 4.68665 11.9983 4.68665C12.3167 4.68665 12.5608 4.93079 12.5608 5.24915V17.212L15.3538 14.4171C15.5608 14.1925 15.9163 14.1925 16.1428 14.4171C16.3674 14.6241 16.3674 14.9796 16.1428 15.2062L12.3928 18.9562C12.1858 19.1808 11.8303 19.1808 11.6038 18.9562L7.85376 15.2062C7.62915 14.9991 7.62915 14.6437 7.85376 14.4171C7.96704 14.3058 8.11743 14.2491 8.24829 14.2491C8.37915 14.2491 8.52954 14.3058 8.64282 14.4171L11.4358 17.212V5.24915Z" fill="black"/>
</svg>
