<svg width="24" height="24" viewBox="0 0 24 24" fill="none" xmlns="http://www.w3.org/2000/svg">
<path d="M4.81 19.0551C4.9525 19.0551 5.095 19.0026 5.2025 18.8926L8.25 15.8476C8.3875 15.7076 8.6325 15.7076 8.7725 15.8476L11.165 18.2401C11.445 18.5176 11.815 18.6726 12.2125 18.6726C12.6075 18.6726 12.98 18.5176 13.26 18.2401L17.945 13.5501V16.2801C17.945 16.5876 18.1925 16.8351 18.5 16.8351C18.8075 16.8351 19.055 16.5876 19.055 16.2801V12.2101C19.055 12.1726 19.0525 12.1376 19.045 12.1001C19.04 12.0851 19.035 12.0701 19.03 12.0526C19.0225 12.0351 19.02 12.0151 19.0125 11.9976C19.005 11.9801 18.995 11.9601 18.9825 11.9426C18.975 11.9301 18.97 11.9151 18.96 11.9001C18.92 11.8401 18.8675 11.7876 18.8075 11.7476C18.795 11.7376 18.78 11.7326 18.7675 11.7251C18.75 11.7151 18.73 11.7051 18.7125 11.6951C18.695 11.6876 18.675 11.6851 18.6575 11.6801C18.64 11.6726 18.625 11.6676 18.61 11.6651C18.5725 11.6576 18.5375 11.6551 18.5 11.6551H14.43C14.1225 11.6551 13.875 11.9026 13.875 12.2101C13.875 12.5176 14.1225 12.7651 14.43 12.7651H17.16L12.47 17.4526C12.3325 17.5926 12.0875 17.5926 11.9475 17.4526L9.5575 15.0601C9.2775 14.7826 8.905 14.6276 8.51 14.6276C8.115 14.6276 7.7425 14.7826 7.4625 15.0601L4.4175 18.1076C4.2025 18.3251 4.2025 18.6751 4.4175 18.8926C4.525 19.0026 4.6675 19.0551 4.81 19.0551Z" fill="black"/>
<path d="M1.11 19.2401C1.11 21.5851 3.02 23.4951 5.365 23.4951H18.315C20.66 23.4951 22.57 21.5851 22.57 19.2401V7.40006C22.57 5.05506 20.66 3.14506 18.315 3.14506H17.02V0.740059C17.02 0.432559 16.7725 0.185059 16.465 0.185059C16.1575 0.185059 15.91 0.432559 15.91 0.740059V3.14506H7.77V0.740059C7.77 0.432559 7.5225 0.185059 7.215 0.185059C6.9075 0.185059 6.66 0.432559 6.66 0.740059V3.14506H5.365C3.02 3.14506 1.11 5.05506 1.11 7.40006V19.2401ZM5.365 4.25506H18.315C19.86 4.25506 21.145 5.37506 21.4075 6.84506H2.2725C2.535 5.37506 3.82 4.25506 5.365 4.25506ZM2.22 7.95506H21.46V19.2401C21.46 20.9726 20.0475 22.3851 18.315 22.3851H5.365C3.6325 22.3851 2.22 20.9726 2.22 19.2401V7.95506Z" fill="black"/>
</svg>
