<svg width="24" height="24" viewBox="0 0 24 24" fill="none" xmlns="http://www.w3.org/2000/svg">
<path d="M12.5625 3.375C12.5625 3.69336 12.3184 3.9375 12 3.9375C11.6816 3.9375 11.4375 3.69336 11.4375 3.375V0.75C11.4375 0.43164 11.6816 0.1875 12 0.1875C12.3184 0.1875 12.5625 0.43164 12.5625 0.75V3.375Z" fill="black"/>
<path d="M7.89453 4.93164C7.70703 4.93164 7.51953 4.81836 7.40625 4.65039L6.24414 2.73828C6.07422 2.47461 6.16797 2.13672 6.43164 1.96875C6.69336 1.80078 7.03125 1.89453 7.19922 2.15625L8.36328 4.08789C8.53125 4.34961 8.4375 4.6875 8.17578 4.85547C8.09961 4.91211 7.98828 4.93164 7.89453 4.93164Z" fill="black"/>
<path d="M15.8066 4.83789C15.9004 4.89453 15.9941 4.91211 16.0879 4.91211C16.2754 4.91211 16.4629 4.81836 16.5742 4.63086L17.7383 2.69922C17.9063 2.4375 17.8125 2.08203 17.5508 1.93164C17.2871 1.76172 16.9316 1.85547 16.7813 2.11914L15.6191 4.05078C15.4688 4.33203 15.543 4.6875 15.8066 4.83789Z" fill="black"/>
<path d="M21.9375 12.75C21.9375 18.2812 15.1309 23.8496 12 23.8496C8.86914 23.8496 2.0625 18.2812 2.0625 12.75C2.0625 9.86328 4.42578 7.5 7.3125 7.5C8.77539 7.5 10.125 8.08203 11.1191 9.15039C11.3438 9.375 11.3242 9.73047 11.0996 9.9375C10.875 10.1621 10.5195 10.1445 10.3125 9.91797C9.52539 9.07422 8.45703 8.625 7.3125 8.625C5.04297 8.625 3.1875 10.4805 3.1875 12.75C3.1875 17.7754 9.67578 22.7246 12 22.7246C14.3242 22.7246 20.8125 17.7754 20.8125 12.75C20.8125 10.4805 18.957 8.625 16.6875 8.625C14.418 8.625 12.5625 10.4805 12.5625 12.75C12.5625 13.0684 12.3184 13.3125 12 13.3125C11.6816 13.3125 11.4375 13.0684 11.4375 12.75C11.4375 9.86328 13.8008 7.5 16.6875 7.5C19.5742 7.5 21.9375 9.86328 21.9375 12.75Z" fill="black"/>
</svg>
