<svg width="24" height="24" viewBox="0 0 24 24" fill="none" xmlns="http://www.w3.org/2000/svg">
<g clip-path="url(#clip0_12916_46182)">
<path fill-rule="evenodd" clip-rule="evenodd" d="M11.5878 19.4258C11.662 19.5 11.7753 19.5567 11.8866 19.5742C11.9064 19.5742 11.9257 19.5792 11.9447 19.5842C11.9632 19.589 11.9816 19.5938 11.9999 19.5938C12.1503 19.5938 12.2811 19.5371 12.3944 19.4258L16.369 15.4492C17.5311 14.2871 17.5311 12.4121 16.369 11.2695C15.2069 10.1055 13.3319 10.1055 12.1874 11.2695L11.9999 11.4746L11.7928 11.2695C10.6307 10.1055 8.75574 10.1055 7.61316 11.2695C6.4491 12.4317 6.4491 14.3067 7.61316 15.4492L11.5878 19.4258ZM8.41785 12.0742C8.77527 11.7188 9.24402 11.5313 9.71277 11.5313C10.1815 11.5313 10.6503 11.7188 11.0057 12.0742L11.6053 12.6758C11.8124 12.8809 12.1874 12.8809 12.3944 12.6758L12.994 12.0742C13.7069 11.3633 14.869 11.3633 15.5819 12.0742C16.2928 12.7871 16.2928 13.9492 15.5819 14.6621L11.9999 18.2442L8.41785 14.6621C7.70691 13.9492 7.70691 12.7871 8.41785 12.0742Z" fill="black"/>
<path d="M4.6875 3.375C4.6875 3.05664 4.44336 2.8125 4.125 2.8125H3.375C3.05664 2.8125 2.8125 3.05664 2.8125 3.375C2.8125 3.69336 3.05664 3.9375 3.375 3.9375H4.125C4.44336 3.9375 4.6875 3.69336 4.6875 3.375Z" fill="black"/>
<path d="M7.6875 3.375C7.6875 3.05664 7.44336 2.8125 7.125 2.8125H6.375C6.05664 2.8125 5.8125 3.05664 5.8125 3.375C5.8125 3.69336 6.05664 3.9375 6.375 3.9375H7.125C7.44336 3.9375 7.6875 3.69336 7.6875 3.375Z" fill="black"/>
<path fill-rule="evenodd" clip-rule="evenodd" d="M23.8125 2.625C23.8125 1.27539 22.7246 0.1875 21.375 0.1875H2.625C1.27539 0.1875 0.1875 1.27539 0.1875 2.625V21.375C0.1875 22.7246 1.27539 23.8125 2.625 23.8125H21.375C22.7246 23.8125 23.8125 22.7246 23.8125 21.375V2.625ZM22.6875 21.375C22.6875 22.1055 22.1055 22.6875 21.375 22.6875H2.625C1.89453 22.6875 1.3125 22.1055 1.3125 21.375V6.5625H22.6875V21.375ZM21.375 1.3125C22.1055 1.3125 22.6875 1.89453 22.6875 2.625V5.4375H1.3125V2.625C1.3125 1.89453 1.89453 1.3125 2.625 1.3125H21.375Z" fill="black"/>
</g>
<defs>
<clipPath id="clip0_12916_46182">
<rect width="24" height="24" fill="black"/>
</clipPath>
</defs>
</svg>
