<?xml version="1.0" encoding="UTF-8"?>
<svg xmlns="http://www.w3.org/2000/svg" xmlns:xlink="http://www.w3.org/1999/xlink" width="37.5pt" height="37.5pt" viewBox="0 0 37.5 37.5" version="1.1">
<g id="surface4800">
<path style=" stroke:none;fill-rule:nonzero;fill:rgb(0%,0%,0%);fill-opacity:1;" d="M 9.25 1.734375 C 7.167969 1.734375 5.492188 3.410156 5.492188 5.492188 L 5.492188 31.507812 C 5.492188 33.589844 7.167969 35.265625 9.25 35.265625 L 19.367188 35.265625 C 19.859375 35.265625 20.234375 34.890625 20.234375 34.398438 C 20.234375 33.90625 19.859375 33.53125 19.367188 33.53125 L 9.25 33.53125 C 8.121094 33.53125 7.226562 32.636719 7.226562 31.507812 L 7.226562 5.492188 C 7.226562 4.363281 8.121094 3.46875 9.25 3.46875 L 23.992188 3.46875 L 23.992188 5.492188 C 23.992188 7.574219 25.667969 9.25 27.75 9.25 L 30.640625 9.25 C 31.132812 9.25 31.507812 8.875 31.507812 8.382812 C 31.507812 4.710938 28.53125 1.734375 24.859375 1.734375 Z M 25.726562 3.554688 C 27.75 3.902344 29.339844 5.519531 29.6875 7.515625 L 27.75 7.515625 C 26.621094 7.515625 25.726562 6.621094 25.726562 5.492188 Z M 30.640625 11.5625 C 30.148438 11.5625 29.773438 11.9375 29.773438 12.429688 L 29.773438 23.125 C 29.773438 23.617188 30.148438 23.992188 30.640625 23.992188 C 31.132812 23.992188 31.507812 23.617188 31.507812 23.125 L 31.507812 12.429688 C 31.507812 11.9375 31.132812 11.5625 30.640625 11.5625 Z M 20.597656 23.472656 C 20.378906 23.472656 20.160156 23.558594 20.003906 23.730469 C 19.65625 24.078125 19.65625 24.628906 20.003906 24.945312 L 28.558594 33.53125 L 24.511719 33.53125 C 24.28125 33.53125 24.050781 33.617188 23.90625 33.792969 C 23.761719 33.9375 23.644531 34.167969 23.644531 34.398438 C 23.644531 34.890625 24.019531 35.265625 24.511719 35.265625 L 30.640625 35.265625 C 31.132812 35.265625 31.507812 34.890625 31.507812 34.398438 L 31.507812 28.269531 C 31.507812 27.777344 31.132812 27.402344 30.640625 27.402344 C 30.148438 27.402344 29.773438 27.777344 29.773438 28.269531 L 29.773438 32.316406 L 21.21875 23.730469 C 21.042969 23.558594 20.820312 23.472656 20.597656 23.472656 Z M 20.597656 23.472656 "/>
</g>
</svg>
