<svg width="24" height="24" viewBox="0 0 24 24" fill="none" xmlns="http://www.w3.org/2000/svg">
<path d="M4.365 5.08754C3.2925 6.14254 2.48 7.45504 1.98 8.88004C1.8875 9.17504 2.035 9.49004 2.33 9.58254C2.3875 9.60254 2.4425 9.62004 2.515 9.62004C2.7375 9.62004 2.96 9.47254 3.035 9.25004C3.46 7.99254 4.18 6.84504 5.125 5.90254C5.3475 5.68004 5.3475 5.32754 5.125 5.12504C4.92 4.88504 4.57 4.88504 4.365 5.08754Z" fill="black"/>
<path d="M15.485 3.40504C13.245 2.25754 10.6925 2.01754 8.27 2.75754C7.9725 2.85004 7.8075 3.16254 7.9 3.44004C7.9925 3.73754 8.3075 3.90254 8.585 3.81004C13.005 2.46004 17.65 4.82754 19.13 9.21254C19.2025 9.43504 19.425 9.58254 19.6475 9.58254C19.7025 9.58254 19.7575 9.56504 19.8325 9.54504C20.1275 9.45254 20.275 9.14004 20.1825 8.84254C19.4075 6.49254 17.7225 4.55004 15.485 3.40504Z" fill="black"/>
<path d="M11.58 12.7275C10.73 15.3 8.325 17.02 5.625 17.02C5.31 17.02 5.07 17.26 5.07 17.575C5.07 17.89 5.31 18.13 5.625 18.13C8.805 18.13 11.6375 16.095 12.635 13.06L12.82 12.5425C13.135 11.58 12.6175 10.5275 11.655 10.2125C11.1925 10.065 10.6925 10.0825 10.25 10.305C9.805 10.5275 9.4725 10.8975 9.325 11.3775L9.1575 11.895C8.62 13.4125 7.215 14.43 5.625 14.43C5.31 14.43 5.07 14.67 5.07 14.985C5.07 15.3 5.31 15.54 5.625 15.54C7.695 15.54 9.5275 14.2275 10.1925 12.2475L10.36 11.73C10.415 11.545 10.545 11.395 10.73 11.3025C10.915 11.21 11.1 11.1925 11.3025 11.2675C11.6925 11.395 11.895 11.8225 11.765 12.21L11.58 12.7275Z" fill="black"/>
<path d="M17.7225 14.19C17.9625 13.4675 18.0925 12.7275 18.0925 11.97C18.0925 8.08504 14.9475 4.94004 11.0625 4.94004C7.845 4.94004 5.05 7.10504 4.255 10.2125C4.1075 10.7675 4.2375 11.34 4.5875 11.8025C4.94 12.265 5.475 12.525 6.05 12.525C6.9 12.525 7.6225 11.95 7.845 11.1375C8.215 9.65754 9.545 8.64004 11.0625 8.64004C11.95 8.64004 12.7825 8.99004 13.4125 9.62004C14.0425 10.25 14.3925 11.0825 14.3925 11.97C14.3925 12.32 14.3375 12.6725 14.2275 13.025L14.0425 13.56C13.56 15.0025 12.71 16.3175 11.58 17.335C11.36 17.5375 11.34 17.89 11.545 18.1125C11.7475 18.3325 12.1 18.3525 12.32 18.1475C13.58 17.0025 14.54 15.54 15.095 13.9125L15.28 13.375C15.43 12.9125 15.5025 12.45 15.5025 11.97C15.5025 9.52754 13.505 7.53004 11.0625 7.53004C9.0275 7.53004 7.27 8.89754 6.7525 10.86C6.6775 11.175 6.3825 11.415 6.03 11.415C5.79 11.415 5.5875 11.3025 5.44 11.1175C5.29 10.9325 5.255 10.7125 5.31 10.49C5.975 7.86254 8.3425 6.05004 11.045 6.05004C12.6175 6.05004 14.115 6.66004 15.225 7.78754C16.335 8.91754 16.965 10.3975 16.965 11.97C16.965 12.5975 16.8725 13.2275 16.6675 13.8375L16.5025 14.375C15.65 16.9275 13.9125 19.11 11.6175 20.5175C11.36 20.6825 11.2675 21.015 11.4325 21.275C11.545 21.4425 11.73 21.535 11.915 21.535C12.0075 21.535 12.1175 21.515 12.21 21.46C14.725 19.925 16.6325 17.52 17.5575 14.7075L17.7225 14.19Z" fill="black"/>
<path d="M8.695 19.055C8.1225 19.2575 7.51 19.425 6.92 19.5175C6.6225 19.555 6.4 19.85 6.4575 20.1475C6.4925 20.425 6.735 20.6275 7.0125 20.6275C7.03 20.6275 7.0675 20.6275 7.085 20.6275C7.77 20.535 8.435 20.35 9.0825 20.11C9.38 19.9975 9.51 19.685 9.4175 19.3875C9.305 19.0925 8.99 18.9625 8.695 19.055Z" fill="black"/>
</svg>
