<svg width="24" height="24" viewBox="0 0 24 24" fill="none" xmlns="http://www.w3.org/2000/svg">
<g clip-path="url(#clip0_13117_316)">
<path d="M11.84 0.185059C8.7325 0.185059 5.81 1.40506 3.6075 3.60756C3.385 3.83006 3.385 4.18006 3.6075 4.38506C3.83 4.60756 4.18 4.60756 4.38499 4.38506C6.38249 2.38756 9.0275 1.29506 11.84 1.29506C17.65 1.29506 22.385 6.03006 22.385 11.8401C22.385 17.6501 17.65 22.3851 11.84 22.3851C8.88 22.3851 6.1425 21.1826 4.145 19.0551H6.29C6.60499 19.0551 6.84499 18.8151 6.84499 18.5001C6.84499 18.1851 6.60499 17.9451 6.29 17.9451H2.96C2.645 17.9451 2.405 18.1851 2.405 18.5001V21.8301C2.405 22.1451 2.645 22.3851 2.96 22.3851C3.275 22.3851 3.515 22.1451 3.515 21.8301V19.9976C5.6975 22.2376 8.6575 23.4951 11.84 23.4951C18.26 23.4951 23.495 18.2601 23.495 11.8401C23.495 5.42006 18.26 0.185059 11.84 0.185059Z" fill="black"/>
<path d="M0.814996 13.2101C0.517496 13.2651 0.314996 13.5426 0.369995 13.8576C0.479995 14.4851 0.647496 15.1326 0.869995 15.7426C0.942495 15.9651 1.165 16.1126 1.3875 16.1126C1.4425 16.1126 1.5175 16.0951 1.5725 16.0776C1.8675 15.9651 2.0175 15.6501 1.905 15.3726C1.7025 14.8176 1.555 14.2451 1.4625 13.6726C1.405 13.3576 1.11 13.1526 0.814996 13.2101Z" fill="black"/>
<path d="M0.777495 10.8226C0.794996 10.8226 0.832495 10.8226 0.849995 10.8226C1.1275 10.8226 1.37 10.6201 1.40499 10.3426C1.555 9.23256 1.8875 8.17756 2.3875 7.17756C2.515 6.90006 2.40499 6.56756 2.1275 6.43756C1.85 6.30756 1.5175 6.42006 1.3875 6.69756C0.849995 7.80756 0.479995 8.97256 0.314996 10.1926C0.259995 10.4901 0.462495 10.7676 0.777495 10.8226Z" fill="black"/>
<path d="M11.84 7.58506C11.525 7.58506 11.285 7.82506 11.285 8.14006V12.2101C11.285 12.3576 11.34 12.5051 11.4525 12.5976L13.875 15.0401C13.985 15.1526 14.135 15.2076 14.2625 15.2076C14.3925 15.2076 14.54 15.1526 14.6525 15.0401C14.875 14.8176 14.875 14.4676 14.6525 14.2626L12.395 11.9876V8.14006C12.395 7.82506 12.155 7.58506 11.84 7.58506Z" fill="black"/>
</g>
<defs>
<clipPath id="clip0_13117_316">
<rect width="24" height="24" fill="black"/>
</clipPath>
</defs>
</svg>
