<svg width="24" height="24" viewBox="0 0 24 24" fill="none" xmlns="http://www.w3.org/2000/svg">
<path fill-rule="evenodd" clip-rule="evenodd" d="M11.8976 22.8051C17.9212 22.8051 22.8051 17.9211 22.8051 11.8976C22.8051 5.87402 17.9212 0.990051 11.8976 0.990051C5.87411 0.990051 0.990143 5.87402 0.990143 11.8976C0.990143 17.9211 5.87411 22.8051 11.8976 22.8051ZM11.4476 1.93678C10.4181 2.15045 9.40854 3.09395 8.6036 4.70437C8.3601 5.19152 8.14057 5.73073 7.94966 6.31364C9.03075 6.54127 10.2081 6.68037 11.4476 6.70761V1.93678ZM15.1917 4.70437C14.3867 3.09395 13.3771 2.15045 12.3476 1.93678V6.70774C13.5892 6.68115 14.7684 6.54508 15.8477 6.32003C15.6563 5.73467 15.4361 5.1933 15.1917 4.70437ZM11.4476 7.60782C10.125 7.57995 8.8613 7.42986 7.69569 7.17975C7.36196 8.45906 7.15832 9.90583 7.125 11.4476H11.4476V7.60782ZM16.1013 7.18634C16.434 8.46403 16.637 9.90848 16.6703 11.4476H12.3476V7.60793C13.6696 7.58075 14.9356 7.43424 16.1013 7.18634ZM7.69397 16.6088C8.85971 16.3609 10.1256 16.2144 11.4476 16.1872V12.3476H7.125C7.15827 13.8866 7.36126 15.3311 7.69397 16.6088ZM16.0996 16.6154C14.934 16.3652 13.6703 16.2152 12.3476 16.1873V12.3476H16.6703C16.637 13.8893 16.4333 15.336 16.0996 16.6154ZM11.4476 17.0874C10.2061 17.114 9.02689 17.25 7.94757 17.4751C8.13897 18.0604 8.35921 18.6018 8.6036 19.0907C9.40854 20.7012 10.4181 21.6446 11.4476 21.8583V17.0874ZM15.1917 19.0907C14.3867 20.7012 13.3771 21.6446 12.3476 21.8583V17.0875C13.5872 17.1147 14.7645 17.2538 15.8456 17.4815C15.6547 18.0644 15.4352 18.6036 15.1917 19.0907ZM6.82069 6.96843C6.46815 8.32545 6.25803 9.84418 6.2248 11.4476H1.90008C1.99297 9.34906 2.73231 7.41843 3.92377 5.84997C4.76386 6.29804 5.74141 6.67761 6.82069 6.96843ZM6.81867 16.8189C6.46735 15.4639 6.25797 13.9479 6.2248 12.3476H1.90008C1.99309 14.4486 2.73412 16.3814 3.92816 17.9509C4.7586 17.4928 5.73571 17.1099 6.81867 16.8189ZM16.9746 16.8267C17.3271 15.4696 17.5373 13.9509 17.5705 12.3476H21.8952C21.8023 14.446 21.063 16.3767 19.8715 17.9451C19.0314 17.4971 18.0539 17.1175 16.9746 16.8267ZM19.8671 5.8442C21.0612 7.4137 21.8022 9.34649 21.8952 11.4476H17.5705C17.5373 9.84724 17.3279 8.33125 16.9766 6.9762C18.0596 6.68522 19.0367 6.30235 19.8671 5.8442ZM7.07149 6.10389C7.28072 5.45411 7.52457 4.85014 7.79856 4.30198C8.19683 3.50519 8.67154 2.80429 9.21091 2.2549C7.38049 2.76392 5.76117 3.78021 4.51397 5.14276C5.25693 5.52157 6.11854 5.84819 7.07149 6.10389ZM19.2782 5.13932C18.5455 5.52546 17.6845 5.85518 16.7263 6.11153C16.5165 5.45885 16.2718 4.85229 15.9967 4.30198C15.5985 3.50519 15.1237 2.80429 14.5844 2.2549C16.4133 2.76349 18.0314 3.7785 19.2782 5.13932ZM7.06903 17.6836C6.1108 17.9399 5.24981 18.2696 4.51712 18.6558C5.7639 20.0166 7.38203 21.0316 9.21091 21.5402C8.67155 20.9908 8.19683 20.2899 7.79856 19.4931C7.5235 18.9428 7.27881 18.3363 7.06903 17.6836ZM15.9967 19.4931C16.2707 18.945 16.5146 18.341 16.7238 17.6912C17.6767 17.9469 18.5384 18.2735 19.2813 18.6523C18.0341 20.0149 16.4148 21.0312 14.5844 21.5402C15.1237 20.9908 15.5985 20.2899 15.9967 19.4931Z" fill="black"/>
</svg>
