<?xml version="1.0" encoding="UTF-8"?>
<svg xmlns="http://www.w3.org/2000/svg" xmlns:xlink="http://www.w3.org/1999/xlink" width="37.5pt" height="37.5pt" viewBox="0 0 37.5 37.5" version="1.1">
<g id="surface3278">
<path style=" stroke:none;fill-rule:nonzero;fill:rgb(0%,0%,0%);fill-opacity:1;" d="M 11.273438 6.648438 L 11.273438 21.5625 L 6.648438 17.632812 C 5.578125 16.738281 3.988281 16.679688 2.890625 17.546875 C 1.617188 18.527344 1.359375 20.320312 2.285156 21.621094 L 12.601562 36.335938 C 12.777344 36.566406 13.035156 36.710938 13.324219 36.710938 C 13.5 36.710938 13.671875 36.652344 13.816406 36.566406 C 14.222656 36.277344 14.308594 35.757812 14.019531 35.351562 L 3.699219 20.640625 C 3.324219 20.089844 3.441406 19.339844 3.960938 18.933594 C 4.421875 18.585938 5.085938 18.585938 5.550781 18.960938 L 14.480469 26.535156 C 14.859375 26.855469 15.40625 26.796875 15.695312 26.449219 C 16.015625 26.074219 15.957031 25.523438 15.609375 25.234375 L 13.007812 23.039062 L 13.007812 6.648438 C 13.007812 5.867188 13.644531 5.203125 14.453125 5.203125 C 15.261719 5.203125 15.898438 5.839844 15.898438 6.648438 L 15.898438 17.921875 C 15.898438 18.414062 16.273438 18.789062 16.765625 18.789062 C 17.257812 18.789062 17.632812 18.414062 17.632812 17.921875 L 17.632812 3.46875 C 17.632812 2.660156 18.269531 2.023438 19.078125 2.023438 C 19.886719 2.023438 20.523438 2.660156 20.523438 3.46875 L 20.523438 19.078125 C 20.523438 19.570312 20.898438 19.945312 21.390625 19.945312 C 21.882812 19.945312 22.257812 19.570312 22.257812 19.078125 L 22.257812 6.648438 C 22.257812 5.839844 22.894531 5.203125 23.675781 5.203125 C 24.484375 5.203125 25.148438 5.867188 25.148438 6.675781 L 25.148438 20.8125 C 25.148438 21.304688 25.523438 21.679688 26.015625 21.679688 C 26.507812 21.679688 26.882812 21.304688 26.882812 20.8125 L 26.882812 12.113281 C 26.882812 11.332031 27.519531 10.695312 28.300781 10.695312 L 28.355469 10.695312 C 28.734375 10.695312 29.078125 10.839844 29.367188 11.101562 C 29.628906 11.359375 29.773438 11.734375 29.773438 12.113281 L 29.773438 24.28125 C 29.773438 30.234375 27.027344 35.382812 27 35.4375 C 26.765625 35.871094 26.910156 36.394531 27.34375 36.625 C 27.488281 36.683594 27.632812 36.738281 27.75 36.738281 C 28.066406 36.738281 28.355469 36.566406 28.5 36.277344 C 28.617188 36.046875 31.507812 30.726562 31.507812 24.308594 L 31.507812 12.113281 C 31.507812 11.273438 31.191406 10.492188 30.582031 9.886719 C 29.976562 9.277344 29.195312 8.960938 28.355469 8.960938 L 28.300781 8.960938 C 27.808594 8.960938 27.316406 9.078125 26.882812 9.308594 L 26.882812 6.675781 C 26.882812 4.914062 25.4375 3.46875 23.675781 3.46875 C 23.152344 3.46875 22.664062 3.585938 22.257812 3.816406 L 22.257812 3.46875 C 22.257812 1.707031 20.839844 0.289062 19.078125 0.289062 C 17.316406 0.289062 15.898438 1.707031 15.898438 3.46875 L 15.898438 3.816406 C 15.464844 3.585938 14.972656 3.46875 14.453125 3.46875 C 12.691406 3.46875 11.273438 4.886719 11.273438 6.648438 Z M 11.273438 6.648438 "/>
</g>
</svg>
