<svg width="24" height="24" viewBox="0 0 24 24" fill="none" xmlns="http://www.w3.org/2000/svg">
<path d="M12 20.4375H11.25C10.3125 20.4375 9.5625 21.1875 9.5625 22.125C9.5625 23.0625 10.3125 23.8125 11.25 23.8125H12C12.7305 23.8125 13.3496 23.3438 13.5938 22.6875H18.1875C19.2188 22.6875 20.0625 21.8438 20.0625 20.8125C20.0625 20.4941 19.8184 20.25 19.5 20.25C19.1816 20.25 18.9375 20.4941 18.9375 20.8125C18.9375 21.2246 18.5996 21.5625 18.1875 21.5625H13.5938C13.3496 20.9062 12.7305 20.4375 12 20.4375ZM12 22.6875H11.25C10.9316 22.6875 10.6875 22.4434 10.6875 22.125C10.6875 21.8066 10.9316 21.5625 11.25 21.5625H12C12.3184 21.5625 12.5625 21.8066 12.5625 22.125C12.5625 22.4434 12.3184 22.6875 12 22.6875Z" fill="black"/>
<path d="M4.34961 18.543C4.93164 19.2559 5.69922 19.6875 6.5625 19.6875C8.32422 19.6875 9.75 17.832 9.75 15.5625C9.75 13.293 8.32422 11.4375 6.5625 11.4375C5.73828 11.4375 4.94922 11.8496 4.36914 12.582C3.30078 12.6758 2.4375 14.0059 2.4375 15.5625C2.4375 17.1191 3.30078 18.4492 4.34961 18.543ZM6.5625 13.6875C6.90039 13.6875 7.5 14.4004 7.5 15.5625C7.5 16.7246 6.90039 17.4375 6.5625 17.4375C6.22461 17.4375 5.625 16.7246 5.625 15.5625C5.625 14.4004 6.22461 13.6875 6.5625 13.6875Z" fill="black"/>
<path d="M17.4375 12.5625C17.7559 12.5625 18 12.3184 18 12C18 11.6816 17.7559 11.4375 17.4375 11.4375C15.6758 11.4375 14.25 13.293 14.25 15.5625C14.25 17.832 15.6758 19.6875 17.4375 19.6875C17.7559 19.6875 18 19.4434 18 19.125C18 18.8066 17.7559 18.5625 17.4375 18.5625C16.3125 18.5625 15.375 17.1934 15.375 15.5625C15.375 13.9316 16.3125 12.5625 17.4375 12.5625Z" fill="black"/>
<path d="M20.0625 9.1875C20.0625 4.74414 16.4434 1.125 12 1.125C7.55664 1.125 3.9375 4.74414 3.9375 9.1875V10.125C3.9375 10.4434 4.18164 10.6875 4.5 10.6875C4.81836 10.6875 5.0625 10.4434 5.0625 10.125V9.1875C5.0625 5.36328 8.17578 2.25 12 2.25C15.8242 2.25 18.9375 5.36328 18.9375 9.1875V12.6758C18.0742 13.0508 17.4375 14.2129 17.4375 15.5625C17.4375 16.9121 18.0742 18.0742 18.9375 18.4492V18.5625C18.9375 18.8809 19.1816 19.125 19.5 19.125C19.8184 19.125 20.0625 18.8809 20.0625 18.5625V18.4492C20.9258 18.0742 21.5625 16.9121 21.5625 15.5625C21.5625 14.2129 20.9258 13.0508 20.0625 12.6758V9.1875Z" fill="black"/>
</svg>
