<?xml version="1.0" encoding="UTF-8"?>
<svg xmlns="http://www.w3.org/2000/svg" xmlns:xlink="http://www.w3.org/1999/xlink" width="37.5pt" height="37.5pt" viewBox="0 0 37.5 37.5" version="1.1">
<g id="surface4320">
<path style=" stroke:none;fill-rule:nonzero;fill:rgb(0%,0%,0%);fill-opacity:1;" d="M 31.507812 18.644531 C 30.324219 18.644531 29.253906 19.105469 28.414062 19.828125 C 28.328125 18.441406 28.183594 17.285156 28.097656 16.535156 C 28.066406 16.273438 28.039062 15.957031 28.011719 15.871094 C 28.011719 15.8125 28.011719 15.753906 27.980469 15.695312 C 27.605469 12.835938 17.632812 12.691406 15.609375 12.691406 C 13.527344 12.691406 3.238281 12.835938 3.179688 15.839844 C 3.179688 15.839844 3.179688 15.871094 3.179688 15.871094 C 3.179688 15.957031 3.152344 16.246094 3.09375 16.535156 C 2.773438 19.28125 1.707031 27.664062 6.128906 32.664062 C 8.324219 35.148438 11.503906 36.394531 15.609375 36.394531 C 19.714844 36.394531 22.894531 35.148438 25.089844 32.664062 C 26.679688 30.84375 27.578125 28.589844 28.039062 26.304688 C 28.878906 27.289062 30.121094 27.894531 31.507812 27.894531 C 34.050781 27.894531 36.132812 25.8125 36.132812 23.269531 C 36.132812 20.726562 34.050781 18.644531 31.507812 18.644531 Z M 15.609375 14.425781 C 21.621094 14.425781 25.207031 15.292969 26.132812 15.871094 C 25.175781 16.449219 21.59375 17.316406 15.609375 17.316406 C 9.625 17.316406 6.011719 16.449219 5.085938 15.871094 C 6.011719 15.292969 9.597656 14.425781 15.609375 14.425781 Z M 23.789062 31.507812 C 21.941406 33.589844 19.195312 34.660156 15.609375 34.660156 C 12.023438 34.660156 9.277344 33.589844 7.429688 31.507812 C 3.902344 27.519531 4.363281 20.726562 4.710938 17.574219 C 7.6875 18.933594 14.019531 19.019531 15.609375 19.019531 C 17.199219 19.019531 23.53125 18.933594 26.507812 17.574219 C 26.855469 20.753906 27.316406 27.519531 23.789062 31.507812 Z M 31.507812 26.160156 C 29.917969 26.160156 28.617188 24.859375 28.617188 23.269531 C 28.617188 21.679688 29.917969 20.378906 31.507812 20.378906 C 33.097656 20.378906 34.398438 21.679688 34.398438 23.269531 C 34.398438 24.859375 33.097656 26.160156 31.507812 26.160156 Z M 5.609375 10.839844 C 5.375 10.839844 5.175781 10.753906 5 10.578125 C 2.773438 8.355469 2.773438 4.742188 5 2.515625 C 6.070312 1.445312 7.488281 0.867188 8.960938 0.867188 C 11.273438 0.867188 13.035156 2.371094 14.570312 3.699219 C 16.765625 5.609375 17.921875 6.445312 19.65625 4.683594 C 19.683594 4.652344 19.683594 4.652344 19.714844 4.625 L 21.128906 3.410156 C 22.230469 2.484375 23.847656 2.398438 25.03125 3.207031 L 26.132812 3.960938 C 26.765625 4.394531 27.519531 4.625 28.300781 4.625 C 28.761719 4.625 29.167969 5 29.167969 5.492188 C 29.167969 5.984375 28.789062 6.359375 28.300781 6.359375 C 28.300781 6.359375 28.269531 6.359375 28.269531 6.359375 C 27.144531 6.359375 26.074219 6.042969 25.148438 5.40625 L 24.050781 4.652344 C 23.5 4.277344 22.75 4.308594 22.230469 4.742188 L 20.839844 5.925781 C 17.894531 8.84375 15.40625 6.734375 13.441406 5.03125 C 12.054688 3.84375 10.636719 2.601562 8.960938 2.601562 C 7.949219 2.601562 6.964844 3.007812 6.214844 3.757812 C 4.683594 5.289062 4.683594 7.804688 6.214844 9.367188 C 6.5625 9.710938 6.5625 10.261719 6.214844 10.578125 C 6.042969 10.753906 5.839844 10.839844 5.609375 10.839844 Z M 35.554688 6.359375 L 32.664062 6.359375 C 32.171875 6.359375 31.796875 5.984375 31.796875 5.492188 C 31.796875 5 32.171875 4.625 32.664062 4.625 L 35.554688 4.625 C 36.046875 4.625 36.421875 5 36.421875 5.492188 C 36.421875 5.984375 36.046875 6.359375 35.554688 6.359375 Z M 35.554688 6.359375 "/>
</g>
</svg>
