<svg width="24" height="24" viewBox="0 0 24 24" fill="none" xmlns="http://www.w3.org/2000/svg">
<path fill-rule="evenodd" clip-rule="evenodd" d="M4.5 6.75C5.09961 6.15039 5.90625 5.8125 6.75 5.8125C7.59375 5.8125 8.40039 6.15039 9 6.75C10.2383 8.00586 10.2383 10.0313 9 11.2695C8.40039 11.8691 7.59375 12.207 6.75 12.207C5.90625 12.207 5.09961 11.8691 4.5 11.2695C3.26172 10.0117 3.26172 7.98828 4.5 6.75ZM6.75 11.0625C7.29297 11.0625 7.81836 10.8555 8.21289 10.4629C9.01953 9.65625 9.01953 8.34375 8.21289 7.53711C7.81836 7.14453 7.3125 6.9375 6.75 6.9375C6.1875 6.9375 5.68164 7.14453 5.28711 7.53711C4.48047 8.34375 4.48047 9.65625 5.28711 10.4629C5.68164 10.8555 6.20703 11.0625 6.75 11.0625Z" fill="black"/>
<path fill-rule="evenodd" clip-rule="evenodd" d="M0.1875 4.875C0.1875 3.52539 1.27539 2.4375 2.625 2.4375H21.375C22.7246 2.4375 23.8125 3.52539 23.8125 4.875V12.6758C23.8125 12.9941 23.5684 13.2383 23.25 13.2383C23.2317 13.2383 23.2134 13.2335 23.1948 13.2287C23.1758 13.2238 23.1565 13.2188 23.1367 13.2188C14.793 11.5508 9.26172 14.1758 7.125 20.8125H21.375C22.1055 20.8125 22.6875 20.2305 22.6875 19.5V16.4258C22.6875 16.1055 22.9316 15.8633 23.25 15.8633C23.5684 15.8633 23.8125 16.1055 23.8125 16.4258V19.5C23.8125 20.8496 22.7246 21.9375 21.375 21.9375H2.625C1.27539 21.9375 0.1875 20.8496 0.1875 19.5V4.875ZM5.96289 20.8125C8.13672 13.5742 14.043 10.4629 22.6875 11.9805V4.875C22.6875 4.14453 22.1055 3.5625 21.375 3.5625H2.625C1.89453 3.5625 1.3125 4.14453 1.3125 4.875V19.5C1.3125 20.2305 1.89453 20.8125 2.625 20.8125H5.96289Z" fill="black"/>
</svg>
