<svg width="24" height="24" viewBox="0 0 24 24" fill="none" xmlns="http://www.w3.org/2000/svg">
<path d="M18.315 6.66C16.9275 6.66 15.6325 7.1975 14.6525 8.1775L8.25 14.725C6.66 16.3175 4.0875 16.3175 2.4975 14.725C1.72 13.95 1.295 12.9325 1.295 11.84C1.295 10.7475 1.72 9.73 2.48 8.955C3.2375 8.1775 4.2725 7.77 5.365 7.77H9.5825L7.7525 9.6025C7.53 9.82249 7.53 10.175 7.7525 10.3775C7.8625 10.49 8.01 10.545 8.14 10.545C8.27 10.545 8.4175 10.49 8.5275 10.3775L11.3025 7.6025C11.525 7.3825 11.525 7.03 11.3025 6.8275L8.5275 4.0525C8.3075 3.83 7.955 3.83 7.7525 4.0525C7.53 4.2725 7.53 4.625 7.7525 4.8275L9.5825 6.66H5.365C3.9775 6.66 2.6825 7.1975 1.7025 8.1775C0.722498 9.1575 0.184998 10.4525 0.184998 11.84C0.184998 13.2275 0.722498 14.5225 1.7025 15.5025C3.7175 17.52 7.0125 17.52 9.0275 15.5025L15.43 8.9725C16.205 8.195 17.2225 7.77 18.315 7.77C19.4075 7.77 20.425 8.195 21.2 8.955C21.9775 9.7125 22.385 10.7475 22.385 11.84C22.385 12.9325 21.96 13.95 21.2 14.725C20.4425 15.5025 19.4075 15.91 18.315 15.91H14.0975L15.9275 14.0775C16.15 13.8575 16.15 13.505 15.9275 13.3025C15.7075 13.08 15.355 13.08 15.1525 13.3025L12.3775 16.0775C12.155 16.2975 12.155 16.65 12.3775 16.8525L15.1525 19.6275C15.2625 19.74 15.41 19.795 15.54 19.795C15.67 19.795 15.8175 19.74 15.9275 19.6275C16.15 19.4075 16.15 19.055 15.9275 18.8525L14.0975 17.02H18.315C19.7025 17.02 20.9975 16.4825 21.9775 15.5025C22.9575 14.5225 23.495 13.2275 23.495 11.84C23.495 10.4525 22.9575 9.1575 21.9775 8.1775C20.9975 7.1975 19.7025 6.66 18.315 6.66Z" fill="black"/>
</svg>
