<?xml version="1.0" encoding="UTF-8"?>
<svg xmlns="http://www.w3.org/2000/svg" xmlns:xlink="http://www.w3.org/1999/xlink" width="37.5pt" height="37.5pt" viewBox="0 0 37.5 37.5" version="1.1">
<g id="surface4680">
<path style=" stroke:none;fill-rule:nonzero;fill:rgb(0%,0%,0%);fill-opacity:1;" d="M 4.625 36.710938 C 6.707031 36.710938 8.46875 35.207031 8.875 33.242188 L 22.34375 33.242188 C 24.019531 33.242188 25.582031 32.578125 26.765625 31.390625 C 26.796875 31.363281 26.824219 31.335938 26.855469 31.277344 L 28.617188 28.789062 C 28.789062 28.53125 29.050781 28.558594 29.167969 28.589844 C 29.28125 28.617188 29.511719 28.703125 29.570312 28.992188 L 30.089844 31.421875 C 30.324219 32.460938 31.277344 33.242188 32.347656 33.242188 C 33.472656 33.242188 34.371094 32.347656 34.371094 31.21875 L 34.371094 30.726562 C 35.207031 31.738281 35.121094 33.242188 34.195312 34.195312 C 33.183594 35.207031 31.535156 35.207031 30.523438 34.195312 C 30.121094 33.792969 29.859375 33.269531 29.773438 32.691406 C 29.714844 32.230469 29.28125 31.882812 28.789062 31.941406 C 28.328125 32 27.980469 32.433594 28.039062 32.925781 C 28.15625 33.878906 28.589844 34.746094 29.28125 35.410156 C 30.121094 36.25 31.246094 36.683594 32.347656 36.683594 C 33.445312 36.683594 34.570312 36.25 35.410156 35.410156 C 37.085938 33.734375 37.085938 30.957031 35.410156 29.28125 C 35.09375 28.964844 34.746094 28.734375 34.371094 28.53125 L 34.371094 6.648438 C 34.371094 6.15625 33.992188 5.78125 33.503906 5.78125 C 33.011719 5.78125 32.636719 6.15625 32.636719 6.648438 L 32.636719 31.21875 C 32.636719 31.390625 32.519531 31.507812 32.347656 31.507812 C 32.085938 31.507812 31.855469 31.304688 31.796875 31.074219 L 31.277344 28.644531 C 31.074219 27.75 30.410156 27.085938 29.511719 26.910156 C 28.617188 26.738281 27.75 27.085938 27.199219 27.808594 L 25.464844 30.234375 C 24.628906 31.074219 23.5 31.507812 22.316406 31.507812 L 8.875 31.507812 C 8.46875 29.542969 6.707031 28.039062 4.625 28.039062 C 2.226562 28.039062 0.289062 29.976562 0.289062 32.375 C 0.289062 34.773438 2.226562 36.710938 4.625 36.710938 Z M 4.625 29.773438 C 5.753906 29.773438 6.707031 30.496094 7.082031 31.507812 L 4.625 31.507812 C 4.132812 31.507812 3.757812 31.882812 3.757812 32.375 C 3.757812 32.867188 4.132812 33.242188 4.625 33.242188 L 7.082031 33.242188 C 6.734375 34.253906 5.753906 34.976562 4.625 34.976562 C 3.179688 34.976562 2.023438 33.820312 2.023438 32.375 C 2.023438 30.929688 3.179688 29.773438 4.625 29.773438 Z M 32.375 4.914062 C 33.648438 4.914062 34.6875 3.875 34.6875 2.601562 C 34.6875 1.328125 33.648438 0.289062 32.375 0.289062 C 31.101562 0.289062 30.0625 1.328125 30.0625 2.601562 C 30.0625 3.875 31.101562 4.914062 32.375 4.914062 Z M 32.375 2.023438 C 32.691406 2.023438 32.953125 2.285156 32.953125 2.601562 C 32.953125 2.917969 32.691406 3.179688 32.375 3.179688 C 32.058594 3.179688 31.796875 2.917969 31.796875 2.601562 C 31.796875 2.285156 32.058594 2.023438 32.375 2.023438 Z M 32.375 2.023438 "/>
</g>
</svg>
