<svg width="24" height="24" viewBox="0 0 24 24" fill="none" xmlns="http://www.w3.org/2000/svg">
<path d="M21.375 16.875C21.0566 16.875 20.8125 16.6309 20.8125 16.3125V5.8125C20.8125 5.08203 20.2305 4.5 19.5 4.5H4.5C3.76953 4.5 3.1875 5.08203 3.1875 5.8125V16.3125C3.1875 16.6309 2.94336 16.875 2.625 16.875C2.30664 16.875 2.0625 16.6309 2.0625 16.3125V5.8125C2.0625 4.46289 3.15039 3.375 4.5 3.375H19.5C20.8496 3.375 21.9375 4.46289 21.9375 5.8125V16.3125C21.9375 16.6309 21.6934 16.875 21.375 16.875Z" fill="black"/>
<path d="M8.98047 13.0879C9.20703 13.293 9.22461 13.6504 9.01953 13.875C8.90625 14.0059 8.75586 14.0625 8.60547 14.0625C8.47461 14.0625 8.34375 14.0254 8.23047 13.9121L5.96289 11.8496C5.84961 11.7383 5.77539 11.5879 5.77539 11.4375C5.77539 11.2871 5.84961 11.1191 5.96289 11.0254L8.23047 8.94336C8.45703 8.73828 8.8125 8.75586 9.01953 8.98047C9.22461 9.20703 9.20703 9.5625 8.98047 9.76953L7.18164 11.4375L8.98047 13.0879Z" fill="black"/>
<path d="M14.082 7.48047L10.9688 15.7871C10.875 16.0313 10.6309 16.1816 10.3867 16.1445C10.3423 16.1445 10.3082 16.1317 10.2677 16.1164C10.2583 16.1128 10.2486 16.1091 10.2383 16.1055C9.9375 15.9941 9.80664 15.6758 9.90039 15.375L12.9941 7.05078C13.1055 6.75 13.4258 6.61914 13.7246 6.71289C14.043 6.86328 14.1934 7.18164 14.082 7.48047Z" fill="black"/>
<path d="M18.0371 11.8496L15.7695 13.9316C15.6563 14.0254 15.5254 14.082 15.3945 14.082C15.2441 14.082 15.0938 14.0254 14.9805 13.8945C14.7754 13.668 14.793 13.3125 15.0195 13.1055L16.8184 11.457L15.0195 9.80664C14.793 9.59961 14.7754 9.24414 14.9805 9.01953C15.1875 8.79297 15.543 8.77539 15.7695 8.98047L18.0371 11.0625C18.1504 11.1758 18.2246 11.3242 18.2246 11.4746C18.2246 11.625 18.1504 11.7559 18.0371 11.8496Z" fill="black"/>
<path fill-rule="evenodd" clip-rule="evenodd" d="M0.1875 18.9375C0.1875 18.6191 0.431641 18.375 0.75 18.375H23.25C23.5684 18.375 23.8125 18.6191 23.8125 18.9375V19.5C23.8125 20.8496 22.7246 21.9375 21.375 21.9375H2.625C1.27539 21.9375 0.1875 20.8496 0.1875 19.5V18.9375ZM1.3125 19.5C1.3125 20.2305 1.89453 20.8125 2.625 20.8125H21.375C22.1055 20.8125 22.6875 20.2305 22.6875 19.5H1.3125Z" fill="black"/>
</svg>
