<svg width="24" height="24" viewBox="0 0 24 24" fill="none" xmlns="http://www.w3.org/2000/svg">
<g clip-path="url(#clip0_13116_816)">
<path d="M18.87 15.5401C18.87 15.2251 18.63 14.9851 18.315 14.9851H4.0325C2.9225 14.9851 1.96 15.7251 1.7025 16.7976L0.664999 20.9601C0.5175 21.5701 0.6475 22.2001 1.035 22.7001C1.425 23.2001 2.0175 23.4776 2.645 23.4776H21.0525C21.6825 23.4776 22.275 23.2001 22.6625 22.7001C23.05 22.2001 23.18 21.5701 23.0325 20.9601L21.645 15.4651V2.59006C21.645 1.25756 20.5725 0.185059 19.24 0.185059H4.44C3.1075 0.185059 2.035 1.25756 2.035 2.59006V12.9501C2.035 13.2651 2.275 13.5051 2.59 13.5051C2.905 13.5051 3.145 13.2651 3.145 12.9501V2.59006C3.145 1.86756 3.7175 1.29506 4.44 1.29506H19.24C19.9625 1.29506 20.535 1.86756 20.535 2.59006V15.5401C20.535 15.5401 20.535 15.5401 20.535 15.5576C20.535 15.5776 20.535 15.5951 20.535 15.6151C20.535 15.6326 20.535 15.6501 20.535 15.6701C20.535 15.6701 20.535 15.6701 20.535 15.6876L21.9225 21.2576C21.9975 21.5351 21.9225 21.8301 21.755 22.0526C21.57 22.2751 21.3125 22.4026 21.035 22.4026H2.6275C2.33 22.4026 2.0725 22.2751 1.905 22.0526C1.74 21.8301 1.665 21.5351 1.74 21.2576L2.775 17.0751C2.9225 16.5026 3.44 16.0951 4.0325 16.0951H18.315C18.63 16.0951 18.87 15.8551 18.87 15.5401Z" fill="black"/>
<path d="M8.51 19.7951C8.195 19.7951 7.955 20.0351 7.955 20.3501C7.955 20.6651 8.195 20.9051 8.51 20.9051H15.17C15.485 20.9051 15.725 20.6651 15.725 20.3501C15.725 20.0351 15.485 19.7951 15.17 19.7951H8.51Z" fill="black"/>
</g>
<defs>
<clipPath id="clip0_13116_816">
<rect width="24" height="24" fill="black"/>
</clipPath>
</defs>
</svg>
