<svg width="24" height="24" viewBox="0 0 24 24" fill="none" xmlns="http://www.w3.org/2000/svg">
<path d="M18.6555 11.3433C18.9739 11.3433 19.218 11.5874 19.218 11.9058C19.218 12.2241 18.9739 12.4683 18.6555 12.4683H6.69263L9.48755 15.2612C9.71216 15.4683 9.71216 15.8237 9.48755 16.0503C9.28052 16.2749 8.92505 16.2749 8.69849 16.0503L4.94849 12.3003C4.72388 12.0933 4.72388 11.7378 4.94849 11.5112L8.69849 7.76123C8.90552 7.53662 9.26099 7.53662 9.48755 7.76123C9.59888 7.87451 9.65552 8.0249 9.65552 8.15576C9.65552 8.28662 9.59888 8.43701 9.48755 8.55029L6.69263 11.3433H18.6555Z" fill="black"/>
</svg>
