<svg width="24" height="24" viewBox="0 0 24 24" fill="none" xmlns="http://www.w3.org/2000/svg">
<path d="M4.71749 20.0175C4.80999 20.0725 4.90249 20.09 4.99499 20.09C5.17999 20.09 5.38249 19.9975 5.47499 19.8125C6.76999 17.52 9.21249 16.095 11.84 16.095C14.4675 16.095 16.91 17.52 18.2225 19.8125C18.37 20.0725 18.7025 20.165 18.98 20.0175C19.24 19.87 19.3325 19.535 19.185 19.2575C18.13 17.39 16.41 16.04 14.4125 15.3925C15.7425 14.67 16.65 13.265 16.65 11.655V7.03002C16.65 5.69752 15.65 4.60752 14.355 4.45752L14.2825 4.36502C13.745 3.60752 12.8575 3.14502 11.9325 3.14502H9.93499C8.32499 3.14502 7.02999 4.44002 7.02999 6.05002V11.655C7.02999 12.7825 7.47499 13.8575 8.26999 14.67C8.56499 14.9675 8.89749 15.2075 9.24999 15.41C7.26999 16.0575 5.54999 17.4075 4.47749 19.2775C4.34749 19.5175 4.43999 19.87 4.71749 20.0175ZM12.2475 12.9325C12.1175 12.95 11.97 12.95 11.84 12.95C11.6925 12.95 11.545 12.95 11.415 12.9325C11.1175 12.895 10.8975 12.6175 10.9325 12.32C10.97 12.025 11.2475 11.8025 11.545 11.84C11.7475 11.8575 11.95 11.8575 12.135 11.84C12.4325 11.8025 12.71 12.025 12.7475 12.34C12.7825 12.6175 12.5625 12.895 12.2475 12.9325ZM8.13999 9.25002C8.13999 8.95502 8.17749 8.65752 8.24999 8.36252C8.30749 8.12252 8.52749 7.93752 8.78749 7.93752C10.5275 7.90002 12.2275 7.69502 13.505 6.56752C13.58 6.49252 13.6725 6.42002 13.745 6.34502C13.985 6.10502 14.3925 6.12252 14.5975 6.42002C14.7625 6.64252 14.7075 6.95502 14.5225 7.14002C14.4125 7.25252 14.3 7.34502 14.19 7.43752C13.985 7.60252 14.0225 7.91752 14.245 8.04752C14.32 8.08502 14.3925 8.12252 14.4475 8.14002C14.6325 8.21502 14.8175 8.25002 15.04 8.27002C15.28 8.30752 15.485 8.49252 15.5225 8.75002C15.54 8.91752 15.5575 9.06502 15.5575 9.23252C15.5575 10.2675 15.1325 11.21 14.43 11.8775C14.3 12.0075 14.0775 11.97 13.985 11.8025C13.58 11.045 12.7825 10.5075 11.8575 10.5075C10.9325 10.5075 10.1375 11.025 9.72999 11.8025C9.63749 11.97 9.41749 12.0075 9.28749 11.8775C8.56499 11.23 8.13999 10.285 8.13999 9.25002Z" fill="black"/>
</svg>
