<?xml version="1.0" encoding="UTF-8"?>
<svg xmlns="http://www.w3.org/2000/svg" xmlns:xlink="http://www.w3.org/1999/xlink" width="37.5pt" height="37.5pt" viewBox="0 0 37.5 37.5" version="1.1">
<g id="surface4086">
<path style=" stroke:none;fill-rule:nonzero;fill:rgb(0%,0%,0%);fill-opacity:1;" d="M 26.332031 18.703125 C 26.246094 18.992188 26.074219 19.136719 25.871094 19.136719 C 25.378906 19.136719 25.003906 19.511719 25.003906 20.003906 C 25.003906 20.496094 25.378906 20.871094 25.871094 20.871094 C 26.855469 20.871094 27.664062 20.234375 27.980469 19.222656 L 30.582031 10.839844 C 30.582031 10.8125 30.582031 10.78125 30.613281 10.753906 C 30.757812 10.089844 30.582031 9.421875 30.179688 8.902344 C 29.773438 8.382812 29.136719 8.09375 28.472656 8.09375 L 26.246094 8.09375 L 18.355469 6.097656 L 18.355469 5.03125 C 18.355469 4.539062 17.980469 4.164062 17.488281 4.164062 C 16.996094 4.164062 16.621094 4.539062 16.621094 5.03125 L 16.621094 6.097656 L 8.613281 8.121094 C 8.410156 8.179688 8.238281 8.296875 8.121094 8.441406 L 6.53125 10.609375 C 6.242188 10.984375 6.332031 11.535156 6.707031 11.824219 C 6.851562 11.9375 7.054688 11.996094 7.226562 11.996094 C 7.488281 11.996094 7.746094 11.878906 7.921875 11.648438 L 9.335938 9.742188 L 17.488281 7.6875 L 21.824219 8.730469 L 20.003906 19.136719 L 13.179688 19.136719 L 10.40625 11.589844 C 10.234375 11.128906 9.742188 10.898438 9.308594 11.070312 C 8.84375 11.246094 8.613281 11.734375 8.789062 12.167969 L 9.191406 13.296875 C 9.191406 13.355469 9.222656 13.414062 9.222656 13.441406 L 11.679688 20.148438 L 11.679688 22.71875 L 8.382812 30.003906 C 8.355469 30.0625 8.355469 30.089844 8.324219 30.148438 C 8.152344 30.785156 8.296875 31.449219 8.699219 31.96875 C 9.105469 32.492188 9.710938 32.78125 10.347656 32.78125 L 24.367188 32.78125 C 25.0625 32.78125 25.667969 32.460938 26.101562 31.941406 C 26.507812 31.390625 26.652344 30.726562 26.507812 30.0625 C 26.507812 30.003906 26.476562 29.976562 26.449219 29.917969 L 23.242188 22.75 L 23.242188 20.175781 L 26.738281 9.855469 L 28.445312 9.855469 C 28.644531 9.855469 28.761719 9.972656 28.789062 10.03125 C 28.847656 10.089844 28.90625 10.203125 28.878906 10.378906 Z M 21.882812 30.871094 C 21.824219 30.929688 21.707031 31.046875 21.535156 31.046875 L 10.40625 31.046875 C 10.261719 31.046875 10.144531 30.957031 10.117188 30.902344 C 10.089844 30.84375 10.03125 30.757812 10.03125 30.640625 L 13.125 23.789062 L 20.0625 23.789062 L 21.96875 30.523438 C 21.996094 30.699219 21.941406 30.8125 21.882812 30.871094 Z M 21.882812 30.871094 "/>
</g>
</svg>
