<svg width="24" height="24" viewBox="0 0 24 24" fill="none" xmlns="http://www.w3.org/2000/svg">
<path d="M13.707 12.4883L10.7441 14.1934C10.3691 14.418 9.90039 14.1367 9.90039 13.707V10.293C9.90039 9.86328 10.3691 9.58203 10.7441 9.80664L13.707 11.5117C14.082 11.7383 14.082 12.2617 13.707 12.4883Z" fill="black"/>
<path fill-rule="evenodd" clip-rule="evenodd" d="M1.6875 18.1875C1.36914 18.1875 1.125 17.9434 1.125 17.625V5.4375C1.125 4.61328 1.80078 3.9375 2.625 3.9375H21.375C22.1992 3.9375 22.875 4.61328 22.875 5.4375V18.5625C22.875 19.3867 22.1992 20.0625 21.375 20.0625H3.5625C3.24414 20.0625 3 19.8184 3 19.5C3 19.1816 3.24414 18.9375 3.5625 18.9375H3.9375V16.3125H2.25V17.625C2.25 17.9434 2.00586 18.1875 1.6875 18.1875ZM21.75 5.4375C21.75 5.23047 21.582 5.0625 21.375 5.0625H20.0625V7.6875H21.75V5.4375ZM21.375 18.9375C21.582 18.9375 21.75 18.7695 21.75 18.5625V16.3125H20.0625V18.9375H21.375ZM6.9375 5.0625C5.90625 5.0625 5.0625 5.90625 5.0625 6.9375V17.0625C5.0625 18.0938 5.90625 18.9375 6.9375 18.9375H17.0625C18.0938 18.9375 18.9375 18.0938 18.9375 17.0625V6.9375C18.9375 5.90625 18.0938 5.0625 17.0625 5.0625H6.9375ZM2.625 5.0625C2.41797 5.0625 2.25 5.23047 2.25 5.4375V7.6875H3.9375V5.0625H2.625ZM2.25 15.1875H3.9375V12.5625H2.25V15.1875ZM2.25 11.4375H3.9375V8.8125H2.25V11.4375ZM21.75 8.8125H20.0625V11.4375H21.75V8.8125ZM21.75 12.5625H20.0625V15.1875H21.75V12.5625Z" fill="black"/>
</svg>
