<svg width="24" height="24" viewBox="0 0 24 24" fill="none" xmlns="http://www.w3.org/2000/svg">
<path d="M23.25 6.74999H19.5C19.1816 6.74999 18.9375 6.99413 18.9375 7.31249C18.9375 7.63085 19.1816 7.87499 19.5 7.87499H21.9004L16.0117 13.7617C15.7871 13.9883 15.7871 14.3437 16.0117 14.5508C16.125 14.6621 16.2754 14.7187 16.4063 14.7187C16.5371 14.7187 16.6875 14.6621 16.8008 14.5508L22.6875 8.6621V11.0625C22.6875 11.3809 22.9316 11.625 23.25 11.625C23.5684 11.625 23.8125 11.3809 23.8125 11.0625V7.31249C23.8125 6.99413 23.5684 6.74999 23.25 6.74999Z" fill="black"/>
<path d="M14.8125 18.5625C14.8125 17.2129 13.8379 16.0684 12.5625 15.8066V3.97461L14.25 5.66211C14.3633 5.77539 14.5117 5.83203 14.6445 5.83203C14.7754 5.83203 14.9258 5.77539 15.0371 5.66211C15.2617 5.4375 15.2617 5.08203 15.0371 4.875L12.3945 2.23047C12.168 2.00586 11.8125 2.00586 11.6055 2.23047L8.94336 4.875C8.71875 5.09961 8.71875 5.45703 8.94336 5.66211C9.16797 5.88672 9.52539 5.88672 9.73047 5.66211L11.418 3.97461V15.8066C11.0625 15.8809 10.7246 16.0117 10.4258 16.2188L2.09961 7.875H4.5C4.81836 7.875 5.0625 7.63086 5.0625 7.3125C5.0625 6.99414 4.81836 6.75 4.5 6.75H0.75C0.431641 6.75 0.1875 6.99414 0.1875 7.3125V11.0625C0.1875 11.3809 0.431641 11.625 0.75 11.625C1.06836 11.625 1.3125 11.3809 1.3125 11.0625V8.66211L9.65625 17.0059C9.35547 17.457 9.1875 17.9805 9.1875 18.5625C9.1875 20.1191 10.4434 21.375 12 21.375C13.5566 21.375 14.8125 20.1191 14.8125 18.5625ZM12 20.25C11.0625 20.25 10.3125 19.5 10.3125 18.5625C10.3125 17.625 11.0625 16.875 12 16.875C12.9375 16.875 13.6875 17.625 13.6875 18.5625C13.6875 19.5 12.9375 20.25 12 20.25Z" fill="black"/>
</svg>
