<svg width="24" height="24" viewBox="0 0 24 24" fill="none" xmlns="http://www.w3.org/2000/svg">
<path d="M20.165 14.615C20.165 14.3 19.925 14.06 19.61 14.06C19.295 14.06 19.055 14.3 19.055 14.615V20.6825L17.2225 18.8525C17.1125 18.74 16.965 18.685 16.835 18.685C16.705 18.685 16.5575 18.74 16.4475 18.8525C16.225 19.0725 16.225 19.425 16.4475 19.6275L19.2225 22.4025C19.4425 22.625 19.795 22.625 19.9975 22.4025L22.7725 19.6275C22.995 19.4075 22.995 19.055 22.7725 18.8525C22.5525 18.63 22.2 18.63 21.9975 18.8525L20.165 20.6825V14.615Z" fill="black"/>
<path d="M5.92001 22.57H14.43C14.745 22.57 14.985 22.33 14.985 22.015C14.985 21.7 14.745 21.46 14.43 21.46H5.92001C5.19751 21.46 4.62501 20.8875 4.62501 20.165V3.51499C4.62501 2.79249 5.19751 2.21999 5.92001 2.21999H15.355V3.51499C15.355 4.84749 16.4275 5.91999 17.76 5.91999H19.055V10.545C19.055 10.86 19.295 11.1 19.61 11.1C19.925 11.1 20.165 10.86 20.165 10.545V5.36498C20.165 4.23749 19.72 3.16249 18.925 2.34999C18.1125 1.55499 17.0375 1.10999 15.91 1.10999H5.92001C4.58751 1.10999 3.51501 2.18249 3.51501 3.51499V20.165C3.51501 21.4975 4.58751 22.57 5.92001 22.57ZM16.465 2.27499C17.095 2.38749 17.6675 2.68249 18.13 3.14498C18.5925 3.60749 18.8875 4.17999 19 4.80999C18.4625 4.80999 17.76 4.80999 17.76 4.80999C17.0375 4.80999 16.465 4.23749 16.465 3.51499V2.27499Z" fill="black"/>
</svg>
