<svg width="24" height="24" viewBox="0 0 24 24" fill="none" xmlns="http://www.w3.org/2000/svg">
<path fill-rule="evenodd" clip-rule="evenodd" d="M3.5625 20.4375C3.5625 21.7871 4.65039 22.875 6 22.875H15C15.3184 22.875 15.5625 22.6309 15.5625 22.3125C15.5625 21.9941 15.3184 21.75 15 21.75H6C5.26953 21.75 4.6875 21.168 4.6875 20.4375V3.5625C4.6875 2.83203 5.26953 2.25 6 2.25H15.5625V3.5625C15.5625 4.91211 16.6504 6 18 6H19.5742C19.8945 6 20.4375 6 20.4375 5.4375C20.4375 4.29297 19.9883 3.20703 19.1816 2.38086C18.375 1.55664 17.2695 1.125 16.125 1.125H6C4.65039 1.125 3.5625 2.21289 3.5625 3.5625V20.4375ZM18.375 3.1875C18.8437 3.65625 19.1445 4.23828 19.2559 4.875H18C17.2695 4.875 16.6875 4.29297 16.6875 3.5625V2.30664C17.3242 2.41797 17.9062 2.71875 18.375 3.1875Z" fill="black"/>
<path d="M19.875 13.5C20.1934 13.5 20.4375 13.2559 20.4375 12.9375V8.0625C20.4375 7.74414 20.1934 7.5 19.875 7.5C19.5566 7.5 19.3125 7.74414 19.3125 8.0625V12.9375C19.3125 13.2559 19.5566 13.5 19.875 13.5Z" fill="black"/>
<path fill-rule="evenodd" clip-rule="evenodd" d="M17.2305 21.7871C15.7695 20.3242 15.7695 17.9434 17.2305 16.4805C18.6934 15 21.0566 15 22.5371 16.4805C24 17.9434 24 20.3242 22.5371 21.7871C21.0742 23.25 18.6934 23.25 17.2305 21.7871ZM20.9805 19.1055L20.4375 19.6504V17.25C20.4375 16.9316 20.1934 16.6875 19.875 16.6875C19.5566 16.6875 19.3125 16.9316 19.3125 17.25V19.6504L18.7695 19.1055C18.5625 18.8809 18.207 18.8809 17.9805 19.1055C17.7559 19.3125 17.7559 19.668 17.9805 19.8945L19.4805 21.3945C19.5371 21.4492 19.5937 21.4883 19.668 21.5254C19.7246 21.543 19.8008 21.5625 19.875 21.5625C20.0254 21.5625 20.1562 21.5059 20.2695 21.3945L21.7695 19.8945C21.9941 19.6875 21.9941 19.332 21.7695 19.1055C21.5625 18.8809 21.207 18.8809 20.9805 19.1055Z" fill="black"/>
</svg>
