<svg width="24" height="24" viewBox="0 0 24 24" fill="none" xmlns="http://www.w3.org/2000/svg">
<path d="M3.145 1.29506H16.095C16.41 1.29506 16.65 1.05506 16.65 0.740059C16.65 0.425059 16.41 0.185059 16.095 0.185059H3.145C1.8125 0.185059 0.739998 1.25756 0.739998 2.59006V21.6826C0.739998 22.1826 0.942498 22.6626 1.295 23.0151C1.6475 23.3476 2.09 23.5326 2.5725 23.5326C2.59 23.5326 2.6075 23.5326 2.6275 23.5326C3.625 23.4951 4.4225 22.6801 4.4225 21.6826V5.18006C4.4225 4.45756 4.995 3.88506 5.7175 3.88506H20.5175C21.2375 3.88506 21.8125 4.45756 21.8125 5.18006V22.9401C21.8125 23.2551 22.0525 23.4951 22.3675 23.4951C22.68 23.4951 22.9225 23.2551 22.9225 22.9401V5.18006C22.9225 3.84756 21.8475 2.77506 20.5175 2.77506H5.735C4.4025 2.77506 3.33 3.84756 3.33 5.18006V21.6826C3.33 22.0901 3.015 22.4026 2.6075 22.4226C2.405 22.4226 2.22 22.3476 2.0725 22.2176C1.925 22.0701 1.85 21.8851 1.85 21.6826V2.59006C1.85 1.86756 2.4225 1.29506 3.145 1.29506Z" fill="black"/>
<path d="M19.795 1.29506C20.11 1.29506 20.35 1.05506 20.35 0.740059C20.35 0.425059 20.11 0.185059 19.795 0.185059H18.87C18.555 0.185059 18.315 0.425059 18.315 0.740059C18.315 1.05506 18.555 1.29506 18.87 1.29506H19.795Z" fill="black"/>
<path d="M16.835 11.2851H9.435C9.12 11.2851 8.88 11.5251 8.88 11.8401C8.88 12.1551 9.12 12.3951 9.435 12.3951H16.835C17.15 12.3951 17.39 12.1551 17.39 11.8401C17.39 11.5251 17.15 11.2851 16.835 11.2851Z" fill="black"/>
<path d="M16.835 14.0601H9.435C9.12 14.0601 8.88 14.3001 8.88 14.6151C8.88 14.9301 9.12 15.1701 9.435 15.1701H16.835C17.15 15.1701 17.39 14.9301 17.39 14.6151C17.39 14.3001 17.15 14.0601 16.835 14.0601Z" fill="black"/>
<path d="M16.835 16.8351H9.435C9.12 16.8351 8.88 17.0751 8.88 17.3901C8.88 17.7051 9.12 17.9451 9.435 17.9451H16.835C17.15 17.9451 17.39 17.7051 17.39 17.3901C17.39 17.0751 17.15 16.8351 16.835 16.8351Z" fill="black"/>
<path d="M16.835 22.3851H14.985C14.67 22.3851 14.43 22.6251 14.43 22.9401C14.43 23.2551 14.67 23.4951 14.985 23.4951H16.835C17.15 23.4951 17.39 23.2551 17.39 22.9401C17.39 22.6251 17.15 22.3851 16.835 22.3851Z" fill="black"/>
</svg>
