<svg width="24" height="24" viewBox="0 0 24 24" fill="none" xmlns="http://www.w3.org/2000/svg">
<path d="M19.055 5.55006C19.055 4.01506 17.815 2.77506 16.28 2.77506C14.745 2.77506 13.505 4.01506 13.505 5.55006C13.505 7.08506 14.745 8.32506 16.28 8.32506C17.815 8.32506 19.055 7.08506 19.055 5.55006ZM14.615 5.55006C14.615 4.62506 15.355 3.88506 16.28 3.88506C17.205 3.88506 17.945 4.62506 17.945 5.55006C17.945 6.47506 17.205 7.21506 16.28 7.21506C15.355 7.21506 14.615 6.47506 14.615 5.55006Z" fill="black"/>
<path d="M7.4 10.9151H16.28C19.24 10.9151 21.645 8.51006 21.645 5.55006C21.645 2.59006 19.24 0.185059 16.28 0.185059H2.59C2.275 0.185059 2.035 0.425059 2.035 0.740059C2.035 1.05506 2.275 1.29506 2.59 1.29506H16.28C18.63 1.29506 20.535 3.20006 20.535 5.55006C20.535 7.90006 18.63 9.80506 16.28 9.80506H7.4C4.44 9.80506 2.035 12.2101 2.035 15.1701C2.035 18.1301 4.44 20.5351 7.4 20.5351H19.7575L17.7425 22.5526C17.52 22.7726 17.52 23.1251 17.7425 23.3276C17.8525 23.4401 18 23.4951 18.13 23.4951C18.26 23.4951 18.4075 23.4401 18.5175 23.3276L21.4775 20.3676C21.7 20.1476 21.7 19.7951 21.4775 19.5926L18.5175 16.6326C18.2975 16.4101 17.945 16.4101 17.7425 16.6326C17.52 16.8526 17.52 17.2051 17.7425 17.4076L19.7575 19.4251H7.4C5.05 19.4251 3.145 17.5201 3.145 15.1701C3.145 12.8201 5.05 10.9151 7.4 10.9151Z" fill="black"/>
</svg>
