<svg width="24" height="24" viewBox="0 0 24 24" fill="none" xmlns="http://www.w3.org/2000/svg">
<path fill-rule="evenodd" clip-rule="evenodd" d="M12.75 14.625C12.75 15.9688 13.8438 17.0625 15.1875 17.0625H17.0625C18.4062 17.0625 19.5 15.9688 19.5 14.625V12.75C19.5 11.4062 18.4062 10.3125 17.0625 10.3125H15.1875C13.8438 10.3125 12.75 11.4062 12.75 12.75V14.625ZM13.875 12.75C13.875 12.0254 14.4629 11.4375 15.1875 11.4375H17.0625C17.7871 11.4375 18.375 12.0254 18.375 12.75V14.625C18.375 15.3496 17.7871 15.9375 17.0625 15.9375H15.1875C14.4629 15.9375 13.875 15.3496 13.875 14.625V12.75Z" fill="black"/>
<path fill-rule="evenodd" clip-rule="evenodd" d="M21.5605 4.46875C22.8809 5.78711 22.8789 8.21875 22.875 13.0664V14.7793C22.8789 19.127 22.8809 21.3086 21.6387 22.5508C20.4609 23.7305 18.3477 23.8164 14.3105 23.8164C14.1456 23.8164 13.9779 23.8159 13.8071 23.8155C13.6303 23.815 13.4493 23.8145 13.2656 23.8145C12.8633 23.8125 12.4414 23.8125 12 23.8125C11.7746 23.8125 11.5544 23.813 11.3392 23.8135L11.3369 23.8135C11.1314 23.814 10.9306 23.8145 10.7344 23.8145L10.713 23.8145C6.0026 23.8223 3.63479 23.8262 2.36133 22.5508C1.11914 21.3086 1.12109 19.127 1.125 14.7793V13.0664C1.11914 8.21875 1.11719 5.78711 2.4375 4.46875C3.30078 3.60547 4.61523 3.31836 6.75 3.22656V0.75C6.75 0.439453 7.00195 0.1875 7.3125 0.1875C7.62305 0.1875 7.875 0.439453 7.875 0.75V3.19531C8.68377 3.18183 9.59506 3.18354 10.6201 3.18546L10.6641 3.18555C11.0879 3.1875 11.5332 3.1875 12 3.1875C12.4668 3.1875 12.9121 3.1875 13.3359 3.18555L13.3799 3.18546C14.403 3.18354 15.3124 3.18183 16.123 3.19531V0.75C16.123 0.439453 16.375 0.1875 16.6855 0.1875C16.9961 0.1875 17.248 0.439453 17.248 0.75V3.22656C19.3848 3.32031 20.6973 3.60742 21.5605 4.46875ZM12 4.3125C11.5332 4.3125 11.0859 4.3125 10.6621 4.31055C6.49414 4.30078 4.19922 4.29688 3.23242 5.26367C2.86719 5.62891 2.63672 6.16992 2.49219 6.9375H21.5078C21.3633 6.16992 21.1328 5.62891 20.7676 5.26367C19.8008 4.29688 17.5039 4.30078 13.3379 4.31055C12.9141 4.3125 12.4668 4.3125 12 4.3125ZM20.8437 21.7539C21.7559 20.8418 21.7539 18.6875 21.75 14.7793V13.0645C21.752 10.9316 21.752 9.29883 21.6504 8.0625H2.34766C2.24654 9.29334 2.24803 10.9172 2.24997 13.038L2.25 14.7793C2.24609 18.6875 2.24414 20.8418 3.15625 21.7539C4.10156 22.7012 6.31836 22.6973 10.7324 22.6895C11.1348 22.6875 11.5586 22.6875 12 22.6875C12.4414 22.6875 12.8652 22.6875 13.2676 22.6895C17.6816 22.6973 19.8984 22.7012 20.8437 21.7539Z" fill="black"/>
</svg>
