<svg width="24" height="24" viewBox="0 0 24 24" fill="none" xmlns="http://www.w3.org/2000/svg">
<path d="M11.84 4.80999C12.765 4.80999 13.56 4.17999 13.8 3.32999H14.2275C15.7425 3.32999 17.2225 3.86749 18.39 4.86499C18.5 4.95749 18.63 4.99499 18.74 4.99499C18.8875 4.99499 19.055 4.91999 19.165 4.79249C19.37 4.54999 19.3325 4.19999 19.11 4.01499C17.7425 2.84999 16.0025 2.21999 14.2075 2.21999H13.7825C13.56 1.36999 12.765 0.73999 11.84 0.73999C10.7125 0.73999 9.805 1.64749 9.805 2.77499C9.805 3.90249 10.7125 4.80999 11.84 4.80999ZM11.84 1.84999C12.3575 1.84999 12.765 2.25749 12.765 2.77499C12.765 3.29249 12.3575 3.69999 11.84 3.69999C11.3225 3.69999 10.915 3.29249 10.915 2.77499C10.915 2.25749 11.3225 1.84999 11.84 1.84999Z" fill="black"/>
<path d="M22.865 6.71499C22.5525 6.32749 22.07 6.10499 21.57 6.10499H2.09C1.59 6.10499 1.1275 6.32749 0.794998 6.71499C0.479998 7.10499 0.352498 7.60249 0.444998 8.10249L2.22 16.9825C2.3675 17.76 3.07 18.315 3.8475 18.315H9.62C9.935 18.315 10.175 18.075 10.175 17.76C10.175 17.445 9.935 17.205 9.62 17.205H3.8675C3.6075 17.205 3.3675 17.02 3.33 16.76L1.555 7.87999C1.5175 7.71499 1.555 7.54749 1.665 7.41749C1.775 7.28999 1.925 7.21499 2.09 7.21499H21.59C21.755 7.21499 21.905 7.28999 22.015 7.41749C22.125 7.54749 22.1625 7.71499 22.125 7.87999L20.35 16.76C20.295 17.02 20.0725 17.205 19.795 17.205H14.06C13.745 17.205 13.505 17.445 13.505 17.76C13.505 18.075 13.745 18.315 14.06 18.315H19.8125C20.61 18.315 21.2925 17.76 21.4425 16.9825L23.2175 8.10249C23.31 7.60249 23.2 7.10499 22.865 6.71499Z" fill="black"/>
<path d="M12.265 12.7475C11.6375 13.4125 11.285 14.2825 11.285 15.2075V22.3675C11.285 22.68 11.525 22.9225 11.84 22.9225C12.155 22.9225 12.395 22.68 12.395 22.3675V15.2075C12.395 14.5775 12.635 13.985 13.08 13.5225C13.2825 13.3025 13.2825 12.95 13.06 12.7475C12.84 12.525 12.4875 12.525 12.265 12.7475Z" fill="black"/>
</svg>
