<svg width="24" height="24" viewBox="0 0 24 24" fill="none" xmlns="http://www.w3.org/2000/svg">
<path d="M12.0078 0.294922C11.7754 0.294922 11.541 0.347656 11.3242 0.449219L2.90625 4.66797C2.40039 4.93164 2.08203 5.4375 2.08203 6.01953C2.08203 12.7871 4.42578 17.1191 6.39453 19.5742C8.53125 22.2188 11.0254 23.625 12.0195 23.625C12.9941 23.625 15.4688 22.1816 17.625 19.4805C19.5938 17.0059 21.9375 12.6758 21.9375 6.03711C21.9375 5.45703 21.6191 4.93164 21.1133 4.66797L12.6758 0.449219C12.4688 0.347656 12.2383 0.294922 12.0078 0.294922ZM12 1.42578C12.0566 1.42578 12.1133 1.44336 12.168 1.46289L20.6055 5.68164C20.7383 5.73828 20.8125 5.88672 20.8125 6.03711C20.8125 12.3555 18.5996 16.4434 16.7617 18.7695C14.5684 21.5059 12.375 22.5 12 22.5C11.625 22.5 9.43164 21.543 7.25586 18.8633C5.40039 16.5566 3.1875 12.4688 3.20703 6.01953C3.20703 5.86914 3.28125 5.73828 3.41211 5.68164L11.832 1.46289C11.8867 1.44336 11.9434 1.42578 12 1.42578ZM16.2188 8.53125C16.0781 8.53125 15.9375 8.58789 15.8242 8.69922L11.0625 13.4629L9.20703 11.6055C8.98047 11.3809 8.625 11.3809 8.41797 11.6055C8.19336 11.832 8.19336 12.1875 8.41797 12.3945L10.668 14.6445C10.7812 14.7559 10.9316 14.8125 11.0625 14.8125C11.1934 14.8125 11.3438 14.7559 11.457 14.6445L16.6133 9.48828C16.8379 9.26172 16.8379 8.90625 16.6133 8.69922C16.5 8.58789 16.3594 8.53125 16.2188 8.53125Z" fill="black"/>
</svg>
