<svg width="24" height="24" viewBox="0 0 24 24" fill="none" xmlns="http://www.w3.org/2000/svg">
<path d="M12.765 21.645C15.5225 21.645 17.76 19.4075 17.76 16.65V12.2475C17.76 7.54753 13.765 6.90003 9.84251 6.88253C7.56751 6.86253 4.75501 7.06753 3.16251 8.64003C2.29501 9.51003 1.85001 10.7125 1.85001 12.2475V15.54C1.85001 16.6675 2.75751 17.575 3.88501 17.575C4.25501 17.575 4.60751 17.465 4.92001 17.2975C5.19751 18.1125 5.95751 18.685 6.86251 18.685C7.29001 18.685 7.67751 18.555 8.01001 18.3325C8.34251 18.98 9.02751 19.425 9.82251 19.425C10.175 19.425 10.5075 19.3325 10.785 19.185C10.7475 19.3325 10.7475 19.4625 10.7475 19.61C10.73 20.7375 11.6375 21.645 12.765 21.645ZM10.73 13.69V17.39C10.73 17.9075 10.3225 18.315 9.80501 18.315C9.28751 18.315 8.88001 17.9075 8.88001 17.39V14.06C8.88001 13.745 8.64001 13.505 8.32501 13.505C8.01001 13.505 7.77001 13.745 7.77001 14.06V16.6675C7.77001 17.1675 7.36251 17.575 6.86251 17.575C6.34501 17.575 5.92001 17.15 5.92001 16.6325V13.32C5.92001 13.005 5.68001 12.765 5.36501 12.765C5.05001 12.765 4.81001 13.005 4.81001 13.32V15.54C4.81001 16.0575 4.40251 16.465 3.88501 16.465C3.36751 16.465 2.96001 16.0575 2.96001 15.54V12.2475C2.96001 11.0075 3.27501 10.0825 3.94001 9.43503C5.23501 8.14003 7.77001 7.99253 9.82251 7.99253C14.725 8.01003 16.6325 9.21253 16.6325 12.2475V16.65C16.6325 18.795 14.8925 20.535 12.7475 20.535C12.2275 20.535 11.8225 20.1275 11.8225 19.61C11.8225 19.0925 12.2275 18.685 12.7475 18.685C13.8575 18.685 14.7825 17.7775 14.7825 16.65V12.765C14.7825 12.45 14.54 12.21 14.2275 12.21C13.9125 12.21 13.6725 12.45 13.6725 12.765V16.65C13.6725 17.15 13.265 17.575 12.7475 17.575C12.2275 17.575 11.8225 17.1675 11.8225 16.65V13.69C11.8225 13.375 11.58 13.135 11.2675 13.135C10.9525 13.135 10.73 13.375 10.73 13.69Z" fill="black"/>
<path d="M19.3325 3.12753C19.5 2.86753 19.4075 2.51503 19.1475 2.36753C18.8875 2.20253 18.5375 2.29503 18.39 2.55253L17.0575 4.77253C16.89 5.03253 16.9825 5.38253 17.2425 5.53253C17.5 5.68003 17.8525 5.60503 18 5.34753L19.3325 3.12753Z" fill="black"/>
<path d="M12.9875 1.59003V3.81003C12.9875 4.01503 13.0975 4.18003 13.265 4.29253C13.3575 4.34753 13.45 4.36503 13.5425 4.36503C13.8575 4.36503 14.0975 4.12503 14.0975 3.81003V1.59003C14.0975 1.27753 13.8575 1.03503 13.5425 1.03503C13.2275 1.03503 12.9875 1.29503 12.9875 1.59003Z" fill="black"/>
<path d="M22.1825 6.45753L20.22 7.49253C19.9425 7.64003 19.85 7.97253 19.9975 8.25003C20.055 8.34253 20.1275 8.41753 20.2025 8.47253C20.3675 8.56503 20.5725 8.58503 20.7575 8.49253L22.7175 7.45503C22.995 7.30753 23.0875 6.97503 22.94 6.69753C22.7925 6.42003 22.46 6.30753 22.1825 6.45753Z" fill="black"/>
</svg>
