<svg width="24" height="24" viewBox="0 0 24 24" fill="none" xmlns="http://www.w3.org/2000/svg">
<path d="M5.34229 12.4683C5.02393 12.4683 4.77979 12.2241 4.77979 11.9058C4.77979 11.5874 5.02393 11.3433 5.34229 11.3433H17.3052L14.5103 8.55029C14.2856 8.34326 14.2856 7.98779 14.5103 7.76123C14.7173 7.53662 15.0728 7.53662 15.2993 7.76123L19.0493 11.5112C19.2739 11.7183 19.2739 12.0737 19.0493 12.3003L15.2993 16.0503C15.0923 16.2749 14.7368 16.2749 14.5103 16.0503C14.3989 15.937 14.3423 15.7866 14.3423 15.6558C14.3423 15.5249 14.3989 15.3745 14.5103 15.2612L17.3052 12.4683H5.34229Z" fill="black"/>
</svg>
