<svg width="24" height="24" viewBox="0 0 24 24" fill="none" xmlns="http://www.w3.org/2000/svg">
<g clip-path="url(#clip0_13116_839)">
<path d="M2.96 23.4951C4.2925 23.4951 5.42 22.5326 5.68 21.2751H14.3C15.3725 21.2751 16.3725 20.8501 17.13 20.0901C17.15 20.0726 17.1675 20.0551 17.1875 20.0176L18.315 18.4251C18.425 18.2601 18.5925 18.2776 18.6675 18.2976C18.74 18.3151 18.8875 18.3701 18.925 18.5551L19.2575 20.1101C19.4075 20.7751 20.0175 21.2751 20.7025 21.2751C21.4225 21.2751 21.9975 20.7026 21.9975 19.9801V19.6651C22.5325 20.3126 22.4775 21.2751 21.885 21.8851C21.2375 22.5326 20.1825 22.5326 19.535 21.8851C19.2775 21.6276 19.11 21.2926 19.055 20.9226C19.0175 20.6276 18.74 20.4051 18.425 20.4426C18.13 20.4801 17.9075 20.7576 17.945 21.0726C18.02 21.6826 18.2975 22.2376 18.74 22.6626C19.2775 23.2001 19.9975 23.4776 20.7025 23.4776C21.405 23.4776 22.125 23.2001 22.6625 22.6626C23.735 21.5901 23.735 19.8126 22.6625 18.7401C22.46 18.5376 22.2375 18.3901 21.9975 18.2601V4.25506C21.9975 3.94006 21.755 3.70006 21.4425 3.70006C21.1275 3.70006 20.8875 3.94006 20.8875 4.25506V19.9801C20.8875 20.0901 20.8125 20.1651 20.7025 20.1651C20.535 20.1651 20.3875 20.0351 20.35 19.8876L20.0175 18.3326C19.8875 17.7601 19.4625 17.3351 18.8875 17.2226C18.315 17.1126 17.76 17.3351 17.4075 17.7976L16.2975 19.3501C15.7625 19.8876 15.04 20.1651 14.2825 20.1651H5.68C5.42 18.9076 4.2925 17.9451 2.96 17.9451C1.425 17.9451 0.184998 19.1851 0.184998 20.7201C0.184998 22.2551 1.425 23.4951 2.96 23.4951ZM2.96 19.0551C3.6825 19.0551 4.2925 19.5176 4.5325 20.1651H2.96C2.645 20.1651 2.405 20.4051 2.405 20.7201C2.405 21.0351 2.645 21.2751 2.96 21.2751H4.5325C4.31 21.9226 3.6825 22.3851 2.96 22.3851C2.035 22.3851 1.295 21.6451 1.295 20.7201C1.295 19.7951 2.035 19.0551 2.96 19.0551Z" fill="black"/>
<path d="M20.72 3.14506C21.535 3.14506 22.2 2.48006 22.2 1.66506C22.2 0.850059 21.535 0.185059 20.72 0.185059C19.905 0.185059 19.24 0.850059 19.24 1.66506C19.24 2.48006 19.905 3.14506 20.72 3.14506ZM20.72 1.29506C20.9225 1.29506 21.09 1.46256 21.09 1.66506C21.09 1.86756 20.9225 2.03506 20.72 2.03506C20.5175 2.03506 20.35 1.86756 20.35 1.66506C20.35 1.46256 20.5175 1.29506 20.72 1.29506Z" fill="black"/>
</g>
<defs>
<clipPath id="clip0_13116_839">
<rect width="24" height="24" fill="black"/>
</clipPath>
</defs>
</svg>
