<?xml version="1.0" encoding="UTF-8"?>
<svg xmlns="http://www.w3.org/2000/svg" xmlns:xlink="http://www.w3.org/1999/xlink" width="37.5pt" height="37.5pt" viewBox="0 0 37.5 37.5" version="1.1">
<g id="surface4566">
<path style=" stroke:none;fill-rule:nonzero;fill:rgb(0%,0%,0%);fill-opacity:1;" d="M 16.359375 6.242188 C 9.855469 6.242188 4.566406 11.589844 4.566406 18.152344 C 4.566406 24.742188 9.855469 30.0625 16.359375 30.0625 C 19.339844 30.0625 22.054688 28.933594 24.136719 27.085938 L 24.800781 27.75 L 24.195312 28.386719 C 23.847656 28.734375 23.847656 29.28125 24.195312 29.628906 L 29.398438 34.890625 C 29.570312 35.0625 29.773438 35.148438 30.003906 35.148438 C 30.234375 35.148438 30.46875 35.0625 30.613281 34.890625 L 32.925781 32.546875 C 33.242188 32.203125 33.242188 31.652344 32.894531 31.335938 L 27.691406 26.074219 C 27.519531 25.898438 27.316406 25.8125 27.085938 25.8125 C 26.855469 25.8125 26.621094 25.898438 26.476562 26.074219 L 25.871094 26.710938 L 25.207031 26.015625 C 27.027344 23.90625 28.15625 21.160156 28.15625 18.152344 C 28.15625 11.589844 22.863281 6.242188 16.359375 6.242188 Z M 16.359375 8.007812 C 21.910156 8.007812 26.421875 12.574219 26.421875 18.183594 C 26.421875 23.789062 21.910156 28.328125 16.359375 28.328125 C 10.8125 28.328125 6.300781 23.789062 6.300781 18.183594 C 6.300781 12.574219 10.8125 8.007812 16.359375 8.007812 Z M 16.390625 11.621094 C 13.644531 11.621094 11.1875 13.382812 10.261719 15.984375 C 10.117188 16.359375 10.320312 16.824219 10.722656 16.9375 C 10.8125 16.96875 10.898438 16.996094 10.984375 16.996094 C 11.300781 16.996094 11.589844 16.792969 11.707031 16.476562 C 12.402344 14.480469 14.308594 13.125 16.390625 13.125 C 16.792969 13.125 17.140625 12.777344 17.140625 12.371094 C 17.140625 11.96875 16.792969 11.621094 16.390625 11.621094 Z M 10.898438 18.761719 C 10.492188 18.761719 10.144531 19.078125 10.144531 19.511719 L 10.144531 19.628906 C 10.175781 20.03125 10.492188 20.378906 10.925781 20.378906 C 11.332031 20.378906 11.679688 20.03125 11.679688 19.628906 L 11.679688 19.539062 C 11.679688 19.105469 11.359375 18.761719 10.925781 18.761719 Z M 27.113281 27.921875 L 31.101562 31.96875 L 30.003906 33.070312 L 26.015625 29.023438 Z M 27.113281 27.921875 "/>
</g>
</svg>
