<svg width="24" height="24" viewBox="0 0 24 24" fill="none" xmlns="http://www.w3.org/2000/svg">
<path d="M11.84 21.645C17.2425 21.645 21.645 17.2425 21.645 11.84C21.645 6.43753 17.2425 2.03503 11.84 2.03503C6.4375 2.03503 2.035 6.43753 2.035 11.84C2.035 17.2425 6.4375 21.645 11.84 21.645ZM11.84 3.14503C16.6325 3.14503 20.535 7.04753 20.535 11.84C20.535 16.6325 16.6325 20.535 11.84 20.535C7.0475 20.535 3.145 16.6325 3.145 11.84C3.145 7.04753 7.0475 3.14503 11.84 3.14503Z" fill="black"/>
<path d="M9.325 16.15C8.8975 15.8925 8.51 15.595 8.1575 15.225C7.9725 15.0225 7.66 14.985 7.4175 15.1525V15.17C7.16 15.355 7.1225 15.7425 7.345 15.965C7.7525 16.41 8.215 16.78 8.7325 17.095C8.9725 17.2425 9.2875 17.205 9.4525 17.0025C9.695 16.725 9.62 16.335 9.325 16.15Z" fill="black"/>
<path d="M6.18 12.3775C6.53 12.4325 6.845 12.1725 6.845 11.84C6.845 9.08253 9.0825 6.84503 11.84 6.84503C12.21 6.84503 12.5975 6.88253 12.95 6.97503C13.135 7.01253 13.32 6.95503 13.45 6.82753C13.45 6.82753 13.45 6.82753 13.4675 6.80753C13.7825 6.49253 13.615 5.97503 13.19 5.88253C12.7475 5.79003 12.3025 5.73503 11.84 5.73503C8.4925 5.73503 5.7525 8.45503 5.735 11.8025C5.735 12.08 5.92 12.34 6.18 12.3775Z" fill="black"/>
<path d="M16.835 11.84C16.835 13.615 15.8925 15.2625 14.355 16.15C14.0975 16.2975 13.985 16.6125 14.115 16.89C14.2075 17.095 14.4125 17.205 14.615 17.205C14.7075 17.205 14.8 17.1875 14.8925 17.13C16.78 16.04 17.945 14.0225 17.945 11.84C17.945 11.3775 17.89 10.9325 17.7975 10.49C17.705 10.065 17.1875 9.91503 16.8725 10.2125C16.8725 10.2125 16.8725 10.2125 16.8525 10.23C16.725 10.36 16.6675 10.545 16.705 10.73C16.7975 11.0825 16.835 11.47 16.835 11.84Z" fill="black"/>
<path d="M11.84 9.99003C11.34 9.99003 10.8775 10.175 10.5275 10.5275C10.175 10.8775 9.99 11.34 9.99 11.84C9.99 12.34 10.175 12.8025 10.5275 13.1525C10.8775 13.505 11.34 13.69 11.84 13.69C12.34 13.69 12.8025 13.505 13.1525 13.1525C13.505 12.8025 13.69 12.34 13.69 11.84C13.69 11.545 13.615 11.2475 13.4875 10.99L16.17 8.30753C16.39 8.08503 16.39 7.73253 16.17 7.53003C15.9475 7.30753 15.595 7.30753 15.3925 7.53003L12.69 10.1925C12.4325 10.065 12.135 9.99003 11.84 9.99003ZM12.3575 12.3575C12.08 12.635 11.6 12.635 11.3025 12.3575C11.175 12.2275 11.1 12.0425 11.1 11.84C11.1 11.6375 11.175 11.4525 11.3225 11.3225C11.47 11.175 11.655 11.1 11.84 11.1C12.025 11.1 12.2275 11.175 12.3575 11.3225C12.505 11.47 12.58 11.655 12.58 11.84C12.58 12.025 12.505 12.2275 12.3575 12.3575Z" fill="black"/>
</svg>
