<svg width="24" height="24" viewBox="0 0 24 24" fill="none" xmlns="http://www.w3.org/2000/svg">
<path d="M0.962498 6.73496L7.2525 11.4325C7.345 11.5075 7.475 11.545 7.585 11.545C7.6775 11.545 7.7525 11.525 7.825 11.4875C8.01 11.395 8.14 11.21 8.14 10.99V8.50996H11.84C12.155 8.50996 12.395 8.26996 12.395 7.95496C12.395 7.63996 12.155 7.39996 11.84 7.39996H7.585C7.27 7.39996 7.03 7.63996 7.03 7.95496V9.87996L2.22 6.28996L7.03 2.69996V4.80996C7.03 5.12496 7.27 5.36495 7.585 5.36495H21.09C21.405 5.36495 21.645 5.12496 21.645 4.80996C21.645 4.49496 21.405 4.25496 21.09 4.25496H8.14V1.58996C8.14 1.38746 8.03 1.18495 7.825 1.09246C7.64 0.999955 7.4175 1.01746 7.2525 1.14746L0.962498 5.84495C0.814998 5.95746 0.739998 6.12246 0.739998 6.28996C0.739998 6.45746 0.814998 6.62246 0.962498 6.73496Z" fill="black"/>
<path d="M22.94 7.39996H14.985C14.67 7.39996 14.43 7.63996 14.43 7.95496C14.43 8.26996 14.67 8.50996 14.985 8.50996H22.94C23.255 8.50996 23.495 8.26996 23.495 7.95496C23.495 7.63996 23.255 7.39996 22.94 7.39996Z" fill="black"/>
<path d="M22.7175 16.945L16.4275 12.2475C16.2625 12.1175 16.04 12.1 15.855 12.1925C15.67 12.285 15.54 12.47 15.54 12.69V15.355H4.44C4.125 15.355 3.885 15.595 3.885 15.91C3.885 16.225 4.125 16.465 4.44 16.465H16.095C16.41 16.465 16.65 16.225 16.65 15.91V13.8L21.46 17.39L16.65 20.98V19.055C16.65 18.74 16.41 18.5 16.095 18.5H2.59C2.275 18.5 2.035 18.74 2.035 19.055C2.035 19.37 2.275 19.61 2.59 19.61H15.54V22.09C15.54 22.2925 15.65 22.495 15.855 22.5875C15.9275 22.625 16.02 22.645 16.095 22.645C16.205 22.645 16.335 22.6075 16.4275 22.5325L22.7175 17.835C22.865 17.7225 22.94 17.5575 22.94 17.39C22.94 17.2225 22.865 17.0575 22.7175 16.945Z" fill="black"/>
<path d="M1.295 15.91C1.295 16.2175 1.0475 16.465 0.739998 16.465C0.432498 16.465 0.184998 16.2175 0.184998 15.91C0.184998 15.6025 0.432498 15.355 0.739998 15.355C1.0475 15.355 1.295 15.6025 1.295 15.91Z" fill="black"/>
</svg>
