<svg width="24" height="24" viewBox="0 0 24 24" fill="none" xmlns="http://www.w3.org/2000/svg">
<path d="M15.3555 14.457C15.4688 14.5684 15.6191 14.6445 15.7695 14.6445C15.9004 14.6445 16.0508 14.5879 16.1445 14.4942L18.4121 12.4121C18.5254 12.3008 18.5996 12.1504 18.5996 12C18.5996 11.8496 18.5254 11.6992 18.4121 11.5879L16.1621 9.50587C15.9375 9.30079 15.582 9.31837 15.375 9.54298C15.168 9.76954 15.1875 10.125 15.4121 10.332L17.2305 12L15.4121 13.668C15.168 13.875 15.1504 14.2305 15.3555 14.457Z" fill="black"/>
<path d="M8.64453 9.54298C8.4375 9.31837 8.08203 9.30079 7.85547 9.50587L5.58789 11.5879C5.47461 11.6992 5.40039 11.8496 5.40039 12C5.40039 12.1504 5.47461 12.3008 5.58789 12.4121L7.85547 14.4942C7.96875 14.5879 8.09961 14.6445 8.23047 14.6445C8.38086 14.6445 8.53125 14.5879 8.64453 14.457C8.84961 14.2305 8.83203 13.875 8.60547 13.668L6.78711 12L8.60547 10.332C8.83203 10.125 8.84961 9.76954 8.64453 9.54298Z" fill="black"/>
<path d="M10.332 17.0254C10.3867 17.0625 10.4434 17.0625 10.5 17.0625C10.7441 17.0625 10.9492 16.9121 11.0254 16.668L14.0254 7.66797C14.1191 7.36914 13.9688 7.05078 13.668 6.95703C13.3691 6.86328 13.0508 7.01172 12.957 7.3125L9.95703 16.3125C9.86328 16.6133 10.0313 16.9316 10.332 17.0254Z" fill="black"/>
<path d="M1.125 12C1.125 18 6 22.875 12 22.875C18 22.875 22.875 18 22.875 12C22.875 6 18 1.125 12 1.125C6 1.125 1.125 6 1.125 12ZM21.75 12C21.75 17.3809 17.3809 21.75 12 21.75C6.61914 21.75 2.25 17.3809 2.25 12C2.25 6.61914 6.61914 2.25 12 2.25C17.3809 2.25 21.75 6.61914 21.75 12Z" fill="black"/>
</svg>
