<svg width="24" height="24" viewBox="0 0 24 24" fill="none" xmlns="http://www.w3.org/2000/svg">
<path d="M9.415 0.497498C7.11544 0.497498 5.2325 2.32759 5.2325 4.6025C5.2325 6.12478 6.07538 7.44843 7.31893 8.15652C5.4774 9.53386 4.285 11.7315 4.285 14.2075C4.285 15.4718 4.59692 16.6627 5.1457 17.7101L3.08961 17.1176C2.8508 17.0488 2.60142 17.1866 2.5326 17.4254C2.46378 17.6642 2.60158 17.9136 2.84039 17.9824L6.03289 18.9024C6.14774 18.9355 6.27103 18.9215 6.37557 18.8636C6.48012 18.8057 6.55733 18.7086 6.59017 18.5937L7.53767 15.2787C7.60597 15.0397 7.46763 14.7906 7.22867 14.7223C6.98971 14.654 6.74063 14.7924 6.67233 15.0313L5.99709 17.3938C5.47987 16.4465 5.185 15.3621 5.185 14.2075C5.185 10.5337 8.16582 7.555 11.84 7.555C15.5142 7.555 18.495 10.5337 18.495 14.2075C18.495 17.8824 15.5165 20.8601 11.8444 20.8625H1.895C1.64647 20.8625 1.445 21.064 1.445 21.3125C1.445 21.561 1.64647 21.7625 1.895 21.7625H11.8384L11.84 21.7625L20.6986 21.7625L19.5718 22.8893C19.3961 23.065 19.3961 23.35 19.5718 23.5257C19.7475 23.7014 20.0325 23.7014 20.2082 23.5257L22.1032 21.6307C22.2789 21.455 22.2789 21.17 22.1032 20.9943L20.2082 19.0993C20.0325 18.9236 19.7475 18.9236 19.5718 19.0993C19.3961 19.275 19.3961 19.56 19.5718 19.7357L20.6986 20.8625H15.419C17.7858 19.5869 19.395 17.0856 19.395 14.2075C19.395 10.0363 16.0108 6.655 11.84 6.655C10.5233 6.655 9.285 6.99198 8.20682 7.58442C6.98875 7.11455 6.1325 5.95227 6.1325 4.6025C6.1325 2.8424 7.59456 1.3975 9.415 1.3975C10.6928 1.3975 11.7969 2.10993 12.3397 3.14639L10.981 2.87379C10.7373 2.8249 10.5002 2.9828 10.4513 3.22648C10.4024 3.47015 10.5603 3.70732 10.804 3.75621L13.1715 4.23121C13.2885 4.25469 13.4101 4.23071 13.5094 4.16455C13.6088 4.09839 13.6778 3.99547 13.7012 3.87843L14.1762 1.50843C14.2251 1.26475 14.0671 1.02761 13.8234 0.978772C13.5798 0.929933 13.3426 1.08788 13.2938 1.33157L13.0465 2.5653C12.324 1.32727 10.966 0.497498 9.415 0.497498Z" fill="black"/>
</svg>
