<svg width="24" height="24" viewBox="0 0 24 24" fill="none" xmlns="http://www.w3.org/2000/svg">
<path d="M13.2189 12.3751C13.2189 12.0567 12.9747 11.8126 12.6564 11.8126H4.96887C4.65051 11.8126 4.40637 12.0567 4.40637 12.3751C4.40637 12.6934 4.65051 12.9376 4.96887 12.9376H12.6564C12.9747 12.9376 13.2189 12.6934 13.2189 12.3751Z" fill="black"/>
<path d="M4.40637 15.1876C4.40637 14.8692 4.65051 14.6251 4.96887 14.6251H12.6564C12.9747 14.6251 13.2189 14.8692 13.2189 15.1876C13.2189 15.5059 12.9747 15.7501 12.6564 15.7501H4.96887C4.65051 15.7501 4.40637 15.5059 4.40637 15.1876Z" fill="black"/>
<path d="M4.40637 18.0001C4.40637 17.6817 4.65051 17.4376 4.96887 17.4376H9.93762C10.256 17.4376 10.5001 17.6817 10.5001 18.0001C10.5001 18.3184 10.256 18.5626 9.93762 18.5626H4.96887C4.65051 18.5626 4.40637 18.3184 4.40637 18.0001Z" fill="black"/>
<path fill-rule="evenodd" clip-rule="evenodd" d="M22.6875 16.4434L17.5508 2.36333C17.3242 1.74419 16.875 1.25591 16.293 0.994192C15.7129 0.712942 15.0371 0.693411 14.4375 0.91802L7.63086 3.37505H3.59961C2.25 3.37505 1.16211 4.46294 1.16211 5.81255V20.8126C1.16211 22.1622 2.25 23.2501 3.59961 23.2501H13.9121C15.1133 23.2501 16.1055 22.3692 16.3125 21.2247L21.207 19.5743C21.8242 19.3497 22.3125 18.9004 22.5742 18.3184C22.875 17.7188 22.9121 17.0626 22.6875 16.4434ZM15.2246 20.8126C15.2246 21.543 14.6445 22.1251 13.9121 22.1251H3.59961C2.86914 22.1251 2.28711 21.543 2.28711 20.8126V5.81255C2.28711 5.08208 2.86914 4.50005 3.59961 4.50005H13.9121C14.6445 4.50005 15.2246 5.08208 15.2246 5.81255V20.8126ZM17.0996 4.36919C16.5371 3.76958 15.75 3.37505 14.8496 3.37505H10.9121L14.8125 1.94927C15.1504 1.83794 15.5059 1.83794 15.8242 1.98833C16.1445 2.13677 16.3867 2.40044 16.5 2.73833L17.0996 4.36919ZM21.582 17.8321C21.4316 18.1504 21.168 18.3946 20.8496 18.5059L17.8496 19.5196V6.48833L21.6191 16.8379C21.75 17.1563 21.7305 17.5118 21.582 17.8321Z" fill="black"/>
</svg>
