<svg width="24" height="24" viewBox="0 0 24 24" fill="none" xmlns="http://www.w3.org/2000/svg">
<g clip-path="url(#clip0_13116_810)">
<path d="M3.145 19.24C3.145 18.925 2.905 18.685 2.59 18.685H1.295V16.095H2.59C2.905 16.095 3.145 15.855 3.145 15.54C3.145 15.225 2.905 14.985 2.59 14.985H1.295V12.395H2.59C2.905 12.395 3.145 12.155 3.145 11.84C3.145 11.525 2.905 11.285 2.59 11.285H1.295V8.69505H2.59C2.905 8.69505 3.145 8.45505 3.145 8.14005C3.145 7.82505 2.905 7.58505 2.59 7.58505H1.295V4.99505H2.59C2.905 4.99505 3.145 4.75505 3.145 4.44005C3.145 4.12505 2.905 3.88505 2.59 3.88505H1.295V2.59005C1.295 1.86755 1.8675 1.29505 2.59 1.29505H5.92C6.6425 1.29505 7.215 1.86755 7.215 2.59005V22.885C7.215 23.2 7.455 23.44 7.77 23.44C8.085 23.44 8.325 23.2 8.325 22.885V2.59005C8.325 1.25755 7.2525 0.185046 5.92 0.185046H2.59C1.2575 0.185046 0.184998 1.25755 0.184998 2.59005V22.94C0.184998 23.255 0.424998 23.495 0.739998 23.495C1.055 23.495 1.295 23.255 1.295 22.94V19.795H2.59C2.905 19.795 3.145 19.555 3.145 19.24Z" fill="black"/>
<path d="M20.35 0.185046C18.61 0.185046 17.205 1.59005 17.205 3.33005V12.395C17.205 12.71 17.445 12.95 17.76 12.95C18.075 12.95 18.315 12.71 18.315 12.395V3.33005C18.315 2.20255 19.2225 1.29505 20.35 1.29505C21.4775 1.29505 22.385 2.20255 22.385 3.33005V12.395C22.385 12.8025 22.0525 13.135 21.645 13.135C21.2375 13.135 20.905 12.8025 20.905 12.395V4.44005C20.905 4.12505 20.665 3.88505 20.35 3.88505C20.035 3.88505 19.795 4.12505 19.795 4.44005V12.395C19.795 13.4125 20.6275 14.245 21.645 14.245C22.6625 14.245 23.495 13.4125 23.495 12.395V3.33005C23.495 1.59005 22.09 0.185046 20.35 0.185046Z" fill="black"/>
<path d="M15.17 23.125C15.485 23.125 15.725 22.885 15.725 22.57V5.36505C15.725 5.25505 15.6875 5.14255 15.615 5.03255L13.32 1.85005V0.777547C13.32 0.480047 13.0975 0.202547 12.8025 0.185046C12.47 0.167547 12.21 0.425046 12.21 0.740047V1.85005L9.915 5.03255C9.8425 5.14255 9.805 5.25505 9.805 5.36505V22.57C9.805 22.885 10.045 23.125 10.36 23.125C10.675 23.125 10.915 22.885 10.915 22.57V6.47505H14.615V22.57C14.615 22.885 14.855 23.125 15.17 23.125ZM11.045 5.36505L12.765 2.97755L14.485 5.36505H11.045Z" fill="black"/>
</g>
<defs>
<clipPath id="clip0_13116_810">
<rect width="24" height="24" fill="black"/>
</clipPath>
</defs>
</svg>
