<svg width="24" height="24" viewBox="0 0 24 24" fill="none" xmlns="http://www.w3.org/2000/svg">
<path fill-rule="evenodd" clip-rule="evenodd" d="M19.395 6.39639L22.235 4.50333V1.91748H14.1208L1.91748 6.80035V10.395H5.70748V16.8005L1.91748 19.168V22.71H13.4229L22.235 15.3657V12.81H19.395V6.39639ZM3.93724 18.9675L5.70748 17.8617V18.9675H3.93724ZM2.81748 7.40961L2.84248 7.39961V7.55498H12.81V9.49498H8.54748V19.8675H12.81V21.81H2.81748V19.8675H6.60748V9.49498H2.81748V7.40961ZM13.71 21.2991L21.335 14.9442V14.1401L13.71 19.6476V21.2991ZM13.3962 10.395L18.495 6.9963V13.71H20.3934L13.1145 18.9675H9.44748V10.395H13.3962ZM13.71 9.10422L21.335 4.02163V3.13237L13.71 7.36972V9.10422ZM13.1433 6.65498L20.0488 2.81748H14.2942L4.70346 6.65498H13.1433Z" fill="black"/>
</svg>
