<svg width="24" height="24" viewBox="0 0 24 24" fill="none" xmlns="http://www.w3.org/2000/svg">
<g clip-path="url(#clip0_13116_311)">
<path d="M18.6675 11.525C18.7775 11.6925 18.9625 11.785 19.1475 11.785C19.24 11.785 19.35 11.765 19.4425 11.71C20.035 11.34 20.5525 10.84 20.9225 10.25C21.09 9.99004 21.015 9.63754 20.7575 9.49004C20.4975 9.32504 20.165 9.39754 19.9975 9.65755C19.72 10.1 19.315 10.49 18.87 10.7675C18.5925 10.9325 18.5 11.2675 18.6675 11.525Z" fill="black"/>
<path d="M20.85 6.95505C20.905 6.95505 20.98 6.93754 21.035 6.92004C21.33 6.80754 21.4775 6.49254 21.3675 6.21504C21.1275 5.55004 20.7375 4.95754 20.24 4.45754C20.0175 4.23754 19.665 4.25504 19.4625 4.45754C19.24 4.68004 19.2575 5.03254 19.4625 5.23504C19.85 5.60504 20.1475 6.06754 20.3125 6.56754C20.405 6.82754 20.6275 6.95505 20.85 6.95505Z" fill="black"/>
<path d="M16.465 3.14504H14.615C14.3 3.14504 14.06 3.38504 14.06 3.70004C14.06 4.01504 14.3 4.25504 14.615 4.25504H16.465C16.78 4.25504 17.02 4.01504 17.02 3.70004C17.02 3.38504 16.78 3.14504 16.465 3.14504Z" fill="black"/>
<path d="M7.585 11.84C7.585 12.155 7.825 12.395 8.14 12.395H9.99C10.305 12.395 10.545 12.155 10.545 11.84C10.545 11.525 10.305 11.285 9.99 11.285H8.14C7.845 11.285 7.585 11.525 7.585 11.84Z" fill="black"/>
<path d="M13.1525 11.84C13.1525 12.155 13.395 12.395 13.7075 12.395H15.5575C15.8725 12.395 16.1125 12.155 16.1125 11.84C16.1125 11.525 15.8725 11.285 15.5575 11.285H13.7075C13.395 11.285 13.1525 11.525 13.1525 11.84Z" fill="black"/>
<path d="M6.6425 19.98C6.6425 20.295 6.8825 20.535 7.1975 20.535H9.0475C9.36 20.535 9.6025 20.295 9.6025 19.98C9.6025 19.665 9.36 19.425 9.0475 19.425H7.1975C6.8825 19.425 6.6425 19.665 6.6425 19.98Z" fill="black"/>
<path d="M3.2375 14.2625C3.4225 14.2625 3.59 14.17 3.7 14.005C3.995 13.56 4.385 13.1725 4.8275 12.895C5.0875 12.7275 5.18 12.395 5.0125 12.135C4.8475 11.8775 4.515 11.785 4.255 11.95C3.6625 12.32 3.145 12.82 2.7575 13.4125C2.59 13.6725 2.665 14.005 2.9225 14.17C3.035 14.2275 3.1275 14.2625 3.2375 14.2625Z" fill="black"/>
<path d="M2.295 17.445C2.515 18.1125 2.905 18.7225 3.405 19.2025C3.515 19.315 3.645 19.37 3.7925 19.37C3.94 19.37 4.07 19.315 4.18 19.2025C4.4025 18.98 4.4025 18.63 4.18 18.425C3.7925 18.055 3.515 17.5925 3.33 17.095C3.2375 16.7975 2.905 16.65 2.6275 16.76C2.35 16.835 2.2025 17.15 2.295 17.445Z" fill="black"/>
<path d="M12.1925 19.98C12.1925 20.295 12.4325 20.535 12.7475 20.535H14.5975C14.91 20.535 15.1525 20.295 15.1525 19.98C15.1525 19.665 14.91 19.425 14.5975 19.425H12.7475C12.4325 19.425 12.1925 19.665 12.1925 19.98Z" fill="black"/>
<path d="M10.915 4.25504C11.23 4.25504 11.47 4.01504 11.47 3.70004C11.47 3.38504 11.23 3.14504 10.915 3.14504H9.065C8.75 3.14504 8.51 3.38504 8.51 3.70004C8.51 4.01504 8.75 4.25504 9.065 4.25504H10.915Z" fill="black"/>
<path d="M3.3125 0.352544L0.352498 3.31254C0.129998 3.53254 0.129998 3.88504 0.352498 4.08754L3.3125 7.04754C3.4225 7.16004 3.57 7.21505 3.7 7.21505C3.83 7.21505 3.9775 7.16004 4.0875 7.04754C4.31 6.82754 4.31 6.47505 4.0875 6.27255L2.0725 4.25504H5.365C5.68 4.25504 5.92 4.01504 5.92 3.70004C5.92 3.38504 5.68 3.14504 5.365 3.14504H2.0725L4.0875 1.12754C4.31 0.907544 4.31 0.555044 4.0875 0.352544C3.8675 0.130044 3.5325 0.130044 3.3125 0.352544Z" fill="black"/>
<path d="M20.3675 16.6325C20.1475 16.41 19.795 16.41 19.5925 16.6325C19.37 16.8525 19.37 17.205 19.5925 17.4075L21.6075 19.425H18.315C18 19.425 17.76 19.665 17.76 19.98C17.76 20.295 18 20.535 18.315 20.535H21.6075L19.5925 22.5525C19.37 22.7725 19.37 23.125 19.5925 23.3275C19.7025 23.44 19.85 23.495 19.98 23.495C20.11 23.495 20.2575 23.44 20.3675 23.3275L23.3275 20.3675C23.55 20.1475 23.55 19.795 23.3275 19.5925L20.3675 16.6325Z" fill="black"/>
</g>
<defs>
<clipPath id="clip0_13116_311">
<rect width="24" height="24" fill="black"/>
</clipPath>
</defs>
</svg>
