<svg width="24" height="24" viewBox="0 0 24 24" fill="none" xmlns="http://www.w3.org/2000/svg">
<path d="M11.9062 12.8438C12.4238 12.8438 12.8438 12.4238 12.8438 11.9062C12.8438 11.3887 12.4238 10.9688 11.9062 10.9688C11.3887 10.9688 10.9688 11.3887 10.9688 11.9062C10.9688 12.4238 11.3887 12.8438 11.9062 12.8438Z" fill="black"/>
<path fill-rule="evenodd" clip-rule="evenodd" d="M11.9063 16.2188C9.52539 16.2188 7.59375 14.2871 7.59375 11.9063C7.59375 9.52539 9.52539 7.59375 11.9063 7.59375C14.2871 7.59375 16.2188 9.52539 16.2188 11.9063C16.2188 14.2871 14.2871 16.2188 11.9063 16.2188ZM11.9063 8.71875C10.1445 8.71875 8.71875 10.1445 8.71875 11.9063C8.71875 13.668 10.1445 15.0938 11.9063 15.0938C13.668 15.0938 15.0938 13.668 15.0938 11.9063C15.0938 10.1445 13.668 8.71875 11.9063 8.71875Z" fill="black"/>
<path fill-rule="evenodd" clip-rule="evenodd" d="M4.78125 11.9062C4.78125 15.8438 7.96875 19.0312 11.9062 19.0312C15.8438 19.0312 19.0312 15.8438 19.0312 11.9062C19.0312 7.96875 15.8438 4.78125 11.9062 4.78125C7.96875 4.78125 4.78125 7.96875 4.78125 11.9062ZM5.90625 11.9062C5.90625 8.60547 8.60547 5.90625 11.9062 5.90625C15.207 5.90625 17.9062 8.60547 17.9062 11.9062C17.9062 15.207 15.207 17.9062 11.9062 17.9062C8.60547 17.9062 5.90625 15.207 5.90625 11.9062Z" fill="black"/>
<path fill-rule="evenodd" clip-rule="evenodd" d="M1.96875 11.9062C1.96875 17.3809 6.43164 21.8438 11.9062 21.8438C17.3809 21.8438 21.8438 17.3809 21.8438 11.9062C21.8438 6.43164 17.3809 1.96875 11.9062 1.96875C6.43164 1.96875 1.96875 6.43164 1.96875 11.9062ZM3.09375 11.9062C3.09375 7.05078 7.05078 3.09375 11.9062 3.09375C16.7617 3.09375 20.7188 7.05078 20.7188 11.9062C20.7188 16.7617 16.7617 20.7188 11.9062 20.7188C7.05078 20.7188 3.09375 16.7617 3.09375 11.9062Z" fill="black"/>
</svg>
