<svg viewBox="0 0 24 24" xmlns="http://www.w3.org/2000/svg" id="Tools-Wrench-Hold--Streamline-Ultimate">
  <desc>
    Tools Wrench Hold Streamline Icon: https://streamlinehq.com
  </desc>
  <path d="M23.337 4.357a0.494 0.494 0 0 0 -0.826 -0.223L21.048 5.6a0.491 0.491 0 0 1 -0.294 0.141l-1.57 0.175a0.5 0.5 0 0 1 -0.4 -0.142 0.491 0.491 0 0 1 -0.141 -0.4l0.174 -1.57a0.487 0.487 0 0 1 0.142 -0.294l1.459 -1.47a0.494 0.494 0 0 0 -0.223 -0.826 4.372 4.372 0 0 0 -1.131 -0.162h-0.006a4.441 4.441 0 1 0 0 8.882A4.44 4.44 0 0 0 23.5 5.493a4.363 4.363 0 0 0 -0.163 -1.136Z" fill="none" stroke="#000000" stroke-width="1"></path>
  <path d="M3.088 19.325 0.607 21.81" fill="none" stroke="#000000" stroke-linecap="round" stroke-linejoin="round" stroke-width="1"></path>
  <path d="m15.035 7.377 -2.499 2.499" fill="none" stroke="#000000" stroke-linecap="round" stroke-linejoin="round" stroke-width="1"></path>
  <path d="M5.221 19.348a1.488 1.488 0 0 1 -2.109 0l-1.246 -1.233a1.488 1.488 0 0 1 0 -2.109 1.45 1.45 0 0 1 1.061 -0.438 1.425 1.425 0 0 1 1.048 0.438l1.246 1.234a1.487 1.487 0 0 1 0 2.108Z" fill="none" stroke="#000000" stroke-linecap="round" stroke-linejoin="round" stroke-width="1"></path>
  <path d="M3.082 15.085a1.492 1.492 0 0 1 2.109 -2.11l2.175 2.176A1.473 1.473 0 0 1 7.8 16.2a1.5 1.5 0 0 1 -0.438 1.06 1.54 1.54 0 0 1 -2.109 0Z" fill="none" stroke="#000000" stroke-linecap="round" stroke-linejoin="round" stroke-width="1"></path>
  <path d="M9.448 15.122a1.488 1.488 0 0 1 -2.109 0l-2.176 -2.175a1.49 1.49 0 0 1 0 -2.109 1.469 1.469 0 0 1 1.048 -0.438 1.493 1.493 0 0 1 1.061 0.438l2.176 2.175a1.49 1.49 0 0 1 0 2.109Z" fill="none" stroke="#000000" stroke-linecap="round" stroke-linejoin="round" stroke-width="1"></path>
  <path d="m11.042 12.092 0 0.125a0.666 0.666 0 0 1 -0.4 0.641 1.55 1.55 0 0 1 -1.67 -0.3l-1.231 -1.247a1.422 1.422 0 0 1 -0.435 -1.049 1.446 1.446 0 0 1 0.44 -1.06 1.54 1.54 0 0 1 2.109 0l1.179 1.2c0.011 0.011 0.021 0.023 0.031 0.034" fill="none" stroke="#000000" stroke-linecap="round" stroke-linejoin="round" stroke-width="1"></path>
  <path d="m7.458 23.451 -2.087 -2.086" fill="none" stroke="#000000" stroke-linecap="round" stroke-linejoin="round" stroke-width="1"></path>
  <path d="m3.247 23.46 9.629 -9.5 -1.663 -1.66a1.437 1.437 0 0 1 2.032 -2.032l2.031 2.032a3.834 3.834 0 0 1 0 5.424l-0.333 0.334a2.875 2.875 0 0 0 0 4.063l1.236 1.38" fill="none" stroke="#000000" stroke-linecap="round" stroke-linejoin="round" stroke-width="1"></path>
  <path d="m14.907 11.929 2.367 -2.367" fill="none" stroke="#000000" stroke-linecap="round" stroke-linejoin="round" stroke-width="1"></path>
</svg>