<svg width="24" height="24" viewBox="0 0 24 24" fill="none" xmlns="http://www.w3.org/2000/svg">
<path d="M15.375 0.75C15.375 1.06055 15.123 1.3125 14.8125 1.3125H9.1875C8.87695 1.3125 8.625 1.06055 8.625 0.75C8.625 0.439453 8.87695 0.1875 9.1875 0.1875H14.8125C15.123 0.1875 15.375 0.439453 15.375 0.75Z" fill="black"/>
<path fill-rule="evenodd" clip-rule="evenodd" d="M15.75 22.6875C17.5078 22.6875 18.9375 21.2578 18.9375 19.5V7.6875H4.5C3.15625 7.6875 2.0625 6.59375 2.0625 5.25C2.0625 3.90625 3.15625 2.8125 4.5 2.8125H19.5C20.8438 2.8125 21.9375 3.90625 21.9375 5.25C21.9375 6.40039 21.1348 7.36524 20.0625 7.61914V19.5C20.0625 21.877 18.127 23.8125 15.75 23.8125H8.25C5.87305 23.8125 3.9375 21.877 3.9375 19.5V9.75C3.9375 9.43945 4.18945 9.1875 4.5 9.1875C4.81055 9.1875 5.0625 9.43945 5.0625 9.75V19.5C5.0625 21.2578 6.49219 22.6875 8.25 22.6875H15.75ZM20.8125 5.25C20.8125 4.52539 20.2246 3.9375 19.5 3.9375H4.5C3.77539 3.9375 3.1875 4.52539 3.1875 5.25C3.1875 5.97461 3.77539 6.5625 4.5 6.5625H19.5C20.2246 6.5625 20.8125 5.97461 20.8125 5.25Z" fill="black"/>
<path d="M9.375 20.0625C9.68555 20.0625 9.9375 19.8105 9.9375 19.5V10.875C9.9375 10.5645 9.68555 10.3125 9.375 10.3125C9.06445 10.3125 8.8125 10.5645 8.8125 10.875V19.5C8.8125 19.8105 9.06445 20.0625 9.375 20.0625Z" fill="black"/>
<path d="M14.625 10.3125C14.9355 10.3125 15.1875 10.5645 15.1875 10.875V19.5C15.1875 19.8105 14.9355 20.0625 14.625 20.0625C14.3145 20.0625 14.0625 19.8105 14.0625 19.5V10.875C14.0625 10.5645 14.3145 10.3125 14.625 10.3125Z" fill="black"/>
</svg>
