<svg width="24" height="24" viewBox="0 0 24 24" fill="none" xmlns="http://www.w3.org/2000/svg">
<path d="M2.3875 20.6826C2.665 20.7951 2.9975 20.6451 3.1075 20.3501L4.44 16.8351H11.84L13.1525 20.3676C13.245 20.5901 13.45 20.7201 13.6725 20.7201C13.745 20.7201 13.8 20.7026 13.875 20.6826C14.17 20.5726 14.3 20.2576 14.2075 19.9626L8.6575 5.16256C8.585 4.95756 8.38 4.81006 8.14 4.81006C7.9 4.81006 7.695 4.95756 7.6225 5.16256L2.0725 19.9626C1.96 20.2576 2.11 20.5726 2.3875 20.6826ZM8.14 6.93756L11.4325 15.7251H4.8475L8.14 6.93756Z" fill="black"/>
<path d="M15.3925 16.4651V18.3151C15.3925 19.6476 16.465 20.7201 17.7975 20.7201C18.4825 20.7201 19.0925 20.4426 19.535 19.9801C19.905 20.4251 20.46 20.7201 21.09 20.7201C21.405 20.7201 21.645 20.4801 21.645 20.1651C21.645 19.8501 21.405 19.6101 21.09 19.6101C20.61 19.6101 20.2025 19.2226 20.2025 18.7226V16.4651C20.2025 15.1326 19.13 14.0601 17.7975 14.0601C16.465 14.0601 15.3925 15.1326 15.3925 16.4651ZM19.0925 16.4651V18.3151C19.0925 19.0376 18.5175 19.6101 17.7975 19.6101C17.075 19.6101 16.5025 19.0376 16.5025 18.3151V16.4651C16.5025 15.7426 17.075 15.1701 17.7975 15.1701C18.5175 15.1701 19.0925 15.7426 19.0925 16.4651Z" fill="black"/>
</svg>
