<svg width="24" height="24" viewBox="0 0 24 24" fill="none" xmlns="http://www.w3.org/2000/svg">
<path d="M17.7225 18.6475C17.445 18.925 17.2975 19.295 17.2975 19.7025C17.2975 20.11 17.445 20.46 17.7225 20.7575L20.3325 23.365C20.4425 23.4775 20.59 23.5325 20.72 23.5325C20.85 23.5325 20.9975 23.4775 21.1075 23.365C21.33 23.1425 21.33 22.7925 21.1075 22.5875L18.5 19.9425C18.425 19.87 18.39 19.7775 18.39 19.685C18.39 19.5925 18.425 19.5 18.5 19.425L21.1075 16.8175C21.385 16.54 21.535 16.17 21.535 15.7625C21.535 15.355 21.385 15.0025 21.1075 14.7075L18.5 12.1C18.425 12.025 18.39 11.9325 18.39 11.84C18.39 11.7475 18.425 11.655 18.5 11.58L21.1075 8.97252C21.385 8.69502 21.535 8.32502 21.535 7.91752C21.535 7.51002 21.385 7.16002 21.1075 6.86252L18.5175 4.25502C18.445 4.18002 18.4075 4.08752 18.4075 3.99502C18.4075 3.90252 18.445 3.81002 18.5175 3.73752L21.1275 1.11002C21.35 0.887525 21.35 0.537525 21.1275 0.332524C20.905 0.110024 20.5525 0.110024 20.35 0.332524L17.7225 2.94252C17.445 3.22002 17.2975 3.59002 17.2975 3.99502C17.2975 4.40252 17.445 4.75502 17.7225 5.05002L20.3325 7.66002C20.405 7.73252 20.4425 7.82502 20.4425 7.91752C20.4425 8.01002 20.405 8.10252 20.3325 8.17752L17.7225 10.785C17.445 11.0625 17.2975 11.4325 17.2975 11.84C17.2975 12.2475 17.445 12.5975 17.7225 12.895L20.35 15.5025C20.425 15.5775 20.46 15.67 20.46 15.7625C20.46 15.855 20.425 15.9475 20.35 16.02L17.7225 18.6475Z" fill="black"/>
<path d="M4.8275 2.20252C4.6075 1.98002 4.255 1.98002 4.0525 2.20252C3.83 2.42252 3.83 2.77502 4.0525 2.97752L12.655 11.58C12.7275 11.655 12.765 11.7475 12.765 11.84C12.765 11.9325 12.7275 12.025 12.655 12.1L4.995 19.7575V16.465C4.995 16.15 4.755 15.91 4.44 15.91C4.125 15.91 3.885 16.15 3.885 16.465V21.09C3.885 21.405 4.125 21.645 4.44 21.645H9.065C9.38 21.645 9.62 21.405 9.62 21.09C9.62 20.775 9.38 20.535 9.065 20.535H5.7725L13.4125 12.895C13.69 12.6175 13.8375 12.2475 13.8375 11.84C13.8375 11.4325 13.69 11.0825 13.4125 10.785L4.8275 2.20252Z" fill="black"/>
</svg>
