<svg width="24" height="24" viewBox="0 0 24 24" fill="none" xmlns="http://www.w3.org/2000/svg">
<path d="M3.1275 16.8525C3.2375 16.965 3.385 17.02 3.515 17.02C3.645 17.02 3.7925 16.965 3.9025 16.8525L6.6775 14.0775C6.9 13.8575 6.9 13.505 6.6775 13.3025C6.4575 13.08 6.105 13.08 5.9025 13.3025L4.07 15.1325V4.44003C4.07 3.71753 4.6425 3.14503 5.365 3.14503H18.315C18.63 3.14503 18.87 2.90503 18.87 2.59003C18.87 2.27503 18.63 2.03503 18.315 2.03503H5.365C4.0325 2.03503 2.96 3.10753 2.96 4.44003V15.1325L1.1275 13.3025C0.907498 13.08 0.554999 13.08 0.352498 13.3025C0.129998 13.5225 0.129998 13.875 0.352498 14.0775L3.1275 16.8525Z" fill="black"/>
<path d="M20.5525 6.82753C20.3325 6.60503 19.98 6.60503 19.7775 6.82753L17.0025 9.60253C16.78 9.82253 16.78 10.175 17.0025 10.3775C17.2225 10.6 17.575 10.6 17.7775 10.3775L19.61 8.54753V19.24C19.61 19.9625 19.0375 20.535 18.315 20.535H5.365C5.05 20.535 4.81 20.775 4.81 21.09C4.81 21.405 5.05 21.645 5.365 21.645H18.315C19.6475 21.645 20.72 20.5725 20.72 19.24V8.54753L22.5525 10.3775C22.6625 10.49 22.81 10.545 22.94 10.545C23.07 10.545 23.2175 10.49 23.3275 10.3775C23.55 10.1575 23.55 9.80503 23.3275 9.60253L20.5525 6.82753Z" fill="black"/>
</svg>
