<svg width="24" height="24" viewBox="0 0 24 24" fill="none" xmlns="http://www.w3.org/2000/svg">
<path d="M5.365 17.945H6.29C6.605 17.945 6.845 17.705 6.845 17.39C6.845 17.075 6.605 16.835 6.29 16.835H5.365C3.625 16.835 2.22 15.43 2.22 13.69C2.22 11.95 3.625 10.545 5.365 10.545H6.29C6.605 10.545 6.845 10.305 6.845 9.98996V9.06496C6.845 6.30746 9.0825 4.06996 11.84 4.06996C14.5975 4.06996 16.835 6.30746 16.835 9.06496V9.98996C16.835 10.305 17.075 10.545 17.39 10.545H18.315C20.055 10.545 21.46 11.95 21.46 13.69C21.46 15.43 20.055 16.835 18.315 16.835H17.39C17.075 16.835 16.835 17.075 16.835 17.39C16.835 17.705 17.075 17.945 17.39 17.945H18.315C20.665 17.945 22.57 16.04 22.57 13.69C22.57 11.34 20.665 9.43496 18.315 9.43496H17.945V9.06496C17.945 5.69746 15.2075 2.95996 11.84 2.95996C8.4725 2.95996 5.735 5.69746 5.735 9.06496V9.43496H5.365C3.015 9.43496 1.11 11.34 1.11 13.69C1.11 16.04 3.015 17.945 5.365 17.945Z" fill="black"/>
<path d="M11.84 22.57C12.155 22.57 12.395 22.33 12.395 22.015V14.0975L14.2275 15.9275C14.3375 16.04 14.485 16.095 14.615 16.095C14.745 16.095 14.8925 16.04 15.0025 15.9275C15.225 15.7075 15.225 15.355 15.0025 15.1525L12.2275 12.3775C12.0075 12.155 11.655 12.155 11.4525 12.3775L8.6775 15.1525C8.455 15.3725 8.455 15.725 8.6775 15.9275C8.8975 16.15 9.25 16.15 9.4525 15.9275L11.285 14.0975V22.015C11.285 22.33 11.525 22.57 11.84 22.57Z" fill="black"/>
</svg>
