<svg width="24" height="24" viewBox="0 0 24 24" fill="none" xmlns="http://www.w3.org/2000/svg">
<path d="M3.2975 7.09751L3.0775 6.63001L2.8575 7.09751L2.3675 7.17251L2.7225 7.53751L2.64 8.05001L3.0775 7.80751L3.5175 8.05001L3.4325 7.53751L3.79 7.17251L3.2975 7.09751Z" fill="black"/>
<path d="M5.9025 6.63001L6.1225 7.09751L6.6125 7.17251L6.2575 7.53751L6.3425 8.05001L5.9025 7.80751L5.4625 8.05001L5.5475 7.53751L5.1925 7.17251L5.6825 7.09751L5.9025 6.63001Z" fill="black"/>
<path d="M8.9825 7.09751L8.7625 6.63001L8.5425 7.09751L8.05 7.17251L8.4075 7.53751L8.3225 8.05001L8.7625 7.80751L9.2 8.05001L9.1175 7.53751L9.4725 7.17251L8.9825 7.09751Z" fill="black"/>
<path d="M3.0775 9.94501L3.2975 10.4125L3.79 10.4875L3.4325 10.8525L3.5175 11.3675L3.0775 11.125L2.64 11.3675L2.7225 10.8525L2.3675 10.4875L2.8575 10.4125L3.0775 9.94501Z" fill="black"/>
<path d="M6.14 10.4125L5.92 9.94501L5.7 10.4125L5.21 10.4875L5.565 10.8525L5.48 11.3675L5.92 11.125L6.36 11.3675L6.275 10.8525L6.63 10.4875L6.14 10.4125Z" fill="black"/>
<path d="M8.7625 9.94501L8.9825 10.4125L9.4725 10.4875L9.1175 10.8525L9.2 11.3675L8.7625 11.125L8.3225 11.3675L8.4075 10.8525L8.05 10.4875L8.5425 10.4125L8.7625 9.94501Z" fill="black"/>
<path d="M7.56 8.75501L7.34 8.28751L7.12 8.75501L6.63 8.83001L6.985 9.19501L6.9025 9.71001L7.34 9.46751L7.78 9.71001L7.695 9.19501L8.05 8.83001L7.56 8.75501Z" fill="black"/>
<path d="M4.5 8.28751L4.72 8.75501L5.21 8.83001L4.855 9.19501L4.9375 9.71001L4.5 9.46751L4.06 9.71001L4.145 9.19501L3.79 8.83001L4.28 8.75501L4.5 8.28751Z" fill="black"/>
<path fill-rule="evenodd" clip-rule="evenodd" d="M1.42 4.76001C1.17147 4.76001 0.970001 4.96148 0.970001 5.21001V18.47C0.970001 18.7185 1.17147 18.92 1.42 18.92H22.26C22.5085 18.92 22.71 18.7185 22.71 18.47V5.21001C22.71 4.96148 22.5085 4.76001 22.26 4.76001H1.42ZM10.87 12.3375L21.81 12.3375V11.3425H10.87V12.3375ZM21.81 13.2375L1.87 13.2375V14.2325H21.81V13.2375ZM10.87 5.66001V6.65501H21.81V5.66001H10.87ZM21.81 7.55501H10.87V8.54751H21.81V7.55501ZM21.81 9.44751H10.87V10.4425H21.81V9.44751ZM21.81 15.1325H1.87V16.125H21.81V15.1325ZM21.81 17.025H1.87V18.02H21.81V17.025ZM9.97 5.66001V12.3375H1.87V5.66001H9.97Z" fill="black"/>
</svg>
