<svg viewBox="-0.5 -0.5 24 24" xmlns="http://www.w3.org/2000/svg" id="Vectors-Pen-Anchor--Streamline-Ultimate">
  <desc>
    Vectors Pen Anchor Streamline Icon: https://streamlinehq.com
  </desc>
  <path d="M8.450328908866666 3.4702709353833336 11.499726902695835 0.42087294155416666l3.049397993925 3.0493979938291664 -3.049397993925 3.049397993925Z" fill="none" stroke="currentColor" stroke-linecap="round" stroke-linejoin="round" stroke-width="1"></path>
  <path d="m0.42045390886666667 11.499854064616667 3.0493979938291664 -3.049397993925 3.049397993925 3.049397993925 -3.049397993925 3.0493979938291664Z" fill="none" stroke="currentColor" stroke-linecap="round" stroke-linejoin="round" stroke-width="1"></path>
  <path d="m16.47991203800417 11.500145935383333 3.0493979938291664 -3.0493979938291664 3.049397993925 3.0493979938291664 -3.049397993925 3.049397993925Z" fill="none" stroke="currentColor" stroke-linecap="round" stroke-linejoin="round" stroke-width="1"></path>
  <path d="m9.975291666666667 4.994833333333333 -4.980458333333334 4.980458333333334" fill="none" stroke="currentColor" stroke-linecap="round" stroke-linejoin="round" stroke-width="1"></path>
  <path d="m13.024708333333333 4.994833333333333 4.980458333333334 4.980458333333334" fill="none" stroke="currentColor" stroke-linecap="round" stroke-linejoin="round" stroke-width="1"></path>
  <path d="m10.8215 9.315958333333334 -2.860625 5.72125a4.012541666666667 4.012541666666667 0 0 0 0.7513333333333334 4.6316250000000005h0a4.012541666666667 4.012541666666667 0 0 0 5.674291666666667 0h0a4.012541666666667 4.012541666666667 0 0 0 0.7513333333333334 -4.6316250000000005l-2.860625 -5.72125a0.813625 0.813625 0 0 0 -1.4557083333333334 0Z" fill="none" stroke="currentColor" stroke-linecap="round" stroke-linejoin="round" stroke-width="1"></path>
  <path d="m11.549833333333334 8.8665 0 6.916291666666667" fill="none" stroke="currentColor" stroke-linecap="round" stroke-linejoin="round" stroke-width="1"></path>
  <path d="m7.1875 22.28125 8.625 0" fill="none" stroke="currentColor" stroke-linecap="round" stroke-linejoin="round" stroke-width="1"></path>
</svg>