<svg width="410" height="111" viewBox="0 0 410 111" fill="none" xmlns="http://www.w3.org/2000/svg">
<g id="Vector">
<path fill-rule="evenodd" clip-rule="evenodd" d="M167.793 24.0723C173.3 24.0723 178.138 25.4488 182.308 28.2021C186.555 30.9555 189.938 34.6922 192.455 39.4121C194.972 44.0534 196.231 49.3632 196.231 55.3418C196.231 61.3205 194.933 66.6697 192.337 71.3896C189.82 76.0309 186.437 79.6896 182.189 82.3643C177.941 85.0389 173.182 86.376 167.911 86.376C163.663 86.3759 160.005 85.6284 156.938 84.1338C154.061 82.7325 151.635 80.8124 149.657 78.374L149.268 77.8799V110.92H131.567V25.4873H147.262L149.268 33.2754C150.526 31.6235 151.982 30.0897 153.634 28.6738C155.286 27.258 157.252 26.1567 159.533 25.3701C161.893 24.5048 164.646 24.0723 167.793 24.0723ZM163.428 39.5293C160.517 39.5293 157.921 40.2375 155.64 41.6533C153.437 42.9907 151.706 44.8402 150.447 47.2002C149.189 49.5601 148.56 52.2345 148.56 55.2236C148.56 58.2915 149.189 61.0448 150.447 63.4834C151.706 65.8434 153.437 67.6929 155.64 69.0303C157.921 70.2888 160.517 70.918 163.428 70.918C166.26 70.9179 168.777 70.2888 170.979 69.0303C173.261 67.6929 175.03 65.8434 176.289 63.4834C177.548 61.1234 178.178 58.4097 178.178 55.3418C178.178 52.2739 177.548 49.5602 176.289 47.2002C175.03 44.8402 173.261 42.9907 170.979 41.6533C168.777 40.2374 166.26 39.5294 163.428 39.5293Z" fill="black"/>
<path fill-rule="evenodd" clip-rule="evenodd" d="M264.36 24.0723C270.182 24.0723 275.374 25.4093 279.937 28.084C284.499 30.7586 288.117 34.4559 290.792 39.1758C293.467 43.8171 294.805 49.1664 294.805 55.2236C294.805 61.281 293.467 66.6697 290.792 71.3896C288.117 76.031 284.499 79.6896 279.937 82.3643C275.374 85.0389 270.182 86.376 264.36 86.376C258.618 86.376 253.465 85.0388 248.902 82.3643C244.34 79.6896 240.721 76.031 238.046 71.3896C235.371 66.6697 234.034 61.3204 234.034 55.3418C234.034 49.2059 235.371 43.8171 238.046 39.1758C240.721 34.4558 244.34 30.7587 248.902 28.084C253.544 25.4093 258.696 24.0723 264.36 24.0723ZM264.479 39.4121C262.119 39.4121 259.994 40.0017 258.106 41.1816C256.297 42.3616 254.842 44.1322 253.74 46.4922C252.639 48.8521 252.088 51.7625 252.088 55.2236C252.088 58.685 252.639 61.5961 253.74 63.9561C254.842 66.3159 256.297 68.0857 258.106 69.2656C259.994 70.4456 262.079 71.0361 264.36 71.0361C266.72 71.0361 268.805 70.4456 270.614 69.2656C272.502 68.0856 273.997 66.316 275.099 63.9561C276.2 61.5961 276.75 58.685 276.75 55.2236C276.75 51.7626 276.2 48.8521 275.099 46.4922C273.997 44.1322 272.542 42.3616 270.732 41.1816C268.923 40.0017 266.838 39.4122 264.479 39.4121Z" fill="black"/>
<path fill-rule="evenodd" clip-rule="evenodd" d="M380.001 24.0752C385.747 24.1538 390.793 25.451 395.137 27.9658C399.621 30.5618 403.121 34.102 405.639 38.5859C408.235 42.9912 409.532 48.1046 409.532 53.9258C409.532 54.7124 409.493 55.617 409.414 56.6396C409.414 57.5836 409.336 58.5672 409.179 59.5898H366.056C366.222 61.6768 366.711 63.5649 367.524 65.2539C368.626 67.3778 370.159 69.03 372.126 70.21C374.171 71.3899 376.571 71.9795 379.324 71.9795C381.92 71.9795 384.044 71.468 385.696 70.4453C387.427 69.344 388.764 67.9674 389.708 66.3154H407.763C406.661 70.0914 404.773 73.514 402.099 76.582C399.424 79.5713 396.159 81.9709 392.305 83.7803C388.45 85.5109 384.202 86.376 379.561 86.376C373.425 86.376 368.036 85.1169 363.395 82.5996C358.753 80.0036 355.095 76.424 352.42 71.8613C349.824 67.2201 348.526 61.9101 348.526 55.9316C348.526 49.7957 349.824 44.3279 352.42 39.5293C355.016 34.7308 358.635 30.9554 363.276 28.2021C367.918 25.4488 373.306 24.0723 379.442 24.0723L380.001 24.0752ZM379.561 38.3496C377.043 38.3496 374.762 38.9402 372.717 40.1201C370.672 41.3001 369.019 43.0698 367.761 45.4297C367.186 46.5786 366.753 47.877 366.458 49.3242H391.479C391.321 46.0202 390.102 43.3846 387.82 41.418C385.618 39.3727 382.864 38.3496 379.561 38.3496Z" fill="black"/>
<path d="M78.8486 25.4883L92.5361 44.7217L106.225 25.4883H125.223L103.511 55.2236L125.223 84.96H106.225L92.5361 65.6074L78.8486 84.96H59.7324L81.4443 55.2236L59.7324 25.4883H78.8486Z" fill="black"/>
<path d="M223.972 84.96H206.271V0H223.972V84.96Z" fill="black"/>
<path d="M344.156 24.0723V42.834H338.256C335.896 42.834 333.732 43.1095 331.766 43.6602C329.878 44.1322 328.226 44.9578 326.81 46.1377C325.472 47.3176 324.411 48.9304 323.624 50.9756C322.916 52.9423 322.562 55.4208 322.562 58.4102V84.96H304.862V25.4873H320.556L322.208 36.3438C323.781 33.8265 325.63 31.6628 327.754 29.8535C329.878 28.0443 332.316 26.6281 335.069 25.6055C337.901 24.5828 340.931 24.0723 344.156 24.0723Z" fill="black"/>
<path d="M55.3418 16.2383H17.7002V35.708H51.8018V49.3955H17.7002V70.2822H55.3418V84.5596H0V1.95996H55.3418V16.2383Z" fill="black"/>
</g>
</svg>
