<svg width="24" height="24" viewBox="0 0 24 24" fill="none" xmlns="http://www.w3.org/2000/svg">
<g clip-path="url(#clip0_13117_332)">
<path d="M9.5275 18.3326C9.73 18.4451 9.9525 18.5001 10.175 18.5001C10.3975 18.5001 10.6375 18.4451 10.8225 18.3151L15.595 15.5401C16.0025 15.3001 16.2425 14.8751 16.2425 14.4126C16.2425 13.9501 15.985 13.5051 15.595 13.2826L10.8225 10.5076C10.415 10.2676 9.915 10.2676 9.51 10.5076C9.14 10.7676 8.88 11.1926 8.88 11.6551V17.2051C8.88 17.6676 9.14 18.0926 9.5275 18.3326ZM9.99 11.6551C9.99 11.5801 10.0275 11.5251 10.0825 11.4876C10.12 11.4701 10.1575 11.4701 10.175 11.4701C10.1925 11.4701 10.25 11.4701 10.2675 11.4876L15.04 14.2626C15.095 14.3001 15.1325 14.3551 15.1325 14.4301C15.1325 14.5051 15.095 14.5601 15.04 14.5976L10.2675 17.3726C10.2125 17.4076 10.1375 17.4076 10.065 17.3726C9.99 17.3351 9.99 17.2601 9.99 17.2051V11.6551Z" fill="black"/>
<path d="M21.09 0.185059H2.59C1.2575 0.185059 0.184998 1.25756 0.184998 2.59006V21.0901C0.184998 22.4226 1.2575 23.4951 2.59 23.4951H21.09C22.4225 23.4951 23.495 22.4226 23.495 21.0901V2.59006C23.495 1.25756 22.4225 0.185059 21.09 0.185059ZM22.385 21.0901C22.385 21.8126 21.8125 22.3851 21.09 22.3851H2.59C1.8675 22.3851 1.295 21.8126 1.295 21.0901V6.47506H22.385V21.0901ZM22.385 5.36506H1.295V2.59006C1.295 1.86756 1.8675 1.29506 2.59 1.29506H21.09C21.8125 1.29506 22.385 1.86756 22.385 2.59006V5.36506Z" fill="black"/>
<path d="M4.07 2.77506H3.33C3.015 2.77506 2.775 3.01506 2.775 3.33006C2.775 3.64506 3.015 3.88506 3.33 3.88506H4.07C4.385 3.88506 4.625 3.64506 4.625 3.33006C4.625 3.01506 4.385 2.77506 4.07 2.77506Z" fill="black"/>
<path d="M7.03 2.77506H6.29C5.975 2.77506 5.735 3.01506 5.735 3.33006C5.735 3.64506 5.975 3.88506 6.29 3.88506H7.03C7.345 3.88506 7.585 3.64506 7.585 3.33006C7.585 3.01506 7.345 2.77506 7.03 2.77506Z" fill="black"/>
</g>
<defs>
<clipPath id="clip0_13117_332">
<rect width="24" height="24" fill="black"/>
</clipPath>
</defs>
</svg>
