<svg width="24" height="24" viewBox="0 0 24 24" fill="none" xmlns="http://www.w3.org/2000/svg">
<path d="M7.955 9.06498H2.775C1.35 9.06498 0.184998 10.23 0.184998 11.655C0.184998 13.08 1.35 14.245 2.775 14.245H17.39C19.0925 14.245 20.6825 13.56 21.8475 12.3025C23.975 10.0275 24.0325 6.41998 21.9775 4.08748C20.85 2.82998 19.2775 2.08998 17.575 2.03498C15.8925 1.97998 14.245 2.62748 13.06 3.80998C12.84 4.03248 12.84 4.38498 13.06 4.58748C13.2825 4.80998 13.635 4.80998 13.8375 4.58748C14.8175 3.60748 16.1325 3.08998 17.52 3.12748C18.9075 3.16248 20.1825 3.77498 21.1075 4.82748C22.7925 6.73498 22.755 9.67498 20.9975 11.545C20.0725 12.58 18.7775 13.135 17.39 13.135H2.775C1.96 13.135 1.295 12.47 1.295 11.655C1.295 10.84 1.96 10.175 2.775 10.175H7.955C9.7875 10.175 11.285 8.67748 11.285 6.84498C11.285 5.01248 9.7875 3.51498 7.955 3.51498C7.03 3.51498 6.1425 3.90248 5.5125 4.56998C5.31 4.80998 5.3275 5.14248 5.55 5.36498C5.7725 5.56748 6.1225 5.56748 6.3275 5.32748C6.7525 4.86498 7.325 4.62498 7.955 4.62498C9.175 4.62498 10.175 5.62498 10.175 6.84498C10.175 8.06498 9.175 9.06498 7.955 9.06498Z" fill="black"/>
<path d="M22.94 22.385H3.515C3.2 22.385 2.96 22.625 2.96 22.94C2.96 23.255 3.2 23.495 3.515 23.495H22.94C23.255 23.495 23.495 23.255 23.495 22.94C23.495 22.625 23.255 22.385 22.94 22.385Z" fill="black"/>
<path d="M0.222498 23.1425C0.239998 23.18 0.259998 23.2175 0.277498 23.235C0.294998 23.2725 0.314998 23.2925 0.352498 23.31C0.462498 23.42 0.592498 23.4775 0.739998 23.4775C0.777498 23.4775 0.814998 23.4775 0.849998 23.4575C0.887498 23.4575 0.924998 23.44 0.962498 23.42C0.999998 23.4025 1.035 23.385 1.055 23.365C1.0925 23.3475 1.11 23.3275 1.1275 23.2925C1.1475 23.2725 1.185 23.235 1.2025 23.2175C1.22 23.18 1.24 23.1625 1.2575 23.125C1.2775 23.0875 1.2775 23.05 1.295 23.015C1.295 22.9775 1.3125 22.94 1.3125 22.9025C1.3125 22.755 1.2575 22.6075 1.1475 22.515C1.1275 22.495 1.0925 22.46 1.0725 22.44C1.035 22.4225 1.0175 22.4025 0.979998 22.385C0.942498 22.3675 0.907498 22.3675 0.869998 22.3475C0.684998 22.31 0.499998 22.3675 0.369998 22.495C0.239998 22.645 0.184998 22.7925 0.184998 22.94C0.184998 22.9775 0.184998 23.015 0.202498 23.05C0.202498 23.0875 0.202498 23.125 0.222498 23.1425Z" fill="black"/>
</svg>
