<svg width="24" height="24" viewBox="0 0 24 24" fill="none" xmlns="http://www.w3.org/2000/svg">
<path d="M11.84 16.1875C13.2275 16.1875 14.375 15.17 14.5775 13.8375C14.615 13.615 14.4475 13.4125 14.2075 13.4125H9.47251C9.25001 13.4125 9.06501 13.615 9.10251 13.8375C9.30501 15.17 10.4525 16.1875 11.84 16.1875Z" fill="black"/>
<path d="M10.4525 10.175C10.4525 10.9425 9.83251 11.5625 9.06501 11.5625C8.29751 11.5625 7.67751 10.9425 7.67751 10.175C7.67751 9.40749 8.29751 8.78749 9.06501 8.78749C9.83251 8.78749 10.4525 9.40749 10.4525 10.175Z" fill="black"/>
<path d="M16.095 10.175C16.095 9.85999 15.855 9.61999 15.54 9.61999H13.875C13.56 9.61999 13.32 9.85999 13.32 10.175C13.32 10.49 13.56 10.73 13.875 10.73H15.54C15.855 10.73 16.095 10.49 16.095 10.175Z" fill="black"/>
<path d="M3.51501 20.165C3.51501 21.4975 4.58751 22.57 5.92001 22.57H17.76C19.0925 22.57 20.165 21.4975 20.165 20.165V7.95499C20.165 7.63999 19.925 7.39999 19.61 7.39999C19.295 7.39999 19.055 7.63999 19.055 7.95499V20.165C19.055 20.8875 18.4825 21.46 17.76 21.46H5.92001C5.19751 21.46 4.62501 20.8875 4.62501 20.165V3.51499C4.62501 2.79249 5.19751 2.21999 5.92001 2.21999H15.355V3.51499C15.355 4.84749 16.4275 5.91999 17.76 5.91999H19.61C19.925 5.91999 20.165 5.67999 20.165 5.36498C20.165 3.01499 18.26 1.10999 15.91 1.10999H5.92001C4.58751 1.10999 3.51501 2.18249 3.51501 3.51499V20.165ZM19 4.80999H17.76C17.0375 4.80999 16.465 4.23749 16.465 3.51499V2.27499C17.76 2.49749 18.7775 3.51499 19 4.80999Z" fill="black"/>
</svg>
