<svg width="24" height="24" viewBox="0 0 24 24" fill="none" xmlns="http://www.w3.org/2000/svg">
<path fill-rule="evenodd" clip-rule="evenodd" d="M19.0879 8.56836C19.332 8.64453 19.5 8.86914 19.5 9.11328V10.9688C19.5 11.2695 19.2559 11.5312 18.9375 11.5117H5.0625C4.74414 11.5117 4.5 11.2695 4.5 10.9492V9.09375C4.5 8.83203 4.66797 8.625 4.91211 8.55078L5.32422 8.4375C5.36328 8.4375 5.36328 8.41797 5.36328 8.41797V7.6875C5.36328 5.26953 6.75 3.05664 8.96289 1.94922V1.91211C8.96289 1.29297 9.48828 0.769531 10.125 0.769531H13.8945C14.5313 0.769531 15.0566 1.27539 15.0566 1.91211V1.94922C17.2305 3.05664 18.6367 5.26953 18.6367 7.6875V8.4375C18.6367 8.4375 18.6563 8.45703 18.6758 8.45703L19.0879 8.56836ZM6.46875 8.4375C6.46875 8.94336 6.13086 9.41211 5.625 9.54297V10.4062H17.25V9.80664H9.50586C9.1875 9.80664 8.94336 9.5625 8.94336 9.24414C8.94336 8.92578 9.1875 8.68164 9.50586 8.68164H16.3867C16.3867 8.64331 16.3823 8.60547 16.3778 8.56788C16.3735 8.53077 16.3691 8.4939 16.3691 8.45703V7.72461C16.3691 6.43164 15.8809 5.21289 15.0371 4.25586V5.02539C15.0371 5.34375 14.793 5.58789 14.4746 5.58789C14.1562 5.58789 13.9121 5.34375 13.9121 5.02539V2.4375C13.8945 2.40039 13.8945 2.36328 13.8945 2.32422V1.91211C13.8945 1.91211 13.8945 1.89453 13.8555 1.89453H10.0879C10.0684 1.89453 10.0508 1.89453 10.0508 1.91211V4.98828C10.0508 5.30664 9.80664 5.55078 9.48828 5.55078C9.16797 5.55078 8.92578 5.30664 8.92578 4.98828V3.24414C7.40625 4.21875 6.46875 5.88672 6.46875 7.6875V8.4375Z" fill="black"/>
<path d="M12 19.8183C13.1816 19.8183 16.125 19.1992 18.1875 13.4805C18.3008 13.1816 18.1309 12.8633 17.8496 12.7695C17.5508 12.6562 17.2305 12.8242 17.1367 13.1055C15.3184 18.1504 12.9375 18.6933 12 18.6933C11.0625 18.6933 8.68164 18.1504 6.88086 13.1055C6.76953 12.8066 6.44922 12.6562 6.16797 12.7695C5.86914 12.8808 5.71875 13.1992 5.83203 13.4805C7.875 19.1992 10.8184 19.8183 12 19.8183Z" fill="black"/>
<path d="M11.9629 22.4629C13.125 22.4629 14.0625 21.8809 14.5508 20.9258L18.1875 22.4062C18.2617 22.4434 18.3379 22.4434 18.3945 22.4434C18.6191 22.4434 18.8242 22.3125 18.918 22.0879C19.0312 21.8066 18.9004 21.4688 18.6191 21.3555L14.457 19.668H14.418C14.4107 19.668 14.4065 19.668 14.4026 19.6667C14.3971 19.665 14.3923 19.6607 14.3809 19.6504H14.3633C14.3438 19.6504 14.3242 19.6504 14.3066 19.6309H14.1367C14.1191 19.6309 14.0996 19.6309 14.082 19.6504C14.072 19.6504 14.062 19.655 14.0522 19.6595C14.043 19.6638 14.0339 19.668 14.0254 19.668C14.0156 19.668 14.0063 19.6729 13.9971 19.6777C13.9878 19.6826 13.9785 19.6875 13.9688 19.6875C13.959 19.6875 13.9497 19.6924 13.9404 19.6973C13.9312 19.7021 13.9219 19.707 13.9121 19.707C13.8945 19.707 13.875 19.7246 13.875 19.7441C13.8681 19.7503 13.8615 19.7543 13.8558 19.7578C13.8453 19.7641 13.8379 19.7686 13.8379 19.7812L13.8008 19.8184C13.7935 19.8256 13.789 19.8326 13.7851 19.8385C13.7786 19.8485 13.774 19.8555 13.7617 19.8555C13.7553 19.8626 13.7513 19.8697 13.7477 19.8759C13.7416 19.8866 13.737 19.8945 13.7246 19.8945C13.707 19.9121 13.707 19.9316 13.707 19.9492C13.707 19.9492 13.707 19.9688 13.6875 19.9688V20.0059L13.6875 20.0103C13.6874 20.0162 13.6872 20.02 13.6859 20.0234C13.6838 20.0287 13.679 20.0331 13.668 20.043C13.4062 21 12.5996 21.3379 11.9629 21.3379C11.3066 21.3379 10.5195 21 10.2559 20.043C10.2559 20.0342 10.2559 20.0298 10.2537 20.0276C10.2515 20.0254 10.2471 20.0254 10.2383 20.0254V19.9883C10.2383 19.9883 10.2383 19.9688 10.2188 19.9688C10.2188 19.959 10.2139 19.9497 10.209 19.9404C10.2041 19.9312 10.1992 19.9219 10.1992 19.9121C10.1992 19.8945 10.1816 19.875 10.1621 19.875C10.1559 19.8681 10.1519 19.8615 10.1485 19.8558C10.1421 19.8453 10.1377 19.8379 10.125 19.8379L10.0879 19.8008C10.0807 19.7935 10.0737 19.789 10.0678 19.7851C10.0577 19.7786 10.0508 19.774 10.0508 19.7617C10.0313 19.7442 10.0312 19.7441 10.0117 19.7246C9.99414 19.707 9.97461 19.707 9.95703 19.707C9.9375 19.707 9.91797 19.6875 9.91797 19.6875C9.90918 19.6875 9.8999 19.6826 9.89062 19.6777L9.88715 19.6759C9.87904 19.6717 9.87097 19.668 9.86328 19.668C9.84375 19.668 9.82422 19.668 9.82422 19.6504H9.65625C9.63672 19.6504 9.61914 19.6504 9.59961 19.668H9.58203C9.5625 19.668 9.5625 19.668 9.54297 19.6875H9.50586L5.34375 21.375C5.0625 21.4883 4.91211 21.8242 5.04297 22.1055C5.13672 22.332 5.34375 22.4629 5.56836 22.4629C5.64453 22.4629 5.71875 22.4434 5.77539 22.4258L9.41211 20.9434C9.90039 21.8809 10.8555 22.4629 11.9629 22.4629Z" fill="black"/>
</svg>
